<?xml version="1.0" encoding="UTF-8"?>
<svg id="Layer_7" data-name="Layer 7" xmlns="http://www.w3.org/2000/svg" viewBox="0 0 489.6 136.8">
  <text transform="translate(90.36 115.2)" fill="#231f20" font-family="OpenSans-Bold, &apos;Open Sans&apos;" font-size="10" font-weight="700"><tspan x="0" y="0">P.E.I</tspan></text>
  <text transform="translate(119.94 115.2)" fill="#231f20" font-family="OpenSans-Bold, &apos;Open Sans&apos;" font-size="10" font-weight="700"><tspan x="0" y="0">N.S.</tspan></text>
  <text transform="translate(148.13 115.2)" fill="#231f20" font-family="OpenSans-Bold, &apos;Open Sans&apos;" font-size="10" font-weight="700"><tspan x="0" y="0">N.B.</tspan></text>
  <text transform="translate(179.87 115.2)" fill="#231f20" font-family="OpenSans-Bold, &apos;Open Sans&apos;" font-size="10" font-weight="700"><tspan x="0" y="0">QB</tspan></text>
  <text transform="translate(207.96 115.2)" fill="#231f20" font-family="OpenSans-Bold, &apos;Open Sans&apos;" font-size="10" font-weight="700"><tspan x="0" y="0">ON</tspan></text>
  <text transform="translate(236.73 115.2)" fill="#231f20" font-family="OpenSans-Bold, &apos;Open Sans&apos;" font-size="10" font-weight="700"><tspan x="0" y="0">MB</tspan></text>
  <text transform="translate(267.53 115.2)" fill="#231f20" font-family="OpenSans-Bold, &apos;Open Sans&apos;" font-size="10" font-weight="700"><tspan x="0" y="0">SK</tspan></text>
  <text transform="translate(295.6 115.2)" fill="#231f20" font-family="OpenSans-Bold, &apos;Open Sans&apos;" font-size="10" font-weight="700"><tspan x="0" y="0">AB</tspan></text>
  <text transform="translate(324.71 115.2)" fill="#231f20" font-family="OpenSans-Bold, &apos;Open Sans&apos;" font-size="10" font-weight="700"><tspan x="0" y="0">BC</tspan></text>
  <text transform="translate(353.57 115.2)" fill="#231f20" font-family="OpenSans-Bold, &apos;Open Sans&apos;" font-size="10" font-weight="700"><tspan x="0" y="0">YK</tspan></text>
  <text transform="translate(374.27 115.2)" fill="#231f20" font-family="OpenSans-Bold, &apos;Open Sans&apos;" font-size="10" font-weight="700"><tspan x="0" y="0">N.W.T</tspan></text>
  <text transform="translate(410.65 115.2)" fill="#231f20" font-family="OpenSans-Bold, &apos;Open Sans&apos;" font-size="10" font-weight="700"><tspan x="0" y="0">NT</tspan></text>
  <text transform="translate(62.27 115.2)" fill="#231f20" font-family="OpenSans-Bold, &apos;Open Sans&apos;" font-size="10" font-weight="700"><tspan x="0" y="0">N.L.</tspan></text>
  <text transform="translate(19.14 89.72)" fill="#00a28a" font-family="OpenSans-Bold, &apos;Open Sans&apos;" font-size="10" font-weight="700"><tspan x="0" y="0">% Rural</tspan></text>
  <text transform="translate(14.9 60.8)" fill="#6c297b" font-family="OpenSans-Bold, &apos;Open Sans&apos;" font-size="10" font-weight="700"><tspan x="0" y="0">% Urban</tspan></text>
  <text transform="translate(14.4 28.8)" font-family="TradeGothicLT-Bold, &apos;TradeGothic LT Bold&apos;" font-size="20" font-weight="700"><tspan x="0" y="0">Small Businesses Across Urban and Rural Canada</tspan></text>
  <rect x="359.19" y="43.2" width="14.6" fill="#6c297b" stroke="#fff" stroke-miterlimit="10" stroke-width=".5"/>
  <g>
    <g>
      <rect x="64.7" y="43.2" width="14.6" height="28.8" fill="#6c297b" stroke="#fff" stroke-miterlimit="10" stroke-width=".75"/>
      <rect x="64.7" y="72" width="14.6" height="28.98" fill="#00a28a" stroke="#fff" stroke-miterlimit="10" stroke-width=".75"/>
    </g>
    <g>
      <rect x="93.5" y="43.2" width="14.6" height="32.06" fill="#6c297b" stroke="#fff" stroke-miterlimit="10" stroke-width=".75"/>
      <rect x="93.5" y="75.26" width="14.6" height="25.73" fill="#00a28a" stroke="#fff" stroke-miterlimit="10" stroke-width=".75"/>
    </g>
    <g>
      <rect x="122.3" y="43.2" width="14.6" height="38.62" fill="#6c297b" stroke="#fff" stroke-miterlimit="10" stroke-width=".75"/>
      <rect x="122.3" y="81.83" width="14.6" height="19.16" fill="#00a28a" stroke="#fff" stroke-miterlimit="10" stroke-width=".75"/>
    </g>
    <g>
      <rect x="151.1" y="43.2" width="14.6" height="35.85" fill="#6c297b" stroke="#fff" stroke-miterlimit="10" stroke-width=".75"/>
      <rect x="151.1" y="79.06" width="14.6" height="21.93" fill="#00a28a" stroke="#fff" stroke-miterlimit="10" stroke-width=".75"/>
    </g>
    <g>
      <rect x="179.9" y="43.2" width="14.6" height="47.64" fill="#6c297b" stroke="#fff" stroke-miterlimit="10" stroke-width=".75"/>
      <rect x="179.9" y="90.84" width="14.6" height="10.15" fill="#00a28a" stroke="#fff" stroke-miterlimit="10" stroke-width=".75"/>
    </g>
    <g>
      <rect x="208.7" y="43.11" width="14.6" height="53.05" fill="#6c297b" stroke="#fff" stroke-miterlimit="10" stroke-width=".75"/>
      <rect x="208.7" y="96.16" width="14.6" height="4.73" fill="#00a28a" stroke="#fff" stroke-miterlimit="10" stroke-width=".75"/>
    </g>
    <g>
      <rect x="237.5" y="43.2" width="14.6" height="42.54" fill="#6c297b" stroke="#fff" stroke-miterlimit="10" stroke-width=".75"/>
      <rect x="237.5" y="85.74" width="14.6" height="15.24" fill="#00a28a" stroke="#fff" stroke-miterlimit="10" stroke-width=".75"/>
    </g>
    <g>
      <rect x="266.3" y="43.2" width="14.6" height="36" fill="#6c297b" stroke="#fff" stroke-miterlimit="10" stroke-width=".75"/>
      <rect x="266.3" y="79.2" width="14.6" height="21.78" fill="#00a28a" stroke="#fff" stroke-miterlimit="10" stroke-width=".75"/>
    </g>
    <g>
      <rect x="295.1" y="43.2" width="14.6" height="46.72" fill="#6c297b" stroke="#fff" stroke-miterlimit="10" stroke-width=".75"/>
      <rect x="295.1" y="89.92" width="14.6" height="11.07" fill="#00a28a" stroke="#fff" stroke-miterlimit="10" stroke-width=".75"/>
    </g>
    <g>
      <rect x="323.95" y="43.2" width="14.6" height="52.21" fill="#6c297b" stroke="#fff" stroke-miterlimit="10" stroke-width=".75"/>
      <rect x="323.95" y="95.41" width="14.6" height="5.58" fill="#00a28a" stroke="#fff" stroke-miterlimit="10" stroke-width=".75"/>
    </g>
    <g>
      <rect x="352.7" y="43.2" width="14.6" height="47.79" fill="#6c297b" stroke="#fff" stroke-miterlimit="10" stroke-width=".75"/>
      <rect x="352.7" y="90.99" width="14.6" height="10" fill="#00a28a" stroke="#fff" stroke-miterlimit="10" stroke-width=".75"/>
    </g>
    <g>
      <rect x="381.6" y="43.2" width="14.6" height="38.32" fill="#6c297b" stroke="#fff" stroke-miterlimit="10" stroke-width=".75"/>
      <rect x="381.6" y="81.52" width="14.6" height="19.46" fill="#00a28a" stroke="#fff" stroke-miterlimit="10" stroke-width=".75"/>
    </g>
    <rect x="410.3" y="43.2" width="14.6" height="57.79" fill="#00a28a" stroke="#fff" stroke-miterlimit="10" stroke-width=".75"/>
  </g>
  <g>
    <line x1="36" y1="43.11" x2="36.12" y2="43.11" fill="none" stroke="#231f20" stroke-miterlimit="10" stroke-width=".25"/>
    <line x1="38.12" y1="43.11" x2="452.48" y2="43.11" fill="none" stroke="#231f20" stroke-dasharray=".25 2" stroke-miterlimit="10" stroke-width=".25"/>
    <line x1="453.48" y1="43.11" x2="453.6" y2="43.11" fill="none" stroke="#231f20" stroke-miterlimit="10" stroke-width=".25"/>
  </g>
  <line x1="36" y1="100.99" x2="453.6" y2="100.99" fill="none" stroke="#231f20" stroke-miterlimit="10"/>
  <g>
    <line x1="36" y1="72.05" x2="36.12" y2="72.05" fill="none" stroke="#231f20" stroke-miterlimit="10" stroke-width=".25"/>
    <line x1="38.12" y1="72.05" x2="452.48" y2="72.05" fill="none" stroke="#231f20" stroke-dasharray=".25 2" stroke-miterlimit="10" stroke-width=".25"/>
    <line x1="453.48" y1="72.05" x2="453.6" y2="72.05" fill="none" stroke="#231f20" stroke-miterlimit="10" stroke-width=".25"/>
  </g>
  <g>
    <line x1="57.6" y1="86.5" x2="57.72" y2="86.5" fill="none" stroke="#231f20" stroke-miterlimit="10" stroke-width=".25"/>
    <line x1="59.72" y1="86.5" x2="452.48" y2="86.5" fill="none" stroke="#231f20" stroke-dasharray=".25 2" stroke-miterlimit="10" stroke-width=".25"/>
    <line x1="453.48" y1="86.5" x2="453.6" y2="86.5" fill="none" stroke="#231f20" stroke-miterlimit="10" stroke-width=".25"/>
  </g>
  <g>
    <line x1="57.6" y1="57.58" x2="57.72" y2="57.58" fill="none" stroke="#231f20" stroke-miterlimit="10" stroke-width=".25"/>
    <line x1="59.72" y1="57.58" x2="452.48" y2="57.58" fill="none" stroke="#231f20" stroke-dasharray=".25 2" stroke-miterlimit="10" stroke-width=".25"/>
    <line x1="453.48" y1="57.58" x2="453.6" y2="57.58" fill="none" stroke="#231f20" stroke-miterlimit="10" stroke-width=".25"/>
  </g>
  <text transform="translate(442.45 98.52)" fill="#808285" font-family="OpenSans, &apos;Open Sans&apos;" font-size="8"><tspan x="0" y="0">0%</tspan></text>
  <text transform="translate(437.88 70.25)" fill="#808285" font-family="OpenSans, &apos;Open Sans&apos;" font-size="8"><tspan x="0" y="0">50%</tspan></text>
  <text transform="translate(433.31 41.4)" fill="#808285" font-family="OpenSans, &apos;Open Sans&apos;" font-size="8"><tspan x="0" y="0">100%</tspan></text>
  <path id="path37" d="M0,122.4h489.6" fill="none" stroke="#231f20" stroke-miterlimit="3" stroke-width=".57"/>
  <text transform="translate(7.37 131.65)" font-size="8"><tspan x="0" y="0" font-family="OpenSans-Bold, &apos;Open Sans&apos;" font-weight="700">Data Sources:</tspan><tspan x="54.48" y="0" xml:space="preserve" font-family="OpenSans, &apos;Open Sans&apos;"> Statistics Canada (2024)</tspan></text>
</svg>