<?xml version="1.0" encoding="UTF-8" standalone="no"?>
<svg
   id="svg22"
   width="3.4in"
   height="3.4in"
   viewBox="0 0 244.8 244.8"
   version="1.1"
   sodipodi:docname="small-businesses_BIAs-map.svg"
   inkscape:version="1.4.2 (1:1.4.2+202505120738+ebf0e940d0)"
   xmlns:inkscape="http://www.inkscape.org/namespaces/inkscape"
   xmlns:sodipodi="http://sodipodi.sourceforge.net/DTD/sodipodi-0.dtd"
   xmlns="http://www.w3.org/2000/svg"
   xmlns:svg="http://www.w3.org/2000/svg">
  <defs
     id="defs51" />
  <sodipodi:namedview
     id="namedview51"
     pagecolor="#ffffff"
     bordercolor="#666666"
     borderopacity="1.0"
     inkscape:showpageshadow="2"
     inkscape:pageopacity="0.0"
     inkscape:pagecheckerboard="0"
     inkscape:deskcolor="#d1d1d1"
     inkscape:document-units="in"
     showgrid="false"
     inkscape:zoom="2.5043364"
     inkscape:cx="255.35706"
     inkscape:cy="170.50425"
     inkscape:window-width="2560"
     inkscape:window-height="1403"
     inkscape:window-x="0"
     inkscape:window-y="0"
     inkscape:window-maximized="1"
     inkscape:current-layer="svg22">
    <inkscape:grid
       id="grid51"
       units="in"
       originx="0"
       originy="0"
       spacingx="7.1999995"
       spacingy="7.1999995"
       empcolor="#0099e5"
       empopacity="0.30196078"
       color="#0099e5"
       opacity="0.14901961"
       empspacing="5"
       enabled="true"
       visible="false" />
  </sodipodi:namedview>
  <rect
     style="isolation:isolate;fill:#ffffff;fill-rule:evenodd;stroke:none;stroke-width:0.5;paint-order:markers fill stroke"
     id="rect51"
     width="244.8"
     height="243.79999"
     x="-3.0517579e-06"
     y="0.75" />
  <g
     isolation="isolate"
     id="g2">
    <g
       isolation="isolate"
       id="g1">
      <text
         transform="translate(196.6,195.8)"
         fill="#7773b2"
         font-family="OpenSans-BoldItalic, 'Open Sans'"
         font-size="8px"
         font-style="italic"
         font-weight="700"
         isolation="isolate"
         id="text1"><tspan
           x="0"
           y="0"
           id="tspan1">22</tspan></text>
    </g>
  </g>
  <g
     isolation="isolate"
     id="g4">
    <g
       isolation="isolate"
       id="g3">
      <text
         transform="translate(196.6,195.8)"
         fill="none"
         font-family="OpenSans-BoldItalic, 'Open Sans'"
         font-size="8px"
         font-style="italic"
         font-weight="700"
         isolation="isolate"
         stroke="#7773b2"
         stroke-miterlimit="7.5"
         stroke-width="0.7"
         id="text2"><tspan
           x="0"
           y="0"
           id="tspan2">22</tspan></text>
    </g>
  </g>
  <path
     id="CA-ON-5"
     d="m 149.7,223.8 c 0.2,-0.4 0.4,-0.5 0.9,-0.6 0.4,0 0.8,-0.2 0.9,-0.3 0.3,-0.2 0.5,-1.5 0.2,-1.6 -0.2,0 -0.2,-0.2 0,-0.5 0,-0.2 0.2,-0.6 0.3,-1 0,-0.4 0.3,-0.8 0.4,-0.9 0.6,-0.4 1.2,-1.5 1.1,-2.1 v -2.1 c 0,-1.4 0,-1.5 0.6,-2.6 l 0.6,-1.1 -0.3,-0.7 c -0.2,-0.4 -0.5,-0.9 -0.7,-1.1 -0.4,-0.3 -0.5,-0.8 -0.2,-0.8 0.3,0 0.6,0.5 1.2,1.1 1,1 1.9,1.6 2.9,1.9 1,0.3 1.5,-1.4 0.8,-2.4 -0.5,-0.7 -2.4,-2.8 -2.9,-3.2 -0.2,-0.1 -0.9,-0.3 -1.5,-0.4 -0.6,0 -1.6,-0.3 -2.2,-0.4 -0.7,-0.2 -1.7,-0.3 -3.6,-0.3 -1.9,0 -2.7,0 -2.9,-0.4 -0.1,-0.2 -0.7,-0.6 -1.2,-0.9 -0.8,-0.4 -1,-0.6 -1,-1 0,-0.3 -0.2,-0.7 -0.5,-1 -0.4,-0.5 -0.5,-0.6 -0.2,-0.6 0.4,-0.2 0.4,-0.5 0,-1.2 -0.2,-0.3 -0.5,-0.9 -0.7,-1.3 -0.3,-0.7 -0.4,-0.8 -1,-0.9 -0.7,-0.1 -2.6,-1 -3,-1.5 -0.1,-0.1 -0.3,-0.5 -0.3,-0.9 0,-0.4 -0.1,-0.9 -0.2,-1.2 v -0.5 h -1.6 c -1.3,0 -1.5,0 -2.5,-0.4 l -1,-0.5 -0.7,0.5 c -0.7,0.4 -0.7,0.5 -0.5,0.8 0.2,0.2 0.2,0.4 -0.9,1.1 -0.7,0.4 -1.5,1.1 -1.8,1.5 -0.7,0.8 -0.8,0.8 -3.4,0.4 -0.7,-0.1 -1.9,-0.2 -2.6,-0.2 -1.2,0 -2.4,-0.5 -2.4,-0.8 0,-0.3 -0.2,-0.1 -0.5,-0.1 -0.3,0 -0.7,-0.2 -1.1,-0.6 -0.467,-0.4 -1.233,-0.6 -2.3,-0.6 -1.6,0 -1.7,0 -1.9,-0.2 -0.1,-0.1 -0.6,-0.3 -1,-0.4 -1,-0.2 -1.1,-0.3 -1.2,-1.6 -0.1,-1 -0.2,-1.1 -0.7,-1.4 -0.4,-0.2 -0.6,-0.633 -0.6,-1.3 0,-1.1 0.2,-5.9 0.3,-7.7 0,-0.6 0.1,-2.4 0.2,-3.9 0.1,-3.6 -0.2,-3 4.1,-7.4 0.9,-0.9 2.1,-2.3 2.8,-3 0.7,-0.7 1.2,-1.4 1.3,-1.5 0.1,-0.1 1.1,-1.3 2.3,-2.7 1.2,-1.4 2.5,-3 3,-3.5 2.4,-2.7 3.5,-3.9 3.8,-4.3 l 0.4,-0.4 0.6,0.3 c 0.7,0.4 1.9,1.5 1.9,1.8 0,0.3 0.3,0.4 0.6,0.8 0.4,0.4 0.9,0.6 1.7,0.8 0.7,0.1 1.2,0.4 1.6,0.7 0.5,0.5 1,0.6 1.8,0.7 0.2,0 0.8,0.4 1.3,0.9 l 1,0.9 h 3.3 c 2.9,0.2 3.5,0.3 4.1,0.6 l 0.7,0.4 v 1.6 c -0.2,0.9 -0.3,1.6 -0.4,1.7 0,0 0,0.4 0.2,0.7 0.2,0.3 0.4,0.9 0.4,1.4 0.2,1.4 0.2,1.6 0.4,1.9 0,0.2 0.1,0.7 0.1,1.1 0,0.7 0,1 0.5,1.7 0.7,1.1 2.8,3.7 3.1,3.7 0.4,0 1.6,1.5 1.9,2.4 l 0.3,1 h 1.1 L 156,180 v 0.9 c 0.3,1.5 0.4,2.1 0.5,3.2 0,0.5 0.1,1.2 0.2,1.4 0,0.2 0.1,0.9 0.2,1.5 0.1,0.6 0.1,1.3 0.2,1.5 0,0.6 0.2,2 0.4,3.1 0,0.5 0.1,1.2 0.2,1.5 0.3,2.1 0.4,3.6 0.5,4.5 0,0.6 0.4,1.6 0.6,2.3 0.4,1 0.7,1.3 1.6,1.9 1.2,0.8 2.8,1.4 4.4,1.6 0.7,0 1.3,0.3 1.9,0.6 0.4,0.3 1,0.5 1.2,0.5 0.2,0 0.6,0.3 0.8,0.7 l 0.5,0.7 h 1.5 c 1.3,-0.2 1.7,-0.3 2.7,-0.8 1.1,-0.6 2,-0.9 2.1,-0.6 0,0.3 0.1,0.7 0.2,1.1 0,0.3 0,0.5 -0.6,1 -1.1,1 -2,1.9 -3.4,3.6 -0.7,0.9 -1.3,1.6 -1.4,1.6 -0.3,0 -1,0.7 -0.9,0.9 0.2,0.3 -1.2,0.9 -2.4,0.9 -2.1,0 -5.2,1.3 -5.9,2.4 -0.6,1.1 -0.6,1.3 0,1.6 0.3,0.1 0.8,0.2 1,0.2 0.3,0 0.4,0 0.6,0.5 0.3,0.7 0.2,0.8 -1,0.8 -1.2,0 -2.7,0.7 -3.2,1.2 -0.2,0.2 -0.2,0.3 0.2,0.6 l 0.4,0.3 h -0.5 c -0.3,0.2 -0.8,0.2 -1.3,0 -1.7,-0.4 -2.1,-0.2 -4.2,2 -1.2,1.2 -1.5,1.4 -2,1.5 -0.6,0.2 -1.5,0.2 -1.8,0 l 0.3,-0.5 v 0 z"
     fill="#1e3864" />
  <path
     id="path1053"
     d="m 146.4,205.4 h 2 c 0.6,0 0.2,0.4 0.8,0.5 0.6,0.2 0.3,-0.4 0.7,-0.4 0.4,-0.1 1.4,-0.2 1.9,-0.1 0.5,0.2 -0.2,0.5 0,0.7 0.3,0.2 0.8,-0.7 0.9,-0.4 0.2,0.2 -0.9,1.9 -0.9,1.9 -3.5,-1.7 -5.6,-1.8 -5.6,-2.2 z"
     fill="#1e3864" />
  <path
     id="CA-AB"
     d="M61.9,184.2c-9.6-2.5-8.6-2.1-9.1-3.4l-.5-1.1.4-2c.4-2.1.4-2.6-.2-3.7-.2-.4-.7-1.4-1.2-2.3-.4-.9-1-2.1-1.2-2.8-.2-.6-.6-1.5-.9-1.9-.3-.4-.6-1.1-.6-1.4,0-.4-.3-.9-.6-1.2s-.5-.7-.5-.8-.2-.4-.4-.7-.4-1-.5-1.7c-.1-.8-.3-1.4-.6-1.8-.2-.3-.5-.8-.6-1.1s-.5-.7-.8-.9c-.6-.4-.9-1.1-.5-1.3.1,0,.2-.6.2-1.1,0-1,1.2-4.4,9.2-26.3l.7-2,4,1.3c2.2.7,5.5,1.8,7.4,2.3,1.9.5,5.2,1.5,7.3,2.1,2.2.6,3.9,1.2,4,1.2.1.1-.5,2.7-.7,2.9-.1,0-.4.2-.6.2-.4.1-2.3,2-2.3,2.3,0,.1.3.3.6.5.6.3.7.3,1.1,0,.3-.2.6-.5.6-.7s.2-.3.2-.3c0,0-.2,1.4-.6,3-.9,3.8-1.9,7.9-3.3,13.6-.6,2.5-1.3,5.4-1.5,6.4-1.2,5-2.3,9.4-2.8,11.8-3,12.7-2.8,11.7-3,11.7,0,0-1.2-.3-2.6-.7h0l-.1-.1Z"
     fill="#7773b2" />
  <path
     id="path1060"
     d="m 23.9,174.8 c -1.1,-0.7 -2.9,-3 -2.9,-3.7 0,-0.7 -0.1,-0.6 -0.5,-0.7 -0.5,-0.2 -0.9,-0.9 -1.2,-2 0,-0.3 -0.3,-0.8 -0.5,-1.2 -0.2,-0.3 -0.5,-1 -0.7,-1.4 -0.2,-0.4 -0.6,-1.3 -1,-2 -0.4,-0.7 -0.8,-1.6 -1,-2.3 -0.1,-0.6 -0.3,-1.4 -0.5,-1.7 -0.133,-0.4 -0.033,-0.733 0.3,-1 0.3,-0.2 0.7,-0.4 0.9,-0.4 0.4,0 1.4,1 3.2,3 0.5,0.6 1.1,1.2 1.2,1.3 0.1,0.1 0.5,0.6 0.8,1 0.3,0.4 0.7,0.8 0.7,0.9 0.2,0.2 0.7,1.8 0.8,2.8 0.1,1 0.2,1.3 1,2.3 1,1.4 1.1,1.6 1.3,3 0,0.6 0.2,1.4 0.4,1.7 0.1,0.4 0.2,0.7 0.1,0.8 -0.2,0.2 -1.8,0 -2.4,-0.3 v 0 z"
     fill="#424d8b" />
  <path
     id="path1062"
     d="m 52.3,181.6 c -0.2,0 -3.8,-1.2 -6.7,-2.1 -1,-0.3 -11.4,-4.2 -15.8,-5.9 -0.7,-0.3 -1.6,-0.6 -1.9,-0.7 -0.7,-0.2 -0.8,-0.4 -0.8,-1.3 0,-0.9 -0.1,-0.8 -0.4,-1 -1,-0.9 -1.4,-1.3 -1.4,-1.6 0,-0.3 0,-0.4 -0.2,-0.4 -0.4,0 -1.1,-1 -1.2,-1.8 -0.2,-1.3 -0.8,-2.5 -1.8,-3.6 -0.667,-0.667 -0.967,-1.267 -0.9,-1.8 0,-0.7 0,-0.9 -0.2,-0.9 -0.2,0 -0.3,0 -0.3,-0.1 0,0 -0.4,-0.4 -0.9,-0.6 -0.5,-0.2 -0.9,-0.6 -0.9,-0.7 v -0.6 c -0.1,-0.5 -0.1,-0.8 0,-2.7 0,-1.6 0,-1.7 0.6,-2.1 0.5,-0.4 0.5,-0.5 0.3,-1 -0.1,-0.3 -0.2,-0.9 -0.2,-1.3 0,-0.4 -0.2,-1 -0.7,-1.7 -0.6,-0.9 -0.7,-1.1 -0.6,-1.6 0,-0.3 0.3,-0.8 0.5,-0.9 0.4,-0.3 0.4,-0.6 -0.2,-1.8 -0.3,-0.6 -0.4,-1.1 -0.4,-3 0,-1.9 0,-2.3 0.5,-2.8 0.2,-0.2 0.9,-0.6 1.4,-0.8 1.3,-0.5 2.3,-1.4 2.3,-2.1 0,-0.7 0.4,-1.6 1.1,-2.3 0.5,-0.6 0.6,-0.7 0.6,-1.7 0,-1 0,-1.1 -0.5,-1.6 -0.6,-0.6 -1.7,-2.6 -2,-3.7 -0.2,-0.7 -0.1,-1.1 0.3,-2.8 0.4,-1.8 0.5,-2.1 0.3,-3 -0.1,-0.6 -0.2,-1.8 -0.3,-2.7 0,-0.9 -0.1,-1.9 -0.2,-2.1 0,-0.2 -0.1,-0.7 -0.2,-1.1 0,-0.4 -0.3,-1.7 -0.6,-2.9 -0.3,-1.2 -0.6,-2.4 -0.6,-2.6 0,-0.2 -0.3,-0.5 -0.8,-0.7 -1.3,-0.5 -1.4,-0.5 -1.8,0 -0.2,0.4 -0.6,0.6 -1.4,0.9 -0.6,0.2 -1.4,0.5 -1.8,0.7 -0.4,0.2 -0.7,0.3 -0.8,0.3 -0.1,0 0,-0.3 0.1,-0.6 0.2,-0.9 0,-3 -0.3,-3.6 -0.4,-0.6 -0.3,-2.2 0,-2.1 0.1,0 1.9,1.2 4,2.5 5.7,3.7 11.9,7.5 14.9,9.1 1.5,0.8 2.8,1.5 2.9,1.5 0.5,0.3 6,3.1 8.1,4.1 1.3,0.6 4.1,1.7 6.2,2.5 2.1,0.8 3.9,1.5 4,1.6 v 0.6 c -0.1,0.2 -1,2.8 -2.1,5.7 -1.1,2.9 -2.2,6.1 -2.6,7.2 -4.1,11.3 -5,13.8 -5,14.7 0,0.9 -0.1,1.1 -0.3,1.3 -0.4,0.6 -0.2,1.3 0.5,1.8 0.8,0.5 1.9,2.5 2,3.8 0,0.7 0.3,1.3 0.6,1.8 0.3,0.4 0.5,0.9 0.5,1 0,0.1 0.2,0.4 0.4,0.6 0.2,0.2 0.5,0.8 0.6,1.3 0.1,0.5 0.3,0.9 0.4,1 0.2,0.1 1,1.7 1.1,2.3 0,0.3 0.7,1.7 1.4,3.1 0.7,1.5 1.3,2.8 1.3,3.1 0,0.3 -0.1,1.3 -0.3,2.2 -0.3,1.7 -0.3,2.5 0.2,3.2 0.3,0.4 0.3,0.6 0,0.5 z"
     fill="#424d8b" />
  <path
     id="path1064"
     d="m 11.2,147.8 c -0.7,-1.7 -1,-3.7 -0.9,-6.6 0,-1.7 0.2,-2.7 0.3,-2.8 0.1,-0.1 0.2,-0.4 0.2,-0.6 0,-0.5 0.8,-0.4 1.5,0 0.9,0.6 2,1.7 2,2 0,0.3 -0.7,1 -1.6,1.9 -1.9,2 -1.9,2.1 -1.2,4.7 0.2,0.9 0.4,1.8 0.4,1.9 0,0.6 -0.5,0.3 -0.9,-0.6 v 0 z"
     fill="#424d8b" />
  <path
     id="CA-MB"
     d="M96.6,137.2v1.1c-.2.6-.3,1.3-.3,1.4s-.1.7-.2,1.3c0,.5-.2,1.1-.2,1.3,0,.1-.2,1.3-.4,2.6-.3,2.2-.3,2.3,0,2.8s.3.5-.2,1.1c-.3.4-.6.8-.7.9-.1.2-.3,1.3-.3,2.6s-.1,2.7-.2,3c0,.4-.1,1.4-.2,2.3,0,.9-.1,2.1-.2,2.7-.2,2.5-.3,3.5-.4,4.8,0,.8-.1,1.8-.2,2.3,0,.5-.1,1.7-.2,2.7,0,1-.1,2.1-.2,2.5,0,.4-.1,1.6-.2,2.6,0,1-.1,2.2-.2,2.5,0,.3-.1,1.6-.2,2.7,0,1.1-.1,2.2-.2,2.3,0,.5-.3,4.5-.3,5.7v1.2l1.1.1c1.7.2,3.4.4,3.8.4.2,0,.9.1,1.4.2,1,.1,1.6.2,3.2.4.5,0,1.8.2,2.7.2s2.5.1,3.5.2h1.8l.1-.8c0-.5.1-1.8.2-3,0-1.2.1-2.7.2-3.4,0-.7.1-2.5.2-3.9.2-5.1.2-5.6.7-6.4.2-.4,1.5-1.8,2.8-3.2s2.8-3,3.2-3.5c.4-.5.9-1,1-1.1,1.7-1.9,2.6-2.9,3.5-4,.6-.7,1.7-1.9,2.4-2.7s1.5-1.7,1.8-2.1c.3-.4,1-1.1,1.5-1.7.5-.6.9-1.1.9-1.2,0-.2-.9-.6-1.8-.7-1.2-.2-1.6-.3-1.8-.6-.2-.2-.5-.3-1.3-.3-.6,0-1.1.1-1.2.2-.1.2-2.2.5-2.6.3-.2,0-.2-.2-.1-.5.1-.4.1-.6-.4-3-.4-1.7-.5-2.2-.6-3.2-.1-1.1-.6-1.5-2.5-1.9-1.2-.2-1.6-.4-1.8-.7-.2-.4-.2-1.8,0-3.7v-1.2c.1,0-.8,0-.8,0h-1.1s-.7,0-1.5-.2c-.7,0-1.5-.2-1.6-.2s-.8-.1-1.5-.2c-.7,0-1.4-.2-1.6-.2s-.9-.1-1.5-.2c-.6,0-1.7-.2-2.5-.3s-1.9-.2-2.5-.3c-.6,0-1.5-.1-1.9-.2h-.8l.4.2h0ZM101.7,168c.7,0,1.1.3,1.5,1,.2.4.4.8.5.8.3.2,1.1,2.4,1,2.7,0,.2.2,1.1.6,1.8.1.2.2.8.2,1.3,0,1,.6,3.2,1.1,4.2.2.4.3,1,.4,2.2,0,1.133-.133,1.733-.4,1.8-.2,0-.6.2-.8.5-.4.5-.7.5-1.1.2-.3-.3-.2-1.6.2-2.1.1-.2.3-.6.3-.9s.2-.6.3-.8c.4-.4.3-.9,0-1.1-.3-.2-.4-.2-.6.1-.2.4-.7.5-.7.1s0-.5.2-.8c.5-1.3-.3-2.5-1.4-2.1-.5.2-.6.1-.9-.2-.2-.2-.5-.8-.6-1.2-.2-.5-.5-1.1-.7-1.4-.3-.4-.4-.8-.4-1.1,0-.5,0-.6-.8-1-1.2-.6-1.6-.4-1.7.6v1.6c-.133,1.667.067,2.667.6,3,1.6,1.3,1.7,1.4,1.9,2.5.1.6.2,1.4.2,1.7,0,.4.2,1.1.5,1.6.6,1.2.6,2.1,0,2.3s-.8.1-1,0c-.1-.2-.6-2.5-1-4.4-.2-1.1-.5-1.5-1.7-2.3-1-.6-1.5-1.1-1.4-1.5v-.6c0-.2.1-.4.3-.6s.2-.7.2-1.4-.2-1.3-.7-1.6c-.8-.4-1-.8-1-1.5s0-.5.4-.5c.7,0,.9-.6.4-1.1-.2-.2-.4-.5-.4-.6,0-.2.8-.6,1.3-.6.4,0,1.4.9,1.4,1.3s.2.5.4.7l.4.4.2-.6c.4-1.1,1.1-2,1.7-2.2h.7l.4-.2h0Z"
     fill="#7773b2" />
  <path
     id="CA-NB"
     d="M199.8,200c-.4-.1-.9-.7-1.2-1.3-.1-.3-.4-.5-.6-.6-.7-.2-1.9-3.2-1.9-4.9s-.1-.9-.4-1.2c-.7-.7-1.6-1.1-2.2-1.1h-.6v-1.1c-.1-.6-.1-1.2,0-1.3,0,0,.6-.1,1.2-.1,1.3,0,2-.2,2.8-.9.3-.3,1.1-.6,1.9-.9,1.2-.3,1.4-.3,2,0s.7.3,1-.1c.7-.8,2.8-1.4,2.8-.8s-.1.4-.3.7c-.4.7-.3,2.2,0,2.7.2.2.4.7.5,1,0,.4.4.9,1,1.4.8.8.9.8,1.9.8s1.1,0,1.2.1c0,0-.3.5-.8,1s-1.1,1.4-1.3,1.9c-.6,1.3-2.9,3.6-3.6,3.6s-.6.1-.7.5c-.4.7-1.5,1.1-2.7.8h0v-.2h0Z"
     fill="#7773b2" />
  <path
     id="path1069"
     d="m 219.8,180.3 c -0.5,-0.6 -0.5,-1.4 0,-2.1 0.6,-0.8 0.6,-1.7 0.1,-1.8 -0.5,-0.1 -0.4,-0.5 0,-1.3 0.3,-0.6 0.4,-0.8 0.3,-2.2 -0.2,-2.5 -0.1,-5.4 0.2,-8.4 0,-0.2 0,-1 0.2,-1.8 0.2,-1.6 0.5,-2.3 1.8,-3.2 0.7,-0.5 0.9,-0.6 1.1,-0.4 0.7,0.6 0.8,1.2 0.7,3.4 0,1.2 -0.1,2.2 -0.2,2.3 -0.1,0.1 -0.1,0.6 -0.2,1.2 v 1.1 c -0.1,0 0.3,-0.5 0.3,-0.5 0.2,-0.3 0.5,-0.6 0.5,-0.7 0,-0.3 0.8,-0.3 1.3,-0.1 0.7,0.2 0.7,0.3 0.6,1.2 v 0.6 h 0.9 c 0.5,0 1,0 1,-0.2 0,-0.2 0.5,-0.3 1,-0.4 0.5,-0.1 1.3,-0.4 1.8,-0.6 0.9,-0.4 1.7,-0.4 2.4,0 0.4,0.2 0.6,1.2 0.3,1.6 -0.2,0.3 -0.2,0.4 0.1,0.7 0.3,0.3 0.5,0.3 1.3,0.2 1.1,-0.2 1.3,-0.1 1.3,0.5 0,0.6 -0.4,1.2 -1,1.7 -0.2,0.2 -0.2,0.3 -0.1,0.3 0.1,0 0.2,0.3 0.2,0.6 0,0.3 0,0.7 0.1,0.9 0.1,0.3 0.4,0.4 0.4,0 0,-0.4 0.9,-1.4 1.2,-1.4 0.3,0 0.3,0.3 0.5,0.7 0.2,0.8 0.5,0.9 1.2,0.3 0.3,-0.2 0.6,-0.3 0.7,-0.2 0,0 0.2,0.7 0.2,1.3 v 1.9 c 0,1 -0.7,2 -1.4,2.1 -0.4,0 -0.6,0 -0.8,-0.4 -0.2,-0.6 -0.4,-0.6 -0.7,0 -0.5,0.9 -0.9,0.3 -1.1,-1.6 -0.2,-1.4 -0.4,-1.9 -0.7,-1.9 -0.3,0 -0.2,0.3 -0.2,0.7 0,0.5 -0.1,0.8 -0.7,1.3 -0.6,0.6 -0.7,0.8 -0.9,2 -0.2,1.7 -0.7,2.2 -2.1,2.2 -1.2,0 -1.3,-0.2 -0.4,-1.1 0.5,-0.5 0.6,-0.7 0.6,-1.3 0,-0.6 0,-0.7 -0.4,-0.5 -0.7,0.4 -1.5,0.5 -1.7,0.3 -0.2,-0.2 -0.5,0 -2.3,1 -0.5,0.3 -1.2,0.6 -1.5,0.7 -0.3,0 -0.8,0.1 -1.1,0.2 -0.3,0.1 -1.4,0.4 -2.4,0.8 -1,0.4 -1.9,0.8 -2,0.8 -0.1,0 -0.4,-0.2 -0.6,-0.4 v 0 z"
     fill="#bdb2d8" />
  <path
     id="path1071"
     d="m 197.5,167.4 c 0,0 -0.4,0 -0.7,-0.1 -0.3,-0.1 -0.8,-0.2 -1,-0.4 -0.3,-0.2 -0.6,-0.3 -1.4,-0.2 -1.3,0.1 -1.5,0 -1.6,-0.6 -0.2,-1.1 -0.2,-1.3 -0.2,-1.5 0,-0.1 -0.1,-0.3 -0.3,-0.5 -0.2,-0.2 -0.3,-0.2 -0.9,0 -0.3,0.2 -0.8,0.4 -1,0.4 -0.4,0 -1.1,-0.6 -0.8,-0.8 0.2,-0.1 0.2,-1.2 0,-1.8 0,-0.2 -0.4,-0.5 -0.8,-0.7 -1.3,-0.5 -2.7,-2.7 -2.3,-3.5 0.1,-0.2 0.3,-0.4 0.4,-0.4 0.2,0 0.5,-0.7 0.6,-1.3 0,-0.2 0.2,-0.5 0.4,-0.6 0.2,-0.2 0.5,-0.5 0.6,-0.8 0.2,-0.4 0.2,-0.5 1,-0.3 0.4,0 1,0.3 1.2,0.5 0.6,0.4 1.3,0.3 1.7,-0.3 0.3,-0.5 0.4,-0.5 1.3,-0.4 0.5,0 1,0.1 1.2,0.1 0.2,0 0.3,0.1 0.2,0.6 0,0.3 -0.1,0.6 -0.1,0.7 -0.8,0.5 -1.4,1.1 -1.5,1.3 0,0.2 -0.3,0.5 -0.6,0.7 -0.6,0.4 -0.7,0.6 -0.2,1.1 0.4,0.4 1.5,0.2 1.8,-0.2 0.4,-0.6 1.3,-0.9 2,-0.7 0.8,0.2 1.5,0 1.9,-0.9 0.3,-0.7 0.4,-1.6 0,-1.9 0,0 -0.3,0 -0.5,0.2 -0.2,0.2 -0.6,0.4 -1,0.4 -1.3,0 -1.5,-0.4 -0.6,-1.9 0.3,-0.6 0.5,-1.2 0.5,-1.4 0,-0.5 -0.6,-1.9 -1,-2.2 -0.2,-0.1 -0.3,-0.4 -0.3,-0.5 0,-0.5 -0.9,-2.1 -1.5,-2.6 -0.4,-0.3 -0.6,-0.7 -0.7,-1.3 0,-0.4 -0.2,-1.3 -0.3,-1.9 -0.1,-0.6 -0.2,-1.7 -0.2,-2.3 0,-1.3 -0.3,-2.1 -1,-2.2 -0.2,0 -0.7,-0.3 -1,-0.5 -0.6,-0.4 -0.8,-0.9 -0.3,-1.6 0.2,-0.3 0.2,-0.5 0.1,-0.8 -0.2,-0.4 -0.2,-0.6 0,-1.6 0.1,-0.6 0,-0.6 -1.6,-0.6 -0.4,0 -0.7,0 -0.6,0 0,0 0,-0.7 -0.2,-1.4 -0.2,-1 -0.4,-1.3 -0.6,-1.3 -0.2,0 -0.4,-0.2 -0.5,-0.4 -0.2,-0.4 -1,-3.1 -0.9,-3.2 0.2,-0.2 2.3,1.7 3,2.7 0.4,0.6 0.9,1.1 1.1,1.1 0.2,0 0.5,0.2 0.7,0.5 0.2,0.3 0.6,0.7 1,0.9 0.4,0.2 0.7,0.7 1,1.3 0.2,0.6 0.5,0.9 0.7,0.9 0.2,0 0.5,0.3 0.7,0.6 0.3,0.5 0.6,0.6 1.1,0.7 0.6,0.1 0.8,0.2 1.1,0.9 0.2,0.4 0.4,1.1 0.5,1.5 0,0.7 0.2,0.7 0.9,1 0.4,0.1 1,0.4 1.1,0.6 0.3,0.3 0.3,0.4 0,1.2 -0.2,0.7 -0.2,1 0,1.3 0.1,0.2 0.3,0.6 0.3,0.9 0,0.4 0.4,0.5 2,1.1 1.1,0.4 2.1,0.7 2.3,0.7 0.2,0 0.6,0.3 1,0.7 l 0.7,0.7 h 1.6 c 0.9,0.1 1.9,0.3 2.3,0.4 0.7,0.3 1.1,0.2 1.7,-0.4 0.2,-0.2 0.5,-0.1 1.5,0.1 0.7,0.2 1.4,0.4 1.4,0.5 0.2,0.4 0,1 -0.6,1.2 -0.3,0.1 -0.9,0.7 -1.5,1.3 -0.5,0.6 -1.2,1.3 -1.5,1.6 -0.3,0.3 -0.9,1 -1.4,1.5 -0.9,0.9 -1.3,2 -0.8,2.1 0.4,0.1 2.2,-1.8 2.3,-2.5 0,-0.4 0.5,-1.1 1.5,-2.1 1.2,-1.3 1.4,-1.5 2,-1.5 0.6,0 0.7,0.1 1.1,0.6 0.3,0.5 0.5,0.6 0.9,0.5 0.8,-0.2 1.7,-0.2 2.2,0.2 0.2,0.2 0.9,0.6 1.5,0.9 0.6,0.3 1.1,0.6 1.1,0.6 0,0 0,0.2 -0.2,0.5 -0.3,0.7 0,1.7 0.8,2.5 0.8,0.8 1.3,1.9 1.3,2.3 0,0.4 -1.2,2.2 -1.8,2.8 l -0.5,0.6 -0.7,-0.9 c -0.4,-0.5 -0.8,-1 -0.9,-1.1 0,0 -0.5,0 -0.8,0.2 -0.3,0.2 -1.1,0.4 -1.6,0.5 -0.5,0.1 -1.5,0.4 -2.2,0.7 -0.7,0.3 -2.2,0.8 -3.3,1.3 -1.1,0.5 -2.3,0.9 -2.8,1.1 -1.7,0.7 -5.4,2 -6.1,2.1 -0.6,0.1 -0.9,0 -1.7,-0.4 -0.6,-0.3 -1.1,-0.4 -1.2,-0.4 -0.1,0 -0.2,0.4 -0.2,0.8 0,0.9 -0.2,2.5 -0.3,2.6 -0.1,0.2 -1,0.3 -1.1,0.2 v 0 z"
     fill="#bdb2d8" />
  <path
     id="path1074"
     d="m 205.9,205.8 c -1,-0.2 -1.6,-0.8 -2,-2.3 -0.2,-0.7 -0.2,-1.1 -0.1,-1.5 0.3,-0.7 1.5,-2.4 2.2,-3.3 0.4,-0.4 0.8,-0.9 0.9,-1.1 0.1,-0.2 0.4,-0.4 0.7,-0.4 0.5,-0.1 2.1,-1.2 2.1,-1.4 0,-0.2 -0.8,0.1 -1.8,0.7 -1.6,1 -1.4,-0.6 0.4,-2.7 0.8,-0.9 1,-1 1.5,-1 1.7,0 3.6,-0.2 4.2,-0.7 0.4,-0.3 0.8,-0.4 0.9,-0.3 0.2,0 0.7,0.1 1.1,0.2 1,0 1.7,0.4 2,1.1 0.2,0.4 0.1,0.5 -1,1.6 l -1.4,1.4 c -0.6,0.7 -2.2,1.9 -2.6,2 -0.2,0 -0.6,0.5 -0.9,1 -0.5,0.8 -0.6,0.9 -1.1,0.8 -0.5,0 -0.6,0 -0.8,0.4 -0.1,0.2 -0.2,0.5 -0.2,0.6 0,0.1 -0.2,0.8 -0.5,1.5 -0.4,1 -0.8,1.6 -1.7,2.5 -0.6,0.7 -1.2,1.2 -1.2,1.2 0,0 -0.4,0 -0.9,-0.2 v 0 z"
     fill="#7773b2" />
  <path
     id="path1076"
     d="m 218,192.2 c -0.1,-0.1 -0.7,-0.6 -1.1,-1.2 -0.6,-0.7 -0.8,-1 -0.7,-1.2 0.1,-0.1 0.4,-1 0.7,-1.9 0.6,-1.8 1.2,-3.1 1.5,-3.1 0.3,0 0.7,0.8 0.7,1.4 0,1 0.2,1.4 0.7,1.5 0.6,0.2 1.5,1 1.5,1.4 0,0.4 -0.2,0.8 -0.6,1.2 -0.4,0.6 -0.7,0.9 -1,0.9 -0.3,0 -0.6,0.2 -0.8,0.5 -0.4,0.6 -0.5,0.6 -0.9,0.3 v 0 z"
     fill="#7773b2" />
  <path
     id="path1079"
     d="m 46.3,67.1 c -0.3,0 -0.7,0 -1.4,0.1 -1,0.1 -1.9,0.2 -2,0.3 -0.2,0 -0.2,0.3 -0.1,1 0.1,1 -0.1,1.3 -0.6,0.6 -0.2,-0.2 -0.4,-0.4 -0.4,-0.4 -0.3,0 -2.9,4.7 -3.4,6.2 -0.3,0.9 -0.7,1.8 -0.8,2 -0.4,0.6 -0.3,0.8 0.9,1.6 2.5,1.7 2.6,1.9 1.5,4 -0.4,0.7 -0.7,1.7 -0.8,2.1 0,0.7 0,0.8 0.6,1.3 0.4,0.3 0.7,0.6 0.6,0.7 -0.1,0.1 -0.1,0.6 -0.1,1.2 0,1.1 -0.2,1.5 -1,1.6 -0.5,0.1 -0.8,0.6 -0.8,1.2 0,0.6 0,0.5 -0.2,0.5 -0.2,0 -0.2,0.2 -0.3,0.5 0,0.3 0,0.6 0.2,0.9 0.2,0.3 0.4,0.6 0.4,1.2 0,0.6 0.2,1.2 0.4,1.7 0.3,0.6 0.4,1.1 0.3,1.5 0,0.4 0,0.8 0.3,1.3 0.267,0.467 0.267,1.067 0,1.8 -0.4,1.4 -0.9,3.8 -1,5.3 0,0.7 -0.1,1.4 -0.2,1.6 0,0.2 0,0.5 0.3,0.8 0.5,0.6 0.8,1.2 1.1,2.5 0.3,1.1 0.6,1.9 1.1,2.5 l 0.4,0.4 -0.4,0.4 c -0.2,0.3 -0.4,0.6 -0.4,1.1 0,0.5 0,0.8 -0.2,1 -0.2,0.3 0,0.4 1,0.9 0.6,0.3 1.4,0.7 1.8,1 0.5,0.4 0.8,0.4 1.3,0.4 0.7,-0.1 0.7,-0.3 0.7,2.6 v 2.2 l 2,0.8 c 6.4,2.6 13.9,5.2 21.2,7.2 2.1,0.6 5,1.5 6.4,1.9 1.4,0.4 2.8,0.8 3.1,0.9 0.3,0.1 1.8,0.3 3.2,0.6 1.5,0.3 2.9,0.6 3.2,0.6 0.3,0 1.3,0.2 2.3,0.4 1,0.2 2.1,0.4 2.4,0.4 0.3,0 1.7,0.3 3,0.6 2.8,0.6 3.8,0.7 3.9,0.3 v -0.6 c 0,-0.2 0.1,-1 0.2,-1.9 0.1,-0.9 0.1,-1.8 0.2,-2 0.1,-0.2 0.1,-1 0.2,-1.6 0.2,-1.8 0.4,-4.7 0.5,-5.6 0,-0.3 0.1,-1.3 0.2,-2.1 0.1,-0.8 0.1,-1.7 0.2,-1.9 0.1,-0.2 0.1,-1 0.2,-1.8 0,-0.8 0.2,-2.2 0.3,-3 0.1,-0.8 0.1,-1.6 0,-1.6 -0.1,0 -1.2,-0.8 -2.7,-1.5 -3,-1.6 -6,-3.2 -8.3,-4.4 l -1.6,-0.9 -1.1,-1.8 -1.1,-1.8 -2,-0.4 -2,-0.4 -1.7,-2.3 C 76.3,99.5 74.8,97.5 74,96.2 73.1,95 71.4,92.6 70.1,90.9 68.8,89.2 67.7,87.6 67.5,87.4 67.3,87 67.3,86.9 67.9,85.3 69.367,81.433 69.733,79 69,78 c -0.3,-0.4 -0.6,-0.9 -0.6,-1 0,-0.1 0,-0.1 -0.2,-0.1 -0.2,0 -0.4,-0.1 -0.7,-0.3 -0.3,-0.2 -0.8,-0.4 -1.2,-0.4 -0.6,0 -0.8,0 -1.5,0.5 -0.6,0.5 -0.8,0.6 -1.2,0.4 -0.6,-0.2 -0.6,-0.4 0,-1 0.3,-0.3 0.5,-0.6 0.4,-0.7 0,-0.1 -0.1,-0.6 -0.1,-1.1 0,-1.6 -0.2,-1.6 -1.8,0 -0.8,0.8 -1.4,1.4 -1.5,1.4 -0.1,0 -0.7,-0.6 -0.7,-0.8 v -2.5 c 0,-1.533 -0.167,-2.367 -0.5,-2.5 -0.6,-0.3 -0.9,-0.3 -1.5,0.2 -0.3,0.3 -0.7,0.4 -1.3,0.3 -0.6,0 -0.8,-0.1 -0.7,-0.2 0,-0.1 0.2,-0.4 0.2,-0.7 0,-0.4 0,-0.5 -0.7,-0.9 -0.8,-0.4 -2.1,-0.5 -3.2,-0.2 -0.2,0 -1.3,0.2 -2.3,0.2 -1.4,0 -1.9,0.2 -2,0.4 0,0.1 -0.4,0.2 -0.7,0.2 -0.333,0 -0.5,-0.267 -0.5,-0.8 0,-0.9 0,-1.1 -0.7,-1.1 v 0 z m 14.8,25.1 c 4.7,0 5,0 5,0.8 0,0.8 -0.4,0.6 -0.9,1 -0.6,0.5 -0.8,0.8 -0.7,0.9 0.2,0.2 2.7,1.2 3.9,1.6 0.8,0.2 0.9,0.3 0.7,0.8 -0.1,0.6 -0.4,1 -0.6,1 -0.2,0 -0.5,0.2 -0.9,0.5 l -0.7,0.5 -1,-0.5 c -0.6,-0.3 -1.2,-0.6 -1.4,-0.7 -0.4,-0.2 -0.7,0 -1.1,1.2 -0.4,1.1 -0.4,1.2 -1.8,1.6 -0.6,0.2 -1.2,0.4 -1.3,0.4 -0.3,0 -0.2,-0.5 0.3,-1.1 1.1,-1.2 1,-1.2 0.4,-1.2 -0.6,0 -0.8,0.2 -1.1,0.5 -0.9,0.7 -1.6,0.9 -2.4,0.4 -0.4,-0.2 -0.8,-0.6 -0.9,-0.8 -0.2,-0.4 -0.1,-0.5 1.1,-1.6 0.7,-0.7 1.6,-1.4 2.1,-1.6 0.4,-0.2 0.8,-0.5 0.9,-0.7 0.1,-0.5 -0.6,-1.1 -1.4,-1.1 -0.4,0 -1.2,-0.2 -1.8,-0.4 -1,-0.3 -1.2,-0.5 -1.2,-0.8 0,-0.2 0,-0.5 0.1,-0.6 0.1,0 2.2,-0.1 4.7,-0.1 z m 6.1,23 c 0,0 0.4,0.4 0.7,0.8 0.3,0.4 0.9,1.1 1.2,1.4 1,0.9 1.7,1.7 2.1,2.4 0.4,0.6 0.5,0.7 1.6,1 1.1,0.3 1.3,0.3 2.2,0 0.7,-0.2 1.2,-0.5 1.4,-0.8 0.5,-0.7 1.2,-1 2.3,-1.1 0.6,0 1,0.1 0.9,0.4 0,0.7 -0.8,1.5 -1.5,1.7 -0.4,0.1 -1,0.5 -1.4,0.9 -0.4,0.4 -1.3,1 -1.9,1.3 -0.6,0.3 -1.5,0.7 -1.8,0.9 -0.4,0.2 -0.9,0.3 -1.1,0.3 -0.3,0 -0.6,0 -1,0.4 -0.3,0.3 -0.9,0.6 -1.3,0.8 -0.4,0.2 -0.9,0.3 -1.2,0.2 -3.3,-0.3 -3.6,-0.4 -5.2,-1.9 -1.4,-1.3 -1.4,-1.7 0,-1.7 1.4,0 1.2,0 1.3,0.2 0.4,0.2 0.9,0 1.6,-0.7 0.4,-0.4 0.6,-0.4 1.2,-0.4 0.8,0 1.2,-0.2 1.2,-0.8 0,-0.6 -0.7,-2.6 -1.4,-4 -0.5,-1 -0.6,-1.5 -0.2,-1.5 v 0 z"
     fill="#ecebe9" />
  <path
     id="path1081"
     d="M 86.3,80.9 C 85,80.5 83,79.9 81.8,79.6 80.6,79.3 79,78.8 78.2,78.6 76.9,78.2 76.8,78.2 77.4,78.1 H 80 c 1.6,0 2.1,0.2 2.8,0.5 0.8,0.4 3,1.1 3.1,0.9 0.1,-0.2 -0.4,-0.5 -1,-1.1 -1.1,-1.1 -2,-1.5 -2.8,-1.5 -0.8,0 -3.5,-0.7 -4.6,-1.2 C 76.7,75.4 76.6,75.3 76.3,74.3 76.1,73.7 76,73.1 76,73 c 0,-0.2 0.8,-0.5 3.2,-1.1 L 80,71.7 h -0.6 c -0.3,-0.2 -0.9,-0.3 -1.1,-0.3 -0.5,0 -1.1,-0.9 -1,-1.3 0,-0.1 0,-0.3 -0.1,-0.4 -0.1,0 -0.4,-0.4 -0.5,-0.6 -0.4,-0.7 -0.3,-1.3 0.5,-2.1 0.7,-0.8 1,-1.2 1,-1.7 0,-0.9 2.7,-2.4 5.3,-2.9 1,-0.2 2.1,-0.4 2.6,-0.5 0.8,-0.1 0.8,0 1,0.4 0.2,0.6 0,1.7 -0.5,2.7 -0.2,0.4 -0.3,0.8 -0.3,0.8 0,0 0.5,-0.2 0.9,-0.6 l 0.8,-0.7 1.1,0.6 c 0.6,0.4 1.3,0.8 1.6,1 l 0.4,0.4 -0.4,0.9 -0.4,0.9 0.7,-0.2 c 0.4,0 0.8,-0.2 0.9,-0.3 0.1,-0.1 0,-0.5 -0.1,-0.9 l -0.2,-0.8 c 0.8,-0.5 1,-0.6 1.1,-0.5 0,0.2 -3.8,15.8 -4,16 0,0 -1.1,-0.2 -2.4,-0.6 v 0 z"
     fill="#ecebe9" />
  <path
     id="path1083"
     d="m 68.6,69.2 c 0,-0.1 -0.2,-0.9 -0.3,-1.8 -0.2,-1.4 -0.3,-1.7 -1.2,-3.2 -0.6,-0.9 -1,-1.8 -1,-1.9 0,-0.3 0.5,-0.9 1.1,-1.2 0.2,-0.2 0.9,-1 1.4,-1.9 0.5,-0.9 1.1,-1.8 1.3,-1.9 0.2,-0.2 0.9,-1.1 1.7,-2.1 1.3,-1.7 1.3,-1.8 1.3,-2.8 v -1.3 c 0,-0.3 0.5,-0.9 0.8,-0.8 0.1,0 0.5,0.1 0.9,0.1 0.4,0 1.1,0.2 1.6,0.4 0.5,0.2 1.3,0.5 1.7,0.6 0.6,0.1 0.8,0.3 1,0.8 0.1,0.3 0.6,1 1.2,1.6 0.667,0.667 1.333,1 2,1 1.5,0 1.7,0.2 2.5,2.7 1.1,3.3 0.9,3.6 -1.8,4.2 -1.3,0.3 -2.5,0.8 -2.8,1.2 0,0 -0.3,0.2 -0.6,0.3 -0.3,0.1 -0.8,0.4 -1,0.6 -0.2,0.2 -1,0.8 -1.6,1.3 -1,0.7 -1.3,1.1 -1.8,2.1 -0.4,0.7 -0.8,1.3 -1,1.4 -0.2,0.1 -0.4,0.2 -0.4,0.2 0,0 -0.2,0 -1.5,0.3 -0.2,0 -1.1,0.1 -1.8,0.2 -1.1,0 -1.4,0 -1.5,-0.1 0,0 -0.2,0 -0.2,0 z"
     fill="#ecebe9" />
  <path
     id="path1085"
     d="m 89.3,55.8 c -0.4,-0.5 -0.8,-1.1 -0.8,-1.2 0,-0.4 0.7,-0.9 1.8,-1.1 1.8,-0.4 2.3,-1 0.9,-1 -1.4,0 -0.8,0 -1.1,-0.4 C 89.9,51.833 89.667,51.8 89.4,52 89,52.4 87.9,52.5 87.5,52.2 87,51.9 85.3,49.9 85.2,49.4 85.1,49 85.5,48.3 86,48.3 c 0.5,0 0.2,0 0.2,-0.1 0,-0.6 0.2,-0.9 0.6,-1.3 0.2,-0.3 0.5,-0.6 0.5,-0.8 0,-0.5 1,-1.7 1.4,-1.7 0.4,0 0.4,-0.2 0.6,-0.4 0.2,-0.4 0.4,-0.4 1.2,-0.4 1.1,0 1.8,0.5 1.8,1.4 0,0.9 0.1,0.7 0.7,1.1 0.9,0.6 1.3,1.5 1.4,2.9 0,1.3 0.3,1.6 1.1,1.6 0.8,0 0.9,0.1 0.3,2.5 -0.4,1.7 -0.6,2.3 -0.8,2.3 -0.2,0 -0.7,0.3 -1.3,0.7 -1,0.7 -1.1,0.7 -2.3,0.7 h -1.3 l -0.8,-0.9 v 0 z"
     fill="#ecebe9" />
  <path
     id="path1087"
     d="m 83.8,47.8 c -0.2,0 -0.4,-0.4 -0.5,-0.7 -0.2,-0.9 0.1,-1.4 1.5,-1.9 1.2,-0.5 1.6,-0.5 1.8,-0.2 0.3,0.4 0.2,0.9 -0.5,1.4 -0.3,0.3 -0.9,0.7 -1.3,1.1 -0.4,0.4 -0.7,0.6 -0.7,0.6 h -0.4 c 0,0 0.1,-0.3 0.1,-0.3 z"
     fill="#ecebe9" />
  <path
     id="path1089"
     d="m 82.2,44.8 c -0.2,-0.2 -0.3,-0.5 -0.3,-0.7 0,-0.267 -0.333,-0.4 -1,-0.4 -1.6,0 -2.1,-0.8 -1.3,-2 0.3,-0.4 0.6,-0.6 1.2,-0.8 0.4,-0.1 1.2,-0.4 1.7,-0.7 0.5,-0.3 0.9,-0.4 1,-0.4 0,0 0.7,-0.4 1.4,-1.1 1.6,-1.5 1.9,-1.7 3.3,-1.6 h 1.6 c 0.5,0 1.3,0.3 1.5,0.7 0.3,0.9 0,1.9 -0.9,2.4 -0.2,0.1 -0.3,0.5 -0.4,1.1 0,0.9 -0.1,1 -0.9,1.4 -0.4,0.2 -0.9,0.6 -1,0.8 -0.2,0.4 -0.8,0.6 -1.2,0.4 -0.4,-0.3 -0.3,-1.5 0,-1.9 0.2,-0.2 0.4,-0.4 0.4,-0.4 0,-0.2 -0.7,0.4 -2.4,2.1 -1.7,1.7 -2.2,1.9 -2.8,1.3 v 0 z"
     fill="#ecebe9" />
  <path
     id="path1091"
     d="m 96.1,39.9 c -0.6,-0.2 -0.8,-0.5 -1.1,-1.3 -0.2,-0.5 -0.4,-1.1 -0.4,-1.2 0,-0.1 -0.2,-0.3 -0.4,-0.5 -1,-0.6 -1.4,-2.3 -0.6,-2.3 0.8,0 0.9,0.5 0.9,0.9 0,0.4 0.2,0.2 0.6,0.1 0.8,-0.2 3.9,-0.3 4.2,-0.2 0.2,0 0.2,0.3 0,0.9 0,0.4 -0.2,0.9 -0.2,1.1 -0.3,1.4 -0.5,2.1 -0.8,2.3 -0.4,0.4 -1.4,0.5 -2.2,0 v 0 z"
     fill="#ecebe9" />
  <path
     id="path1093"
     d="m 99.3,34.7 c 0,0 -0.2,-0.2 -0.5,-0.4 -0.3,-0.1 -0.7,-0.4 -0.8,-0.6 -0.2,-0.2 -0.4,-0.3 -0.8,-0.2 h -0.6 c -0.3,-0.4 1.1,-1.6 1.5,-1.3 0,0 0.3,0 0.4,-0.1 0.2,-0.2 1.6,-0.2 1.8,0 0.2,0.2 -0.6,2.8 -0.8,2.8 -0.1,0 -0.2,0 -0.2,-0.1 v 0 z"
     fill="#ecebe9" />
  <path
     id="path1096"
     d="M 100.1,91.3 C 99.2,91.1 97.9,90.3 96.9,89.5 96.6,89.3 96.1,88.9 95.7,88.7 95.3,88.5 95,88.3 95,88.1 v -0.5 c 0,-0.4 -0.8,-0.4 -0.9,0 -0.2,0.5 -1.1,0.9 -2.3,1 -0.6,0 -1.2,0.2 -1.3,0.3 -0.5,0.5 -1.5,0.7 -4.1,0.5 -3.8,-0.2 -4.9,-0.4 -5,-0.9 v -1 c 0,-0.4 -0.1,-1.2 -0.2,-1.8 0,-1.2 -0.4,-1.6 -1.4,-1.8 -1.1,-0.2 -3.2,-1.7 -3.2,-2.3 0,-0.6 0,-0.2 0,-0.3 0,-0.1 -0.2,-0.8 -0.4,-1.6 -0.2,-0.8 -0.3,-1.5 -0.3,-1.6 0,-0.1 0,-0.1 7.8,2.2 3,0.9 5.5,1.6 5.6,1.6 0.1,0 1,-3.7 2,-8 1.1,-4.4 2,-8.1 2.1,-8.2 0,-0.1 0.4,0.5 0.8,1.5 0.7,1.7 0.7,1.8 0.6,3.5 0,2 0.1,2.6 0.7,2 0.3,-0.3 0.4,-0.6 0.3,-1.7 0,-0.7 0,-2.3 -0.1,-3.5 v -2.2 l 0.5,-0.6 c 0.5,-0.6 0.6,-0.6 1.3,-0.4 0.4,0 0.9,0.4 1.1,0.7 0.2,0.2 0.233,0.2 0.1,0 -0.2,-0.2 -0.4,-0.7 -0.4,-1 -0.2,-0.8 0.4,-1.4 1.4,-1.6 1,-0.2 1.7,0.1 2.4,1.1 0.7,0.9 0.5,1.6 -0.7,3.2 l -1,1.2 v 2.2 c 0,2.5 0.2,4 0.6,5 0.2,0.6 0.2,0.8 -0.2,1.7 -0.3,0.7 -0.4,1.1 -0.3,1.6 0.2,1 1.3,2.5 2.9,3.8 1.9,1.6 2.6,2.8 2.2,3.9 -0.133,0.333 -0.533,0.467 -1.2,0.4 -0.6,0 -1.1,-0.2 -1.2,-0.3 -0.1,-0.1 -0.3,-0.2 -0.4,-0.2 -0.5,0 -0.4,0.6 0.2,1.5 1,1.5 0.8,2.5 -0.7,3.2 -0.6,0.4 -1.3,0.4 -2.2,0.2 v 0 z"
     fill="#ecebe9" />
  <path
     id="path1098"
     d="m 149.9,172.4 c -0.9,-0.4 -1.1,-0.5 -1.1,-0.9 0,-0.4 0,-0.5 1.3,-0.7 0.8,0 0.9,0 1.4,0.5 0.7,0.7 0.6,1.5 0,1.5 -0.2,0 -1,-0.2 -1.6,-0.4 z"
     fill="#ecebe9" />
  <path
     id="path1100"
     d="m 112.5,138.4 c 0,0 -0.7,-0.1 -1.5,-0.2 -0.8,-0.1 -1.5,-0.1 -1.5,-0.2 0,-0.1 -0.7,-0.1 -1.5,-0.2 -0.8,0 -1.5,-0.1 -1.5,-0.2 0,-0.1 -0.6,-0.1 -1.3,-0.2 -0.6,0 -1.5,-0.2 -2,-0.2 -1.7,-0.2 -2.3,-0.2 -4.3,-0.4 -2.1,-0.2 -2.4,-0.3 -2.3,-0.5 0,0 0.1,-0.9 0.2,-1.8 0.1,-0.9 0.1,-1.8 0.2,-2 0.1,-0.2 0.1,-1 0.2,-1.8 0.1,-0.8 0.1,-1.7 0.2,-2 0,-0.2 0.1,-1 0.2,-1.7 0.1,-1.5 0.2,-2.9 0.4,-4 0,-0.4 0.1,-1.2 0.2,-1.7 0.3,-3.2 0.4,-4 0.6,-5.7 0,-0.6 0.1,-1.3 0.1,-1.5 0,-0.3 -0.2,-0.5 -1.4,-1.2 -1.8,-1 -5.1,-2.7 -7.8,-4.1 -1.1,-0.6 -2.4,-1.3 -2.8,-1.5 -0.7,-0.4 -1.1,-0.8 -2.4,-3.1 l -0.6,-1 -2,-0.4 -2,-0.4 -1,-1.4 c -0.6,-0.8 -2.6,-3.6 -4.6,-6.4 -2,-2.8 -4.1,-5.7 -4.7,-6.4 -0.6,-0.8 -1,-1.5 -1,-1.6 0,-0.2 2.3,-6.6 2.4,-6.7 0.2,-0.3 1.9,1.3 2.7,2.4 0.5,0.7 1.8,1.8 2.6,2.2 0.4,0.2 0.6,0.2 0.9,0 0.3,-0.2 0.5,-0.1 1.2,0.4 l 1.1,1.1 c 0.4,0.6 1.1,2.1 1.1,2.5 0,0.4 -0.5,0.7 -1.4,0.9 -1,0.1 -1.8,0.5 -1.8,0.9 0,0.4 0.2,0.4 0.4,0.8 0.3,0.5 0.7,0.7 2.2,1.1 2.8,0.9 3.4,1 4.7,0.7 0.6,-0.1 1.4,-0.3 1.6,-0.4 0.4,-0.2 0.5,-0.2 0.8,0.2 0.2,0.2 0.8,1.1 1.4,1.8 1.4,1.8 1.9,2.7 1.8,3.4 0,0.4 0,0.5 0.1,0.3 0.1,-0.2 0.1,-1 0,-2.1 v -1.8 c -0.1,0 1.8,-1 1.8,-1 1.1,-0.5 1.9,-1.1 2,-1.3 0,-0.2 -0.233,-0.2 -0.7,0 -0.4,0.2 -1.2,0.4 -1.7,0.6 -0.9,0.2 -1,0.2 -1.4,-0.1 -1.2,-0.9 -0.2,-2.6 1.6,-2.7 0.4,0 1.1,-0.2 1.6,-0.3 0.5,-0.1 1.1,-0.3 1.4,-0.2 0.6,0 1.1,0.7 1.1,1.5 0,0.3 0.2,0.8 0.3,1.2 0.4,0.9 1.8,2.2 2.3,2.2 h 1 c 0.1,0 0.5,0.5 1,1.2 l 0.7,1.1 h 1.1 c 0.6,0.2 1.6,0.2 2.3,0.2 0.7,0 1.8,0.2 2.4,0.4 0.7,0.2 1.3,0.4 1.3,0.4 v -0.6 c 0,-0.3 0.2,-1 0.3,-1.3 0.1,-0.3 0.3,-0.9 0.3,-1.2 0,-0.4 0,-0.5 0.8,-0.4 1,0.1 2.1,0.5 3.3,1.1 0.5,0.2 1,0.5 1,0.5 0,0 -0.6,2.5 -1,3.6 0,0.1 0.1,0.3 0.3,0.4 0.2,0 0.5,0.4 0.6,0.8 l 0.2,0.6 v -0.5 c 0.2,-0.3 0.1,-0.7 0,-1.1 -0.2,-0.3 -0.3,-1 -0.3,-1.8 0,-1.3 0.2,-1.6 0.8,-1.4 0.6,0.2 1.9,-0.5 2.5,-1.3 0.4,-0.6 0.5,-0.9 0.5,-1.8 0,-0.9 0,-1.1 -0.4,-1.3 -0.4,-0.4 -0.5,-1.7 -0.1,-2 0.3,-0.3 -0.8,-1.3 -1.8,-1.6 -0.6,-0.2 -0.9,-0.4 -1.4,-1.2 -0.5,-0.8 -0.6,-1.1 -0.6,-2 0,-0.9 0,-1.2 0.2,-1.4 0.1,-0.3 0,-0.6 -0.3,-1.5 l -0.5,-1.1 0.3,-1 c 0.3,-0.8 0.5,-1.1 1.1,-1.4 0.467,-0.267 0.667,-0.533 0.6,-0.8 -0.2,-0.4 -0.1,-0.5 0.4,-1.2 1.4,-1.7 1.3,-1.6 1.9,-1.5 0.4,0 0.7,0.3 0.8,0.6 0.1,0.3 0.5,0.8 0.9,1.1 1.2,1.1 1.4,1.5 1.5,3.2 0,1.5 0,1.6 1,3.1 1.1,1.9 1.2,2.9 0.3,2.5 -0.267,-0.067 -0.367,0.067 -0.3,0.4 0,0.3 0,0.9 -0.2,1.3 -0.133,0.467 -0.067,0.8 0.2,1 0.3,0.3 0.5,0.3 1.1,0.1 0.7,-0.2 1.3,0 2.7,0.5 0.6,0.2 0.6,0.3 0.4,0.5 -0.1,0.1 -0.6,0.3 -1.1,0.4 -1.3,0.2 -1.4,0.5 -0.5,1.7 0.7,1 0.8,1.5 0.9,2.9 0,0.8 0.3,0 0.4,-1.2 0.2,-1.9 0.4,-2.4 1.2,-2.7 l 0.6,-0.3 1.2,1.3 c 0.8,0.9 1.3,1.5 1.4,2.1 0.3,1.1 0.2,1.8 -0.2,2.2 -0.4,0.4 -0.4,0.6 -0.4,0.9 0,0.5 0.3,1.7 0.5,1.8 0,0 0.4,0.5 0.7,1 0.3,0.5 0.6,1 0.7,1 0.3,0 1,-0.6 1.1,-1 0,-0.2 0.2,-0.9 0.3,-1.5 0,-0.6 0.2,-1.3 0.4,-1.6 0.1,-0.3 0.4,-1.1 0.6,-1.8 0.2,-0.7 0.6,-1.6 0.9,-2.1 0.6,-1 0.7,-1.3 0.2,-1.9 -0.4,-0.4 -1,-2.6 -0.8,-3.2 0.2,-0.8 0.6,-1 1.6,-1 1,0 1.2,0.1 2,0.5 0.6,0.3 1.2,0.5 1.4,0.5 0.2,0 0.6,0.3 0.9,0.6 0.3,0.3 0.9,0.8 1.3,1 0.8,0.4 1.4,1 1.4,1.3 0,0 -0.1,0.2 -0.3,0.4 -0.2,0.133 -0.2,0.367 0,0.7 0.2,0.3 0.4,0.8 0.5,1.2 0.1,0.6 0,0.7 -0.4,0.8 -0.3,0.1 -0.6,0.4 -0.7,0.6 -0.1,0.2 -0.4,0.4 -0.6,0.4 -0.5,0 -0.4,0.3 0,1 0.2,0.3 0.5,0.8 0.6,1.1 0,0.4 0.3,0.7 0.7,1 1.3,0.9 1.3,2.7 0,4.8 -1.5,2.6 -1.6,2.7 -2.4,2.6 -0.4,0 -0.9,-0.2 -1.2,-0.4 l -0.5,-0.3 0.3,0.7 c 0.3,0.8 0.1,1.1 -0.5,0.9 -0.6,-0.2 -0.9,-0.2 -1.2,0 -0.2,0.2 -0.4,0.2 -0.9,0 -0.3,-0.1 -0.7,-0.4 -0.9,-0.6 -0.2,-0.3 -0.4,-0.4 -1,-0.3 -0.4,0 -0.9,0.2 -1,0.3 -0.3,0.1 -0.2,0.2 0.3,0.8 0.6,0.6 0.6,0.7 0.5,1.4 0,0.5 -0.4,1.1 -1.1,1.9 -0.5,0.6 -1,1.3 -1.1,1.6 0,0.2 -0.2,0.4 -0.3,0.4 -0.1,0 0,0.2 0.3,0.4 0.4,0.3 0.5,0.5 0.4,1.1 0,0.4 -0.2,0.9 -0.3,1.2 -0.1,0.3 -0.4,0.7 -0.6,1 -0.2,0.3 -0.7,1.2 -1.1,1.9 -0.9,1.6 -1.2,1.8 -2.9,1.8 -1.7,0 -1.6,0.2 -1.7,1.3 0,0.4 -0.3,0.6 -0.9,0.6 -0.4,0 -1,0 -1.3,-0.1 -0.7,-0.2 -0.8,0.1 0,0.6 0.3,0.2 0.6,0.4 0.6,0.4 0.2,0.1 0.2,1.6 0,2.1 -0.2,0.7 -0.9,1.1 -2.1,1.1 -1.4,0 -1.3,0 -1,0.5 0.133,0.267 0,0.6 -0.4,1 -0.9,0.9 -1.9,2.3 -2.4,3.2 -0.2,0.4 -0.6,1 -0.8,1.2 -0.5,0.4 -0.9,1.2 -0.9,1.6 0,0.4 -0.4,1.2 -0.9,2.3 -0.8,1.6 -0.9,2.1 -0.9,2.9 v 1 z"
     fill="#ecebe9" />
  <path
     id="path1102"
     d="m 148.7,128.5 c -1,-0.6 -0.9,-2.3 0,-3.4 0.4,-0.4 0.9,-0.4 1.4,0 0.5,0.4 0.3,2.6 -0.4,3.3 -0.3,0.3 -0.7,0.3 -1.1,0 z"
     fill="#ecebe9" />
  <path
     id="path1104"
     d="m 139.4,126.5 c -0.4,-0.8 0.2,-2.5 1,-3.1 0.7,-0.5 0.9,-0.5 2.3,-0.5 0.8,0 0.9,0 1.1,0.6 0.2,0.5 0.2,0.6 -0.3,1.4 -0.8,1.2 -1.8,1.9 -3,1.9 -0.8,0 -1,0 -1.1,-0.3 z"
     fill="#ecebe9" />
  <path
     id="path1106"
     d="m 135.4,122.6 c -0.2,0 -0.3,-0.2 -0.3,-0.9 0,-0.7 0,-1 -0.2,-1.1 -0.1,-0.1 -0.7,-0.2 -1.2,-0.2 -2.1,0 -2.4,-0.5 -1.3,-1.8 0.7,-0.7 0.8,-1.1 0.8,-2.1 -0.1,-3.5 0,-4.6 0.7,-7.4 0.2,-0.9 0.3,-0.9 0.9,-1 0.5,-0.1 0.7,0 1,0.4 0.2,0.3 0.6,0.8 0.7,1.3 0.3,0.6 0.4,0.8 0.9,0.8 0.5,0 1.1,0.4 2.1,1.1 0.8,0.6 2,1.4 2.6,1.8 0.6,0.4 1.1,0.9 1.1,1 0,0.1 0.2,0.6 0.4,1 0.2,0.4 0.4,0.9 0.4,1 0,0.3 0.1,0.3 1,0.2 0.8,0 1,0 1.6,0.4 0.6,0.4 0.6,0.6 0.6,1.1 0,0.9 -0.2,1.1 -1,1.5 -0.4,0.2 -0.9,0.3 -1.5,0 -0.5,-0.2 -1,-0.3 -1.5,-0.3 -0.5,0 -0.7,0 -1,-0.3 -0.2,-0.2 -0.4,-0.6 -0.3,-0.7 0,-0.5 -1.5,-1.3 -1.9,-1 -0.1,0.1 -0.3,0.4 -0.3,0.6 0,0.6 -0.3,1.3 -0.9,1.9 -0.3,0.3 -0.7,0.7 -0.9,1 -0.6,0.8 -1.3,1.5 -1.4,1.5 h -1.2 z"
     fill="#ecebe9" />
  <path
     id="path1108"
     d="m 111.9,94.4 c -0.6,-0.2 -1.4,-0.7 -2.1,-1.4 -0.3,-0.3 -0.6,-0.5 -0.7,-0.5 -0.4,0 -1.2,-0.8 -1.2,-1.1 0,-0.3 2.8,-4.3 3.2,-4.3 0.4,0 2.1,1.7 2.6,2.7 0.7,1.5 1.2,2.9 1.2,3.4 0,0.5 -0.2,0.6 -0.7,1 -0.7,0.4 -1.3,0.5 -2.3,0.2 z"
     fill="#ecebe9" />
  <path
     id="path1110"
     d="m 178.3,121.4 c 0,0 -1.2,-0.1 -2.5,-0.2 -1.9,0 -2.5,-0.2 -2.8,-0.4 -0.2,-0.2 -0.6,-0.5 -1,-0.8 -0.5,-0.4 -0.7,-0.5 -1.5,-0.4 -1,0 -1.6,-0.1 -3.4,-1 -1.1,-0.5 -1.3,-0.7 -1.5,-1.3 -0.2,-0.6 -0.2,-0.7 0,-0.9 0.3,-0.2 0.4,-0.5 0.1,-0.5 -0.3,0 -0.6,-0.3 -1.1,-0.6 -0.5,-0.3 -1.1,-0.7 -1.4,-0.7 -0.3,0 -0.6,-0.3 -0.8,-0.6 -0.4,-0.8 -1.3,-1.3 -2.3,-1.4 -0.8,0 -1,0 -1.3,0.3 -0.3,0.3 -0.6,0.4 -1.2,0.4 -0.6,0 -0.9,0.1 -1.5,0.7 l -0.8,0.7 h -1.5 c -2.5,0 -3,-0.4 -3.3,-2.7 0,-0.8 0,-0.9 0.5,-1.4 0.4,-0.4 0.6,-0.7 0.6,-1.2 0,-0.5 0.1,-0.7 0.3,-0.8 0.2,0 1.3,-0.2 2.4,-0.2 1.9,0 2.2,0 2.7,-0.4 0.8,-0.6 1.6,-1 2.1,-1 0.5,0 0.4,0 0.3,-0.4 -0.1,-0.5 -0.2,-0.9 -0.3,-1.1 0,0 -0.3,-0.3 -0.8,-0.6 -0.467,-0.333 -0.667,-0.733 -0.6,-1.2 0,-0.4 0.2,-0.9 0.4,-1.2 0.1,-0.3 0.7,-1.3 1.2,-2.3 l 0.9,-1.8 -0.4,-1.3 c -0.3,-1.2 -1.4,-2.9 -2.3,-3.6 -0.2,-0.1 -0.5,-0.6 -0.7,-0.9 -0.2,-0.4 -0.8,-0.9 -1.3,-1.2 -0.7,-0.4 -0.9,-0.6 -1,-1.1 -0.1,-0.6 -0.2,-0.6 -0.7,-0.6 -0.3,0 -0.6,0.2 -0.8,0.3 -0.1,0.1 -0.6,0.4 -1,0.6 -0.6,0.3 -0.8,0.3 -1,0.1 -0.3,-0.4 0,-1 0.6,-1.6 0.5,-0.5 0.6,-0.5 0.2,-0.8 -0.4,-0.3 -0.7,-0.3 -1.4,0 -0.7,0.4 -1.1,0.2 -1.1,-0.4 0,-0.6 0.1,-0.6 0.4,-0.7 0.3,-0.1 0.3,-0.2 -0.5,-1 -1.5,-1.4 -2.3,-2.1 -2.5,-2 -0.1,0 -0.2,0.4 -0.2,0.7 v 0.6 h -4.8 c -1,0 -1.2,0 -1.2,0.3 0,0.3 -0.2,0.3 -1.5,0.3 -0.8,0 -2.4,0 -3.4,-0.2 h -2.5 c -0.8,0.2 -1.4,-0.1 -1.7,-1.1 -0.2,-0.5 -0.3,-0.6 -0.7,-0.6 -2.1,0.2 -2.2,0.2 -2.8,-0.2 -1.2,-0.9 -2.1,-2.3 -2.1,-3.1 0,-0.8 0.2,-0.4 0.8,-0.4 0.5,0 1.2,-0.1 1.6,-0.1 0.6,0 0.7,0 0.5,-0.2 -0.4,-0.4 -1.4,-0.6 -2.2,-0.6 -0.8,0 -0.8,0 -0.9,-0.3 -0.3,-0.8 -0.6,-2.3 -0.5,-3 0.2,-3.7 0.3,-4.1 1.1,-6.3 1.1,-3.3 1.9,-4.8 3,-5.4 1.6,-1 4.2,-0.7 4.5,0.5 0.1,0.4 0,0.6 -0.5,1.2 -0.4,0.4 -0.7,1 -0.7,1.4 0,0.4 -0.2,0.9 -0.4,1.1 -0.3,0.5 -0.8,2.4 -0.6,2.6 0,0 0.1,0.8 0.2,1.5 0,1.5 0.1,1.7 0.6,1.7 0.5,0 0.4,-0.2 0.4,-0.5 0,-0.3 0.2,-0.6 0.4,-0.8 0.2,-0.3 0.2,-0.4 0,-0.6 -0.4,-0.6 -0.6,-1.2 -0.6,-2.1 0,-0.7 0,-0.9 0.4,-1.2 0.2,-0.2 0.4,-0.4 0.5,-0.6 0,-0.2 0.2,-0.3 0.3,-0.3 0.1,0 0.2,-0.2 0.2,-0.4 0,-0.6 1.4,-2.6 2.1,-3 0.8,-0.4 2.5,-0.8 3,-0.6 0.3,0.1 0.6,0.6 1.7,2.6 0.7,1.3 1.2,2.7 1.1,3 -0.1,0.5 0.5,1.4 1.1,1.4 0.6,0 0.7,0 1.1,-0.2 0.6,-0.2 0.7,-0.2 0.6,-0.5 -0.2,-0.6 0.9,-1.5 2.2,-1.8 1,-0.2 1.1,-0.2 1.7,0.1 0.3,0.2 0.8,0.4 1.1,0.4 0.6,0 1.3,0.7 1.5,1.3 0.2,0.6 0.6,1.1 1,1.1 0.4,0 0.3,0.2 0.4,0.7 0,0.4 0.2,0.7 0.3,0.7 0.1,0 0.6,0.4 1.1,1 0.8,0.8 1,0.9 1.1,0.7 0,-0.2 0.2,-0.6 0.4,-0.9 0.3,-0.6 0.4,-0.7 2,-0.1 0.6,0.2 0.8,0.4 1.1,1.2 0.2,0.5 0.6,1 0.9,1.2 0.3,0.2 0.6,0.5 0.7,0.7 0.4,0.7 0.8,0.8 1.3,0.4 0.6,-0.4 1,-0.4 2.1,0.4 0.7,0.5 0.8,0.6 0.6,1 -0.3,1.2 -0.3,1.5 0,1.4 0.1,0 0.4,-0.3 0.6,-0.5 0.4,-0.7 1,-0.6 1.9,0.3 0.8,0.9 1.2,1.5 1.2,2 0,1 0.1,1.1 0.7,1.4 0.3,0.2 0.8,0.5 0.9,0.8 l 0.3,0.5 -0.8,0.5 c -0.7,0.4 -0.9,0.4 -1.2,0.3 -0.6,-0.2 -0.7,0 -0.3,0.4 0.3,0.4 0.3,1.1 0,1.9 -0.2,0.4 0.4,0.9 1.3,1.2 0.4,0.1 1,0.4 1.4,0.7 0.4,0.3 1,0.5 1.3,0.5 0.3,0 0.8,0.1 1.1,0.2 0.3,0.1 0.9,0.1 1.5,0.1 h 1 l 1,0.9 c 0.8,0.9 1.1,1 1.7,1 h 1 c 0.1,0 0.3,0.3 0.3,0.6 0,0.3 0.2,0.6 0.2,0.7 0,0 0.7,0 1.4,-0.3 l 1.2,-0.4 0.7,0.4 c 0.6,0.4 0.7,0.4 0.7,1.3 0,1.2 0,1.6 -0.5,2.1 -0.2,0.267 -0.2,0.533 0,0.8 0.2,0.3 0.3,0.4 0.1,0.8 -0.1,0.2 -0.2,0.7 0,1.1 0.1,0.8 -0.5,1.7 -1.1,1.7 -0.6,0 -0.4,0 -0.3,0.4 0.2,0.6 0.8,1.7 1,1.8 0.4,0.2 0.2,0.6 -0.6,1 -0.7,0.4 -0.8,0.4 -1.4,0 -0.3,-0.2 -1,-0.4 -1.5,-0.6 -0.8,-0.2 -1,-0.4 -1.5,-1.1 -0.7,-1 -1.9,-2.2 -2.3,-2.2 -0.4,0 -0.4,-0.1 -0.5,-0.2 -0.7,-0.7 -1.9,-1.1 -1.9,-0.7 0,0.4 -0.2,0.2 -0.5,0.4 l -0.5,0.2 0.5,0.5 c 0.6,0.6 0.6,1.4 0,1.7 -0.3,0.1 -0.3,0.3 -0.2,0.5 0,0.2 0.1,0.3 0.1,0.2 0,-0.2 1.3,0.4 1.6,0.7 0.1,0.2 0.6,0.7 1,1.1 0.7,0.8 1,0.9 2.8,1.4 0.6,0.1 0.8,0.3 0.9,0.6 0,0.2 0.3,0.5 0.5,0.6 0.2,0.1 0.6,0.5 0.8,0.9 0.2,0.4 1,1.3 1.7,2 l 1.3,1.3 v 2.5 c 0,1.4 -0.1,2.5 -0.2,2.6 -0.2,0.1 -3.4,-0.9 -5.2,-1.6 -0.8,-0.4 -1.8,-0.9 -2.1,-1.1 -0.5,-0.4 -1,-0.5 -2.1,-0.4 -0.3,0 -0.1,0.3 0.4,0.5 0.3,0.1 0.6,0.5 0.8,0.8 0.3,0.5 0.6,0.7 1.7,1.1 0.8,0.3 2.2,1.1 3.3,1.8 l 1.9,1.2 v 1.1 l -0.1,1.1 z"
     fill="#ecebe9" />
  <path
     id="path1112"
     d="m 152.3,120.7 c -0.7,-0.4 -0.9,-0.9 -0.6,-1.3 0.3,-0.4 0.6,-0.3 1.3,0.1 0.6,0.4 0.7,1 0.3,1.4 -0.2,0.2 -0.533,0.133 -1,-0.2 z"
     fill="#ecebe9" />
  <path
     id="path1114"
     d="m 154.3,118.7 c -0.3,0 -0.4,-0.2 -0.4,-0.6 0,-0.4 0.2,-0.5 0.5,-0.5 0.6,0 1.3,0.5 1.1,0.9 -0.1,0.3 -0.4,0.3 -1.3,0.2 z"
     fill="#ecebe9" />
  <path
     id="path1116"
     d="m 151.4,98.8 c -1.2,-1.2 -0.8,-4.9 0.6,-5.9 0.6,-0.4 1.6,-0.2 2.3,0.5 0.333,0.4 0.5,1.267 0.5,2.6 0,2 0,2.4 -1.5,3 -0.9,0.4 -1.3,0.4 -1.9,-0.2 z"
     fill="#ecebe9" />
  <path
     id="path1118"
     d="m 156.3,95.5 c -0.5,-0.2 -1,-0.9 -0.8,-1.2 0.2,-0.3 1.6,-0.2 1.9,0.1 0.3,0.4 0.3,0.7 -0.3,1 -0.3,0.2 -0.6,0.2 -0.8,0 v 0 z"
     fill="#ecebe9" />
  <path
     id="path1120"
     d="m 145.6,90.8 c -0.2,-0.2 -0.1,-0.3 0.3,-0.8 0.3,-0.3 0.5,-0.8 0.5,-1.4 0.1,-0.9 0.5,-1.8 0.8,-1.8 0.3,0 0.4,0.6 0.1,1 -0.1,0.2 -0.2,0.7 -0.2,1 0,1 -1.2,2.6 -1.6,2.1 v 0 z"
     fill="#ecebe9" />
  <path
     id="path1122"
     d="m 109,78 c -0.5,-0.4 -0.8,-0.8 -0.9,-1 -0.2,-1.9 -0.4,-2.4 -2.1,-3.5 -0.3,-0.2 -0.8,-0.9 -1.1,-1.5 -0.6,-1 -0.6,-1.1 -0.3,-1.9 0.1,-0.4 0.4,-1 0.7,-1.1 0.267,-0.2 0.733,-0.067 1.4,0.4 0.9,0.7 1,0.7 1.3,0.4 0.2,-0.2 0.4,-0.6 0.5,-1 0.2,-0.6 0.1,-0.7 -0.2,-1.1 -0.9,-0.9 -1.1,-1.5 -0.9,-2.4 0.2,-1 0.8,-1.8 1.1,-1.8 0.3,0 0.7,0.2 1.2,0.5 0.8,0.5 1,0.5 1.2,0.3 0.4,-0.5 2.4,-1 2.8,-0.6 0.1,0.1 0.2,0.6 0.2,1.1 0,0.5 0,1 -0.3,1.1 -0.3,0.1 -0.3,0.1 0,0.4 0.5,0.3 0.4,0.5 -0.5,1.5 -0.4,0.5 -0.8,1 -0.8,1.1 0,0.1 0.2,0.3 0.5,0.4 0.4,0.1 0.5,0.3 0.5,0.7 0,0.4 0.1,0.7 0.3,0.9 0.5,0.9 0.7,1.4 0.8,2.6 0,1.1 0,1.4 -0.4,2 -0.5,0.7 -1.5,1.5 -2,1.5 -0.5,0 -0.2,0 -0.2,0.2 0.2,0.3 -0.7,1.2 -1.4,1.4 -0.6,0.2 -0.7,0.1 -1.5,-0.5 v 0 c 0,0 0.1,-0.1 0.1,-0.1 z"
     fill="#ecebe9" />
  <path
     id="path1124"
     d="m 116.4,74.6 c -0.4,-0.3 -0.5,-0.5 -0.5,-1.1 0,-0.6 0,-1 -0.2,-1.3 -0.4,-1.1 0,-5.2 0.5,-6.6 0.2,-0.5 0.4,-1.2 0.5,-1.5 0.1,-1 0.7,-1.3 2.7,-1.5 0.5,0 0.9,0 1.5,0.3 0.6,0.3 0.9,0.4 1.1,0.4 0.5,0 1.6,0.5 2.3,1 0.4,0.3 0.5,0.6 0.3,1 -0.2,0.3 -0.4,0.7 -0.5,0.9 -0.1,0.2 -0.3,0.5 -0.3,0.8 0,0.3 -0.4,0.9 -0.7,1.4 -0.3,0.5 -0.7,1.4 -0.8,1.9 -0.1,0.6 -0.3,1.1 -0.4,1.1 -0.1,0 -0.7,0.1 -1.3,0.2 -0.6,0.1 -1.2,0.2 -1.3,0.2 -0.1,0.1 -0.3,1.4 -0.3,2.5 0,0.3 -1,0.8 -1.5,0.8 -0.3,0 -0.7,-0.2 -1,-0.4 v 0 c 0,0 -0.1,-0.1 -0.1,-0.1 z"
     fill="#ecebe9" />
  <path
     id="path1126"
     d="m 142.3,68.7 c -0.8,-1.3 -2,-3.9 -1.9,-4.2 0.2,-0.4 3.8,-0.4 4.5,0 1,0.6 2.3,1.9 2.9,3 0.4,0.7 -0.2,1 -1.5,0.9 -0.9,0 -1.3,0 -1.9,0.3 -1.1,0.6 -1.7,0.5 -2.1,-0.2 v 0 z"
     fill="#ecebe9" />
  <path
     id="path1128"
     d="m 124.4,60.2 c -0.4,-0.2 -1,-0.4 -1.3,-0.4 -0.9,0 -1.2,-0.3 -1.3,-1.6 0,-0.6 -0.1,-1.3 -0.2,-1.4 -0.3,-0.5 -0.4,-2.2 -0.2,-2.6 0.1,-0.2 0.2,-0.8 0.2,-1.4 0,-0.8 0,-1.1 -0.4,-1.6 -0.3,-0.3 -0.5,-0.8 -0.6,-1 0,-0.3 -0.2,-0.4 -1.4,-0.5 -0.7,0 -1.5,-0.2 -1.6,-0.2 -0.4,-0.2 -2.1,-2.3 -2.2,-2.8 v -1 c 0.2,-0.8 0.6,-0.9 2.1,-0.7 1.5,0.2 2.4,0.7 2.7,1.7 0.1,0.5 0.6,0.6 1.8,0.5 1.4,-0.1 2.1,0.2 2.1,1.1 0,0.9 0.1,0.5 0.4,0.7 0.7,0.3 0.9,0.9 0.6,1.8 -0.2,0.5 0,0.9 0.3,1.3 0.3,0.3 0.6,0.8 0.6,1 0,0.3 0.1,0.4 0.8,0.5 0.4,0 1.5,0.2 2.3,0.4 l 1.5,0.3 1,-0.5 c 0.6,-0.3 1.1,-0.5 1.2,-0.5 0.1,0 0.5,-0.3 1,-0.6 0.533,-0.4 1.267,-0.6 2.2,-0.6 1.7,0 2.2,0.2 3.4,1 1.5,1 2.3,2.3 1.7,2.9 -0.1,0.1 -0.1,0.4 0,0.7 0.2,0.5 0.2,0.6 0,0.9 -0.2,0.2 -0.3,0.6 -0.4,1 0,0.5 -0.2,0.7 -0.9,1.1 -1.5,0.7 -3.7,0.7 -4,0 -0.1,-0.3 -0.2,-0.3 -0.4,-0.1 -0.1,0.1 -0.6,0.4 -1.1,0.6 -0.7,0.3 -1.2,0.4 -3.5,0.5 -2.9,0 -3.5,0 -3.8,-0.8 -0.2,-0.5 -0.3,-0.5 -1,0.3 -0.3,0.3 -0.7,0.6 -0.8,0.6 -0.1,0 -0.5,-0.2 -0.9,-0.4 v 0 c 0,0 0.1,-0.2 0.1,-0.2 z"
     fill="#ecebe9" />
  <path
     id="path1130"
     d="m 118.3,59.6 c -0.4,0 -2.3,-1.4 -2.8,-1.9 -0.4,-0.4 -0.3,-1 0.4,-2.4 0.6,-1.1 0.8,-1.3 1.4,-1.6 0.8,-0.3 1.7,0 2.4,0.6 0.5,0.4 0.5,0.5 0.6,2.5 0.067,1.4 -0.033,2.267 -0.3,2.6 -0.5,0.4 -0.9,0.5 -1.7,0.3 v 0 c 0,0 0,-0.1 0,-0.1 z"
     fill="#ecebe9" />
  <path
     id="path1132"
     d="m 111.3,56.3 c -0.8,-0.4 -1.7,-1.3 -1.7,-1.8 0,-0.5 0.2,-0.5 0.6,-0.8 l 0.6,-0.5 h -1.7 c -1.9,0.1 -2.2,0 -2.2,-1.2 0,-1.2 -0.2,-1.2 -1.3,-1.8 -0.5,-0.3 -0.9,-0.6 -0.9,-0.7 0,-0.1 0.1,-0.3 0.3,-0.6 0.3,-0.5 0.4,-0.5 1.1,-0.4 1,0.1 1.5,0.3 1.5,0.7 0,0.4 0.4,0.6 0.8,1.1 0.6,0.6 0.9,0.8 1.3,0.8 0.4,0 0.5,0 0.6,-0.6 0,-0.7 -0.2,-1.1 -1.2,-1.6 -0.3,-0.2 -0.5,-0.4 -0.5,-0.5 0,-0.1 0.4,-0.5 0.9,-0.9 0.7,-0.5 1,-0.7 1.4,-0.6 0.3,0 0.9,0.1 1.5,0.2 0.6,0.1 1.2,0.2 1.4,0.4 l 0.4,0.3 v 3.3 c -0.2,2 -0.3,3.4 -0.4,3.5 -0.1,0.1 -0.1,0.5 0,0.9 0.2,1 -0.1,1.4 -1,1.4 -0.4,0 -1.1,-0.2 -1.5,-0.4 v 0 z"
     fill="#ecebe9" />
  <path
     id="path1134"
     d="m 98.3,55.2 c -0.7,-0.4 -1.2,-0.5 -1.7,0 -0.2,0.1 -0.4,0.2 -0.5,0.1 -0.3,-0.2 0.7,-4.3 1,-4.2 0.1,0 0.2,-0.3 0.2,-0.9 0,-1.2 0.8,-5.4 1.2,-6 0.5,-0.8 1.9,-0.1 1.5,0.7 -0.1,0.2 -0.1,0.5 0,0.7 0.2,0.4 0.1,1.6 -0.1,2 0,0.2 -0.1,0.6 -0.1,1 0,0.6 0,0.7 0.4,0.8 0.2,0 0.8,0 1.2,-0.2 0.7,-0.2 0.8,-0.2 1.1,0.1 0.7,0.7 0.8,3.2 0.2,3.9 -0.1,0.2 -0.4,0.6 -0.6,1 -0.8,1.3 -2.5,1.7 -3.8,0.9 v 0 c 0,0 0,0.1 0,0.1 z"
     fill="#ecebe9" />
  <path
     id="path1136"
     d="m 103.2,55.2 c -0.1,-0.3 0,-0.6 0.1,-0.9 0.2,-0.3 0.3,-0.5 0.3,-0.5 0,0 0.3,0 0.6,-0.1 0.5,0 0.6,0 0.9,0.7 0.2,0.5 0.3,0.9 0.2,1 0,0 -0.6,0.2 -1.1,0.2 -0.9,0 -1,0 -1.1,-0.4 z"
     fill="#ecebe9" />
  <path
     id="path1138"
     d="M 138,49.5 V 49 c 0.1,-0.2 -0.1,-0.5 -0.7,-0.8 -0.5,-0.3 -0.6,-0.2 -1,0.2 -0.3,0.3 -0.5,0.4 -0.8,0.3 -0.2,0 -0.6,-0.2 -0.8,-0.2 -0.2,0 -0.6,-0.3 -0.8,-0.6 -0.3,-0.4 -0.4,-0.4 -0.7,-0.2 -0.2,0.1 -0.3,0.4 -0.3,0.7 0,0.6 -0.6,1 -1.3,0.8 -0.3,0 -1.5,-0.1 -2.8,-0.1 -1.9,0 -2.3,0 -2.7,-0.4 -0.4,-0.3 -0.5,-0.5 -0.6,-1.4 0,-0.7 0,-1.2 0.2,-1.5 0.4,-0.8 1.5,-1.8 1.9,-1.8 0.8,0 0.9,-0.4 0.3,-1 -1,-1 -1.3,-1.9 -0.8,-2.8 0.3,-0.6 0.5,-0.7 1.5,-0.7 1,0 1.8,0.5 2.1,1.5 0.1,0.4 0.4,0.9 0.6,1.1 0.4,0.4 0.5,0.4 0.8,0.2 0.3,-0.2 0.3,-0.2 -0.4,-1 -0.4,-0.4 -0.9,-1.1 -1,-1.3 -0.2,-0.5 -0.2,-0.6 0.3,-1.1 l 0.5,-0.6 h -1.2 c -1.5,0 -2,-0.3 -2,-1.2 0,-0.9 0.2,-1 0.4,-1.3 0.2,-0.4 0.3,-0.8 0.3,-0.8 -0.3,-0.3 0.5,-1.1 1.6,-1.7 l 1.2,-0.6 1.2,0.6 c 1.5,0.8 1.4,0.8 1.4,0.5 0,-0.1 0,-0.4 0.1,-0.5 V 33 h -0.7 c -0.7,0 -1.9,-1.4 -2.4,-2.6 -0.2,-0.5 -0.6,-1.3 -0.9,-1.7 -0.3,-0.4 -0.6,-0.8 -0.6,-0.9 0,-0.1 -0.2,-0.2 -0.3,-0.2 -0.5,-0.2 -0.7,-1 -0.6,-2.3 0.2,-1.6 0.3,-1.8 1.5,-1.6 1.2,0.1 1.5,0.3 2.8,2.1 0.6,0.8 1.1,1.4 1.2,1.4 0.2,-0.2 -0.3,-1.3 -0.9,-1.9 -0.9,-1 -0.9,-1.6 0.1,-2.1 0.4,-0.2 1,-0.6 1.4,-0.9 0.4,-0.3 0.9,-0.5 1,-0.5 0.1,0 0.3,-0.1 0.3,-0.4 0,-0.3 0.3,-0.7 0.7,-1.1 l 0.7,-0.7 -0.5,-0.6 c -0.2,-0.3 -0.5,-0.7 -0.5,-0.8 0,-0.1 -0.2,0 -0.4,0.5 -1.1,2.2 -2,2.9 -3.3,3 -0.5,0 -1.3,0.1 -1.9,0.3 -1.4,0.3 -2,0.1 -2.1,-0.8 0,-0.4 0,-1 0.2,-1.3 0.2,-0.3 0.2,-0.6 0.2,-0.6 -0.2,0 -0.8,0.8 -0.8,1 0,0.2 -0.2,0.4 -0.5,0.7 -0.4,0.3 -0.6,0.4 -1,0.3 -1.2,-0.3 -2.1,-1.3 -1.6,-1.9 0.2,-0.2 0.2,-0.3 -0.1,-0.3 H 125 c -0.3,0 -0.6,-0.6 -0.6,-1.2 0,-0.6 0.1,-0.7 0.7,-1.3 0.8,-0.7 0.9,-0.9 0.4,-0.9 -0.5,0 -0.4,-0.2 -0.6,-0.4 -0.2,-0.2 -0.5,-0.4 -0.8,-0.4 -1.6,0 -1.1,-1.7 0.6,-2.3 0.3,-0.1 0.9,-0.6 1.3,-0.9 0.6,-0.6 0.8,-0.7 1.4,-0.7 0.6,0 0.8,0 0.6,-0.4 0,-0.3 0,-0.5 0.4,-0.9 0.3,-0.2 0.5,-0.6 0.5,-0.8 0,-0.4 0.4,-0.8 0.8,-0.7 h 0.6 c 0.2,0 0.5,0.2 0.8,0.4 0.7,0.5 0.8,0.4 0.8,-0.5 0,-0.9 0.3,-0.8 0.6,-1.3 0.3,-0.5 0.6,-1 0.6,-1.2 0,-0.2 0.3,-0.7 0.7,-1.1 0.6,-0.6 0.8,-0.7 1.2,-0.7 0.4,0 0.5,0 0.6,-0.4 0.2,-0.6 0.9,-0.9 1.6,-0.8 1.4,0.2 1.8,0.2 2.6,-0.2 0.9,-0.5 2.3,-0.6 2.8,-0.4 0.2,0.1 0.6,0 1.4,-0.1 0.8,-0.2 1.2,-0.3 1.5,-0.1 0.2,0 0.8,0.1 1.4,0.1 1.3,0 1.7,0 1.9,0.6 0.2,0.6 0.7,0.9 1.6,1 0.7,0.1 1,0.4 1.2,1.3 0.2,1.1 0.2,2 -0.2,3.4 -0.3,1 -0.5,1.4 -0.9,1.7 -0.3,0.3 -0.7,0.5 -0.8,0.5 -0.3,0 -1.2,1.1 -1.8,2.1 -0.2,0.5 -0.5,1 -0.5,1 0,0.2 0.9,-0.6 1.1,-1 0.1,-0.2 0.4,-0.6 0.7,-0.8 0.3,-0.2 0.5,-0.4 0.5,-0.5 0,-0.2 0.9,-0.2 1,0 0,0.1 0.1,0.6 0.1,1.2 0,0.6 -0.1,1.2 -0.4,1.7 -0.7,1 -1.2,2.2 -1.1,2.4 0,0.1 -0.3,1.1 -0.8,2.1 -0.5,1 -0.9,2.1 -1,2.3 -0.2,0.6 -0.6,2.5 -0.7,3.5 0,1 -0.9,1.8 -1.7,1.7 -0.5,0 -0.6,0 -0.7,0.5 0,0.3 -0.3,0.8 -0.5,1 -0.4,0.4 -1.8,1 -2,0.9 0,0 -0.2,0 -0.4,0.3 -0.2,0.2 -0.2,0.5 0,0.6 0.5,0.3 0.5,1 0.1,1.5 -0.133,0.2 -0.133,0.3 0,0.3 h 0.9 c 0.2,0 0.6,0.3 0.9,0.6 0.7,0.7 0.8,2 0.2,2.3 -0.5,0.3 -0.4,0.5 0,0.9 0.2,0.2 0.4,0.5 0.4,0.7 0,0.2 -0.2,0.4 -0.4,0.4 -0.4,0 -0.4,0.2 -0.4,0.7 0,0.8 -0.8,1.7 -1.6,1.7 H 141 v 1.4 c 0,1.2 0,1.4 -0.4,1.8 -0.7,0.8 -1,1.3 -0.8,1.7 0.2,0.2 0.6,0.6 0.9,0.8 0.3,0.2 0.6,0.4 0.8,0.6 0.3,0.4 0.2,1.3 -0.2,2.2 -0.8,1.9 -3.4,3.5 -3.8,2.4 v 0 z"
     fill="#ecebe9" />
  <path
     id="path1140"
     d="m 104.5,42.8 c -0.5,-0.5 -0.6,-1.3 -0.2,-2.2 0.2,-0.7 0.6,-0.7 1,0 0.7,1 0.7,2.2 0,2.5 -0.3,0.1 -0.4,0 -0.8,-0.3 z"
     fill="#ecebe9" />
  <path
     id="path1142"
     d="m 117.7,42.6 c -1.3,-0.7 -1.4,-1.3 -0.4,-2.1 0.8,-0.7 1.8,-0.8 2.7,-0.2 1,0.6 1,1.4 0,2.2 -0.6,0.5 -1.5,0.6 -2.3,0.1 z"
     fill="#ecebe9" />
  <path
     id="path1144"
     d="m 116.1,39.6 c -0.6,-0.2 -0.9,-0.8 -0.7,-1.3 0,-0.2 -0.1,-0.6 -0.4,-1 -0.7,-0.8 -0.8,-1.2 -0.7,-2.3 0.1,-1 0.7,-1.6 1.3,-1.4 0.2,0 0.9,0.4 1.4,0.8 0.6,0.4 1.1,0.7 1.2,0.7 0.3,0 0.5,1 0.5,2.1 v 1.2 l -0.8,0.6 c -0.9,0.8 -1,0.8 -1.8,0.4 v 0 z"
     fill="#ecebe9" />
  <path
     id="path1146"
     d="m 112.3,39.3 c -0.2,-0.2 -0.7,-0.7 -1,-1.1 -1.1,-1.3 -1.6,-1.6 -2.8,-1.5 -0.9,0 -1.1,0 -1.5,-0.5 -0.6,-0.6 -0.7,-1.2 -0.3,-1.8 0.1,-0.2 0.3,-0.3 0.4,-0.3 0.1,0 0.4,-0.2 0.6,-0.3 0.3,-0.3 0.3,-0.4 0.2,-1 -0.1,-0.4 -0.4,-0.9 -0.8,-1.2 -1.1,-1 -0.6,-2.5 0.8,-2.5 1.4,0 1.8,0.7 1.8,1.3 0,0.6 0.2,0.6 0.7,0.6 0.4,0 1.3,0.9 1.7,1.6 0.2,0.4 0.5,0.9 0.7,1.1 0.6,0.7 0.7,1 0.4,1.7 -0.4,1 -0.3,1.3 0.3,1.9 0.3,0.3 0.5,0.7 0.5,0.9 0,0.5 -0.4,1.1 -0.8,1.4 -0.4,0.2 -0.5,0.1 -0.8,-0.2 v 0 z"
     fill="#ecebe9" />
  <path
     id="path1148"
     d="m 122.5,37.3 c -0.4,-0.4 -0.8,-0.9 -0.8,-1.1 0,-0.2 -0.3,-0.6 -0.6,-0.8 -0.6,-0.7 -1.3,-2.1 -1.3,-2.7 0,-0.6 0.7,-1.4 1.4,-1.4 0.7,0 1.1,-0.5 1.1,-0.9 0,-0.4 -0.9,-0.6 -1.2,-0.6 -0.3,0 -0.6,0 -1,0.1 -1.1,0.2 -1.6,0 -1.9,-0.5 -0.1,-0.3 -0.1,-0.5 0,-0.9 0.1,-0.3 0.2,-0.5 0,-0.5 -0.2,0 -0.3,-0.2 -0.5,-0.4 -0.4,-0.4 -0.5,-1.3 -0.2,-2.1 0.2,-0.5 0.3,-0.6 0.9,-0.6 0.6,0 0.7,0 0.6,-0.4 0,-0.2 -0.4,-0.6 -0.7,-0.9 -0.4,-0.4 -0.5,-0.6 -0.4,-1 0.1,-0.7 0.5,-1 1.1,-1.1 1.1,-0.1 1.1,-0.3 0.3,-1.2 l -0.6,-0.7 0.4,-0.7 c 0.2,-0.4 0.6,-0.8 0.9,-1 0.4,-0.2 0.5,-0.4 0.6,-1 0,-0.6 0,-0.7 0.7,-0.7 0.7,0 1.7,0.5 2,1 0.4,0.8 0.9,1.9 0.9,2.1 0,0.4 0.8,1.6 1.5,2.4 0.6,0.6 0.8,1 0.8,1.4 0,0.4 0.2,0.8 0.9,1.5 0.8,0.8 0.9,1 0.9,1.7 0,0.7 0,0.9 1.8,2.3 0.6,0.5 0.7,0.7 0.7,1.4 0,0.7 -0.1,1 -1.1,2.2 -0.6,0.8 -1.3,1.5 -1.5,1.7 -0.3,0.2 -0.4,0.4 -0.4,0.7 0,0.3 -0.3,0.8 -0.7,1.3 -0.7,1 -0.8,1 -1.6,0.8 -0.3,-0.1 -0.4,0 -0.4,0.5 0,0.4 -0.333,0.6 -1,0.6 -0.9,0 -1,0 -1.7,-0.7 v 0 c 0,0 0.1,0.2 0.1,0.2 z"
     fill="#ecebe9" />
  <path
     id="path1150"
     d="m 100.4,34.5 c 0,-0.2 0.2,-0.8 0.2,-1.1 0,-0.4 0.2,-0.7 0.3,-0.7 0.2,0 0,1.7 -0.3,2 -0.133,0.133 -0.2,0.067 -0.2,-0.2 z"
     fill="#ecebe9" />
  <path
     id="path1152"
     d="m 113.9,26.7 c -0.6,-0.5 -1,-1.2 -0.9,-1.6 0.1,-0.6 0.4,-0.8 0.9,-0.8 0.5,0 0.6,0.2 1,0.7 0.6,0.9 0.6,1.1 0.1,1.6 -0.4,0.4 -0.7,0.4 -1.1,0.1 z"
     fill="#ecebe9" />
  <path
     id="CA-PE"
     d="M212.5,191.9s-.8-.1-1.6-.2c-.8,0-1.9-.2-2.5-.4-1.2-.4-1.5-.4-1.8-.4-.7,0-.8-.3-.4-1.3.2-.5.5-.9.7-.9s.6.4,1,.8c.6.6.8.7,1,.5.1-.1.6-.2,1.1-.2s1,0,1.2-.2c.6-.3,2.2-.7,2.3-.6,0,0,0,.4-.2.6-.1.3-.3.8-.3,1.3,0,.7-.3,1.1-.6.9h0l.1.1h0Z"
     fill="#bdb2d8" />
  <path
     id="path1157"
     d="m 176.4,205.2 c -0.2,-0.3 -0.3,-0.8 -0.4,-1.1 0,-0.6 -0.1,-0.6 -0.8,-0.7 -0.7,0 -1.7,0.3 -2.8,1.1 -0.4,0.2 -0.8,0.3 -1.8,0.3 -1,0 -1.3,0 -1.8,-0.6 -0.2,-0.3 -0.6,-0.6 -0.8,-0.6 -0.2,0 -0.8,-0.2 -1.3,-0.6 -0.6,-0.4 -1.2,-0.6 -1.9,-0.6 -1.5,-0.1 -3.2,-0.7 -4.2,-1.4 -0.8,-0.5 -1,-0.9 -1.5,-1.8 -0.3,-0.7 -0.6,-1.7 -0.7,-2.4 0,-0.6 -0.1,-1.4 -0.2,-1.7 -0.1,-0.3 -0.2,-1.3 -0.3,-2.2 -0.1,-0.9 -0.2,-2 -0.3,-2.3 -0.1,-0.3 -0.1,-1 -0.2,-1.4 -0.1,-0.4 -0.3,-2.9 -0.6,-5.5 -0.3,-2.6 -0.6,-4.9 -0.6,-5.1 0,-0.4 0,-0.5 0.5,-0.6 0.5,-0.1 0.6,-0.2 0.4,-0.7 0,-0.4 0,-0.7 0.4,-1.3 0.3,-0.4 0.5,-1 0.5,-1.2 0,-0.2 -0.3,-1.1 -0.7,-2 -0.4,-0.9 -0.8,-1.8 -0.9,-2.2 -0.1,-0.4 -0.3,-0.9 -0.5,-1.1 -0.2,-0.3 -0.3,-0.7 -0.3,-1.3 0,-0.9 -0.4,-1.9 -1.1,-2.3 -0.2,-0.1 -0.3,-0.4 -0.3,-0.7 0,-0.3 -0.2,-0.7 -0.4,-0.9 -0.2,-0.2 -0.4,-0.5 -0.4,-0.6 0,-0.3 0.9,-1 1.9,-1.7 0.5,-0.3 1.1,-0.9 1.5,-1.2 0.4,-0.3 0.9,-1.1 1.4,-1.6 0.5,-0.6 1,-1.4 1.5,-2.5 0.6,-1.5 0.6,-1.8 0.6,-3.1 0,-1.1 -0.2,-1.9 -0.5,-3 -0.3,-0.8 -0.5,-1.7 -0.6,-1.9 -0.2,-0.8 -1.8,-2.5 -2.9,-3.2 -1.4,-0.7 -2.5,-1.8 -2.5,-2.5 0,-0.3 0,-0.8 0.3,-1.2 0.2,-0.4 0.3,-0.8 0.4,-1 0,-0.1 0.2,-0.4 0.4,-0.6 0.3,-0.2 0.4,-0.5 0.4,-1.1 0,-0.6 0.1,-1 0.4,-1.2 0.3,-0.3 0.3,-0.4 0,-1.1 -0.1,-0.4 -0.3,-0.9 -0.3,-1.2 -0.1,-0.6 -0.6,-1.5 -1.1,-2.2 -0.4,-0.5 -0.4,-0.7 -0.4,-2.6 0,-1.9 0,-2.1 -0.2,-2.3 -0.1,-0.2 -0.5,-0.8 -0.8,-1.5 l -0.5,-1.2 0.5,-0.9 c 0.4,-0.9 0.5,-1 1.3,-1.1 1.3,-0.2 2.5,-0.1 3.3,0.1 1,0.4 2.5,0.5 3,0.3 0.3,-0.1 0.8,-0.5 1.2,-0.9 0.4,-0.4 0.8,-0.7 0.9,-0.7 0.3,0 3.8,1.8 4.9,2.6 0.9,0.6 1.1,0.8 1,1.2 0,0.2 0.1,0.6 0.3,0.9 0.3,0.4 0.5,0.5 2.1,0.7 1,0.1 2.2,0.3 2.7,0.5 l 0.9,0.3 v 1 c -0.2,1 -0.1,1.6 0.7,3.9 0.1,0.3 0.2,0.8 0.2,1 0,0.3 0.2,0.7 0.4,1 0.2,0.2 0.6,0.8 0.8,1.3 l 0.4,0.8 h 0.9 c 0.8,-0.2 0.9,-0.2 1.8,0.6 0.5,0.4 1.2,0.9 1.4,0.9 0.2,0 0.5,0.2 0.5,0.3 0,0.3 0.4,0.1 1.1,-0.6 0.6,-0.6 0.8,-1 0.9,-1.5 0,-0.5 0.2,-0.8 0.5,-0.9 0.2,-0.1 0.5,-0.5 0.6,-1 0.3,-0.9 0.2,-2.7 0,-3.3 -0.1,-0.2 -0.2,-0.4 -0.1,-0.5 0,0 0.1,-0.6 0.2,-1.2 0.2,-0.9 0.6,-1.5 0.9,-1.3 0,0 0.2,0.4 0.2,0.8 0.2,0.8 0.9,2.2 1.2,2.2 0.3,0 0.7,1.8 0.6,2.2 -0.1,0.5 0,0.6 1,0.5 h 1 v 1.1 c 0,0.6 -0.1,1.4 -0.2,1.7 -0.1,0.4 -0.1,0.7 0,0.9 0.2,0.4 1.2,1 1.8,1.2 0.6,0.1 0.6,0.3 0.8,2.4 0,0.9 0.2,2.1 0.3,2.6 0.1,0.5 0.3,1.2 0.4,1.5 0,0.4 0.3,0.8 0.7,1 0.5,0.4 1.4,2 1.4,2.5 0,0.5 0.1,0.4 0.3,0.6 0.2,0.2 0.5,0.6 0.6,1 0.2,0.467 0.2,0.967 0,1.5 l -0.4,0.8 h -1 c -0.5,-0.1 -1.2,-0.2 -1.5,-0.3 -0.5,-0.1 -0.6,0 -1,0.5 -0.5,0.7 -0.8,0.8 -1.3,0.4 -0.2,-0.2 -0.8,-0.4 -1.4,-0.5 -1.2,-0.2 -1.3,-0.2 -1.5,0.7 0,0.3 -0.3,0.6 -0.6,0.7 -0.3,0.2 -0.4,0.3 -0.4,0.8 0,0.5 -0.2,0.8 -0.6,1.2 -0.5,0.5 -0.5,0.7 -0.4,1.3 0,0.4 0.2,0.9 0.3,1.2 0.4,0.8 1.5,1.9 2.2,2.2 0.8,0.4 0.9,0.8 0.6,1.8 -0.133,0.4 -0.033,0.733 0.3,1 0.5,0.4 1.1,0.5 2.2,0.1 0.3,-0.1 0.4,0 0.5,0.8 0,0.6 0.3,1.1 0.6,1.4 0.3,0.3 0.5,0.4 1.4,0.3 0.8,-0.1 1.1,0 1.3,0.2 0.2,0.2 0.5,0.3 0.7,0.4 0.8,0.2 2.7,0.2 2.9,0 0.1,0 0.3,-0.5 0.3,-0.9 0.1,-1 0.2,-2.2 0.2,-2.3 0,0 0.3,0.1 0.8,0.3 0.5,0.3 0.9,0.4 1.5,0.3 0.8,-0.1 3.7,-1.1 6.6,-2.3 4.6,-1.8 7.4,-2.8 8.5,-3.1 0.6,-0.2 1.3,-0.4 1.4,-0.5 0.1,-0.1 0.3,-0.1 0.4,0 0.4,0.5 1.3,1.7 1.3,1.7 0,0 -0.5,0.5 -1.1,1 -1.6,1.3 -2.6,2.4 -2.7,3.1 0,0.3 -0.4,1.3 -0.9,2.2 -0.4,0.9 -0.9,1.8 -1,2.1 -0.2,0.6 -3.1,2.1 -4.9,2.7 -0.7,0.2 -2.2,0.6 -3.4,1 -6.9,2 -10.3,3.3 -10.9,4.1 -0.2,0.2 -0.4,0.8 -0.5,1.3 -0.1,0.5 -0.3,1.4 -0.5,2.1 -0.3,1.1 -0.4,1.2 -0.8,1.2 -0.9,0 -2.6,2 -3.2,3.7 -0.2,0.5 -0.6,1.3 -0.9,1.8 -0.3,0.5 -0.6,1.2 -0.7,1.5 -0.2,1.5 -3,5.9 -4.4,7.1 -2,1.6 -4.8,4.5 -4.5,4.8 0.3,0.3 0.8,-0.7 1.6,-1.6 0.8,-0.9 2.1,-2.1 2.7,-2.6 1.1,-0.8 2.3,-2.1 3.2,-3.3 0.7,-1.1 2,-3.7 2,-4 0,-0.3 0,-0.6 0.2,-0.8 0.3,-0.6 2,-2.7 2.7,-3.3 0.3,-0.3 1,-1 1.5,-1.4 0.5,-0.4 1.4,-1.1 2,-1.5 0.6,-0.4 1.7,-1.1 2.4,-1.6 0.9,-0.6 1.7,-1 2.5,-1.2 1.1,-0.3 1.2,-0.3 2.2,0 0.9,0.3 1.1,0.4 1.4,0.9 0.7,1.4 0.6,2.3 -0.4,3.5 -1,1.2 -1.4,1.5 -2.4,1.6 -2.1,0.2 -3.8,0.7 -4.3,1.2 -0.7,0.7 -1.3,0.9 -2.7,0.9 -1.7,0 -1.8,0.2 -1.6,2 v 1.5 c 0.1,0 -0.6,0.1 -0.6,0.1 h -1.2 c -0.4,0 -0.6,0 -0.8,0.3 -0.4,0.5 -1.1,3 -1.3,4.1 0,0.4 -0.2,1.3 -0.3,2 -0.1,0.7 -0.2,1.5 -0.2,1.9 -0.1,1.4 -0.7,2.6 -1.4,3.1 -0.4,0.2 -0.8,0.7 -1.1,1 -0.2,0.3 -0.6,0.6 -0.8,0.7 -0.2,0 -1.7,0.4 -3.3,0.7 -1.6,0.3 -3.3,0.6 -3.8,0.6 -0.8,0 -1,0 -1.2,-0.5 z"
     fill="#424d8b" />
  <path
     id="path1159"
     d="m 205.6,177.8 c -0.2,0 -0.6,-0.2 -0.9,-0.4 -0.2,-0.2 -0.9,-0.4 -1.5,-0.5 -1.3,-0.3 -1.5,-0.7 -0.8,-1.4 0.4,-0.3 0.8,-0.4 1.7,-0.4 2.5,0 3.3,0 5,0.6 1.6,0.6 1.7,0.6 1.7,1.1 0,0.5 0,0.7 -2.1,0.9 -2.2,0.2 -2.7,0.2 -3.2,0.1 z"
     fill="#424d8b" />
  <path
     id="CA-SK"
     d="M90.6,189.7s-.7-.1-1.5-.2c-.8,0-1.6-.1-1.9-.2-.2,0-1-.1-1.6-.2-.6,0-1.4-.1-1.6-.2-.2,0-1-.1-1.6-.2-.6,0-3.1-.6-5.5-1.1-2.4-.6-4.5-1-4.7-1-.8-.2-1.3-.3-2.3-.5-.6-.1-1.3-.3-1.5-.3s-1-.2-1.8-.4c-1.1-.2-1.4-.4-1.3-.6,0-.3,1.5-6.1,1.6-6.6,0-.1.3-1.3.6-2.6.3-1.3.8-3.5,1.2-5s1-4.3,1.5-6.4.9-3.8,1-4,.3-1.4.6-2.6c.3-1.2.9-3.8,1.4-5.6.4-1.9,1.1-4.5,1.4-5.9s.9-3.7,1.3-5.2l.7-2.7h.9c.5.1,1.3.2,1.8.3s1.5,0,2.3,0c1.3-.2,1.5-.1,2.5.3,1,.4,1.5.5,1.5.1s-3.8-2.1-4.7-2.3c-.4-.1-.9-.2-1.1-.2s-.6-.2-.8-.4c-.4-.4-.9-.5-1.5-.2-.267.133-.3-.233-.1-1.1.2-.7.2-.9.5-.8.3,0,1.5.3,2.7.6.2,0,.6.1.8.2.6.1,8,1.6,8.5,1.6.2,0,1.4.3,2.6.5s2.5.5,2.9.5c.467,0,.7.233.7.7,0,.3-.2,2.1-.5,3.9-.3,1.8-.5,3.7-.6,4.2-.1.9-.3,1.3-.6,1.3s-1.3,1.2-1.6,1.8c-.2.4-.2.7,0,1.1.4,1.3.3,1.9-.3,2.5-.4.4-.5.7-.4.8.1.2.3.2.7-.2.3-.3.7-.5.8-.5.3,0,.3.6,0,4.1,0,.5-.1,1.7-.2,2.6,0,.9-.1,2-.2,2.4,0,.4-.1,1.6-.2,2.6,0,1-.1,2.1-.2,2.4,0,.3-.1,1.5-.2,2.6,0,1.1-.1,2.2-.2,2.4,0,.2-.1,1.4-.2,2.6,0,1.2-.1,2.3-.2,2.4,0,.1-.1,1.3-.2,2.5,0,1.2-.1,2.4-.2,2.5,0,.1-.1,1.3-.2,2.5,0,1.2-.2,2.4-.2,2.6v1.5c0,1.1-.2,1.4-.5,1.1h-.1Z"
     fill="#bdb2d8" />
  <path
     id="CA-YT"
     d="M44.2,122c-.2-.1-1-.5-1.7-.8-1.1-.5-5-2.5-11.4-5.9-2-1.1-9.5-5.7-15-9.3-1.9-1.3-2.8-1.9-2.8-2.2,0-.4.6-1.3,1.1-1.8,1-.8.4-1.3-1.6-1.4-.4,0-.6-.1-.7-.4,0-.2-.2-.3-.2-.3-.3,0-1-.2-1.1-.6,0-.3.3-1,1.7-3,2.5-3.6,7-10.4,10.5-15.6,2.8-4.2,6.4-9.5,11.3-16.8l2.2-3.3.6.2c1.2.4,1.5.8,1.6,1.9,0,.6.3,1.4.5,1.9s.5,1.1.5,1.5c0,.5.3.9.8,1.3.467.4.633.733.5,1-.4.4-2.2,3.4-2.6,4.3-.2.4-.5,1.2-.7,1.7s-.5,1.3-.7,1.8c-.8,1.6-.8,1.5,1.1,2.9,1.3,1,1.7,1.4,1.7,1.7s-.3,1-.6,1.6c-.4.8-.7,1.6-.7,2.2,0,.667.2,1.167.6,1.5.7.5.7.4.5,2.5,0,0-.2.2-.5.2-.6.1-1.1.8-1.1,1.3s-.2.6-.4,1c-.4.7-.3,1.3.2,1.7.2.2.2.4.2,1,0,.5,0,.8.3,1.3.3.4.4.8.4,1.6,0,.6.2,1.3.3,1.6.3.6.3.7,0,1.9-.5,1.6-.7,2.9-.8,4.6,0,.8-.2,1.6-.3,1.9-.2.5-.1.6.2,1,.6.6.8,1,1.1,2.4.2.6.5,1.6.8,2.1.4.7.4,1,.3,1s-.3.5-.3,1-.1,1.1-.2,1.4c-.2.6,0,.8,1.5,1.5.5.2,1.3.7,1.7.9s.9.5,1.2.5h.5v1.9c0,1-.1,1.9-.2,1.9,0,0-.2,0-.4-.2h0s.1-.1.1-.1Z"
     fill="#ecebe9" />
  <circle
     id="DC2"
     cx="172.4"
     cy="236.3"
     r=".9"
     fill="#d3d3d3"
     stroke="#fff"
     stroke-miterlimit="3" />
  <g
     isolation="isolate"
     id="g6">
    <g
       isolation="isolate"
       id="g5">
      <text
         transform="translate(131.5,184.9)"
         fill="#ffffff"
         font-family="OpenSans-BoldItalic, 'Open Sans'"
         font-size="8px"
         font-style="italic"
         font-weight="700"
         isolation="isolate"
         id="text4"><tspan
           x="0"
           y="0"
           id="tspan4">128</tspan></text>
    </g>
  </g>
  <g
     isolation="isolate"
     id="g9">
    <g
       isolation="isolate"
       id="g8">
      <text
         transform="translate(28.6,148.7)"
         fill="#ffffff"
         font-family="OpenSans-BoldItalic, 'Open Sans'"
         font-size="8px"
         font-style="italic"
         font-weight="700"
         isolation="isolate"
         id="text7"><tspan
           x="0"
           y="0"
           id="tspan7">71</tspan></text>
    </g>
  </g>
  <g
     isolation="isolate"
     id="g12">
    <g
       isolation="isolate"
       id="g11">
      <text
         transform="translate(55.5,155.8)"
         fill="#ffffff"
         font-family="OpenSans-BoldItalic, 'Open Sans'"
         font-size="8px"
         font-style="italic"
         font-weight="700"
         isolation="isolate"
         id="text10"><tspan
           x="0"
           y="0"
           id="tspan10">30</tspan></text>
    </g>
  </g>
  <g
     isolation="isolate"
     id="g14">
    <g
       isolation="isolate"
       id="g13">
      <text
         transform="translate(102,164.3)"
         fill="#ffffff"
         font-family="OpenSans-BoldItalic, 'Open Sans'"
         font-size="8px"
         font-style="italic"
         font-weight="700"
         isolation="isolate"
         id="text12"><tspan
           x="0"
           y="0"
           id="tspan12">17</tspan></text>
    </g>
  </g>
  <g
     isolation="isolate"
     id="g17">
    <g
       isolation="isolate"
       id="g16">
      <text
         transform="translate(80.4,164.3)"
         fill="#ffffff"
         font-family="OpenSans-BoldItalic, 'Open Sans'"
         font-size="8px"
         font-style="italic"
         font-weight="700"
         isolation="isolate"
         id="text15"><tspan
           x="0"
           y="0"
           id="tspan15">4</tspan></text>
    </g>
  </g>
  <g
     isolation="isolate"
     id="g19">
    <g
       isolation="isolate"
       id="g18">
      <text
         transform="translate(212.7,157.5)"
         fill="#ffffff"
         font-family="OpenSans-BoldItalic, 'Open Sans'"
         font-size="8px"
         font-style="italic"
         font-weight="700"
         isolation="isolate"
         id="text17"><tspan
           x="0"
           y="0"
           id="tspan17">3</tspan></text>
    </g>
  </g>
  <g
     isolation="isolate"
     id="g21">
    <g
       isolation="isolate"
       id="g20">
      <text
         transform="translate(196.6,195.8)"
         fill="#ffffff"
         font-family="OpenSans-BoldItalic, 'Open Sans'"
         font-size="8px"
         font-style="italic"
         font-weight="700"
         isolation="isolate"
         id="text19"><tspan
           x="0"
           y="0"
           id="tspan19">22</tspan></text>
    </g>
  </g>
  <g
     isolation="isolate"
     id="g24">
    <g
       isolation="isolate"
       id="g23">
      <text
         transform="translate(209.2,200.6)"
         fill="#7773b2"
         font-family="OpenSans-BoldItalic, 'Open Sans'"
         font-size="8px"
         font-style="italic"
         font-weight="700"
         isolation="isolate"
         id="text22"><tspan
           x="0"
           y="0"
           id="tspan22">20</tspan></text>
    </g>
  </g>
  <g
     isolation="isolate"
     id="g26">
    <g
       isolation="isolate"
       id="g25">
      <text
         transform="translate(209.2,200.6)"
         fill="none"
         font-family="OpenSans-BoldItalic, 'Open Sans'"
         font-size="8px"
         font-style="italic"
         font-weight="700"
         isolation="isolate"
         stroke="#7773b2"
         stroke-miterlimit="7.5"
         stroke-width="0.7"
         id="text24"><tspan
           x="0"
           y="0"
           id="tspan24">20</tspan></text>
    </g>
  </g>
  <g
     isolation="isolate"
     id="g28">
    <g
       isolation="isolate"
       id="g27">
      <text
         transform="translate(173.8,176.7)"
         fill="#ffffff"
         font-family="OpenSans-BoldItalic, 'Open Sans'"
         font-size="8px"
         font-style="italic"
         font-weight="700"
         isolation="isolate"
         id="text26"><tspan
           x="0"
           y="0"
           id="tspan26">46</tspan></text>
    </g>
  </g>
  <g
     isolation="isolate"
     id="g30">
    <g
       isolation="isolate"
       id="g29">
      <text
         transform="translate(209.2,200.6)"
         fill="#ffffff"
         font-family="OpenSans-BoldItalic, 'Open Sans'"
         font-size="8px"
         font-style="italic"
         font-weight="700"
         isolation="isolate"
         id="text28"><tspan
           x="0"
           y="0"
           id="tspan28">20</tspan></text>
    </g>
  </g>
  <g
     isolation="isolate"
     id="g33">
    <g
       isolation="isolate"
       id="g32">
      <text
         transform="translate(208.8,190.7)"
         fill="#bdb2d8"
         font-family="OpenSans-BoldItalic, 'Open Sans'"
         font-size="8px"
         font-style="italic"
         font-weight="700"
         isolation="isolate"
         id="text31"><tspan
           x="0"
           y="0"
           id="tspan31">2</tspan></text>
    </g>
  </g>
  <g
     isolation="isolate"
     id="g35">
    <g
       isolation="isolate"
       id="g34">
      <text
         transform="translate(208.8,190.7)"
         fill="none"
         font-family="OpenSans-BoldItalic, 'Open Sans'"
         font-size="8px"
         font-style="italic"
         font-weight="700"
         isolation="isolate"
         stroke="#bdb2d8"
         stroke-miterlimit="7.5"
         id="text33"><tspan
           x="0"
           y="0"
           id="tspan33">2</tspan></text>
    </g>
  </g>
  <g
     isolation="isolate"
     id="g37">
    <g
       isolation="isolate"
       id="g36">
      <text
         transform="translate(208.8,190.7)"
         fill="#ffffff"
         font-family="OpenSans-BoldItalic, 'Open Sans'"
         font-size="8px"
         font-style="italic"
         font-weight="700"
         isolation="isolate"
         id="text35"><tspan
           x="0"
           y="0"
           id="tspan35">2</tspan></text>
    </g>
  </g>
  <g
     isolation="isolate"
     id="g40">
    <g
       isolation="isolate"
       id="g39">
      <text
         transform="translate(14.1,208.5)"
         fill="#999999"
         font-family="OpenSans, 'Open Sans'"
         font-size="8px"
         isolation="isolate"
         id="text38"><tspan
           x="0"
           y="0"
           id="tspan38">*Based on data from Canada</tspan></text>
    </g>
  </g>
  <g
     isolation="isolate"
     id="g42">
    <g
       isolation="isolate"
       id="g41">
      <text
         transform="translate(14.1,218.5)"
         fill="#999999"
         font-family="OpenSans, 'Open Sans'"
         font-size="8px"
         isolation="isolate"
         id="text40"><tspan
           x="0"
           y="0"
           id="tspan40">Business Grants; may not be a</tspan></text>
    </g>
  </g>
  <g
     isolation="isolate"
     id="g44">
    <g
       isolation="isolate"
       id="g43">
      <text
         transform="translate(14.1,228.5)"
         fill="#999999"
         font-family="OpenSans, 'Open Sans'"
         font-size="8px"
         isolation="isolate"
         id="text42"><tspan
           x="0"
           y="0"
           id="tspan42">comprehensive count of all BIAs.</tspan></text>
    </g>
  </g>
  <path
     id="path37-2"
     d="M0,.5h244.8"
     fill="none"
     stroke="#f1c500"
     stroke-miterlimit="2.2"
     stroke-width=".5" />
  <path
     id="path37-2-9"
     d="M0,244.3h244.8"
     fill="none"
     stroke="#f1c500"
     stroke-miterlimit="2.2"
     stroke-width=".5" />
  <rect
     id="rect75"
     y="14.4"
     width="14.4"
     height="14.4"
     fill="#f1c500" />
  <g
     isolation="isolate"
     id="g47">
    <g
       isolation="isolate"
       id="g46">
      <text
         transform="translate(21,27.711)"
         font-family="TradeGothicLT-Bold, 'TradeGothic LT Bold'"
         font-size="17px"
         font-weight="700"
         isolation="isolate"
         id="text45"><tspan
           x="0"
           y="0"
           id="tspan45">There are 343+ Business</tspan></text>
    </g>
  </g>
  <g
     isolation="isolate"
     id="g49"
     transform="translate(0,-4.0874904)">
    <g
       isolation="isolate"
       id="g48">
      <text
         transform="translate(21,52.711)"
         font-family="TradeGothicLT-Bold, 'TradeGothic LT Bold'"
         font-size="17px"
         font-weight="700"
         isolation="isolate"
         id="text47"><tspan
           x="0"
           y="0"
           id="tspan47">Improvement Areas (BIAs)</tspan></text>
    </g>
  </g>
  <g
     isolation="isolate"
     id="g51"
     transform="translate(0,-7.6670318)">
    <g
       isolation="isolate"
       id="g50">
      <text
         transform="translate(21,77.711)"
         font-family="TradeGothicLT-Bold, 'TradeGothic LT Bold'"
         font-size="17px"
         font-weight="700"
         isolation="isolate"
         id="text49"><tspan
           x="0"
           y="0"
           id="tspan49">across Canada*</tspan></text>
    </g>
  </g>
</svg>
