<?xml version="1.0" encoding="UTF-8"?>
<svg xmlns="http://www.w3.org/2000/svg" width="6.8in" height="4.9in" viewBox="0 0 489.6 352.8">
  <g id="Layer_6" data-name="Layer 6">
    <path d="M23.374,314.41h221.138c1.278,0,2.315-.967,2.315-2.16V46.711c0-1.193-1.036-2.16-2.315-2.16H23.374c-1.278,0-2.315.967-2.315,2.16v265.538c0,1.193,1.036,2.16,2.315,2.16Z" fill="#ab2069" isolation="isolate" stroke="#fff" stroke-miterlimit="10" stroke-width="1.035"/>
    <path d="M249.141,113.679h174.068c1.278,0,2.315-.967,2.315-2.16V46.711c0-1.193-1.036-2.16-2.315-2.16h-174.068c-1.278,0-2.315.967-2.315,2.16v64.808c0,1.193,1.036,2.16,2.315,2.16Z" fill="#12223d" isolation="isolate" stroke="#fff" stroke-miterlimit="10" stroke-width="1.035"/>
    <path d="M249.141,314.41h83.492c1.278,0,2.315-.967,2.315-2.16v-61.246c0-1.193-1.036-2.16-2.315-2.16h-83.492c-1.278,0-2.315.967-2.315,2.16v61.246c0,1.193,1.036,2.16,2.315,2.16Z" fill="#00a28a" isolation="isolate" opacity=".9" stroke="#fff" stroke-miterlimit="10" stroke-width="1.035"/>
    <path d="M337.262,314.41h111.058c1.278,0,2.315-.967,2.315-2.16v-61.246c0-1.193-1.036-2.16-2.315-2.16h-111.058c-1.278,0-2.315.967-2.315,2.16v61.246c0,1.193,1.036,2.16,2.315,2.16Z" fill="#dc4732" isolation="isolate" opacity=".9" stroke="#fff" stroke-miterlimit="10" stroke-width="1.035"/>
    <path d="M249.141,248.843h199.179c1.278,0,2.315-.967,2.315-2.16v-26.874c0-1.193-1.036-2.16-2.315-2.16h-199.179c-1.278,0-2.315.967-2.315,2.16v26.874c0,1.193,1.036,2.16,2.315,2.16Z" fill="#30599f" isolation="isolate" opacity=".9" stroke="#fff" stroke-miterlimit="10" stroke-width="1.035"/>
    <path d="M249.141,217.649h199.179c1.278,0,2.315-.967,2.315-2.16v-99.65c0-1.193-1.036-2.16-2.315-2.16h-199.179c-1.278,0-2.315.967-2.315,2.16v99.65c0,1.193,1.036,2.16,2.315,2.16Z" fill="#244378" isolation="isolate" stroke="#fff" stroke-miterlimit="10" stroke-width="1.035"/>
    <path d="M427.838,113.679h20.482c1.278,0,2.315-.967,2.315-2.16v-6.43c0-1.193-1.036-2.16-2.315-2.16h-20.482c-1.278,0-2.315.967-2.315,2.16v6.43c0,1.193,1.036,2.16,2.315,2.16Z" fill="#efc419" isolation="isolate" opacity=".9" stroke="#fff" stroke-miterlimit="10" stroke-width="1.035"/>
    <path d="M427.838,102.929h20.482c1.278,0,2.315-.967,2.315-2.16v-54.058c0-1.193-1.036-2.16-2.315-2.16h-20.482c-1.278,0-2.315.967-2.315,2.16v54.058c0,1.193,1.036,2.16,2.315,2.16Z" fill="#999" isolation="isolate" opacity=".9" stroke="#fff" stroke-miterlimit="10" stroke-width="1.035"/>
  </g>
  <g id="Layer_1" data-name="Layer 1">
    <g id="text49" isolation="isolate">
      <text transform="translate(21.06 27.711) rotate(.17)" font-family="TradeGothicLT-Bold, &apos;TradeGothic LT Bold&apos;" font-size="17" font-weight="700" isolation="isolate"><tspan x="0" y="0">Housing typologies of Canada</tspan></text>
    </g>
    <g id="text51" isolation="isolate">
      <text transform="translate(21.6 338.116)" fill="#999" font-family="OpenSans, &apos;Open Sans&apos;" font-size="8" isolation="isolate"><tspan x="0" y="0">Data source: Statistics Canada (2021) Census</tspan></text>
    </g>
    <rect id="rect72" x="0" y="14.4" width="14.4" height="14.4" fill="#f1c500"/>
    <path id="path37" d="M0,352.3h489.6" fill="none" stroke="#f1c500" stroke-miterlimit="2.25" stroke-width=".5"/>
    <path id="path37-2" d="M0,.5h489.6" fill="none" stroke="#f1c500" stroke-miterlimit="2.25" stroke-width=".5"/>
    <text transform="translate(77.774 161.394)" fill="#fff" font-family="OpenSans-Bold, &apos;Open Sans&apos;" font-size="10" font-weight="700"><tspan x="0" y="0">Single-detached house</tspan></text>
    <text transform="translate(302.255 58.404)" fill="#fff" font-family="OpenSans-Bold, &apos;Open Sans&apos;" font-size="12.546" font-weight="700"><tspan x="0" y="0">Apartment </tspan></text>
    <text transform="translate(465.584 43.871) rotate(90)" fill="#999" font-family="OpenSans-Bold, &apos;Open Sans&apos;" font-size="10" font-weight="700" isolation="isolate" opacity=".9"><tspan x="0" y="0">Movable</tspan><tspan x=".232" y="12">dwelling</tspan></text>
    <text transform="translate(270.587 231.18)" fill="#fff" font-family="OpenSans-Bold, &apos;Open Sans&apos;" font-size="10" font-weight="700"><tspan x="0" y="0">Apartment or flat</tspan><tspan x="33.188" y="12">in a duplex</tspan></text>
    <text transform="translate(253.851 266.404)" fill="#fff" font-family="OpenSans-Bold, &apos;Open Sans&apos;" font-size="10" font-weight="700"><tspan x="0" y="0">Semi-detached</tspan><tspan x="21.929" y="12">house</tspan></text>
    <text transform="translate(78.047 197.567)" fill="#fff" font-family="OpenSans-Bold, &apos;Open Sans&apos;" font-size="38.531" font-weight="700"><tspan x="0" y="0">52.6%</tspan></text>
    <text transform="translate(300.175 104.405)" fill="#fff" font-family="OpenSans-Bold, &apos;Open Sans&apos;" font-size="35.217" font-weight="700"><tspan x="0" y="0">11%</tspan></text>
    <text transform="translate(427.279 53.46)" fill="#fff" font-family="OpenSans-Bold, &apos;Open Sans&apos;" font-size="9.272" font-weight="700"><tspan x="0" y="0">1.3%</tspan></text>
    <text transform="translate(427.279 111.682)" fill="#fff" font-family="OpenSans-Bold, &apos;Open Sans&apos;" font-size="9.272" font-weight="700"><tspan x="0" y="0">0.2%</tspan></text>
    <text transform="translate(273.425 302.404)" fill="#fff" font-family="OpenSans-Bold, &apos;Open Sans&apos;" font-size="23.715" font-weight="700"><tspan x="0" y="0">5%</tspan></text>
    <text transform="translate(365.425 243.086)" fill="#fff" font-family="OpenSans-Bold, &apos;Open Sans&apos;" font-size="27.189" font-weight="700"><tspan x="0" y="0">5.5%</tspan></text>
    <text transform="translate(365.708 273.604)" fill="#fff" font-family="OpenSans-Bold, &apos;Open Sans&apos;" font-size="10" font-weight="700"><tspan x="0" y="0">Row house</tspan></text>
    <text transform="translate(365.168 294.668)" fill="#fff" font-family="OpenSans-Bold, &apos;Open Sans&apos;" font-size="23.715" font-weight="700"><tspan x="0" y="0">6.5%</tspan></text>
    <text transform="translate(453.584 102.332) rotate(90)" fill="#efc419" font-family="OpenSans-Bold, &apos;Open Sans&apos;" font-size="10" font-weight="700"><tspan x="0" y="0">Other</tspan></text>
    <text transform="translate(266.26 70.404)" fill="#fff" font-family="OpenSans-Bold, &apos;Open Sans&apos;" font-size="10" font-weight="700"><tspan x="0" y="0">in a building with ≥5 storeys</tspan></text>
    <text transform="translate(312.731 154.361)" fill="#fff" font-family="OpenSans-Bold, &apos;Open Sans&apos;" font-size="12.546" font-weight="700"><tspan x="0" y="0">Apartment </tspan></text>
    <text transform="translate(315.507 200.362)" fill="#fff" font-family="OpenSans-Bold, &apos;Open Sans&apos;" font-size="35.217" font-weight="700"><tspan x="0" y="0">18%</tspan></text>
    <text transform="translate(278.816 166.361)" fill="#fff" font-family="OpenSans-Bold, &apos;Open Sans&apos;" font-size="10" font-weight="700"><tspan x="0" y="0">in a building with &lt;5 storeys</tspan></text>
  </g>
</svg>