<?xml version="1.0" encoding="UTF-8" standalone="no"?>
<svg
   width="6.8in"
   height="4.9in"
   viewBox="0 0 489.6 352.8"
   version="1.1"
   id="svg30"
   sodipodi:docname="housing_typology-tree-map.svg"
   inkscape:version="1.4.2 (1:1.4.2+202505120738+ebf0e940d0)"
   inkscape:export-filename="housing_typology-tree-map.png"
   inkscape:export-xdpi="300"
   inkscape:export-ydpi="300"
   xmlns:inkscape="http://www.inkscape.org/namespaces/inkscape"
   xmlns:sodipodi="http://sodipodi.sourceforge.net/DTD/sodipodi-0.dtd"
   xmlns="http://www.w3.org/2000/svg"
   xmlns:svg="http://www.w3.org/2000/svg">
  <defs
     id="defs30" />
  <sodipodi:namedview
     id="namedview30"
     pagecolor="#ffffff"
     bordercolor="#666666"
     borderopacity="1.0"
     inkscape:showpageshadow="2"
     inkscape:pageopacity="0.0"
     inkscape:pagecheckerboard="0"
     inkscape:deskcolor="#d1d1d1"
     inkscape:document-units="in"
     showgrid="false"
     inkscape:zoom="1.6815476"
     inkscape:cx="413.30974"
     inkscape:cy="168.59469"
     inkscape:window-width="1920"
     inkscape:window-height="1016"
     inkscape:window-x="0"
     inkscape:window-y="0"
     inkscape:window-maximized="1"
     inkscape:current-layer="Layer_1">
    <inkscape:grid
       id="grid30"
       units="in"
       originx="0"
       originy="0"
       spacingx="7.1999995"
       spacingy="7.1999995"
       empcolor="#0099e5"
       empopacity="0.30196078"
       color="#0099e5"
       opacity="0.14901961"
       empspacing="5"
       enabled="true"
       visible="false" />
  </sodipodi:namedview>
  <rect
     style="fill:#ffffff;fill-opacity:1;fill-rule:evenodd;stroke-width:1.44;stroke-linecap:round;stroke-dasharray:2.88, 1.44;paint-order:markers fill stroke;stroke:none"
     id="rect31"
     width="489.60001"
     height="352.29999"
     x="0"
     y="0.49999997" />
  <g
     id="Layer_6"
     data-name="Layer 6">
    <path
       d="M23.374,314.41h221.138c1.278,0,2.315-.967,2.315-2.16V46.711c0-1.193-1.036-2.16-2.315-2.16H23.374c-1.278,0-2.315.967-2.315,2.16v265.538c0,1.193,1.036,2.16,2.315,2.16Z"
       fill="#ab2069"
       isolation="isolate"
       stroke="#fff"
       stroke-miterlimit="10"
       stroke-width="1.035"
       id="path1"
       style="fill:#dc4732;fill-opacity:0.90196079" />
    <path
       d="M249.141,113.679h174.068c1.278,0,2.315-.967,2.315-2.16V46.711c0-1.193-1.036-2.16-2.315-2.16h-174.068c-1.278,0-2.315.967-2.315,2.16v64.808c0,1.193,1.036,2.16,2.315,2.16Z"
       fill="#056c8a"
       isolation="isolate"
       stroke="#fff"
       stroke-miterlimit="10"
       stroke-width="1.035"
       id="path2" />
    <path
       d="M249.141,314.41h83.492c1.278,0,2.315-.967,2.315-2.16v-61.246c0-1.193-1.036-2.16-2.315-2.16h-83.492c-1.278,0-2.315.967-2.315,2.16v61.246c0,1.193,1.036,2.16,2.315,2.16Z"
       fill="#00a28a"
       isolation="isolate"
       opacity=".9"
       stroke="#fff"
       stroke-miterlimit="10"
       stroke-width="1.035"
       id="path3"
       style="fill:#ab2069;fill-opacity:1" />
    <path
       d="M337.262,314.41h111.058c1.278,0,2.315-.967,2.315-2.16v-61.246c0-1.193-1.036-2.16-2.315-2.16h-111.058c-1.278,0-2.315.967-2.315,2.16v61.246c0,1.193,1.036,2.16,2.315,2.16Z"
       fill="#dc4732"
       isolation="isolate"
       opacity=".9"
       stroke="#fff"
       stroke-miterlimit="10"
       stroke-width="1.035"
       id="path4"
       style="fill:#00a289;fill-opacity:0.90196079" />
    <path
       d="M249.141,248.843h199.179c1.278,0,2.315-.967,2.315-2.16v-26.874c0-1.193-1.036-2.16-2.315-2.16h-199.179c-1.278,0-2.315.967-2.315,2.16v26.874c0,1.193,1.036,2.16,2.315,2.16Z"
       fill="#0792bc"
       isolation="isolate"
       opacity=".9"
       stroke="#fff"
       stroke-miterlimit="10"
       stroke-width="1.035"
       id="path5" />
    <path
       d="M249.141,217.649h199.179c1.278,0,2.315-.967,2.315-2.16v-99.65c0-1.193-1.036-2.16-2.315-2.16h-199.179c-1.278,0-2.315.967-2.315,2.16v99.65c0,1.193,1.036,2.16,2.315,2.16Z"
       fill="#067fa3"
       isolation="isolate"
       stroke="#fff"
       stroke-miterlimit="10"
       stroke-width="1.035"
       id="path6" />
    <path
       d="M427.838,113.679h20.482c1.278,0,2.315-.967,2.315-2.16v-6.43c0-1.193-1.036-2.16-2.315-2.16h-20.482c-1.278,0-2.315.967-2.315,2.16v6.43c0,1.193,1.036,2.16,2.315,2.16Z"
       fill="#efc419"
       isolation="isolate"
       opacity=".9"
       stroke="#fff"
       stroke-miterlimit="10"
       stroke-width="1.035"
       id="path7" />
    <path
       d="M427.838,102.929h20.482c1.278,0,2.315-.967,2.315-2.16v-54.058c0-1.193-1.036-2.16-2.315-2.16h-20.482c-1.278,0-2.315.967-2.315,2.16v54.058c0,1.193,1.036,2.16,2.315,2.16Z"
       fill="#999"
       isolation="isolate"
       opacity=".9"
       stroke="#fff"
       stroke-miterlimit="10"
       stroke-width="1.035"
       id="path8" />
  </g>
  <g
     id="Layer_1"
     data-name="Layer 1">
    <g
       id="text49"
       isolation="isolate">
      <text
         transform="rotate(0.17,-9336.776,7103.709)"
         font-family="TradeGothicLT-Bold, 'TradeGothic LT Bold'"
         font-size="17px"
         font-weight="700"
         isolation="isolate"
         id="text8"><tspan
           x="0"
           y="0"
           id="tspan8">Distribution of types of housing across Canada in 2021</tspan></text>
    </g>
    <g
       id="text51"
       isolation="isolate">
      <text
         transform="translate(21.6 338.116)"
         fill="#999"
         font-family="OpenSans, 'Open Sans'"
         font-size="8"
         isolation="isolate"
         id="text9"><tspan
           x="0"
           y="0"
           id="tspan9">Data source: Statistics Canada (2021) Census</tspan></text>
    </g>
    <rect
       id="rect72"
       x="0"
       y="14.4"
       width="14.4"
       height="14.4"
       fill="#f1c500" />
    <path
       id="path37"
       d="M0,352.3h489.6"
       fill="none"
       stroke="#f1c500"
       stroke-miterlimit="2.25"
       stroke-width=".5" />
    <path
       id="path37-2"
       d="M0,.5h489.6"
       fill="none"
       stroke="#f1c500"
       stroke-miterlimit="2.25"
       stroke-width=".5" />
    <text
       fill="#fff"
       font-family="OpenSans-Bold, 'Open Sans'"
       font-size="10"
       font-weight="700"
       id="text10"
       transform="translate(77.774 161.394)"><tspan
         x="0"
         y="0"
         id="tspan10">Single-detached house</tspan></text>
    <text
       fill="#ffffff"
       font-family="OpenSans-Bold, 'Open Sans'"
       font-size="12.546px"
       font-weight="700"
       id="text11"
       x="276.80731"
       y="61.041744"
       style="font-size:10px"><tspan
         x="276.80731"
         y="61.041744"
         id="tspan11"
         style="font-size:10px">Apartment in a building</tspan></text>
    <text
       transform="rotate(90)"
       fill="#999999"
       font-family="OpenSans-Bold, 'Open Sans'"
       font-size="10px"
       font-weight="700"
       isolation="isolate"
       opacity="0.9"
       id="text13"
       x="44.42852"
       y="-465.58401"><tspan
         x="44.42852"
         y="-465.58401"
         id="tspan12">Movable</tspan><tspan
         x="44.660522"
         y="-453.58401"
         id="tspan13">dwelling</tspan></text>
    <text
       transform="translate(270.587 231.18)"
       fill="#fff"
       font-family="OpenSans-Bold, 'Open Sans'"
       font-size="10"
       font-weight="700"
       id="text15"><tspan
         x="0"
         y="0"
         id="tspan14">Apartment or flat</tspan><tspan
         x="33.188"
         y="12"
         id="tspan15">in a duplex</tspan></text>
    <text
       transform="translate(253.851 266.404)"
       fill="#fff"
       font-family="OpenSans-Bold, 'Open Sans'"
       font-size="10"
       font-weight="700"
       id="text17"><tspan
         x="0"
         y="0"
         id="tspan16">Semi-detached</tspan><tspan
         x="21.929"
         y="12"
         id="tspan17">house</tspan></text>
    <text
       transform="translate(78.047,197.567)"
       fill="#ffffff"
       font-family="OpenSans-Bold, 'Open Sans'"
       font-size="38.531px"
       font-weight="700"
       id="text18"><tspan
         x="0"
         y="0"
         id="tspan18">52.6%</tspan></text>
    <text
       fill="#ffffff"
       font-family="OpenSans-Bold, 'Open Sans'"
       font-size="35.217px"
       font-weight="700"
       id="text19"
       x="295.20038"
       y="99.417732"
       style="font-size:28px"><tspan
         x="295.20038"
         y="99.417732"
         id="tspan19"
         style="font-size:28px">11.0%</tspan></text>
    <text
       transform="translate(427.279 53.46)"
       fill="#fff"
       font-family="OpenSans-Bold, 'Open Sans'"
       font-size="9.272"
       font-weight="700"
       id="text20"><tspan
         x="0"
         y="0"
         id="tspan20">1.3%</tspan></text>
    <text
       transform="translate(427.279 111.682)"
       fill="#fff"
       font-family="OpenSans-Bold, 'Open Sans'"
       font-size="9.272"
       font-weight="700"
       id="text21"><tspan
         x="0"
         y="0"
         id="tspan21">0.2%</tspan></text>
    <text
       fill="#ffffff"
       font-family="OpenSans-Bold, 'Open Sans'"
       font-size="23.715px"
       font-weight="700"
       id="text22"
       x="269.56161"
       y="299.05887"
       style="font-size:21px"><tspan
         x="269.56161"
         y="299.05887"
         id="tspan22"
         style="font-size:21px">5.0%</tspan></text>
    <text
       fill="#ffffff"
       font-family="OpenSans-Bold, 'Open Sans'"
       font-size="27.189"
       font-weight="700"
       id="text23"
       style="font-size:23px"
       x="365.42499"
       y="242.73126"><tspan
         x="365.42499"
         y="242.73126"
         id="tspan23"
         style="font-size:23px">5.5%</tspan></text>
    <text
       transform="translate(365.708 273.604)"
       fill="#fff"
       font-family="OpenSans-Bold, 'Open Sans'"
       font-size="10"
       font-weight="700"
       id="text24"><tspan
         x="0"
         y="0"
         id="tspan24">Row house</tspan></text>
    <text
       fill="#ffffff"
       font-family="OpenSans-Bold, 'Open Sans'"
       font-size="23.715px"
       font-weight="700"
       id="text25"
       x="365.168"
       y="295.67419"
       style="font-size:24px"><tspan
         x="365.168"
         y="295.67419"
         id="tspan25"
         style="font-size:24px">6.5%</tspan></text>
    <text
       transform="rotate(90)"
       fill="#efc419"
       font-family="OpenSans-Bold, 'Open Sans'"
       font-size="10px"
       font-weight="700"
       id="text26"
       x="102.86545"
       y="-453.58401"><tspan
         x="102.86545"
         y="-453.58401"
         id="tspan26">Other</tspan></text>
    <text
       fill="#ffffff"
       font-family="OpenSans-Bold, 'Open Sans'"
       font-size="10px"
       font-weight="700"
       id="text27"
       x="298.64325"
       y="73.04174"><tspan
         x="298.64325"
         y="73.04174"
         id="tspan27">with ≥5 storeys</tspan></text>
    <text
       fill="#ffffff"
       font-family="OpenSans-Bold, 'Open Sans'"
       font-size="12.546px"
       font-weight="700"
       id="text28"
       x="289.36282"
       y="148.52643"
       style="font-size:10px"><tspan
         x="289.36282"
         y="148.52643"
         id="tspan28"
         style="font-size:10px">Apartment in a building</tspan></text>
    <text
       fill="#ffffff"
       font-family="OpenSans-Bold, 'Open Sans'"
       font-size="35.217px"
       font-weight="700"
       id="text29"
       x="306.29251"
       y="188.177"
       style="font-size:29px"><tspan
         x="306.29251"
         y="188.177"
         id="tspan29"
         style="font-size:29px">18.0%</tspan></text>
    <text
       fill="#ffffff"
       font-family="OpenSans-Bold, 'Open Sans'"
       font-size="10px"
       font-weight="700"
       id="text30"
       x="311.19876"
       y="160.52643"><tspan
         x="311.19876"
         y="160.52643"
         id="tspan30">with &lt;5 storeys</tspan></text>
  </g>
</svg>
