<?xml version="1.0" encoding="UTF-8"?>
<svg id="Layer_1" data-name="Layer 1" xmlns="http://www.w3.org/2000/svg" width="6.8in" height="4.6in" viewBox="0 0 489.6 331.2">
  <g>
    <line x1="14.4" y1="260.44" x2="475.2" y2="260.44" fill="none" stroke="#231f20" stroke-dasharray=".25 2" stroke-width=".25"/>
    <line x1="14.4" y1="233.208" x2="475.2" y2="233.208" fill="none" stroke="#231f20" stroke-dasharray=".25 2" stroke-width=".25"/>
    <line x1="14.4" y1="205.977" x2="475.2" y2="205.977" fill="none" stroke="#231f20" stroke-dasharray=".25 2" stroke-width=".25"/>
    <line x1="14.4" y1="178.745" x2="475.2" y2="178.745" fill="none" stroke="#231f20" stroke-dasharray=".25 2" stroke-width=".25"/>
    <line x1="14.4" y1="151.513" x2="475.2" y2="151.513" fill="none" stroke="#231f20" stroke-dasharray=".25 2" stroke-width=".25"/>
    <line x1="14.4" y1="124.281" x2="475.2" y2="124.281" fill="none" stroke="#231f20" stroke-dasharray=".25 2" stroke-width=".25"/>
    <line x1="14.4" y1="97.049" x2="475.2" y2="97.049" fill="none" stroke="#231f20" stroke-dasharray=".25 2" stroke-width=".25"/>
    <line x1="14.4" y1="69.817" x2="475.2" y2="69.817" fill="none" stroke="#231f20" stroke-dasharray=".25 2" stroke-width=".25"/>
  </g>
  <g>
    <rect x="42.895" y="268.313" width="3.359" height="19.392" fill="#6fc7e9"/>
    <rect x="48.491" y="286.908" width="3.359" height=".797" fill="#6fc7e9"/>
    <rect x="54.087" y="286.556" width="3.359" height="1.149" fill="#6fc7e9"/>
    <rect x="59.682" y="286.287" width="3.359" height="1.419" fill="#6fc7e9"/>
    <rect x="65.278" y="284.856" width="3.359" height="2.849" fill="#6fc7e9"/>
    <rect x="70.874" y="278.04" width="3.359" height="9.665" fill="#6fc7e9"/>
    <rect x="76.47" y="278.726" width="3.359" height="8.98" fill="#6fc7e9"/>
    <rect x="82.065" y="278.04" width="3.359" height="9.665" fill="#6fc7e9"/>
    <rect x="87.661" y="266.333" width="3.359" height="21.373" fill="#6fc7e9"/>
    <rect x="93.257" y="273.858" width="3.359" height="13.847" fill="#6fc7e9"/>
    <rect x="98.853" y="275.609" width="3.359" height="12.096" fill="#6fc7e9"/>
    <rect x="104.448" y="258.172" width="3.359" height="29.533" fill="#6fc7e9"/>
    <rect x="110.044" y="246.886" width="3.359" height="40.819" fill="#6fc7e9"/>
    <rect x="115.64" y="258.78" width="3.359" height="28.926" fill="#6fc7e9"/>
    <rect x="121.236" y="274.831" width="3.359" height="12.874" fill="#6fc7e9"/>
    <rect x="126.831" y="264.274" width="3.359" height="23.431" fill="#6fc7e9"/>
    <rect x="132.427" y="276.39" width="3.359" height="11.315" fill="#6fc7e9"/>
    <rect x="138.023" y="270.686" width="3.359" height="17.019" fill="#6fc7e9"/>
    <rect x="143.619" y="274.546" width="3.359" height="13.159" fill="#6fc7e9"/>
    <rect x="149.214" y="263.986" width="3.359" height="23.719" fill="#6fc7e9"/>
    <rect x="154.81" y="249.858" width="3.359" height="37.847" fill="#6fc7e9"/>
    <rect x="177.193" y="51.795" width="3.359" height="235.91" fill="#6fc7e9"/>
    <rect x="182.789" y="89.249" width="3.359" height="198.456" fill="#6fc7e9"/>
    <rect x="188.385" y="138.467" width="3.359" height="149.238" fill="#6fc7e9"/>
    <rect x="193.98" y="182.149" width="3.359" height="105.556" fill="#6fc7e9"/>
    <rect x="199.576" y="176.486" width="3.359" height="111.22" fill="#6fc7e9"/>
    <rect x="205.172" y="129.513" width="3.359" height="158.192" fill="#6fc7e9"/>
    <rect x="210.767" y="165.336" width="3.359" height="122.369" fill="#6fc7e9"/>
    <rect x="216.363" y="225.126" width="3.359" height="62.58" fill="#6fc7e9"/>
    <rect x="221.959" y="214.721" width="3.359" height="72.984" fill="#6fc7e9"/>
    <rect x="227.555" y="156.887" width="3.359" height="130.818" fill="#6fc7e9"/>
    <rect x="233.15" y="95.817" width="3.359" height="191.888" fill="#6fc7e9"/>
    <rect x="238.746" y="101.908" width="3.359" height="185.797" fill="#6fc7e9"/>
    <rect x="244.342" y="126.417" width="3.359" height="161.288" fill="#6fc7e9"/>
    <rect x="249.938" y="177.615" width="3.359" height="110.09" fill="#6fc7e9"/>
    <rect x="255.533" y="194.078" width="3.359" height="93.627" fill="#6fc7e9"/>
    <rect x="261.129" y="190.126" width="3.359" height="97.58" fill="#6fc7e9"/>
    <rect x="266.725" y="194.444" width="3.359" height="93.261" fill="#6fc7e9"/>
    <rect x="272.321" y="173.536" width="3.359" height="114.169" fill="#6fc7e9"/>
    <rect x="277.916" y="184.756" width="3.359" height="102.949" fill="#6fc7e9"/>
    <rect x="283.512" y="198.933" width="3.359" height="88.772" fill="#6fc7e9"/>
    <rect x="289.108" y="209.772" width="3.359" height="77.933" fill="#6fc7e9"/>
    <rect x="294.704" y="208.731" width="3.359" height="78.974" fill="#6fc7e9"/>
    <rect x="300.299" y="226.244" width="3.359" height="61.461" fill="#6fc7e9"/>
    <rect x="305.895" y="248.409" width="3.359" height="39.296" fill="#6fc7e9"/>
    <rect x="311.491" y="279.835" width="3.359" height="7.87" fill="#6fc7e9"/>
    <rect x="317.087" y="281.028" width="3.359" height="6.677" fill="#6fc7e9"/>
    <rect x="322.682" y="280.133" width="3.359" height="7.573" fill="#6fc7e9"/>
    <rect x="328.278" y="279" width="3.359" height="8.705" fill="#6fc7e9"/>
    <rect x="333.874" y="284.367" width="3.359" height="3.339" fill="#6fc7e9"/>
    <rect x="339.47" y="281.345" width="3.359" height="6.36" fill="#6fc7e9"/>
    <rect x="345.065" y="280.133" width="3.359" height="7.573" fill="#6fc7e9"/>
    <rect x="350.661" y="281.028" width="3.359" height="6.677" fill="#6fc7e9"/>
    <rect x="356.257" y="281.345" width="3.359" height="6.36" fill="#6fc7e9"/>
    <rect x="361.853" y="281.653" width="3.359" height="6.053" fill="#6fc7e9"/>
    <rect x="367.448" y="281.653" width="3.359" height="6.053" fill="#6fc7e9"/>
    <rect x="373.044" y="281.653" width="3.359" height="6.053" fill="#6fc7e9"/>
    <rect x="378.64" y="263.425" width="3.359" height="24.28" fill="#6fc7e9"/>
    <rect x="384.235" y="279.282" width="3.359" height="8.424" fill="#6fc7e9"/>
    <rect x="389.831" y="282.094" width="3.359" height="5.611" fill="#6fc7e9"/>
    <rect x="395.427" y="281.653" width="3.359" height="6.053" fill="#6fc7e9"/>
    <rect x="401.023" y="281.276" width="3.359" height="6.429" fill="#6fc7e9"/>
    <rect x="406.618" y="283.77" width="3.359" height="3.935" fill="#6fc7e9"/>
    <rect x="412.214" y="271.988" width="3.359" height="15.717" fill="#6fc7e9"/>
    <rect x="423.406" y="271.353" width="3.359" height="16.352" fill="#6fc7e9"/>
    <rect x="417.81" y="275.697" width="3.359" height="12.009" fill="#6fc7e9"/>
    <rect x="429.001" y="274.574" width="3.359" height="13.131" fill="#6fc7e9"/>
    <rect x="434.597" y="274.127" width="3.359" height="13.578" fill="#6fc7e9"/>
    <rect x="440.193" y="245.045" width="3.359" height="42.66" fill="#6fc7e9"/>
    <rect x="445.789" y="195.907" width="3.359" height="91.798" fill="#6fc7e9"/>
    <rect x="451.384" y="226.422" width="3.359" height="61.283" fill="#6fc7e9"/>
    <rect x="160.406" y="232.273" width="3.359" height="55.432" fill="#6fc7e9"/>
    <rect x="166.002" y="211.088" width="3.359" height="76.617" fill="#6fc7e9"/>
    <rect x="171.597" y="137.383" width="3.359" height="150.322" fill="#6fc7e9"/>
  </g>
  <text transform="translate(55.522 298.8)" font-family="OpenSans-Bold, &apos;Open Sans&apos;" font-size="10" font-weight="700"><tspan x="0" y="0">1950</tspan></text>
  <text transform="translate(14.4 232.095)" font-family="OpenSans-Bold, &apos;Open Sans&apos;" font-size="8" font-weight="700"><tspan x="0" y="0">10K</tspan></text>
  <text transform="translate(14.4 177.399)" font-family="OpenSans-Bold, &apos;Open Sans&apos;" font-size="8" font-weight="700"><tspan x="0" y="0">20K</tspan></text>
  <text transform="translate(14.4 122.703)" font-family="OpenSans-Bold, &apos;Open Sans&apos;" font-size="8" font-weight="700"><tspan x="0" y="0">30K</tspan></text>
  <text transform="translate(14.4 68.008)" font-family="OpenSans-Bold, &apos;Open Sans&apos;" font-size="8" font-weight="700"><tspan x="0" y="0">40K housing units</tspan></text>
  <text transform="translate(111.479 298.8)" font-family="OpenSans-Bold, &apos;Open Sans&apos;" font-size="10" font-weight="700"><tspan x="0" y="0">1960</tspan></text>
  <text transform="translate(167.436 298.8)" font-family="OpenSans-Bold, &apos;Open Sans&apos;" font-size="10" font-weight="700"><tspan x="0" y="0">1970</tspan></text>
  <text transform="translate(223.394 298.8)" font-family="OpenSans-Bold, &apos;Open Sans&apos;" font-size="10" font-weight="700"><tspan x="0" y="0">1980</tspan></text>
  <text transform="translate(279.352 298.8)" font-family="OpenSans-Bold, &apos;Open Sans&apos;" font-size="10" font-weight="700"><tspan x="0" y="0">1990</tspan></text>
  <text transform="translate(335.309 298.8)" font-family="OpenSans-Bold, &apos;Open Sans&apos;" font-size="10" font-weight="700"><tspan x="0" y="0">2000</tspan></text>
  <text transform="translate(391.267 298.8)" font-family="OpenSans-Bold, &apos;Open Sans&apos;" font-size="10" font-weight="700"><tspan x="0" y="0">2010</tspan></text>
  <line x1="14.4" y1="287.672" x2="475.2" y2="287.672" fill="none" stroke="#231f20" stroke-miterlimit="10" stroke-width=".75"/>
  <line x1="66.958" y1="287.705" x2="66.958" y2="289.589" fill="none" stroke="#000" stroke-miterlimit="10" stroke-width=".75"/>
  <line x1="122.915" y1="287.705" x2="122.915" y2="289.589" fill="none" stroke="#000" stroke-miterlimit="10" stroke-width=".75"/>
  <line x1="178.872" y1="287.705" x2="178.872" y2="289.589" fill="none" stroke="#000" stroke-miterlimit="10" stroke-width=".75"/>
  <line x1="234.83" y1="287.705" x2="234.83" y2="289.589" fill="none" stroke="#000" stroke-miterlimit="10" stroke-width=".75"/>
  <line x1="290.787" y1="287.705" x2="290.787" y2="289.589" fill="none" stroke="#000" stroke-miterlimit="10" stroke-width=".75"/>
  <line x1="346.745" y1="287.705" x2="346.745" y2="289.589" fill="none" stroke="#000" stroke-miterlimit="10" stroke-width=".75"/>
  <line x1="402.702" y1="287.705" x2="402.702" y2="289.589" fill="none" stroke="#000" stroke-miterlimit="10" stroke-width=".75"/>
  <g id="text49" isolation="isolate">
    <text transform="translate(21.06 27.711) rotate(.17)" font-family="TradeGothicLT-Bold, &apos;TradeGothic LT Bold&apos;" font-size="17" font-weight="700" isolation="isolate"><tspan x="0" y="0">Federally assisted affordable housing units</tspan></text>
  </g>
  <g id="text51" isolation="isolate">
    <text transform="translate(21.6 316.52)" fill="#999" font-family="OpenSans, &apos;Open Sans&apos;" font-size="8" isolation="isolate"><tspan x="0" y="0">Adapted from “Why Can’t We Build Like It’s the 1970s?” by Jen St. Denis</tspan></text>
  </g>
  <rect id="rect72" x="0" y="14.4" width="14.4" height="14.4" fill="#f1c500"/>
  <path id="path37" d="M0,330.703h489.6" fill="none" stroke="#f1c500" stroke-miterlimit="2.25" stroke-width=".5"/>
  <path id="path37-2" d="M0,.5h489.6" fill="none" stroke="#f1c500" stroke-miterlimit="2.25" stroke-width=".5"/>
</svg>