<?xml version="1.0" encoding="UTF-8" standalone="no"?>
<svg
   id="svg29"
   width="6.8in"
   height="3.1in"
   viewBox="0 0 489.6 223.2"
   version="1.1"
   sodipodi:docname="mental-health_travel-burden-bars.svg"
   inkscape:version="1.4.2 (1:1.4.2+202505120738+ebf0e940d0)"
   inkscape:export-filename="mental-health_travel-burden-bars.png"
   inkscape:export-xdpi="300"
   inkscape:export-ydpi="300"
   xmlns:inkscape="http://www.inkscape.org/namespaces/inkscape"
   xmlns:sodipodi="http://sodipodi.sourceforge.net/DTD/sodipodi-0.dtd"
   xmlns="http://www.w3.org/2000/svg"
   xmlns:svg="http://www.w3.org/2000/svg">
  <defs
     id="defs29" />
  <sodipodi:namedview
     id="namedview29"
     pagecolor="#ffffff"
     bordercolor="#666666"
     borderopacity="1.0"
     inkscape:showpageshadow="2"
     inkscape:pageopacity="0.0"
     inkscape:pagecheckerboard="0"
     inkscape:deskcolor="#d1d1d1"
     inkscape:document-units="in"
     showgrid="false"
     inkscape:zoom="1.3289651"
     inkscape:cx="366.45056"
     inkscape:cy="126.03792"
     inkscape:window-width="1920"
     inkscape:window-height="1016"
     inkscape:window-x="0"
     inkscape:window-y="0"
     inkscape:window-maximized="1"
     inkscape:current-layer="layer1">
    <inkscape:grid
       id="grid29"
       units="in"
       originx="0"
       originy="0"
       spacingx="0.74999994"
       spacingy="0.75000006"
       empcolor="#0099e5"
       empopacity="0.30196078"
       color="#0099e5"
       opacity="0.14901961"
       empspacing="5"
       enabled="true"
       visible="false" />
  </sodipodi:namedview>
  <g
     id="layer1">
    <rect
       id="rect29"
       x="0"
       y=".5"
       width="489.6"
       height="222.699"
       fill="#fff" />
    <path
       id="path1"
       d="M467.409,138.241v25.92c0,.795-.739,1.44-1.651,1.44h-45.251c-.912,0-1.651-.645-1.651-1.44v-25.92c0-.795.739-1.44,1.651-1.44h45.251c.912,0,1.651.645,1.651,1.44Z"
       fill="#ab2069"
       stroke="#fff"
       stroke-miterlimit="10"
       stroke-width=".5" />
    <path
       id="path2"
       d="M467.409,80.64v25.92c0,.795-.739,1.44-1.651,1.44h-5.526c-.912,0-1.651-.645-1.651-1.44v-25.92c0-.795.739-1.44,1.651-1.44h5.526c.912,0,1.651.645,1.651,1.44Z"
       fill="#ab2069"
       stroke="#fff"
       stroke-miterlimit="10"
       stroke-width=".5" />
    <path
       id="path3"
       d="M458.581,80.64v25.92c0,.795-.739,1.44-1.651,1.44h-9.94c-.912,0-1.651-.645-1.651-1.44v-25.92c0-.795.739-1.44,1.651-1.44h9.94c.912,0,1.651.645,1.651,1.44Z"
       fill="#dc4732"
       stroke="#fff"
       stroke-miterlimit="10"
       stroke-width=".5" />
    <path
       id="path4"
       d="M418.856,138.241v25.92c0,.795-.739,1.44-1.651,1.44h-71.735c-.912,0-1.651-.645-1.651-1.44v-25.92c0-.795.739-1.44,1.651-1.44h71.735c.912,0,1.651.645,1.651,1.44h0Z"
       fill="#dc4732"
       stroke="#fff"
       stroke-miterlimit="10"
       stroke-width=".5" />
    <path
       id="path5"
       d="M445.339,80.64v25.92c0,.795-.739,1.44-1.651,1.44h-32.009c-.912,0-1.651-.645-1.651-1.44v-25.92c0-.795.739-1.44,1.651-1.44h32.009c.912,0,1.651.645,1.651,1.44Z"
       fill="#efc419"
       stroke="#fff"
       stroke-miterlimit="10"
       stroke-width=".5" />
    <path
       id="path6"
       d="M343.818,138.241v25.92c0,.795-.739,1.44-1.651,1.44h-142.358c-.912,0-1.651-.645-1.651-1.44v-25.92c0-.795.739-1.44,1.651-1.44h142.358c.912,0,1.651.645,1.651,1.44Z"
       fill="#efc419"
       stroke="#fff"
       stroke-miterlimit="10"
       stroke-width=".5" />
    <path
       id="path7"
       d="M410.028,80.64v25.92c0,.795-.739,1.44-1.651,1.44h-54.079c-.912,0-1.651-.645-1.651-1.44v-25.92c0-.795.739-1.44,1.651-1.44h54.079c.912,0,1.651.645,1.651,1.44Z"
       fill="#00a28a"
       stroke="#fff"
       stroke-miterlimit="10"
       stroke-width=".5" />
    <path
       id="path8"
       d="M198.158,138.241v25.92c0,.795-.739,1.44-1.651,1.44h-89.391c-.912,0-1.651-.645-1.651-1.44v-25.92c0-.795.739-1.44,1.651-1.44h89.391c.912,0,1.651.645,1.651,1.44Z"
       fill="#00a28a"
       stroke="#fff"
       stroke-miterlimit="10"
       stroke-width=".5" />
    <path
       id="path9"
       d="M352.646,80.64v25.92c0,.795-.739,1.44-1.651,1.44H23.251c-.912,0-1.651-.645-1.651-1.44v-25.92c0-.795.739-1.44,1.651-1.44h327.744c.912,0,1.651.645,1.651,1.44Z"
       fill="#067fa3"
       stroke="#fff"
       stroke-miterlimit="10"
       stroke-width=".5" />
    <path
       id="path10"
       d="M105.465,138.241v25.92c0,.795-.739,1.44-1.651,1.44H23.251c-.912,0-1.651-.645-1.651-1.44v-25.92c0-.795.739-1.44,1.651-1.44h80.563c.912,0,1.651.645,1.651,1.44Z"
       fill="#067fa3"
       stroke="#fff"
       stroke-miterlimit="10"
       stroke-width=".5" />
    <path
       id="path37"
       d="M0,222.699h489.6"
       fill="none"
       stroke="#f1c500"
       stroke-miterlimit="2.25"
       stroke-width=".5" />
    <g
       id="text49"
       isolation="isolate">
      <g
         id="text10"
         isolation="isolate">
        <text
           transform="translate(21.06 27.711) rotate(.17)"
           font-family="TradeGothicLT-Bold, 'TradeGothic LT Bold'"
           font-size="17"
           font-weight="700"
           isolation="isolate"
           id="text1"><tspan
             x="0"
             y="0"
             id="tspan1">Hospital travel burden for urban and rural residents</tspan></text>
      </g>
    </g>
    <g
       id="text51"
       isolation="isolate">
      <g
         id="text11"
         isolation="isolate">
        <text
           transform="translate(21.6 208.515)"
           fill="#999"
           font-family="OpenSans, 'Open Sans'"
           font-size="8"
           isolation="isolate"
           id="text2"><tspan
             x="0"
             y="0"
             id="tspan2">Data source: Hospital Morbidity Database (CIHI, 2018-2023), Statistics Canada (2024)</tspan></text>
      </g>
    </g>
    <rect
       id="rect72"
       y="14.4"
       width="14.4"
       height="14.4"
       fill="#f1c500" />
    <path
       id="path37-2"
       d="M0,.5h489.6"
       fill="none"
       stroke="#f1c500"
       stroke-miterlimit="2.25"
       stroke-width=".5" />
    <g
       id="Layer_1"
       data-name="Layer 1">
      <g
         id="text13"
         isolation="isolate">
        <text
           transform="translate(21.6 43.2)"
           font-family="OpenSans-Italic, 'Open Sans'"
           font-size="9"
           font-style="italic"
           font-variation-settings="'wght' 400, 'wdth' 100"
           isolation="isolate"
           id="text3"><tspan
             x="0"
             y="0"
             id="tspan3">Factors that impact travel burden include patient living in a different census subdivision than the hospital, greater </tspan></text>
        <text
           transform="translate(21.6 54)"
           font-family="OpenSans-Italic, 'Open Sans'"
           font-size="9"
           font-style="italic"
           font-variation-settings="'wght' 400, 'wdth' 100"
           isolation="isolate"
           id="text4"><tspan
             x="0"
             y="0"
             id="tspan4">travel distance required, no road available, patient is a senior or child, and hospitalization is urgent or unscheduled.</tspan></text>
      </g>
      <g
         id="text14"
         isolation="isolate">
        <text
           transform="translate(20.979 75.602)"
           font-family="OpenSans-Bold, 'Open Sans'"
           font-size="11"
           font-weight="700"
           isolation="isolate"
           id="text5"><tspan
             x="0"
             y="0"
             id="tspan5">Urban</tspan></text>
      </g>
      <g
         id="text15"
         isolation="isolate">
        <text
           transform="translate(42.014 180.002)"
           font-family="OpenSans-Bold, 'Open Sans'"
           font-size="10"
           font-weight="700"
           isolation="isolate"
           id="text6"><tspan
             x="0"
             y="0"
             id="tspan6">Very low</tspan></text>
        <text
           font-family="OpenSans-Bold, 'Open Sans'"
           font-size="10px"
           font-weight="700"
           isolation="isolate"
           id="text6-1"
           x="29.93922"
           y="191.69861"><tspan
             x="29.93922"
             y="191.69861"
             id="tspan6-5">travel burden</tspan></text>
        <text
           font-family="OpenSans-Bold, 'Open Sans'"
           font-size="10px"
           font-weight="700"
           isolation="isolate"
           id="text6-1-7"
           x="409.0965"
           y="191.55428"><tspan
             x="409.0965"
             y="191.55428"
             id="tspan6-5-7">travel burden</tspan></text>
      </g>
      <g
         id="text16"
         isolation="isolate">
        <text
           transform="translate(52.789 154.737)"
           fill="#fff"
           font-family="OpenSans-Bold, 'Open Sans'"
           font-size="11"
           font-weight="700"
           isolation="isolate"
           id="text7"><tspan
             x="0"
             y="0"
             id="tspan7">19%</tspan></text>
      </g>
      <g
         id="text17"
         isolation="isolate">
        <text
           transform="translate(175.879 96.738)"
           fill="#fff"
           font-family="OpenSans-Bold, 'Open Sans'"
           font-size="11"
           font-weight="700"
           isolation="isolate"
           id="text8"><tspan
             x="0"
             y="0"
             id="tspan8">75%</tspan></text>
      </g>
      <g
         id="text18"
         isolation="isolate">
        <text
           transform="translate(140.567 154.737)"
           fill="#fff"
           font-family="OpenSans-Bold, 'Open Sans'"
           font-size="11"
           font-weight="700"
           isolation="isolate"
           id="text9"><tspan
             x="0"
             y="0"
             id="tspan9">21%</tspan></text>
      </g>
      <g
         id="text19"
         isolation="isolate">
        <text
           transform="translate(370.093 96.859)"
           fill="#fff"
           font-family="OpenSans-Bold, 'Open Sans'"
           font-size="11"
           font-weight="700"
           isolation="isolate"
           id="text12"><tspan
             x="0"
             y="0"
             id="tspan10">13%</tspan></text>
      </g>
      <g
         id="g20"
         isolation="isolate">
        <text
           transform="translate(419.584 96.859)"
           font-family="OpenSans-Bold, 'Open Sans'"
           font-size="11"
           font-weight="700"
           isolation="isolate"
           id="text20"><tspan
             x="0"
             y="0"
             id="tspan12">8%</tspan></text>
      </g>
      <g
         id="g21"
         isolation="isolate">
        <text
           transform="translate(448.275 120.619)"
           font-family="OpenSans-Bold, 'Open Sans'"
           font-size="11"
           font-weight="700"
           isolation="isolate"
           id="text21"><tspan
             x="0"
             y="0"
             id="tspan20">4%</tspan></text>
      </g>
      <g
         id="g22"
         isolation="isolate">
        <text
           transform="translate(259.744 154.737)"
           font-family="OpenSans-Bold, 'Open Sans'"
           font-size="11"
           font-weight="700"
           isolation="isolate"
           id="text22"><tspan
             x="0"
             y="0"
             id="tspan21">33%</tspan></text>
      </g>
      <g
         id="g23"
         isolation="isolate">
        <text
           transform="translate(370.092 154.737)"
           fill="#fff"
           font-family="OpenSans-Bold, 'Open Sans'"
           font-size="11"
           font-weight="700"
           isolation="isolate"
           id="text23"><tspan
             x="0"
             y="0"
             id="tspan22">17%</tspan></text>
      </g>
      <g
         id="g24"
         isolation="isolate">
        <text
           transform="translate(431.888 154.737)"
           fill="#fff"
           font-family="OpenSans-Bold, 'Open Sans'"
           font-size="11"
           font-weight="700"
           isolation="isolate"
           id="text24"><tspan
             x="0"
             y="0"
             id="tspan23">11%</tspan></text>
      </g>
      <g
         id="g25"
         isolation="isolate">
        <text
           transform="translate(141.612 180.001)"
           font-family="OpenSans-Bold, 'Open Sans'"
           font-size="10"
           font-weight="700"
           isolation="isolate"
           id="text25"><tspan
             x="0"
             y="0"
             id="tspan24">Low</tspan></text>
      </g>
      <g
         id="g26"
         isolation="isolate">
        <text
           transform="translate(246.645 180.002)"
           font-family="OpenSans-Bold, 'Open Sans'"
           font-size="10"
           font-weight="700"
           isolation="isolate"
           id="text26"><tspan
             x="0"
             y="0"
             id="tspan25">Moderate</tspan></text>
      </g>
      <g
         id="g27"
         isolation="isolate">
        <text
           transform="translate(369.874 180.001)"
           font-family="OpenSans-Bold, 'Open Sans'"
           font-size="10"
           font-weight="700"
           isolation="isolate"
           id="text27"><tspan
             x="0"
             y="0"
             id="tspan26">High</tspan></text>
      </g>
      <g
         id="g28"
         isolation="isolate">
        <text
           transform="translate(419.592 180.002)"
           font-family="OpenSans-Bold, 'Open Sans'"
           font-size="10"
           font-weight="700"
           isolation="isolate"
           id="text28"><tspan
             x="0"
             y="0"
             id="tspan27">Very high</tspan></text>
      </g>
      <g
         id="g29"
         isolation="isolate">
        <text
           transform="translate(21.085 133.203)"
           font-family="OpenSans-Bold, 'Open Sans'"
           font-size="11"
           font-weight="700"
           isolation="isolate"
           id="text29"><tspan
             x="0"
             y="0"
             id="tspan28">Rural</tspan></text>
      </g>
      <polyline
         id="polyline29"
         points="445.339 108.721 445.339 110.36 467.409 110.36 467.409 108.721"
         fill="none"
         stroke="#ab2069"
         stroke-miterlimit="10"
         stroke-width=".5"
         style="stroke:#77767b" />
    </g>
  </g>
</svg>
