<?xml version="1.0" encoding="UTF-8"?>
<svg id="Layer_1" data-name="Layer 1" xmlns="http://www.w3.org/2000/svg" viewBox="0 0 489.6 338.4">
  <text transform="translate(14.4 21.6) rotate(.17)" font-family="TradeGothicLT-Bold, &apos;TradeGothic LT Bold&apos;" font-size="20" font-weight="700"><tspan x="0" y="0">Rural residents feel a stronger sense of belonging </tspan><tspan x="0" y="24">than Urban Canadians</tspan></text>
  <path d="M180,76.05h0c5.96,0,10.8,4.84,10.8,10.8v111.35h-21.6v-111.35c0-5.96,4.84-10.8,10.8-10.8Z" fill="#00a28a"/>
  <path d="M169.2,226.61h21.6v74.09c0,5.96-4.84,10.8-10.8,10.8h0c-5.96,0-10.8-4.84-10.8-10.8v-74.09h0Z" fill="#6c297b"/>
  <path d="M180,101.86h0c5.96,0,10.8,4.84,10.8,10.8v85.54h-21.6v-85.54c0-5.96,4.84-10.8,10.8-10.8Z" fill="#6c297b"/>
  <path d="M212.41,226.61h21.6v74.36c0,5.96-4.84,10.8-10.8,10.8h0c-5.96,0-10.8-4.84-10.8-10.8v-74.36h0Z" fill="#6c297b"/>
  <path d="M255.61,226.61h21.6v71.93c0,5.96-4.84,10.8-10.8,10.8h0c-5.96,0-10.8-4.84-10.8-10.8v-71.93h0Z" fill="#6c297b"/>
  <path d="M298.81,226.61h21.6v72.14c0,5.96-4.84,10.8-10.8,10.8h0c-5.96,0-10.8-4.84-10.8-10.8v-72.14h0Z" fill="#6c297b"/>
  <path d="M212.41,226.61h21.6v56.86c0,5.96-4.84,10.8-10.8,10.8h0c-5.96,0-10.8-4.84-10.8-10.8v-56.86h0Z" fill="#00a28a"/>
  <path d="M223.21,78.88h0c5.96,0,10.8,4.84,10.8,10.8v108.32h-21.6v-108.32c0-5.96,4.84-10.8,10.8-10.8Z" fill="#00a28a"/>
  <path d="M255.61,226.61h21.6v53.57c0,5.96-4.84,10.8-10.8,10.8h0c-5.96,0-10.8-4.84-10.8-10.8v-53.57h0Z" fill="#00a28a"/>
  <path d="M266.41,79.42h0c5.96,0,10.8,4.84,10.8,10.8v107.78h-21.6v-107.78c0-5.96,4.84-10.8,10.8-10.8Z" fill="#00a28a"/>
  <path d="M298.81,226.61h21.6v49.53c0,5.96-4.84,10.8-10.8,10.8h0c-5.96,0-10.8-4.84-10.8-10.8v-49.53h0Z" fill="#00a28a"/>
  <path d="M309.61,71.88h0c5.96,0,10.8,4.84,10.8,10.8v115.32h-21.6v-115.32c0-5.96,4.84-10.8,10.8-10.8Z" fill="#00a28a"/>
  <text transform="translate(163.99 217.2)" font-family="OpenSans-Bold, &apos;Open Sans&apos;" font-size="14" font-weight="700"><tspan x="0" y="0">2021</tspan></text>
  <text transform="translate(207.2 217.2)" font-family="OpenSans-Bold, &apos;Open Sans&apos;" font-size="14" font-weight="700"><tspan x="0" y="0">2022</tspan></text>
  <text transform="translate(250.4 217.2)" font-family="OpenSans-Bold, &apos;Open Sans&apos;" font-size="14" font-weight="700"><tspan x="0" y="0">2023</tspan></text>
  <text transform="translate(293.59 217.2)" font-family="OpenSans-Bold, &apos;Open Sans&apos;" font-size="14" font-weight="700"><tspan x="0" y="0">2024</tspan></text>
  <path d="M169.2,226.61h21.6v50c0,5.96-4.84,10.8-10.8,10.8h0c-5.96,0-10.8-4.84-10.8-10.8v-50h0Z" fill="#00a28a"/>
  <path d="M223.21,98.59h0c5.96,0,10.8,4.84,10.8,10.8v88.61h-21.6v-88.61c0-5.96,4.84-10.8,10.8-10.8Z" fill="#6c297b"/>
  <path d="M266.41,101.45h0c5.96,0,10.8,4.84,10.8,10.8v85.75h-21.6v-85.75c0-5.96,4.84-10.8,10.8-10.8Z" fill="#6c297b"/>
  <path d="M309.61,93.24h0c5.96,0,10.8,4.84,10.8,10.8v93.96h-21.6v-93.96c0-5.96,4.84-10.8,10.8-10.8Z" fill="#6c297b"/>
  <line x1="139.29" y1="223.01" x2="352.8" y2="223.01" fill="none" stroke="#000" stroke-miterlimit="10" stroke-width="2"/>
  <line x1="139.29" y1="201.6" x2="352.8" y2="201.6" fill="none" stroke="#000" stroke-miterlimit="10" stroke-width="2"/>
  <g>
    <g>
      <line x1="151.2" y1="176.4" x2="151.32" y2="176.4" fill="none" stroke="#000" stroke-miterlimit="10" stroke-width=".25"/>
      <line x1="153.32" y1="176.4" x2="351.68" y2="176.4" fill="none" stroke="#000" stroke-dasharray=".25 1.99" stroke-miterlimit="10" stroke-width=".25"/>
      <line x1="352.68" y1="176.4" x2="352.8" y2="176.4" fill="none" stroke="#000" stroke-miterlimit="10" stroke-width=".25"/>
    </g>
    <g>
      <line x1="151.2" y1="154.79" x2="151.32" y2="154.79" fill="none" stroke="#000" stroke-miterlimit="10" stroke-width=".25"/>
      <line x1="153.32" y1="154.79" x2="351.68" y2="154.79" fill="none" stroke="#000" stroke-dasharray=".25 1.99" stroke-miterlimit="10" stroke-width=".25"/>
      <line x1="352.68" y1="154.79" x2="352.8" y2="154.79" fill="none" stroke="#000" stroke-miterlimit="10" stroke-width=".25"/>
    </g>
    <g>
      <line x1="139.29" y1="133.18" x2="139.42" y2="133.18" fill="none" stroke="#000" stroke-miterlimit="10" stroke-width=".25"/>
      <line x1="141.41" y1="133.18" x2="351.68" y2="133.18" fill="none" stroke="#000" stroke-dasharray=".25 2" stroke-miterlimit="10" stroke-width=".25"/>
      <line x1="352.68" y1="133.18" x2="352.8" y2="133.18" fill="none" stroke="#000" stroke-miterlimit="10" stroke-width=".25"/>
    </g>
    <g>
      <line x1="139.29" y1="111.58" x2="139.42" y2="111.58" fill="none" stroke="#000" stroke-miterlimit="10" stroke-width=".25"/>
      <line x1="141.43" y1="111.58" x2="337.27" y2="111.58" fill="none" stroke="#000" stroke-dasharray=".25 2.01" stroke-miterlimit="10" stroke-width=".25"/>
      <line x1="338.28" y1="111.58" x2="338.4" y2="111.58" fill="none" stroke="#000" stroke-miterlimit="10" stroke-width=".25"/>
    </g>
    <g>
      <line x1="139.29" y1="89.97" x2="139.42" y2="89.97" fill="none" stroke="#000" stroke-miterlimit="10" stroke-width=".25"/>
      <line x1="141.43" y1="89.97" x2="337.27" y2="89.97" fill="none" stroke="#000" stroke-dasharray=".25 2.01" stroke-miterlimit="10" stroke-width=".25"/>
      <line x1="338.28" y1="89.97" x2="338.4" y2="89.97" fill="none" stroke="#000" stroke-miterlimit="10" stroke-width=".25"/>
    </g>
    <g>
      <line x1="139.29" y1="248.21" x2="139.42" y2="248.21" fill="none" stroke="#000" stroke-miterlimit="10" stroke-width=".25"/>
      <line x1="141.43" y1="248.21" x2="337.27" y2="248.21" fill="none" stroke="#000" stroke-dasharray=".25 2.01" stroke-miterlimit="10" stroke-width=".25"/>
      <line x1="338.28" y1="248.21" x2="338.4" y2="248.21" fill="none" stroke="#000" stroke-miterlimit="10" stroke-width=".25"/>
    </g>
    <g>
      <line x1="151.2" y1="269.82" x2="151.32" y2="269.82" fill="none" stroke="#000" stroke-miterlimit="10" stroke-width=".25"/>
      <line x1="153.33" y1="269.82" x2="337.27" y2="269.82" fill="none" stroke="#000" stroke-dasharray=".25 2" stroke-miterlimit="10" stroke-width=".25"/>
      <line x1="338.28" y1="269.82" x2="338.4" y2="269.82" fill="none" stroke="#000" stroke-miterlimit="10" stroke-width=".25"/>
    </g>
    <g>
      <line x1="139.29" y1="291.42" x2="139.42" y2="291.42" fill="none" stroke="#000" stroke-miterlimit="10" stroke-width=".25"/>
      <line x1="141.41" y1="291.42" x2="351.68" y2="291.42" fill="none" stroke="#000" stroke-dasharray=".25 2" stroke-miterlimit="10" stroke-width=".25"/>
      <line x1="352.68" y1="291.42" x2="352.8" y2="291.42" fill="none" stroke="#000" stroke-miterlimit="10" stroke-width=".25"/>
    </g>
  </g>
  <text transform="translate(338.4 244.95)" font-size="12"><tspan font-family="OpenSans, &apos;Open Sans&apos;"><tspan x="0" y="0">Somewhat weak or</tspan></tspan><tspan x="0" y="14.4" font-family="OpenSans, &apos;Open Sans&apos;">very </tspan><tspan x="26.81" y="14.4" font-family="OpenSans-Bold, &apos;Open Sans&apos;" font-weight="700">weak sense of</tspan><tspan x="0" y="28.8" font-family="OpenSans-Bold, &apos;Open Sans&apos;" font-weight="700">belonging</tspan><tspan x="58.77" y="28.8" xml:space="preserve" font-family="OpenSans, &apos;Open Sans&apos;"> to local</tspan><tspan font-family="OpenSans, &apos;Open Sans&apos;"><tspan x="0" y="43.2">community</tspan></tspan></text>
  <text transform="translate(14.4 64.8)" font-family="OpenSans, &apos;Open Sans&apos;" font-size="12"><tspan x="0" y="0">Share of residents reporting strong vs. weak sense of community belonging</tspan></text>
  <text transform="translate(71.95 144)" font-size="12"><tspan font-family="OpenSans, &apos;Open Sans&apos;"><tspan x="0" y="0">Very strong or</tspan></tspan><tspan x="-21.06" y="14.4" font-family="OpenSans, &apos;Open Sans&apos;">somewhat </tspan><tspan x="40.53" y="14.4" font-family="OpenSans-Bold, &apos;Open Sans&apos;" font-weight="700">strong</tspan><tspan font-family="OpenSans-Bold, &apos;Open Sans&apos;" font-weight="700"><tspan x="-31.83" y="28.8">sense of belonging</tspan></tspan><tspan font-family="OpenSans, &apos;Open Sans&apos;"><tspan x="-27.51" y="43.2">to local community</tspan></tspan></text>
  <text transform="translate(338.4 113.69)" fill="#6c297b" font-family="OpenSans-Bold, &apos;Open Sans&apos;" font-size="10" font-weight="700"><tspan x="0" y="0">Urban</tspan></text>
  <text transform="translate(172.13 303.93)" fill="#fff" font-family="OpenSans, &apos;Open Sans&apos;" font-size="8"><tspan x="0" y="0">39%</tspan></text>
  <text transform="translate(172.13 279.84)" fill="#fff" font-family="OpenSans, &apos;Open Sans&apos;" font-size="8"><tspan x="0" y="0">28%</tspan></text>
  <text transform="translate(301.74 301.98)" fill="#fff" font-family="OpenSans, &apos;Open Sans&apos;" font-size="8"><tspan x="0" y="0">38%</tspan></text>
  <text transform="translate(301.74 279.37)" fill="#fff" font-family="OpenSans, &apos;Open Sans&apos;" font-size="8"><tspan x="0" y="0">28%</tspan></text>
  <text transform="translate(215.34 304.2)" fill="#fff" font-family="OpenSans, &apos;Open Sans&apos;" font-size="8"><tspan x="0" y="0">39%</tspan></text>
  <text transform="translate(215.34 286.7)" fill="#fff" font-family="OpenSans, &apos;Open Sans&apos;" font-size="8"><tspan x="0" y="0">31%</tspan></text>
  <text transform="translate(258.54 301.77)" fill="#fff" font-family="OpenSans, &apos;Open Sans&apos;" font-size="8"><tspan x="0" y="0">38%</tspan></text>
  <text transform="translate(258.54 283.41)" fill="#fff" font-family="OpenSans, &apos;Open Sans&apos;" font-size="8"><tspan x="0" y="0">30%</tspan></text>
  <text transform="translate(172.13 114.12)" fill="#fff" font-family="OpenSans, &apos;Open Sans&apos;" font-size="8"><tspan x="0" y="0">45%</tspan></text>
  <text transform="translate(172.13 88.3)" fill="#fff" font-family="OpenSans, &apos;Open Sans&apos;" font-size="8"><tspan x="0" y="0">57%</tspan></text>
  <text transform="translate(301.74 105.5)" fill="#fff" font-family="OpenSans, &apos;Open Sans&apos;" font-size="8"><tspan x="0" y="0">49%</tspan></text>
  <text transform="translate(301.74 84.14)" fill="#fff" font-family="OpenSans, &apos;Open Sans&apos;" font-size="8"><tspan x="0" y="0">58%</tspan></text>
  <text transform="translate(215.34 110.84)" fill="#fff" font-family="OpenSans, &apos;Open Sans&apos;" font-size="8"><tspan x="0" y="0">46%</tspan></text>
  <text transform="translate(215.34 91.13)" fill="#fff" font-family="OpenSans, &apos;Open Sans&apos;" font-size="8"><tspan x="0" y="0">55%</tspan></text>
  <text transform="translate(258.54 113.71)" fill="#fff" font-family="OpenSans, &apos;Open Sans&apos;" font-size="8"><tspan x="0" y="0">45%</tspan></text>
  <text transform="translate(258.55 91.67)" fill="#fff" font-family="OpenSans, &apos;Open Sans&apos;" font-size="8"><tspan x="0" y="0">55%</tspan></text>
  <text transform="translate(338.4 89.64)" fill="#00a28a" font-family="OpenSans-Bold, &apos;Open Sans&apos;" font-size="10" font-weight="700"><tspan x="0" y="0">Rural</tspan></text>
  <text transform="translate(120.16 302.4)" fill="#6c297b" font-family="OpenSans-Bold, &apos;Open Sans&apos;" font-size="10" font-weight="700"><tspan x="0" y="0">Urban</tspan></text>
  <text transform="translate(124.39 278.35)" fill="#00a28a" font-family="OpenSans-Bold, &apos;Open Sans&apos;" font-size="10" font-weight="700"><tspan x="0" y="0">Rural</tspan></text>
  <path id="path37" d="M0,324h489.6" fill="none" stroke="#231f20" stroke-miterlimit="3" stroke-width=".57"/>
  <text transform="translate(7.37 333.25)" font-size="8"><tspan x="0" y="0" font-family="OpenSans-Bold, &apos;Open Sans&apos;" font-weight="700">Data Sources:</tspan><tspan x="54.48" y="0" xml:space="preserve" font-family="OpenSans, &apos;Open Sans&apos;"> Statistics Canada (2025)</tspan></text>
</svg>