<?xml version="1.0" encoding="UTF-8"?>
<svg xmlns="http://www.w3.org/2000/svg" viewBox="0 0 489.6 345.6">
  <g id="Layer_1" data-name="Layer 1">
    <rect x="12.04" y="41.76" width="40.59" height="14.69" rx="1.83" ry="1.83" fill="#6c297b"/>
    <rect x="76.18" y="41.76" width="34.06" height="14.69" rx="1.84" ry="1.84" fill="#00a28a"/>
    <path d="M203.04,320.89v-190.56H36v190.56c0,1.71,1.39,3.1,3.1,3.1h160.83c1.71,0,3.1-1.39,3.1-3.1Z" fill="#6c297b" stroke="#fff" stroke-width="2"/>
    <path d="M206.14,237.6h118.83v-86.4h-118.83c-1.71,0-3.1,1.39-3.1,3.1v80.19c0,1.71,1.39,3.1,3.1,3.1Z" fill="#6c297b" stroke="#fff" stroke-width="2"/>
    <path d="M324.98,237.6h33.28c1.71,0,3.1-1.39,3.1-3.1v-80.19c0-1.71-1.39-3.1-3.1-3.1h-33.28v86.4Z" fill="#00a28a" stroke="#fff" stroke-width="2"/>
    <path d="M364.46,237.6h63.41v-86.4h-63.41c-1.71,0-3.1,1.39-3.1,3.1v80.19c0,1.71,1.39,3.1,3.1,3.1Z" fill="#6c297b" stroke="#fff" stroke-width="2"/>
    <path d="M427.88,237.6h22.62c1.71,0,3.1-1.39,3.1-3.1v-80.19c0-1.71-1.39-3.1-3.1-3.1h-22.62v86.4Z" fill="#00a28a" stroke="#fff" stroke-width="2"/>
    <path d="M206.14,324h56.55v-86.4h-56.55c-1.71,0-3.1,1.39-3.1,3.1v80.19c0,1.71,1.39,3.1,3.1,3.1Z" fill="#6c297b" stroke="#fff" stroke-width="2"/>
    <path d="M262.7,324h57.51c1.71,0,3.1-1.39,3.1-3.1v-80.19c0-1.71-1.39-3.1-3.1-3.1h-57.51v86.4Z" fill="#00a28a" stroke="#fff" stroke-width="2"/>
    <path d="M326.41,324h62.06v-86.4h-62.06c-1.71,0-3.1,1.39-3.1,3.1v80.19c0,1.71,1.39,3.1,3.1,3.1Z" fill="#6c297b" stroke="#fff" stroke-width="2"/>
    <path d="M388.47,324h32.28c1.71,0,3.1-1.39,3.1-3.1v-80.19c0-1.71-1.39-3.1-3.1-3.1h-32.28v86.4Z" fill="#00a28a" stroke="#fff" stroke-width="2"/>
    <path d="M206.14,151.2h53.9v-86.4h-53.9c-1.71,0-3.1,1.39-3.1,3.1v80.19c0,1.71,1.39,3.1,3.1,3.1Z" fill="#6c297b" stroke="#fff" stroke-width="2"/>
    <path d="M260.04,151.2h64.14c1.71,0,3.1-1.39,3.1-3.1v-80.19c0-1.71-1.39-3.1-3.1-3.1h-64.14v86.4Z" fill="#00a28a" stroke="#fff" stroke-width="2"/>
    <path d="M330.39,151.2h54.06v-86.4h-54.06c-1.71,0-3.1,1.39-3.1,3.1v80.19c0,1.71,1.39,3.1,3.1,3.1Z" fill="#6c297b" stroke="#fff" stroke-width="2"/>
    <path d="M384.45,151.2h66.05c1.71,0,3.1-1.39,3.1-3.1v-80.19c0-1.71-1.39-3.1-3.1-3.1h-66.05v86.4Z" fill="#00a28a" stroke="#fff" stroke-width="2"/>
    <text transform="translate(106.66 100.38)" fill="#fff" font-family="OpenSans-Bold, &apos;Open Sans&apos;" font-size="10" font-weight="700"><tspan x="0" y="0">8,696</tspan></text>
    <path d="M423.86,240.7v65.26h29.74v-65.26c0-1.71-1.39-3.1-3.1-3.1h-23.53c-1.71,0-3.1,1.39-3.1,3.1Z" fill="#6c297b" stroke="#fff" stroke-width="2"/>
    <path d="M423.86,305.96v14.93c0,1.71,1.39,3.1,3.1,3.1h23.53c1.71,0,3.1-1.39,3.1-3.1v-14.93s-29.74,0-29.74,0Z" fill="#00a28a" stroke="#fff" stroke-width="2"/>
    <text transform="translate(14.4 21.6) rotate(.17)" font-family="TradeGothicLT-Bold, &apos;TradeGothic LT Bold&apos;" font-size="20" font-weight="700"><tspan x="0" y="0">Community Spaces across Canada</tspan></text>
    <text transform="translate(14.4 38.88)" font-size="12"><tspan x="0" y="0" font-family="OpenSans, &apos;Open Sans&apos;">Inventory of </tspan><tspan x="70.8" y="0" font-family="OpenSans-Bold, &apos;Open Sans&apos;" font-weight="700">69,052 </tspan><tspan x="111.64" y="0" font-family="OpenSans, &apos;Open Sans&apos;">publicly owned culture, recreation, and sports facilities across </tspan><tspan x="0" y="14.4" fill="#fff" font-family="OpenSans-Bold, &apos;Open Sans&apos;" font-weight="700">urban </tspan><tspan x="39.18" y="14.4" font-family="OpenSans, &apos;Open Sans&apos;">and </tspan><tspan x="63.69" y="14.4" fill="#fff" font-family="OpenSans-Bold, &apos;Open Sans&apos;" font-weight="700">rural </tspan><tspan x="96.5" y="14.4" font-family="OpenSans, &apos;Open Sans&apos;">municipalities.</tspan></text>
    <path d="M203.04,130.34v-62.43c0-1.71-1.39-3.1-3.1-3.1H39.1c-1.71,0-3.1,1.39-3.1,3.1v62.43h167.04Z" fill="#00a28a" stroke="#fff" stroke-width="2"/>
    <g>
      <rect x="36" y="64.8" width="167.04" height="259.2" rx="5.76" ry="5.76" fill="none" stroke="#fff" stroke-width="4"/>
      <rect x="203.04" y="64.8" width="124.25" height="86.4" rx="5.76" ry="5.76" fill="none" stroke="#fff" stroke-width="4"/>
      <rect x="203.04" y="151.2" width="158.32" height="86.4" rx="5.76" ry="5.76" fill="none" stroke="#fff" stroke-width="4"/>
      <rect x="203.04" y="237.6" width="120.27" height="86.4" rx="5.76" ry="5.76" fill="none" stroke="#fff" stroke-width="4"/>
      <rect x="323.31" y="237.6" width="100.55" height="86.4" rx="5.76" ry="5.76" fill="none" stroke="#fff" stroke-width="4"/>
      <rect x="423.86" y="237.6" width="29.42" height="86.4" rx="5.76" ry="5.76" fill="none" stroke="#fff" stroke-width="4"/>
      <rect x="361.37" y="151.2" width="92.23" height="86.4" rx="5.76" ry="5.76" fill="none" stroke="#fff" stroke-width="4"/>
      <rect x="327.29" y="64.8" width="126.31" height="86.4" rx="5.76" ry="5.76" fill="none" stroke="#fff" stroke-width="4"/>
    </g>
    <path id="path37" d="M0,331.2h489.6" fill="none" stroke="#231f20" stroke-miterlimit="3" stroke-width=".57"/>
    <text transform="translate(7.37 340.45)" font-size="8"><tspan x="0" y="0" font-family="OpenSans-Bold, &apos;Open Sans&apos;" font-weight="700">Data Sources:</tspan><tspan x="54.48" y="0" xml:space="preserve" font-family="OpenSans, &apos;Open Sans&apos;"> Canada&apos;s Core Public Infrastructure Survey (2025)</tspan></text>
  </g>
  <g id="Layer_5" data-name="Layer 5">
    <text transform="translate(210.24 313.85)" font-family="OpenSans-Bold, &apos;Open Sans&apos;" font-size="10" font-weight="700"><tspan x="0" y="0" fill="#fff">Ice Faciliti</tspan><tspan x="50.18" y="0" fill="#00a28a" stroke="#00a28a" stroke-miterlimit="10">es</tspan></text>
    <text transform="translate(330.51 301.85)" font-family="OpenSans-Bold, &apos;Open Sans&apos;" font-size="10" font-weight="700"><tspan x="0" y="0" fill="#6c297b" stroke="#6c297b" stroke-miterlimit="10">Multi-purpo</tspan><tspan x="59.62" y="0" fill="#fff">se</tspan><tspan fill="#fff"><tspan x="0" y="12">buildings</tspan></tspan></text>
    <text transform="translate(210.24 129.05)" font-family="OpenSans-Bold, &apos;Open Sans&apos;" font-size="10" font-weight="700"><tspan x="0" y="0" fill="#6c297b" stroke="#6c297b">Arts &amp; Cul</tspan><tspan x="49.44" y="0" fill="#00a28a" stroke="#00a28a">ture</tspan><tspan fill="#fff"><tspan x="0" y="12">Facilities</tspan></tspan></text>
    <text transform="translate(368.56 215.45)" font-family="OpenSans-Bold, &apos;Open Sans&apos;" font-size="10" font-weight="700"><tspan fill="#fff"><tspan x="0" y="0">Outdoor</tspan></tspan><tspan x="0" y="12" fill="#fff">Speciality A</tspan><tspan x="57.61" y="12" fill="#00a28a" stroke="#00a28a" stroke-miterlimit="10">reas</tspan></text>
    <text transform="translate(453.6 259.95) rotate(90)" fill="#231f20" font-family="OpenSans-Bold, &apos;Open Sans&apos;" font-size="10" font-weight="700"><tspan x="0" y="0">Indoor Pools</tspan></text>
    <text transform="translate(334.49 141.05)" font-family="OpenSans-Bold, &apos;Open Sans&apos;" font-size="10" font-weight="700"><tspan x="0" y="0" fill="#fff">Communi</tspan><tspan x="48.4" y="0" fill="#00a28a" stroke="#00a28a" stroke-miterlimit="10">ty Centres</tspan></text>
    <g>
      <text transform="translate(43.2 313.85)" fill="#fff" font-family="OpenSans-Bold, &apos;Open Sans&apos;" font-size="10" font-weight="700"><tspan x="0" y="0">Parks</tspan></text>
      <text transform="translate(210.24 215.45)" fill="#fff" font-family="OpenSans-Bold, &apos;Open Sans&apos;" font-size="10" font-weight="700"><tspan x="0" y="0">Outdoor Sports</tspan><tspan x="0" y="12">Facilities</tspan></text>
      <text transform="translate(210.24 129.05)" fill="#fff" font-family="OpenSans-Bold, &apos;Open Sans&apos;" font-size="10" font-weight="700"><tspan x="0" y="0">Arts &amp; Culture</tspan><tspan x="0" y="12">Facilities</tspan></text>
      <text transform="translate(334.49 141.05)" fill="#fff" font-family="OpenSans-Bold, &apos;Open Sans&apos;" font-size="10" font-weight="700"><tspan x="0" y="0">Community Centres</tspan></text>
      <text transform="translate(368.56 215.45)" fill="#fff" font-family="OpenSans-Bold, &apos;Open Sans&apos;" font-size="10" font-weight="700"><tspan x="0" y="0">Outdoor</tspan><tspan x="0" y="12">Speciality Areas</tspan></text>
      <text transform="translate(330.51 301.85)" fill="#fff" font-family="OpenSans-Bold, &apos;Open Sans&apos;" font-size="10" font-weight="700"><tspan x="0" y="0">Multi-purpose</tspan><tspan x="0" y="12">buildings</tspan></text>
      <text transform="translate(210.24 313.85)" fill="#fff" font-family="OpenSans-Bold, &apos;Open Sans&apos;" font-size="10" font-weight="700"><tspan x="0" y="0">Ice Facilities</tspan></text>
    </g>
    <g>
      <text transform="translate(105.37 229.98)" fill="#f1f2f2" font-family="OpenSans-Bold, &apos;Open Sans&apos;" font-size="9" font-weight="700"><tspan x="0" y="0">34,393</tspan></text>
      <text transform="translate(219.96 110.81)" fill="#f1f2f2" font-family="OpenSans-Bold, &apos;Open Sans&apos;" font-size="9" font-weight="700"><tspan x="0" y="0">2,097</tspan></text>
      <text transform="translate(282.09 110.81)" fill="#f1f2f2" font-family="OpenSans-Bold, &apos;Open Sans&apos;" font-size="9" font-weight="700"><tspan x="0" y="0">2,474</tspan></text>
      <text transform="translate(252.43 197.21)" fill="#f1f2f2" font-family="OpenSans-Bold, &apos;Open Sans&apos;" font-size="9" font-weight="700"><tspan x="0" y="0">5,342</tspan></text>
      <text transform="translate(221.29 283.61)" fill="#f1f2f2" font-family="OpenSans-Bold, &apos;Open Sans&apos;" font-size="9" font-weight="700"><tspan x="0" y="0">1,374</tspan></text>
      <text transform="translate(282.09 283.61)" fill="#f1f2f2" font-family="OpenSans-Bold, &apos;Open Sans&apos;" font-size="9" font-weight="700"><tspan x="0" y="0">1,396</tspan></text>
      <text transform="translate(341.28 283.61)" fill="#f1f2f2" font-family="OpenSans-Bold, &apos;Open Sans&apos;" font-size="9" font-weight="700"><tspan x="0" y="0">1,501</tspan></text>
      <text transform="translate(398.83 283.61)" fill="#f1f2f2" font-family="OpenSans-Bold, &apos;Open Sans&apos;" font-size="9" font-weight="700"><tspan x="0" y="0">815</tspan></text>
      <text transform="translate(331.59 197.21)" fill="#f1f2f2" font-family="OpenSans-Bold, &apos;Open Sans&apos;" font-size="9" font-weight="700"><tspan x="0" y="0">1,594</tspan></text>
      <text transform="translate(383.04 197.21)" fill="#f1f2f2" font-family="OpenSans-Bold, &apos;Open Sans&apos;" font-size="9" font-weight="700"><tspan x="0" y="0">2,914</tspan></text>
      <text transform="translate(344.29 110.81)" fill="#f1f2f2" font-family="OpenSans-Bold, &apos;Open Sans&apos;" font-size="9" font-weight="700"><tspan x="0" y="0">2,103</tspan></text>
      <text transform="translate(407.45 110.81)" fill="#f1f2f2" font-family="OpenSans-Bold, &apos;Open Sans&apos;" font-size="9" font-weight="700"><tspan x="0" y="0">2,544</tspan></text>
      <text transform="translate(431.01 277.65)" fill="#f1f2f2" font-family="OpenSans-Bold, &apos;Open Sans&apos;" font-size="9" font-weight="700"><tspan x="0" y="0">542</tspan></text>
      <text transform="translate(431.01 317.79)" fill="#f1f2f2" font-family="OpenSans-Bold, &apos;Open Sans&apos;" font-size="9" font-weight="700"><tspan x="0" y="0">143</tspan></text>
      <text transform="translate(428.48 197.21)" fill="#f1f2f2" font-family="OpenSans-Bold, &apos;Open Sans&apos;" font-size="9" font-weight="700" stroke="#00a28a" stroke-miterlimit="10"><tspan x="0" y="0">1,127</tspan></text>
      <text transform="translate(107.94 100.38)" fill="#f1f2f2" font-family="OpenSans-Bold, &apos;Open Sans&apos;" font-size="9" font-weight="700"><tspan x="0" y="0">8,696</tspan></text>
      <text transform="translate(428.48 197.21)" fill="#f1f2f2" font-family="OpenSans-Bold, &apos;Open Sans&apos;" font-size="9" font-weight="700"><tspan x="0" y="0">1,127</tspan></text>
    </g>
  </g>
</svg>