<?xml version="1.0" encoding="UTF-8"?>
<svg xmlns="http://www.w3.org/2000/svg" viewBox="0 0 489.6 338.4">
  <g id="Layer_6" data-name="Layer 6">
    <rect x="183.6" y="270" width="122.4" height="21.6" fill="none" stroke="#000" stroke-dasharray=".5 2" stroke-miterlimit="10" stroke-width=".5"/>
    <rect x="183.6" y="226.8" width="122.4" height="21.6" fill="none" stroke="#000" stroke-dasharray=".5 2" stroke-miterlimit="10" stroke-width=".5"/>
    <rect x="183.6" y="183.6" width="122.4" height="21.6" fill="none" stroke="#000" stroke-dasharray=".5 2" stroke-miterlimit="10" stroke-width=".5"/>
    <rect x="183.6" y="140.4" width="122.4" height="21.6" fill="none" stroke="#000" stroke-dasharray=".5 2" stroke-miterlimit="10" stroke-width=".5"/>
    <rect x="183.6" y="97.2" width="122.4" height="21.6" fill="none" stroke="#000" stroke-dasharray=".5 2" stroke-miterlimit="10" stroke-width=".5"/>
    <path d="M448.05,165.6v14.4c0,1.99-1.61,3.6-3.6,3.6h-142.05v-21.6h142.05c1.99,0,3.6,1.61,3.6,3.6Z" fill="#00a28a" stroke="#fff" stroke-miterlimit="10" stroke-width=".5"/>
    <path d="M437.13,187.2v14.4c0,1.99-1.61,3.6-3.6,3.6h-131.13v-21.6h131.13c1.99,0,3.6,1.61,3.6,3.6Z" fill="#00a28a" stroke="#fff" stroke-miterlimit="10" stroke-width=".5"/>
    <path d="M402.05,208.8v14.4c0,1.99-1.61,3.6-3.6,3.6h-96.05v-21.6h96.05c1.99,0,3.6,1.61,3.6,3.6Z" fill="#00a28a" stroke="#fff" stroke-miterlimit="10" stroke-width=".5"/>
    <path d="M470.69,144v14.4c0,1.99-1.61,3.6-3.6,3.6h-164.69v-21.6h164.69c1.99,0,3.6,1.61,3.6,3.6Z" fill="#00a28a" stroke="#fff" stroke-miterlimit="10" stroke-width=".5"/>
    <path d="M472.37,273.6v14.4c0,1.99-1.61,3.6-3.6,3.6h-166.37v-21.6h166.37c1.99,0,3.6,1.61,3.6,3.6Z" fill="#00a28a" stroke="#fff" stroke-miterlimit="10" stroke-width=".5"/>
    <path d="M447.18,100.8v14.4c0,1.99-1.61,3.6-3.6,3.6h-141.18v-21.6h141.18c1.99,0,3.6,1.61,3.6,3.6Z" fill="#00a28a" stroke="#fff" stroke-miterlimit="10" stroke-width=".5"/>
    <path d="M443.61,122.4v14.4c0,1.99-1.61,3.6-3.6,3.6h-137.61v-21.6h137.61c1.99,0,3.6,1.61,3.6,3.6Z" fill="#00a28a" stroke="#fff" stroke-miterlimit="10" stroke-width=".5"/>
    <path d="M445.8,230.4v14.4c0,1.99-1.61,3.6-3.6,3.6h-139.8v-21.6h139.8c1.99,0,3.6,1.61,3.6,3.6Z" fill="#00a28a" stroke="#fff" stroke-miterlimit="10" stroke-width=".5"/>
    <path d="M443.54,252v14.4c0,1.99-1.61,3.6-3.6,3.6h-137.54v-21.6h137.54c1.99,0,3.6,1.61,3.6,3.6Z" fill="#00a28a" stroke="#fff" stroke-miterlimit="10" stroke-width=".5"/>
    <path d="M187.2,162v21.6h-106.09c-1.99,0-3.6-1.61-3.6-3.6v-14.4c0-1.99,1.61-3.6,3.6-3.6h106.09Z" fill="#ab2069" stroke="#fff" stroke-miterlimit="10" stroke-width=".5"/>
    <path d="M187.2,183.6v21.6h-102.89c-1.99,0-3.6-1.61-3.6-3.6v-14.4c0-1.99,1.61-3.6,3.6-3.6h102.89Z" fill="#ab2069" stroke="#fff" stroke-miterlimit="10" stroke-width=".5"/>
    <path d="M187.2,205.2v21.6H32.7c-1.99,0-3.6-1.61-3.6-3.6v-14.4c0-1.99,1.61-3.6,3.6-3.6h154.5Z" fill="#ab2069" stroke="#fff" stroke-miterlimit="10" stroke-width=".5"/>
    <path d="M187.2,140.4v21.6h-77.71c-1.99,0-3.6-1.61-3.6-3.6v-14.4c0-1.99,1.61-3.6,3.6-3.6h77.71Z" fill="#ab2069" stroke="#fff" stroke-miterlimit="10" stroke-width=".5"/>
    <path d="M187.2,270v21.6h-77.71c-1.99,0-3.6-1.61-3.6-3.6v-14.4c0-1.99,1.61-3.6,3.6-3.6h77.71Z" fill="#ab2069" stroke="#fff" stroke-miterlimit="10" stroke-width=".5"/>
    <path d="M187.2,97.2v21.6h-104.35c-1.99,0-3.6-1.61-3.6-3.6v-14.4c0-1.99,1.61-3.6,3.6-3.6h104.35Z" fill="#ab2069" stroke="#fff" stroke-miterlimit="10" stroke-width=".5"/>
    <path d="M187.2,118.8v21.6h-108.21c-1.99,0-3.6-1.61-3.6-3.6v-14.4c0-1.99,1.61-3.6,3.6-3.6h108.21Z" fill="#ab2069" stroke="#fff" stroke-miterlimit="10" stroke-width=".5"/>
    <path d="M187.2,226.8v21.6h-107.48c-1.99,0-3.6-1.61-3.6-3.6v-14.4c0-1.99,1.61-3.6,3.6-3.6h107.48Z" fill="#ab2069" stroke="#fff" stroke-miterlimit="10" stroke-width=".5"/>
    <path d="M187.2,248.4v21.6h-111.34c-1.99,0-3.6-1.61-3.6-3.6v-14.4c0-1.99,1.61-3.6,3.6-3.6h111.34Z" fill="#ab2069" stroke="#fff" stroke-miterlimit="10" stroke-width=".5"/>
  </g>
  <g id="Layer_1" data-name="Layer 1">
    <line x1="331.52" y1="86.4" x2="331.52" y2="302.4" fill="none" stroke="#000" stroke-dasharray=".5 2" stroke-miterlimit="10" stroke-width=".5"/>
    <line x1="360.63" y1="86.4" x2="360.63" y2="302.4" fill="none" stroke="#000" stroke-dasharray=".5 2" stroke-miterlimit="10" stroke-width=".5"/>
    <line x1="389.75" y1="86.4" x2="389.75" y2="302.4" fill="none" stroke="#000" stroke-dasharray=".5 2" stroke-miterlimit="10" stroke-width=".5"/>
    <line x1="418.86" y1="86.4" x2="418.86" y2="302.4" fill="none" stroke="#000" stroke-dasharray=".5 2" stroke-miterlimit="10" stroke-width=".5"/>
    <line x1="447.98" y1="86.4" x2="447.98" y2="302.4" fill="none" stroke="#000" stroke-dasharray=".5 2" stroke-miterlimit="10" stroke-width=".5"/>
    <text transform="translate(209.93 177.38)" font-family="OpenSans-Bold, &apos;Open Sans&apos;" font-size="12" font-weight="700"><tspan x="0" y="0">Immigrants</tspan></text>
    <text transform="translate(211.72 198.98)" font-family="OpenSans-Bold, &apos;Open Sans&apos;" font-size="12" font-weight="700"><tspan x="0" y="0">Indigenous</tspan></text>
    <text transform="translate(222.79 285.38)" font-family="OpenSans-Bold, &apos;Open Sans&apos;" font-size="12" font-weight="700"><tspan x="0" y="0">Retired</tspan></text>
    <text transform="translate(219.68 263.78)" font-family="OpenSans-Bold, &apos;Open Sans&apos;" font-size="12" font-weight="700"><tspan x="0" y="0">Working</tspan></text>
    <text transform="translate(197.8 242.18)" font-family="OpenSans-Bold, &apos;Open Sans&apos;" font-size="12" font-weight="700"><tspan x="0" y="0">Visible Minority</tspan></text>
    <text transform="translate(217.92 220.58)" font-family="OpenSans-Bold, &apos;Open Sans&apos;" font-size="12" font-weight="700"><tspan x="0" y="0">LGBTQ2+</tspan></text>
    <text transform="translate(226.18 134.18)" font-family="OpenSans-Bold, &apos;Open Sans&apos;" font-size="12" font-weight="700"><tspan x="0" y="0">Urban</tspan></text>
    <text transform="translate(228.72 155.78)" font-family="OpenSans-Bold, &apos;Open Sans&apos;" font-size="12" font-weight="700"><tspan x="0" y="0">Rural</tspan></text>
    <text transform="translate(237 112.58)" font-family="OpenSans-Bold, &apos;Open Sans&apos;" font-size="12" font-weight="700"><tspan x="0" y="0">All</tspan></text>
    <text transform="translate(323.65 313.2)" fill="#939598" font-family="OpenSans, &apos;Open Sans&apos;" font-size="8"><tspan x="0" y="0">10%</tspan></text>
    <text transform="translate(150.08 313.2)" fill="#939598" font-family="OpenSans, &apos;Open Sans&apos;" font-size="8"><tspan x="0" y="0">10%</tspan></text>
    <text transform="translate(381.88 313.2)" fill="#939598" font-family="OpenSans, &apos;Open Sans&apos;" font-size="8"><tspan x="0" y="0">30%</tspan></text>
    <text transform="translate(91.76 313.2)" fill="#939598" font-family="OpenSans, &apos;Open Sans&apos;" font-size="8"><tspan x="0" y="0">30%</tspan></text>
    <text transform="translate(440.11 313.2)" fill="#939598" font-family="OpenSans, &apos;Open Sans&apos;" font-size="8"><tspan x="0" y="0">50%</tspan></text>
    <text transform="translate(33.61 313.2)" fill="#939598" font-family="OpenSans, &apos;Open Sans&apos;" font-size="8"><tspan x="0" y="0">50%</tspan></text>
    <text transform="translate(302.4 68.4)" fill="#00a28a" font-size="12"><tspan font-family="OpenSans-Bold, &apos;Open Sans&apos;" font-weight="700"><tspan x="0" y="0">strong sense of belonging</tspan></tspan><tspan font-family="OpenSans, &apos;Open Sans&apos;"><tspan x="0" y="14.4">to local community</tspan></tspan></text>
    <text transform="translate(40.96 68.4)" fill="#ab2069" font-size="12"><tspan font-family="OpenSans-Bold, &apos;Open Sans&apos;" font-weight="700"><tspan x="0" y="0">weak sense of belonging</tspan></tspan><tspan font-family="OpenSans, &apos;Open Sans&apos;"><tspan x="39.49" y="14.4">to local community</tspan></tspan></text>
    <text transform="translate(14.4 21.6) rotate(.17)" font-family="TradeGothicLT-Bold, &apos;TradeGothic LT Bold&apos;" font-size="20" font-weight="700"><tspan x="0" y="0">Rural residents feel a stronger sense of belonging </tspan><tspan x="0" y="24">than Urban Canadians</tspan></text>
    <path id="path37" d="M0,324h489.6" fill="none" stroke="#231f20" stroke-miterlimit="3" stroke-width=".57"/>
    <text transform="translate(7.37 333.25)" font-size="8"><tspan x="0" y="0" font-family="OpenSans-Bold, &apos;Open Sans&apos;" font-weight="700">Data Sources:</tspan><tspan x="54.48" y="0" xml:space="preserve" font-family="OpenSans, &apos;Open Sans&apos;"> Canadian Social Survey (2025)</tspan></text>
    <line x1="70.59" y1="86.4" x2="70.59" y2="302.4" fill="none" stroke="#000" stroke-dasharray=".5 2" stroke-miterlimit="10" stroke-width=".5"/>
    <line x1="41.48" y1="86.4" x2="41.48" y2="302.4" fill="none" stroke="#000" stroke-dasharray=".5 2" stroke-miterlimit="10" stroke-width=".5"/>
    <line x1="70.59" y1="86.4" x2="70.59" y2="302.4" fill="none" stroke="#000" stroke-dasharray=".5 2" stroke-miterlimit="10" stroke-width=".5"/>
    <line x1="99.71" y1="86.4" x2="99.71" y2="302.4" fill="none" stroke="#000" stroke-dasharray=".5 2" stroke-miterlimit="10" stroke-width=".5"/>
    <line x1="128.83" y1="86.4" x2="128.83" y2="302.4" fill="none" stroke="#000" stroke-dasharray=".5 2" stroke-miterlimit="10" stroke-width=".5"/>
    <line x1="157.94" y1="86.4" x2="157.94" y2="302.4" fill="none" stroke="#000" stroke-dasharray=".5 2" stroke-miterlimit="10" stroke-width=".5"/>
    <g>
      <text transform="translate(82.85 111.55)" fill="#fff" font-family="OpenSans, &apos;Open Sans&apos;" font-size="8"><tspan x="0" y="0">37%</tspan></text>
      <text transform="translate(78.99 133.15)" fill="#fff" font-family="OpenSans, &apos;Open Sans&apos;" font-size="8"><tspan x="0" y="0">38%</tspan></text>
      <text transform="translate(32.7 219.56)" fill="#fff" font-family="OpenSans, &apos;Open Sans&apos;" font-size="8"><tspan x="0" y="0">54%</tspan></text>
      <text transform="translate(109.49 154.76)" fill="#fff" font-family="OpenSans, &apos;Open Sans&apos;" font-size="8"><tspan x="0" y="0">28%</tspan></text>
      <text transform="translate(81.1 176.36)" fill="#fff" font-family="OpenSans, &apos;Open Sans&apos;" font-size="8"><tspan x="0" y="0">38%</tspan></text>
      <text transform="translate(84.31 197.96)" fill="#fff" font-family="OpenSans, &apos;Open Sans&apos;" font-size="8"><tspan x="0" y="0">37%</tspan></text>
      <text transform="translate(79.72 241.17)" fill="#fff" font-family="OpenSans, &apos;Open Sans&apos;" font-size="8"><tspan x="0" y="0">38%</tspan></text>
      <text transform="translate(75.86 262.77)" fill="#fff" font-family="OpenSans, &apos;Open Sans&apos;" font-size="8"><tspan x="0" y="0">39%</tspan></text>
      <text transform="translate(109.49 284.37)" fill="#fff" font-family="OpenSans, &apos;Open Sans&apos;" font-size="8"><tspan x="0" y="0">28%</tspan></text>
    </g>
    <g>
      <text transform="translate(427.85 111.55)" fill="#fff" font-family="OpenSans, &apos;Open Sans&apos;" font-size="8"><tspan x="0" y="0">50%</tspan></text>
      <text transform="translate(424.28 133.15)" fill="#fff" font-family="OpenSans, &apos;Open Sans&apos;" font-size="8"><tspan x="0" y="0">49%</tspan></text>
      <text transform="translate(382.72 219.56)" fill="#fff" font-family="OpenSans, &apos;Open Sans&apos;" font-size="8"><tspan x="0" y="0">34%</tspan></text>
      <text transform="translate(451.36 154.76)" fill="#fff" font-family="OpenSans, &apos;Open Sans&apos;" font-size="8"><tspan x="0" y="0">58%</tspan></text>
      <text transform="translate(428.72 176.36)" fill="#fff" font-family="OpenSans, &apos;Open Sans&apos;" font-size="8"><tspan x="0" y="0">50%</tspan></text>
      <text transform="translate(417.8 197.96)" fill="#fff" font-family="OpenSans, &apos;Open Sans&apos;" font-size="8"><tspan x="0" y="0">46%</tspan></text>
      <text transform="translate(426.47 241.17)" fill="#fff" font-family="OpenSans, &apos;Open Sans&apos;" font-size="8"><tspan x="0" y="0">49%</tspan></text>
      <text transform="translate(424.21 262.77)" fill="#fff" font-family="OpenSans, &apos;Open Sans&apos;" font-size="8"><tspan x="0" y="0">48%</tspan></text>
      <text transform="translate(453.03 284.37)" fill="#fff" font-family="OpenSans, &apos;Open Sans&apos;" font-size="8"><tspan x="0" y="0">58%</tspan></text>
    </g>
  </g>
</svg>