<?xml version="1.0" encoding="UTF-8"?>
<svg xmlns="http://www.w3.org/2000/svg" viewBox="0 0 489.6 367.2">
  <g id="Layer_6" data-name="Layer 6">
    <rect x="183.6" y="277.27" width="122.4" height="21.6" fill="none" stroke="#000" stroke-dasharray=".5 2" stroke-miterlimit="10" stroke-width=".5"/>
    <rect x="183.6" y="234.07" width="122.4" height="21.6" fill="none" stroke="#000" stroke-dasharray=".5 2" stroke-miterlimit="10" stroke-width=".5"/>
    <rect x="183.6" y="190.87" width="122.4" height="21.6" fill="none" stroke="#000" stroke-dasharray=".5 2" stroke-miterlimit="10" stroke-width=".5"/>
    <rect x="183.6" y="147.67" width="122.4" height="21.6" fill="none" stroke="#000" stroke-dasharray=".5 2" stroke-miterlimit="10" stroke-width=".5"/>
    <rect x="183.6" y="104.47" width="122.4" height="21.6" fill="none" stroke="#000" stroke-dasharray=".5 2" stroke-miterlimit="10" stroke-width=".5"/>
    <path d="M448.05,172.87v14.4c0,1.99-1.61,3.6-3.6,3.6h-142.05v-21.6h142.05c1.99,0,3.6,1.61,3.6,3.6Z" fill="#00a28a" stroke="#fff" stroke-miterlimit="10" stroke-width=".5"/>
    <path d="M437.13,194.47v14.4c0,1.99-1.61,3.6-3.6,3.6h-131.13v-21.6h131.13c1.99,0,3.6,1.61,3.6,3.6Z" fill="#00a28a" stroke="#fff" stroke-miterlimit="10" stroke-width=".5"/>
    <path d="M402.05,216.07v14.4c0,1.99-1.61,3.6-3.6,3.6h-96.05v-21.6h96.05c1.99,0,3.6,1.61,3.6,3.6Z" fill="#00a28a" stroke="#fff" stroke-miterlimit="10" stroke-width=".5"/>
    <path d="M470.69,151.27v14.4c0,1.99-1.61,3.6-3.6,3.6h-164.69v-21.6h164.69c1.99,0,3.6,1.61,3.6,3.6Z" fill="#00a28a" stroke="#fff" stroke-miterlimit="10" stroke-width=".5"/>
    <path d="M472.37,280.87v14.4c0,1.99-1.61,3.6-3.6,3.6h-166.37v-21.6h166.37c1.99,0,3.6,1.61,3.6,3.6Z" fill="#00a28a" stroke="#fff" stroke-miterlimit="10" stroke-width=".5"/>
    <path d="M447.18,108.07v14.4c0,1.99-1.61,3.6-3.6,3.6h-141.18v-21.6h141.18c1.99,0,3.6,1.61,3.6,3.6Z" fill="#00a28a" stroke="#fff" stroke-miterlimit="10" stroke-width=".5"/>
    <path d="M443.61,129.67v14.4c0,1.99-1.61,3.6-3.6,3.6h-137.61v-21.6h137.61c1.99,0,3.6,1.61,3.6,3.6Z" fill="#00a28a" stroke="#fff" stroke-miterlimit="10" stroke-width=".5"/>
    <path d="M445.8,237.67v14.4c0,1.99-1.61,3.6-3.6,3.6h-139.8v-21.6h139.8c1.99,0,3.6,1.61,3.6,3.6Z" fill="#00a28a" stroke="#fff" stroke-miterlimit="10" stroke-width=".5"/>
    <path d="M443.54,259.27v14.4c0,1.99-1.61,3.6-3.6,3.6h-137.54v-21.6h137.54c1.99,0,3.6,1.61,3.6,3.6Z" fill="#00a28a" stroke="#fff" stroke-miterlimit="10" stroke-width=".5"/>
    <path d="M187.2,169.27v21.6h-106.09c-1.99,0-3.6-1.61-3.6-3.6v-14.4c0-1.99,1.61-3.6,3.6-3.6h106.09Z" fill="#ab2069" stroke="#fff" stroke-miterlimit="10" stroke-width=".5"/>
    <path d="M187.2,190.87v21.6h-102.89c-1.99,0-3.6-1.61-3.6-3.6v-14.4c0-1.99,1.61-3.6,3.6-3.6h102.89Z" fill="#ab2069" stroke="#fff" stroke-miterlimit="10" stroke-width=".5"/>
    <path d="M187.2,212.47v21.6H32.7c-1.99,0-3.6-1.61-3.6-3.6v-14.4c0-1.99,1.61-3.6,3.6-3.6h154.5Z" fill="#ab2069" stroke="#fff" stroke-miterlimit="10" stroke-width=".5"/>
    <path d="M187.2,147.67v21.6h-77.71c-1.99,0-3.6-1.61-3.6-3.6v-14.4c0-1.99,1.61-3.6,3.6-3.6h77.71Z" fill="#ab2069" stroke="#fff" stroke-miterlimit="10" stroke-width=".5"/>
    <path d="M187.2,277.27v21.6h-77.71c-1.99,0-3.6-1.61-3.6-3.6v-14.4c0-1.99,1.61-3.6,3.6-3.6h77.71Z" fill="#ab2069" stroke="#fff" stroke-miterlimit="10" stroke-width=".5"/>
    <path d="M187.2,104.47v21.6h-104.35c-1.99,0-3.6-1.61-3.6-3.6v-14.4c0-1.99,1.61-3.6,3.6-3.6h104.35Z" fill="#ab2069" stroke="#fff" stroke-miterlimit="10" stroke-width=".5"/>
    <path d="M187.2,126.07v21.6h-108.21c-1.99,0-3.6-1.61-3.6-3.6v-14.4c0-1.99,1.61-3.6,3.6-3.6h108.21Z" fill="#ab2069" stroke="#fff" stroke-miterlimit="10" stroke-width=".5"/>
    <path d="M187.2,234.07v21.6h-107.48c-1.99,0-3.6-1.61-3.6-3.6v-14.4c0-1.99,1.61-3.6,3.6-3.6h107.48Z" fill="#ab2069" stroke="#fff" stroke-miterlimit="10" stroke-width=".5"/>
    <path d="M187.2,255.67v21.6h-111.34c-1.99,0-3.6-1.61-3.6-3.6v-14.4c0-1.99,1.61-3.6,3.6-3.6h111.34Z" fill="#ab2069" stroke="#fff" stroke-miterlimit="10" stroke-width=".5"/>
  </g>
  <g id="Layer_1" data-name="Layer 1">
    <line x1="331.52" y1="97.2" x2="331.52" y2="309.67" fill="none" stroke="#000" stroke-dasharray=".5 2.5" stroke-miterlimit="10" stroke-width=".25"/>
    <line x1="360.63" y1="97.2" x2="360.63" y2="309.67" fill="none" stroke="#000" stroke-dasharray=".5 2.5" stroke-miterlimit="10" stroke-width=".25"/>
    <line x1="389.75" y1="97.2" x2="389.75" y2="309.67" fill="none" stroke="#000" stroke-dasharray=".5 2.5" stroke-miterlimit="10" stroke-width=".25"/>
    <line x1="418.86" y1="97.2" x2="418.86" y2="309.67" fill="none" stroke="#000" stroke-dasharray=".5 2.5" stroke-miterlimit="10" stroke-width=".25"/>
    <line x1="447.98" y1="97.2" x2="447.98" y2="309.67" fill="none" stroke="#000" stroke-dasharray=".5 2.5" stroke-miterlimit="10" stroke-width=".25"/>
    <text transform="translate(209.93 184.65)" font-family="OpenSans-Bold, &apos;Open Sans&apos;" font-size="12" font-weight="700"><tspan x="0" y="0">Immigrants</tspan></text>
    <text transform="translate(211.72 206.25)" font-family="OpenSans-Bold, &apos;Open Sans&apos;" font-size="12" font-weight="700"><tspan x="0" y="0">Indigenous</tspan></text>
    <text transform="translate(222.79 292.65)" font-family="OpenSans-Bold, &apos;Open Sans&apos;" font-size="12" font-weight="700"><tspan x="0" y="0">Retired</tspan></text>
    <text transform="translate(219.68 271.05)" font-family="OpenSans-Bold, &apos;Open Sans&apos;" font-size="12" font-weight="700"><tspan x="0" y="0">Working</tspan></text>
    <text transform="translate(197.8 249.45)" font-family="OpenSans-Bold, &apos;Open Sans&apos;" font-size="12" font-weight="700"><tspan x="0" y="0">Visible Minority</tspan></text>
    <text transform="translate(217.92 227.85)" font-family="OpenSans-Bold, &apos;Open Sans&apos;" font-size="12" font-weight="700"><tspan x="0" y="0">LGBTQ2+</tspan></text>
    <text transform="translate(226.18 141.45)" font-family="OpenSans-Bold, &apos;Open Sans&apos;" font-size="12" font-weight="700"><tspan x="0" y="0">Urban</tspan></text>
    <text transform="translate(228.72 163.05)" font-family="OpenSans-Bold, &apos;Open Sans&apos;" font-size="12" font-weight="700"><tspan x="0" y="0">Rural</tspan></text>
    <text transform="translate(237 119.85)" font-family="OpenSans-Bold, &apos;Open Sans&apos;" font-size="12" font-weight="700"><tspan x="0" y="0">All</tspan></text>
    <text transform="translate(323.65 320.47)" fill="#939598" font-family="OpenSans, &apos;Open Sans&apos;" font-size="8"><tspan x="0" y="0">10%</tspan></text>
    <text transform="translate(150.08 320.47)" fill="#939598" font-family="OpenSans, &apos;Open Sans&apos;" font-size="8"><tspan x="0" y="0">10%</tspan></text>
    <text transform="translate(381.88 320.47)" fill="#939598" font-family="OpenSans, &apos;Open Sans&apos;" font-size="8"><tspan x="0" y="0">30%</tspan></text>
    <text transform="translate(91.76 320.47)" fill="#939598" font-family="OpenSans, &apos;Open Sans&apos;" font-size="8"><tspan x="0" y="0">30%</tspan></text>
    <text transform="translate(440.11 320.47)" fill="#939598" font-family="OpenSans, &apos;Open Sans&apos;" font-size="8"><tspan x="0" y="0">50%</tspan></text>
    <text transform="translate(33.61 320.47)" fill="#939598" font-family="OpenSans, &apos;Open Sans&apos;" font-size="8"><tspan x="0" y="0">50%</tspan></text>
    <text transform="translate(302.4 75.67)" fill="#00a28a" font-size="12"><tspan font-family="OpenSans-Bold, &apos;Open Sans&apos;" font-weight="700"><tspan x="0" y="0">Strong sense of belonging</tspan></tspan><tspan font-family="OpenSans, &apos;Open Sans&apos;"><tspan x="0" y="14.4">to local community</tspan></tspan></text>
    <text transform="translate(39.63 75.67)" fill="#ab2069" font-size="12"><tspan font-family="OpenSans-Bold, &apos;Open Sans&apos;" font-weight="700"><tspan x="0" y="0">Weak sense of belonging</tspan></tspan><tspan font-family="OpenSans, &apos;Open Sans&apos;"><tspan x="40.82" y="14.4">to local community</tspan></tspan></text>
    <text transform="translate(21.6 36) rotate(.17)" font-family="TradeGothicLT-Bold, &apos;TradeGothic LT Bold&apos;" font-size="20" font-weight="700"><tspan x="0" y="0">Sense of belonging across different groups in Canada</tspan></text>
    <text transform="translate(21.6 350.35)" fill="#999" font-family="OpenSans, &apos;Open Sans&apos;" font-size="8"><tspan x="0" y="0">Data source: Statistics Canada (2024) Canadian Social Survey. Totals may not equal 100% due to respondents selecting </tspan><tspan x="0" y="9.6">&quot;No opinion on sense of belonging to local community&quot; as an option.</tspan></text>
    <line x1="70.59" y1="97.2" x2="70.59" y2="309.67" fill="none" stroke="#000" stroke-dasharray=".5 2.5" stroke-miterlimit="10" stroke-width=".25"/>
    <line x1="41.48" y1="97.2" x2="41.48" y2="309.67" fill="none" stroke="#000" stroke-dasharray=".5 2.5" stroke-miterlimit="10" stroke-width=".25"/>
    <line x1="99.71" y1="97.2" x2="99.71" y2="309.67" fill="none" stroke="#000" stroke-dasharray=".5 2.5" stroke-miterlimit="10" stroke-width=".25"/>
    <line x1="128.83" y1="97.2" x2="128.83" y2="309.67" fill="none" stroke="#000" stroke-dasharray=".5 2.5" stroke-miterlimit="10" stroke-width=".25"/>
    <line x1="157.94" y1="97.2" x2="157.94" y2="309.67" fill="none" stroke="#000" stroke-dasharray=".5 2.5" stroke-miterlimit="10" stroke-width=".25"/>
    <g>
      <text transform="translate(82.85 118.82)" fill="#fff" font-family="OpenSans-Bold, &apos;Open Sans&apos;" font-size="8" font-weight="700"><tspan x="0" y="0">37%</tspan></text>
      <text transform="translate(78.99 140.42)" fill="#fff" font-family="OpenSans-Bold, &apos;Open Sans&apos;" font-size="8" font-weight="700"><tspan x="0" y="0">38%</tspan></text>
      <text transform="translate(32.7 226.83)" fill="#fff" font-family="OpenSans-Bold, &apos;Open Sans&apos;" font-size="8" font-weight="700"><tspan x="0" y="0">54%</tspan></text>
      <text transform="translate(109.49 162.03)" fill="#fff" font-family="OpenSans-Bold, &apos;Open Sans&apos;" font-size="8" font-weight="700"><tspan x="0" y="0">28%</tspan></text>
      <text transform="translate(81.1 183.63)" fill="#fff" font-family="OpenSans-Bold, &apos;Open Sans&apos;" font-size="8" font-weight="700"><tspan x="0" y="0">38%</tspan></text>
      <text transform="translate(84.31 205.23)" fill="#fff" font-family="OpenSans-Bold, &apos;Open Sans&apos;" font-size="8" font-weight="700"><tspan x="0" y="0">37%</tspan></text>
      <text transform="translate(79.72 248.44)" fill="#fff" font-family="OpenSans-Bold, &apos;Open Sans&apos;" font-size="8" font-weight="700"><tspan x="0" y="0">38%</tspan></text>
      <text transform="translate(75.86 270.04)" fill="#fff" font-family="OpenSans-Bold, &apos;Open Sans&apos;" font-size="8" font-weight="700"><tspan x="0" y="0">39%</tspan></text>
      <text transform="translate(109.49 291.64)" fill="#fff" font-family="OpenSans-Bold, &apos;Open Sans&apos;" font-size="8" font-weight="700"><tspan x="0" y="0">28%</tspan></text>
    </g>
    <g>
      <text transform="translate(427.54 118.82)" fill="#fff" font-family="OpenSans-Bold, &apos;Open Sans&apos;" font-size="8" font-weight="700"><tspan x="0" y="0">50%</tspan></text>
      <text transform="translate(423.97 140.42)" fill="#fff" font-family="OpenSans-Bold, &apos;Open Sans&apos;" font-size="8" font-weight="700"><tspan x="0" y="0">49%</tspan></text>
      <text transform="translate(382.41 226.83)" fill="#fff" font-family="OpenSans-Bold, &apos;Open Sans&apos;" font-size="8" font-weight="700"><tspan x="0" y="0">34%</tspan></text>
      <text transform="translate(451.05 162.03)" fill="#fff" font-family="OpenSans-Bold, &apos;Open Sans&apos;" font-size="8" font-weight="700"><tspan x="0" y="0">58%</tspan></text>
      <text transform="translate(428.41 183.63)" fill="#fff" font-family="OpenSans-Bold, &apos;Open Sans&apos;" font-size="8" font-weight="700"><tspan x="0" y="0">50%</tspan></text>
      <text transform="translate(417.49 205.23)" fill="#fff" font-family="OpenSans-Bold, &apos;Open Sans&apos;" font-size="8" font-weight="700"><tspan x="0" y="0">46%</tspan></text>
      <text transform="translate(426.15 248.44)" fill="#fff" font-family="OpenSans-Bold, &apos;Open Sans&apos;" font-size="8" font-weight="700"><tspan x="0" y="0">49%</tspan></text>
      <text transform="translate(423.9 270.04)" fill="#fff" font-family="OpenSans-Bold, &apos;Open Sans&apos;" font-size="8" font-weight="700"><tspan x="0" y="0">48%</tspan></text>
      <text transform="translate(452.72 291.64)" fill="#fff" font-family="OpenSans-Bold, &apos;Open Sans&apos;" font-size="8" font-weight="700"><tspan x="0" y="0">58%</tspan></text>
    </g>
  </g>
  <g id="line">
    <rect x="0" y="21.6" width="14.4" height="14.4"/>
    <path id="path37" d="M0,367.2h489.6" fill="none" stroke="#231f20" stroke-miterlimit="3"/>
    <path id="path37-2" data-name="path37" d="M0,0h489.6" fill="none" stroke="#231f20" stroke-miterlimit="3"/>
  </g>
</svg>