<?xml version="1.0" encoding="UTF-8"?>
<svg xmlns="http://www.w3.org/2000/svg" viewBox="0 0 489.6 324">
  <g id="Layer_2" data-name="Layer 2">
    <path id="path37" d="M0,309.6h489.6" fill="none" stroke="#231f20" stroke-miterlimit="3" stroke-width=".57"/>
    <text transform="translate(7.37 318.85)" font-size="8"><tspan x="0" y="0" font-family="OpenSans-Bold, &apos;Open Sans&apos;" font-weight="700">Data Sources:</tspan><tspan x="54.48" y="0" xml:space="preserve" font-family="OpenSans, &apos;Open Sans&apos;"> HydroSHEDS (2013), Canadian Census (2025)</tspan></text>
  </g>
  <g id="Layer_4" data-name="Layer 4">
    <text transform="translate(104.21 71.41)" fill="#067fa3" font-family="OpenSans-Bold, &apos;Open Sans&apos;" font-size="33" font-weight="700"><tspan x="0" y="0">81%</tspan></text>
    <text transform="translate(176.39 72)" font-family="OpenSans-Bold, &apos;Open Sans&apos;" font-size="10" font-weight="700"><tspan x="0" y="0">from where the majority of Canadians live</tspan></text>
    <text transform="translate(309.6 237.5)" fill="#ab2069" font-family="OpenSans-Bold, &apos;Open Sans&apos;" font-size="33" font-weight="700"><tspan x="0" y="0">97.3%</tspan></text>
    <g>
      <path d="M181.4,198c12.62,20.8,35.49,34.7,61.6,34.7s48.98-13.9,61.6-34.7" fill="#ab2069"/>
      <path d="M304.6,198c6.6-10.88,10.4-23.64,10.4-37.3,0-39.76-32.24-72-72-72s-72,32.24-72,72c0,13.65,3.8,26.42,10.4,37.3" fill="#067fa3"/>
      <line x1="127.8" y1="198" x2="361.8" y2="198" fill="none" stroke="#231f20" stroke-miterlimit="10" stroke-width="2"/>
      <polygon points="197.55 210.52 201.7 201.8 197.55 202.64 193.4 201.8 197.55 210.52" fill="#fff"/>
      <polygon points="298.01 185.48 293.86 194.2 298.01 193.36 302.16 194.2 298.01 185.48" fill="#fff"/>
    </g>
    <text transform="translate(176.59 59.48)" font-family="OpenSans-Bold, &apos;Open Sans&apos;" font-size="16.66" font-weight="700"><tspan x="0" y="0">of river </tspan><tspan x="64.95" y="0" fill="#067fa3" letter-spacing="0em">water flows away</tspan></text>
    <text transform="translate(181.67 269.32)" font-family="OpenSans-Bold, &apos;Open Sans&apos;" font-size="12" font-weight="700"><tspan x="0" y="0">of where the majority of river water flows</tspan></text>
    <text transform="translate(181.13 254.61)" font-family="OpenSans-Bold, &apos;Open Sans&apos;" font-size="12.95" font-weight="700"><tspan x="0" y="0">of the </tspan><tspan x="41.54" y="0" fill="#ab2069">Canadian population lives South</tspan></text>
  </g>
</svg>