<?xml version="1.0" encoding="UTF-8"?>
<svg id="Layer_1" data-name="Layer 1" xmlns="http://www.w3.org/2000/svg" viewBox="0 0 489.6 288">
  <g>
    <line x1="14.4" y1="194.46" x2="475.2" y2="194.46" fill="none" stroke="#000" stroke-dasharray=".25 2" stroke-miterlimit="10" stroke-width=".25"/>
    <line x1="14.4" y1="165.73" x2="475.2" y2="165.73" fill="none" stroke="#000" stroke-dasharray=".25 2" stroke-miterlimit="10" stroke-width=".25"/>
    <line x1="14.4" y1="136.99" x2="475.2" y2="136.99" fill="none" stroke="#000" stroke-dasharray=".25 2" stroke-miterlimit="10" stroke-width=".25"/>
    <line x1="14.4" y1="108.26" x2="475.2" y2="108.26" fill="none" stroke="#000" stroke-dasharray=".25 2" stroke-miterlimit="10" stroke-width=".25"/>
    <line x1="14.4" y1="79.52" x2="475.2" y2="79.52" fill="none" stroke="#000" stroke-dasharray=".25 2" stroke-miterlimit="10" stroke-width=".25"/>
    <line x1="14.4" y1="50.79" x2="475.2" y2="50.79" fill="none" stroke="#000" stroke-dasharray=".25 2" stroke-miterlimit="10" stroke-width=".25"/>
  </g>
  <g>
    <rect x="461.29" y="152.39" width="5.28" height="7.05" fill="#00a28a" opacity=".5" stroke="#fff" stroke-miterlimit="10" stroke-width=".25"/>
    <rect x="461.29" y="159.44" width="5.28" height="3.16" fill="#dc4732" opacity=".5" stroke="#fff" stroke-miterlimit="10" stroke-width=".25"/>
    <rect x="461.29" y="162.6" width="5.28" height="46.65" fill="#067fa3" opacity=".5" stroke="#fff" stroke-miterlimit="10" stroke-width=".25"/>
    <rect x="461.29" y="209.25" width="5.28" height="13.92" fill="#ab2069" opacity=".5" stroke="#fff" stroke-miterlimit="10" stroke-width=".25"/>
    <rect x="461.56" y="152.65" width="4.76" height="6.53" fill="none" stroke="#00a28a" stroke-miterlimit="10" stroke-width=".25"/>
    <rect x="461.56" y="159.7" width="4.76" height="2.65" fill="none" stroke="#dc4732" stroke-miterlimit="10" stroke-width=".25"/>
    <rect x="461.56" y="162.85" width="4.76" height="46.15" fill="none" stroke="#067fa3" stroke-miterlimit="10" stroke-width=".25"/>
    <rect x="461.56" y="209.51" width="4.76" height="13.39" fill="none" stroke="#ab2069" stroke-miterlimit="10" stroke-width=".25"/>
  </g>
  <rect x="50.4" y="142.93" width="5.28" height="1.11" fill="#00a28a" stroke="#fff" stroke-miterlimit="10" stroke-width=".25"/>
  <rect x="56.27" y="149.29" width="5.28" height="1.31" fill="#00a28a" stroke="#fff" stroke-miterlimit="10" stroke-width=".25"/>
  <rect x="62.14" y="152.17" width="5.28" height="1.28" fill="#00a28a" stroke="#fff" stroke-miterlimit="10" stroke-width=".25"/>
  <rect x="68.01" y="127.63" width="5.28" height="1.43" fill="#00a28a" stroke="#fff" stroke-miterlimit="10" stroke-width=".25"/>
  <rect x="73.88" y="141.15" width="5.28" height="1.11" fill="#00a28a" stroke="#fff" stroke-miterlimit="10" stroke-width=".25"/>
  <rect x="79.76" y="160" width="5.28" height="1.34" fill="#00a28a" stroke="#fff" stroke-miterlimit="10" stroke-width=".25"/>
  <rect x="85.63" y="150.3" width="5.28" height="1.08" fill="#00a28a" stroke="#fff" stroke-miterlimit="10" stroke-width=".25"/>
  <rect x="91.5" y="147.67" width="5.28" height="2.17" fill="#00a28a" stroke="#fff" stroke-miterlimit="10" stroke-width=".25"/>
  <rect x="97.37" y="136.92" width="5.28" height="2.26" fill="#00a28a" stroke="#fff" stroke-miterlimit="10" stroke-width=".25"/>
  <rect x="103.24" y="127.04" width="5.28" height="2.76" fill="#00a28a" stroke="#fff" stroke-miterlimit="10" stroke-width=".25"/>
  <rect x="109.11" y="126.51" width="5.28" height="3.08" fill="#00a28a" stroke="#fff" stroke-miterlimit="10" stroke-width=".25"/>
  <rect x="114.98" y="145.13" width="5.28" height="2.9" fill="#00a28a" stroke="#fff" stroke-miterlimit="10" stroke-width=".25"/>
  <rect x="120.85" y="127.93" width="5.28" height="4.29" fill="#00a28a" stroke="#fff" stroke-miterlimit="10" stroke-width=".25"/>
  <rect x="126.73" y="108.92" width="5.28" height="4.67" fill="#00a28a" stroke="#fff" stroke-miterlimit="10" stroke-width=".25"/>
  <rect x="132.6" y="101.07" width="5.28" height="6.22" fill="#00a28a" stroke="#fff" stroke-miterlimit="10" stroke-width=".25"/>
  <rect x="138.47" y="112.61" width="5.28" height="9.9" fill="#00a28a" stroke="#fff" stroke-miterlimit="10" stroke-width=".25"/>
  <rect x="144.34" y="87.58" width="5.28" height="9.09" fill="#00a28a" stroke="#fff" stroke-miterlimit="10" stroke-width=".25"/>
  <rect x="150.21" y="78.14" width="5.28" height="9.85" fill="#00a28a" stroke="#fff" stroke-miterlimit="10" stroke-width=".25"/>
  <rect x="156.08" y="67.34" width="5.28" height="10.03" fill="#00a28a" stroke="#fff" stroke-miterlimit="10" stroke-width=".25"/>
  <rect x="161.95" y="94.27" width="5.28" height="8.66" fill="#00a28a" stroke="#fff" stroke-miterlimit="10" stroke-width=".25"/>
  <rect x="167.82" y="88.86" width="5.28" height="12.63" fill="#00a28a" stroke="#fff" stroke-miterlimit="10" stroke-width=".25"/>
  <rect x="173.7" y="64.63" width="5.28" height="19.54" fill="#00a28a" stroke="#fff" stroke-miterlimit="10" stroke-width=".25"/>
  <rect x="179.57" y="80.58" width="5.28" height="15.45" fill="#00a28a" stroke="#fff" stroke-miterlimit="10" stroke-width=".25"/>
  <rect x="185.44" y="91.05" width="5.28" height="11.83" fill="#00a28a" stroke="#fff" stroke-miterlimit="10" stroke-width=".25"/>
  <rect x="191.31" y="108.82" width="5.28" height="7.69" fill="#00a28a" stroke="#fff" stroke-miterlimit="10" stroke-width=".25"/>
  <rect x="197.18" y="131.13" width="5.28" height="6.62" fill="#00a28a" stroke="#fff" stroke-miterlimit="10" stroke-width=".25"/>
  <rect x="203.05" y="119.89" width="5.28" height="9.01" fill="#00a28a" stroke="#fff" stroke-miterlimit="10" stroke-width=".25"/>
  <rect x="208.92" y="150.13" width="5.28" height="6.96" fill="#00a28a" stroke="#fff" stroke-miterlimit="10" stroke-width=".25"/>
  <rect x="214.79" y="128.79" width="5.28" height="5.52" fill="#00a28a" stroke="#fff" stroke-miterlimit="10" stroke-width=".25"/>
  <rect x="220.67" y="144.89" width="5.28" height="4.83" fill="#00a28a" stroke="#fff" stroke-miterlimit="10" stroke-width=".25"/>
  <rect x="226.54" y="126.94" width="5.28" height="5.39" fill="#00a28a" stroke="#fff" stroke-miterlimit="10" stroke-width=".25"/>
  <rect x="232.41" y="107.23" width="5.28" height="6.08" fill="#00a28a" stroke="#fff" stroke-miterlimit="10" stroke-width=".25"/>
  <rect x="238.28" y="80.42" width="5.28" height="9.87" fill="#00a28a" stroke="#fff" stroke-miterlimit="10" stroke-width=".25"/>
  <rect x="244.15" y="94.02" width="5.28" height="9.85" fill="#00a28a" stroke="#fff" stroke-miterlimit="10" stroke-width=".25"/>
  <rect x="250.02" y="98.18" width="5.28" height="9.44" fill="#00a28a" stroke="#fff" stroke-miterlimit="10" stroke-width=".25"/>
  <rect x="255.89" y="117.77" width="5.28" height="9.42" fill="#00a28a" stroke="#fff" stroke-miterlimit="10" stroke-width=".25"/>
  <rect x="261.76" y="132.53" width="5.28" height="9.7" fill="#00a28a" stroke="#fff" stroke-miterlimit="10" stroke-width=".25"/>
  <rect x="267.64" y="125.52" width="5.28" height="11.61" fill="#00a28a" stroke="#fff" stroke-miterlimit="10" stroke-width=".25"/>
  <rect x="273.51" y="132.96" width="5.28" height="10.94" fill="#00a28a" stroke="#fff" stroke-miterlimit="10" stroke-width=".25"/>
  <rect x="279.38" y="133.77" width="5.28" height="10.01" fill="#00a28a" stroke="#fff" stroke-miterlimit="10" stroke-width=".25"/>
  <rect x="285.25" y="158.79" width="5.28" height="6.9" fill="#00a28a" stroke="#fff" stroke-miterlimit="10" stroke-width=".25"/>
  <rect x="291.12" y="150.8" width="5.28" height="8.33" fill="#00a28a" stroke="#fff" stroke-miterlimit="10" stroke-width=".25"/>
  <rect x="296.99" y="137.84" width="5.28" height="10.01" fill="#00a28a" stroke="#fff" stroke-miterlimit="10" stroke-width=".25"/>
  <rect x="302.86" y="143.41" width="5.28" height="8.87" fill="#00a28a" stroke="#fff" stroke-miterlimit="10" stroke-width=".25"/>
  <rect x="308.73" y="136.14" width="5.28" height="8.64" fill="#00a28a" stroke="#fff" stroke-miterlimit="10" stroke-width=".25"/>
  <rect x="314.61" y="135.16" width="5.28" height="8.85" fill="#00a28a" stroke="#fff" stroke-miterlimit="10" stroke-width=".25"/>
  <rect x="320.48" y="128.73" width="5.28" height="8.8" fill="#00a28a" stroke="#fff" stroke-miterlimit="10" stroke-width=".25"/>
  <rect x="326.35" y="104.19" width="5.28" height="10.72" fill="#00a28a" stroke="#fff" stroke-miterlimit="10" stroke-width=".25"/>
  <rect x="332.22" y="96.42" width="5.28" height="11.8" fill="#00a28a" stroke="#fff" stroke-miterlimit="10" stroke-width=".25"/>
  <rect x="338.09" y="87.71" width="5.28" height="12.81" fill="#00a28a" stroke="#fff" stroke-miterlimit="10" stroke-width=".25"/>
  <rect x="343.96" y="92.32" width="5.28" height="12.84" fill="#00a28a" stroke="#fff" stroke-miterlimit="10" stroke-width=".25"/>
  <rect x="349.83" y="91.21" width="5.28" height="12.16" fill="#00a28a" stroke="#fff" stroke-miterlimit="10" stroke-width=".25"/>
  <rect x="355.7" y="90.66" width="5.28" height="13.51" fill="#00a28a" stroke="#fff" stroke-miterlimit="10" stroke-width=".25"/>
  <rect x="361.58" y="100.69" width="5.28" height="12.11" fill="#00a28a" stroke="#fff" stroke-miterlimit="10" stroke-width=".25"/>
  <rect x="367.45" y="136.66" width="5.28" height="8.07" fill="#00a28a" stroke="#fff" stroke-miterlimit="10" stroke-width=".25"/>
  <rect x="373.32" y="112.95" width="5.28" height="11.52" fill="#00a28a" stroke="#fff" stroke-miterlimit="10" stroke-width=".25"/>
  <rect x="379.19" y="110.62" width="5.28" height="11.28" fill="#00a28a" stroke="#fff" stroke-miterlimit="10" stroke-width=".25"/>
  <rect x="385.06" y="98.5" width="5.28" height="12.17" fill="#00a28a" stroke="#fff" stroke-miterlimit="10" stroke-width=".25"/>
  <rect x="390.93" y="114.12" width="5.28" height="11.6" fill="#00a28a" stroke="#fff" stroke-miterlimit="10" stroke-width=".25"/>
  <rect x="396.8" y="113.3" width="5.28" height="12.45" fill="#00a28a" stroke="#fff" stroke-miterlimit="10" stroke-width=".25"/>
  <rect x="402.67" y="109.7" width="5.28" height="12.54" fill="#00a28a" stroke="#fff" stroke-miterlimit="10" stroke-width=".25"/>
  <rect x="408.55" y="108.32" width="5.28" height="13.15" fill="#00a28a" stroke="#fff" stroke-miterlimit="10" stroke-width=".25"/>
  <rect x="414.42" y="95.64" width="5.28" height="16.27" fill="#00a28a" stroke="#fff" stroke-miterlimit="10" stroke-width=".25"/>
  <rect x="420.29" y="99.66" width="5.28" height="13.64" fill="#00a28a" stroke="#fff" stroke-miterlimit="10" stroke-width=".25"/>
  <rect x="426.16" y="102.07" width="5.28" height="14.59" fill="#00a28a" stroke="#fff" stroke-miterlimit="10" stroke-width=".25"/>
  <rect x="432.03" y="96.73" width="5.28" height="13.64" fill="#00a28a" stroke="#fff" stroke-miterlimit="10" stroke-width=".25"/>
  <rect x="437.9" y="65.79" width="5.28" height="16.59" fill="#00a28a" stroke="#fff" stroke-miterlimit="10" stroke-width=".25"/>
  <rect x="443.77" y="71.22" width="5.28" height="17.25" fill="#00a28a" stroke="#fff" stroke-miterlimit="10" stroke-width=".25"/>
  <rect x="449.64" y="83.74" width="5.28" height="14.64" fill="#00a28a" stroke="#fff" stroke-miterlimit="10" stroke-width=".25"/>
  <rect x="455.52" y="80.78" width="5.28" height="14.78" fill="#00a28a" stroke="#fff" stroke-miterlimit="10" stroke-width=".25"/>
  <rect x="50.4" y="144.03" width="5.28" height="6.15" fill="#dc4732" stroke="#fff" stroke-miterlimit="10" stroke-width=".25"/>
  <rect x="56.27" y="150.6" width="5.28" height="5.48" fill="#dc4732" stroke="#fff" stroke-miterlimit="10" stroke-width=".25"/>
  <rect x="62.14" y="153.46" width="5.28" height="5.38" fill="#dc4732" stroke="#fff" stroke-miterlimit="10" stroke-width=".25"/>
  <rect x="68.01" y="129.06" width="5.28" height="6.22" fill="#dc4732" stroke="#fff" stroke-miterlimit="10" stroke-width=".25"/>
  <rect x="73.88" y="142.25" width="5.28" height="6.07" fill="#dc4732" stroke="#fff" stroke-miterlimit="10" stroke-width=".25"/>
  <rect x="79.76" y="161.33" width="5.28" height="5.63" fill="#dc4732" stroke="#fff" stroke-miterlimit="10" stroke-width=".25"/>
  <rect x="85.63" y="151.38" width="5.28" height="6.76" fill="#dc4732" stroke="#fff" stroke-miterlimit="10" stroke-width=".25"/>
  <rect x="91.5" y="149.85" width="5.28" height="6.37" fill="#dc4732" stroke="#fff" stroke-miterlimit="10" stroke-width=".25"/>
  <rect x="97.37" y="139.18" width="5.28" height="4.58" fill="#dc4732" stroke="#fff" stroke-miterlimit="10" stroke-width=".25"/>
  <rect x="103.24" y="129.8" width="5.28" height="5.05" fill="#dc4732" stroke="#fff" stroke-miterlimit="10" stroke-width=".25"/>
  <rect x="109.11" y="129.59" width="5.28" height="4.6" fill="#dc4732" stroke="#fff" stroke-miterlimit="10" stroke-width=".25"/>
  <rect x="114.98" y="148.03" width="5.28" height="4.23" fill="#dc4732" stroke="#fff" stroke-miterlimit="10" stroke-width=".25"/>
  <rect x="120.85" y="132.22" width="5.28" height="5.77" fill="#dc4732" stroke="#fff" stroke-miterlimit="10" stroke-width=".25"/>
  <rect x="126.73" y="113.59" width="5.28" height="5.87" fill="#dc4732" stroke="#fff" stroke-miterlimit="10" stroke-width=".25"/>
  <rect x="132.6" y="107.29" width="5.28" height="6.02" fill="#dc4732" stroke="#fff" stroke-miterlimit="10" stroke-width=".25"/>
  <rect x="138.47" y="122.5" width="5.28" height="6.28" fill="#dc4732" stroke="#fff" stroke-miterlimit="10" stroke-width=".25"/>
  <rect x="144.34" y="96.67" width="5.28" height="7.98" fill="#dc4732" stroke="#fff" stroke-miterlimit="10" stroke-width=".25"/>
  <rect x="150.21" y="88" width="5.28" height="7.92" fill="#dc4732" stroke="#fff" stroke-miterlimit="10" stroke-width=".25"/>
  <rect x="156.08" y="77.38" width="5.28" height="7.68" fill="#dc4732" stroke="#fff" stroke-miterlimit="10" stroke-width=".25"/>
  <rect x="161.95" y="102.94" width="5.28" height="6.4" fill="#dc4732" stroke="#fff" stroke-miterlimit="10" stroke-width=".25"/>
  <rect x="167.82" y="101.48" width="5.28" height="8.94" fill="#dc4732" stroke="#fff" stroke-miterlimit="10" stroke-width=".25"/>
  <rect x="173.7" y="84.17" width="5.28" height="9.22" fill="#dc4732" stroke="#fff" stroke-miterlimit="10" stroke-width=".25"/>
  <rect x="179.57" y="96.02" width="5.28" height="10.66" fill="#dc4732" stroke="#fff" stroke-miterlimit="10" stroke-width=".25"/>
  <rect x="185.44" y="102.88" width="5.28" height="11.57" fill="#dc4732" stroke="#fff" stroke-miterlimit="10" stroke-width=".25"/>
  <rect x="191.31" y="116.51" width="5.28" height="9.46" fill="#dc4732" stroke="#fff" stroke-miterlimit="10" stroke-width=".25"/>
  <rect x="197.18" y="137.75" width="5.28" height="6.47" fill="#dc4732" stroke="#fff" stroke-miterlimit="10" stroke-width=".25"/>
  <rect x="203.05" y="128.9" width="5.28" height="6.83" fill="#dc4732" stroke="#fff" stroke-miterlimit="10" stroke-width=".25"/>
  <rect x="208.92" y="157.09" width="5.28" height="3.63" fill="#dc4732" stroke="#fff" stroke-miterlimit="10" stroke-width=".25"/>
  <rect x="214.79" y="134.31" width="5.28" height="3.84" fill="#dc4732" stroke="#fff" stroke-miterlimit="10" stroke-width=".25"/>
  <rect x="220.67" y="149.71" width="5.28" height="3.24" fill="#dc4732" stroke="#fff" stroke-miterlimit="10" stroke-width=".25"/>
  <rect x="226.54" y="132.33" width="5.28" height="3.68" fill="#dc4732" stroke="#fff" stroke-miterlimit="10" stroke-width=".25"/>
  <rect x="232.41" y="113.32" width="5.28" height="4.8" fill="#dc4732" stroke="#fff" stroke-miterlimit="10" stroke-width=".25"/>
  <rect x="238.28" y="90.3" width="5.28" height="4.91" fill="#dc4732" stroke="#fff" stroke-miterlimit="10" stroke-width=".25"/>
  <rect x="244.15" y="103.87" width="5.28" height="4.43" fill="#dc4732" stroke="#fff" stroke-miterlimit="10" stroke-width=".25"/>
  <rect x="250.02" y="107.62" width="5.28" height="4.37" fill="#dc4732" stroke="#fff" stroke-miterlimit="10" stroke-width=".25"/>
  <rect x="255.89" y="127.19" width="5.28" height="4.38" fill="#dc4732" stroke="#fff" stroke-miterlimit="10" stroke-width=".25"/>
  <rect x="261.76" y="142.23" width="5.28" height="5.24" fill="#dc4732" stroke="#fff" stroke-miterlimit="10" stroke-width=".25"/>
  <rect x="267.64" y="137.13" width="5.28" height="5.99" fill="#dc4732" stroke="#fff" stroke-miterlimit="10" stroke-width=".25"/>
  <rect x="273.51" y="143.9" width="5.28" height="6.64" fill="#dc4732" stroke="#fff" stroke-miterlimit="10" stroke-width=".25"/>
  <rect x="279.38" y="143.78" width="5.28" height="7.03" fill="#dc4732" stroke="#fff" stroke-miterlimit="10" stroke-width=".25"/>
  <rect x="285.25" y="165.69" width="5.28" height="4.37" fill="#dc4732" stroke="#fff" stroke-miterlimit="10" stroke-width=".25"/>
  <rect x="291.12" y="159.12" width="5.28" height="5.4" fill="#dc4732" stroke="#fff" stroke-miterlimit="10" stroke-width=".25"/>
  <rect x="296.99" y="147.85" width="5.28" height="6.61" fill="#dc4732" stroke="#fff" stroke-miterlimit="10" stroke-width=".25"/>
  <rect x="302.86" y="152.28" width="5.28" height="5.83" fill="#dc4732" stroke="#fff" stroke-miterlimit="10" stroke-width=".25"/>
  <rect x="308.73" y="144.78" width="5.28" height="6.44" fill="#dc4732" stroke="#fff" stroke-miterlimit="10" stroke-width=".25"/>
  <rect x="314.61" y="144.01" width="5.28" height="6.69" fill="#dc4732" stroke="#fff" stroke-miterlimit="10" stroke-width=".25"/>
  <rect x="320.48" y="137.53" width="5.28" height="6.9" fill="#dc4732" stroke="#fff" stroke-miterlimit="10" stroke-width=".25"/>
  <rect x="326.35" y="114.91" width="5.28" height="7.88" fill="#dc4732" stroke="#fff" stroke-miterlimit="10" stroke-width=".25"/>
  <rect x="332.22" y="108.22" width="5.28" height="7.92" fill="#dc4732" stroke="#fff" stroke-miterlimit="10" stroke-width=".25"/>
  <rect x="338.09" y="100.51" width="5.28" height="8.3" fill="#dc4732" stroke="#fff" stroke-miterlimit="10" stroke-width=".25"/>
  <rect x="343.96" y="105.17" width="5.28" height="7.82" fill="#dc4732" stroke="#fff" stroke-miterlimit="10" stroke-width=".25"/>
  <rect x="349.83" y="103.38" width="5.28" height="8.33" fill="#dc4732" stroke="#fff" stroke-miterlimit="10" stroke-width=".25"/>
  <rect x="355.7" y="104.17" width="5.28" height="8.37" fill="#dc4732" stroke="#fff" stroke-miterlimit="10" stroke-width=".25"/>
  <rect x="361.58" y="112.8" width="5.28" height="7.34" fill="#dc4732" stroke="#fff" stroke-miterlimit="10" stroke-width=".25"/>
  <rect x="367.45" y="144.73" width="5.28" height="6.45" fill="#dc4732" stroke="#fff" stroke-miterlimit="10" stroke-width=".25"/>
  <rect x="373.32" y="124.47" width="5.28" height="7.55" fill="#dc4732" stroke="#fff" stroke-miterlimit="10" stroke-width=".25"/>
  <rect x="379.19" y="121.9" width="5.28" height="7.29" fill="#dc4732" stroke="#fff" stroke-miterlimit="10" stroke-width=".25"/>
  <rect x="385.06" y="110.68" width="5.28" height="8.29" fill="#dc4732" stroke="#fff" stroke-miterlimit="10" stroke-width=".25"/>
  <rect x="390.93" y="125.72" width="5.28" height="7.28" fill="#dc4732" stroke="#fff" stroke-miterlimit="10" stroke-width=".25"/>
  <rect x="396.8" y="125.75" width="5.28" height="7.78" fill="#dc4732" stroke="#fff" stroke-miterlimit="10" stroke-width=".25"/>
  <rect x="402.67" y="122.24" width="5.28" height="6.41" fill="#dc4732" stroke="#fff" stroke-miterlimit="10" stroke-width=".25"/>
  <rect x="408.55" y="121.46" width="5.28" height="6.28" fill="#dc4732" stroke="#fff" stroke-miterlimit="10" stroke-width=".25"/>
  <rect x="414.42" y="111.92" width="5.28" height="7.13" fill="#dc4732" stroke="#fff" stroke-miterlimit="10" stroke-width=".25"/>
  <rect x="420.29" y="113.3" width="5.28" height="6.38" fill="#dc4732" stroke="#fff" stroke-miterlimit="10" stroke-width=".25"/>
  <rect x="426.16" y="116.66" width="5.28" height="5.81" fill="#dc4732" stroke="#fff" stroke-miterlimit="10" stroke-width=".25"/>
  <rect x="432.03" y="110.37" width="5.28" height="6.61" fill="#dc4732" stroke="#fff" stroke-miterlimit="10" stroke-width=".25"/>
  <rect x="437.9" y="82.39" width="5.28" height="7.7" fill="#dc4732" stroke="#fff" stroke-miterlimit="10" stroke-width=".25"/>
  <rect x="443.77" y="88.47" width="5.28" height="6.63" fill="#dc4732" stroke="#fff" stroke-miterlimit="10" stroke-width=".25"/>
  <rect x="449.64" y="98.38" width="5.28" height="5.48" fill="#dc4732" stroke="#fff" stroke-miterlimit="10" stroke-width=".25"/>
  <rect x="455.52" y="95.56" width="5.28" height="6.07" fill="#dc4732" stroke="#fff" stroke-miterlimit="10" stroke-width=".25"/>
  <rect x="50.4" y="150.19" width="5.28" height="15.53" fill="#067fa3" stroke="#fff" stroke-miterlimit="10" stroke-width=".25"/>
  <rect x="56.27" y="156.08" width="5.28" height="14.5" fill="#067fa3" stroke="#fff" stroke-miterlimit="10" stroke-width=".25"/>
  <rect x="62.14" y="158.84" width="5.28" height="16.19" fill="#067fa3" stroke="#fff" stroke-miterlimit="10" stroke-width=".25"/>
  <rect x="68.01" y="135.27" width="5.28" height="27.25" fill="#067fa3" stroke="#fff" stroke-miterlimit="10" stroke-width=".25"/>
  <rect x="73.88" y="148.33" width="5.28" height="21.35" fill="#067fa3" stroke="#fff" stroke-miterlimit="10" stroke-width=".25"/>
  <rect x="79.76" y="166.96" width="5.28" height="17.23" fill="#067fa3" stroke="#fff" stroke-miterlimit="10" stroke-width=".25"/>
  <rect x="85.63" y="158.14" width="5.28" height="20.68" fill="#067fa3" stroke="#fff" stroke-miterlimit="10" stroke-width=".25"/>
  <rect x="91.5" y="156.21" width="5.28" height="23.75" fill="#067fa3" stroke="#fff" stroke-miterlimit="10" stroke-width=".25"/>
  <rect x="97.37" y="143.76" width="5.28" height="34.63" fill="#067fa3" stroke="#fff" stroke-miterlimit="10" stroke-width=".25"/>
  <rect x="103.24" y="134.85" width="5.28" height="43.59" fill="#067fa3" stroke="#fff" stroke-miterlimit="10" stroke-width=".25"/>
  <rect x="109.11" y="134.19" width="5.28" height="45.2" fill="#067fa3" stroke="#fff" stroke-miterlimit="10" stroke-width=".25"/>
  <rect x="114.98" y="152.26" width="5.28" height="29.91" fill="#067fa3" stroke="#fff" stroke-miterlimit="10" stroke-width=".25"/>
  <rect x="120.85" y="137.98" width="5.28" height="43.09" fill="#067fa3" stroke="#fff" stroke-miterlimit="10" stroke-width=".25"/>
  <rect x="126.73" y="119.46" width="5.28" height="59.99" fill="#067fa3" stroke="#fff" stroke-miterlimit="10" stroke-width=".25"/>
  <rect x="132.6" y="113.31" width="5.28" height="64.36" fill="#067fa3" stroke="#fff" stroke-miterlimit="10" stroke-width=".25"/>
  <rect x="138.47" y="128.78" width="5.28" height="53.33" fill="#067fa3" stroke="#fff" stroke-miterlimit="10" stroke-width=".25"/>
  <rect x="144.34" y="104.65" width="5.28" height="61.62" fill="#067fa3" stroke="#fff" stroke-miterlimit="10" stroke-width=".25"/>
  <rect x="150.21" y="95.92" width="5.28" height="60.18" fill="#067fa3" stroke="#fff" stroke-miterlimit="10" stroke-width=".25"/>
  <rect x="156.08" y="85.06" width="5.28" height="61.77" fill="#067fa3" stroke="#fff" stroke-miterlimit="10" stroke-width=".25"/>
  <rect x="161.95" y="109.33" width="5.28" height="42.96" fill="#067fa3" stroke="#fff" stroke-miterlimit="10" stroke-width=".25"/>
  <rect x="167.82" y="110.42" width="5.28" height="40.83" fill="#067fa3" stroke="#fff" stroke-miterlimit="10" stroke-width=".25"/>
  <rect x="173.7" y="93.39" width="5.28" height="51.83" fill="#067fa3" stroke="#fff" stroke-miterlimit="10" stroke-width=".25"/>
  <rect x="179.57" y="106.69" width="5.28" height="53.58" fill="#067fa3" stroke="#fff" stroke-miterlimit="10" stroke-width=".25"/>
  <rect x="185.44" y="114.45" width="5.28" height="44.87" fill="#067fa3" stroke="#fff" stroke-miterlimit="10" stroke-width=".25"/>
  <rect x="191.31" y="125.97" width="5.28" height="33.88" fill="#067fa3" stroke="#fff" stroke-miterlimit="10" stroke-width=".25"/>
  <rect x="197.18" y="144.22" width="5.28" height="28.04" fill="#067fa3" stroke="#fff" stroke-miterlimit="10" stroke-width=".25"/>
  <rect x="203.05" y="135.73" width="5.28" height="35.75" fill="#067fa3" stroke="#fff" stroke-miterlimit="10" stroke-width=".25"/>
  <rect x="208.92" y="160.72" width="5.28" height="30.85" fill="#067fa3" stroke="#fff" stroke-miterlimit="10" stroke-width=".25"/>
  <rect x="214.79" y="138.15" width="5.28" height="25.6" fill="#067fa3" stroke="#fff" stroke-miterlimit="10" stroke-width=".25"/>
  <rect x="220.67" y="152.96" width="5.28" height="21.67" fill="#067fa3" stroke="#fff" stroke-miterlimit="10" stroke-width=".25"/>
  <rect x="226.54" y="136.01" width="5.28" height="29.93" fill="#067fa3" stroke="#fff" stroke-miterlimit="10" stroke-width=".25"/>
  <rect x="232.41" y="118.12" width="5.28" height="35.41" fill="#067fa3" stroke="#fff" stroke-miterlimit="10" stroke-width=".25"/>
  <rect x="238.28" y="95.21" width="5.28" height="46.64" fill="#067fa3" stroke="#fff" stroke-miterlimit="10" stroke-width=".25"/>
  <rect x="244.15" y="108.3" width="5.28" height="40.32" fill="#067fa3" stroke="#fff" stroke-miterlimit="10" stroke-width=".25"/>
  <rect x="250.02" y="111.99" width="5.28" height="38.08" fill="#067fa3" stroke="#fff" stroke-miterlimit="10" stroke-width=".25"/>
  <rect x="255.89" y="131.57" width="5.28" height="32.22" fill="#067fa3" stroke="#fff" stroke-miterlimit="10" stroke-width=".25"/>
  <rect x="261.76" y="147.47" width="5.28" height="25.46" fill="#067fa3" stroke="#fff" stroke-miterlimit="10" stroke-width=".25"/>
  <rect x="267.64" y="143.11" width="5.28" height="26.17" fill="#067fa3" stroke="#fff" stroke-miterlimit="10" stroke-width=".25"/>
  <rect x="273.51" y="150.54" width="5.28" height="23.24" fill="#067fa3" stroke="#fff" stroke-miterlimit="10" stroke-width=".25"/>
  <rect x="279.38" y="150.81" width="5.28" height="20.42" fill="#067fa3" stroke="#fff" stroke-miterlimit="10" stroke-width=".25"/>
  <rect x="285.25" y="170.06" width="5.28" height="15.72" fill="#067fa3" stroke="#fff" stroke-miterlimit="10" stroke-width=".25"/>
  <rect x="291.12" y="164.52" width="5.28" height="13.38" fill="#067fa3" stroke="#fff" stroke-miterlimit="10" stroke-width=".25"/>
  <rect x="296.99" y="154.46" width="5.28" height="14.63" fill="#067fa3" stroke="#fff" stroke-miterlimit="10" stroke-width=".25"/>
  <rect x="302.86" y="158.11" width="5.28" height="14.9" fill="#067fa3" stroke="#fff" stroke-miterlimit="10" stroke-width=".25"/>
  <rect x="308.73" y="151.22" width="5.28" height="18.45" fill="#067fa3" stroke="#fff" stroke-miterlimit="10" stroke-width=".25"/>
  <rect x="314.61" y="150.7" width="5.28" height="18.97" fill="#067fa3" stroke="#fff" stroke-miterlimit="10" stroke-width=".25"/>
  <rect x="320.48" y="144.43" width="5.28" height="23.01" fill="#067fa3" stroke="#fff" stroke-miterlimit="10" stroke-width=".25"/>
  <rect x="326.35" y="122.8" width="5.28" height="27.62" fill="#067fa3" stroke="#fff" stroke-miterlimit="10" stroke-width=".25"/>
  <rect x="332.22" y="116.14" width="5.28" height="35.52" fill="#067fa3" stroke="#fff" stroke-miterlimit="10" stroke-width=".25"/>
  <rect x="338.09" y="108.81" width="5.28" height="39.4" fill="#067fa3" stroke="#fff" stroke-miterlimit="10" stroke-width=".25"/>
  <rect x="343.96" y="112.99" width="5.28" height="40.28" fill="#067fa3" stroke="#fff" stroke-miterlimit="10" stroke-width=".25"/>
  <rect x="349.83" y="111.71" width="5.28" height="41.06" fill="#067fa3" stroke="#fff" stroke-miterlimit="10" stroke-width=".25"/>
  <rect x="355.7" y="112.55" width="5.28" height="41.61" fill="#067fa3" stroke="#fff" stroke-miterlimit="10" stroke-width=".25"/>
  <rect x="361.58" y="120.14" width="5.28" height="48.94" fill="#067fa3" stroke="#fff" stroke-miterlimit="10" stroke-width=".25"/>
  <rect x="367.45" y="151.18" width="5.28" height="28.09" fill="#067fa3" stroke="#fff" stroke-miterlimit="10" stroke-width=".25"/>
  <rect x="373.32" y="132.02" width="5.28" height="37.44" fill="#067fa3" stroke="#fff" stroke-miterlimit="10" stroke-width=".25"/>
  <rect x="379.19" y="129.2" width="5.28" height="46.16" fill="#067fa3" stroke="#fff" stroke-miterlimit="10" stroke-width=".25"/>
  <rect x="385.06" y="118.97" width="5.28" height="55.65" fill="#067fa3" stroke="#fff" stroke-miterlimit="10" stroke-width=".25"/>
  <rect x="390.93" y="133" width="5.28" height="45.55" fill="#067fa3" stroke="#fff" stroke-miterlimit="10" stroke-width=".25"/>
  <rect x="396.8" y="133.53" width="5.28" height="45.82" fill="#067fa3" stroke="#fff" stroke-miterlimit="10" stroke-width=".25"/>
  <rect x="402.67" y="128.65" width="5.28" height="54.98" fill="#067fa3" stroke="#fff" stroke-miterlimit="10" stroke-width=".25"/>
  <rect x="408.55" y="127.75" width="5.28" height="52.42" fill="#067fa3" stroke="#fff" stroke-miterlimit="10" stroke-width=".25"/>
  <rect x="414.42" y="119.05" width="5.28" height="59.53" fill="#067fa3" stroke="#fff" stroke-miterlimit="10" stroke-width=".25"/>
  <rect x="420.29" y="119.68" width="5.28" height="65.22" fill="#067fa3" stroke="#fff" stroke-miterlimit="10" stroke-width=".25"/>
  <rect x="426.16" y="122.47" width="5.28" height="68.27" fill="#067fa3" stroke="#fff" stroke-miterlimit="10" stroke-width=".25"/>
  <rect x="432.03" y="116.99" width="5.28" height="71.35" fill="#067fa3" stroke="#fff" stroke-miterlimit="10" stroke-width=".25"/>
  <rect x="437.9" y="90.09" width="5.28" height="85.42" fill="#067fa3" stroke="#fff" stroke-miterlimit="10" stroke-width=".25"/>
  <rect x="443.77" y="95.11" width="5.28" height="85.9" fill="#067fa3" stroke="#fff" stroke-miterlimit="10" stroke-width=".25"/>
  <rect x="449.64" y="103.86" width="5.28" height="87.62" fill="#067fa3" stroke="#fff" stroke-miterlimit="10" stroke-width=".25"/>
  <rect x="455.52" y="101.63" width="5.28" height="89.9" fill="#067fa3" stroke="#fff" stroke-miterlimit="10" stroke-width=".25"/>
  <rect x="50.4" y="165.72" width="5.28" height="57.45" fill="#ab2069" stroke="#fff" stroke-miterlimit="10" stroke-width=".25"/>
  <rect x="56.27" y="170.58" width="5.28" height="52.59" fill="#ab2069" stroke="#fff" stroke-miterlimit="10" stroke-width=".25"/>
  <rect x="62.14" y="175.03" width="5.28" height="48.14" fill="#ab2069" stroke="#fff" stroke-miterlimit="10" stroke-width=".25"/>
  <rect x="68.01" y="162.52" width="5.28" height="60.64" fill="#ab2069" stroke="#fff" stroke-miterlimit="10" stroke-width=".25"/>
  <rect x="73.88" y="169.68" width="5.28" height="53.49" fill="#ab2069" stroke="#fff" stroke-miterlimit="10" stroke-width=".25"/>
  <rect x="79.76" y="184.19" width="5.28" height="38.98" fill="#ab2069" stroke="#fff" stroke-miterlimit="10" stroke-width=".25"/>
  <rect x="85.63" y="178.81" width="5.28" height="44.35" fill="#ab2069" stroke="#fff" stroke-miterlimit="10" stroke-width=".25"/>
  <rect x="91.5" y="179.97" width="5.28" height="43.2" fill="#ab2069" stroke="#fff" stroke-miterlimit="10" stroke-width=".25"/>
  <rect x="97.37" y="178.39" width="5.28" height="44.77" fill="#ab2069" stroke="#fff" stroke-miterlimit="10" stroke-width=".25"/>
  <rect x="103.24" y="178.44" width="5.28" height="44.73" fill="#ab2069" stroke="#fff" stroke-miterlimit="10" stroke-width=".25"/>
  <rect x="109.11" y="179.39" width="5.28" height="43.78" fill="#ab2069" stroke="#fff" stroke-miterlimit="10" stroke-width=".25"/>
  <rect x="114.98" y="182.17" width="5.28" height="40.99" fill="#ab2069" stroke="#fff" stroke-miterlimit="10" stroke-width=".25"/>
  <rect x="120.85" y="181.08" width="5.28" height="42.09" fill="#ab2069" stroke="#fff" stroke-miterlimit="10" stroke-width=".25"/>
  <rect x="126.73" y="179.45" width="5.28" height="43.72" fill="#ab2069" stroke="#fff" stroke-miterlimit="10" stroke-width=".25"/>
  <rect x="132.6" y="177.67" width="5.28" height="45.5" fill="#ab2069" stroke="#fff" stroke-miterlimit="10" stroke-width=".25"/>
  <rect x="138.47" y="182.11" width="5.28" height="41.05" fill="#ab2069" stroke="#fff" stroke-miterlimit="10" stroke-width=".25"/>
  <rect x="144.34" y="166.27" width="5.28" height="56.9" fill="#ab2069" stroke="#fff" stroke-miterlimit="10" stroke-width=".25"/>
  <rect x="150.21" y="156.1" width="5.28" height="67.06" fill="#ab2069" stroke="#fff" stroke-miterlimit="10" stroke-width=".25"/>
  <rect x="156.08" y="146.83" width="5.28" height="76.34" fill="#ab2069" stroke="#fff" stroke-miterlimit="10" stroke-width=".25"/>
  <rect x="161.95" y="152.29" width="5.28" height="70.88" fill="#ab2069" stroke="#fff" stroke-miterlimit="10" stroke-width=".25"/>
  <rect x="167.82" y="151.25" width="5.28" height="71.91" fill="#ab2069" stroke="#fff" stroke-miterlimit="10" stroke-width=".25"/>
  <rect x="173.7" y="145.23" width="5.28" height="77.94" fill="#ab2069" stroke="#fff" stroke-miterlimit="10" stroke-width=".25"/>
  <rect x="179.57" y="160.26" width="5.28" height="62.9" fill="#ab2069" stroke="#fff" stroke-miterlimit="10" stroke-width=".25"/>
  <rect x="185.44" y="159.32" width="5.28" height="63.85" fill="#ab2069" stroke="#fff" stroke-miterlimit="10" stroke-width=".25"/>
  <rect x="191.31" y="159.85" width="5.28" height="63.32" fill="#ab2069" stroke="#fff" stroke-miterlimit="10" stroke-width=".25"/>
  <rect x="197.18" y="172.26" width="5.28" height="50.9" fill="#ab2069" stroke="#fff" stroke-miterlimit="10" stroke-width=".25"/>
  <rect x="203.05" y="171.48" width="5.28" height="51.69" fill="#ab2069" stroke="#fff" stroke-miterlimit="10" stroke-width=".25"/>
  <rect x="208.92" y="191.57" width="5.28" height="31.6" fill="#ab2069" stroke="#fff" stroke-miterlimit="10" stroke-width=".25"/>
  <rect x="214.79" y="163.75" width="5.28" height="59.41" fill="#ab2069" stroke="#fff" stroke-miterlimit="10" stroke-width=".25"/>
  <rect x="220.67" y="174.62" width="5.28" height="48.54" fill="#ab2069" stroke="#fff" stroke-miterlimit="10" stroke-width=".25"/>
  <rect x="226.54" y="165.94" width="5.28" height="57.23" fill="#ab2069" stroke="#fff" stroke-miterlimit="10" stroke-width=".25"/>
  <rect x="232.41" y="153.53" width="5.28" height="69.64" fill="#ab2069" stroke="#fff" stroke-miterlimit="10" stroke-width=".25"/>
  <rect x="238.28" y="141.85" width="5.28" height="81.32" fill="#ab2069" stroke="#fff" stroke-miterlimit="10" stroke-width=".25"/>
  <rect x="244.15" y="148.62" width="5.28" height="74.55" fill="#ab2069" stroke="#fff" stroke-miterlimit="10" stroke-width=".25"/>
  <rect x="250.02" y="150.07" width="5.28" height="73.1" fill="#ab2069" stroke="#fff" stroke-miterlimit="10" stroke-width=".25"/>
  <rect x="255.89" y="163.79" width="5.28" height="59.37" fill="#ab2069" stroke="#fff" stroke-miterlimit="10" stroke-width=".25"/>
  <rect x="261.76" y="172.93" width="5.28" height="50.23" fill="#ab2069" stroke="#fff" stroke-miterlimit="10" stroke-width=".25"/>
  <rect x="267.64" y="169.29" width="5.28" height="53.88" fill="#ab2069" stroke="#fff" stroke-miterlimit="10" stroke-width=".25"/>
  <rect x="273.51" y="173.78" width="5.28" height="49.38" fill="#ab2069" stroke="#fff" stroke-miterlimit="10" stroke-width=".25"/>
  <rect x="279.38" y="171.23" width="5.28" height="51.94" fill="#ab2069" stroke="#fff" stroke-miterlimit="10" stroke-width=".25"/>
  <rect x="285.25" y="185.78" width="5.28" height="37.38" fill="#ab2069" stroke="#fff" stroke-miterlimit="10" stroke-width=".25"/>
  <rect x="291.12" y="177.91" width="5.28" height="45.26" fill="#ab2069" stroke="#fff" stroke-miterlimit="10" stroke-width=".25"/>
  <rect x="296.99" y="169.09" width="5.28" height="54.07" fill="#ab2069" stroke="#fff" stroke-miterlimit="10" stroke-width=".25"/>
  <rect x="302.86" y="173.01" width="5.28" height="50.15" fill="#ab2069" stroke="#fff" stroke-miterlimit="10" stroke-width=".25"/>
  <rect x="308.73" y="169.67" width="5.28" height="53.5" fill="#ab2069" stroke="#fff" stroke-miterlimit="10" stroke-width=".25"/>
  <rect x="314.61" y="169.67" width="5.28" height="53.49" fill="#ab2069" stroke="#fff" stroke-miterlimit="10" stroke-width=".25"/>
  <rect x="320.48" y="167.44" width="5.28" height="55.72" fill="#ab2069" stroke="#fff" stroke-miterlimit="10" stroke-width=".25"/>
  <rect x="326.35" y="150.41" width="5.28" height="72.75" fill="#ab2069" stroke="#fff" stroke-miterlimit="10" stroke-width=".25"/>
  <rect x="332.22" y="151.66" width="5.28" height="71.51" fill="#ab2069" stroke="#fff" stroke-miterlimit="10" stroke-width=".25"/>
  <rect x="338.09" y="148.21" width="5.28" height="74.96" fill="#ab2069" stroke="#fff" stroke-miterlimit="10" stroke-width=".25"/>
  <rect x="343.96" y="153.26" width="5.28" height="69.9" fill="#ab2069" stroke="#fff" stroke-miterlimit="10" stroke-width=".25"/>
  <rect x="349.83" y="152.77" width="5.28" height="70.4" fill="#ab2069" stroke="#fff" stroke-miterlimit="10" stroke-width=".25"/>
  <rect x="355.7" y="154.16" width="5.28" height="69.01" fill="#ab2069" stroke="#fff" stroke-miterlimit="10" stroke-width=".25"/>
  <rect x="361.58" y="169.08" width="5.28" height="54.08" fill="#ab2069" stroke="#fff" stroke-miterlimit="10" stroke-width=".25"/>
  <rect x="367.45" y="179.26" width="5.28" height="43.9" fill="#ab2069" stroke="#fff" stroke-miterlimit="10" stroke-width=".25"/>
  <rect x="373.32" y="169.46" width="5.28" height="53.71" fill="#ab2069" stroke="#fff" stroke-miterlimit="10" stroke-width=".25"/>
  <rect x="379.19" y="175.36" width="5.28" height="47.81" fill="#ab2069" stroke="#fff" stroke-miterlimit="10" stroke-width=".25"/>
  <rect x="385.06" y="174.62" width="5.28" height="48.54" fill="#ab2069" stroke="#fff" stroke-miterlimit="10" stroke-width=".25"/>
  <rect x="390.93" y="178.55" width="5.28" height="44.62" fill="#ab2069" stroke="#fff" stroke-miterlimit="10" stroke-width=".25"/>
  <rect x="396.8" y="179.35" width="5.28" height="43.82" fill="#ab2069" stroke="#fff" stroke-miterlimit="10" stroke-width=".25"/>
  <rect x="402.67" y="183.63" width="5.28" height="39.53" fill="#ab2069" stroke="#fff" stroke-miterlimit="10" stroke-width=".25"/>
  <rect x="408.55" y="180.17" width="5.28" height="42.99" fill="#ab2069" stroke="#fff" stroke-miterlimit="10" stroke-width=".25"/>
  <rect x="414.42" y="178.58" width="5.28" height="44.59" fill="#ab2069" stroke="#fff" stroke-miterlimit="10" stroke-width=".25"/>
  <rect x="420.29" y="184.9" width="5.28" height="38.26" fill="#ab2069" stroke="#fff" stroke-miterlimit="10" stroke-width=".25"/>
  <rect x="426.16" y="190.75" width="5.28" height="32.42" fill="#ab2069" stroke="#fff" stroke-miterlimit="10" stroke-width=".25"/>
  <rect x="432.03" y="188.34" width="5.28" height="34.83" fill="#ab2069" stroke="#fff" stroke-miterlimit="10" stroke-width=".25"/>
  <rect x="437.9" y="175.52" width="5.28" height="47.65" fill="#ab2069" stroke="#fff" stroke-miterlimit="10" stroke-width=".25"/>
  <rect x="443.77" y="181.01" width="5.28" height="42.16" fill="#ab2069" stroke="#fff" stroke-miterlimit="10" stroke-width=".25"/>
  <rect x="449.64" y="191.47" width="5.28" height="31.69" fill="#ab2069" stroke="#fff" stroke-miterlimit="10" stroke-width=".25"/>
  <rect x="455.52" y="191.54" width="5.28" height="31.63" fill="#ab2069" stroke="#fff" stroke-miterlimit="10" stroke-width=".25"/>
  <line x1="14.4" y1="223.2" x2="475.2" y2="223.2" fill="none" stroke="#000" stroke-miterlimit="10"/>
  <text transform="translate(14.4 21.6)" font-family="TradeGothicLT-Bold, &apos;TradeGothic LT Bold&apos;" font-size="20" font-weight="700"><tspan x="0" y="0">Housing </tspan><tspan x="72.22" y="0" letter-spacing="-.06em">T</tspan><tspan x="81.12" y="0">ypology Starts in Canada from 1955 to 2024 </tspan></text>
  <g>
    <text transform="translate(14.4 220.99)" font-family="OpenSans, &apos;Open Sans&apos;" font-size="10"><tspan x="0" y="0">0</tspan></text>
    <text transform="translate(14.4 192.25)" font-family="OpenSans, &apos;Open Sans&apos;" font-size="10"><tspan x="0" y="0">50K</tspan></text>
    <text transform="translate(14.4 163.52)" font-family="OpenSans, &apos;Open Sans&apos;" font-size="10"><tspan x="0" y="0">100K</tspan></text>
    <text transform="translate(14.4 134.78)" font-family="OpenSans, &apos;Open Sans&apos;" font-size="10"><tspan x="0" y="0">150K</tspan></text>
    <text transform="translate(14.4 106.05)" font-family="OpenSans, &apos;Open Sans&apos;" font-size="10"><tspan x="0" y="0">200K</tspan></text>
    <text transform="translate(14.4 77.31)" font-family="OpenSans, &apos;Open Sans&apos;" font-size="10"><tspan x="0" y="0">250K</tspan></text>
    <text transform="translate(14.4 48.58)" font-family="OpenSans, &apos;Open Sans&apos;" font-size="10"><tspan x="0" y="0">300K</tspan></text>
  </g>
  <text transform="translate(68.75 237.27)" font-family="OpenSans-Bold, &apos;Open Sans&apos;" font-size="12" font-weight="700"><tspan x="0" y="0">1960</tspan></text>
  <text transform="translate(127.45 237.6)" font-family="OpenSans-Bold, &apos;Open Sans&apos;" font-size="12" font-weight="700"><tspan x="0" y="0">1970</tspan></text>
  <text transform="translate(186.15 237.6)" font-family="OpenSans-Bold, &apos;Open Sans&apos;" font-size="12" font-weight="700"><tspan x="0" y="0">1980</tspan></text>
  <text transform="translate(244.85 237.6)" font-family="OpenSans-Bold, &apos;Open Sans&apos;" font-size="12" font-weight="700"><tspan x="0" y="0">1990</tspan></text>
  <text transform="translate(303.55 237.6)" font-family="OpenSans-Bold, &apos;Open Sans&apos;" font-size="12" font-weight="700"><tspan x="0" y="0">2000</tspan></text>
  <text transform="translate(362.25 237.6)" font-family="OpenSans-Bold, &apos;Open Sans&apos;" font-size="12" font-weight="700"><tspan x="0" y="0">2010</tspan></text>
  <text transform="translate(420.95 237.6)" font-family="OpenSans-Bold, &apos;Open Sans&apos;" font-size="12" font-weight="700"><tspan x="0" y="0">2020</tspan></text>
  <g id="matplotlib.axis_1" data-name="matplotlib.axis 1">
    <g id="xtick_1" data-name="xtick 1">
      <g id="line2d_2" data-name="line2d 2">
        <path id="mbd33a27348" d="M82.4,220.54v5.33" stroke="#000" stroke-linejoin="round" stroke-width=".8"/>
      </g>
    </g>
    <g id="xtick_2" data-name="xtick 2">
      <g id="line2d_4" data-name="line2d 4">
        <path id="mbd33a27348-2" data-name="mbd33a27348" d="M141.11,220.54v5.33" stroke="#000" stroke-linejoin="round" stroke-width=".8"/>
      </g>
    </g>
    <g id="xtick_3" data-name="xtick 3">
      <g id="line2d_6" data-name="line2d 6">
        <path id="mbd33a27348-3" data-name="mbd33a27348" d="M199.82,220.54v5.33" stroke="#000" stroke-linejoin="round" stroke-width=".8"/>
      </g>
    </g>
    <g id="xtick_4" data-name="xtick 4">
      <g id="line2d_8" data-name="line2d 8">
        <path id="mbd33a27348-4" data-name="mbd33a27348" d="M258.54,220.54v5.33" stroke="#000" stroke-linejoin="round" stroke-width=".8"/>
      </g>
    </g>
    <g id="xtick_5" data-name="xtick 5">
      <g id="line2d_10" data-name="line2d 10">
        <path id="mbd33a27348-5" data-name="mbd33a27348" d="M317.25,220.54v5.33" stroke="#000" stroke-linejoin="round" stroke-width=".8"/>
      </g>
    </g>
    <g id="xtick_6" data-name="xtick 6">
      <g id="line2d_12" data-name="line2d 12">
        <path id="mbd33a27348-6" data-name="mbd33a27348" d="M375.96,220.54v5.33" stroke="#000" stroke-linejoin="round" stroke-width=".8"/>
      </g>
    </g>
    <g id="xtick_7" data-name="xtick 7">
      <g id="line2d_14" data-name="line2d 14">
        <path id="mbd33a27348-7" data-name="mbd33a27348" d="M434.67,220.54v5.33" stroke="#000" stroke-linejoin="round" stroke-width=".8"/>
      </g>
    </g>
  </g>
  <g>
    <text transform="translate(302.93 259.2)" fill="#dc4732" font-family="OpenSans-Bold, &apos;Open Sans&apos;" font-size="10" font-weight="700"><tspan x="0" y="0">Semi Detached</tspan></text>
    <text transform="translate(65.04 259.2)" fill="#ab2069" font-family="OpenSans-Bold, &apos;Open Sans&apos;" font-size="10" font-weight="700"><tspan x="0" y="0">Single-Detached</tspan></text>
    <text transform="translate(403.2 259.31)" fill="#00a28a" font-family="OpenSans-Bold, &apos;Open Sans&apos;" font-size="10" font-weight="700"><tspan x="0" y="0">Row</tspan></text>
    <text transform="translate(172.75 259.2)" fill="#067fa3" font-family="OpenSans-Bold, &apos;Open Sans&apos;" font-size="10" font-weight="700"><tspan x="0" y="0">Apartment or Other</tspan></text>
  </g>
  <path id="path37" d="M0,273.6h489.6" fill="none" stroke="#231f20" stroke-miterlimit="3" stroke-width=".57"/>
  <text transform="translate(7.37 282.85)" font-size="8"><tspan x="0" y="0" font-family="OpenSans-Bold, &apos;Open Sans&apos;" font-weight="700">Data Sources:</tspan><tspan x="54.48" y="0" xml:space="preserve" font-family="OpenSans, &apos;Open Sans&apos;"> Canada Mortgage and Housing Corporation (2025)</tspan></text>
</svg>