<?xml version="1.0" encoding="UTF-8"?>
<svg id="Layer_1" data-name="Layer 1" xmlns="http://www.w3.org/2000/svg" xmlns:xlink="http://www.w3.org/1999/xlink" viewBox="0 0 489.6 482.4">
  <defs>
    <linearGradient id="linear-gradient" x1="246.27" y1="439.4" x2="246.27" y2="252.48" gradientUnits="userSpaceOnUse">
      <stop offset="0" stop-color="#fff" stop-opacity="0"/>
      <stop offset="1" stop-color="#fff"/>
    </linearGradient>
  </defs>
  <g>
    <g>
      <line x1="14.4" y1="179.49" x2="14.53" y2="179.49" fill="none" stroke="#231f20" stroke-width=".25"/>
      <line x1="16.52" y1="179.49" x2="474.08" y2="179.49" fill="none" stroke="#231f20" stroke-dasharray=".25 2" stroke-width=".25"/>
      <line x1="475.07" y1="179.49" x2="475.2" y2="179.49" fill="none" stroke="#231f20" stroke-width=".25"/>
    </g>
    <g>
      <line x1="14.4" y1="136.15" x2="14.53" y2="136.15" fill="none" stroke="#231f20" stroke-width=".25"/>
      <line x1="16.52" y1="136.15" x2="474.08" y2="136.15" fill="none" stroke="#231f20" stroke-dasharray=".25 2" stroke-width=".25"/>
      <line x1="475.07" y1="136.15" x2="475.2" y2="136.15" fill="none" stroke="#231f20" stroke-width=".25"/>
    </g>
    <g>
      <line x1="14.4" y1="92.81" x2="14.53" y2="92.81" fill="none" stroke="#231f20" stroke-width=".25"/>
      <line x1="16.52" y1="92.81" x2="474.08" y2="92.81" fill="none" stroke="#231f20" stroke-dasharray=".25 2" stroke-width=".25"/>
      <line x1="475.07" y1="92.81" x2="475.2" y2="92.81" fill="none" stroke="#231f20" stroke-width=".25"/>
    </g>
    <g>
      <line x1="14.4" y1="49.47" x2="14.53" y2="49.47" fill="none" stroke="#231f20" stroke-width=".25"/>
      <line x1="16.52" y1="49.47" x2="474.08" y2="49.47" fill="none" stroke="#231f20" stroke-dasharray=".25 2" stroke-width=".25"/>
      <line x1="475.07" y1="49.47" x2="475.2" y2="49.47" fill="none" stroke="#231f20" stroke-width=".25"/>
    </g>
  </g>
  <text transform="translate(14.4 21.6)" font-family="OpenSans-Bold, &apos;Open Sans&apos;" font-size="20" font-weight="700"><tspan x="0" y="0">Housing starts in Canada from 1955 to 2025 </tspan></text>
  <text transform="translate(14.64 48.06)" font-family="OpenSans-Bold, &apos;Open Sans&apos;" font-size="8" font-weight="700"><tspan x="0" y="0">200 housing starts </tspan><tspan x="0" y="9.6">per 100K people</tspan></text>
  <text transform="translate(14.16 91.25)" font-family="OpenSans-Bold, &apos;Open Sans&apos;" font-size="8" font-weight="700"><tspan x="0" y="0">150</tspan></text>
  <text transform="translate(14.16 134.44)" font-family="OpenSans-Bold, &apos;Open Sans&apos;" font-size="8" font-weight="700"><tspan x="0" y="0">100</tspan></text>
  <text transform="translate(14.16 177.62)" font-family="OpenSans-Bold, &apos;Open Sans&apos;" font-size="8" font-weight="700"><tspan x="0" y="0">50</tspan></text>
  <text transform="translate(14.16 220.81)" font-family="OpenSans-Bold, &apos;Open Sans&apos;" font-size="8" font-weight="700"><tspan x="0" y="0">0</tspan></text>
  <text transform="translate(14.75 249.79)" fill="#6c297b" font-family="OpenSans-Bold, &apos;Open Sans&apos;" font-size="8" font-weight="700"><tspan x="0" y="0">600K total housing starts</tspan></text>
  <text transform="translate(14.28 281.06)" fill="#6c297b" font-family="OpenSans-Bold, &apos;Open Sans&apos;" font-size="8" font-weight="700"><tspan x="0" y="0">500K</tspan></text>
  <text transform="translate(14.28 312.34)" fill="#6c297b" font-family="OpenSans-Bold, &apos;Open Sans&apos;" font-size="8" font-weight="700"><tspan x="0" y="0">400K</tspan></text>
  <text transform="translate(14.28 343.61)" fill="#6c297b" font-family="OpenSans-Bold, &apos;Open Sans&apos;" font-size="8" font-weight="700"><tspan x="0" y="0">300K</tspan></text>
  <text transform="translate(14.28 374.88)" fill="#6c297b" font-family="OpenSans-Bold, &apos;Open Sans&apos;" font-size="8" font-weight="700"><tspan x="0" y="0">200K</tspan></text>
  <text transform="translate(14.28 406.15)" fill="#6c297b" font-family="OpenSans-Bold, &apos;Open Sans&apos;" font-size="8" font-weight="700"><tspan x="0" y="0">100K</tspan></text>
  <text transform="translate(14.28 437.71)" fill="#6c297b" font-family="OpenSans-Bold, &apos;Open Sans&apos;" font-size="8" font-weight="700"><tspan x="0" y="0">0</tspan></text>
  <text transform="translate(390.47 249.79)" fill="#231f20" font-family="OpenSans-Italic, &apos;Open Sans&apos;" font-size="8" font-style="italic" font-variation-settings="&apos;wght&apos; 400, &apos;wdth&apos; 100" opacity=".5"><tspan x="0" y="0">600 total housing starts</tspan><tspan x="26.23" y="9.6">per 100K people</tspan></text>
  <text transform="translate(460.36 281.06)" fill="#231f20" font-family="OpenSans-Italic, &apos;Open Sans&apos;" font-size="8" font-style="italic" font-variation-settings="&apos;wght&apos; 400, &apos;wdth&apos; 100" opacity=".5"><tspan x="0" y="0">500</tspan></text>
  <text transform="translate(460.36 312.34)" fill="#231f20" font-family="OpenSans-Italic, &apos;Open Sans&apos;" font-size="8" font-style="italic" font-variation-settings="&apos;wght&apos; 400, &apos;wdth&apos; 100" opacity=".5"><tspan x="0" y="0">400</tspan></text>
  <text transform="translate(460.36 343.61)" fill="#231f20" font-family="OpenSans-Italic, &apos;Open Sans&apos;" font-size="8" font-style="italic" font-variation-settings="&apos;wght&apos; 400, &apos;wdth&apos; 100" opacity=".5"><tspan x="0" y="0">300</tspan></text>
  <text transform="translate(460.36 374.88)" fill="#231f20" font-family="OpenSans-Italic, &apos;Open Sans&apos;" font-size="8" font-style="italic" font-variation-settings="&apos;wght&apos; 400, &apos;wdth&apos; 100" opacity=".5"><tspan x="0" y="0">200</tspan></text>
  <text transform="translate(460.36 406.15)" fill="#231f20" font-family="OpenSans-Italic, &apos;Open Sans&apos;" font-size="8" font-style="italic" font-variation-settings="&apos;wght&apos; 400, &apos;wdth&apos; 100" opacity=".5"><tspan x="0" y="0">100</tspan></text>
  <text transform="translate(469.18 437.71)" fill="#231f20" font-family="OpenSans-Italic, &apos;Open Sans&apos;" font-size="8" font-style="italic" font-variation-settings="&apos;wght&apos; 400, &apos;wdth&apos; 100" opacity=".5"><tspan x="0" y="0">0</tspan></text>
  <g>
    <polygon points="114.14 145.7 108.89 146.28 103.82 140.35 108.89 166.97 114.14 145.7" fill="#ab2069" opacity=".75"/>
    <polygon points="148.96 120.1 154.68 152.39 160.4 156.84 166.13 140.16 171.85 138.39 177.58 152.83 183.3 170.49 189.03 180.04 194.75 168.97 200.48 176.91 206.2 185.09 211.92 191.2 217.65 179.54 223.37 172.11 229.1 156.86 234.82 166.55 240.55 170.58 246.27 179.29 252 188.86 257.72 188.33 263.44 192.54 269.17 196.51 274.89 202.78 280.62 205.93 286.34 204.54 292.07 204.36 297.79 200.15 303.52 199.72 309.24 195.09 314.96 189.89 320.69 180.86 326.41 176.71 332.14 176.13 337.86 175.7 343.59 175.53 349.31 167.79 355.03 191.6 360.76 181.67 366.48 172.58 367.57 170.73 366.48 170.78 360.76 163.77 355.03 174.01 349.31 162 343.59 144.39 337.86 142.02 332.14 141.77 326.41 135.09 320.69 138.34 314.96 136.06 309.24 155.65 303.52 157.65 297.79 157.05 292.07 160.66 286.34 155.22 280.62 165.68 274.89 175.13 269.17 155.86 263.44 158.47 257.72 151.8 252 155.81 246.27 142.6 240.55 122.53 234.82 118.77 229.1 107.79 223.37 123.07 217.65 140.04 211.92 151.96 206.2 135.26 200.48 175.79 194.75 144.96 189.03 145.15 183.3 125 177.58 123.22 171.85 123.69 166.13 98.53 160.4 106.59 154.68 106.6 148.96 95.87 143.23 109.96 139.86 118.88 143.23 121.54 148.96 120.1" fill="#ab2069" opacity=".75"/>
    <polygon points="57.37 186.37 63.09 163.2 68.81 177.19 74.54 186.8 80.26 180.46 85.99 175.07 91.71 154.48 97.44 138.39 100.01 137.71 97.44 136.19 91.71 134.46 85.99 135.97 80.26 131.95 74.54 141.31 68.81 108.48 63.09 90.1 57.37 114.41 51.64 100.64 45.92 86.02 45.92 185.86 51.64 189.14 57.37 186.37" fill="#ab2069" opacity=".75"/>
    <polygon points="103.82 140.35 103.16 136.86 100.01 137.71 103.16 139.57 103.82 140.35" fill="#067fa3" opacity=".5"/>
    <polygon points="120.33 143.93 126.06 141.91 131.78 150.81 137.51 125.13 139.86 118.88 137.51 117.02 131.78 129.29 126.06 108.35 120.33 114.56 114.61 143.81 114.14 145.7 114.61 145.65 120.33 143.93" fill="#067fa3" opacity=".75"/>
    <polygon points="440.9 141.18 435.18 140.91 429.45 140.31 423.73 139.38 418 152.72 412.28 154.95 406.55 157.02 400.83 161.92 395.11 168.53 389.38 165.28 383.66 174.49 377.93 174.28 372.21 162.88 367.57 170.73 372.21 170.54 377.93 175.27 383.66 176.59 389.38 181.46 395.11 178.3 400.83 177.21 406.55 184.22 412.28 190.6 418 188.6 423.73 176.28 429.45 182.34 435.18 193.2 440.9 194.11 446.63 206.18 446.63 167.01 440.9 141.18" fill="#067fa3" opacity=".75"/>
    <polygon points="435.18 193.2 429.45 182.34 423.73 176.28 418 188.6 412.28 190.6 406.55 184.22 400.83 177.21 395.11 178.3 389.38 181.46 383.66 176.59 377.93 175.27 372.21 170.54 367.57 170.73 366.48 172.58 360.76 181.67 355.03 191.6 349.31 167.79 343.59 175.53 337.86 175.7 332.14 176.13 326.41 176.71 320.69 180.86 314.96 189.89 309.24 195.09 303.52 199.72 297.79 200.15 292.07 204.36 286.34 204.54 280.62 205.93 274.89 202.78 269.17 196.51 263.44 192.54 257.72 188.33 252 188.86 246.27 179.29 240.55 170.58 234.82 166.55 229.1 156.86 223.37 172.11 217.65 179.54 211.92 191.2 206.2 185.09 200.48 176.91 194.75 168.97 189.03 180.04 183.3 170.49 177.58 152.83 171.85 138.39 166.13 140.16 160.4 156.84 154.68 152.39 148.96 120.1 143.23 121.54 139.86 118.88 137.51 125.13 131.78 150.81 126.06 141.91 120.33 143.93 114.61 145.65 114.14 145.7 108.89 166.97 103.82 140.35 103.16 139.57 100.01 137.71 97.44 138.39 91.71 154.48 85.99 175.07 80.26 180.46 74.54 186.8 68.81 177.19 63.09 163.2 57.37 186.37 51.64 189.14 45.92 185.86 45.92 208.18 51.64 210.1 57.37 210.72 63.09 209.23 68.81 209.85 74.54 211.06 80.26 208.98 85.99 210.03 91.71 213.8 97.44 213.05 103.16 214.09 108.89 214.94 114.61 212.26 120.33 212.24 125.25 212.14 126.06 211.77 131.78 205.47 137.51 207.23 143.23 206.25 148.96 206.15 154.68 208.63 160.4 202.42 166.13 191.67 171.85 198.49 177.58 204.38 178.32 205.23 183.3 208.22 188.59 212.6 189.03 212.74 194.75 209.26 200.48 212.48 206.2 214.69 211.92 215.79 217.65 215.04 223.37 214.12 229.1 208.87 234.82 209.08 240.55 209.89 246.27 210.1 252 209.89 257.72 207.53 263.44 208.58 269.17 209.93 274.89 214.03 280.62 212.32 286.34 210.31 292.07 211.84 297.79 212.21 303.52 212.05 309.24 212.22 314.96 210.04 320.69 208.88 326.41 207.84 332.14 207.94 337.86 208.87 343.59 207.48 349.31 209.21 355.03 213.86 360.76 210.16 366.48 210.55 372.21 209.72 377.93 210.47 383.66 209.7 389.38 209.71 395.11 209.22 400.83 206.18 406.55 209.07 412.28 208.32 418 209.43 423.73 206.62 429.45 206.26 435.18 209.15 440.9 209.41 446.63 214.4 446.63 206.18 440.9 194.11 435.18 193.2" fill="#ab2069" opacity=".5"/>
    <polygon points="435.18 193.2 429.45 182.34 423.73 176.28 418 188.6 412.28 190.6 406.55 184.22 400.83 177.21 395.11 178.3 389.38 181.46 383.66 176.59 377.93 175.27 372.21 170.54 367.57 170.73 366.48 172.58 360.76 181.67 355.03 191.6 349.31 167.79 343.59 175.53 337.86 175.7 332.14 176.13 326.41 176.71 320.69 180.86 314.96 189.89 309.24 195.09 303.52 199.72 297.79 200.15 292.07 204.36 286.34 204.54 280.62 205.93 274.89 202.78 269.17 196.51 263.44 192.54 257.72 188.33 252 188.86 246.27 179.29 240.55 170.58 234.82 166.55 229.1 156.86 223.37 172.11 217.65 179.54 211.92 191.2 206.2 185.09 200.48 176.91 194.75 168.97 189.03 180.04 183.3 170.49 177.58 152.83 171.85 138.39 166.13 140.16 160.4 156.84 154.68 152.39 148.96 120.1 143.23 121.54 139.86 118.88 137.51 125.13 131.78 150.81 126.06 141.91 120.33 143.93 114.61 145.65 114.14 145.7 108.89 166.97 103.82 140.35 103.16 139.57 100.01 137.71 97.44 138.39 91.71 154.48 85.99 175.07 80.26 180.46 74.54 186.8 68.81 177.19 63.09 163.2 57.37 186.37 51.64 189.14 45.92 185.86 45.92 208.18 51.64 210.1 57.37 210.72 63.09 209.23 68.81 209.85 74.54 211.06 80.26 208.98 85.99 210.03 91.71 213.8 97.44 213.05 103.16 214.09 108.89 214.94 114.61 212.26 120.33 212.24 125.25 212.14 126.06 211.77 131.78 205.47 137.51 207.23 143.23 206.25 148.96 206.15 154.68 208.63 160.4 202.42 166.13 191.67 171.85 198.49 177.58 204.38 178.32 205.23 183.3 208.22 188.59 212.6 189.03 212.74 194.75 209.26 200.48 212.48 206.2 214.69 211.92 215.79 217.65 215.04 223.37 214.12 229.1 208.87 234.82 209.08 240.55 209.89 246.27 210.1 252 209.89 257.72 207.53 263.44 208.58 269.17 209.93 274.89 214.03 280.62 212.32 286.34 210.31 292.07 211.84 297.79 212.21 303.52 212.05 309.24 212.22 314.96 210.04 320.69 208.88 326.41 207.84 332.14 207.94 337.86 208.87 343.59 207.48 349.31 209.21 355.03 213.86 360.76 210.16 366.48 210.55 372.21 209.72 377.93 210.47 383.66 209.7 389.38 209.71 395.11 209.22 400.83 206.18 406.55 209.07 412.28 208.32 418 209.43 423.73 206.62 429.45 206.26 435.18 209.15 440.9 209.41 446.63 214.4 446.63 206.18 440.9 194.11 435.18 193.2" fill="#067fa3" opacity=".5"/>
    <polygon points="131.78 211.81 137.51 209.13 143.23 209.5 148.96 210.06 154.68 212.34 160.4 208.39 166.13 208.13 171.85 206.03 177.58 204.79 178.32 205.23 177.58 204.38 171.85 198.49 166.13 191.67 160.4 202.42 154.68 208.63 148.96 206.15 143.23 206.25 137.51 207.23 131.78 205.47 126.06 211.77 125.25 212.14 126.06 212.13 131.78 211.81" fill="#ab2069" opacity=".5"/>
    <polygon points="131.78 211.81 137.51 209.13 143.23 209.5 148.96 210.06 154.68 212.34 160.4 208.39 166.13 208.13 171.85 206.03 177.58 204.79 178.32 205.23 177.58 204.38 171.85 198.49 166.13 191.67 160.4 202.42 154.68 208.63 148.96 206.15 143.23 206.25 137.51 207.23 131.78 205.47 126.06 211.77 125.25 212.14 126.06 212.13 131.78 211.81" fill="#067fa3" opacity=".5"/>
    <polygon points="435.18 209.15 429.45 206.26 423.73 206.62 418 209.43 412.28 208.32 406.55 209.07 400.83 206.18 395.11 209.22 389.38 209.71 383.66 209.7 377.93 210.47 372.21 209.72 366.48 210.55 360.76 210.16 355.03 213.86 349.31 209.21 343.59 207.48 337.86 208.87 332.14 207.94 326.41 207.84 320.69 208.88 314.96 210.04 309.24 212.22 303.52 212.05 297.79 212.21 292.07 211.84 286.34 210.31 280.62 212.32 274.89 214.03 269.17 209.93 263.44 208.58 257.72 207.53 252 209.89 246.27 210.1 240.55 209.89 234.82 209.08 229.1 208.87 223.37 214.12 217.65 215.04 211.92 215.79 206.2 214.69 200.48 212.48 194.75 209.26 189.03 212.74 188.59 212.6 189.03 212.96 194.75 212.55 200.48 217.43 206.2 217.18 211.92 218.1 217.65 217.51 223.37 215.96 229.1 215.89 234.82 216.66 240.55 216.84 246.27 216.91 252 215.84 257.72 214.94 263.44 214.18 269.17 213.77 274.89 217.25 280.62 216.02 286.34 214.57 292.07 215.61 297.79 214.92 303.52 214.68 309.24 214.52 314.96 213.43 320.69 213.48 326.41 213.12 332.14 213.77 337.86 213.27 343.59 213.31 349.31 214.58 355.03 215.66 360.76 214.54 366.48 214.89 372.21 213.9 377.93 215.08 383.66 214.63 389.38 216.12 395.11 216.32 400.83 215.54 406.55 216.4 412.28 217.05 418 216.33 423.73 215.31 429.45 216.46 435.18 217.71 440.9 217.32 446.63 219.05 446.63 214.4 440.9 209.41 435.18 209.15" fill="#ab2069" opacity=".5"/>
    <polygon points="435.18 209.15 429.45 206.26 423.73 206.62 418 209.43 412.28 208.32 406.55 209.07 400.83 206.18 395.11 209.22 389.38 209.71 383.66 209.7 377.93 210.47 372.21 209.72 366.48 210.55 360.76 210.16 355.03 213.86 349.31 209.21 343.59 207.48 337.86 208.87 332.14 207.94 326.41 207.84 320.69 208.88 314.96 210.04 309.24 212.22 303.52 212.05 297.79 212.21 292.07 211.84 286.34 210.31 280.62 212.32 274.89 214.03 269.17 209.93 263.44 208.58 257.72 207.53 252 209.89 246.27 210.1 240.55 209.89 234.82 209.08 229.1 208.87 223.37 214.12 217.65 215.04 211.92 215.79 206.2 214.69 200.48 212.48 194.75 209.26 189.03 212.74 188.59 212.6 189.03 212.96 194.75 212.55 200.48 217.43 206.2 217.18 211.92 218.1 217.65 217.51 223.37 215.96 229.1 215.89 234.82 216.66 240.55 216.84 246.27 216.91 252 215.84 257.72 214.94 263.44 214.18 269.17 213.77 274.89 217.25 280.62 216.02 286.34 214.57 292.07 215.61 297.79 214.92 303.52 214.68 309.24 214.52 314.96 213.43 320.69 213.48 326.41 213.12 332.14 213.77 337.86 213.27 343.59 213.31 349.31 214.58 355.03 215.66 360.76 214.54 366.48 214.89 372.21 213.9 377.93 215.08 383.66 214.63 389.38 216.12 395.11 216.32 400.83 215.54 406.55 216.4 412.28 217.05 418 216.33 423.73 215.31 429.45 216.46 435.18 217.71 440.9 217.32 446.63 219.05 446.63 214.4 440.9 209.41 435.18 209.15" fill="#067fa3" opacity=".5"/>
    <polygon points="57.37 219.94 63.09 219.71 68.81 220.47 74.54 220.04 80.26 220.62 85.99 218.47 91.71 218.37 97.44 217.49 103.16 216.98 108.89 217.42 114.61 214.97 120.33 214.41 125.25 212.14 120.33 212.24 114.61 212.26 108.89 214.94 103.16 214.09 97.44 213.05 91.71 213.8 85.99 210.03 80.26 208.98 74.54 211.06 68.81 209.85 63.09 209.23 57.37 210.72 51.64 210.1 45.92 208.18 45.92 220.2 51.64 219.78 57.37 219.94" fill="#ab2069" opacity=".5"/>
    <polygon points="57.37 219.94 63.09 219.71 68.81 220.47 74.54 220.04 80.26 220.62 85.99 218.47 91.71 218.37 97.44 217.49 103.16 216.98 108.89 217.42 114.61 214.97 120.33 214.41 125.25 212.14 120.33 212.24 114.61 212.26 108.89 214.94 103.16 214.09 97.44 213.05 91.71 213.8 85.99 210.03 80.26 208.98 74.54 211.06 68.81 209.85 63.09 209.23 57.37 210.72 51.64 210.1 45.92 208.18 45.92 220.2 51.64 219.78 57.37 219.94" fill="#067fa3" opacity=".5"/>
    <polygon points="188.59 212.6 183.3 208.22 178.32 205.23 183.3 210.96 188.59 212.6" fill="#ab2069" opacity=".5"/>
    <polygon points="188.59 212.6 183.3 208.22 178.32 205.23 183.3 210.96 188.59 212.6" fill="#067fa3" opacity=".5"/>
    <polygon points="435.18 217.71 429.45 216.46 423.73 215.31 418 216.33 412.28 217.05 406.55 216.4 400.83 215.54 395.11 216.32 389.38 216.12 383.66 214.63 377.93 215.08 372.21 213.9 366.48 214.89 360.76 214.54 355.03 215.66 349.31 214.58 343.59 213.31 337.86 213.27 332.14 213.77 326.41 213.12 320.69 213.48 314.96 213.43 309.24 214.52 303.52 214.68 297.79 214.92 292.07 215.61 286.34 214.57 280.62 216.02 274.89 217.25 269.17 213.77 263.44 214.18 257.72 214.94 252 215.84 246.27 216.91 240.55 216.84 234.82 216.66 229.1 215.89 223.37 215.96 217.65 217.51 211.92 218.1 206.2 217.18 200.48 217.43 194.75 212.55 189.03 212.96 188.59 212.6 183.3 210.96 178.32 205.23 177.58 204.79 171.85 206.03 166.13 208.13 160.4 208.39 154.68 212.34 148.96 210.06 143.23 209.5 137.51 209.13 131.78 211.81 126.06 212.13 125.25 212.14 120.33 214.41 114.61 214.97 108.89 217.42 103.16 216.98 97.44 217.49 91.71 218.37 85.99 218.47 80.26 220.62 74.54 220.04 68.81 220.47 63.09 219.71 57.37 219.94 51.64 219.78 45.92 220.2 45.92 222.83 446.63 222.83 446.63 219.05 440.9 217.32 435.18 217.71" fill="#ab2069" opacity=".5"/>
    <polygon points="435.18 217.71 429.45 216.46 423.73 215.31 418 216.33 412.28 217.05 406.55 216.4 400.83 215.54 395.11 216.32 389.38 216.12 383.66 214.63 377.93 215.08 372.21 213.9 366.48 214.89 360.76 214.54 355.03 215.66 349.31 214.58 343.59 213.31 337.86 213.27 332.14 213.77 326.41 213.12 320.69 213.48 314.96 213.43 309.24 214.52 303.52 214.68 297.79 214.92 292.07 215.61 286.34 214.57 280.62 216.02 274.89 217.25 269.17 213.77 263.44 214.18 257.72 214.94 252 215.84 246.27 216.91 240.55 216.84 234.82 216.66 229.1 215.89 223.37 215.96 217.65 217.51 211.92 218.1 206.2 217.18 200.48 217.43 194.75 212.55 189.03 212.96 188.59 212.6 183.3 210.96 178.32 205.23 177.58 204.79 171.85 206.03 166.13 208.13 160.4 208.39 154.68 212.34 148.96 210.06 143.23 209.5 137.51 209.13 131.78 211.81 126.06 212.13 125.25 212.14 120.33 214.41 114.61 214.97 108.89 217.42 103.16 216.98 97.44 217.49 91.71 218.37 85.99 218.47 80.26 220.62 74.54 220.04 68.81 220.47 63.09 219.71 57.37 219.94 51.64 219.78 45.92 220.2 45.92 222.83 446.63 222.83 446.63 219.05 440.9 217.32 435.18 217.71" fill="#067fa3" opacity=".5"/>
  </g>
  <text transform="translate(55.31 79.2)" fill="#0e534d" font-family="OpenSans-Bold, &apos;Open Sans&apos;" font-size="10" font-weight="700"><tspan x="0" y="0">Semi Detached</tspan></text>
  <text transform="translate(173.42 79.3)" fill="#ab2069" font-family="OpenSans-Bold, &apos;Open Sans&apos;" font-size="10" font-weight="700"><tspan x="0" y="0">Single-Detached</tspan></text>
  <text transform="translate(369.73 79.1)" fill="#067fa3" font-family="OpenSans-Bold, &apos;Open Sans&apos;" font-size="10" font-weight="700"><tspan x="0" y="0">Apartment </tspan><tspan x="-7.18" y="12">or Other Units</tspan></text>
  <text transform="translate(297.61 79.1)" fill="#efc419" font-family="OpenSans-Bold, &apos;Open Sans&apos;" font-size="10" font-weight="700"><tspan x="0" y="0">Row</tspan></text>
  <g opacity=".75">
    <polygon points="131.78 211.81 137.51 209.13 143.23 209.5 148.96 210.06 154.68 212.34 160.4 208.39 166.13 208.13 171.85 206.03 177.58 204.79 178.32 205.23 177.58 204.38 171.85 198.49 166.13 191.67 160.4 202.42 154.68 208.63 148.96 206.15 143.23 206.25 137.51 207.23 131.78 205.47 126.06 211.77 125.25 212.14 126.06 212.13 131.78 211.81" fill="#fff"/>
    <polygon points="435.18 209.15 429.45 206.26 423.73 206.62 418 209.43 412.28 208.32 406.55 209.07 400.83 206.18 395.11 209.22 389.38 209.71 383.66 209.7 377.93 210.47 372.21 209.72 366.48 210.55 360.76 210.16 355.03 213.86 349.31 209.21 343.59 207.48 337.86 208.87 332.14 207.94 326.41 207.84 320.69 208.88 314.96 210.04 309.24 212.22 303.52 212.05 297.79 212.21 292.07 211.84 286.34 210.31 280.62 212.32 274.89 214.03 269.17 209.93 263.44 208.58 257.72 207.53 252 209.89 246.27 210.1 240.55 209.89 234.82 209.08 229.1 208.87 223.37 214.12 217.65 215.04 211.92 215.79 206.2 214.69 200.48 212.48 194.75 209.26 189.03 212.74 188.59 212.6 189.03 212.96 194.75 212.55 200.48 217.43 206.2 217.18 211.92 218.1 217.65 217.51 223.37 215.96 229.1 215.89 234.82 216.66 240.55 216.84 246.27 216.91 252 215.84 257.72 214.94 263.44 214.18 269.17 213.77 274.89 217.25 280.62 216.02 286.34 214.57 292.07 215.61 297.79 214.92 303.52 214.68 309.24 214.52 314.96 213.43 320.69 213.48 326.41 213.12 332.14 213.77 337.86 213.27 343.59 213.31 349.31 214.58 355.03 215.66 360.76 214.54 366.48 214.89 372.21 213.9 377.93 215.08 383.66 214.63 389.38 216.12 395.11 216.32 400.83 215.54 406.55 216.4 412.28 217.05 418 216.33 423.73 215.31 429.45 216.46 435.18 217.71 440.9 217.32 446.63 219.05 446.63 214.4 440.9 209.41 435.18 209.15" fill="#fff"/>
    <polygon points="57.37 219.94 63.09 219.71 68.81 220.47 74.54 220.04 80.26 220.62 85.99 218.47 91.71 218.37 97.44 217.49 103.16 216.98 108.89 217.42 114.61 214.97 120.33 214.41 125.25 212.14 120.33 212.24 114.61 212.26 108.89 214.94 103.16 214.09 97.44 213.05 91.71 213.8 85.99 210.03 80.26 208.98 74.54 211.06 68.81 209.85 63.09 209.23 57.37 210.72 51.64 210.1 45.92 208.18 45.92 220.2 51.64 219.78 57.37 219.94" fill="#fff"/>
    <polygon points="188.59 212.6 183.3 208.22 178.32 205.23 183.3 210.96 188.59 212.6" fill="#fff"/>
    <polygon points="435.18 217.71 429.45 216.46 423.73 215.31 418 216.33 412.28 217.05 406.55 216.4 400.83 215.54 395.11 216.32 389.38 216.12 383.66 214.63 377.93 215.08 372.21 213.9 366.48 214.89 360.76 214.54 355.03 215.66 349.31 214.58 343.59 213.31 337.86 213.27 332.14 213.77 326.41 213.12 320.69 213.48 314.96 213.43 309.24 214.52 303.52 214.68 297.79 214.92 292.07 215.61 286.34 214.57 280.62 216.02 274.89 217.25 269.17 213.77 263.44 214.18 257.72 214.94 252 215.84 246.27 216.91 240.55 216.84 234.82 216.66 229.1 215.89 223.37 215.96 217.65 217.51 211.92 218.1 206.2 217.18 200.48 217.43 194.75 212.55 189.03 212.96 188.59 212.6 183.3 210.96 178.32 205.23 177.58 204.79 171.85 206.03 166.13 208.13 160.4 208.39 154.68 212.34 148.96 210.06 143.23 209.5 137.51 209.13 131.78 211.81 126.06 212.13 125.25 212.14 120.33 214.41 114.61 214.97 108.89 217.42 103.16 216.98 97.44 217.49 91.71 218.37 85.99 218.47 80.26 220.62 74.54 220.04 68.81 220.47 63.09 219.71 57.37 219.94 51.64 219.78 45.92 220.2 45.92 222.83 446.63 222.83 446.63 219.05 440.9 217.32 435.18 217.71" fill="#fff"/>
  </g>
  <g>
    <g id="matplotlib.axis_1" data-name="matplotlib.axis 1">
      <g id="xtick_1" data-name="xtick 1">
        <g id="line2d_2" data-name="line2d 2">
          <path id="mbd33a27348" d="M74.54,220.17v5.33" stroke="#000" stroke-linejoin="round" stroke-width=".8"/>
        </g>
      </g>
      <g id="xtick_2" data-name="xtick 2">
        <g id="line2d_4" data-name="line2d 4">
          <path id="mbd33a27348-2" data-name="mbd33a27348" d="M131.78,220.17v5.33" stroke="#000" stroke-linejoin="round" stroke-width=".8"/>
        </g>
      </g>
      <g id="xtick_3" data-name="xtick 3">
        <g id="line2d_6" data-name="line2d 6">
          <path id="mbd33a27348-3" data-name="mbd33a27348" d="M189.03,220.17v5.33" stroke="#000" stroke-linejoin="round" stroke-width=".8"/>
        </g>
      </g>
      <g id="xtick_4" data-name="xtick 4">
        <g id="line2d_8" data-name="line2d 8">
          <path id="mbd33a27348-4" data-name="mbd33a27348" d="M246.27,220.17v5.33" stroke="#000" stroke-linejoin="round" stroke-width=".8"/>
        </g>
      </g>
      <g id="xtick_5" data-name="xtick 5">
        <g id="line2d_10" data-name="line2d 10">
          <path id="mbd33a27348-5" data-name="mbd33a27348" d="M303.52,220.17v5.33" stroke="#000" stroke-linejoin="round" stroke-width=".8"/>
        </g>
      </g>
      <g id="xtick_6" data-name="xtick 6">
        <g id="line2d_12" data-name="line2d 12">
          <path id="mbd33a27348-6" data-name="mbd33a27348" d="M360.76,220.17v5.33" stroke="#000" stroke-linejoin="round" stroke-width=".8"/>
        </g>
      </g>
      <g id="xtick_7" data-name="xtick 7">
        <g id="line2d_14" data-name="line2d 14">
          <path id="mbd33a27348-7" data-name="mbd33a27348" d="M418,220.17v5.33" stroke="#000" stroke-linejoin="round" stroke-width=".8"/>
        </g>
      </g>
    </g>
    <g id="matplotlib.axis_2" data-name="matplotlib.axis 2">
      <g id="ytick_1" data-name="ytick 1">
        <g id="line2d_15" data-name="line2d 15">
          <path d="M18.82,222.83h455" fill="none" stroke="#b0b0b0" stroke-linecap="square" stroke-linejoin="round" stroke-width=".8"/>
        </g>
      </g>
    </g>
    <g id="patch_5" data-name="patch 5">
      <path d="M14.4,222.83h460.8" fill="none" stroke="#000" stroke-linecap="square" stroke-width=".8"/>
    </g>
  </g>
  <text transform="translate(63.1 452.89)" font-family="OpenSans-Bold, &apos;Open Sans&apos;" font-size="10" font-weight="700"><tspan x="0" y="0">1960</tspan></text>
  <text transform="translate(120.35 452.89)" font-family="OpenSans-Bold, &apos;Open Sans&apos;" font-size="10" font-weight="700"><tspan x="0" y="0">1970</tspan></text>
  <text transform="translate(177.59 452.89)" font-family="OpenSans-Bold, &apos;Open Sans&apos;" font-size="10" font-weight="700"><tspan x="0" y="0">1980</tspan></text>
  <text transform="translate(234.84 452.89)" font-family="OpenSans-Bold, &apos;Open Sans&apos;" font-size="10" font-weight="700"><tspan x="0" y="0">1990</tspan></text>
  <text transform="translate(292.08 452.89)" font-family="OpenSans-Bold, &apos;Open Sans&apos;" font-size="10" font-weight="700"><tspan x="0" y="0">2000</tspan></text>
  <text transform="translate(349.32 452.89)" font-family="OpenSans-Bold, &apos;Open Sans&apos;" font-size="10" font-weight="700"><tspan x="0" y="0">2010</tspan></text>
  <text transform="translate(406.57 452.89)" font-family="OpenSans-Bold, &apos;Open Sans&apos;" font-size="10" font-weight="700"><tspan x="0" y="0">2020</tspan></text>
  <g>
    <polygon points="435.18 217.71 429.45 216.46 423.73 215.31 418 216.33 412.28 217.05 406.55 216.4 400.83 215.54 395.11 216.32 389.38 216.12 383.66 214.63 377.93 215.08 372.21 213.9 366.48 214.89 360.76 214.54 355.03 215.66 349.31 214.58 343.59 213.31 337.86 213.27 332.14 213.77 326.41 213.12 320.69 213.48 314.96 213.43 309.24 214.52 303.52 214.68 297.79 214.92 292.07 215.61 286.34 214.57 280.62 216.02 274.89 217.25 269.17 213.77 263.44 214.18 257.72 214.94 252 215.84 246.27 216.91 240.55 216.84 234.82 216.66 229.1 215.89 223.37 215.96 217.65 217.51 211.92 218.1 206.2 217.18 200.48 217.43 194.75 212.55 189.03 212.96 188.59 212.6 183.3 210.96 178.32 205.23 177.58 204.79 171.85 206.03 166.13 208.13 160.4 208.39 154.68 212.34 148.96 210.06 143.23 209.5 137.51 209.13 131.78 211.81 126.06 212.13 125.25 212.14 120.33 214.41 114.61 214.97 108.89 217.42 103.16 216.98 97.44 217.49 91.71 218.37 85.99 218.47 80.26 220.62 74.54 220.04 68.81 220.47 63.09 219.71 57.37 219.94 51.64 219.78 45.92 220.2 45.92 222.83 446.63 222.83 446.63 219.05 440.9 217.32 435.18 217.71" fill="#efc419" opacity=".5"/>
    <g>
      <polygon points="131.78 211.81 137.51 209.13 143.23 209.5 148.96 210.06 154.68 212.34 160.4 208.39 166.13 208.13 171.85 206.03 177.58 204.79 178.32 205.23 177.58 204.38 171.85 198.49 166.13 191.67 160.4 202.42 154.68 208.63 148.96 206.15 143.23 206.25 137.51 207.23 131.78 205.47 126.06 211.77 125.25 212.14 126.06 212.13 131.78 211.81" fill="#efc419" opacity=".75"/>
      <polygon points="435.18 209.15 429.45 206.26 423.73 206.62 418 209.43 412.28 208.32 406.55 209.07 400.83 206.18 395.11 209.22 389.38 209.71 383.66 209.7 377.93 210.47 372.21 209.72 366.48 210.55 360.76 210.16 355.03 213.86 349.31 209.21 343.59 207.48 337.86 208.87 332.14 207.94 326.41 207.84 320.69 208.88 314.96 210.04 309.24 212.22 303.52 212.05 297.79 212.21 292.07 211.84 286.34 210.31 280.62 212.32 274.89 214.03 269.17 209.93 263.44 208.58 257.72 207.53 252 209.89 246.27 210.1 240.55 209.89 234.82 209.08 229.1 208.87 223.37 214.12 217.65 215.04 211.92 215.79 206.2 214.69 200.48 212.48 194.75 209.26 189.03 212.74 188.59 212.6 189.03 212.96 194.75 212.55 200.48 217.43 206.2 217.18 211.92 218.1 217.65 217.51 223.37 215.96 229.1 215.89 234.82 216.66 240.55 216.84 246.27 216.91 252 215.84 257.72 214.94 263.44 214.18 269.17 213.77 274.89 217.25 280.62 216.02 286.34 214.57 292.07 215.61 297.79 214.92 303.52 214.68 309.24 214.52 314.96 213.43 320.69 213.48 326.41 213.12 332.14 213.77 337.86 213.27 343.59 213.31 349.31 214.58 355.03 215.66 360.76 214.54 366.48 214.89 372.21 213.9 377.93 215.08 383.66 214.63 389.38 216.12 395.11 216.32 400.83 215.54 406.55 216.4 412.28 217.05 418 216.33 423.73 215.31 429.45 216.46 435.18 217.71 440.9 217.32 446.63 219.05 446.63 214.4 440.9 209.41 435.18 209.15" fill="#efc419" opacity=".75"/>
      <polygon points="57.37 219.94 63.09 219.71 68.81 220.47 74.54 220.04 80.26 220.62 85.99 218.47 91.71 218.37 97.44 217.49 103.16 216.98 108.89 217.42 114.61 214.97 120.33 214.41 125.25 212.14 120.33 212.24 114.61 212.26 108.89 214.94 103.16 214.09 97.44 213.05 91.71 213.8 85.99 210.03 80.26 208.98 74.54 211.06 68.81 209.85 63.09 209.23 57.37 210.72 51.64 210.1 45.92 208.18 45.92 220.2 51.64 219.78 57.37 219.94" fill="#0e534d" opacity=".85"/>
      <polygon points="188.59 212.6 183.3 208.22 178.32 205.23 183.3 210.96 188.59 212.6" fill="#0e534d" opacity=".85"/>
      <polygon points="435.18 217.71 429.45 216.46 423.73 215.31 418 216.33 412.28 217.05 406.55 216.4 400.83 215.54 395.11 216.32 389.38 216.12 383.66 214.63 377.93 215.08 372.21 213.9 366.48 214.89 360.76 214.54 355.03 215.66 349.31 214.58 343.59 213.31 337.86 213.27 332.14 213.77 326.41 213.12 320.69 213.48 314.96 213.43 309.24 214.52 303.52 214.68 297.79 214.92 292.07 215.61 286.34 214.57 280.62 216.02 274.89 217.25 269.17 213.77 263.44 214.18 257.72 214.94 252 215.84 246.27 216.91 240.55 216.84 234.82 216.66 229.1 215.89 223.37 215.96 217.65 217.51 211.92 218.1 206.2 217.18 200.48 217.43 194.75 212.55 189.03 212.96 188.59 212.6 183.3 210.96 178.32 205.23 177.58 204.79 171.85 206.03 166.13 208.13 160.4 208.39 154.68 212.34 148.96 210.06 143.23 209.5 137.51 209.13 131.78 211.81 126.06 212.13 125.25 212.14 120.33 214.41 114.61 214.97 108.89 217.42 103.16 216.98 97.44 217.49 91.71 218.37 85.99 218.47 80.26 220.62 74.54 220.04 68.81 220.47 63.09 219.71 57.37 219.94 51.64 219.78 45.92 220.2 45.92 222.83 446.63 222.83 446.63 219.05 440.9 217.32 435.18 217.71" fill="#0e534d" opacity=".5"/>
    </g>
  </g>
  <g>
    <line x1="14.75" y1="407.99" x2="475.2" y2="407.99" fill="none" stroke="#231f20" stroke-dasharray=".25 2" stroke-width=".25"/>
    <line x1="14.75" y1="376.73" x2="475.2" y2="376.73" fill="none" stroke="#231f20" stroke-dasharray=".25 2" stroke-width=".25"/>
    <line x1="14.75" y1="345.46" x2="475.2" y2="345.46" fill="none" stroke="#231f20" stroke-dasharray=".25 2" stroke-width=".25"/>
    <line x1="14.75" y1="314.2" x2="475.2" y2="314.2" fill="none" stroke="#231f20" stroke-dasharray=".25 2" stroke-width=".25"/>
    <line x1="14.75" y1="282.93" x2="475.2" y2="282.93" fill="none" stroke="#231f20" stroke-dasharray=".25 2" stroke-width=".25"/>
    <line x1="14.75" y1="251.66" x2="475.2" y2="251.66" fill="none" stroke="#231f20" stroke-dasharray=".25 2" stroke-width=".25"/>
  </g>
  <g>
    <rect x="43.86" y="348.8" width="4.12" height="90.6" fill="#6c297b"/>
    <rect x="49.59" y="355.99" width="4.12" height="83.41" fill="#6c297b"/>
    <rect x="55.31" y="359.24" width="4.12" height="80.16" fill="#6c297b"/>
    <rect x="61.03" y="331.54" width="4.12" height="107.86" fill="#6c297b"/>
    <rect x="66.76" y="346.79" width="4.12" height="92.61" fill="#6c297b"/>
    <rect x="72.48" y="368.08" width="4.12" height="71.32" fill="#6c297b"/>
    <rect x="78.21" y="357.12" width="4.12" height="82.28" fill="#6c297b"/>
    <rect x="83.93" y="354.16" width="4.12" height="85.24" fill="#6c297b"/>
    <rect x="89.66" y="342.02" width="4.12" height="97.38" fill="#6c297b"/>
    <rect x="95.38" y="330.86" width="4.12" height="108.54" fill="#6c297b"/>
    <rect x="101.1" y="330.27" width="4.12" height="109.13" fill="#6c297b"/>
    <rect x="106.83" y="351.29" width="4.12" height="88.11" fill="#6c297b"/>
    <rect x="112.55" y="331.87" width="4.12" height="107.53" fill="#6c297b"/>
    <rect x="118.28" y="310.41" width="4.12" height="128.99" fill="#6c297b"/>
    <rect x="124" y="301.54" width="4.12" height="137.86" fill="#6c297b"/>
    <rect x="129.73" y="314.57" width="4.12" height="124.83" fill="#6c297b"/>
    <rect x="135.45" y="286.31" width="4.12" height="153.09" fill="#6c297b"/>
    <rect x="141.17" y="275.66" width="4.12" height="163.74" fill="#6c297b"/>
    <rect x="146.9" y="263.46" width="4.12" height="175.94" fill="#6c297b"/>
    <rect x="152.62" y="293.87" width="4.12" height="145.53" fill="#6c297b"/>
    <rect x="158.35" y="287.75" width="4.12" height="151.65" fill="#6c297b"/>
    <rect x="164.07" y="260.4" width="4.12" height="179" fill="#6c297b"/>
    <rect x="169.8" y="278.4" width="4.12" height="161" fill="#6c297b"/>
    <rect x="175.52" y="290.23" width="4.12" height="149.17" fill="#6c297b"/>
    <rect x="181.25" y="310.29" width="4.12" height="129.11" fill="#6c297b"/>
    <rect x="186.97" y="335.48" width="4.12" height="103.91" fill="#6c297b"/>
    <rect x="192.69" y="322.79" width="4.12" height="116.61" fill="#6c297b"/>
    <rect x="198.42" y="356.94" width="4.12" height="82.46" fill="#6c297b"/>
    <rect x="204.14" y="332.84" width="4.12" height="106.56" fill="#6c297b"/>
    <rect x="209.87" y="351.01" width="4.12" height="88.39" fill="#6c297b"/>
    <rect x="215.59" y="330.75" width="4.12" height="108.65" fill="#6c297b"/>
    <rect x="221.32" y="308.5" width="4.12" height="130.9" fill="#6c297b"/>
    <rect x="227.04" y="278.22" width="4.12" height="161.18" fill="#6c297b"/>
    <rect x="232.76" y="293.58" width="4.12" height="145.82" fill="#6c297b"/>
    <rect x="238.49" y="298.28" width="4.12" height="141.12" fill="#6c297b"/>
    <rect x="244.21" y="320.4" width="4.12" height="119" fill="#6c297b"/>
    <rect x="249.94" y="337.06" width="4.12" height="102.34" fill="#6c297b"/>
    <rect x="255.66" y="329.15" width="4.12" height="110.25" fill="#6c297b"/>
    <rect x="261.39" y="337.55" width="4.12" height="101.85" fill="#6c297b"/>
    <rect x="267.11" y="338.46" width="4.12" height="100.94" fill="#6c297b"/>
    <rect x="272.83" y="366.72" width="4.12" height="72.68" fill="#6c297b"/>
    <rect x="278.56" y="357.69" width="4.12" height="81.71" fill="#6c297b"/>
    <rect x="284.28" y="343.06" width="4.12" height="96.34" fill="#6c297b"/>
    <rect x="290.01" y="349.35" width="4.12" height="90.05" fill="#6c297b"/>
    <rect x="295.73" y="341.14" width="4.12" height="98.26" fill="#6c297b"/>
    <rect x="301.46" y="340.04" width="4.12" height="99.36" fill="#6c297b"/>
    <rect x="307.18" y="332.78" width="4.12" height="106.62" fill="#6c297b"/>
    <rect x="312.9" y="305.06" width="4.12" height="134.34" fill="#6c297b"/>
    <rect x="318.63" y="296.29" width="4.12" height="143.11" fill="#6c297b"/>
    <rect x="324.35" y="286.46" width="4.12" height="152.94" fill="#6c297b"/>
    <rect x="330.08" y="291.67" width="4.12" height="147.73" fill="#6c297b"/>
    <rect x="335.8" y="290.41" width="4.12" height="148.99" fill="#6c297b"/>
    <rect x="341.53" y="289.79" width="4.12" height="149.61" fill="#6c297b"/>
    <rect x="347.25" y="301.12" width="4.12" height="138.28" fill="#6c297b"/>
    <rect x="352.97" y="341.72" width="4.12" height="97.68" fill="#6c297b"/>
    <rect x="358.7" y="314.96" width="4.12" height="124.44" fill="#6c297b"/>
    <rect x="364.42" y="312.32" width="4.12" height="127.08" fill="#6c297b"/>
    <rect x="370.15" y="298.65" width="4.12" height="140.75" fill="#6c297b"/>
    <rect x="375.87" y="316.27" width="4.12" height="123.13" fill="#6c297b"/>
    <rect x="381.6" y="315.35" width="4.12" height="124.05" fill="#6c297b"/>
    <rect x="387.32" y="311.29" width="4.12" height="128.11" fill="#6c297b"/>
    <rect x="393.04" y="309.73" width="4.12" height="129.67" fill="#6c297b"/>
    <rect x="398.77" y="295.41" width="4.12" height="143.99" fill="#6c297b"/>
    <rect x="404.49" y="299.95" width="4.12" height="139.45" fill="#6c297b"/>
    <rect x="410.22" y="302.67" width="4.12" height="136.73" fill="#6c297b"/>
    <rect x="415.94" y="296.65" width="4.12" height="142.75" fill="#6c297b"/>
    <rect x="421.67" y="261.71" width="4.12" height="177.69" fill="#6c297b"/>
    <rect x="427.39" y="267.84" width="4.12" height="171.56" fill="#6c297b"/>
    <rect x="433.11" y="281.98" width="4.12" height="157.42" fill="#6c297b"/>
    <rect x="438.84" y="278.64" width="4.12" height="160.76" fill="#6c297b"/>
    <rect x="444.56" y="359.49" width="4.12" height="79.91" fill="#6c297b"/>
  </g>
  <g>
    <g id="matplotlib.axis_1-2" data-name="matplotlib.axis 1">
      <g id="xtick_1-2" data-name="xtick 1">
        <g id="line2d_2-2" data-name="line2d 2">
          <path id="mbd33a27348-8" data-name="mbd33a27348" d="M74.54,436.6v5.33" stroke="#000" stroke-linejoin="round" stroke-width=".8"/>
        </g>
      </g>
      <g id="xtick_2-2" data-name="xtick 2">
        <g id="line2d_4-2" data-name="line2d 4">
          <path id="mbd33a27348-9" data-name="mbd33a27348" d="M131.78,436.6v5.33" stroke="#000" stroke-linejoin="round" stroke-width=".8"/>
        </g>
      </g>
      <g id="xtick_3-2" data-name="xtick 3">
        <g id="line2d_6-2" data-name="line2d 6">
          <path id="mbd33a27348-10" data-name="mbd33a27348" d="M189.03,436.6v5.33" stroke="#000" stroke-linejoin="round" stroke-width=".8"/>
        </g>
      </g>
      <g id="xtick_4-2" data-name="xtick 4">
        <g id="line2d_8-2" data-name="line2d 8">
          <path id="mbd33a27348-11" data-name="mbd33a27348" d="M246.27,436.6v5.33" stroke="#000" stroke-linejoin="round" stroke-width=".8"/>
        </g>
      </g>
      <g id="xtick_5-2" data-name="xtick 5">
        <g id="line2d_10-2" data-name="line2d 10">
          <path id="mbd33a27348-12" data-name="mbd33a27348" d="M303.52,436.6v5.33" stroke="#000" stroke-linejoin="round" stroke-width=".8"/>
        </g>
      </g>
      <g id="xtick_6-2" data-name="xtick 6">
        <g id="line2d_12-2" data-name="line2d 12">
          <path id="mbd33a27348-13" data-name="mbd33a27348" d="M360.76,436.6v5.33" stroke="#000" stroke-linejoin="round" stroke-width=".8"/>
        </g>
      </g>
      <g id="xtick_7-2" data-name="xtick 7">
        <g id="line2d_14-2" data-name="line2d 14">
          <path id="mbd33a27348-14" data-name="mbd33a27348" d="M418,436.6v5.33" stroke="#000" stroke-linejoin="round" stroke-width=".8"/>
        </g>
      </g>
    </g>
    <g id="matplotlib.axis_2-2" data-name="matplotlib.axis 2">
      <g id="ytick_1-2" data-name="ytick 1">
        <g id="line2d_15-2" data-name="line2d 15">
          <path d="M18.82,439.26h455" fill="none" stroke="#b0b0b0" stroke-linecap="square" stroke-linejoin="round" stroke-width=".8"/>
        </g>
      </g>
    </g>
    <g id="patch_5-2" data-name="patch 5">
      <path d="M14.4,439.26h460.8" fill="none" stroke="#000" stroke-linecap="square" stroke-width=".8"/>
    </g>
  </g>
  <polyline points="449.49 378.08 443.76 378.08 443.76 345.96 438.04 345.96 438.04 345.19 432.31 345.19 432.31 333.97 426.59 333.97 426.59 328.37 420.87 328.37 420.86 349.6 415.14 349.6 415.14 352.36 409.42 352.36 409.41 349.33 403.69 349.33 403.69 345.11 397.97 345.11 397.97 353.41 392.24 353.41 392.24 353.55 386.52 353.55 386.52 355.59 380.8 355.59 380.79 355.36 375.07 355.36 375.07 342.37 369.35 342.37 369.34 350.83 363.62 350.83 363.62 351.8 357.9 351.8 357.9 369.79 352.17 369.79 352.17 339.87 346.45 339.87 346.45 330.61 340.73 330.61 340.72 330 335 330 335 329.82 329.28 329.82 329.27 324.89 323.55 324.89 323.55 331.22 317.83 331.22 317.83 336.88 312.1 336.88 312.1 357.08 306.38 357.08 306.38 361.85 300.66 361.85 300.65 362.01 294.93 362.01 294.93 367.87 289.21 367.87 289.2 362.25 283.48 362.25 283.48 373.25 277.76 373.25 277.76 379.91 272.03 379.91 272.03 356.06 266.31 356.06 266.31 354.41 260.59 354.41 260.58 346.37 254.86 346.37 254.86 351.98 249.14 351.98 249.13 336.51 243.41 336.51 243.41 315.59 237.69 315.59 237.69 309.26 231.96 309.26 231.96 293.67 226.24 293.67 226.24 319.49 220.51 319.49 220.51 338.83 214.79 338.83 214.79 356.77 209.07 356.77 209.06 338.9 203.34 338.9 203.34 360.77 197.62 360.77 197.62 327.03 191.89 327.03 191.89 337.94 186.17 337.94 186.17 311.87 180.44 311.87 180.44 290.66 174.72 290.66 174.72 277.26 169 277.26 168.99 257.02 163.27 257.02 163.27 282.76 157.55 282.76 157.55 286.88 151.82 286.88 151.82 252.48 146.1 252.48 146.1 263.33 140.37 263.33 140.37 271.44 134.65 271.44 134.65 299.42 128.93 299.42 128.92 282.7 123.2 282.7 123.2 290.62 117.48 290.62 117.48 313.32 111.75 313.32 111.75 334.14 106.03 334.14 106.03 306.7 100.3 306.7 100.3 304.99 94.58 304.99 94.58 316.5 88.86 316.5 88.85 329.76 83.13 329.76 83.13 331.55 77.41 331.55 77.4 343.94 71.68 343.94 71.68 312.81 65.96 312.81 65.96 288.53 60.23 288.53 60.23 323.93 54.51 323.93 54.51 315.46 48.78 315.46 48.78 301.49 43.06 301.49" fill="none" stroke="#fff" stroke-miterlimit="10" stroke-width="1.5"/>
  <polyline points="449.49 439.26 449.49 378.08 443.76 378.08 443.76 345.96 438.04 345.96 438.04 345.19 432.31 345.19 432.31 333.97 426.59 333.97 426.59 328.37 420.87 328.37 420.86 349.6 415.14 349.6 415.14 352.36 409.42 352.36 409.41 349.33 403.69 349.33 403.69 345.11 397.97 345.11 397.97 353.41 392.24 353.41 392.24 353.55 386.52 353.55 386.52 355.59 380.8 355.59 380.79 355.36 375.07 355.36 375.07 342.37 369.35 342.37 369.34 350.83 363.62 350.83 363.62 351.8 357.9 351.8 357.9 369.79 352.17 369.79 352.17 339.87 346.45 339.87 346.45 330.61 340.73 330.61 340.72 330 335 330 335 329.82 329.28 329.82 329.27 324.89 323.55 324.89 323.55 331.22 317.83 331.22 317.83 336.88 312.1 336.88 312.1 357.08 306.38 357.08 306.38 361.85 300.66 361.85 300.65 362.01 294.93 362.01 294.93 367.87 289.21 367.87 289.2 362.25 283.48 362.25 283.48 373.25 277.76 373.25 277.76 379.91 272.03 379.91 272.03 356.06 266.31 356.06 266.31 354.41 260.59 354.41 260.58 346.37 254.86 346.37 254.86 351.98 249.14 351.98 249.13 336.51 243.41 336.51 243.41 315.59 237.69 315.59 237.69 309.26 231.96 309.26 231.96 293.67 226.24 293.67 226.24 319.49 220.51 319.49 220.51 338.83 214.79 338.83 214.79 356.77 209.07 356.77 209.06 338.9 203.34 338.9 203.34 360.77 197.62 360.77 197.62 327.03 191.89 327.03 191.89 337.94 186.17 337.94 186.17 311.87 180.44 311.87 180.44 290.66 174.72 290.66 174.72 277.26 169 277.26 168.99 257.02 163.27 257.02 163.27 282.76 157.55 282.76 157.55 286.88 151.82 286.88 151.82 252.48 146.1 252.48 146.1 263.33 140.37 263.33 140.37 271.44 134.65 271.44 134.65 299.42 128.93 299.42 128.92 282.7 123.2 282.7 123.2 290.62 117.48 290.62 117.48 313.32 111.75 313.32 111.75 334.14 106.03 334.14 106.03 306.7 100.3 306.7 100.3 304.99 94.58 304.99 94.58 316.5 88.86 316.5 88.85 329.76 83.13 329.76 83.13 331.55 77.41 331.55 77.4 343.94 71.68 343.94 71.68 312.81 65.96 312.81 65.96 288.53 60.23 288.53 60.23 323.93 54.51 323.93 54.51 315.46 48.78 315.46 48.78 301.49 43.06 301.49 43.06 439.4" fill="url(#linear-gradient)" opacity=".25"/>
  <polyline points="449.49 378.08 443.76 378.08 443.76 345.96 438.04 345.96 438.04 345.19 432.31 345.19 432.31 333.97 426.59 333.97 426.59 328.37 420.87 328.37 420.86 349.6 415.14 349.6 415.14 352.36 409.42 352.36 409.41 349.33 403.69 349.33 403.69 345.11 397.97 345.11 397.97 353.41 392.24 353.41 392.24 353.55 386.52 353.55 386.52 355.59 380.8 355.59 380.79 355.36 375.07 355.36 375.07 342.37 369.35 342.37 369.34 350.83 363.62 350.83 363.62 351.8 357.9 351.8 357.9 369.79 352.17 369.79 352.17 339.87 346.45 339.87 346.45 330.61 340.73 330.61 340.72 330 335 330 335 329.82 329.28 329.82 329.27 324.89 323.55 324.89 323.55 331.22 317.83 331.22 317.83 336.88 312.1 336.88 312.1 357.08 306.38 357.08 306.38 361.85 300.66 361.85 300.65 362.01 294.93 362.01 294.93 367.87 289.21 367.87 289.2 362.25 283.48 362.25 283.48 373.25 277.76 373.25 277.76 379.91 272.03 379.91 272.03 356.06 266.31 356.06 266.31 354.41 260.59 354.41 260.58 346.37 254.86 346.37 254.86 351.98 249.14 351.98 249.13 336.51 243.41 336.51 243.41 315.59 237.69 315.59 237.69 309.26 231.96 309.26 231.96 293.67 226.24 293.67 226.24 319.49 220.51 319.49 220.51 338.83 214.79 338.83 214.79 356.77 209.07 356.77 209.06 338.9 203.34 338.9 203.34 360.77 197.62 360.77 197.62 327.03 191.89 327.03 191.89 337.94 186.17 337.94 186.17 311.87 180.44 311.87 180.44 290.66 174.72 290.66 174.72 277.26 169 277.26 168.99 257.02 163.27 257.02 163.27 282.76 157.55 282.76 157.55 286.88 151.82 286.88 151.82 252.48 146.1 252.48 146.1 263.33 140.37 263.33 140.37 271.44 134.65 271.44 134.65 299.42 128.93 299.42 128.92 282.7 123.2 282.7 123.2 290.62 117.48 290.62 117.48 313.32 111.75 313.32 111.75 334.14 106.03 334.14 106.03 306.7 100.3 306.7 100.3 304.99 94.58 304.99 94.58 316.5 88.86 316.5 88.85 329.76 83.13 329.76 83.13 331.55 77.41 331.55 77.4 343.94 71.68 343.94 71.68 312.81 65.96 312.81 65.96 288.53 60.23 288.53 60.23 323.93 54.51 323.93 54.51 315.46 48.78 315.46 48.78 301.49 43.06 301.49" fill="none" opacity=".5" stroke="#231f20" stroke-miterlimit="10" stroke-width=".5"/>
  <path id="path37" d="M0,468h489.6" fill="none" stroke="#231f20" stroke-miterlimit="3" stroke-width=".57"/>
  <text transform="translate(7.37 477.25)" font-size="8"><tspan x="0" y="0" font-family="OpenSans-Bold, &apos;Open Sans&apos;" font-weight="700">Data Sources:</tspan><tspan x="54.48" y="0" xml:space="preserve" font-family="OpenSans, &apos;Open Sans&apos;"> Canada Mortgage and Housing Corporation (2025)</tspan></text>
  <line x1="92.57" y1="82.8" x2="92.57" y2="216" fill="none" stroke="#0e534d" stroke-width=".75"/>
  <line x1="213.72" y1="82.8" x2="213.72" y2="154.19" fill="none" stroke="#ab2069" stroke-width=".75"/>
  <line x1="308.28" y1="82.8" x2="308.28" y2="213.4" fill="none" stroke="#efc419" stroke-width=".75"/>
  <line x1="398.42" y1="94.7" x2="398.42" y2="171.58" fill="none" stroke="#067fa3" stroke-width=".75"/>
  <circle cx="92.57" cy="216" r="1" fill="#0e534d" stroke="#fff" stroke-width=".5"/>
  <circle cx="213.72" cy="154.19" r="1" fill="#ab2069" stroke="#fff" stroke-width=".5"/>
  <circle cx="308.28" cy="213.4" r="1" fill="#efc419" stroke="#fff" stroke-width=".5"/>
  <circle cx="398.42" cy="171.58" r="1" fill="#067fa3" stroke="#fff" stroke-width=".5"/>
  <rect x="330.47" y="394.37" width="83.48" height="27.76" rx="3.17" ry="3.17" fill="#fff"/>
  <text transform="translate(335.82 406.24)" font-family="OpenSans-Italic, &apos;Open Sans&apos;" font-size="8" font-style="italic" font-variation-settings="&apos;wght&apos; 400, &apos;wdth&apos; 100"><tspan x="0" y="0">Construction lagging</tspan><tspan x="3.78" y="9.6">behind population</tspan></text>
  <rect x="55.87" y="394.37" width="89.09" height="27.76" rx="3.18" ry="3.18" fill="#fff"/>
  <text transform="translate(59.07 406.24)" font-family="OpenSans-Italic, &apos;Open Sans&apos;" font-size="8" font-style="italic" font-variation-settings="&apos;wght&apos; 400, &apos;wdth&apos; 100"><tspan x="0" y="0">Construction outpacing</tspan><tspan x="8.46" y="9.6">population growth</tspan></text>
</svg>