<?xml version="1.0" encoding="UTF-8" standalone="no"?>
<svg
   viewBox="0 0 326.4 326.40001"
   version="1.1"
   id="svg22"
   sodipodi:docname="small-businesses_BIAs-map.svg"
   width="3.4000001in"
   height="3.4000001in"
   inkscape:version="1.4.2 (1:1.4.2+202505120738+ebf0e940d0)"
   xmlns:inkscape="http://www.inkscape.org/namespaces/inkscape"
   xmlns:sodipodi="http://sodipodi.sourceforge.net/DTD/sodipodi-0.dtd"
   xmlns="http://www.w3.org/2000/svg"
   xmlns:svg="http://www.w3.org/2000/svg">
  <defs
     id="defs22" />
  <sodipodi:namedview
     id="namedview22"
     pagecolor="#ffffff"
     bordercolor="#666666"
     borderopacity="1.0"
     inkscape:showpageshadow="2"
     inkscape:pageopacity="0.0"
     inkscape:pagecheckerboard="0"
     inkscape:deskcolor="#d1d1d1"
     showgrid="false"
     inkscape:zoom="1"
     inkscape:cx="272"
     inkscape:cy="211"
     inkscape:window-width="1920"
     inkscape:window-height="1043"
     inkscape:window-x="0"
     inkscape:window-y="0"
     inkscape:window-maximized="1"
     inkscape:current-layer="svg22"
     inkscape:document-units="in">
    <inkscape:grid
       id="grid22"
       units="in"
       originx="0"
       originy="0"
       spacingx="9.6000001"
       spacingy="9.6000001"
       empcolor="#0099e5"
       empopacity="0.30196078"
       color="#0099e5"
       opacity="0.14901961"
       empspacing="5"
       enabled="true"
       visible="false" />
  </sodipodi:namedview>
  <text
     fill="#7773b2"
     font-family="OpenSans-BoldItalic, 'Open Sans'"
     font-size="8.7534px"
     font-style="italic"
     font-weight="700"
     stroke="#7773b2"
     stroke-miterlimit="10"
     id="text8-6"
     x="262.16867"
     y="261.0192"
     style="font-size:10.6667px;stroke-width:0.87534"><tspan
       x="262.16867"
       y="261.0192"
       id="tspan8-0"
       style="font-size:10.6667px;stroke-width:0.87534">22</tspan></text>
  <g
     id="g2031"
     transform="matrix(0.87534031,0,0,0.87534031,-51.811796,-8.7430925)">
    <path
       id="CA-ON-5"
       d="m 287.14,350.82 c 0.3,-0.55 0.65,-0.82 1.42,-0.93 0.57,-0.08 1.2,-0.27 1.39,-0.41 0.52,-0.33 0.76,-2.24 0.35,-2.48 -0.25,-0.14 -0.27,-0.35 -0.08,-0.71 0.14,-0.27 0.35,-0.98 0.44,-1.53 0.11,-0.55 0.41,-1.17 0.68,-1.36 0.98,-0.68 1.83,-2.29 1.75,-3.25 -0.05,-0.52 -0.11,-1.91 -0.14,-3.14 -0.03,-2.07 0.03,-2.32 0.93,-3.95 l 0.98,-1.75 -0.49,-1.09 c -0.27,-0.6 -0.76,-1.31 -1.06,-1.61 -0.57,-0.52 -0.79,-1.25 -0.38,-1.25 0.11,0 0.93,0.74 1.8,1.64 1.45,1.47 2.92,2.43 4.39,2.84 1.5,0.41 2.32,-2.1 1.2,-3.68 -0.71,-1.04 -3.68,-4.25 -4.45,-4.83 -0.27,-0.22 -1.34,-0.49 -2.32,-0.6 -0.98,-0.11 -2.48,-0.41 -3.3,-0.63 -1.06,-0.3 -2.65,-0.44 -5.51,-0.44 -3.74,0 -4.04,-0.03 -4.42,-0.57 -0.22,-0.3 -1.04,-0.9 -1.83,-1.31 -1.17,-0.6 -1.45,-0.87 -1.47,-1.47 -0.03,-0.41 -0.38,-1.09 -0.82,-1.55 -0.68,-0.71 -0.71,-0.85 -0.33,-0.98 0.6,-0.25 0.57,-0.82 -0.11,-1.77 -0.3,-0.44 -0.79,-1.31 -1.09,-1.99 -0.46,-1.06 -0.65,-1.23 -1.58,-1.36 -1.04,-0.16 -3.95,-1.55 -4.64,-2.24 -0.22,-0.19 -0.41,-0.82 -0.44,-1.39 -0.03,-0.57 -0.16,-1.39 -0.27,-1.83 l -0.22,-0.79 -2.21,0.14 c -2.05,0.14 -2.32,0.08 -3.79,-0.65 l -1.58,-0.79 -1.12,0.71 c -1.04,0.65 -1.09,0.74 -0.71,1.15 0.38,0.38 0.27,0.55 -1.39,1.61 -1.01,0.65 -2.26,1.66 -2.81,2.24 -1.09,1.17 -1.23,1.2 -5.15,0.55 -1.12,-0.19 -2.92,-0.35 -3.98,-0.38 -1.83,-0.05 -3.65,-0.71 -3.65,-1.28 0,-0.11 -0.33,-0.22 -0.71,-0.22 -0.44,0 -1.09,-0.38 -1.72,-0.95 -1.01,-0.95 -1.04,-0.95 -3.52,-0.95 -1.8,0 -2.62,-0.11 -2.89,-0.38 -0.22,-0.22 -0.87,-0.46 -1.45,-0.57 -1.5,-0.27 -1.66,-0.46 -1.85,-2.37 -0.16,-1.55 -0.25,-1.75 -1.06,-2.13 -0.85,-0.41 -0.87,-0.49 -0.85,-2.05 0.03,-1.75 0.35,-9.05 0.52,-11.7 0.05,-0.9 0.19,-3.6 0.27,-5.97 0.22,-5.45 -0.25,-4.58 6.24,-11.34 1.36,-1.42 3.27,-3.49 4.25,-4.61 0.98,-1.12 1.88,-2.15 2.05,-2.32 0.17,-0.17 1.75,-2.02 3.55,-4.12 1.8,-2.1 3.87,-4.5 4.64,-5.32 3.68,-4.06 5.32,-5.92 5.81,-6.54 l 0.55,-0.68 0.9,0.52 c 1.12,0.63 2.95,2.35 2.95,2.75 0,0.16 0.41,0.68 0.9,1.17 0.65,0.65 1.31,0.95 2.54,1.17 1.12,0.22 1.88,0.55 2.45,1.09 0.79,0.74 1.47,0.98 2.73,1.04 0.3,0 1.23,0.63 2.05,1.34 l 1.47,1.31 5.1,0.16 c 4.45,0.14 5.26,0.25 6.24,0.74 l 1.12,0.57 -0.19,2.37 c -0.11,1.31 -0.3,2.48 -0.41,2.59 -0.14,0.14 0,0.6 0.27,1.09 0.27,0.46 0.6,1.39 0.68,2.07 0.3,2.18 0.35,2.4 0.6,2.92 0.14,0.27 0.22,1.06 0.16,1.75 -0.08,1.01 0.08,1.5 0.74,2.54 1.06,1.66 4.34,5.62 4.66,5.62 0.63,0 2.37,2.26 2.86,3.68 l 0.52,1.55 1.69,-0.14 1.69,-0.14 0.16,1.39 c 0.27,2.21 0.38,3.19 0.55,4.8 0.08,0.82 0.19,1.8 0.27,2.18 0.05,0.38 0.19,1.42 0.27,2.32 0.08,0.9 0.22,1.94 0.27,2.32 0.14,0.9 0.38,3.08 0.57,4.77 0.08,0.76 0.19,1.8 0.27,2.32 0.41,3.27 0.68,5.51 0.82,6.93 0.08,0.87 0.55,2.43 0.98,3.44 0.68,1.55 1.06,2.02 2.4,2.95 1.77,1.25 4.23,2.13 6.71,2.37 1.12,0.11 2.02,0.41 2.89,0.98 0.68,0.44 1.47,0.79 1.77,0.82 0.3,0 0.85,0.46 1.25,1.06 l 0.74,1.06 2.35,-0.14 c 2.05,-0.11 2.59,-0.25 4.06,-1.06 1.72,-0.95 3.11,-1.39 3.14,-0.98 0.05,0.41 0.19,1.12 0.38,1.69 0.14,0.46 -0.03,0.76 -0.85,1.47 -1.69,1.45 -3.11,2.95 -5.13,5.45 -1.04,1.31 -2.02,2.37 -2.18,2.4 -0.46,0.03 -1.55,1.06 -1.39,1.31 0.33,0.52 -1.88,1.34 -3.68,1.39 -3.25,0.11 -7.94,2.02 -8.94,3.68 -0.98,1.64 -0.98,2.05 0.05,2.45 0.52,0.22 1.17,0.33 1.47,0.25 0.41,-0.11 0.63,0.08 0.98,0.82 0.52,1.12 0.35,1.25 -1.47,1.25 -1.09,0 -4.09,1.12 -4.85,1.83 -0.35,0.33 -0.33,0.44 0.27,0.9 l 0.68,0.52 -0.74,0.19 c -0.41,0.11 -1.28,0.05 -1.96,-0.11 -2.59,-0.65 -3.19,-0.35 -6.41,3 -1.77,1.85 -2.22,2.07 -3,2.34 -0.85,0.31 -2.32,0.23 -2.7,0 l 0.44,-0.76 z"
       fill="#1e3864" />
    <path
       id="path1053"
       d="m 282.25,322.82 c 0.11,-0.09 2.22,0.05 3.04,0.04 0.89,-0.01 0.31,0.64 1.29,0.75 0.85,0.26 0.51,-0.56 1.1,-0.65 0.59,-0.16 2.08,-0.34 2.94,-0.21 0.74,0.28 -0.32,0.8 0.1,1.11 0.48,0.36 1.18,-1.13 1.37,-0.55 0.23,0.29 -1.3,2.86 -1.3,2.86 -5.27,-2.66 -8.54,-2.73 -8.53,-3.35 v 0 z"
       fill="#1e3864" />
  </g>
  <path
     id="CA-AB"
     d="m 82.570449,245.56077 c -12.771216,-3.37006 -11.414438,-2.86236 -12.149724,-4.56052 l -0.647752,-1.43556 0.525204,-2.65228 c 0.551465,-2.79234 0.525205,-3.48385 -0.218835,-4.93692 -0.236342,-0.49894 -0.954121,-1.88198 -1.549352,-3.0812 -0.595231,-1.19921 -1.339271,-2.86236 -1.601873,-3.70269 -0.288862,-0.83157 -0.814066,-1.97827 -1.190463,-2.55599 -0.376396,-0.57773 -0.761546,-1.43556 -0.857833,-1.90824 -0.09629,-0.47269 -0.455177,-1.21673 -0.831573,-1.64564 -0.38515,-0.42892 -0.691519,-0.91036 -0.691519,-1.02415 0,-0.11379 -0.218835,-0.56897 -0.498944,-0.95412 -0.288863,-0.40266 -0.595232,-1.38304 -0.717779,-2.29339 -0.140055,-1.00664 -0.428917,-1.90824 -0.814067,-2.43345 -0.306369,-0.45518 -0.691519,-1.12043 -0.814066,-1.47932 -0.140055,-0.35889 -0.621492,-0.8841 -1.076669,-1.19047 -0.831573,-0.55146 -1.146696,-1.40929 -0.621492,-1.74192 0.140055,-0.07 0.236342,-0.74404 0.236342,-1.47933 0,-1.28675 1.575613,-5.80351 12.219751,-35.06613 l 0.954121,-2.65228 5.278302,1.76818 c 2.914883,0.98039 7.326599,2.36342 9.812565,3.0812 2.485965,0.71778 6.89768,2.03079 9.760043,2.86236 2.888623,0.83158 5.252044,1.54936 5.295804,1.60188 0.16632,0.16631 -0.71777,3.65017 -0.95412,3.81648 -0.14005,0.0963 -0.5252,0.23634 -0.83157,0.33263 -0.595231,0.16632 -3.107458,2.62602 -3.124964,3.0812 0,0.14005 0.385149,0.42892 0.831573,0.66526 0.814066,0.38515 0.884094,0.38515 1.531845,-0.07 0.385146,-0.2626 0.761546,-0.71778 0.831576,-0.98038 0.0963,-0.2626 0.21883,-0.42892 0.2626,-0.38515 0.07,0.07 -0.30637,1.86447 -0.83157,4.00906 -1.216727,5.08572 -2.529737,10.57411 -4.341691,18.11954 -0.787807,3.3438 -1.715667,7.16029 -2.03079,8.4733 -1.601873,6.60882 -3.011171,12.53487 -3.772717,15.75612 -4.061577,16.99911 -3.702688,15.65984 -3.939029,15.60732 -0.02626,-0.0438 -1.601873,-0.45518 -3.440088,-0.95412 z"
     fill="#7773b2"
     style="stroke-width:0.87534" />
  <g
     id="CA-BC"
     transform="matrix(0.87534031,0,0,0.87534031,-51.811796,-8.7430925)">
    <path
       id="path1060"
       d="m 95.57,276.26 c -1.75,-1.12 -4.36,-4.53 -4.36,-5.7 0,-0.65 -0.16,-0.87 -0.79,-1.12 -0.82,-0.3 -1.42,-1.36 -1.8,-3.05 -0.08,-0.46 -0.44,-1.25 -0.79,-1.77 -0.33,-0.52 -0.82,-1.5 -1.09,-2.18 -0.27,-0.68 -0.98,-2.05 -1.58,-3.08 -0.65,-1.12 -1.25,-2.51 -1.45,-3.55 -0.19,-0.93 -0.52,-2.1 -0.71,-2.59 -0.35,-0.85 -0.33,-0.93 0.44,-1.55 0.44,-0.35 1.04,-0.68 1.34,-0.68 0.55,0 2.15,1.55 4.8,4.61 0.82,0.95 1.64,1.88 1.77,2.05 0.16,0.16 0.71,0.85 1.23,1.53 0.52,0.68 1.01,1.28 1.09,1.36 0.38,0.33 1.06,2.73 1.25,4.34 0.16,1.53 0.35,1.96 1.53,3.52 1.58,2.07 1.72,2.37 1.96,4.53 0.11,0.87 0.35,2.07 0.57,2.65 0.19,0.57 0.3,1.12 0.19,1.2 -0.38,0.38 -2.7,0.08 -3.6,-0.49 z"
       fill="#424d8b" />
    <path
       id="path1062"
       d="m 138.79,286.54 c -0.25,-0.08 -5.86,-1.83 -10.23,-3.19 -1.5,-0.46 -17.43,-6.44 -24,-9 -1.12,-0.44 -2.4,-0.93 -2.86,-1.09 -1.04,-0.38 -1.23,-0.65 -1.23,-1.91 0,-0.71 -0.19,-1.17 -0.57,-1.5 -1.58,-1.31 -2.15,-1.96 -2.15,-2.48 0,-0.33 -0.11,-0.57 -0.25,-0.57 -0.65,0 -1.61,-1.45 -1.77,-2.7 -0.27,-2.05 -1.17,-3.82 -2.78,-5.45 -1.45,-1.47 -1.45,-1.5 -1.31,-2.81 0.14,-1.06 0.08,-1.31 -0.25,-1.31 -0.22,0 -0.46,-0.11 -0.52,-0.22 -0.05,-0.11 -0.68,-0.55 -1.39,-0.95 -0.71,-0.4 -1.31,-0.9 -1.31,-1.09 0,-0.19 -0.08,-0.57 -0.14,-0.87 -0.16,-0.74 -0.16,-1.23 -0.14,-4.15 0.03,-2.45 0.05,-2.54 0.87,-3.22 0.76,-0.65 0.82,-0.76 0.52,-1.55 -0.16,-0.46 -0.3,-1.34 -0.3,-1.94 0,-0.82 -0.27,-1.45 -1.09,-2.65 -0.93,-1.31 -1.06,-1.72 -0.95,-2.51 0.08,-0.52 0.41,-1.15 0.71,-1.39 0.63,-0.52 0.57,-0.95 -0.38,-2.81 -0.46,-0.93 -0.55,-1.61 -0.55,-4.64 0,-3.41 0.03,-3.55 0.71,-4.23 0.38,-0.38 1.34,-0.93 2.15,-1.23 1.96,-0.74 3.52,-2.13 3.52,-3.16 0,-1.09 0.6,-2.37 1.61,-3.49 0.76,-0.85 0.85,-1.12 0.85,-2.62 0,-1.5 -0.08,-1.75 -0.82,-2.4 -0.93,-0.85 -2.56,-3.93 -3.03,-5.7 -0.27,-1.06 -0.22,-1.64 0.44,-4.28 0.65,-2.7 0.71,-3.25 0.44,-4.61 -0.16,-0.85 -0.35,-2.7 -0.46,-4.15 -0.08,-1.42 -0.22,-2.84 -0.27,-3.16 -0.05,-0.33 -0.19,-1.06 -0.27,-1.64 -0.08,-0.58 -0.52,-2.59 -0.95,-4.47 -0.43,-1.88 -0.87,-3.68 -0.95,-4.01 -0.08,-0.38 -0.52,-0.76 -1.15,-1.04 -1.91,-0.79 -2.15,-0.79 -2.7,0.11 -0.35,0.6 -0.93,0.98 -2.15,1.42 -0.9,0.33 -2.13,0.82 -2.73,1.12 -0.6,0.27 -1.09,0.52 -1.15,0.52 -0.03,0 0.05,-0.41 0.16,-0.9 0.38,-1.36 0.14,-4.64 -0.41,-5.45 -0.57,-0.85 -0.49,-3.38 0.11,-3.27 0.19,0.05 2.95,1.77 6.14,3.85 8.64,5.64 18.08,11.4 22.66,13.8 2.26,1.17 4.2,2.21 4.36,2.32 0.74,0.52 9.16,4.77 12.27,6.22 1.96,0.9 6.19,2.65 9.41,3.87 3.22,1.25 5.97,2.35 6.08,2.45 0.11,0.1 0.08,0.49 -0.05,0.85 -0.16,0.35 -1.58,4.28 -3.16,8.7 -1.58,4.42 -3.35,9.33 -3.95,10.91 -6.3,17.18 -7.64,21.08 -7.64,22.44 0,0.82 -0.16,1.66 -0.41,1.99 -0.6,0.85 -0.25,2.02 0.76,2.67 1.28,0.82 2.92,3.87 3.11,5.78 0.11,1.04 0.41,1.96 0.93,2.78 0.44,0.68 0.76,1.34 0.76,1.5 0,0.14 0.3,0.57 0.65,0.98 0.35,0.38 0.79,1.28 0.98,1.99 0.19,0.71 0.46,1.36 0.6,1.45 0.35,0.22 1.47,2.56 1.72,3.52 0.11,0.46 1.06,2.59 2.13,4.75 1.12,2.26 1.94,4.28 1.94,4.77 0,0.46 -0.22,1.99 -0.46,3.41 -0.49,2.65 -0.41,3.76 0.3,4.88 0.49,0.68 0.46,0.9 0,0.76 z"
       fill="#424d8b" />
    <path
       id="path1064"
       d="m 76.26,235.08 c -1.12,-2.56 -1.53,-5.62 -1.34,-9.98 0.11,-2.54 0.27,-4.06 0.52,-4.34 0.19,-0.22 0.35,-0.63 0.35,-0.85 0,-0.71 1.17,-0.68 2.26,0.05 1.31,0.87 3.05,2.62 3.05,3.03 0,0.19 -1.09,1.47 -2.45,2.89 -2.86,3 -2.92,3.14 -1.77,7.23 0.38,1.34 0.68,2.67 0.68,2.92 0,0.95 -0.71,0.44 -1.31,-0.95 z"
       fill="#424d8b" />
  </g>
  <path
     id="CA-MB"
     d="m 128.80592,182.97394 -0.16631,1.50559 c -0.0963,0.83157 -0.21884,1.6719 -0.23634,1.86447 -0.0175,0.19257 -0.14006,0.95412 -0.23635,1.6719 -0.0963,0.71778 -0.21883,1.47933 -0.23634,1.6719 -0.0175,0.19257 -0.23634,1.74193 -0.48144,3.44009 -0.38515,2.91488 -0.38515,3.12496 0,3.77271 0.40266,0.66526 0.38515,0.69152 -0.2626,1.53185 -0.38515,0.48144 -0.7878,1.02415 -0.95412,1.24298 -0.14005,0.21884 -0.35889,1.79445 -0.42892,3.48386 -0.07,1.6894 -0.19257,3.53637 -0.23634,4.06158 -0.0438,0.5252 -0.14005,1.90824 -0.23634,3.10745 -0.0963,1.19922 -0.19257,2.79234 -0.2626,3.58015 -0.23634,3.27377 -0.35889,4.63055 -0.48144,6.4425 -0.07,1.05041 -0.19257,2.45971 -0.23634,3.10746 -0.0438,0.64775 -0.16631,2.26713 -0.23634,3.58014 -0.07,1.31301 -0.19258,2.8186 -0.23634,3.3438 -0.0438,0.52521 -0.14006,2.07456 -0.23635,3.4576 -0.0963,1.38303 -0.19257,2.88862 -0.23634,3.3438 -0.0438,0.45517 -0.14005,2.07455 -0.23634,3.58014 -0.0963,1.50558 -0.19257,2.91488 -0.23634,3.10746 -0.12255,0.64775 -0.45518,6.0661 -0.45518,7.64172 l -0.0263,1.54935 1.43556,0.14005 c 2.29339,0.23634 4.4905,0.48144 5.12949,0.56897 0.33263,0.0438 1.19047,0.14006 1.90825,0.23635 1.38303,0.14005 2.17084,0.23634 4.29792,0.49894 0.71778,0.0963 2.33716,0.23634 3.58014,0.30637 1.24298,0.07 3.37006,0.19257 4.70058,0.21883 l 2.40718,0.07 0.14006,-1.14669 c 0.07,-0.6215 0.19257,-2.43345 0.2626,-4.00906 0.07,-1.57562 0.16631,-3.63267 0.23634,-4.53427 0.0438,-0.91035 0.16631,-3.29128 0.23634,-5.25204 0.2626,-6.82765 0.33263,-7.51917 0.91036,-8.47329 0.28886,-0.48144 1.97827,-2.43345 3.77271,-4.32418 1.79445,-1.89074 3.7202,-3.96529 4.29792,-4.60429 0.57773,-0.639 1.17296,-1.31301 1.28675,-1.45307 2.2934,-2.58225 3.41383,-3.869 4.63055,-5.34833 0.81407,-0.98038 2.24088,-2.59976 3.15123,-3.6064 0.91035,-1.00664 2.03079,-2.24087 2.45971,-2.74857 0.45517,-0.49894 1.35677,-1.50558 2.03079,-2.24087 0.67401,-0.73528 1.21672,-1.43556 1.21672,-1.57561 0,-0.2626 -1.24299,-0.78781 -2.33716,-0.95412 -1.64564,-0.2626 -2.10082,-0.42892 -2.38968,-0.81407 -0.23634,-0.33263 -0.62149,-0.40266 -1.74193,-0.38515 -0.7878,0.0263 -1.53184,0.14006 -1.61938,0.30637 -0.19257,0.28886 -2.95865,0.64775 -3.48385,0.42892 -0.23634,-0.0963 -0.28886,-0.28887 -0.16632,-0.64775 0.19258,-0.49895 0.14006,-0.78781 -0.5252,-4.00906 -0.48144,-2.2934 -0.62149,-2.98491 -0.78781,-4.29792 -0.19257,-1.50559 -0.81406,-1.96077 -3.29128,-2.48597 -1.60187,-0.33263 -2.14458,-0.55147 -2.33715,-0.92786 -0.28887,-0.55147 -0.28887,-2.43345 0.0263,-4.98944 l 0.19257,-1.61938 -1.26924,-0.0263 c -0.69152,-0.0263 -1.35678,-0.0438 -1.45307,-0.07 -0.0963,-0.0263 -0.98038,-0.12255 -1.97827,-0.23634 -0.99788,-0.11379 -1.96076,-0.21884 -2.14458,-0.2626 -0.19258,-0.0263 -1.09418,-0.14006 -2.00453,-0.23634 -0.91035,-0.0963 -1.88198,-0.21884 -2.14458,-0.26261 -0.26261,-0.0438 -1.1467,-0.14005 -1.93451,-0.21883 -0.7878,-0.0788 -2.29339,-0.23634 -3.3438,-0.35889 -1.0504,-0.12255 -2.55599,-0.28886 -3.3438,-0.35889 -0.7878,-0.07 -1.9345,-0.19258 -2.55599,-0.28886 l -1.07667,-0.0963 z m 6.82766,41.03595 c 0.92786,0 1.53184,0.42892 2.00453,1.35678 0.28886,0.55147 0.56897,1.02415 0.66525,1.09418 0.45518,0.30637 1.53185,3.22125 1.33928,3.53637 -0.12255,0.21884 0.30636,1.53185 0.76154,2.36342 0.16632,0.28886 0.2626,1.09418 0.23634,1.79445 -0.0438,1.33927 0.74404,4.2454 1.50559,5.5409 0.30637,0.52521 0.42892,1.35678 0.49894,2.98491 0.07,2.24087 0.0438,2.26713 -0.49894,2.33716 -0.30637,0.0438 -0.76155,0.33263 -1.02415,0.66526 -0.5252,0.66526 -0.95412,0.71778 -1.45306,0.23634 -0.40266,-0.40265 -0.28887,-2.12708 0.21883,-2.86236 0.16632,-0.2626 0.38515,-0.78781 0.42892,-1.17296 0.07,-0.38515 0.2626,-0.83157 0.42891,-1.02415 0.48144,-0.56897 0.45518,-1.14669 -0.0438,-1.45306 -0.38515,-0.23634 -0.49895,-0.21884 -0.76155,0.19257 -0.33263,0.52521 -0.91035,0.64776 -0.91035,0.19258 0,-0.14005 0.12254,-0.62149 0.28886,-1.02415 0.64775,-1.76819 -0.40266,-3.31754 -1.90824,-2.79233 -0.62149,0.21883 -0.78781,0.16631 -1.19047,-0.26261 -0.2626,-0.28886 -0.62149,-1.02414 -0.83157,-1.64564 -0.21008,-0.62149 -0.64775,-1.47932 -0.95412,-1.90824 -0.40266,-0.55146 -0.55146,-1.00664 -0.48144,-1.50558 0.0963,-0.64776 0,-0.76155 -1.05041,-1.33927 -1.54935,-0.81407 -2.17084,-0.56898 -2.22336,0.83157 -0.0263,0.55146 -0.07,1.50558 -0.12255,2.17084 -0.21883,3.27378 -0.21883,3.29128 0.76155,4.06158 2.10082,1.6719 2.26713,1.88198 2.59976,3.3438 0.19257,0.78781 0.33263,1.81196 0.30637,2.29339 0,0.48144 0.28886,1.4093 0.62149,2.07456 0.78781,1.57561 0.83157,2.79234 0.07,3.01117 -0.78781,0.21884 -1.09418,0.19258 -1.26925,-0.12255 -0.16631,-0.2626 -0.81406,-3.29128 -1.28675,-5.9173 -0.2626,-1.47932 -0.62149,-1.9345 -2.26713,-3.01117 -1.31301,-0.85783 -1.96076,-1.53184 -1.88198,-1.97827 0.0263,-0.16631 0.0438,-0.49894 0.07,-0.76154 0.0263,-0.2626 0.16631,-0.59523 0.35889,-0.78781 0.21883,-0.21883 0.30637,-0.88409 0.30637,-1.90824 q 0,-1.57561 -0.91036,-2.10082 c -1.02415,-0.56897 -1.38304,-1.12043 -1.38304,-2.03079 0,-0.49894 0.12255,-0.62149 0.59524,-0.62149 0.88409,0 1.19046,-0.76155 0.59523,-1.50558 -0.2626,-0.33263 -0.48144,-0.71778 -0.48144,-0.85784 0,-0.30637 1.12044,-0.81406 1.76819,-0.7878 0.56897,0.0263 1.81195,1.19046 1.81195,1.71566 0,0.21884 0.23634,0.62149 0.55147,0.91036 l 0.55146,0.5252 0.30637,-0.85783 c 0.5252,-1.47933 1.50559,-2.69605 2.29339,-2.88863 0.33263,-0.0438 0.66526,-0.0963 0.98038,-0.0963 z"
     fill="#7773b2"
     style="stroke-width:0.87534" />
  <path
     id="CA-NB"
     d="m 266.40067,266.63897 c -0.55147,-0.14006 -1.19047,-0.8841 -1.60188,-1.79445 -0.14005,-0.35889 -0.5252,-0.71778 -0.81406,-0.78781 -0.98038,-0.23634 -2.50348,-4.22789 -2.50348,-6.53879 0,-0.78781 -0.14005,-1.19046 -0.55146,-1.57561 -0.92786,-0.8841 -2.17085,-1.53185 -2.95865,-1.53185 h -0.76155 l -0.0963,-1.50558 c -0.0438,-0.81407 -0.0438,-1.57562 0,-1.6719 0.0438,-0.0963 0.74403,-0.19258 1.57561,-0.19258 1.76819,-0.0263 2.72231,-0.33263 3.72019,-1.24298 0.45518,-0.40266 1.4093,-0.83157 2.50348,-1.1467 1.64564,-0.45517 1.83821,-0.45517 2.66979,-0.12254 0.85783,0.35889 0.91035,0.35889 1.35677,-0.14006 0.98038,-1.05041 3.74646,-1.86447 3.74646,-1.12043 0,0.16631 -0.16632,0.56897 -0.35889,0.91035 -0.49894,0.88409 -0.45518,2.91488 0.0963,3.6064 0.23634,0.30637 0.5252,0.92786 0.62149,1.35678 0.0963,0.48144 0.59523,1.19046 1.28675,1.86447 1.07667,1.02415 1.17296,1.05041 2.55599,1.05041 0.81407,0 1.53185,0.07 1.60188,0.14006 0.07,0.07 -0.40266,0.69152 -1.05041,1.38303 -0.64775,0.66526 -1.45307,1.81196 -1.79445,2.50348 -0.85783,1.79445 -3.84274,4.82312 -4.7531,4.82312 -0.5252,0 -0.76154,0.16632 -0.98038,0.66526 -0.48144,0.95412 -2.03079,1.43556 -3.53637,1.05041 z"
     fill="#7773b2"
     style="stroke-width:0.87534" />
  <g
     id="CA-NL"
     transform="matrix(0.87534031,0,0,0.87534031,-51.811796,-8.7430925)">
    <path
       id="path1069"
       d="m 393.93,284.63 c -0.76,-0.95 -0.74,-2.13 0.05,-3.19 0.85,-1.15 0.93,-2.54 0.19,-2.78 -0.71,-0.22 -0.68,-0.79 0.03,-1.96 0.52,-0.85 0.57,-1.17 0.41,-3.3 -0.27,-3.82 -0.19,-8.29 0.25,-12.74 0.03,-0.3 0.14,-1.53 0.27,-2.73 0.25,-2.51 0.74,-3.44 2.7,-4.94 1.06,-0.82 1.36,-0.93 1.69,-0.63 1.01,0.85 1.23,1.83 1.12,5.15 -0.05,1.77 -0.19,3.33 -0.27,3.46 -0.08,0.13 -0.22,0.98 -0.33,1.88 l -0.16,1.64 0.68,-0.82 c 0.38,-0.46 0.71,-0.9 0.71,-1.01 0.03,-0.41 1.15,-0.52 2.05,-0.19 1.01,0.35 1.04,0.41 0.95,1.8 l -0.05,0.9 h 1.36 c 0.76,0 1.45,-0.11 1.53,-0.25 0.08,-0.14 0.74,-0.41 1.45,-0.6 0.71,-0.19 1.91,-0.65 2.67,-0.98 1.36,-0.63 2.59,-0.65 3.71,-0.05 0.6,0.3 0.87,1.77 0.44,2.43 -0.27,0.44 -0.25,0.63 0.22,1.06 0.46,0.46 0.74,0.52 1.91,0.33 1.75,-0.27 2.02,-0.16 2.02,0.74 0,0.76 -0.57,1.77 -1.45,2.56 -0.3,0.27 -0.38,0.49 -0.22,0.49 0.16,0 0.33,0.41 0.33,0.93 0,0.52 0.08,1.12 0.16,1.36 0.19,0.49 0.65,0.57 0.65,0.11 0,-0.52 1.36,-2.13 1.77,-2.13 0.22,0 0.52,0.49 0.71,1.09 0.38,1.25 0.74,1.34 1.88,0.49 0.44,-0.33 0.9,-0.49 1.01,-0.38 0.11,0.11 0.25,1.04 0.27,2.02 0.03,1.01 0.08,2.26 0.11,2.84 0.05,1.47 -1.04,3.05 -2.18,3.16 -0.68,0.05 -0.93,-0.08 -1.17,-0.63 -0.38,-0.87 -0.57,-0.87 -1.04,0 -0.74,1.39 -1.34,0.52 -1.66,-2.37 -0.25,-2.13 -0.55,-2.95 -1.09,-2.95 -0.14,0 -0.25,0.44 -0.25,1.01 0,0.82 -0.22,1.2 -1.06,2.02 -0.98,0.93 -1.09,1.2 -1.34,3 -0.35,2.65 -1.01,3.35 -3.16,3.41 -1.85,0.05 -1.99,-0.38 -0.55,-1.75 0.79,-0.74 0.95,-1.09 0.95,-1.99 0,-1.01 -0.03,-1.06 -0.57,-0.76 -1.04,0.55 -2.21,0.79 -2.54,0.52 -0.33,-0.27 -0.79,-0.05 -3.55,1.58 -0.82,0.49 -1.85,0.95 -2.26,1.04 -0.41,0.05 -1.17,0.19 -1.69,0.27 -0.52,0.08 -2.18,0.65 -3.68,1.25 -1.5,0.6 -2.89,1.15 -3.05,1.23 -0.22,0.03 -0.6,-0.25 -0.93,-0.65 z"
       fill="#bdb2d8" />
    <path
       id="path1071"
       d="m 360.04,265.03 c -0.05,-0.05 -0.55,-0.14 -1.12,-0.22 -0.57,-0.08 -1.28,-0.35 -1.55,-0.6 -0.41,-0.38 -0.85,-0.44 -2.1,-0.33 -1.99,0.16 -2.21,0.08 -2.4,-0.95 -0.33,-1.75 -0.35,-1.96 -0.38,-2.29 0,-0.16 -0.22,-0.52 -0.44,-0.74 -0.38,-0.38 -0.52,-0.35 -1.31,0.11 -0.49,0.3 -1.15,0.55 -1.45,0.55 -0.68,0 -1.64,-0.95 -1.23,-1.23 0.3,-0.19 0.38,-1.83 0.14,-2.78 -0.11,-0.35 -0.57,-0.76 -1.28,-1.04 -2.02,-0.79 -4.12,-4.06 -3.44,-5.34 0.16,-0.3 0.41,-0.55 0.55,-0.55 0.27,0 0.76,-1.04 0.9,-1.99 0.05,-0.3 0.35,-0.74 0.65,-0.98 0.33,-0.25 0.71,-0.76 0.85,-1.17 0.25,-0.68 0.33,-0.71 1.45,-0.46 0.65,0.14 1.47,0.46 1.85,0.74 0.95,0.65 1.96,0.46 2.59,-0.52 0.52,-0.79 0.6,-0.82 1.91,-0.63 0.76,0.11 1.58,0.19 1.85,0.16 0.38,-0.03 0.46,0.16 0.38,0.93 -0.05,0.52 -0.16,0.98 -0.22,1.01 -1.2,0.82 -2.15,1.64 -2.26,2.02 -0.08,0.27 -0.52,0.74 -0.98,1.04 -0.95,0.63 -1.01,0.95 -0.27,1.64 0.65,0.6 2.26,0.38 2.81,-0.35 0.63,-0.9 2.02,-1.39 3,-1.09 1.28,0.38 2.26,-0.08 2.84,-1.34 0.49,-1.06 0.55,-2.48 0.11,-2.89 -0.14,-0.14 -0.49,0 -0.82,0.33 -0.35,0.35 -0.93,0.57 -1.5,0.57 -2.05,0 -2.24,-0.55 -0.98,-2.92 0.46,-0.85 0.82,-1.8 0.82,-2.15 0,-0.82 -0.9,-2.89 -1.47,-3.35 -0.25,-0.19 -0.44,-0.57 -0.44,-0.82 0,-0.76 -1.36,-3.14 -2.24,-3.9 -0.57,-0.52 -0.9,-1.09 -1.04,-1.91 -0.11,-0.65 -0.35,-1.96 -0.52,-2.95 -0.17,-0.99 -0.33,-2.56 -0.33,-3.55 -0.03,-2.05 -0.52,-3.16 -1.55,-3.38 -0.38,-0.08 -1.12,-0.41 -1.58,-0.71 -0.98,-0.63 -1.15,-1.42 -0.46,-2.4 0.27,-0.41 0.33,-0.79 0.16,-1.23 -0.25,-0.65 -0.25,-0.9 0.08,-2.37 0.22,-0.93 0.05,-0.98 -2.43,-0.9 -0.6,0.03 -1.01,-0.03 -0.93,-0.11 0.08,-0.08 -0.05,-1.04 -0.33,-2.13 -0.35,-1.55 -0.57,-1.99 -0.98,-2.05 -0.3,-0.05 -0.65,-0.3 -0.82,-0.57 -0.38,-0.63 -1.5,-4.72 -1.34,-4.88 0.27,-0.27 3.46,2.54 4.55,4.04 0.65,0.9 1.39,1.61 1.64,1.61 0.25,0 0.71,0.35 1.04,0.79 0.3,0.44 0.98,1.06 1.47,1.36 0.6,0.38 1.12,1.04 1.5,1.94 0.38,0.87 0.76,1.36 1.06,1.36 0.25,0 0.74,0.41 1.06,0.93 0.46,0.71 0.85,0.95 1.69,1.09 0.95,0.16 1.2,0.33 1.72,1.34 0.33,0.63 0.68,1.64 0.76,2.24 0.14,1.01 0.25,1.09 1.42,1.45 0.68,0.19 1.47,0.57 1.72,0.87 0.44,0.46 0.44,0.63 0.05,1.85 -0.33,1.12 -0.33,1.45 -0.03,1.99 0.19,0.35 0.44,0.98 0.52,1.34 0.14,0.6 0.55,0.82 3.08,1.72 1.61,0.57 3.16,1.04 3.44,1.04 0.28,0 0.95,0.52 1.53,1.12 l 1.04,1.12 2.43,0.11 c 1.34,0.05 2.89,0.3 3.46,0.52 1.06,0.41 1.72,0.25 2.56,-0.57 0.27,-0.27 0.76,-0.22 2.32,0.22 1.09,0.3 2.07,0.65 2.15,0.79 0.35,0.55 -0.11,1.55 -0.85,1.85 -0.41,0.16 -1.42,1.06 -2.21,1.96 -0.79,0.9 -1.83,2.05 -2.26,2.51 -0.43,0.46 -1.39,1.47 -2.1,2.21 -1.31,1.39 -1.91,3.03 -1.2,3.27 0.57,0.22 3.38,-2.73 3.57,-3.76 0.11,-0.65 0.82,-1.61 2.26,-3.16 1.88,-2.02 2.18,-2.24 3.11,-2.24 0.85,0 1.12,0.16 1.64,0.9 0.52,0.76 0.74,0.87 1.31,0.71 1.28,-0.35 2.65,-0.25 3.3,0.25 0.35,0.27 1.39,0.93 2.29,1.42 0.9,0.49 1.66,0.93 1.72,0.95 0.06,0.02 -0.08,0.38 -0.25,0.76 -0.46,1.01 0.08,2.65 1.25,3.82 0.9,0.9 2.05,2.84 2.05,3.44 0,0.44 -1.85,3.3 -2.81,4.28 l -0.82,0.87 -1.12,-1.42 c -0.6,-0.79 -1.23,-1.5 -1.36,-1.61 -0.13,-0.11 -0.71,0.03 -1.23,0.3 -0.52,0.27 -1.61,0.63 -2.4,0.82 -0.79,0.19 -2.32,0.68 -3.41,1.09 -1.09,0.41 -3.33,1.28 -4.99,1.91 -1.66,0.63 -3.57,1.39 -4.31,1.66 -2.59,1.09 -8.26,3.05 -9.33,3.22 -0.87,0.16 -1.39,0.05 -2.62,-0.55 -0.85,-0.41 -1.64,-0.65 -1.8,-0.57 -0.16,0.11 -0.3,0.68 -0.33,1.28 -0.05,1.34 -0.33,3.79 -0.46,3.93 -0.19,0.3 -1.5,0.44 -1.61,0.33 z"
       fill="#bdb2d8" />
  </g>
  <g
     id="CA-NS"
     transform="matrix(0.87534031,0,0,0.87534031,-51.811796,-8.7430925)">
    <path
       id="path1074"
       d="m 372.83,323.44 c -1.58,-0.35 -2.37,-1.25 -3.03,-3.49 -0.33,-1.12 -0.35,-1.75 -0.19,-2.24 0.41,-1.06 2.21,-3.71 3.38,-5.02 0.57,-0.63 1.23,-1.39 1.42,-1.66 0.19,-0.27 0.68,-0.6 1.06,-0.68 0.76,-0.19 3.14,-1.8 3.14,-2.13 0,-0.27 -1.23,0.19 -2.67,1.04 -2.51,1.47 -2.15,-0.93 0.6,-4.06 1.23,-1.39 1.5,-1.58 2.35,-1.55 2.59,0.08 5.51,-0.38 6.46,-1.04 0.6,-0.41 1.15,-0.57 1.42,-0.46 0.25,0.11 1.01,0.22 1.69,0.25 1.45,0.05 2.56,0.68 3.03,1.69 0.3,0.63 0.19,0.82 -1.45,2.43 -0.95,0.95 -1.94,1.94 -2.15,2.18 -0.98,1.04 -3.38,2.86 -3.93,3 -0.35,0.08 -0.95,0.71 -1.42,1.5 -0.74,1.25 -0.87,1.34 -1.64,1.23 -0.71,-0.11 -0.9,0 -1.17,0.55 -0.16,0.38 -0.3,0.79 -0.3,0.95 0,0.16 -0.38,1.17 -0.82,2.24 -0.63,1.5 -1.25,2.43 -2.59,3.79 -0.98,1.01 -1.8,1.8 -1.83,1.8 -0.03,0 -0.65,-0.14 -1.36,-0.3 z"
       fill="#7773b2" />
    <path
       id="path1076"
       d="m 391.18,302.71 c -0.22,-0.19 -1.01,-0.98 -1.75,-1.77 -0.98,-1.04 -1.25,-1.53 -1.04,-1.77 0.16,-0.19 0.65,-1.47 1.12,-2.86 0.93,-2.81 1.83,-4.69 2.21,-4.69 0.49,0 1.09,1.23 1.12,2.18 0,1.55 0.27,2.13 1.04,2.32 0.95,0.25 2.24,1.47 2.24,2.15 0,0.3 -0.38,1.15 -0.85,1.85 -0.63,0.95 -1.01,1.31 -1.47,1.31 -0.38,0 -0.85,0.3 -1.23,0.82 -0.68,0.9 -0.79,0.95 -1.39,0.46 z"
       fill="#7773b2" />
  </g>
  <g
     id="CA-NT"
     transform="matrix(0.87534031,0,0,0.87534031,-51.811796,-8.7430925)"
     style="fill:#ecebe9;fill-opacity:1">
    <path
       id="path1079"
       d="m 129.68,112.26 c -0.46,0 -1.12,0.08 -2.07,0.19 -1.47,0.19 -2.84,0.38 -3.03,0.46 -0.27,0.11 -0.33,0.52 -0.22,1.45 0.16,1.53 -0.19,1.94 -0.85,0.95 -0.25,-0.38 -0.55,-0.68 -0.63,-0.68 -0.46,0 -4.42,7.17 -5.21,9.41 -0.46,1.36 -1.04,2.73 -1.25,3.05 -0.63,0.95 -0.46,1.23 1.31,2.45 3.82,2.59 3.93,2.86 2.35,6.08 -0.55,1.12 -1.06,2.56 -1.15,3.19 -0.11,1.06 -0.05,1.2 0.93,1.99 0.57,0.46 1.01,0.95 0.93,1.06 -0.08,0.11 -0.16,0.9 -0.19,1.77 -0.05,1.69 -0.38,2.24 -1.5,2.51 -0.76,0.19 -1.2,0.85 -1.2,1.85 0,0.38 -0.11,0.71 -0.25,0.71 -0.14,0 -0.33,0.33 -0.41,0.71 -0.14,0.52 -0.03,0.87 0.38,1.31 0.38,0.41 0.57,0.95 0.57,1.8 0,0.71 0.27,1.77 0.65,2.56 0.46,0.93 0.6,1.64 0.52,2.24 -0.11,0.6 0.03,1.25 0.41,1.96 0.55,1.06 0.55,1.09 0.08,2.7 -0.65,2.15 -1.31,5.75 -1.5,8.13 -0.08,1.04 -0.22,2.15 -0.3,2.45 -0.11,0.35 0.05,0.79 0.44,1.23 0.74,0.85 1.17,1.88 1.61,3.82 0.41,1.75 0.93,2.89 1.72,3.76 l 0.57,0.63 -0.6,0.63 c -0.38,0.41 -0.6,0.98 -0.6,1.66 0,0.57 -0.14,1.25 -0.3,1.55 -0.25,0.49 -0.11,0.63 1.45,1.31 0.95,0.44 2.18,1.12 2.78,1.5 0.82,0.57 1.23,0.68 1.99,0.55 1.09,-0.22 1.04,-0.49 1.04,3.93 l 0.03,3.35 3,1.2 c 9.74,3.93 21.22,7.85 32.32,11.02 3.22,0.93 7.64,2.21 9.82,2.86 2.18,0.65 4.31,1.25 4.77,1.34 0.46,0.09 2.67,0.52 4.91,0.98 2.24,0.46 4.42,0.9 4.85,0.95 0.41,0.08 2.02,0.38 3.55,0.68 1.53,0.3 3.16,0.6 3.63,0.68 0.47,0.08 2.54,0.49 4.64,0.93 4.31,0.87 5.84,1.01 5.89,0.49 0,-0.19 0.05,-0.57 0.11,-0.85 0.06,-0.28 0.16,-1.58 0.27,-2.86 0.11,-1.28 0.22,-2.67 0.27,-3.03 0.05,-0.36 0.16,-1.47 0.25,-2.45 0.25,-2.78 0.68,-7.23 0.82,-8.59 0.05,-0.46 0.16,-1.91 0.27,-3.27 0.11,-1.36 0.22,-2.65 0.27,-2.86 0.05,-0.21 0.16,-1.45 0.27,-2.73 0.08,-1.28 0.3,-3.33 0.44,-4.58 0.14,-1.25 0.19,-2.37 0.11,-2.51 -0.08,-0.14 -1.88,-1.15 -4.04,-2.26 -4.53,-2.37 -9.16,-4.83 -12.6,-6.65 l -2.43,-1.31 -1.69,-2.73 -1.69,-2.73 -3.08,-0.65 -3.08,-0.65 -2.65,-3.57 c -1.45,-1.96 -3.74,-5.1 -5.1,-6.98 -1.34,-1.88 -4.01,-5.54 -5.92,-8.13 -1.91,-2.59 -3.65,-5.02 -3.9,-5.37 -0.38,-0.6 -0.35,-0.82 0.55,-3.19 3.35,-8.89 3.35,-8.84 1.66,-11.07 -0.52,-0.68 -0.93,-1.34 -0.93,-1.45 0,-0.11 -0.14,-0.22 -0.3,-0.22 -0.16,0 -0.63,-0.22 -1.04,-0.52 -0.41,-0.27 -1.23,-0.57 -1.83,-0.63 -0.93,-0.11 -1.25,0 -2.21,0.79 -0.98,0.79 -1.23,0.87 -1.85,0.63 -0.9,-0.35 -0.9,-0.55 0.08,-1.5 0.44,-0.44 0.74,-0.9 0.63,-1.06 -0.11,-0.16 -0.19,-0.93 -0.19,-1.72 0,-2.37 -0.38,-2.37 -2.75,0 -1.15,1.15 -2.15,2.1 -2.21,2.1 -0.19,0 -1.04,-0.9 -1.06,-1.15 -0.03,-0.14 -0.05,-1.8 -0.08,-3.74 -0.03,-3.46 -0.05,-3.49 -0.74,-3.82 -0.98,-0.44 -1.42,-0.41 -2.24,0.25 -0.52,0.41 -1.04,0.55 -2.02,0.49 -0.87,-0.03 -1.23,-0.16 -1.06,-0.35 0.14,-0.16 0.3,-0.63 0.35,-1.06 0.14,-0.68 0,-0.82 -1.12,-1.39 -1.25,-0.63 -3.25,-0.76 -4.94,-0.35 -0.38,0.08 -1.96,0.25 -3.55,0.33 -2.07,0.11 -2.92,0.27 -3.08,0.57 -0.11,0.22 -0.6,0.38 -1.04,0.38 -0.76,0 -0.79,-0.05 -0.79,-1.17 0.03,-1.31 -0.03,-1.75 -1.04,-1.75 z m 22.58,38.2 c 7.09,0.03 7.66,0.14 7.66,1.25 0,0.27 -0.57,0.98 -1.31,1.58 -0.87,0.74 -1.2,1.2 -1.04,1.36 0.33,0.33 4.09,1.85 5.94,2.4 1.28,0.38 1.31,0.41 1.12,1.28 -0.19,0.93 -0.6,1.55 -0.98,1.55 -0.14,0 -0.74,0.33 -1.31,0.71 l -1.06,0.71 -1.58,-0.74 c -0.87,-0.41 -1.83,-0.85 -2.1,-1.01 -0.68,-0.35 -1.06,0.08 -1.66,1.88 -0.55,1.69 -0.65,1.8 -2.81,2.51 -0.93,0.33 -1.83,0.57 -1.99,0.57 -0.52,0 -0.3,-0.79 0.49,-1.69 1.61,-1.88 1.58,-1.85 0.65,-1.85 -0.49,0 -1.17,0.27 -1.66,0.71 -1.34,1.12 -2.37,1.31 -3.6,0.6 -0.57,-0.33 -1.17,-0.9 -1.36,-1.28 -0.3,-0.63 -0.19,-0.79 1.61,-2.51 1.06,-1.01 2.48,-2.1 3.14,-2.4 0.66,-0.3 1.25,-0.79 1.34,-1.06 0.22,-0.79 -0.87,-1.64 -2.13,-1.66 -0.6,0 -1.85,-0.3 -2.81,-0.63 -1.45,-0.49 -1.77,-0.71 -1.85,-1.25 -0.05,-0.35 0.03,-0.74 0.19,-0.85 0.22,-0.14 3.41,-0.19 7.12,-0.19 z m 9.28,35.07 c 0.11,0 0.6,0.57 1.12,1.25 0.52,0.68 1.34,1.64 1.85,2.13 1.47,1.31 2.54,2.54 3.22,3.65 0.55,0.9 0.82,1.06 2.43,1.47 1.69,0.44 1.91,0.44 3.41,0 1.06,-0.3 1.8,-0.71 2.18,-1.2 0.82,-1.06 1.85,-1.5 3.57,-1.61 q 1.47,-0.08 1.42,0.68 c -0.08,1.09 -1.15,2.32 -2.35,2.65 -0.57,0.16 -1.55,0.79 -2.18,1.42 -0.63,0.63 -1.96,1.47 -2.95,1.91 -0.99,0.44 -2.24,1.06 -2.81,1.36 -0.6,0.33 -1.34,0.49 -1.72,0.41 -0.49,-0.08 -0.95,0.08 -1.55,0.63 -0.46,0.41 -1.34,0.95 -1.91,1.2 -0.57,0.25 -1.39,0.41 -1.77,0.38 -5.05,-0.46 -5.51,-0.63 -7.91,-2.86 -2.18,-2.02 -2.15,-2.54 0.11,-2.54 0.85,0 1.77,0.14 2.05,0.27 0.63,0.33 1.36,0.03 2.51,-1.06 0.6,-0.57 0.98,-0.68 1.85,-0.63 1.25,0.08 1.88,-0.3 1.88,-1.17 0,-0.82 -1.12,-4.01 -2.1,-6.03 -0.71,-1.55 -0.85,-2.32 -0.35,-2.32 z"
       fill="#d3d3d3"
       style="fill:#ecebe9;fill-opacity:1" />
    <path
       id="path1081"
       d="m 190.61,133.17 c -1.96,-0.57 -5.02,-1.47 -6.82,-2.02 -1.8,-0.55 -4.25,-1.25 -5.45,-1.58 -2.05,-0.57 -2.13,-0.63 -1.23,-0.76 0.52,-0.08 2.29,-0.11 3.95,-0.03 2.43,0.11 3.25,0.25 4.25,0.74 1.25,0.63 4.58,1.61 4.77,1.42 0.05,-0.05 -0.63,-0.82 -1.53,-1.66 -1.69,-1.64 -3.03,-2.35 -4.31,-2.35 -0.98,0 -5.26,-1.12 -7.01,-1.83 -1.25,-0.52 -1.36,-0.63 -1.83,-2.15 -0.27,-0.9 -0.52,-1.77 -0.52,-1.94 0,-0.3 1.28,-0.74 4.91,-1.75 l 1.23,-0.33 -0.95,-0.22 c -0.52,-0.11 -1.31,-0.25 -1.72,-0.3 -0.82,-0.08 -1.72,-1.31 -1.45,-2.02 0.08,-0.22 0,-0.46 -0.19,-0.6 -0.19,-0.11 -0.55,-0.55 -0.82,-0.98 -0.65,-1.01 -0.41,-2.02 0.76,-3.25 1.09,-1.15 1.5,-1.88 1.5,-2.59 0,-1.39 4.04,-3.6 8.07,-4.42 1.47,-0.3 3.25,-0.63 3.95,-0.71 1.23,-0.16 1.28,-0.14 1.55,0.65 0.33,0.98 0.03,2.54 -0.79,4.15 -0.33,0.6 -0.52,1.17 -0.41,1.28 0.08,0.08 0.71,-0.3 1.39,-0.85 l 1.23,-1.01 1.69,0.98 c 0.93,0.55 1.99,1.23 2.37,1.53 l 0.65,0.57 -0.55,1.31 -0.55,1.31 1.12,-0.25 c 0.63,-0.14 1.2,-0.33 1.31,-0.44 0.11,-0.11 0,-0.71 -0.22,-1.36 -0.22,-0.65 -0.35,-1.2 -0.33,-1.25 1.15,-0.74 1.58,-0.93 1.69,-0.76 0.14,0.25 -5.78,24.11 -6.05,24.38 -0.08,0.03 -1.75,-0.35 -3.71,-0.93 z"
       fill="#d3d3d3"
       style="fill:#ecebe9;fill-opacity:1" />
    <path
       id="path1083"
       d="m 163.64,115.42 c -0.08,-0.19 -0.25,-1.42 -0.41,-2.73 -0.25,-2.15 -0.41,-2.56 -1.8,-4.88 -0.85,-1.39 -1.5,-2.67 -1.5,-2.84 0,-0.44 0.82,-1.34 1.64,-1.85 0.38,-0.25 1.36,-1.53 2.18,-2.84 0.82,-1.34 1.72,-2.67 2.02,-2.97 0.27,-0.3 1.42,-1.75 2.54,-3.22 1.94,-2.56 2.02,-2.75 2.05,-4.23 0.03,-0.85 0,-1.72 -0.03,-1.91 -0.05,-0.49 0.76,-1.39 1.17,-1.25 0.16,0.05 0.76,0.16 1.34,0.22 0.55,0.05 1.66,0.38 2.45,0.68 0.79,0.3 1.96,0.71 2.59,0.85 0.93,0.22 1.2,0.44 1.45,1.17 0.16,0.49 0.95,1.55 1.77,2.37 1.47,1.47 1.47,1.5 3.05,1.45 2.24,-0.05 2.54,0.27 3.79,4.17 1.61,4.96 1.39,5.45 -2.73,6.46 -1.91,0.46 -3.79,1.28 -4.25,1.85 -0.08,0.08 -0.52,0.33 -0.98,0.49 -0.46,0.19 -1.15,0.6 -1.5,0.93 -0.35,0.33 -1.5,1.23 -2.51,1.96 -1.47,1.09 -2.02,1.75 -2.81,3.19 -0.55,1.01 -1.25,1.99 -1.58,2.15 -0.33,0.16 -0.6,0.27 -0.6,0.25 0,-0.08 -0.33,-0.03 -2.32,0.44 -0.38,0.08 -1.64,0.22 -2.78,0.3 -1.64,0.11 -2.15,0.05 -2.24,-0.22 z"
       fill="#d3d3d3"
       style="fill:#ecebe9;fill-opacity:1" />
    <path
       id="path1085"
       d="m 195.27,94.97 c -0.68,-0.76 -1.25,-1.61 -1.25,-1.88 0,-0.68 1.06,-1.34 2.78,-1.69 2.75,-0.57 3.57,-1.47 1.34,-1.47 -0.9,0 -1.25,-0.14 -1.66,-0.68 -0.49,-0.65 -0.52,-0.65 -1.04,-0.19 -0.65,0.57 -2.21,0.76 -2.97,0.35 -0.79,-0.44 -3.33,-3.46 -3.52,-4.2 -0.19,-0.68 0.52,-1.69 1.17,-1.69 0.19,0 0.38,-0.08 0.38,-0.22 0.08,-0.85 0.3,-1.31 0.93,-1.96 0.38,-0.41 0.71,-0.98 0.71,-1.28 0,-0.74 1.55,-2.56 2.18,-2.56 0.27,0 0.68,-0.3 0.95,-0.68 0.38,-0.57 0.65,-0.68 1.77,-0.68 1.75,0 2.75,0.76 2.75,2.07 0,0.76 0.16,1.04 1.04,1.61 1.39,0.93 2.05,2.32 2.1,4.47 0.05,1.91 0.44,2.48 1.75,2.48 1.31,0 1.36,0.19 0.46,3.87 -0.63,2.54 -0.95,3.49 -1.25,3.49 -0.22,0 -1.12,0.49 -1.96,1.09 -1.45,1.01 -1.69,1.09 -3.46,1.09 h -1.91 l -1.28,-1.34 z"
       fill="#d3d3d3"
       style="fill:#ecebe9;fill-opacity:1" />
    <path
       id="path1087"
       d="m 186.87,82.8 c -0.27,-0.05 -0.6,-0.57 -0.74,-1.12 -0.38,-1.36 0.19,-2.1 2.29,-2.95 1.83,-0.74 2.43,-0.82 2.81,-0.33 0.49,0.63 0.25,1.34 -0.71,2.07 -0.52,0.41 -1.39,1.12 -1.91,1.61 -0.52,0.49 -1.04,0.87 -1.12,0.85 -0.11,0 -0.38,-0.05 -0.63,-0.14 z"
       fill="#d3d3d3"
       style="fill:#ecebe9;fill-opacity:1" />
    <path
       id="path1089"
       d="m 184.36,78.2 c -0.25,-0.25 -0.44,-0.74 -0.44,-1.09 0,-0.63 -0.08,-0.65 -1.5,-0.65 -2.43,0 -3.22,-1.2 -1.99,-3 0.44,-0.65 0.95,-0.98 1.85,-1.23 0.68,-0.16 1.83,-0.65 2.54,-1.04 0.71,-0.41 1.42,-0.65 1.53,-0.6 0.14,0.08 1.12,-0.68 2.18,-1.69 2.51,-2.35 2.92,-2.56 4.99,-2.51 0.93,0.03 1.99,-0.03 2.37,-0.08 0.82,-0.14 2.05,0.41 2.29,1.04 0.52,1.36 -0.05,2.89 -1.36,3.63 -0.3,0.16 -0.49,0.74 -0.57,1.64 -0.14,1.31 -0.22,1.45 -1.31,2.1 -0.65,0.38 -1.31,0.93 -1.47,1.23 -0.35,0.68 -1.28,0.95 -1.8,0.55 -0.6,-0.49 -0.52,-2.35 0.14,-2.92 0.3,-0.25 0.55,-0.57 0.55,-0.68 0,-0.33 -1.01,0.55 -3.71,3.27 -2.59,2.59 -3.38,2.97 -4.28,2.05 z"
       fill="#d3d3d3"
       style="fill:#ecebe9;fill-opacity:1" />
    <path
       id="path1091"
       d="m 205.55,70.72 c -0.87,-0.38 -1.2,-0.74 -1.69,-1.91 -0.33,-0.79 -0.6,-1.61 -0.6,-1.8 0,-0.19 -0.25,-0.52 -0.57,-0.71 -1.47,-0.9 -2.1,-3.49 -0.85,-3.49 0.55,0 1.39,0.82 1.39,1.34 0,0.25 0.25,0.3 0.9,0.16 1.15,-0.25 5.89,-0.49 6.35,-0.3 0.27,0.11 0.3,0.41 0.08,1.31 -0.14,0.65 -0.33,1.42 -0.38,1.72 -0.41,2.07 -0.76,3.16 -1.23,3.55 -0.65,0.65 -2.13,0.71 -3.41,0.14 z"
       fill="#d3d3d3"
       style="fill:#ecebe9;fill-opacity:1" />
    <path
       id="path1093"
       d="m 210.38,62.84 c 0,-0.14 -0.35,-0.38 -0.79,-0.57 -0.44,-0.19 -1.01,-0.57 -1.28,-0.87 -0.35,-0.38 -0.68,-0.49 -1.23,-0.38 -0.41,0.08 -0.82,0.03 -0.93,-0.11 -0.41,-0.68 1.64,-2.48 2.35,-2.05 0.14,0.08 0.44,0.03 0.65,-0.16 0.35,-0.27 2.43,-0.25 2.7,0.05 0.25,0.27 -0.85,4.31 -1.15,4.31 -0.16,0.03 -0.33,-0.08 -0.33,-0.22 z"
       fill="#d3d3d3"
       style="fill:#ecebe9;fill-opacity:1" />
  </g>
  <g
     id="CA-NU"
     transform="matrix(0.87534031,0,0,0.87534031,-51.811796,-8.7430925)"
     style="fill:#ecebe9;fill-opacity:1">
    <path
       id="path1096"
       d="m 211.6,149.02 c -1.34,-0.33 -3.35,-1.47 -4.8,-2.78 -0.44,-0.38 -1.28,-0.93 -1.88,-1.2 -0.6,-0.27 -1.12,-0.65 -1.12,-0.87 -0.03,-0.19 -0.05,-0.52 -0.08,-0.71 -0.05,-0.6 -1.2,-0.57 -1.39,0.05 -0.25,0.82 -1.64,1.42 -3.52,1.58 -0.9,0.08 -1.8,0.3 -1.99,0.49 -0.82,0.82 -2.29,1.01 -6.19,0.82 -5.78,-0.27 -7.53,-0.57 -7.55,-1.31 0,-0.19 -0.05,-0.85 -0.14,-1.45 -0.05,-0.6 -0.16,-1.83 -0.25,-2.7 -0.14,-1.85 -0.63,-2.51 -2.07,-2.75 -1.64,-0.27 -4.91,-2.59 -4.91,-3.44 0,-0.14 -0.03,-0.33 -0.05,-0.44 -0.02,-0.11 -0.27,-1.2 -0.55,-2.4 -0.28,-1.2 -0.49,-2.26 -0.49,-2.37 0,-0.22 0.05,-0.19 11.81,3.3 4.64,1.36 8.45,2.45 8.51,2.4 0.06,-0.05 1.45,-5.56 3.11,-12.22 1.66,-6.68 3.08,-12.3 3.16,-12.54 0.08,-0.22 0.63,0.82 1.23,2.32 1.06,2.65 1.09,2.81 0.98,5.37 -0.14,3.11 0.16,3.95 1.09,3.03 0.46,-0.46 0.55,-0.85 0.46,-2.56 -0.05,-1.12 -0.14,-3.55 -0.22,-5.4 l -0.14,-3.38 0.87,-0.9 c 0.82,-0.85 0.93,-0.9 1.94,-0.65 0.63,0.14 1.34,0.57 1.72,1.01 q 0.63,0.74 0.22,0.05 c -0.25,-0.38 -0.55,-1.09 -0.65,-1.53 -0.33,-1.15 0.55,-2.15 2.15,-2.45 1.45,-0.27 2.54,0.22 3.65,1.69 1.04,1.34 0.76,2.48 -1.12,4.8 l -1.5,1.85 0.05,3.41 c 0.08,3.82 0.33,6.08 0.87,7.66 0.33,0.98 0.3,1.2 -0.3,2.54 -0.46,1.06 -0.6,1.72 -0.49,2.43 0.25,1.5 1.96,3.74 4.47,5.84 2.89,2.4 3.9,4.25 3.3,5.97 -0.27,0.82 -0.3,0.82 -1.83,0.65 -0.85,-0.08 -1.66,-0.27 -1.8,-0.41 -0.14,-0.14 -0.41,-0.25 -0.57,-0.25 -0.71,0 -0.6,0.9 0.3,2.32 1.5,2.35 1.2,3.82 -1.01,4.85 -0.98,0.55 -1.91,0.6 -3.3,0.27 z"
       fill="#d3d3d3"
       style="fill:#ecebe9;fill-opacity:1" />
    <path
       id="path1098"
       d="m 287.58,272.58 c -1.39,-0.57 -1.66,-0.76 -1.66,-1.34 0,-0.74 0.14,-0.82 2.02,-1.04 1.25,-0.14 1.39,-0.08 2.13,0.74 1.01,1.12 0.95,2.21 -0.11,2.26 -0.38,0.03 -1.45,-0.25 -2.37,-0.63 z"
       fill="#d3d3d3"
       style="fill:#ecebe9;fill-opacity:1" />
    <path
       id="path1100"
       d="m 230.53,220.87 c -0.05,-0.05 -1.09,-0.19 -2.29,-0.3 -1.2,-0.11 -2.24,-0.22 -2.32,-0.27 -0.08,-0.05 -1.12,-0.16 -2.32,-0.27 -1.2,-0.11 -2.24,-0.22 -2.32,-0.27 -0.08,-0.05 -0.93,-0.16 -1.91,-0.25 -0.98,-0.09 -2.32,-0.25 -3,-0.33 -2.56,-0.3 -3.49,-0.38 -6.54,-0.68 -3.16,-0.3 -3.65,-0.41 -3.44,-0.76 0.05,-0.11 0.19,-1.36 0.3,-2.78 0.11,-1.42 0.22,-2.78 0.27,-3 0.05,-0.22 0.16,-1.45 0.25,-2.73 0.09,-1.28 0.22,-2.62 0.3,-3 0.05,-0.38 0.19,-1.55 0.27,-2.59 0.19,-2.29 0.38,-4.47 0.55,-6.14 0.08,-0.68 0.19,-1.85 0.25,-2.59 0.44,-4.91 0.55,-6.08 0.85,-8.73 0.11,-0.9 0.19,-1.91 0.22,-2.26 0.03,-0.52 -0.33,-0.82 -2.13,-1.77 -2.75,-1.47 -7.83,-4.15 -11.86,-6.27 -1.72,-0.9 -3.63,-1.91 -4.23,-2.24 -1.06,-0.57 -1.61,-1.28 -3.71,-4.66 l -0.98,-1.58 -3.11,-0.65 -3.11,-0.65 -1.53,-2.07 c -0.85,-1.15 -4.01,-5.51 -7.06,-9.71 -3.05,-4.2 -6.27,-8.62 -7.14,-9.79 -0.87,-1.2 -1.58,-2.29 -1.58,-2.45 0,-0.27 3.52,-9.98 3.71,-10.2 0.33,-0.41 2.97,1.99 4.04,3.65 0.74,1.12 2.73,2.81 4.01,3.41 0.55,0.25 0.85,0.25 1.31,0 0.52,-0.27 0.76,-0.19 1.8,0.65 0.65,0.55 1.42,1.31 1.72,1.72 0.65,0.93 1.69,3.27 1.69,3.79 0,0.71 -0.71,1.12 -2.18,1.31 -1.47,0.19 -2.73,0.79 -2.73,1.31 0,0.16 0.27,0.68 0.6,1.17 0.52,0.74 1.01,1.01 3.35,1.72 4.31,1.31 5.13,1.45 7.12,1.12 0.95,-0.16 2.07,-0.44 2.48,-0.6 0.65,-0.3 0.76,-0.27 1.17,0.33 0.25,0.35 1.17,1.64 2.07,2.81 2.13,2.78 2.84,4.17 2.67,5.21 -0.08,0.63 -0.05,0.74 0.16,0.44 0.16,-0.25 0.22,-1.47 0.11,-3.19 l -0.16,-2.78 2.89,-1.45 c 1.66,-0.82 2.92,-1.64 3,-1.91 0.11,-0.44 0.05,-0.44 -1.01,0 -0.63,0.27 -1.77,0.65 -2.56,0.85 -1.34,0.33 -1.47,0.33 -2.18,-0.19 -1.85,-1.36 -0.3,-3.98 2.48,-4.17 0.57,-0.03 1.69,-0.27 2.45,-0.52 0.76,-0.25 1.75,-0.41 2.15,-0.35 0.9,0.11 1.64,1.12 1.72,2.35 0.03,0.46 0.25,1.28 0.52,1.77 0.68,1.31 2.75,3.3 3.49,3.35 0.35,0.03 0.74,0.05 0.9,0.08 0.16,0.03 0.41,0.08 0.57,0.11 0.16,0.03 0.82,0.82 1.45,1.77 l 1.12,1.75 1.66,0.16 c 0.93,0.11 2.48,0.16 3.46,0.16 0.98,0 2.67,0.25 3.71,0.55 1.04,0.3 1.91,0.55 1.91,0.55 0,0 0.03,-0.44 0.05,-0.98 0.02,-0.54 0.25,-1.47 0.49,-2.05 0.24,-0.58 0.44,-1.39 0.44,-1.77 0,-0.68 0.03,-0.71 1.25,-0.55 1.55,0.22 3.25,0.79 5.1,1.72 0.79,0.38 1.47,0.76 1.53,0.79 0.08,0.05 -0.93,3.79 -1.47,5.51 -0.05,0.19 0.19,0.46 0.52,0.6 0.35,0.14 0.79,0.65 0.98,1.15 l 0.35,0.9 0.19,-0.82 c 0.11,-0.52 0.03,-1.12 -0.22,-1.64 -0.25,-0.49 -0.41,-1.58 -0.44,-2.67 0,-1.96 0.27,-2.43 1.25,-2.18 0.98,0.25 2.89,-0.71 3.76,-1.91 0.68,-0.93 0.82,-1.39 0.82,-2.67 0,-1.2 -0.11,-1.66 -0.55,-2.05 -0.63,-0.57 -0.76,-2.54 -0.22,-3.08 0.46,-0.46 -1.2,-1.99 -2.75,-2.48 -0.93,-0.3 -1.36,-0.68 -2.13,-1.88 -0.82,-1.28 -0.95,-1.72 -0.95,-3.08 0,-0.87 0.14,-1.83 0.3,-2.13 0.22,-0.41 0.14,-0.9 -0.44,-2.24 l -0.74,-1.69 0.52,-1.53 c 0.44,-1.28 0.71,-1.64 1.66,-2.15 1.06,-0.57 1.12,-0.68 0.85,-1.28 -0.25,-0.55 -0.16,-0.79 0.63,-1.77 2.13,-2.65 1.94,-2.48 2.92,-2.29 0.63,0.14 1.01,0.41 1.23,0.93 0.16,0.41 0.76,1.15 1.34,1.64 1.85,1.64 2.13,2.21 2.24,4.85 0.08,2.32 0.14,2.45 1.5,4.72 1.69,2.84 1.88,4.36 0.46,3.82 -0.55,-0.22 -0.6,-0.16 -0.49,0.6 0.05,0.46 -0.05,1.31 -0.25,1.91 -0.33,1.04 -0.33,1.12 0.25,1.58 0.49,0.41 0.76,0.44 1.61,0.22 1.04,-0.3 1.96,-0.11 4.04,0.76 0.87,0.35 0.95,0.49 0.63,0.79 -0.22,0.19 -0.93,0.44 -1.61,0.55 -1.91,0.27 -2.07,0.71 -0.79,2.56 1.01,1.47 1.23,2.21 1.34,4.39 0.05,1.17 0.49,0.05 0.68,-1.77 0.33,-2.84 0.68,-3.71 1.77,-4.15 l 0.95,-0.41 1.83,2.02 c 1.28,1.39 1.91,2.35 2.13,3.14 0.44,1.72 0.35,2.75 -0.25,3.35 -0.3,0.3 -0.55,0.9 -0.55,1.34 0,0.79 0.49,2.54 0.79,2.75 0.08,0.08 0.57,0.79 1.06,1.58 0.49,0.79 0.98,1.45 1.09,1.45 0.41,0 1.45,-0.93 1.66,-1.5 0.14,-0.33 0.3,-1.34 0.41,-2.21 0.08,-0.87 0.33,-1.96 0.55,-2.43 0.22,-0.47 0.63,-1.69 0.93,-2.75 0.3,-1.06 0.93,-2.48 1.36,-3.14 0.98,-1.45 1.04,-2.05 0.25,-2.89 -0.65,-0.68 -1.45,-3.95 -1.17,-4.85 0.35,-1.17 0.93,-1.53 2.48,-1.53 1.09,0 1.83,0.19 3,0.82 0.85,0.44 1.77,0.82 2.07,0.82 0.3,0 0.93,0.41 1.42,0.93 0.49,0.52 1.42,1.2 2.05,1.53 1.15,0.57 2.15,1.53 2.18,2.02 0,0.14 -0.19,0.38 -0.44,0.57 -0.41,0.3 -0.41,0.38 0.11,1.12 0.33,0.44 0.65,1.23 0.74,1.77 0.16,0.93 0.11,1.01 -0.65,1.28 -0.46,0.16 -0.95,0.55 -1.12,0.85 -0.17,0.3 -0.55,0.57 -0.85,0.57 -0.74,0 -0.68,0.52 0.14,1.47 0.38,0.44 0.76,1.2 0.85,1.69 0.11,0.6 0.46,1.12 1.06,1.5 1.94,1.34 1.94,4.06 0,7.36 -2.29,3.9 -2.45,4.09 -3.63,3.95 -0.57,-0.05 -1.36,-0.33 -1.77,-0.57 l -0.71,-0.46 0.44,1.04 c 0.46,1.15 0.19,1.64 -0.82,1.31 -1.01,-0.33 -1.42,-0.3 -1.83,0.08 -0.38,0.33 -0.57,0.33 -1.36,0 -0.52,-0.22 -1.12,-0.65 -1.34,-0.98 -0.35,-0.49 -0.57,-0.55 -1.5,-0.41 -0.6,0.11 -1.31,0.3 -1.58,0.44 -0.44,0.22 -0.38,0.35 0.49,1.17 0.93,0.87 0.98,1.01 0.79,2.07 -0.14,0.82 -0.6,1.64 -1.66,2.86 -0.79,0.95 -1.53,2.05 -1.64,2.4 -0.08,0.38 -0.3,0.68 -0.49,0.68 -0.16,0 0.03,0.27 0.46,0.63 0.65,0.52 0.76,0.79 0.68,1.69 -0.05,0.6 -0.27,1.39 -0.52,1.77 -0.25,0.38 -0.68,1.04 -0.98,1.5 -0.3,0.46 -1.09,1.77 -1.75,2.92 -1.39,2.4 -1.83,2.67 -4.47,2.67 -1.96,0 -2.51,0.38 -2.65,1.91 -0.08,0.93 -0.11,0.95 -1.31,0.93 -0.68,0 -1.55,-0.08 -1.96,-0.19 -1.09,-0.25 -1.17,0.22 -0.14,0.9 0.49,0.33 0.93,0.65 0.98,0.68 0.27,0.22 0.33,2.37 0.05,3.19 -0.35,1.09 -1.36,1.61 -3.27,1.69 -2.15,0.08 -2.05,0.05 -1.58,0.74 0.38,0.57 0.35,0.68 -0.57,1.58 -1.39,1.34 -2.97,3.44 -3.71,4.91 -0.35,0.68 -0.9,1.47 -1.23,1.77 -0.71,0.65 -1.36,1.83 -1.36,2.51 0,0.27 -0.63,1.83 -1.42,3.46 -1.17,2.51 -1.42,3.22 -1.39,4.45 l 0.03,1.45 h -1.17 c -0.55,0.08 -1.15,0.03 -1.2,-0.03 z"
       fill="#d3d3d3"
       style="fill:#ecebe9;fill-opacity:1" />
    <path
       id="path1102"
       d="m 285.62,205.79 c -1.45,-0.9 -1.39,-3.57 0.11,-5.21 0.6,-0.65 1.31,-0.63 2.18,0.14 0.87,0.77 0.44,3.93 -0.68,4.96 q -0.71,0.68 -1.61,0.11 z"
       fill="#d3d3d3"
       style="fill:#ecebe9;fill-opacity:1" />
    <path
       id="path1104"
       d="m 271.49,202.74 c -0.63,-1.17 0.27,-3.87 1.58,-4.77 1.06,-0.74 1.36,-0.79 3.46,-0.74 1.28,0.03 1.42,0.11 1.75,0.85 0.3,0.74 0.27,0.93 -0.52,2.15 -1.15,1.77 -2.75,2.84 -4.55,2.97 -1.23,0.11 -1.47,0.03 -1.72,-0.46 z"
       fill="#d3d3d3"
       style="fill:#ecebe9;fill-opacity:1" />
    <path
       id="path1106"
       d="m 265.41,196.77 c -0.38,-0.08 -0.49,-0.38 -0.49,-1.39 0,-0.71 -0.14,-1.45 -0.33,-1.61 -0.19,-0.19 -1.01,-0.33 -1.85,-0.35 -3.22,-0.05 -3.71,-0.76 -1.94,-2.7 1.04,-1.12 1.2,-1.61 1.17,-3.14 -0.16,-5.34 0,-7.06 1.06,-11.24 0.33,-1.31 0.44,-1.42 1.31,-1.58 0.82,-0.16 1.04,-0.08 1.58,0.6 0.35,0.44 0.85,1.28 1.09,1.94 0.41,0.98 0.6,1.17 1.31,1.17 0.55,0 1.61,0.57 3.14,1.64 1.28,0.9 3.08,2.15 4.01,2.78 0.93,0.63 1.69,1.34 1.72,1.58 0,0.22 0.3,0.9 0.68,1.5 0.38,0.6 0.68,1.31 0.68,1.58 0,0.41 0.19,0.46 1.45,0.33 1.28,-0.14 1.53,-0.08 2.43,0.6 0.87,0.68 0.98,0.9 0.93,1.72 -0.14,1.42 -0.33,1.72 -1.45,2.35 q -1.01,0.57 -2.24,0.05 c -0.79,-0.35 -1.58,-0.49 -2.24,-0.41 -0.79,0.11 -1.12,0 -1.58,-0.49 -0.33,-0.35 -0.55,-0.85 -0.49,-1.12 0.14,-0.71 -2.32,-1.96 -2.92,-1.5 -0.22,0.19 -0.41,0.63 -0.41,0.98 0,0.98 -0.49,2.05 -1.31,2.86 -0.41,0.41 -1.01,1.09 -1.34,1.53 -0.85,1.15 -1.91,2.26 -2.18,2.29 -0.71,0.11 -1.39,0.14 -1.8,0.03 z"
       fill="#d3d3d3"
       style="fill:#ecebe9;fill-opacity:1" />
    <path
       id="path1108"
       d="m 229.58,153.82 c -0.93,-0.3 -2.07,-1.06 -3.25,-2.15 -0.46,-0.41 -0.93,-0.76 -1.04,-0.76 -0.55,0 -1.83,-1.17 -1.83,-1.66 0,-0.68 4.34,-6.52 4.83,-6.52 0.68,0 3.19,2.65 3.93,4.15 1.12,2.26 1.88,4.39 1.88,5.21 0,0.55 -0.27,0.9 -1.04,1.45 -1.09,0.68 -1.99,0.76 -3.49,0.3 z"
       fill="#d3d3d3"
       style="fill:#ecebe9;fill-opacity:1" />
    <path
       id="path1110"
       d="m 330.83,194.91 c -0.05,-0.05 -1.77,-0.16 -3.85,-0.25 -2.95,-0.14 -3.87,-0.27 -4.31,-0.63 -0.33,-0.25 -0.95,-0.79 -1.45,-1.2 -0.74,-0.63 -1.09,-0.71 -2.21,-0.65 -1.5,0.08 -2.37,-0.16 -5.24,-1.5 -1.72,-0.79 -1.96,-1.01 -2.29,-1.96 -0.3,-0.95 -0.3,-1.09 0.11,-1.34 0.52,-0.27 0.63,-0.76 0.19,-0.76 -0.16,0 -0.9,-0.41 -1.64,-0.93 -0.74,-0.52 -1.72,-1.01 -2.18,-1.12 -0.52,-0.11 -0.98,-0.46 -1.23,-0.95 -0.6,-1.17 -1.99,-2.02 -3.55,-2.18 -1.15,-0.11 -1.45,-0.05 -1.96,0.46 -0.44,0.44 -0.93,0.63 -1.8,0.63 -1.01,0 -1.36,0.16 -2.35,1.09 l -1.17,1.09 h -2.26 c -3.76,0 -4.61,-0.68 -4.96,-4.04 -0.14,-1.17 -0.05,-1.36 0.71,-2.07 0.65,-0.63 0.85,-1.04 0.85,-1.83 0,-0.71 0.16,-1.12 0.49,-1.28 0.27,-0.14 1.94,-0.27 3.71,-0.3 2.95,-0.03 3.33,-0.11 4.09,-0.68 1.2,-0.9 2.51,-1.53 3.19,-1.53 0.49,0 0.55,-0.11 0.41,-0.63 -0.22,-0.71 -0.38,-1.36 -0.41,-1.61 0,-0.08 -0.52,-0.49 -1.15,-0.9 -1.06,-0.71 -1.12,-0.82 -0.98,-1.8 0.08,-0.57 0.33,-1.39 0.55,-1.83 0.22,-0.41 1.04,-2.02 1.8,-3.55 l 1.42,-2.78 -0.55,-1.94 c -0.52,-1.83 -2.1,-4.36 -3.44,-5.48 -0.27,-0.22 -0.76,-0.85 -1.12,-1.42 -0.38,-0.6 -1.23,-1.36 -1.99,-1.77 -1.06,-0.6 -1.39,-0.93 -1.58,-1.69 -0.22,-0.85 -0.3,-0.95 -1.04,-0.87 -0.44,0.05 -0.98,0.25 -1.23,0.44 -0.22,0.19 -0.93,0.6 -1.55,0.93 -0.98,0.49 -1.17,0.52 -1.45,0.19 -0.46,-0.55 -0.08,-1.5 0.9,-2.37 0.82,-0.74 0.85,-0.76 0.3,-1.15 -0.68,-0.52 -1.06,-0.52 -2.07,0 -1.06,0.55 -1.61,0.33 -1.61,-0.65 0,-0.52 0.19,-0.87 0.55,-1.04 0.52,-0.22 0.46,-0.33 -0.76,-1.53 -2.21,-2.15 -3.46,-3.16 -3.82,-3.03 -0.19,0.05 -0.35,0.55 -0.35,1.06 v 0.93 l -2.81,0.05 c -1.53,0.03 -3.6,0.05 -4.61,0.03 -1.53,-0.03 -1.8,0.03 -1.77,0.41 0.03,0.38 -0.3,0.44 -2.29,0.41 -1.28,-0.03 -3.6,-0.14 -5.18,-0.25 -1.75,-0.14 -3.25,-0.11 -3.85,0.05 -1.2,0.33 -2.13,-0.22 -2.59,-1.61 -0.27,-0.79 -0.44,-0.9 -1.09,-0.85 -3.22,0.27 -3.38,0.27 -4.2,-0.33 -1.8,-1.34 -3.27,-3.46 -3.27,-4.75 0,-0.41 0.27,-0.55 1.25,-0.68 0.71,-0.08 1.77,-0.16 2.37,-0.16 0.95,0 1.06,-0.05 0.71,-0.38 -0.6,-0.55 -2.1,-0.98 -3.41,-0.98 -0.85,0 -1.2,-0.14 -1.36,-0.49 -0.49,-1.17 -0.87,-3.46 -0.79,-4.64 0.35,-5.62 0.44,-6.24 1.61,-9.65 1.69,-4.96 2.97,-7.25 4.5,-8.18 2.43,-1.45 6.38,-1.04 6.84,0.71 0.19,0.68 0.08,0.95 -0.71,1.83 -0.55,0.6 -1.01,1.47 -1.12,2.07 -0.11,0.57 -0.38,1.31 -0.6,1.66 -0.49,0.76 -1.17,3.6 -0.95,3.95 0.08,0.14 0.19,1.17 0.25,2.26 0.08,2.24 0.22,2.56 0.93,2.56 0.33,0 0.57,-0.27 0.68,-0.76 0.11,-0.41 0.38,-0.98 0.63,-1.25 0.35,-0.41 0.38,-0.57 0.11,-0.95 -0.68,-0.95 -0.98,-1.85 -0.98,-3.14 -0.03,-1.01 0.11,-1.42 0.55,-1.77 0.3,-0.25 0.65,-0.65 0.74,-0.93 0.11,-0.27 0.3,-0.49 0.46,-0.49 0.16,0 0.27,-0.25 0.27,-0.55 0,-0.98 2.07,-3.93 3.22,-4.55 1.2,-0.68 3.82,-1.17 4.64,-0.87 0.49,0.19 0.95,0.87 2.62,3.93 1.04,1.94 1.83,4.04 1.66,4.61 -0.19,0.76 0.82,2.07 1.61,2.07 0.33,0 1.06,-0.14 1.64,-0.3 0.85,-0.25 1.01,-0.38 0.87,-0.82 -0.3,-0.93 1.36,-2.26 3.3,-2.67 1.53,-0.33 1.72,-0.3 2.59,0.22 0.52,0.33 1.25,0.57 1.61,0.57 0.85,0 2.05,1.01 2.32,1.91 0.27,0.93 0.93,1.64 1.53,1.64 0.35,0 0.52,0.3 0.65,1.09 0.11,0.6 0.3,1.09 0.41,1.09 0.14,0 0.93,0.68 1.75,1.5 1.25,1.23 1.55,1.42 1.66,1.04 0.08,-0.27 0.33,-0.87 0.55,-1.36 0.44,-0.98 0.68,-1.01 3.05,-0.16 0.98,0.35 1.25,0.6 1.75,1.77 0.33,0.79 0.9,1.53 1.34,1.8 0.41,0.25 0.9,0.71 1.06,1.04 0.57,1.06 1.23,1.28 2.05,0.65 0.87,-0.68 1.53,-0.55 3.14,0.6 1.01,0.74 1.15,0.95 0.98,1.58 -0.46,1.88 -0.49,2.26 -0.11,2.18 0.22,-0.05 0.57,-0.41 0.85,-0.82 0.68,-1.09 1.53,-0.95 2.84,0.41 1.25,1.31 1.83,2.26 1.88,3.08 0.08,1.53 0.16,1.69 1.06,2.13 0.52,0.25 1.15,0.82 1.36,1.25 l 0.41,0.82 -1.25,0.74 c -1.04,0.6 -1.36,0.68 -1.88,0.44 -0.85,-0.38 -1.04,-0.14 -0.52,0.65 0.41,0.63 0.41,1.75 -0.05,2.86 -0.25,0.6 0.68,1.42 2.02,1.83 0.57,0.16 1.53,0.63 2.1,1.04 0.57,0.41 1.5,0.74 2.02,0.76 0.52,0.02 1.25,0.16 1.64,0.33 0.39,0.17 1.39,0.22 2.26,0.16 l 1.58,-0.11 1.47,1.53 c 1.28,1.34 1.61,1.53 2.59,1.55 0.6,0.03 1.25,0.05 1.45,0.08 0.19,0.03 0.41,0.44 0.52,0.93 0.11,0.49 0.27,0.98 0.35,1.09 0.08,0.11 1.04,-0.11 2.07,-0.49 l 1.88,-0.65 1.04,0.57 c 0.95,0.55 1.04,0.68 1.12,2.02 0.11,1.77 -0.05,2.4 -0.76,3.22 -0.52,0.6 -0.52,0.68 -0.11,1.15 0.35,0.41 0.41,0.63 0.16,1.17 -0.16,0.35 -0.25,1.09 -0.14,1.61 0.19,1.23 -0.71,2.62 -1.72,2.62 -0.57,0 -0.65,0.08 -0.49,0.63 0.3,0.95 1.17,2.59 1.47,2.78 0.57,0.35 0.25,0.93 -0.85,1.45 -1.12,0.55 -1.15,0.55 -2.07,0.05 -0.52,-0.27 -1.55,-0.65 -2.29,-0.85 -1.15,-0.3 -1.47,-0.55 -2.26,-1.75 -1.04,-1.58 -2.95,-3.41 -3.55,-3.41 -0.22,0 -0.55,-0.16 -0.74,-0.35 -1.09,-1.09 -2.95,-1.75 -2.95,-1.06 0,0.14 -0.33,0.38 -0.71,0.55 l -0.71,0.33 0.74,0.76 c 0.87,0.93 0.87,2.15 0,2.62 -0.44,0.22 -0.52,0.41 -0.35,0.82 0.11,0.3 0.22,0.44 0.22,0.33 0.03,-0.33 1.99,0.6 2.37,1.12 0.19,0.27 0.85,1.04 1.45,1.72 1.06,1.2 1.45,1.39 4.28,2.13 0.85,0.22 1.17,0.46 1.31,0.95 0.08,0.38 0.41,0.79 0.71,0.95 0.3,0.16 0.85,0.76 1.23,1.36 0.38,0.57 1.53,1.94 2.59,3.03 l 1.94,1.96 -0.05,3.79 c -0.03,2.1 -0.14,3.85 -0.25,3.93 -0.3,0.19 -5.24,-1.39 -7.88,-2.51 -1.28,-0.55 -2.7,-1.31 -3.16,-1.72 -0.79,-0.68 -1.55,-0.82 -3.19,-0.57 -0.46,0.05 -0.16,0.52 0.55,0.82 0.41,0.16 0.98,0.74 1.25,1.23 0.41,0.76 0.87,1.06 2.59,1.72 1.15,0.44 3.41,1.64 5.02,2.7 l 2.95,1.88 -0.08,1.64 -0.08,1.64 -1.55,0.03 c -0.76,0.08 -1.53,0.05 -1.58,0 z"
       fill="#d3d3d3"
       style="fill:#ecebe9;fill-opacity:1" />
    <path
       id="path1112"
       d="m 291.18,193.9 c -1.04,-0.68 -1.34,-1.42 -0.87,-1.96 0.46,-0.55 0.98,-0.49 1.94,0.16 0.85,0.6 1.04,1.53 0.46,2.1 -0.44,0.41 -0.49,0.41 -1.53,-0.3 z"
       fill="#d3d3d3"
       style="fill:#ecebe9;fill-opacity:1" />
    <path
       id="path1114"
       d="m 294.15,190.8 c -0.49,-0.08 -0.6,-0.27 -0.55,-0.85 0.05,-0.55 0.25,-0.74 0.79,-0.82 0.93,-0.11 1.99,0.74 1.75,1.39 -0.19,0.46 -0.68,0.52 -1.99,0.27 z"
       fill="#d3d3d3"
       style="fill:#ecebe9;fill-opacity:1" />
    <path
       id="path1116"
       d="m 289.73,160.5 c -1.83,-1.83 -1.23,-7.5 0.95,-8.94 0.98,-0.63 2.45,-0.3 3.44,0.79 0.76,0.85 0.79,0.93 0.79,3.9 0,3.38 -0.11,3.63 -2.24,4.58 -1.39,0.63 -2.05,0.55 -2.95,-0.33 z"
       fill="#d3d3d3"
       style="fill:#ecebe9;fill-opacity:1" />
    <path
       id="path1118"
       d="m 297.23,155.48 c -0.82,-0.38 -1.5,-1.42 -1.23,-1.85 0.33,-0.52 2.48,-0.38 2.92,0.22 0.52,0.68 0.41,1.12 -0.41,1.53 -0.49,0.25 -0.9,0.3 -1.28,0.11 z"
       fill="#d3d3d3"
       style="fill:#ecebe9;fill-opacity:1" />
    <path
       id="path1120"
       d="m 280.93,148.25 c -0.27,-0.27 -0.22,-0.44 0.46,-1.25 0.41,-0.46 0.71,-1.28 0.82,-2.15 0.19,-1.34 0.82,-2.7 1.25,-2.7 0.41,0 0.55,0.87 0.22,1.45 -0.16,0.33 -0.3,1.01 -0.27,1.47 0.11,1.53 -1.77,3.9 -2.48,3.19 z"
       fill="#d3d3d3"
       style="fill:#ecebe9;fill-opacity:1" />
    <path
       id="path1122"
       d="m 225.18,128.78 c -0.71,-0.57 -1.28,-1.28 -1.31,-1.55 -0.25,-2.95 -0.68,-3.68 -3.16,-5.37 -0.46,-0.33 -1.25,-1.34 -1.72,-2.21 -0.85,-1.58 -0.85,-1.66 -0.49,-2.86 0.22,-0.68 0.68,-1.45 1.06,-1.72 0.65,-0.49 0.68,-0.49 2.13,0.6 1.39,1.06 1.47,1.09 1.91,0.6 0.25,-0.27 0.57,-0.95 0.74,-1.53 0.25,-0.87 0.19,-1.09 -0.25,-1.61 -1.31,-1.42 -1.64,-2.32 -1.34,-3.65 0.3,-1.47 1.15,-2.78 1.75,-2.78 0.25,0 1.06,0.38 1.85,0.82 1.23,0.71 1.47,0.76 1.77,0.44 0.68,-0.82 3.65,-1.45 4.31,-0.9 0.19,0.16 0.35,0.9 0.35,1.72 0,1.12 -0.11,1.47 -0.49,1.61 -0.46,0.16 -0.46,0.19 0,0.55 0.71,0.52 0.6,0.82 -0.76,2.35 -0.68,0.76 -1.23,1.5 -1.23,1.66 0,0.16 0.35,0.41 0.82,0.57 0.63,0.22 0.82,0.46 0.82,1.01 0,0.41 0.19,1.04 0.41,1.42 0.82,1.42 1.01,2.1 1.15,4.01 0.11,1.75 0.05,2.07 -0.55,3.03 -0.71,1.12 -2.21,2.24 -3,2.24 -0.25,0 -0.38,0.11 -0.3,0.25 0.27,0.44 -1.12,1.83 -2.15,2.13 -0.98,0.27 -1.12,0.22 -2.32,-0.79 z"
       fill="#d3d3d3"
       style="fill:#ecebe9;fill-opacity:1" />
    <path
       id="path1124"
       d="m 236.45,123.6 c -0.57,-0.46 -0.71,-0.79 -0.71,-1.75 0,-0.65 -0.14,-1.53 -0.27,-1.94 -0.65,-1.69 -0.14,-7.94 0.82,-10.09 0.33,-0.71 0.65,-1.77 0.74,-2.32 0.22,-1.45 1.06,-1.91 4.09,-2.32 0.82,-0.11 1.42,0 2.24,0.41 0.6,0.3 1.36,0.57 1.69,0.57 0.79,0 2.4,0.71 3.46,1.53 q 0.9,0.68 0.46,1.55 c -0.25,0.49 -0.63,1.06 -0.82,1.31 -0.22,0.25 -0.46,0.79 -0.52,1.23 -0.08,0.44 -0.55,1.39 -1.06,2.15 -0.51,0.76 -1.06,2.07 -1.25,2.97 -0.19,0.87 -0.46,1.64 -0.63,1.69 -0.16,0.05 -1.09,0.16 -2.05,0.25 -0.96,0.09 -1.85,0.25 -1.96,0.35 -0.16,0.16 -0.41,2.13 -0.49,3.82 -0.03,0.44 -1.45,1.17 -2.29,1.17 -0.41,-0.03 -1.04,-0.27 -1.45,-0.6 z"
       fill="#d3d3d3"
       style="fill:#ecebe9;fill-opacity:1" />
    <path
       id="path1126"
       d="m 275.88,114.57 c -1.25,-2.05 -3.08,-5.97 -2.95,-6.35 0.25,-0.63 5.73,-0.55 6.87,0.08 1.55,0.85 3.52,2.89 4.42,4.61 0.55,1.01 -0.25,1.5 -2.29,1.42 -1.31,-0.05 -1.96,0.08 -2.84,0.52 -1.64,0.87 -2.56,0.79 -3.22,-0.27 z"
       fill="#d3d3d3"
       style="fill:#ecebe9;fill-opacity:1" />
    <path
       id="path1128"
       d="m 248.69,101.68 c -0.6,-0.38 -1.47,-0.68 -1.94,-0.68 -1.39,0 -1.8,-0.52 -1.91,-2.4 -0.05,-0.93 -0.22,-1.91 -0.35,-2.18 -0.44,-0.79 -0.6,-3.35 -0.25,-3.95 0.16,-0.3 0.33,-1.25 0.35,-2.07 0.05,-1.28 -0.05,-1.66 -0.68,-2.48 -0.41,-0.52 -0.79,-1.2 -0.85,-1.5 -0.08,-0.46 -0.38,-0.57 -2.13,-0.71 -1.12,-0.08 -2.24,-0.25 -2.48,-0.35 -0.63,-0.27 -3.14,-3.44 -3.3,-4.2 -0.08,-0.35 -0.03,-1.04 0.11,-1.55 0.3,-1.15 0.98,-1.36 3.14,-1.12 2.26,0.27 3.6,1.12 4.04,2.56 0.22,0.74 0.93,0.93 2.75,0.79 2.18,-0.16 3.14,0.35 3.14,1.75 0,0.49 0.22,0.79 0.68,1.01 1.04,0.46 1.34,1.36 0.87,2.67 q -0.38,1.12 0.52,1.99 c 0.49,0.49 0.9,1.17 0.9,1.5 0,0.52 0.19,0.63 1.17,0.79 0.63,0.08 2.21,0.38 3.49,0.63 l 2.32,0.46 1.53,-0.74 c 0.85,-0.41 1.66,-0.74 1.83,-0.74 0.17,0 0.82,-0.44 1.45,-0.95 1.15,-0.95 1.2,-0.95 3.35,-0.93 2.56,0.05 3.33,0.27 5.21,1.5 2.26,1.47 3.46,3.49 2.59,4.36 -0.19,0.19 -0.16,0.57 0.05,1.12 0.27,0.71 0.25,0.93 -0.11,1.36 -0.25,0.27 -0.49,0.93 -0.55,1.45 -0.08,0.82 -0.27,1.04 -1.42,1.61 -2.26,1.12 -5.56,1.12 -6.08,-0.03 -0.22,-0.49 -0.33,-0.52 -0.65,-0.19 -0.22,0.22 -0.95,0.65 -1.64,0.98 -1.06,0.52 -1.77,0.63 -5.32,0.71 -4.36,0.11 -5.37,-0.11 -5.73,-1.17 -0.25,-0.74 -0.44,-0.71 -1.5,0.41 -0.52,0.52 -1.06,0.95 -1.2,0.95 -0.19,0.03 -0.82,-0.3 -1.42,-0.65 z"
       fill="#d3d3d3"
       style="fill:#ecebe9;fill-opacity:1" />
    <path
       id="path1130"
       d="m 239.42,100.8 c -0.57,-0.14 -3.57,-2.18 -4.34,-2.95 -0.65,-0.65 -0.52,-1.53 0.63,-3.71 0.93,-1.72 1.23,-2.05 2.13,-2.37 1.23,-0.44 2.54,-0.14 3.71,0.85 0.71,0.6 0.76,0.76 0.93,3.79 0.19,3.16 0.19,3.19 -0.52,3.9 -0.71,0.65 -1.34,0.79 -2.54,0.49 z"
       fill="#d3d3d3"
       style="fill:#ecebe9;fill-opacity:1" />
    <path
       id="path1132"
       d="m 228.73,95.78 c -1.25,-0.57 -2.54,-1.94 -2.54,-2.67 0,-0.25 0.38,-0.82 0.87,-1.23 l 0.87,-0.76 -2.54,0.08 c -2.86,0.08 -3.3,-0.14 -3.3,-1.88 0,-1.31 -0.35,-1.8 -1.91,-2.75 -0.76,-0.46 -1.36,-0.93 -1.36,-1.01 0,-0.08 0.22,-0.52 0.46,-0.95 0.44,-0.74 0.55,-0.76 1.72,-0.63 1.47,0.19 2.21,0.52 2.21,1.01 0,0.19 0.55,0.93 1.23,1.64 0.9,0.95 1.42,1.28 2.02,1.28 0.71,0 0.82,-0.11 0.9,-0.98 0.14,-1.06 -0.27,-1.61 -1.77,-2.51 -0.41,-0.25 -0.76,-0.6 -0.76,-0.79 0,-0.19 0.6,-0.82 1.36,-1.42 1.01,-0.79 1.55,-1.04 2.13,-0.95 0.41,0.05 1.42,0.16 2.24,0.25 0.82,0.09 1.77,0.33 2.13,0.57 l 0.65,0.44 -0.16,5.05 c -0.08,3 -0.27,5.21 -0.44,5.4 -0.16,0.22 -0.22,0.76 -0.11,1.31 0.27,1.47 -0.22,2.1 -1.58,2.07 -0.65,0 -1.69,-0.25 -2.32,-0.55 z"
       fill="#d3d3d3"
       style="fill:#ecebe9;fill-opacity:1" />
    <path
       id="path1134"
       d="m 208.9,94.07 c -1.12,-0.68 -1.85,-0.71 -2.59,-0.03 -0.25,0.22 -0.6,0.33 -0.76,0.22 -0.41,-0.27 1.06,-6.49 1.53,-6.38 0.19,0.05 0.3,-0.44 0.3,-1.39 0,-1.83 1.28,-8.29 1.8,-9.11 0.82,-1.25 2.95,-0.22 2.24,1.09 -0.19,0.35 -0.19,0.74 -0.03,1.12 0.3,0.65 0.19,2.4 -0.16,3.11 -0.14,0.27 -0.22,0.95 -0.22,1.55 0.03,0.93 0.11,1.09 0.68,1.17 0.35,0.05 1.2,-0.05 1.85,-0.25 1.09,-0.3 1.25,-0.3 1.72,0.19 1.01,1.01 1.25,4.8 0.38,5.94 -0.22,0.3 -0.65,0.95 -0.98,1.45 -1.23,1.96 -3.74,2.54 -5.75,1.31 z"
       fill="#d3d3d3"
       style="fill:#ecebe9;fill-opacity:1" />
    <path
       id="path1136"
       d="m 216.38,94.01 c -0.19,-0.52 -0.14,-0.87 0.19,-1.42 0.25,-0.41 0.46,-0.76 0.49,-0.79 0,-0.03 0.41,-0.11 0.9,-0.22 0.82,-0.14 0.9,-0.08 1.42,1.12 0.35,0.76 0.46,1.36 0.33,1.53 -0.14,0.14 -0.87,0.3 -1.66,0.35 -1.31,0.11 -1.45,0.05 -1.66,-0.57 z"
       fill="#d3d3d3"
       style="fill:#ecebe9;fill-opacity:1" />
    <path
       id="path1138"
       d="m 269.42,85.45 c -0.08,-0.3 -0.11,-0.65 -0.03,-0.76 0.22,-0.33 -0.16,-0.76 -1.04,-1.23 -0.76,-0.41 -0.85,-0.38 -1.45,0.27 -0.46,0.49 -0.79,0.63 -1.23,0.49 -0.33,-0.11 -0.9,-0.25 -1.28,-0.33 -0.38,-0.08 -0.95,-0.46 -1.28,-0.85 -0.49,-0.6 -0.65,-0.65 -1.04,-0.35 -0.25,0.19 -0.44,0.68 -0.44,1.06 0,0.93 -0.87,1.5 -1.96,1.25 -0.46,-0.11 -2.35,-0.19 -4.2,-0.22 -2.95,-0.03 -3.46,-0.11 -4.12,-0.6 -0.65,-0.49 -0.79,-0.79 -0.85,-2.1 -0.05,-1.01 0.05,-1.83 0.35,-2.35 0.65,-1.25 2.26,-2.75 2.97,-2.75 1.17,0 1.34,-0.63 0.41,-1.53 -1.53,-1.45 -1.99,-2.97 -1.28,-4.28 0.46,-0.87 0.76,-1.01 2.29,-1.01 1.66,0 2.75,0.79 3.16,2.32 0.16,0.55 0.57,1.31 0.93,1.66 0.55,0.55 0.76,0.6 1.2,0.35 0.52,-0.27 0.49,-0.35 -0.65,-1.55 -0.65,-0.68 -1.36,-1.61 -1.53,-2.05 -0.3,-0.71 -0.25,-0.9 0.41,-1.75 l 0.74,-0.95 h -1.85 c -2.32,0 -3.08,-0.44 -3.08,-1.8 0,-0.52 0.25,-1.45 0.57,-2.05 0.3,-0.6 0.49,-1.17 0.41,-1.25 -0.44,-0.44 0.79,-1.72 2.43,-2.56 l 1.8,-0.93 1.8,0.95 c 2.29,1.2 2.15,1.17 2.18,0.76 0,-0.19 0.11,-0.57 0.22,-0.82 0.11,-0.27 0.08,-0.49 -0.03,-0.49 -0.14,-0.03 -0.6,-0.05 -1.04,-0.11 -1.12,-0.11 -2.97,-2.18 -3.6,-4.01 -0.27,-0.79 -0.9,-1.99 -1.39,-2.65 -0.49,-0.66 -0.9,-1.28 -0.9,-1.42 0,-0.11 -0.25,-0.3 -0.52,-0.38 -0.76,-0.25 -1.06,-1.45 -0.87,-3.49 0.25,-2.37 0.52,-2.67 2.26,-2.51 1.83,0.16 2.32,0.52 4.31,3.14 0.93,1.2 1.72,2.15 1.77,2.13 0.3,-0.3 -0.44,-1.96 -1.31,-2.97 -1.36,-1.53 -1.31,-2.37 0.22,-3.14 0.6,-0.3 1.58,-0.9 2.18,-1.31 0.6,-0.41 1.31,-0.74 1.58,-0.74 0.3,0 0.49,-0.22 0.49,-0.55 0,-0.3 0.49,-1.04 1.12,-1.64 l 1.12,-1.09 -0.71,-0.85 c -0.38,-0.46 -0.71,-1.04 -0.71,-1.28 0,-0.24 -0.3,0.11 -0.63,0.76 -1.69,3.33 -3,4.47 -5.05,4.53 -0.71,0 -1.96,0.19 -2.84,0.41 -2.15,0.52 -3.05,0.19 -3.16,-1.15 -0.05,-0.55 0.11,-1.45 0.33,-1.96 0.22,-0.51 0.33,-0.98 0.25,-0.98 -0.3,0 -1.17,1.17 -1.17,1.55 0,0.22 -0.3,0.68 -0.71,1.04 -0.57,0.52 -0.85,0.6 -1.47,0.44 -1.83,-0.52 -3.16,-2.05 -2.48,-2.86 0.3,-0.35 0.25,-0.41 -0.22,-0.41 -0.33,0 -0.68,-0.03 -0.79,-0.05 -0.46,-0.08 -0.87,-0.95 -0.87,-1.83 0,-0.74 0.22,-1.12 1.09,-1.91 1.17,-1.06 1.34,-1.39 0.68,-1.39 -0.22,0 -0.65,-0.25 -0.95,-0.55 -0.3,-0.3 -0.82,-0.55 -1.17,-0.55 -2.37,0 -1.72,-2.54 0.9,-3.55 0.52,-0.19 1.39,-0.85 1.94,-1.42 0.85,-0.87 1.17,-1.04 2.15,-1.04 1.09,0 1.15,-0.03 0.98,-0.65 -0.14,-0.52 0.03,-0.82 0.65,-1.34 0.44,-0.38 0.82,-0.93 0.82,-1.23 0,-0.68 0.55,-1.15 1.23,-1.01 0.3,0.05 0.68,0.11 0.85,0.11 0.17,0 0.74,0.33 1.28,0.68 1.04,0.71 1.28,0.57 1.28,-0.76 0,-0.33 0.44,-1.2 0.95,-1.94 0.51,-0.74 0.95,-1.55 0.95,-1.83 0,-0.28 0.49,-1.01 1.09,-1.61 0.87,-0.93 1.23,-1.12 1.8,-1.01 0.6,0.11 0.76,0 0.98,-0.63 0.3,-0.85 1.42,-1.39 2.48,-1.2 2.07,0.35 2.73,0.3 3.93,-0.35 1.36,-0.71 3.46,-0.98 4.31,-0.55 0.38,0.19 0.98,0.14 2.13,-0.22 1.15,-0.35 1.77,-0.41 2.21,-0.22 0.33,0.14 1.28,0.22 2.1,0.16 2.02,-0.14 2.54,0.03 2.95,0.95 0.38,0.85 1.12,1.34 2.37,1.53 1.06,0.16 1.5,0.65 1.8,1.96 0.38,1.64 0.3,3.08 -0.27,5.15 -0.41,1.47 -0.74,2.07 -1.42,2.65 -0.49,0.41 -1.04,0.76 -1.23,0.76 -0.49,0 -1.88,1.72 -2.67,3.27 -0.38,0.76 -0.71,1.45 -0.71,1.53 0,0.35 1.39,-0.95 1.64,-1.53 0.16,-0.38 0.65,-0.93 1.09,-1.23 0.44,-0.3 0.82,-0.63 0.82,-0.74 0,-0.3 1.31,-0.25 1.5,0.08 0.08,0.16 0.16,0.95 0.16,1.8 0,1.15 -0.16,1.77 -0.65,2.54 -1.01,1.55 -1.88,3.33 -1.75,3.65 0.05,0.16 -0.46,1.61 -1.17,3.19 -0.71,1.58 -1.39,3.19 -1.55,3.55 -0.35,0.85 -0.93,3.85 -1.04,5.32 -0.11,1.45 -1.39,2.67 -2.65,2.54 -0.76,-0.08 -0.87,0 -1.04,0.82 -0.11,0.49 -0.46,1.2 -0.79,1.55 -0.57,0.6 -2.81,1.58 -3.05,1.34 -0.05,-0.05 -0.35,0.14 -0.63,0.46 q -0.52,0.57 0.08,0.98 c 0.74,0.49 0.82,1.58 0.16,2.29 -0.35,0.41 -0.38,0.52 -0.08,0.52 0.22,0.03 0.52,0.05 0.65,0.08 0.16,0.03 0.49,0.08 0.76,0.11 0.27,0.03 0.87,0.41 1.31,0.9 1.01,1.06 1.15,3.03 0.25,3.57 -0.71,0.44 -0.68,0.71 0.14,1.34 0.38,0.3 0.68,0.76 0.68,1.06 0,0.33 -0.25,0.57 -0.68,0.68 -0.55,0.14 -0.68,0.33 -0.68,1.04 0,1.23 -1.23,2.54 -2.45,2.65 l -0.95,0.08 0.08,2.05 c 0.08,1.85 0.03,2.13 -0.55,2.73 q -1.69,1.77 -1.17,2.56 c 0.25,0.38 0.85,0.93 1.31,1.15 0.46,0.25 0.98,0.63 1.15,0.85 0.41,0.55 0.25,1.96 -0.38,3.38 -1.28,2.84 -5.21,5.26 -5.73,3.6 z"
       fill="#d3d3d3"
       style="fill:#ecebe9;fill-opacity:1" />
    <path
       id="path1140"
       d="m 218.42,75.25 c -0.76,-0.76 -0.87,-1.94 -0.38,-3.38 0.38,-1.06 0.87,-1.09 1.58,-0.08 1.06,1.5 1.09,3.3 0.03,3.87 -0.44,0.22 -0.68,0.14 -1.23,-0.41 z"
       fill="#d3d3d3"
       style="fill:#ecebe9;fill-opacity:1" />
    <path
       id="path1142"
       d="m 238.49,74.87 c -1.94,-1.01 -2.15,-1.99 -0.68,-3.27 1.2,-1.06 2.7,-1.17 4.09,-0.3 1.53,0.95 1.55,2.15 0.08,3.38 -0.93,0.76 -2.24,0.85 -3.49,0.19 z"
       fill="#d3d3d3"
       style="fill:#ecebe9;fill-opacity:1" />
    <path
       id="path1144"
       d="m 236.09,70.31 c -0.9,-0.38 -1.34,-1.17 -1.06,-1.99 0.08,-0.3 -0.16,-0.85 -0.68,-1.45 -1.01,-1.15 -1.2,-1.83 -1.01,-3.49 0.16,-1.47 1.01,-2.37 1.94,-2.1 0.33,0.08 1.31,0.65 2.18,1.23 0.87,0.58 1.69,1.06 1.8,1.06 0.44,0 0.82,1.53 0.82,3.27 v 1.88 l -1.25,0.95 c -1.39,1.15 -1.5,1.17 -2.73,0.63 z"
       fill="#d3d3d3"
       style="fill:#ecebe9;fill-opacity:1" />
    <path
       id="path1146"
       d="m 230.2,69.82 c -0.33,-0.35 -1.04,-1.12 -1.55,-1.72 -1.69,-1.91 -2.51,-2.37 -4.23,-2.32 -1.36,0.05 -1.61,-0.03 -2.32,-0.76 -0.85,-0.85 -1.04,-1.83 -0.52,-2.78 0.16,-0.3 0.46,-0.52 0.68,-0.52 0.22,0 0.63,-0.25 0.93,-0.52 0.46,-0.46 0.49,-0.68 0.25,-1.58 -0.16,-0.63 -0.65,-1.36 -1.2,-1.8 -1.75,-1.45 -0.98,-3.74 1.23,-3.74 1.23,0 2.75,1.06 2.75,1.91 0,0.52 0.38,0.9 1.01,0.98 0.65,0.11 1.94,1.36 2.54,2.48 0.33,0.63 0.82,1.36 1.06,1.66 0.93,1.01 1.06,1.5 0.65,2.65 -0.55,1.55 -0.49,1.91 0.44,2.95 0.46,0.52 0.82,1.12 0.82,1.36 0,0.79 -0.6,1.75 -1.28,2.07 -0.55,0.25 -0.74,0.22 -1.25,-0.33 z"
       fill="#d3d3d3"
       style="fill:#ecebe9;fill-opacity:1" />
    <path
       id="path1148"
       d="m 245.86,66.88 c -0.6,-0.63 -1.17,-1.39 -1.28,-1.66 -0.08,-0.27 -0.46,-0.85 -0.85,-1.25 -0.98,-1.06 -1.99,-3.16 -1.99,-4.15 0,-1.09 1.06,-2.18 2.1,-2.18 0.71,0 1.72,-0.76 1.72,-1.34 0,-0.25 -1.34,-0.95 -1.77,-0.95 -0.16,0 -0.85,0.11 -1.55,0.22 -1.66,0.27 -2.48,0.05 -2.86,-0.74 -0.22,-0.46 -0.19,-0.82 0.11,-1.36 0.22,-0.44 0.27,-0.74 0.11,-0.74 -0.16,0 -0.52,-0.25 -0.82,-0.55 -0.6,-0.6 -0.71,-1.91 -0.25,-3.25 0.27,-0.76 0.41,-0.85 1.39,-0.85 0.98,0 1.06,-0.05 0.9,-0.6 -0.11,-0.33 -0.55,-0.93 -1.01,-1.31 -0.68,-0.6 -0.79,-0.85 -0.63,-1.55 0.22,-1.01 0.76,-1.5 1.75,-1.64 1.69,-0.19 1.75,-0.41 0.44,-1.8 l -0.95,-1.01 0.55,-1.09 c 0.3,-0.6 0.9,-1.25 1.36,-1.5 0.63,-0.33 0.82,-0.63 0.87,-1.45 0.08,-0.95 0.14,-1.04 1.04,-1.12 1.01,-0.08 2.59,0.76 3.03,1.58 0.6,1.17 1.34,2.95 1.34,3.22 0,0.57 1.15,2.37 2.35,3.65 0.87,0.95 1.2,1.5 1.2,2.13 0,0.63 0.33,1.2 1.36,2.29 1.2,1.25 1.36,1.58 1.36,2.59 0,1.23 0.11,1.36 2.73,3.52 0.98,0.82 1.09,1.06 1.09,2.1 0,1.04 -0.22,1.47 -1.64,3.33 -0.9,1.2 -1.94,2.32 -2.32,2.54 -0.46,0.25 -0.68,0.6 -0.68,1.04 0,0.38 -0.46,1.28 -1.01,1.99 -1.12,1.47 -1.28,1.55 -2.45,1.2 -0.52,-0.16 -0.6,-0.05 -0.68,0.71 -0.08,0.87 -0.11,0.9 -1.5,0.98 -1.36,0.14 -1.47,0.08 -2.54,-1.01 z"
       fill="#d3d3d3"
       style="fill:#ecebe9;fill-opacity:1" />
    <path
       id="path1150"
       d="m 212.1,62.54 c 0.08,-0.38 0.25,-1.15 0.33,-1.72 0.11,-0.57 0.3,-1.04 0.44,-1.04 0.38,0 -0.03,2.54 -0.52,3 -0.35,0.38 -0.38,0.35 -0.25,-0.25 z"
       fill="#d3d3d3"
       style="fill:#ecebe9;fill-opacity:1" />
    <path
       id="path1152"
       d="m 232.74,50.73 c -0.93,-0.74 -1.58,-1.85 -1.42,-2.45 0.22,-0.95 0.63,-1.28 1.42,-1.28 0.57,0 0.9,0.27 1.47,1.12 0.87,1.34 0.9,1.72 0.19,2.43 -0.65,0.63 -1.06,0.68 -1.66,0.19 z"
       fill="#d3d3d3"
       style="fill:#ecebe9;fill-opacity:1" />
  </g>
  <path
     id="CA-PE"
     d="m 283.37351,255.89854 c -0.07,-0.07 -1.02414,-0.16631 -2.10081,-0.21883 -1.09418,-0.0438 -2.58226,-0.26261 -3.29128,-0.48144 -1.60187,-0.48144 -1.9345,-0.55147 -2.38968,-0.56897 -0.98038,-0.0438 -1.07667,-0.40266 -0.48144,-1.6719 0.30637,-0.66526 0.71778,-1.21673 0.8841,-1.21673 0.16631,0 0.7878,0.48144 1.38303,1.02415 0.85784,0.83158 1.12044,0.98038 1.33927,0.71778 0.16632,-0.19257 0.74404,-0.30637 1.45307,-0.30637 0.64775,0 1.35678,-0.0963 1.57561,-0.21883 0.76155,-0.40266 2.88862,-0.95412 3.01117,-0.76155 0.07,0.0963 -0.0438,0.48144 -0.21883,0.83158 -0.19258,0.35888 -0.35889,1.12043 -0.38515,1.69816 -0.07,0.95412 -0.45518,1.53184 -0.78781,1.17295 z"
     fill="#bdb2d8"
     style="stroke-width:0.87534" />
  <g
     id="CA-QC"
     transform="matrix(0.87534031,0,0,0.87534031,-51.811796,-8.7430925)">
    <path
       id="path1157"
       d="m 327.86,322.48 c -0.25,-0.41 -0.49,-1.17 -0.55,-1.72 -0.11,-0.9 -0.16,-0.95 -1.23,-1.04 -1.12,-0.08 -2.59,0.49 -4.2,1.61 -0.55,0.38 -1.2,0.52 -2.75,0.52 -2.02,0 -2.05,0 -2.67,-0.95 -0.35,-0.52 -0.87,-0.95 -1.17,-0.95 -0.3,0 -1.15,-0.38 -1.91,-0.85 -0.95,-0.6 -1.83,-0.9 -2.89,-0.98 -2.29,-0.19 -4.85,-1.04 -6.44,-2.13 -1.15,-0.79 -1.55,-1.31 -2.24,-2.81 -0.49,-1.12 -0.9,-2.54 -1.01,-3.6 -0.11,-0.98 -0.22,-2.13 -0.27,-2.59 -0.05,-0.46 -0.25,-1.99 -0.41,-3.41 -0.16,-1.42 -0.35,-3.03 -0.41,-3.55 -0.06,-0.52 -0.19,-1.5 -0.27,-2.18 -0.08,-0.68 -0.52,-4.42 -0.95,-8.32 -0.44,-3.9 -0.87,-7.42 -0.95,-7.8 -0.14,-0.63 -0.05,-0.74 0.71,-0.87 0.79,-0.16 0.85,-0.25 0.68,-1.01 -0.14,-0.65 -0.03,-1.09 0.57,-1.96 0.41,-0.63 0.76,-1.45 0.76,-1.83 0,-0.38 -0.49,-1.72 -1.12,-3 -0.63,-1.28 -1.23,-2.81 -1.39,-3.41 -0.16,-0.6 -0.49,-1.39 -0.76,-1.75 -0.33,-0.44 -0.44,-1.09 -0.41,-1.99 0.08,-1.42 -0.65,-2.97 -1.64,-3.52 -0.3,-0.16 -0.52,-0.57 -0.52,-1.01 0,-0.41 -0.25,-1.04 -0.55,-1.42 -0.3,-0.38 -0.55,-0.82 -0.55,-0.95 0,-0.41 1.34,-1.58 2.86,-2.54 0.74,-0.46 1.75,-1.31 2.24,-1.88 0.49,-0.57 1.42,-1.64 2.07,-2.37 0.82,-0.9 1.55,-2.13 2.21,-3.76 0.9,-2.21 0.98,-2.67 0.95,-4.75 -0.03,-1.69 -0.25,-2.89 -0.79,-4.55 -0.41,-1.23 -0.82,-2.56 -0.93,-2.97 -0.27,-1.25 -2.73,-3.87 -4.47,-4.83 -2.1,-1.12 -3.74,-2.75 -3.82,-3.79 -0.03,-0.44 0.14,-1.28 0.41,-1.88 0.25,-0.57 0.49,-1.25 0.55,-1.47 0.03,-0.22 0.33,-0.6 0.63,-0.87 0.44,-0.35 0.57,-0.76 0.57,-1.75 0,-0.93 0.16,-1.47 0.55,-1.88 0.49,-0.52 0.52,-0.65 0.14,-1.69 -0.22,-0.63 -0.44,-1.42 -0.52,-1.8 -0.16,-0.85 -0.87,-2.24 -1.69,-3.33 -0.57,-0.74 -0.63,-1.12 -0.63,-3.9 0,-2.24 -0.11,-3.22 -0.38,-3.55 -0.22,-0.25 -0.74,-1.28 -1.15,-2.32 l -0.76,-1.88 0.71,-1.42 c 0.68,-1.36 0.76,-1.45 1.99,-1.61 2.05,-0.27 3.79,-0.22 4.96,0.22 1.55,0.55 3.74,0.74 4.61,0.41 0.41,-0.16 1.23,-0.76 1.83,-1.36 0.6,-0.6 1.23,-1.06 1.36,-1.06 0.49,0 5.75,2.78 7.5,3.95 1.34,0.87 1.64,1.23 1.58,1.77 -0.03,0.38 0.16,0.98 0.41,1.39 0.41,0.63 0.74,0.74 3.27,1.04 1.53,0.19 3.38,0.52 4.12,0.76 l 1.34,0.44 -0.19,1.5 c -0.19,1.45 0.03,2.4 1.28,5.94 0.16,0.46 0.27,1.15 0.27,1.55 -0.03,0.46 0.25,1.01 0.65,1.45 0.38,0.38 0.93,1.23 1.23,1.91 l 0.55,1.23 1.34,-0.16 c 1.28,-0.16 1.39,-0.11 2.78,1.06 0.79,0.68 1.77,1.31 2.18,1.42 0.41,0.11 0.74,0.3 0.74,0.44 0,0.52 0.57,0.19 1.75,-0.93 0.9,-0.87 1.25,-1.45 1.39,-2.29 0.14,-0.79 0.35,-1.2 0.79,-1.39 0.38,-0.16 0.76,-0.74 0.98,-1.47 0.44,-1.34 0.38,-4.17 -0.08,-4.99 -0.16,-0.3 -0.27,-0.68 -0.22,-0.82 0.05,-0.14 0.19,-0.93 0.35,-1.77 0.25,-1.36 0.9,-2.32 1.36,-2.05 0.11,0.05 0.27,0.57 0.35,1.15 0.25,1.28 1.42,3.35 1.88,3.35 0.33,0 1.12,2.73 0.98,3.41 -0.16,0.74 0.08,0.85 1.58,0.74 l 1.58,-0.11 -0.05,1.75 c -0.03,0.95 -0.16,2.15 -0.33,2.65 -0.19,0.6 -0.19,1.09 -0.03,1.42 0.33,0.6 1.77,1.53 2.78,1.77 0.93,0.22 0.98,0.46 1.17,3.68 0.08,1.42 0.33,3.19 0.52,3.95 0.19,0.76 0.46,1.8 0.55,2.35 0.11,0.65 0.44,1.17 1.01,1.58 0.82,0.6 2.15,3 2.15,3.87 0,0.25 0.22,0.65 0.52,0.9 0.27,0.25 0.71,0.93 0.98,1.5 0.46,1.01 0.46,1.09 -0.11,2.35 l -0.57,1.28 -1.45,-0.14 c -0.79,-0.08 -1.8,-0.22 -2.26,-0.33 -0.74,-0.16 -0.9,-0.08 -1.5,0.79 -0.74,1.06 -1.2,1.2 -1.91,0.55 -0.27,-0.25 -1.23,-0.57 -2.13,-0.76 -1.83,-0.38 -1.99,-0.3 -2.32,1.01 -0.11,0.44 -0.46,0.9 -0.85,1.06 -0.52,0.25 -0.68,0.52 -0.68,1.23 0,0.65 -0.25,1.17 -0.85,1.8 -0.74,0.76 -0.82,1.01 -0.68,1.99 0.08,0.6 0.33,1.42 0.52,1.83 0.63,1.2 2.24,2.84 3.35,3.38 1.17,0.57 1.39,1.23 0.85,2.78 -0.3,0.85 -0.27,0.95 0.46,1.58 0.79,0.68 1.75,0.76 3.33,0.22 0.52,-0.16 0.6,-0.05 0.76,1.23 0.14,0.98 0.41,1.64 0.87,2.1 0.63,0.63 0.82,0.68 2.18,0.49 1.23,-0.16 1.61,-0.11 2.05,0.3 0.3,0.27 0.74,0.52 1.01,0.57 1.28,0.25 4.06,0.3 4.36,0.11 0.19,-0.11 0.41,-0.76 0.46,-1.42 0.16,-1.53 0.35,-3.35 0.38,-3.46 0,-0.03 0.52,0.19 1.15,0.49 0.82,0.44 1.42,0.55 2.26,0.44 1.17,-0.16 5.56,-1.64 10.12,-3.44 7.01,-2.75 11.32,-4.34 12.93,-4.75 0.95,-0.25 1.91,-0.57 2.13,-0.76 0.22,-0.19 0.46,-0.22 0.57,-0.05 0.63,0.74 1.94,2.54 1.94,2.65 0,0.08 -0.76,0.74 -1.72,1.45 -2.51,1.91 -3.98,3.6 -4.17,4.72 -0.08,0.52 -0.68,2.05 -1.36,3.41 -0.68,1.36 -1.34,2.75 -1.47,3.14 -0.3,0.85 -4.72,3.22 -7.53,4.04 -1.06,0.3 -3.38,0.98 -5.18,1.5 -10.55,3.05 -15.65,4.96 -16.58,6.24 -0.27,0.38 -0.63,1.28 -0.76,2.02 -0.13,0.74 -0.49,2.15 -0.82,3.16 -0.49,1.61 -0.65,1.85 -1.23,1.85 -1.31,0 -3.98,3.05 -4.91,5.59 -0.27,0.76 -0.9,1.99 -1.36,2.73 -0.49,0.76 -0.93,1.8 -1.01,2.32 -0.3,2.29 -4.5,9.05 -6.68,10.8 -3.05,2.45 -7.25,6.93 -6.87,7.31 0.05,0.05 1.15,-1.04 2.43,-2.45 1.28,-1.42 3.14,-3.16 4.12,-3.93 1.69,-1.28 3.55,-3.25 4.8,-5.07 1.12,-1.64 3.11,-5.56 3.11,-6.14 0,-0.33 0.14,-0.85 0.3,-1.17 0.49,-0.95 3,-4.04 4.06,-4.99 0.52,-0.49 1.55,-1.45 2.32,-2.13 0.74,-0.68 2.1,-1.69 3,-2.26 0.9,-0.55 2.56,-1.64 3.68,-2.43 1.42,-0.98 2.59,-1.55 3.82,-1.85 1.66,-0.41 1.88,-0.41 3.38,0.05 1.31,0.41 1.69,0.65 2.07,1.42 1.09,2.07 0.9,3.46 -0.65,5.37 -1.53,1.85 -2.07,2.21 -3.68,2.37 -3.14,0.33 -5.73,1.06 -6.6,1.85 -1.12,1.04 -2.02,1.34 -4.17,1.42 -2.59,0.11 -2.73,0.27 -2.51,3.03 l 0.16,2.24 -1.06,0.16 c -0.57,0.08 -1.39,0.11 -1.77,0.03 -0.55,-0.11 -0.85,0.03 -1.17,0.49 -0.55,0.76 -1.69,4.53 -1.91,6.22 -0.08,0.68 -0.27,2.02 -0.41,3 -0.14,0.98 -0.33,2.29 -0.38,2.95 -0.22,2.1 -1.04,3.9 -2.1,4.66 -0.55,0.38 -1.25,1.09 -1.61,1.58 -0.33,0.49 -0.87,0.95 -1.2,1.01 -0.33,0.05 -2.56,0.55 -4.99,1.09 -2.43,0.54 -5.07,0.98 -5.86,0.98 -1.28,0 -1.47,-0.08 -1.88,-0.76 z"
       fill="#424d8b" />
    <path
       id="path1159"
       d="m 372.36,280.76 c -0.38,-0.05 -0.98,-0.33 -1.36,-0.57 -0.38,-0.27 -1.39,-0.63 -2.24,-0.82 -1.94,-0.41 -2.32,-1.12 -1.15,-2.1 0.63,-0.52 1.15,-0.65 2.56,-0.68 3.74,-0.08 5.07,0.08 7.58,0.9 2.48,0.85 2.54,0.87 2.54,1.75 0,1.04 -0.11,1.09 -3.14,1.34 -3.33,0.27 -4.06,0.3 -4.8,0.19 z"
       fill="#424d8b" />
  </g>
  <path
     id="CA-SK"
     d="m 120.85783,252.86986 c -0.0438,-0.0438 -0.95412,-0.16631 -2.00453,-0.2626 -1.05041,-0.0963 -2.17084,-0.19257 -2.50347,-0.23634 -0.33263,-0.0438 -1.28675,-0.16631 -2.14458,-0.23634 -0.85784,-0.07 -1.81196,-0.19258 -2.14459,-0.23634 -0.33263,-0.0438 -1.28675,-0.16632 -2.14458,-0.23635 -0.85784,-0.07 -4.17538,-0.74404 -7.39663,-1.47932 -3.22125,-0.74404 -6.013585,-1.33927 -6.20616,-1.38304 -1.076669,-0.23634 -1.69816,-0.38515 -3.107458,-0.69152 -0.857834,-0.19257 -1.768188,-0.40265 -2.03079,-0.45517 -0.262602,-0.0438 -1.31301,-0.28887 -2.337157,-0.49895 -1.505585,-0.33263 -1.838214,-0.49894 -1.741927,-0.81406 0.122548,-0.35889 1.978269,-8.07064 2.144584,-8.85845 0.04377,-0.19257 0.402655,-1.74193 0.831571,-3.45759 0.402657,-1.71567 1.120436,-4.72684 1.601873,-6.6876 0.481437,-1.96077 1.383038,-5.77725 2.03079,-8.4733 0.647751,-2.69605 1.242983,-5.11198 1.28675,-5.37459 0.04377,-0.2626 0.428917,-1.81195 0.814066,-3.45759 0.402657,-1.64564 1.216723,-5.03321 1.811955,-7.51917 0.595231,-2.50348 1.453065,-6.03985 1.881981,-7.87807 0.428917,-1.83821 1.190462,-4.96318 1.671902,-6.96771 l 0.88409,-3.63266 1.24299,0.0963 c 0.66525,0.0438 1.76818,0.19257 2.40718,0.28886 0.639,0.0963 2.00453,0.07 3.02868,-0.0438 1.74193,-0.21883 1.9345,-0.19257 3.29128,0.42892 1.35678,0.59523 1.9345,0.64775 1.9345,0.14006 0,-0.26261 -5.05947,-2.74857 -6.32871,-3.0812 -0.5252,-0.14006 -1.19046,-0.2626 -1.50559,-0.2626 -0.28886,0 -0.76154,-0.21884 -1.02414,-0.48144 -0.52521,-0.52521 -1.21673,-0.62149 -1.93451,-0.23634 -0.55146,0.28886 -0.55146,0.21883 -0.19257,-1.43556 0.21883,-0.95412 0.33263,-1.19046 0.66526,-1.09418 0.35889,0.0963 2.03079,0.45518 3.63266,0.74404 0.30637,0.07 0.78781,0.14006 1.05041,0.21884 0.78781,0.16631 10.69666,2.10081 11.33566,2.1971 0.33263,0.0438 1.88198,0.35889 3.45759,0.66526 1.57561,0.30637 3.29128,0.62149 3.81648,0.66526 0.92786,0.0963 0.95412,0.12255 0.91036,0.91035 -0.0263,0.45518 -0.30637,2.8186 -0.64775,5.22578 -0.34139,2.40719 -0.69152,4.96318 -0.76155,5.61094 -0.14005,1.17295 -0.42892,1.79444 -0.83157,1.79444 -0.35889,0 -1.79445,1.57562 -2.10082,2.33716 -0.21884,0.55147 -0.23634,0.95412 -0.0438,1.53185 0.52521,1.69816 0.42892,2.50347 -0.38515,3.3438 -0.5252,0.55146 -0.69152,0.88409 -0.55146,1.12043 0.16631,0.26261 0.35889,0.21884 0.95412,-0.30637 0.40266,-0.35889 0.91035,-0.64775 1.09418,-0.64775 0.35888,0 0.35888,0.76155 -0.0263,5.48839 -0.0438,0.71778 -0.16631,2.26713 -0.23634,3.45759 -0.07,1.19046 -0.19257,2.62602 -0.23634,3.22125 -0.0438,0.59523 -0.16631,2.14459 -0.23634,3.4576 -0.07,1.31301 -0.19258,2.76607 -0.23634,3.22125 -0.0438,0.45518 -0.16632,2.03079 -0.23634,3.45759 -0.07,1.42681 -0.19258,2.88863 -0.23635,3.22126 -0.0438,0.33263 -0.16631,1.88198 -0.23634,3.45759 -0.0963,1.57561 -0.19257,3.02868 -0.23634,3.22125 -0.0438,0.19258 -0.14005,1.69816 -0.23634,3.3438 -0.0963,1.64564 -0.19258,3.15123 -0.23634,3.3438 -0.0438,0.19258 -0.14006,1.69816 -0.23635,3.3438 -0.0963,1.64564 -0.21883,3.17749 -0.2626,3.41383 -0.0438,0.23634 -0.0963,1.12044 -0.12255,1.97827 -0.0263,1.4093 -0.2626,1.88198 -0.69151,1.47932 z"
     fill="#bdb2d8"
     style="stroke-width:0.87534" />
  <path
     id="CA-YT"
     d="m 58.91,162.65729 c -0.262602,-0.16631 -1.269244,-0.66526 -2.240871,-1.09417 -1.505586,-0.66526 -6.6876,-3.37006 -15.204662,-7.90433 -2.696048,-1.43556 -12.63116,-7.5892 -19.957759,-12.38606 -2.59976,-1.69816 -3.772716,-2.59976 -3.772716,-2.88863 0,-0.59523 0.744039,-1.76818 1.505585,-2.36341 1.383038,-1.09418 0.595231,-1.79445 -2.127077,-1.88199 -0.551464,-0.0263 -0.787806,-0.16631 -0.884094,-0.49894 -0.07003,-0.2626 -0.218835,-0.45518 -0.332629,-0.42892 -0.455177,0.12255 -1.269243,-0.33263 -1.409298,-0.7878 -0.122548,-0.35889 0.455177,-1.38304 2.223364,-3.9828 3.29128,-4.84939 9.357388,-13.84789 14.057966,-20.81559 3.746456,-5.55842 8.569582,-12.701186 15.082113,-22.364948 l 2.932391,-4.341687 0.761546,0.262602 c 1.575612,0.551465 2.030789,1.076665 2.197104,2.599765 0.09629,0.76154 0.402656,1.90824 0.717779,2.50347 0.315122,0.59523 0.621491,1.50558 0.717779,2.03079 0.122548,0.66526 0.402656,1.14669 1.120435,1.74192 0.884094,0.76155 0.927861,0.85784 0.621492,1.26925 -0.498944,0.59523 -2.914883,4.534262 -3.483854,5.680962 -0.262602,0.5252 -0.665259,1.54935 -0.884094,2.26713 -0.236342,0.71778 -0.665259,1.794446 -0.954121,2.389676 -1.050408,2.10081 -1.094175,1.9345 1.435558,3.84274 1.741927,1.31301 2.267132,1.83822 2.267132,2.26713 0,0.30637 -0.38515,1.28675 -0.857834,2.19711 -0.551464,1.07667 -0.910354,2.10081 -0.980381,2.95865 -0.122548,1.28675 -0.09629,1.33927 0.744039,1.97827 0.927861,0.71778 0.884094,0.49894 0.621492,3.29128 0,0.0963 -0.33263,0.23634 -0.717779,0.30637 -0.761546,0.16631 -1.453065,1.02414 -1.453065,1.76818 0,0.26261 -0.218835,0.83158 -0.481437,1.28675 -0.525205,0.8841 -0.402657,1.6719 0.332629,2.2934 0.262602,0.21883 0.332629,0.56897 0.262602,1.26924 -0.09629,0.71778 0,1.12043 0.402657,1.69816 0.385149,0.5252 0.551464,1.12043 0.568971,2.07456 0.02626,0.74403 0.218835,1.69816 0.455177,2.14458 0.402656,0.78781 0.402656,0.88409 -0.07003,2.50347 -0.621492,2.17085 -0.927861,3.86901 -1.094176,6.1624 -0.07003,1.00664 -0.262602,2.17084 -0.402656,2.58225 -0.236342,0.66526 -0.192575,0.83158 0.332629,1.38304 0.787806,0.85783 1.024148,1.33927 1.479325,3.15122 0.218835,0.85784 0.691519,2.10082 1.076669,2.79234 0.481437,0.91035 0.595231,1.26924 0.358889,1.35678 -0.166315,0.07 -0.358889,0.64775 -0.428917,1.26924 -0.07003,0.64775 -0.192574,1.45307 -0.288862,1.81196 -0.218835,0.7878 0.09629,1.09417 2.03079,1.97827 0.717779,0.33262 1.715667,0.88409 2.223364,1.24298 0.507697,0.35889 1.190463,0.64775 1.549352,0.64775 h 0.647752 l -0.07003,2.48597 c -0.04377,1.35677 -0.09629,2.52973 -0.140055,2.55599 0.02626,-0.0263 -0.218835,-0.12255 -0.481437,-0.28886 z"
     fill="#d3d3d3"
     style="fill:#ecebe9;fill-opacity:1;stroke-width:0.87534" />
  <circle
     id="DC2"
     cx="229.84645"
     cy="315.04529"
     r="1.1904628"
     fill="#d3d3d3"
     stroke="#ffffff"
     stroke-width="1.31301" />
  <text
     fill="#ffffff"
     font-family="OpenSans-BoldItalic, 'Open Sans'"
     font-size="8.7534px"
     font-style="italic"
     font-weight="700"
     id="text1"
     x="175.33026"
     y="246.55869"
     style="font-size:10.6667px;stroke-width:0.87534"><tspan
       x="175.33026"
       y="246.55869"
       id="tspan1"
       style="font-size:10.6667px;stroke-width:0.87534">128</tspan></text>
  <text
     fill="#ffffff"
     font-family="OpenSans-BoldItalic, 'Open Sans'"
     font-size="8.7534px"
     font-style="italic"
     font-weight="700"
     id="text2"
     x="38.103161"
     y="198.2924"
     style="font-size:10.6667px;stroke-width:0.87534"><tspan
       x="38.103161"
       y="198.2924"
       id="tspan2"
       style="font-size:10.6667px;stroke-width:0.87534">71</tspan></text>
  <text
     fill="#ffffff"
     font-family="OpenSans-BoldItalic, 'Open Sans'"
     font-size="8.7534px"
     font-style="italic"
     font-weight="700"
     id="text3"
     x="74.062141"
     y="207.6673"
     style="font-size:10.6667px;stroke-width:0.87534"><tspan
       x="74.062141"
       y="207.6673"
       id="tspan3"
       style="font-size:10.6667px;stroke-width:0.87534">30</tspan></text>
  <text
     fill="#ffffff"
     font-family="OpenSans-BoldItalic, 'Open Sans'"
     font-size="8.7534px"
     font-style="italic"
     font-weight="700"
     id="text4"
     x="136.05374"
     y="219.02921"
     style="font-size:10.6667px;stroke-width:0.87534"><tspan
       x="136.05374"
       y="219.02921"
       id="tspan4"
       style="font-size:10.6667px;stroke-width:0.87534">17</tspan></text>
  <text
     fill="#ffffff"
     font-family="OpenSans-BoldItalic, 'Open Sans'"
     font-size="8.7534px"
     font-style="italic"
     font-weight="700"
     id="text5"
     x="107.14125"
     y="219.02921"
     style="font-size:10.6667px;stroke-width:0.87534"><tspan
       x="107.14125"
       y="219.02921"
       id="tspan5"
       style="font-size:10.6667px;stroke-width:0.87534">4</tspan></text>
  <text
     fill="#ffffff"
     font-family="OpenSans-BoldItalic, 'Open Sans'"
     font-size="8.7534px"
     font-style="italic"
     font-weight="700"
     id="text6"
     x="283.61444"
     y="209.9541"
     style="font-size:10.6667px;stroke-width:0.87534"><tspan
       x="283.61444"
       y="209.9541"
       id="tspan6"
       style="font-size:10.6667px;stroke-width:0.87534">3</tspan></text>
  <text
     fill="#ffffff"
     font-family="OpenSans-BoldItalic, 'Open Sans'"
     font-size="8.7534px"
     font-style="italic"
     font-weight="700"
     id="text7"
     x="262.16867"
     y="261.0192"
     style="font-size:10.6667px;stroke-width:0.87534"><tspan
       x="262.16867"
       y="261.0192"
       id="tspan7"
       style="font-size:10.6667px;stroke-width:0.87534">22</tspan></text>
  <text
     fill="#7773b2"
     font-family="OpenSans-BoldItalic, 'Open Sans'"
     font-size="8.7534px"
     font-style="italic"
     font-weight="700"
     stroke="#7773b2"
     stroke-miterlimit="10"
     id="text8"
     x="278.92844"
     y="267.4614"
     style="font-size:10.6667px;stroke-width:0.87534"><tspan
       x="278.92844"
       y="267.4614"
       id="tspan8"
       style="font-size:10.6667px;stroke-width:0.87534">20</tspan></text>
  <text
     fill="#ffffff"
     font-family="OpenSans-BoldItalic, 'Open Sans'"
     font-size="8.7534px"
     font-style="italic"
     font-weight="700"
     id="text9"
     x="231.77222"
     y="235.61693"
     style="font-size:10.6667px;stroke-width:0.87534"><tspan
       x="231.77222"
       y="235.61693"
       id="tspan9"
       style="font-size:10.6667px;stroke-width:0.87534">46</tspan></text>
  <text
     fill="#ffffff"
     font-family="OpenSans-BoldItalic, 'Open Sans'"
     font-size="8.7534px"
     font-style="italic"
     font-weight="700"
     id="text10"
     x="278.92844"
     y="267.4614"
     style="font-size:10.6667px;stroke-width:0.87534"><tspan
       x="278.92844"
       y="267.4614"
       id="tspan10"
       style="font-size:10.6667px;stroke-width:0.87534">20</tspan></text>
  <text
     fill="#bdb2d8"
     font-family="OpenSans-BoldItalic, 'Open Sans'"
     font-size="8.7534px"
     font-style="italic"
     font-weight="700"
     stroke="#bdb2d8"
     stroke-miterlimit="10"
     stroke-width="1.31301"
     id="text11"
     x="278.3396"
     y="254.30548"
     style="font-size:10.6667px"><tspan
       x="278.3396"
       y="254.30548"
       id="tspan11"
       style="font-size:10.6667px;stroke-width:1.31301">2</tspan></text>
  <text
     fill="#ffffff"
     font-family="OpenSans-BoldItalic, 'Open Sans'"
     font-size="8.7534px"
     font-style="italic"
     font-weight="700"
     id="text12"
     x="278.3396"
     y="254.30548"
     style="font-size:10.6667px;stroke-width:0.87534"><tspan
       x="278.3396"
       y="254.30548"
       id="tspan12"
       style="font-size:10.6667px;stroke-width:0.87534">2</tspan></text>
  <text
     fill="#1e3864"
     font-family="OpenSans-Bold, 'Open Sans'"
     font-size="59.54px"
     font-weight="700"
     id="text13"
     x="-319.616"
     y="-217.10045"><tspan
       x="-319.616"
       y="-217.10045"
       id="tspan13">343</tspan></text>
  <text
     font-family="OpenSans-Bold, 'Open Sans'"
     font-size="16.57px"
     font-weight="700"
     id="text19"
     x="-207.67599"
     y="-236.98045"><tspan
       x="-207.67599"
       y="-236.98045"
       fill="#d3d3d3"
       stroke="#d3d3d3"
       stroke-miterlimit="10"
       id="tspan14">Business Impro</tspan><tspan
       x="-80.875977"
       y="-236.98045"
       fill="#ffffff"
       id="tspan15">vement</tspan><tspan
       x="-207.67599"
       y="-217.10045"
       fill="#d3d3d3"
       stroke="#d3d3d3"
       stroke-miterlimit="10"
       id="tspan16">Areas (BIAs) ac</tspan><tspan
       x="-86.026001"
       y="-217.10045"
       fill="#ffffff"
       id="tspan17">ross</tspan><tspan
       x="-51.776005"
       y="-217.10045"
       letter-spacing="0em"
       id="tspan18" /><tspan
       x="-47.465977"
       y="-217.10045"
       fill="#ffffff"
       id="tspan19">Canada</tspan></text>
  <text
     font-family="OpenSans-Bold, 'Open Sans'"
     font-size="16.57px"
     font-weight="700"
     id="text21"
     x="-207.67599"
     y="-236.98045"><tspan
       x="-207.67599"
       y="-236.98045"
       id="tspan20">Business Improvement</tspan><tspan
       x="-207.67599"
       y="-217.10045"
       id="tspan21">Areas (BIAs) across Canada*</tspan></text>
  <text
     fill="#999999"
     font-family="OpenSans, 'Open Sans'"
     font-size="7.00272px"
     id="text22"
     x="9.6000013"
     y="288"
     style="font-size:10.6667px;white-space:pre;inline-size:176.575;stroke-width:0.87534"
     transform="translate(9.1919147,-10.029246)"
     xml:space="preserve"><tspan
       x="9.6000013"
       y="288"
       id="tspan23">*Based on data from Canada </tspan><tspan
       x="9.6000013"
       y="301.33336"
       id="tspan24">Business Grants; may not be a </tspan><tspan
       x="9.6000013"
       y="314.66673"
       id="tspan25">comprehensive count of all BIAs.</tspan></text>
  <path
     id="path37-2"
     data-name="path37"
     d="m 0,0.66666502 326.40001,0"
     fill="none"
     stroke="#231f20"
     stroke-miterlimit="3"
     style="stroke-width:1.33333"
     sodipodi:nodetypes="cc" />
  <path
     id="path37-2-9"
     data-name="path37"
     d="M 0,325.73334 H 326.40001"
     fill="none"
     stroke="#231f20"
     stroke-miterlimit="3"
     style="stroke-width:1.33333"
     sodipodi:nodetypes="cc" />
  <text
     font-family="TradeGothicLT-Bold, 'TradeGothic LT Bold'"
     font-size="26.6667px"
     font-weight="700"
     id="text75"
     x="27.946676"
     y="38.399994"
     style="white-space:pre;inline-size:324.013;display:inline;stroke-width:1.33333"
     xml:space="preserve"><tspan
       x="27.946676"
       y="38.399994"
       id="tspan26">There are 343+ Business
</tspan><tspan
       x="27.946676"
       y="71.733367"
       id="tspan27">Improvement Areas (BIAs)
</tspan><tspan
       x="27.946676"
       y="105.06674"
       id="tspan28">across Canada*</tspan></text>
  <rect
     x="0"
     y="19.200001"
     width="19.200001"
     height="19.200001"
     id="rect75"
     style="stroke-width:1.33333" />
</svg>
