<?xml version="1.0" encoding="UTF-8"?>
<svg id="svg75" xmlns="http://www.w3.org/2000/svg" width="6.8in" height="5.3in" viewBox="0 0 489.6 381.6">
  <rect id="rect21" x="0" y=".125" width="489.6" height="380.135" fill="#fff"/>
  <path id="CA-PE" d="M400.216,322.976c-.08-.08-1.17-.19-2.4-.25-1.25-.05-2.95-.3-3.76-.55-1.83-.55-2.21-.63-2.73-.65-1.12-.05-1.23-.46-.55-1.91.35-.76.82-1.39,1.01-1.39s.9.55,1.58,1.17c.98.95,1.28,1.12,1.53.82.19-.22.85-.35,1.66-.35.74,0,1.55-.11,1.8-.25.87-.46,3.3-1.09,3.44-.87.08.11-.05.55-.25.95-.22.41-.41,1.28-.44,1.94-.08,1.09-.52,1.75-.9,1.34h.01Z" fill="#d3d3d3"/>
  <g id="g84">
    <g id="g2031">
      <path id="CA-ON-5" d="M304.436,371.466c.3-.55.65-.82,1.42-.93.57-.08,1.2-.27,1.39-.41.52-.33.76-2.24.35-2.48-.25-.14-.27-.35-.08-.71.14-.27.35-.98.44-1.53.11-.55.41-1.17.68-1.36.98-.68,1.83-2.29,1.75-3.25-.05-.52-.11-1.91-.14-3.14-.03-2.07.03-2.32.93-3.95l.98-1.75-.49-1.09c-.27-.6-.76-1.31-1.06-1.61-.57-.52-.79-1.25-.38-1.25.11,0,.93.74,1.8,1.64,1.45,1.47,2.92,2.43,4.39,2.84,1.5.41,2.32-2.1,1.2-3.68-.71-1.04-3.68-4.25-4.45-4.83-.27-.22-1.34-.49-2.32-.6-.98-.11-2.48-.41-3.3-.63-1.06-.3-2.65-.44-5.51-.44-3.74,0-4.04-.03-4.42-.57-.22-.3-1.04-.9-1.83-1.31-1.17-.6-1.45-.87-1.47-1.47-.03-.41-.38-1.09-.82-1.55-.68-.71-.71-.85-.33-.98.6-.25.57-.82-.11-1.77-.3-.44-.79-1.31-1.09-1.99-.46-1.06-.65-1.23-1.58-1.36-1.04-.16-3.95-1.55-4.64-2.24-.22-.19-.41-.82-.44-1.39s-.16-1.39-.27-1.83l-.22-.79-2.21.14c-2.05.14-2.32.08-3.79-.65l-1.58-.79-1.12.71c-1.04.65-1.09.74-.71,1.15.38.38.27.55-1.39,1.61-1.01.65-2.26,1.66-2.81,2.24-1.09,1.17-1.23,1.2-5.15.55-1.12-.19-2.92-.35-3.98-.38-1.83-.05-3.65-.71-3.65-1.28,0-.11-.33-.22-.71-.22-.44,0-1.09-.38-1.72-.95-1.01-.95-1.04-.95-3.52-.95-1.8,0-2.62-.11-2.89-.38-.22-.22-.87-.46-1.45-.57-1.5-.27-1.66-.46-1.85-2.37-.16-1.55-.25-1.75-1.06-2.13-.85-.41-.87-.49-.85-2.05.03-1.75.35-9.05.52-11.7.05-.9.19-3.6.27-5.97.22-5.45-.25-4.58,6.24-11.34,1.36-1.42,3.27-3.49,4.25-4.61s1.88-2.15,2.05-2.32,1.75-2.02,3.55-4.12,3.87-4.5,4.64-5.32c3.68-4.06,5.32-5.92,5.81-6.54l.55-.68.9.52c1.12.63,2.95,2.35,2.95,2.75,0,.16.41.68.9,1.17.65.65,1.31.95,2.54,1.17,1.12.22,1.88.55,2.45,1.09.79.74,1.47.98,2.73,1.04.3,0,1.23.63,2.05,1.34l1.47,1.31,5.1.16c4.45.14,5.26.25,6.24.74l1.12.57-.19,2.37c-.11,1.31-.3,2.48-.41,2.59-.14.14,0,.6.27,1.09.27.46.6,1.39.68,2.07.3,2.18.35,2.4.6,2.92.14.27.22,1.06.16,1.75-.08,1.01.08,1.5.74,2.54,1.06,1.66,4.34,5.62,4.66,5.62.63,0,2.37,2.26,2.86,3.68l.52,1.55,1.69-.14,1.69-.14.16,1.39c.27,2.21.38,3.19.55,4.8.08.82.19,1.8.27,2.18.05.38.19,1.42.27,2.32s.22,1.94.27,2.32c.14.9.38,3.08.57,4.77.08.76.19,1.8.27,2.32.41,3.27.68,5.51.82,6.93.08.87.55,2.43.98,3.44.68,1.55,1.06,2.02,2.4,2.95,1.77,1.25,4.23,2.13,6.71,2.37,1.12.11,2.02.41,2.89.98.68.44,1.47.79,1.77.82.3,0,.85.46,1.25,1.06l.74,1.06,2.35-.14c2.05-.11,2.59-.25,4.06-1.06,1.72-.95,3.11-1.39,3.14-.98.05.41.19,1.12.38,1.69.14.46-.03.76-.85,1.47-1.69,1.45-3.11,2.95-5.13,5.45-1.04,1.31-2.02,2.37-2.18,2.4-.46.03-1.55,1.06-1.39,1.31.33.52-1.88,1.34-3.68,1.39-3.25.11-7.94,2.02-8.94,3.68-.98,1.64-.98,2.05.05,2.45.52.22,1.17.33,1.47.25.41-.11.63.08.98.82.52,1.12.35,1.25-1.47,1.25-1.09,0-4.09,1.12-4.85,1.83-.35.33-.33.44.27.9l.68.52-.74.19c-.41.11-1.28.05-1.96-.11-2.59-.65-3.19-.35-6.41,3-1.77,1.85-2.22,2.07-3,2.34-.85.31-2.32.23-2.7,0l.44-.76.02-.03Z" fill="#d9d9d9"/>
      <path id="path1053" d="M299.546,343.466c.11-.09,2.22.05,3.04.04.89-.01.31.64,1.29.75.85.26.51-.56,1.1-.65.59-.16,2.08-.34,2.94-.21.74.28-.32.8.1,1.11.48.36,1.18-1.13,1.37-.55.23.29-1.3,2.86-1.3,2.86-5.27-2.66-8.54-2.73-8.53-3.35h-.01Z" fill="#d9d9d9" stroke="#d3d3d3"/>
    </g>
    <path id="CA-AB" d="M170.816,311.166c-14.59-3.85-13.04-3.27-13.88-5.21l-.74-1.64.6-3.03c.63-3.19.6-3.98-.25-5.64-.27-.57-1.09-2.15-1.77-3.52-.68-1.37-1.53-3.27-1.83-4.23-.33-.95-.93-2.26-1.36-2.92s-.87-1.64-.98-2.18c-.11-.54-.52-1.39-.95-1.88-.44-.49-.79-1.04-.79-1.17s-.25-.65-.57-1.09c-.33-.46-.68-1.58-.82-2.62-.16-1.15-.49-2.18-.93-2.78-.35-.52-.79-1.28-.93-1.69-.16-.41-.71-1.01-1.23-1.36-.95-.63-1.31-1.61-.71-1.99.16-.08.27-.85.27-1.69,0-1.47,1.8-6.63,13.96-40.06l1.09-3.03,6.03,2.02c3.33,1.12,8.37,2.7,11.21,3.52,2.84.82,7.88,2.32,11.15,3.27,3.3.95,6,1.77,6.05,1.83.19.19-.82,4.17-1.09,4.36-.16.11-.6.27-.95.38-.68.19-3.55,3-3.57,3.52,0,.16.44.49.95.76.93.44,1.01.44,1.75-.08.44-.3.87-.82.95-1.12.11-.3.25-.49.3-.44.08.08-.35,2.13-.95,4.58-1.39,5.81-2.89,12.08-4.96,20.7-.9,3.82-1.96,8.18-2.32,9.68-1.83,7.55-3.44,14.32-4.31,18-4.64,19.42-4.23,17.89-4.5,17.83-.03-.05-1.83-.52-3.93-1.09l.01.01Z" fill="#d9d9d9"/>
    <g id="CA-BC">
      <path id="path1060" d="M112.866,296.906c-1.75-1.12-4.36-4.53-4.36-5.7,0-.65-.16-.87-.79-1.12-.82-.3-1.42-1.36-1.8-3.05-.08-.46-.44-1.25-.79-1.77-.33-.52-.82-1.5-1.09-2.18s-.98-2.05-1.58-3.08c-.65-1.12-1.25-2.51-1.45-3.55-.19-.93-.52-2.1-.71-2.59-.35-.85-.33-.93.44-1.55.44-.35,1.04-.68,1.34-.68.55,0,2.15,1.55,4.8,4.61.82.95,1.64,1.88,1.77,2.05.16.16.71.85,1.23,1.53.52.68,1.01,1.28,1.09,1.36.38.33,1.06,2.73,1.25,4.34.16,1.53.35,1.96,1.53,3.52,1.58,2.07,1.72,2.37,1.96,4.53.11.87.35,2.07.57,2.65.19.57.3,1.12.19,1.2-.38.38-2.7.08-3.6-.49v-.03Z" fill="#d9d9d9"/>
      <path id="path1062" d="M156.086,307.186c-.25-.08-5.86-1.83-10.23-3.19-1.5-.46-17.43-6.44-24-9-1.12-.44-2.4-.93-2.86-1.09-1.04-.38-1.23-.65-1.23-1.91,0-.71-.19-1.17-.57-1.5-1.58-1.31-2.15-1.96-2.15-2.48,0-.33-.11-.57-.25-.57-.65,0-1.61-1.45-1.77-2.7-.27-2.05-1.17-3.82-2.78-5.45-1.45-1.47-1.45-1.5-1.31-2.81.14-1.06.08-1.31-.25-1.31-.22,0-.46-.11-.52-.22-.05-.11-.68-.55-1.39-.95s-1.31-.9-1.31-1.09-.08-.57-.14-.87c-.16-.74-.16-1.23-.14-4.15.03-2.45.05-2.54.87-3.22.76-.65.82-.76.52-1.55-.16-.46-.3-1.34-.3-1.94,0-.82-.27-1.45-1.09-2.65-.93-1.31-1.06-1.72-.95-2.51.08-.52.41-1.15.71-1.39.63-.52.57-.95-.38-2.81-.46-.93-.55-1.61-.55-4.64,0-3.41.03-3.55.71-4.23.38-.38,1.34-.93,2.15-1.23,1.96-.74,3.52-2.13,3.52-3.16,0-1.09.6-2.37,1.61-3.49.76-.85.85-1.12.85-2.62s-.08-1.75-.82-2.4c-.93-.85-2.56-3.93-3.03-5.7-.27-1.06-.22-1.64.44-4.28.65-2.7.71-3.25.44-4.61-.16-.85-.35-2.7-.46-4.15-.08-1.42-.22-2.84-.27-3.16-.05-.33-.19-1.06-.27-1.64-.08-.58-.52-2.59-.95-4.47s-.87-3.68-.95-4.01c-.08-.38-.52-.76-1.15-1.04-1.91-.79-2.15-.79-2.7.11-.35.6-.93.98-2.15,1.42-.9.33-2.13.82-2.73,1.12-.6.27-1.09.52-1.15.52-.03,0,.05-.41.16-.9.38-1.36.14-4.64-.41-5.45-.57-.85-.49-3.38.11-3.27.19.05,2.95,1.77,6.14,3.85,8.64,5.64,18.08,11.4,22.66,13.8,2.26,1.17,4.2,2.21,4.36,2.32.74.52,9.16,4.77,12.27,6.22,1.96.9,6.19,2.65,9.41,3.87,3.22,1.25,5.97,2.35,6.08,2.45.11.1.08.49-.05.85-.16.35-1.58,4.28-3.16,8.7s-3.35,9.33-3.95,10.91c-6.3,17.18-7.64,21.08-7.64,22.44,0,.82-.16,1.66-.41,1.99-.6.85-.25,2.02.76,2.67,1.28.82,2.92,3.87,3.11,5.78.11,1.04.41,1.96.93,2.78.44.68.76,1.34.76,1.5,0,.14.3.57.65.98.35.38.79,1.28.98,1.99s.46,1.36.6,1.45c.35.22,1.47,2.56,1.72,3.52.11.46,1.06,2.59,2.13,4.75,1.12,2.26,1.94,4.28,1.94,4.77,0,.46-.22,1.99-.46,3.41-.49,2.65-.41,3.76.3,4.88.49.68.46.9,0,.76h-.01Z" fill="#d9d9d9"/>
      <path id="path1064" d="M93.556,255.726c-1.12-2.56-1.53-5.62-1.34-9.98.11-2.54.27-4.06.52-4.34.19-.22.35-.63.35-.85,0-.71,1.17-.68,2.26.05,1.31.87,3.05,2.62,3.05,3.03,0,.19-1.09,1.47-2.45,2.89-2.86,3-2.92,3.14-1.77,7.23.38,1.34.68,2.67.68,2.92,0,.95-.71.44-1.31-.95h.01Z" fill="#d9d9d9"/>
    </g>
    <path id="CA-MB" d="M223.636,239.666l-.19,1.72c-.11.95-.25,1.91-.27,2.13-.02.22-.16,1.09-.27,1.91s-.25,1.69-.27,1.91c-.02.22-.27,1.99-.55,3.93-.44,3.33-.44,3.57,0,4.31.46.76.44.79-.3,1.75-.44.55-.9,1.17-1.09,1.42-.16.25-.41,2.05-.49,3.98s-.22,4.04-.27,4.64c-.05.6-.16,2.18-.27,3.55s-.22,3.19-.3,4.09c-.27,3.74-.41,5.29-.55,7.36-.08,1.2-.22,2.81-.27,3.55-.05.74-.19,2.59-.27,4.09s-.22,3.22-.27,3.82c-.05.6-.16,2.37-.27,3.95-.11,1.58-.22,3.3-.27,3.82-.05.52-.16,2.37-.27,4.09-.11,1.72-.22,3.33-.27,3.55-.14.74-.52,6.93-.52,8.73l-.03,1.77,1.64.16c2.62.27,5.13.55,5.86.65.38.05,1.36.16,2.18.27,1.58.16,2.48.27,4.91.57.82.11,2.67.27,4.09.35,1.42.08,3.85.22,5.37.25l2.75.08.16-1.31c.08-.71.22-2.78.3-4.58s.19-4.15.27-5.18c.05-1.04.19-3.76.27-6,.3-7.8.38-8.59,1.04-9.68.33-.55,2.26-2.78,4.31-4.94s4.25-4.53,4.91-5.26,1.34-1.5,1.47-1.66c2.62-2.95,3.9-4.42,5.29-6.11.93-1.12,2.56-2.97,3.6-4.12s2.32-2.56,2.81-3.14c.52-.57,1.55-1.72,2.32-2.56s1.39-1.64,1.39-1.8c0-.3-1.42-.9-2.67-1.09-1.88-.3-2.4-.49-2.73-.93-.27-.38-.71-.46-1.99-.44-.9.03-1.75.16-1.85.35-.22.33-3.38.74-3.98.49-.27-.11-.33-.33-.19-.74.22-.57.16-.9-.6-4.58-.55-2.62-.71-3.41-.9-4.91-.22-1.72-.93-2.24-3.76-2.84-1.83-.38-2.45-.63-2.67-1.06-.33-.63-.33-2.78.03-5.7l.22-1.85-1.45-.03c-.79-.03-1.55-.05-1.66-.08-.11-.03-1.12-.14-2.26-.27-1.14-.13-2.24-.25-2.45-.3-.22-.03-1.25-.16-2.29-.27-1.04-.11-2.15-.25-2.45-.3-.3-.05-1.31-.16-2.21-.25-.9-.09-2.62-.27-3.82-.41s-2.92-.33-3.82-.41c-.9-.08-2.21-.22-2.92-.33l-1.23-.11h-.03ZM231.436,286.546c1.06,0,1.75.49,2.29,1.55.33.63.65,1.17.76,1.25.52.35,1.75,3.68,1.53,4.04-.14.25.35,1.75.87,2.7.19.33.3,1.25.27,2.05-.05,1.53.85,4.85,1.72,6.33.35.6.49,1.55.57,3.41.08,2.56.05,2.59-.57,2.67-.35.05-.87.38-1.17.76-.6.76-1.09.82-1.66.27-.46-.46-.33-2.43.25-3.27.19-.3.44-.9.49-1.34.08-.44.3-.95.49-1.17.55-.65.52-1.31-.05-1.66-.44-.27-.57-.25-.87.22-.38.6-1.04.74-1.04.22,0-.16.14-.71.33-1.17.74-2.02-.46-3.79-2.18-3.19-.71.25-.9.19-1.36-.3-.3-.33-.71-1.17-.95-1.88-.24-.71-.74-1.69-1.09-2.18-.46-.63-.63-1.15-.55-1.72.11-.74,0-.87-1.2-1.53-1.77-.93-2.48-.65-2.54.95-.03.63-.08,1.72-.14,2.48-.25,3.74-.25,3.76.87,4.64,2.4,1.91,2.59,2.15,2.97,3.82.22.9.38,2.07.35,2.62,0,.55.33,1.61.71,2.37.9,1.8.95,3.19.08,3.44-.9.25-1.25.22-1.45-.14-.19-.3-.93-3.76-1.47-6.76-.3-1.69-.71-2.21-2.59-3.44-1.5-.98-2.24-1.75-2.15-2.26.03-.19.05-.57.08-.87.03-.3.19-.68.41-.9.25-.25.35-1.01.35-2.18,0-1.2-.347-2-1.04-2.4-1.17-.65-1.58-1.28-1.58-2.32,0-.57.14-.71.68-.71,1.01,0,1.36-.87.68-1.72-.3-.38-.55-.82-.55-.98,0-.35,1.28-.93,2.02-.9.65.03,2.07,1.36,2.07,1.96,0,.25.27.71.63,1.04l.63.6.35-.98c.6-1.69,1.72-3.08,2.62-3.3.38-.05.76-.11,1.12-.11l.01-.01Z" fill="#d9d9d9"/>
    <path id="CA-NB" d="M380.826,335.246c-.63-.16-1.36-1.01-1.83-2.05-.16-.41-.6-.82-.93-.9-1.12-.27-2.86-4.83-2.86-7.47,0-.9-.16-1.36-.63-1.8-1.06-1.01-2.48-1.75-3.38-1.75h-.87l-.11-1.72c-.05-.93-.05-1.8,0-1.91s.85-.22,1.8-.22c2.02-.03,3.11-.38,4.25-1.42.52-.46,1.61-.95,2.86-1.31,1.88-.52,2.1-.52,3.05-.14.98.41,1.04.41,1.55-.16,1.12-1.2,4.28-2.13,4.28-1.28,0,.19-.19.65-.41,1.04-.57,1.01-.52,3.33.11,4.12.27.35.6,1.06.71,1.55.11.55.68,1.36,1.47,2.13,1.23,1.17,1.34,1.2,2.92,1.2.93,0,1.75.08,1.83.16.08.08-.46.79-1.2,1.58-.74.76-1.66,2.07-2.05,2.86-.98,2.05-4.39,5.51-5.43,5.51-.6,0-.87.19-1.12.76-.55,1.09-2.32,1.64-4.04,1.2l.03.02Z" fill="#d9d9d9"/>
    <g id="CA-NL">
      <path id="path1069" d="M411.226,305.276c-.76-.95-.74-2.13.05-3.19.85-1.15.93-2.54.19-2.78-.71-.22-.68-.79.03-1.96.52-.85.57-1.17.41-3.3-.27-3.82-.19-8.29.25-12.74.03-.3.14-1.53.27-2.73.25-2.51.74-3.44,2.7-4.94,1.06-.82,1.36-.93,1.69-.63,1.01.85,1.23,1.83,1.12,5.15-.05,1.77-.19,3.33-.27,3.46s-.22.98-.33,1.88l-.16,1.64.68-.82c.38-.46.71-.9.71-1.01.03-.41,1.15-.52,2.05-.19,1.01.35,1.04.41.95,1.8l-.05.9h1.36c.76,0,1.45-.11,1.53-.25s.74-.41,1.45-.6c.71-.19,1.91-.65,2.67-.98,1.36-.63,2.59-.65,3.71-.05.6.3.87,1.77.44,2.43-.27.44-.25.63.22,1.06.46.46.74.52,1.91.33,1.75-.27,2.02-.16,2.02.74,0,.76-.57,1.77-1.45,2.56-.3.27-.38.49-.22.49s.33.41.33.93.08,1.12.16,1.36c.19.49.65.57.65.11,0-.52,1.36-2.13,1.77-2.13.22,0,.52.49.71,1.09.38,1.25.74,1.34,1.88.49.44-.33.9-.49,1.01-.38.11.11.25,1.04.27,2.02.03,1.01.08,2.26.11,2.84.05,1.47-1.04,3.05-2.18,3.16-.68.05-.93-.08-1.17-.63-.38-.87-.57-.87-1.04,0-.74,1.39-1.34.52-1.66-2.37-.25-2.13-.55-2.95-1.09-2.95-.14,0-.25.44-.25,1.01,0,.82-.22,1.2-1.06,2.02-.98.93-1.09,1.2-1.34,3-.35,2.65-1.01,3.35-3.16,3.41-1.85.05-1.99-.38-.55-1.75.79-.74.95-1.09.95-1.99,0-1.01-.03-1.06-.57-.76-1.04.55-2.21.79-2.54.52-.33-.27-.79-.05-3.55,1.58-.82.49-1.85.95-2.26,1.04-.41.05-1.17.19-1.69.27s-2.18.65-3.68,1.25-2.89,1.15-3.05,1.23c-.22.03-.6-.25-.93-.65v.01Z" fill="#d9d9d9"/>
      <path id="path1071" d="M377.336,285.676c-.05-.05-.55-.14-1.12-.22s-1.28-.35-1.55-.6c-.41-.38-.85-.44-2.1-.33-1.99.16-2.21.08-2.4-.95-.33-1.75-.35-1.96-.38-2.29,0-.16-.22-.52-.44-.74-.38-.38-.52-.35-1.31.11-.49.3-1.15.55-1.45.55-.68,0-1.64-.95-1.23-1.23.3-.19.38-1.83.14-2.78-.11-.35-.57-.76-1.28-1.04-2.02-.79-4.12-4.06-3.44-5.34.16-.3.41-.55.55-.55.27,0,.76-1.04.9-1.99.05-.3.35-.74.65-.98.33-.25.71-.76.85-1.17.25-.68.33-.71,1.45-.46.65.14,1.47.46,1.85.74.95.65,1.96.46,2.59-.52.52-.79.6-.82,1.91-.63.76.11,1.58.19,1.85.16.38-.03.46.16.38.93-.05.52-.16.98-.22,1.01-1.2.82-2.15,1.64-2.26,2.02-.08.27-.52.74-.98,1.04-.95.63-1.01.95-.27,1.64.65.6,2.26.38,2.81-.35.63-.9,2.02-1.39,3-1.09,1.28.38,2.26-.08,2.84-1.34.49-1.06.55-2.48.11-2.89-.14-.14-.49,0-.82.33-.35.35-.93.57-1.5.57-2.05,0-2.24-.55-.98-2.92.46-.85.82-1.8.82-2.15,0-.82-.9-2.89-1.47-3.35-.25-.19-.44-.57-.44-.82,0-.76-1.36-3.14-2.24-3.9-.57-.52-.9-1.09-1.04-1.91-.11-.65-.35-1.96-.52-2.95-.17-.99-.33-2.56-.33-3.55-.03-2.05-.52-3.16-1.55-3.38-.38-.08-1.12-.41-1.58-.71-.98-.63-1.15-1.42-.46-2.4.27-.41.33-.79.16-1.23-.25-.65-.25-.9.08-2.37.22-.93.05-.98-2.43-.9-.6.03-1.01-.03-.93-.11.08-.08-.05-1.04-.33-2.13-.35-1.55-.57-1.99-.98-2.05-.3-.05-.65-.3-.82-.57-.38-.63-1.5-4.72-1.34-4.88.27-.27,3.46,2.54,4.55,4.04.65.9,1.39,1.61,1.64,1.61s.71.35,1.04.79c.3.44.98,1.06,1.47,1.36.6.38,1.12,1.04,1.5,1.94.38.87.76,1.36,1.06,1.36.25,0,.74.41,1.06.93.46.71.85.95,1.69,1.09.95.16,1.2.33,1.72,1.34.33.63.68,1.64.76,2.24.14,1.01.25,1.09,1.42,1.45.68.19,1.47.57,1.72.87.44.46.44.63.05,1.85-.33,1.12-.33,1.45-.03,1.99.19.35.44.98.52,1.34.14.6.55.82,3.08,1.72,1.61.57,3.16,1.04,3.44,1.04s.95.52,1.53,1.12l1.04,1.12,2.43.11c1.34.05,2.89.3,3.46.52,1.06.41,1.72.25,2.56-.57.27-.27.76-.22,2.32.22,1.09.3,2.07.65,2.15.79.35.55-.11,1.55-.85,1.85-.41.16-1.42,1.06-2.21,1.96-.79.9-1.83,2.05-2.26,2.51-.43.46-1.39,1.47-2.1,2.21-1.31,1.39-1.91,3.03-1.2,3.27.57.22,3.38-2.73,3.57-3.76.11-.65.82-1.61,2.26-3.16,1.88-2.02,2.18-2.24,3.11-2.24.85,0,1.12.16,1.64.9.52.76.74.87,1.31.71,1.28-.35,2.65-.25,3.3.25.35.27,1.39.93,2.29,1.42s1.66.93,1.72.95-.08.38-.25.76c-.46,1.01.08,2.65,1.25,3.82.9.9,2.05,2.84,2.05,3.44,0,.44-1.85,3.3-2.81,4.28l-.82.87-1.12-1.42c-.6-.79-1.23-1.5-1.36-1.61-.13-.11-.71.03-1.23.3-.52.27-1.61.63-2.4.82s-2.32.68-3.41,1.09-3.33,1.28-4.99,1.91-3.57,1.39-4.31,1.66c-2.59,1.09-8.26,3.05-9.33,3.22-.87.16-1.39.05-2.62-.55-.85-.41-1.64-.65-1.8-.57-.16.11-.3.68-.33,1.28-.05,1.34-.33,3.79-.46,3.93-.19.3-1.5.44-1.61.33l.04-.03Z" fill="#d9d9d9"/>
    </g>
    <g id="CA-NS">
      <path id="path1074" d="M390.126,344.086c-1.58-.35-2.37-1.25-3.03-3.49-.33-1.12-.35-1.75-.19-2.24.41-1.06,2.21-3.71,3.38-5.02.57-.63,1.23-1.39,1.42-1.66s.68-.6,1.06-.68c.76-.19,3.14-1.8,3.14-2.13,0-.27-1.23.19-2.67,1.04-2.51,1.47-2.15-.93.6-4.06,1.23-1.39,1.5-1.58,2.35-1.55,2.59.08,5.51-.38,6.46-1.04.6-.41,1.15-.57,1.42-.46.25.11,1.01.22,1.69.25,1.45.05,2.56.68,3.03,1.69.3.63.19.82-1.45,2.43-.95.95-1.94,1.94-2.15,2.18-.98,1.04-3.38,2.86-3.93,3-.35.08-.95.71-1.42,1.5-.74,1.25-.87,1.34-1.64,1.23-.71-.11-.9,0-1.17.55-.16.38-.3.79-.3.95s-.38,1.17-.82,2.24c-.63,1.5-1.25,2.43-2.59,3.79-.98,1.01-1.8,1.8-1.83,1.8s-.65-.14-1.36-.3v-.02Z" fill="#d9d9d9"/>
      <path id="path1076" d="M408.476,323.356c-.22-.19-1.01-.98-1.75-1.77-.98-1.04-1.25-1.53-1.04-1.77.16-.19.65-1.47,1.12-2.86.93-2.81,1.83-4.69,2.21-4.69.49,0,1.09,1.23,1.12,2.18,0,1.55.27,2.13,1.04,2.32.95.25,2.24,1.47,2.24,2.15,0,.3-.38,1.15-.85,1.85-.63.95-1.01,1.31-1.47,1.31-.38,0-.85.3-1.23.82-.68.9-.79.95-1.39.46h0Z" fill="#d9d9d9"/>
    </g>
    <g id="CA-NT">
      <path id="path1079" d="M146.976,132.906c-.46,0-1.12.08-2.07.19-1.47.19-2.84.38-3.03.46-.27.11-.33.52-.22,1.45.16,1.53-.19,1.94-.85.95-.25-.38-.55-.68-.63-.68-.46,0-4.42,7.17-5.21,9.41-.46,1.36-1.04,2.73-1.25,3.05-.63.95-.46,1.23,1.31,2.45,3.82,2.59,3.93,2.86,2.35,6.08-.55,1.12-1.06,2.56-1.15,3.19-.11,1.06-.05,1.2.93,1.99.57.46,1.01.95.93,1.06s-.16.9-.19,1.77c-.05,1.69-.38,2.24-1.5,2.51-.76.19-1.2.85-1.2,1.85,0,.38-.11.71-.25.71s-.33.33-.41.71c-.14.52-.03.87.38,1.31.38.41.57.95.57,1.8,0,.71.27,1.77.65,2.56.46.93.6,1.64.52,2.24-.11.6.03,1.25.41,1.96.55,1.06.55,1.09.08,2.7-.65,2.15-1.31,5.75-1.5,8.13-.08,1.04-.22,2.15-.3,2.45-.11.35.05.79.44,1.23.74.85,1.17,1.88,1.61,3.82.41,1.75.93,2.89,1.72,3.76l.57.63-.6.63c-.38.41-.6.98-.6,1.66,0,.57-.14,1.25-.3,1.55-.25.49-.11.63,1.45,1.31.95.44,2.18,1.12,2.78,1.5.82.57,1.23.68,1.99.55,1.09-.22,1.04-.49,1.04,3.93l.03,3.35,3,1.2c9.74,3.93,21.22,7.85,32.32,11.02,3.22.93,7.64,2.21,9.82,2.86,2.18.65,4.31,1.25,4.77,1.34s2.67.52,4.91.98c2.24.46,4.42.9,4.85.95.41.08,2.02.38,3.55.68,1.53.3,3.16.6,3.63.68.47.08,2.54.49,4.64.93,4.31.87,5.84,1.01,5.89.49,0-.19.05-.57.11-.85s.16-1.58.27-2.86.22-2.67.27-3.03.16-1.47.25-2.45c.25-2.78.68-7.23.82-8.59.05-.46.16-1.91.27-3.27s.22-2.65.27-2.86.16-1.45.27-2.73c.08-1.28.3-3.33.44-4.58s.19-2.37.11-2.51-1.88-1.15-4.04-2.26c-4.53-2.37-9.16-4.83-12.6-6.65l-2.43-1.31-1.69-2.73-1.69-2.73-3.08-.65-3.08-.65-2.65-3.57c-1.45-1.96-3.74-5.1-5.1-6.98-1.34-1.88-4.01-5.54-5.92-8.13-1.91-2.59-3.65-5.02-3.9-5.37-.38-.6-.35-.82.55-3.19,3.35-8.89,3.35-8.84,1.66-11.07-.52-.68-.93-1.34-.93-1.45s-.14-.22-.3-.22-.63-.22-1.04-.52c-.41-.27-1.23-.57-1.83-.63-.93-.11-1.25,0-2.21.79-.98.79-1.23.87-1.85.63-.9-.35-.9-.55.08-1.5.44-.44.74-.9.63-1.06-.11-.16-.19-.93-.19-1.72,0-2.37-.38-2.37-2.75,0-1.15,1.15-2.15,2.1-2.21,2.1-.19,0-1.04-.9-1.06-1.15-.03-.14-.05-1.8-.08-3.74-.03-3.46-.05-3.49-.74-3.82-.98-.44-1.42-.41-2.24.25-.52.41-1.04.55-2.02.49-.87-.03-1.23-.16-1.06-.35.14-.16.3-.63.35-1.06.14-.68,0-.82-1.12-1.39-1.25-.63-3.25-.76-4.94-.35-.38.08-1.96.25-3.55.33-2.07.11-2.92.27-3.08.57-.11.22-.6.38-1.04.38-.76,0-.79-.05-.79-1.17.03-1.31-.03-1.75-1.04-1.75l.02.01ZM169.556,171.106c7.09.03,7.66.14,7.66,1.25,0,.27-.57.98-1.31,1.58-.87.74-1.2,1.2-1.04,1.36.33.33,4.09,1.85,5.94,2.4,1.28.38,1.31.41,1.12,1.28-.19.93-.6,1.55-.98,1.55-.14,0-.74.33-1.31.71l-1.06.71-1.58-.74c-.87-.41-1.83-.85-2.1-1.01-.68-.35-1.06.08-1.66,1.88-.55,1.69-.65,1.8-2.81,2.51-.93.33-1.83.57-1.99.57-.52,0-.3-.79.49-1.69,1.61-1.88,1.58-1.85.65-1.85-.49,0-1.17.27-1.66.71-1.34,1.12-2.37,1.31-3.6.6-.57-.33-1.17-.9-1.36-1.28-.3-.63-.19-.79,1.61-2.51,1.06-1.01,2.48-2.1,3.14-2.4.66-.3,1.25-.79,1.34-1.06.22-.79-.87-1.64-2.13-1.66-.6,0-1.85-.3-2.81-.63-1.45-.49-1.77-.71-1.85-1.25-.05-.35.03-.74.19-.85.22-.14,3.41-.19,7.12-.19l-.01.01ZM178.836,206.176c.11,0,.6.57,1.12,1.25.52.68,1.34,1.64,1.85,2.13,1.47,1.31,2.54,2.54,3.22,3.65.55.9.82,1.06,2.43,1.47,1.69.44,1.91.44,3.41,0,1.06-.3,1.8-.71,2.18-1.2.82-1.06,1.85-1.5,3.57-1.61.98-.053,1.453.173,1.42.68-.08,1.09-1.15,2.32-2.35,2.65-.57.16-1.55.79-2.18,1.42-.63.63-1.96,1.47-2.95,1.91-.99.44-2.24,1.06-2.81,1.36-.6.33-1.34.49-1.72.41-.49-.08-.95.08-1.55.63-.46.41-1.34.95-1.91,1.2s-1.39.41-1.77.38c-5.05-.46-5.51-.63-7.91-2.86-2.18-2.02-2.15-2.54.11-2.54.85,0,1.77.14,2.05.27.63.33,1.36.03,2.51-1.06.6-.57.98-.68,1.85-.63,1.25.08,1.88-.3,1.88-1.17,0-.82-1.12-4.01-2.1-6.03-.71-1.55-.85-2.32-.35-2.32v.01Z" fill="#d9d9d9"/>
      <path id="path1081" d="M207.906,153.816c-1.96-.57-5.02-1.47-6.82-2.02s-4.25-1.25-5.45-1.58c-2.05-.57-2.13-.63-1.23-.76.52-.08,2.29-.11,3.95-.03,2.43.11,3.25.25,4.25.74,1.25.63,4.58,1.61,4.77,1.42.05-.05-.63-.82-1.53-1.66-1.69-1.64-3.03-2.35-4.31-2.35-.98,0-5.26-1.12-7.01-1.83-1.25-.52-1.36-.63-1.83-2.15-.27-.9-.52-1.77-.52-1.94,0-.3,1.28-.74,4.91-1.75l1.23-.33-.95-.22c-.52-.11-1.31-.25-1.72-.3-.82-.08-1.72-1.31-1.45-2.02.08-.22,0-.46-.19-.6-.19-.11-.55-.55-.82-.98-.65-1.01-.41-2.02.76-3.25,1.09-1.15,1.5-1.88,1.5-2.59,0-1.39,4.04-3.6,8.07-4.42,1.47-.3,3.25-.63,3.95-.71,1.23-.16,1.28-.14,1.55.65.33.98.03,2.54-.79,4.15-.33.6-.52,1.17-.41,1.28.08.08.71-.3,1.39-.85l1.23-1.01,1.69.98c.93.55,1.99,1.23,2.37,1.53l.65.57-.55,1.31-.55,1.31,1.12-.25c.63-.14,1.2-.33,1.31-.44s0-.71-.22-1.36-.35-1.2-.33-1.25c1.15-.74,1.58-.93,1.69-.76.14.25-5.78,24.11-6.05,24.38-.08.03-1.75-.35-3.71-.93l.05.02Z" fill="#d9d9d9"/>
      <path id="path1083" d="M180.936,136.066c-.08-.19-.25-1.42-.41-2.73-.25-2.15-.41-2.56-1.8-4.88-.85-1.39-1.5-2.67-1.5-2.84,0-.44.82-1.34,1.64-1.85.38-.25,1.36-1.53,2.18-2.84.82-1.34,1.72-2.67,2.02-2.97.27-.3,1.42-1.75,2.54-3.22,1.94-2.56,2.02-2.75,2.05-4.23.03-.85,0-1.72-.03-1.91-.05-.49.76-1.39,1.17-1.25.16.05.76.16,1.34.22.55.05,1.66.38,2.45.68s1.96.71,2.59.85c.93.22,1.2.44,1.45,1.17.16.49.95,1.55,1.77,2.37,1.47,1.47,1.47,1.5,3.05,1.45,2.24-.05,2.54.27,3.79,4.17,1.61,4.96,1.39,5.45-2.73,6.46-1.91.46-3.79,1.28-4.25,1.85-.08.08-.52.33-.98.49-.46.19-1.15.6-1.5.93s-1.5,1.23-2.51,1.96c-1.47,1.09-2.02,1.75-2.81,3.19-.55,1.01-1.25,1.99-1.58,2.15s-.6.27-.6.25c0-.08-.33-.03-2.32.44-.38.08-1.64.22-2.78.3-1.64.11-2.15.05-2.24-.22v.01Z" fill="#d9d9d9"/>
      <path id="path1085" d="M212.566,115.616c-.68-.76-1.25-1.61-1.25-1.88,0-.68,1.06-1.34,2.78-1.69,2.75-.57,3.57-1.47,1.34-1.47-.9,0-1.25-.14-1.66-.68-.49-.65-.52-.65-1.04-.19-.65.57-2.21.76-2.97.35-.79-.44-3.33-3.46-3.52-4.2-.19-.68.52-1.69,1.17-1.69.19,0,.38-.08.38-.22.08-.85.3-1.31.93-1.96.38-.41.71-.98.71-1.28,0-.74,1.55-2.56,2.18-2.56.27,0,.68-.3.95-.68.38-.57.65-.68,1.77-.68,1.75,0,2.75.76,2.75,2.07,0,.76.16,1.04,1.04,1.61,1.39.93,2.05,2.32,2.1,4.47.05,1.91.44,2.48,1.75,2.48s1.36.19.46,3.87c-.63,2.54-.95,3.49-1.25,3.49-.22,0-1.12.49-1.96,1.09-1.45,1.01-1.69,1.09-3.46,1.09h-1.91l-1.28-1.34h-.01Z" fill="#d9d9d9"/>
      <path id="path1087" d="M204.166,103.446c-.27-.05-.6-.57-.74-1.12-.38-1.36.19-2.1,2.29-2.95,1.83-.74,2.43-.82,2.81-.33.49.63.25,1.34-.71,2.07-.52.41-1.39,1.12-1.91,1.61s-1.04.87-1.12.85c-.11,0-.38-.05-.63-.14l.01.01Z" fill="#d9d9d9"/>
      <path id="path1089" d="M201.656,98.846c-.25-.25-.44-.74-.44-1.09,0-.63-.08-.65-1.5-.65-2.43,0-3.22-1.2-1.99-3,.44-.65.95-.98,1.85-1.23.68-.16,1.83-.65,2.54-1.04.71-.41,1.42-.65,1.53-.6.14.08,1.12-.68,2.18-1.69,2.51-2.35,2.92-2.56,4.99-2.51.93.03,1.99-.03,2.37-.08.82-.14,2.05.41,2.29,1.04.52,1.36-.05,2.89-1.36,3.63-.3.16-.49.74-.57,1.64-.14,1.31-.22,1.45-1.31,2.1-.65.38-1.31.93-1.47,1.23-.35.68-1.28.95-1.8.55-.6-.49-.52-2.35.14-2.92.3-.25.55-.57.55-.68,0-.33-1.01.55-3.71,3.27-2.59,2.59-3.38,2.97-4.28,2.05l-.01-.02Z" fill="#d9d9d9"/>
      <path id="path1091" d="M222.846,91.366c-.87-.38-1.2-.74-1.69-1.91-.33-.79-.6-1.61-.6-1.8s-.25-.52-.57-.71c-1.47-.9-2.1-3.49-.85-3.49.55,0,1.39.82,1.39,1.34,0,.25.25.3.9.16,1.15-.25,5.89-.49,6.35-.3.27.11.3.41.08,1.31-.14.65-.33,1.42-.38,1.72-.41,2.07-.76,3.16-1.23,3.55-.65.65-2.13.71-3.41.14l.01-.01Z" fill="#d9d9d9"/>
      <path id="path1093" d="M227.676,83.486c0-.14-.35-.38-.79-.57-.44-.19-1.01-.57-1.28-.87-.35-.38-.68-.49-1.23-.38-.41.08-.82.03-.93-.11-.41-.68,1.64-2.48,2.35-2.05.14.08.44.03.65-.16.35-.27,2.43-.25,2.7.05.25.27-.85,4.31-1.15,4.31-.16.03-.33-.08-.33-.22h.01Z" fill="#d9d9d9"/>
    </g>
    <g id="CA-NU">
      <path id="path1096" d="M228.896,169.666c-1.34-.33-3.35-1.47-4.8-2.78-.44-.38-1.28-.93-1.88-1.2s-1.12-.65-1.12-.87c-.03-.19-.05-.52-.08-.71-.05-.6-1.2-.57-1.39.05-.25.82-1.64,1.42-3.52,1.58-.9.08-1.8.3-1.99.49-.82.82-2.29,1.01-6.19.82-5.78-.27-7.53-.57-7.55-1.31,0-.19-.05-.85-.14-1.45-.05-.6-.16-1.83-.25-2.7-.14-1.85-.63-2.51-2.07-2.75-1.64-.27-4.91-2.59-4.91-3.44,0-.14-.03-.33-.05-.44s-.27-1.2-.55-2.4-.49-2.26-.49-2.37c0-.22.05-.19,11.81,3.3,4.64,1.36,8.45,2.45,8.51,2.4s1.45-5.56,3.11-12.22c1.66-6.68,3.08-12.3,3.16-12.54.08-.22.63.82,1.23,2.32,1.06,2.65,1.09,2.81.98,5.37-.14,3.11.16,3.95,1.09,3.03.46-.46.55-.85.46-2.56-.05-1.12-.14-3.55-.22-5.4l-.14-3.38.87-.9c.82-.85.93-.9,1.94-.65.63.14,1.34.57,1.72,1.01.42.493.493.51.22.05-.25-.38-.55-1.09-.65-1.53-.33-1.15.55-2.15,2.15-2.45,1.45-.27,2.54.22,3.65,1.69,1.04,1.34.76,2.48-1.12,4.8l-1.5,1.85.05,3.41c.08,3.82.33,6.08.87,7.66.33.98.3,1.2-.3,2.54-.46,1.06-.6,1.72-.49,2.43.25,1.5,1.96,3.74,4.47,5.84,2.89,2.4,3.9,4.25,3.3,5.97-.27.82-.3.82-1.83.65-.85-.08-1.66-.27-1.8-.41s-.41-.25-.57-.25c-.71,0-.6.9.3,2.32,1.5,2.35,1.2,3.82-1.01,4.85-.98.55-1.91.6-3.3.27l.02.01Z" fill="#d9d9d9"/>
      <path id="path1098" d="M304.876,293.226c-1.39-.57-1.66-.76-1.66-1.34,0-.74.14-.82,2.02-1.04,1.25-.14,1.39-.08,2.13.74,1.01,1.12.95,2.21-.11,2.26-.38.03-1.45-.25-2.37-.63l-.01.01Z" fill="#d9d9d9"/>
      <path id="path1100" d="M247.826,241.516c-.05-.05-1.09-.19-2.29-.3s-2.24-.22-2.32-.27-1.12-.16-2.32-.27c-1.2-.11-2.24-.22-2.32-.27s-.93-.16-1.91-.25c-.98-.09-2.32-.25-3-.33-2.56-.3-3.49-.38-6.54-.68-3.16-.3-3.65-.41-3.44-.76.05-.11.19-1.36.3-2.78s.22-2.78.27-3,.16-1.45.25-2.73.22-2.62.3-3c.05-.38.19-1.55.27-2.59.19-2.29.38-4.47.55-6.14.08-.68.19-1.85.25-2.59.44-4.91.55-6.08.85-8.73.11-.9.19-1.91.22-2.26.03-.52-.33-.82-2.13-1.77-2.75-1.47-7.83-4.15-11.86-6.27-1.72-.9-3.63-1.91-4.23-2.24-1.06-.57-1.61-1.28-3.71-4.66l-.98-1.58-3.11-.65-3.11-.65-1.53-2.07c-.85-1.15-4.01-5.51-7.06-9.71-3.05-4.2-6.27-8.62-7.14-9.79-.87-1.2-1.58-2.29-1.58-2.45,0-.27,3.52-9.98,3.71-10.2.33-.41,2.97,1.99,4.04,3.65.74,1.12,2.73,2.81,4.01,3.41.55.25.85.25,1.31,0,.52-.27.76-.19,1.8.65.65.55,1.42,1.31,1.72,1.72.65.93,1.69,3.27,1.69,3.79,0,.71-.71,1.12-2.18,1.31-1.47.19-2.73.79-2.73,1.31,0,.16.27.68.6,1.17.52.74,1.01,1.01,3.35,1.72,4.31,1.31,5.13,1.45,7.12,1.12.95-.16,2.07-.44,2.48-.6.65-.3.76-.27,1.17.33.25.35,1.17,1.64,2.07,2.81,2.13,2.78,2.84,4.17,2.67,5.21-.08.63-.05.74.16.44.16-.25.22-1.47.11-3.19l-.16-2.78,2.89-1.45c1.66-.82,2.92-1.64,3-1.91.11-.44.05-.44-1.01,0-.63.27-1.77.65-2.56.85-1.34.33-1.47.33-2.18-.19-1.85-1.36-.3-3.98,2.48-4.17.57-.03,1.69-.27,2.45-.52s1.75-.41,2.15-.35c.9.11,1.64,1.12,1.72,2.35.03.46.25,1.28.52,1.77.68,1.31,2.75,3.3,3.49,3.35.35.03.74.05.9.08.16.03.41.08.57.11s.82.82,1.45,1.77l1.12,1.75,1.66.16c.93.11,2.48.16,3.46.16s2.67.25,3.71.55c1.04.3,1.91.55,1.91.55,0,0,.03-.44.05-.98s.25-1.47.49-2.05.44-1.39.44-1.77c0-.68.03-.71,1.25-.55,1.55.22,3.25.79,5.1,1.72.79.38,1.47.76,1.53.79.08.05-.93,3.79-1.47,5.51-.05.19.19.46.52.6.35.14.79.65.98,1.15l.35.9.19-.82c.11-.52.03-1.12-.22-1.64-.25-.49-.41-1.58-.44-2.67,0-1.96.27-2.43,1.25-2.18s2.89-.71,3.76-1.91c.68-.93.82-1.39.82-2.67,0-1.2-.11-1.66-.55-2.05-.63-.57-.76-2.54-.22-3.08.46-.46-1.2-1.99-2.75-2.48-.93-.3-1.36-.68-2.13-1.88-.82-1.28-.95-1.72-.95-3.08,0-.87.14-1.83.3-2.13.22-.41.14-.9-.44-2.24l-.74-1.69.52-1.53c.44-1.28.71-1.64,1.66-2.15,1.06-.57,1.12-.68.85-1.28-.25-.55-.16-.79.63-1.77,2.13-2.65,1.94-2.48,2.92-2.29.63.14,1.01.41,1.23.93.16.41.76,1.15,1.34,1.64,1.85,1.64,2.13,2.21,2.24,4.85.08,2.32.14,2.45,1.5,4.72,1.69,2.84,1.88,4.36.46,3.82-.55-.22-.6-.16-.49.6.05.46-.05,1.31-.25,1.91-.33,1.04-.33,1.12.25,1.58.49.41.76.44,1.61.22,1.04-.3,1.96-.11,4.04.76.87.35.95.49.63.79-.22.19-.93.44-1.61.55-1.91.27-2.07.71-.79,2.56,1.01,1.47,1.23,2.21,1.34,4.39.05,1.17.49.05.68-1.77.33-2.84.68-3.71,1.77-4.15l.95-.41,1.83,2.02c1.28,1.39,1.91,2.35,2.13,3.14.44,1.72.35,2.75-.25,3.35-.3.3-.55.9-.55,1.34,0,.79.49,2.54.79,2.75.08.08.57.79,1.06,1.58.49.79.98,1.45,1.09,1.45.41,0,1.45-.93,1.66-1.5.14-.33.3-1.34.41-2.21.08-.87.33-1.96.55-2.43.22-.47.63-1.69.93-2.75s.93-2.48,1.36-3.14c.98-1.45,1.04-2.05.25-2.89-.65-.68-1.45-3.95-1.17-4.85.35-1.17.93-1.53,2.48-1.53,1.09,0,1.83.19,3,.82.85.44,1.77.82,2.07.82s.93.41,1.42.93c.49.52,1.42,1.2,2.05,1.53,1.15.57,2.15,1.53,2.18,2.02,0,.14-.19.38-.44.57-.41.3-.41.38.11,1.12.33.44.65,1.23.74,1.77.16.93.11,1.01-.65,1.28-.46.16-.95.55-1.12.85-.17.3-.55.57-.85.57-.74,0-.68.52.14,1.47.38.44.76,1.2.85,1.69.11.6.46,1.12,1.06,1.5,1.94,1.34,1.94,4.06,0,7.36-2.29,3.9-2.45,4.09-3.63,3.95-.57-.05-1.36-.33-1.77-.57l-.71-.46.44,1.04c.46,1.15.19,1.64-.82,1.31s-1.42-.3-1.83.08c-.38.33-.57.33-1.36,0-.52-.22-1.12-.65-1.34-.98-.35-.49-.57-.55-1.5-.41-.6.11-1.31.3-1.58.44-.44.22-.38.35.49,1.17.93.87.98,1.01.79,2.07-.14.82-.6,1.64-1.66,2.86-.79.95-1.53,2.05-1.64,2.4-.08.38-.3.68-.49.68-.16,0,.03.27.46.63.65.52.76.79.68,1.69-.05.6-.27,1.39-.52,1.77s-.68,1.04-.98,1.5c-.3.46-1.09,1.77-1.75,2.92-1.39,2.4-1.83,2.67-4.47,2.67-1.96,0-2.51.38-2.65,1.91-.08.93-.11.95-1.31.93-.68,0-1.55-.08-1.96-.19-1.09-.25-1.17.22-.14.9.49.33.93.65.98.68.27.22.33,2.37.05,3.19-.35,1.09-1.36,1.61-3.27,1.69-2.15.08-2.05.05-1.58.74.38.57.35.68-.57,1.58-1.39,1.34-2.97,3.44-3.71,4.91-.35.68-.9,1.47-1.23,1.77-.71.65-1.36,1.83-1.36,2.51,0,.27-.63,1.83-1.42,3.46-1.17,2.51-1.42,3.22-1.39,4.45l.03,1.45h-1.17c-.55.08-1.15.03-1.2-.03l.01-.05Z" fill="#d9d9d9"/>
      <path id="path1102" d="M302.916,226.436c-1.45-.9-1.39-3.57.11-5.21.6-.65,1.31-.63,2.18.14s.44,3.93-.68,4.96c-.473.453-1.01.49-1.61.11Z" fill="#d9d9d9"/>
      <path id="path1104" d="M288.786,223.386c-.63-1.17.27-3.87,1.58-4.77,1.06-.74,1.36-.79,3.46-.74,1.28.03,1.42.11,1.75.85.3.74.27.93-.52,2.15-1.15,1.77-2.75,2.84-4.55,2.97-1.23.11-1.47.03-1.72-.46h0Z" fill="#d9d9d9"/>
      <path id="path1106" d="M282.706,217.416c-.38-.08-.49-.38-.49-1.39,0-.71-.14-1.45-.33-1.61-.19-.19-1.01-.33-1.85-.35-3.22-.05-3.71-.76-1.94-2.7,1.04-1.12,1.2-1.61,1.17-3.14-.16-5.34,0-7.06,1.06-11.24.33-1.31.44-1.42,1.31-1.58.82-.16,1.04-.08,1.58.6.35.44.85,1.28,1.09,1.94.41.98.6,1.17,1.31,1.17.55,0,1.61.57,3.14,1.64,1.28.9,3.08,2.15,4.01,2.78.93.63,1.69,1.34,1.72,1.58,0,.22.3.9.68,1.5s.68,1.31.68,1.58c0,.41.19.46,1.45.33,1.28-.14,1.53-.08,2.43.6.87.68.98.9.93,1.72-.14,1.42-.33,1.72-1.45,2.35-.673.38-1.42.397-2.24.05-.79-.35-1.58-.49-2.24-.41-.79.11-1.12,0-1.58-.49-.33-.35-.55-.85-.49-1.12.14-.71-2.32-1.96-2.92-1.5-.22.19-.41.63-.41.98,0,.98-.49,2.05-1.31,2.86-.41.41-1.01,1.09-1.34,1.53-.85,1.15-1.91,2.26-2.18,2.29-.71.11-1.39.14-1.8.03h.01Z" fill="#d9d9d9"/>
      <path id="path1108" d="M246.876,174.466c-.93-.3-2.07-1.06-3.25-2.15-.46-.41-.93-.76-1.04-.76-.55,0-1.83-1.17-1.83-1.66,0-.68,4.34-6.52,4.83-6.52.68,0,3.19,2.65,3.93,4.15,1.12,2.26,1.88,4.39,1.88,5.21,0,.55-.27.9-1.04,1.45-1.09.68-1.99.76-3.49.3l.01-.02Z" fill="#d9d9d9"/>
      <path id="path1110" d="M348.126,215.556c-.05-.05-1.77-.16-3.85-.25-2.95-.14-3.87-.27-4.31-.63-.33-.25-.95-.79-1.45-1.2-.74-.63-1.09-.71-2.21-.65-1.5.08-2.37-.16-5.24-1.5-1.72-.79-1.96-1.01-2.29-1.96-.3-.95-.3-1.09.11-1.34.52-.27.63-.76.19-.76-.16,0-.9-.41-1.64-.93-.74-.52-1.72-1.01-2.18-1.12-.52-.11-.98-.46-1.23-.95-.6-1.17-1.99-2.02-3.55-2.18-1.15-.11-1.45-.05-1.96.46-.44.44-.93.63-1.8.63-1.01,0-1.36.16-2.35,1.09l-1.17,1.09h-2.26c-3.76,0-4.61-.68-4.96-4.04-.14-1.17-.05-1.36.71-2.07.65-.63.85-1.04.85-1.83,0-.71.16-1.12.49-1.28.27-.14,1.94-.27,3.71-.3,2.95-.03,3.33-.11,4.09-.68,1.2-.9,2.51-1.53,3.19-1.53.49,0,.55-.11.41-.63-.22-.71-.38-1.36-.41-1.61,0-.08-.52-.49-1.15-.9-1.06-.71-1.12-.82-.98-1.8.08-.57.33-1.39.55-1.83.22-.41,1.04-2.02,1.8-3.55l1.42-2.78-.55-1.94c-.52-1.83-2.1-4.36-3.44-5.48-.27-.22-.76-.85-1.12-1.42-.38-.6-1.23-1.36-1.99-1.77-1.06-.6-1.39-.93-1.58-1.69-.22-.85-.3-.95-1.04-.87-.44.05-.98.25-1.23.44-.22.19-.93.6-1.55.93-.98.49-1.17.52-1.45.19-.46-.55-.08-1.5.9-2.37.82-.74.85-.76.3-1.15-.68-.52-1.06-.52-2.07,0-1.06.55-1.61.33-1.61-.65,0-.52.19-.87.55-1.04.52-.22.46-.33-.76-1.53-2.21-2.15-3.46-3.16-3.82-3.03-.19.05-.35.55-.35,1.06v.93l-2.81.05c-1.53.03-3.6.05-4.61.03-1.53-.03-1.8.03-1.77.41s-.3.44-2.29.41c-1.28-.03-3.6-.14-5.18-.25-1.75-.14-3.25-.11-3.85.05-1.2.33-2.13-.22-2.59-1.61-.27-.79-.44-.9-1.09-.85-3.22.27-3.38.27-4.2-.33-1.8-1.34-3.27-3.46-3.27-4.75,0-.41.27-.55,1.25-.68.71-.08,1.77-.16,2.37-.16.95,0,1.06-.05.71-.38-.6-.55-2.1-.98-3.41-.98-.85,0-1.2-.14-1.36-.49-.49-1.17-.87-3.46-.79-4.64.35-5.62.44-6.24,1.61-9.65,1.69-4.96,2.97-7.25,4.5-8.18,2.43-1.45,6.38-1.04,6.84.71.19.68.08.95-.71,1.83-.55.6-1.01,1.47-1.12,2.07-.11.57-.38,1.31-.6,1.66-.49.76-1.17,3.6-.95,3.95.08.14.19,1.17.25,2.26.08,2.24.22,2.56.93,2.56.33,0,.57-.27.68-.76.11-.41.38-.98.63-1.25.35-.41.38-.57.11-.95-.68-.95-.98-1.85-.98-3.14-.03-1.01.11-1.42.55-1.77.3-.25.65-.65.74-.93.11-.27.3-.49.46-.49s.27-.25.27-.55c0-.98,2.07-3.93,3.22-4.55,1.2-.68,3.82-1.17,4.64-.87.49.19.95.87,2.62,3.93,1.04,1.94,1.83,4.04,1.66,4.61-.19.76.82,2.07,1.61,2.07.33,0,1.06-.14,1.64-.3.85-.25,1.01-.38.87-.82-.3-.93,1.36-2.26,3.3-2.67,1.53-.33,1.72-.3,2.59.22.52.33,1.25.57,1.61.57.85,0,2.05,1.01,2.32,1.91.27.93.93,1.64,1.53,1.64.35,0,.52.3.65,1.09.11.6.3,1.09.41,1.09.14,0,.93.68,1.75,1.5,1.25,1.23,1.55,1.42,1.66,1.04.08-.27.33-.87.55-1.36.44-.98.68-1.01,3.05-.16.98.35,1.25.6,1.75,1.77.33.79.9,1.53,1.34,1.8.41.25.9.71,1.06,1.04.57,1.06,1.23,1.28,2.05.65.87-.68,1.53-.55,3.14.6,1.01.74,1.15.95.98,1.58-.46,1.88-.49,2.26-.11,2.18.22-.05.57-.41.85-.82.68-1.09,1.53-.95,2.84.41,1.25,1.31,1.83,2.26,1.88,3.08.08,1.53.16,1.69,1.06,2.13.52.25,1.15.82,1.36,1.25l.41.82-1.25.74c-1.04.6-1.36.68-1.88.44-.85-.38-1.04-.14-.52.65.41.63.41,1.75-.05,2.86-.25.6.68,1.42,2.02,1.83.57.16,1.53.63,2.1,1.04.57.41,1.5.74,2.02.76.52.02,1.25.16,1.64.33s1.39.22,2.26.16l1.58-.11,1.47,1.53c1.28,1.34,1.61,1.53,2.59,1.55.6.03,1.25.05,1.45.08.19.03.41.44.52.93.11.49.27.98.35,1.09.08.11,1.04-.11,2.07-.49l1.88-.65,1.04.57c.95.55,1.04.68,1.12,2.02.11,1.77-.05,2.4-.76,3.22-.52.6-.52.68-.11,1.15.35.41.41.63.16,1.17-.16.35-.25,1.09-.14,1.61.19,1.23-.71,2.62-1.72,2.62-.57,0-.65.08-.49.63.3.95,1.17,2.59,1.47,2.78.57.35.25.93-.85,1.45-1.12.55-1.15.55-2.07.05-.52-.27-1.55-.65-2.29-.85-1.15-.3-1.47-.55-2.26-1.75-1.04-1.58-2.95-3.41-3.55-3.41-.22,0-.55-.16-.74-.35-1.09-1.09-2.95-1.75-2.95-1.06,0,.14-.33.38-.71.55l-.71.33.74.76c.87.93.87,2.15,0,2.62-.44.22-.52.41-.35.82.11.3.22.44.22.33.03-.33,1.99.6,2.37,1.12.19.27.85,1.04,1.45,1.72,1.06,1.2,1.45,1.39,4.28,2.13.85.22,1.17.46,1.31.95.08.38.41.79.71.95s.85.76,1.23,1.36c.38.57,1.53,1.94,2.59,3.03l1.94,1.96-.05,3.79c-.03,2.1-.14,3.85-.25,3.93-.3.19-5.24-1.39-7.88-2.51-1.28-.55-2.7-1.31-3.16-1.72-.79-.68-1.55-.82-3.19-.57-.46.05-.16.52.55.82.41.16.98.74,1.25,1.23.41.76.87,1.06,2.59,1.72,1.15.44,3.41,1.64,5.02,2.7l2.95,1.88-.08,1.64-.08,1.64-1.55.03c-.76.08-1.53.05-1.58,0l-.05-.01Z" fill="#d9d9d9"/>
      <path id="path1112" d="M308.476,214.546c-1.04-.68-1.34-1.42-.87-1.96.46-.55.98-.49,1.94.16.85.6,1.04,1.53.46,2.1-.44.41-.49.41-1.53-.3Z" fill="#d9d9d9"/>
      <path id="path1114" d="M311.446,211.446c-.49-.08-.6-.27-.55-.85.05-.55.25-.74.79-.82.93-.11,1.99.74,1.75,1.39-.19.46-.68.52-1.99.27v.01Z" fill="#d9d9d9"/>
      <path id="path1116" d="M307.026,181.146c-1.83-1.83-1.23-7.5.95-8.94.98-.63,2.45-.3,3.44.79.76.85.79.93.79,3.9,0,3.38-.11,3.63-2.24,4.58-1.39.63-2.05.55-2.95-.33h.01Z" fill="#d9d9d9"/>
      <path id="path1118" d="M314.526,176.126c-.82-.38-1.5-1.42-1.23-1.85.33-.52,2.48-.38,2.92.22.52.68.41,1.12-.41,1.53-.49.25-.9.3-1.28.11v-.01Z" fill="#d9d9d9"/>
      <path id="path1120" d="M298.226,168.896c-.27-.27-.22-.44.46-1.25.41-.46.71-1.28.82-2.15.19-1.34.82-2.7,1.25-2.7.41,0,.55.87.22,1.45-.16.33-.3,1.01-.27,1.47.11,1.53-1.77,3.9-2.48,3.19v-.01Z" fill="#d9d9d9"/>
      <path id="path1122" d="M242.476,149.426c-.71-.57-1.28-1.28-1.31-1.55-.25-2.95-.68-3.68-3.16-5.37-.46-.33-1.25-1.34-1.72-2.21-.85-1.58-.85-1.66-.49-2.86.22-.68.68-1.45,1.06-1.72.65-.49.68-.49,2.13.6,1.39,1.06,1.47,1.09,1.91.6.25-.27.57-.95.74-1.53.25-.87.19-1.09-.25-1.61-1.31-1.42-1.64-2.32-1.34-3.65.3-1.47,1.15-2.78,1.75-2.78.25,0,1.06.38,1.85.82,1.23.71,1.47.76,1.77.44.68-.82,3.65-1.45,4.31-.9.19.16.35.9.35,1.72,0,1.12-.11,1.47-.49,1.61-.46.16-.46.19,0,.55.71.52.6.82-.76,2.35-.68.76-1.23,1.5-1.23,1.66s.35.41.82.57c.63.22.82.46.82,1.01,0,.41.19,1.04.41,1.42.82,1.42,1.01,2.1,1.15,4.01.11,1.75.05,2.07-.55,3.03-.71,1.12-2.21,2.24-3,2.24-.25,0-.38.11-.3.25.27.44-1.12,1.83-2.15,2.13-.98.27-1.12.22-2.32-.79v-.04Z" fill="#d9d9d9"/>
      <path id="path1124" d="M253.746,144.246c-.57-.46-.71-.79-.71-1.75,0-.65-.14-1.53-.27-1.94-.65-1.69-.14-7.94.82-10.09.33-.71.65-1.77.74-2.32.22-1.45,1.06-1.91,4.09-2.32.82-.11,1.42,0,2.24.41.6.3,1.36.57,1.69.57.79,0,2.4.71,3.46,1.53.6.453.753.97.46,1.55-.25.49-.63,1.06-.82,1.31-.22.25-.46.79-.52,1.23-.08.44-.55,1.39-1.06,2.15s-1.06,2.07-1.25,2.97c-.19.87-.46,1.64-.63,1.69-.16.05-1.09.16-2.05.25s-1.85.25-1.96.35c-.16.16-.41,2.13-.49,3.82-.03.44-1.45,1.17-2.29,1.17-.41-.03-1.04-.27-1.45-.6v.02Z" fill="#d9d9d9"/>
      <path id="path1126" d="M293.176,135.216c-1.25-2.05-3.08-5.97-2.95-6.35.25-.63,5.73-.55,6.87.08,1.55.85,3.52,2.89,4.42,4.61.55,1.01-.25,1.5-2.29,1.42-1.31-.05-1.96.08-2.84.52-1.64.87-2.56.79-3.22-.27l.01-.01Z" fill="#d9d9d9"/>
      <path id="path1128" d="M265.986,122.326c-.6-.38-1.47-.68-1.94-.68-1.39,0-1.8-.52-1.91-2.4-.05-.93-.22-1.91-.35-2.18-.44-.79-.6-3.35-.25-3.95.16-.3.33-1.25.35-2.07.05-1.28-.05-1.66-.68-2.48-.41-.52-.79-1.2-.85-1.5-.08-.46-.38-.57-2.13-.71-1.12-.08-2.24-.25-2.48-.35-.63-.27-3.14-3.44-3.3-4.2-.08-.35-.03-1.04.11-1.55.3-1.15.98-1.36,3.14-1.12,2.26.27,3.6,1.12,4.04,2.56.22.74.93.93,2.75.79,2.18-.16,3.14.35,3.14,1.75,0,.49.22.79.68,1.01,1.04.46,1.34,1.36.87,2.67-.253.747-.08,1.41.52,1.99.49.49.9,1.17.9,1.5,0,.52.19.63,1.17.79.63.08,2.21.38,3.49.63l2.32.46,1.53-.74c.85-.41,1.66-.74,1.83-.74s.82-.44,1.45-.95c1.15-.95,1.2-.95,3.35-.93,2.56.05,3.33.27,5.21,1.5,2.26,1.47,3.46,3.49,2.59,4.36-.19.19-.16.57.05,1.12.27.71.25.93-.11,1.36-.25.27-.49.93-.55,1.45-.08.82-.27,1.04-1.42,1.61-2.26,1.12-5.56,1.12-6.08-.03-.22-.49-.33-.52-.65-.19-.22.22-.95.65-1.64.98-1.06.52-1.77.63-5.32.71-4.36.11-5.37-.11-5.73-1.17-.25-.74-.44-.71-1.5.41-.52.52-1.06.95-1.2.95-.19.03-.82-.3-1.42-.65l.02-.01Z" fill="#d9d9d9"/>
      <path id="path1130" d="M256.716,121.446c-.57-.14-3.57-2.18-4.34-2.95-.65-.65-.52-1.53.63-3.71.93-1.72,1.23-2.05,2.13-2.37,1.23-.44,2.54-.14,3.71.85.71.6.76.76.93,3.79.19,3.16.19,3.19-.52,3.9-.71.65-1.34.79-2.54.49h0Z" fill="#d9d9d9"/>
      <path id="path1132" d="M246.026,116.426c-1.25-.57-2.54-1.94-2.54-2.67,0-.25.38-.82.87-1.23l.87-.76-2.54.08c-2.86.08-3.3-.14-3.3-1.88,0-1.31-.35-1.8-1.91-2.75-.76-.46-1.36-.93-1.36-1.01s.22-.52.46-.95c.44-.74.55-.76,1.72-.63,1.47.19,2.21.52,2.21,1.01,0,.19.55.93,1.23,1.64.9.95,1.42,1.28,2.02,1.28.71,0,.82-.11.9-.98.14-1.06-.27-1.61-1.77-2.51-.41-.25-.76-.6-.76-.79s.6-.82,1.36-1.42c1.01-.79,1.55-1.04,2.13-.95.41.05,1.42.16,2.24.25s1.77.33,2.13.57l.65.44-.16,5.05c-.08,3-.27,5.21-.44,5.4-.16.22-.22.76-.11,1.31.27,1.47-.22,2.1-1.58,2.07-.65,0-1.69-.25-2.32-.55v-.02Z" fill="#d9d9d9"/>
      <path id="path1134" d="M226.196,114.716c-1.12-.68-1.85-.71-2.59-.03-.25.22-.6.33-.76.22-.41-.27,1.06-6.49,1.53-6.38.19.05.3-.44.3-1.39,0-1.83,1.28-8.29,1.8-9.11.82-1.25,2.95-.22,2.24,1.09-.19.35-.19.74-.03,1.12.3.65.19,2.4-.16,3.11-.14.27-.22.95-.22,1.55.03.93.11,1.09.68,1.17.35.05,1.2-.05,1.85-.25,1.09-.3,1.25-.3,1.72.19,1.01,1.01,1.25,4.8.38,5.94-.22.3-.65.95-.98,1.45-1.23,1.96-3.74,2.54-5.75,1.31l-.01.01Z" fill="#d9d9d9"/>
      <path id="path1136" d="M233.676,114.656c-.19-.52-.14-.87.19-1.42.25-.41.46-.76.49-.79,0-.03.41-.11.9-.22.82-.14.9-.08,1.42,1.12.35.76.46,1.36.33,1.53-.14.14-.87.3-1.66.35-1.31.11-1.45.05-1.66-.57h-.01Z" fill="#d9d9d9"/>
      <path id="path1138" d="M286.716,106.096c-.08-.3-.11-.65-.03-.76.22-.33-.16-.76-1.04-1.23-.76-.41-.85-.38-1.45.27-.46.49-.79.63-1.23.49-.33-.11-.9-.25-1.28-.33s-.95-.46-1.28-.85c-.49-.6-.65-.65-1.04-.35-.25.19-.44.68-.44,1.06,0,.93-.87,1.5-1.96,1.25-.46-.11-2.35-.19-4.2-.22-2.95-.03-3.46-.11-4.12-.6-.65-.49-.79-.79-.85-2.1-.05-1.01.05-1.83.35-2.35.65-1.25,2.26-2.75,2.97-2.75,1.17,0,1.34-.63.41-1.53-1.53-1.45-1.99-2.97-1.28-4.28.46-.87.76-1.01,2.29-1.01,1.66,0,2.75.79,3.16,2.32.16.55.57,1.31.93,1.66.55.55.76.6,1.2.35.52-.27.49-.35-.65-1.55-.65-.68-1.36-1.61-1.53-2.05-.3-.71-.25-.9.41-1.75l.74-.95h-1.85c-2.32,0-3.08-.44-3.08-1.8,0-.52.25-1.45.57-2.05.3-.6.49-1.17.41-1.25-.44-.44.79-1.72,2.43-2.56l1.8-.93,1.8.95c2.29,1.2,2.15,1.17,2.18.76,0-.19.11-.57.22-.82.11-.27.08-.49-.03-.49-.14-.03-.6-.05-1.04-.11-1.12-.11-2.97-2.18-3.6-4.01-.27-.79-.9-1.99-1.39-2.65-.49-.66-.9-1.28-.9-1.42,0-.11-.25-.3-.52-.38-.76-.25-1.06-1.45-.87-3.49.25-2.37.52-2.67,2.26-2.51,1.83.16,2.32.52,4.31,3.14.93,1.2,1.72,2.15,1.77,2.13.3-.3-.44-1.96-1.31-2.97-1.36-1.53-1.31-2.37.22-3.14.6-.3,1.58-.9,2.18-1.31s1.31-.74,1.58-.74c.3,0,.49-.22.49-.55,0-.3.49-1.04,1.12-1.64l1.12-1.09-.71-.85c-.38-.46-.71-1.04-.71-1.28s-.3.11-.63.76c-1.69,3.33-3,4.47-5.05,4.53-.71,0-1.96.19-2.84.41-2.15.52-3.05.19-3.16-1.15-.05-.55.11-1.45.33-1.96s.33-.98.25-.98c-.3,0-1.17,1.17-1.17,1.55,0,.22-.3.68-.71,1.04-.57.52-.85.6-1.47.44-1.83-.52-3.16-2.05-2.48-2.86.3-.35.25-.41-.22-.41-.33,0-.68-.03-.79-.05-.46-.08-.87-.95-.87-1.83,0-.74.22-1.12,1.09-1.91,1.17-1.06,1.34-1.39.68-1.39-.22,0-.65-.25-.95-.55s-.82-.55-1.17-.55c-2.37,0-1.72-2.54.9-3.55.52-.19,1.39-.85,1.94-1.42.85-.87,1.17-1.04,2.15-1.04,1.09,0,1.15-.03.98-.65-.14-.52.03-.82.65-1.34.44-.38.82-.93.82-1.23,0-.68.55-1.15,1.23-1.01.3.05.68.11.85.11s.74.33,1.28.68c1.04.71,1.28.57,1.28-.76,0-.33.44-1.2.95-1.94s.95-1.55.95-1.83.49-1.01,1.09-1.61c.87-.93,1.23-1.12,1.8-1.01.6.11.76,0,.98-.63.3-.85,1.42-1.39,2.48-1.2,2.07.35,2.73.3,3.93-.35,1.36-.71,3.46-.98,4.31-.55.38.19.98.14,2.13-.22,1.15-.35,1.77-.41,2.21-.22.33.14,1.28.22,2.1.16,2.02-.14,2.54.03,2.95.95.38.85,1.12,1.34,2.37,1.53,1.06.16,1.5.65,1.8,1.96.38,1.64.3,3.08-.27,5.15-.41,1.47-.74,2.07-1.42,2.65-.49.41-1.04.76-1.23.76-.49,0-1.88,1.72-2.67,3.27-.38.76-.71,1.45-.71,1.53,0,.35,1.39-.95,1.64-1.53.16-.38.65-.93,1.09-1.23s.82-.63.82-.74c0-.3,1.31-.25,1.5.08.08.16.16.95.16,1.8,0,1.15-.16,1.77-.65,2.54-1.01,1.55-1.88,3.33-1.75,3.65.05.16-.46,1.61-1.17,3.19-.71,1.58-1.39,3.19-1.55,3.55-.35.85-.93,3.85-1.04,5.32-.11,1.45-1.39,2.67-2.65,2.54-.76-.08-.87,0-1.04.82-.11.49-.46,1.2-.79,1.55-.57.6-2.81,1.58-3.05,1.34-.05-.05-.35.14-.63.46-.347.38-.32.707.08.98.74.49.82,1.58.16,2.29-.35.41-.38.52-.08.52.22.03.52.05.65.08.16.03.49.08.76.11.27.03.87.41,1.31.9,1.01,1.06,1.15,3.03.25,3.57-.71.44-.68.71.14,1.34.38.3.68.76.68,1.06,0,.33-.25.57-.68.68-.55.14-.68.33-.68,1.04,0,1.23-1.23,2.54-2.45,2.65l-.95.08.08,2.05c.08,1.85.03,2.13-.55,2.73-1.127,1.18-1.517,2.033-1.17,2.56.25.38.85.93,1.31,1.15.46.25.98.63,1.15.85.41.55.25,1.96-.38,3.38-1.28,2.84-5.21,5.26-5.73,3.6l.01.08Z" fill="#d9d9d9"/>
      <path id="path1140" d="M235.716,95.896c-.76-.76-.87-1.94-.38-3.38.38-1.06.87-1.09,1.58-.08,1.06,1.5,1.09,3.3.03,3.87-.44.22-.68.14-1.23-.41Z" fill="#d9d9d9"/>
      <path id="path1142" d="M255.786,95.516c-1.94-1.01-2.15-1.99-.68-3.27,1.2-1.06,2.7-1.17,4.09-.3,1.53.95,1.55,2.15.08,3.38-.93.76-2.24.85-3.49.19Z" fill="#d9d9d9"/>
      <path id="path1144" d="M253.386,90.956c-.9-.38-1.34-1.17-1.06-1.99.08-.3-.16-.85-.68-1.45-1.01-1.15-1.2-1.83-1.01-3.49.16-1.47,1.01-2.37,1.94-2.1.33.08,1.31.65,2.18,1.23.87.58,1.69,1.06,1.8,1.06.44,0,.82,1.53.82,3.27v1.88l-1.25.95c-1.39,1.15-1.5,1.17-2.73.63l-.01.01Z" fill="#d9d9d9"/>
      <path id="path1146" d="M247.496,90.466c-.33-.35-1.04-1.12-1.55-1.72-1.69-1.91-2.51-2.37-4.23-2.32-1.36.05-1.61-.03-2.32-.76-.85-.85-1.04-1.83-.52-2.78.16-.3.46-.52.68-.52s.63-.25.93-.52c.46-.46.49-.68.25-1.58-.16-.63-.65-1.36-1.2-1.8-1.75-1.45-.98-3.74,1.23-3.74,1.23,0,2.75,1.06,2.75,1.91,0,.52.38.9,1.01.98.65.11,1.94,1.36,2.54,2.48.33.63.82,1.36,1.06,1.66.93,1.01,1.06,1.5.65,2.65-.55,1.55-.49,1.91.44,2.95.46.52.82,1.12.82,1.36,0,.79-.6,1.75-1.28,2.07-.55.25-.74.22-1.25-.33l-.01.01Z" fill="#d9d9d9"/>
      <path id="path1148" d="M263.156,87.526c-.6-.63-1.17-1.39-1.28-1.66-.08-.27-.46-.85-.85-1.25-.98-1.06-1.99-3.16-1.99-4.15,0-1.09,1.06-2.18,2.1-2.18.71,0,1.72-.76,1.72-1.34,0-.25-1.34-.95-1.77-.95-.16,0-.85.11-1.55.22-1.66.27-2.48.05-2.86-.74-.22-.46-.19-.82.11-1.36.22-.44.27-.74.11-.74s-.52-.25-.82-.55c-.6-.6-.71-1.91-.25-3.25.27-.76.41-.85,1.39-.85s1.06-.05.9-.6c-.11-.33-.55-.93-1.01-1.31-.68-.6-.79-.85-.63-1.55.22-1.01.76-1.5,1.75-1.64,1.69-.19,1.75-.41.44-1.8l-.95-1.01.55-1.09c.3-.6.9-1.25,1.36-1.5.63-.33.82-.63.87-1.45.08-.95.14-1.04,1.04-1.12,1.01-.08,2.59.76,3.03,1.58.6,1.17,1.34,2.95,1.34,3.22,0,.57,1.15,2.37,2.35,3.65.87.95,1.2,1.5,1.2,2.13s.33,1.2,1.36,2.29c1.2,1.25,1.36,1.58,1.36,2.59,0,1.23.11,1.36,2.73,3.52.98.82,1.09,1.06,1.09,2.1s-.22,1.47-1.64,3.33c-.9,1.2-1.94,2.32-2.32,2.54-.46.25-.68.6-.68,1.04,0,.38-.46,1.28-1.01,1.99-1.12,1.47-1.28,1.55-2.45,1.2-.52-.16-.6-.05-.68.71-.08.87-.11.9-1.5.98-1.36.14-1.47.08-2.54-1.01l-.02.01Z" fill="#d9d9d9"/>
      <path id="path1150" d="M229.396,83.186c.08-.38.25-1.15.33-1.72.11-.57.3-1.04.44-1.04.38,0-.03,2.54-.52,3-.35.38-.38.35-.25-.25v.01Z" fill="#d9d9d9"/>
      <path id="path1152" d="M250.036,71.376c-.93-.74-1.58-1.85-1.42-2.45.22-.95.63-1.28,1.42-1.28.57,0,.9.27,1.47,1.12.87,1.34.9,1.72.19,2.43-.65.63-1.06.68-1.66.19v-.01Z" fill="#d9d9d9"/>
    </g>
    <g id="CA-QC">
      <path id="path1157" d="M345.156,343.126c-.25-.41-.49-1.17-.55-1.72-.11-.9-.16-.95-1.23-1.04-1.12-.08-2.59.49-4.2,1.61-.55.38-1.2.52-2.75.52-2.02,0-2.05,0-2.67-.95-.35-.52-.87-.95-1.17-.95s-1.15-.38-1.91-.85c-.95-.6-1.83-.9-2.89-.98-2.29-.19-4.85-1.04-6.44-2.13-1.15-.79-1.55-1.31-2.24-2.81-.49-1.12-.9-2.54-1.01-3.6-.11-.98-.22-2.13-.27-2.59s-.25-1.99-.41-3.41-.35-3.03-.41-3.55-.19-1.5-.27-2.18-.52-4.42-.95-8.32c-.44-3.9-.87-7.42-.95-7.8-.14-.63-.05-.74.71-.87.79-.16.85-.25.68-1.01-.14-.65-.03-1.09.57-1.96.41-.63.76-1.45.76-1.83s-.49-1.72-1.12-3-1.23-2.81-1.39-3.41-.49-1.39-.76-1.75c-.33-.44-.44-1.09-.41-1.99.08-1.42-.65-2.97-1.64-3.52-.3-.16-.52-.57-.52-1.01,0-.41-.25-1.04-.55-1.42s-.55-.82-.55-.95c0-.41,1.34-1.58,2.86-2.54.74-.46,1.75-1.31,2.24-1.88s1.42-1.64,2.07-2.37c.82-.9,1.55-2.13,2.21-3.76.9-2.21.98-2.67.95-4.75-.03-1.69-.25-2.89-.79-4.55-.41-1.23-.82-2.56-.93-2.97-.27-1.25-2.73-3.87-4.47-4.83-2.1-1.12-3.74-2.75-3.82-3.79-.03-.44.14-1.28.41-1.88.25-.57.49-1.25.55-1.47.03-.22.33-.6.63-.87.44-.35.57-.76.57-1.75,0-.93.16-1.47.55-1.88.49-.52.52-.65.14-1.69-.22-.63-.44-1.42-.52-1.8-.16-.85-.87-2.24-1.69-3.33-.57-.74-.63-1.12-.63-3.9,0-2.24-.11-3.22-.38-3.55-.22-.25-.74-1.28-1.15-2.32l-.76-1.88.71-1.42c.68-1.36.76-1.45,1.99-1.61,2.05-.27,3.79-.22,4.96.22,1.55.55,3.74.74,4.61.41.41-.16,1.23-.76,1.83-1.36.6-.6,1.23-1.06,1.36-1.06.49,0,5.75,2.78,7.5,3.95,1.34.87,1.64,1.23,1.58,1.77-.03.38.16.98.41,1.39.41.63.74.74,3.27,1.04,1.53.19,3.38.52,4.12.76l1.34.44-.19,1.5c-.19,1.45.03,2.4,1.28,5.94.16.46.27,1.15.27,1.55-.03.46.25,1.01.65,1.45.38.38.93,1.23,1.23,1.91l.55,1.23,1.34-.16c1.28-.16,1.39-.11,2.78,1.06.79.68,1.77,1.31,2.18,1.42s.74.3.74.44c0,.52.57.19,1.75-.93.9-.87,1.25-1.45,1.39-2.29.14-.79.35-1.2.79-1.39.38-.16.76-.74.98-1.47.44-1.34.38-4.17-.08-4.99-.16-.3-.27-.68-.22-.82.05-.14.19-.93.35-1.77.25-1.36.9-2.32,1.36-2.05.11.05.27.57.35,1.15.25,1.28,1.42,3.35,1.88,3.35.33,0,1.12,2.73.98,3.41-.16.74.08.85,1.58.74l1.58-.11-.05,1.75c-.03.95-.16,2.15-.33,2.65-.19.6-.19,1.09-.03,1.42.33.6,1.77,1.53,2.78,1.77.93.22.98.46,1.17,3.68.08,1.42.33,3.19.52,3.95s.46,1.8.55,2.35c.11.65.44,1.17,1.01,1.58.82.6,2.15,3,2.15,3.87,0,.25.22.65.52.9.27.25.71.93.98,1.5.46,1.01.46,1.09-.11,2.35l-.57,1.28-1.45-.14c-.79-.08-1.8-.22-2.26-.33-.74-.16-.9-.08-1.5.79-.74,1.06-1.2,1.2-1.91.55-.27-.25-1.23-.57-2.13-.76-1.83-.38-1.99-.3-2.32,1.01-.11.44-.46.9-.85,1.06-.52.25-.68.52-.68,1.23,0,.65-.25,1.17-.85,1.8-.74.76-.82,1.01-.68,1.99.08.6.33,1.42.52,1.83.63,1.2,2.24,2.84,3.35,3.38,1.17.57,1.39,1.23.85,2.78-.3.85-.27.95.46,1.58.79.68,1.75.76,3.33.22.52-.16.6-.05.76,1.23.14.98.41,1.64.87,2.1.63.63.82.68,2.18.49,1.23-.16,1.61-.11,2.05.3.3.27.74.52,1.01.57,1.28.25,4.06.3,4.36.11.19-.11.41-.76.46-1.42.16-1.53.35-3.35.38-3.46,0-.03.52.19,1.15.49.82.44,1.42.55,2.26.44,1.17-.16,5.56-1.64,10.12-3.44,7.01-2.75,11.32-4.34,12.93-4.75.95-.25,1.91-.57,2.13-.76.22-.19.46-.22.57-.05.63.74,1.94,2.54,1.94,2.65,0,.08-.76.74-1.72,1.45-2.51,1.91-3.98,3.6-4.17,4.72-.08.52-.68,2.05-1.36,3.41-.68,1.36-1.34,2.75-1.47,3.14-.3.85-4.72,3.22-7.53,4.04-1.06.3-3.38.98-5.18,1.5-10.55,3.05-15.65,4.96-16.58,6.24-.27.38-.63,1.28-.76,2.02s-.49,2.15-.82,3.16c-.49,1.61-.65,1.85-1.23,1.85-1.31,0-3.98,3.05-4.91,5.59-.27.76-.9,1.99-1.36,2.73-.49.76-.93,1.8-1.01,2.32-.3,2.29-4.5,9.05-6.68,10.8-3.05,2.45-7.25,6.93-6.87,7.31.05.05,1.15-1.04,2.43-2.45,1.28-1.42,3.14-3.16,4.12-3.93,1.69-1.28,3.55-3.25,4.8-5.07,1.12-1.64,3.11-5.56,3.11-6.14,0-.33.14-.85.3-1.17.49-.95,3-4.04,4.06-4.99.52-.49,1.55-1.45,2.32-2.13.74-.68,2.1-1.69,3-2.26.9-.55,2.56-1.64,3.68-2.43,1.42-.98,2.59-1.55,3.82-1.85,1.66-.41,1.88-.41,3.38.05,1.31.41,1.69.65,2.07,1.42,1.09,2.07.9,3.46-.65,5.37-1.53,1.85-2.07,2.21-3.68,2.37-3.14.33-5.73,1.06-6.6,1.85-1.12,1.04-2.02,1.34-4.17,1.42-2.59.11-2.73.27-2.51,3.03l.16,2.24-1.06.16c-.57.08-1.39.11-1.77.03-.55-.11-.85.03-1.17.49-.55.76-1.69,4.53-1.91,6.22-.08.68-.27,2.02-.41,3s-.33,2.29-.38,2.95c-.22,2.1-1.04,3.9-2.1,4.66-.55.38-1.25,1.09-1.61,1.58-.33.49-.87.95-1.2,1.01-.33.05-2.56.55-4.99,1.09s-5.07.98-5.86.98c-1.28,0-1.47-.08-1.88-.76l.01-.03Z" fill="#d9d9d9"/>
      <path id="path1159" d="M389.656,301.406c-.38-.05-.98-.33-1.36-.57-.38-.27-1.39-.63-2.24-.82-1.94-.41-2.32-1.12-1.15-2.1.63-.52,1.15-.65,2.56-.68,3.74-.08,5.07.08,7.58.9,2.48.85,2.54.87,2.54,1.75,0,1.04-.11,1.09-3.14,1.34-3.33.27-4.06.3-4.8.19l.01-.01Z" fill="#d9d9d9"/>
    </g>
    <path id="CA-SK" d="M214.556,319.516c-.05-.05-1.09-.19-2.29-.3s-2.48-.22-2.86-.27c-.38-.05-1.47-.19-2.45-.27s-2.07-.22-2.45-.27c-.38-.05-1.47-.19-2.45-.27s-4.77-.85-8.45-1.69c-3.68-.85-6.87-1.53-7.09-1.58-1.23-.27-1.94-.44-3.55-.79-.98-.22-2.02-.46-2.32-.52-.3-.05-1.5-.33-2.67-.57-1.72-.38-2.1-.57-1.99-.93.14-.41,2.26-9.22,2.45-10.12.05-.22.46-1.99.95-3.95.46-1.96,1.28-5.4,1.83-7.64s1.58-6.6,2.32-9.68c.74-3.08,1.42-5.84,1.47-6.14.05-.3.49-2.07.93-3.95.46-1.88,1.39-5.75,2.07-8.59.68-2.86,1.66-6.9,2.15-9s1.36-5.67,1.91-7.96l1.01-4.15,1.42.11c.76.05,2.02.22,2.75.33s2.29.08,3.46-.05c1.99-.25,2.21-.22,3.76.49,1.55.68,2.21.74,2.21.16,0-.3-5.78-3.14-7.23-3.52-.6-.16-1.36-.3-1.72-.3-.33,0-.87-.25-1.17-.55-.6-.6-1.39-.71-2.21-.27-.63.33-.63.25-.22-1.64.25-1.09.38-1.36.76-1.25.41.11,2.32.52,4.15.85.35.08.9.16,1.2.25.9.19,12.22,2.4,12.95,2.51.38.05,2.15.41,3.95.76s3.76.71,4.36.76c1.06.11,1.09.14,1.04,1.04-.03.52-.35,3.22-.74,5.97-.38,2.75-.79,5.67-.87,6.41-.16,1.34-.49,2.05-.95,2.05-.41,0-2.05,1.8-2.4,2.67-.25.63-.27,1.09-.05,1.75.6,1.94.49,2.86-.44,3.82-.6.63-.79,1.01-.63,1.28.19.3.41.25,1.09-.35.46-.41,1.04-.74,1.25-.74.41,0,.41.87-.03,6.27-.05.82-.19,2.59-.27,3.95-.08,1.36-.22,3-.27,3.68-.05.68-.19,2.45-.27,3.95s-.22,3.16-.27,3.68c-.05.52-.19,2.32-.27,3.95-.08,1.63-.22,3.3-.27,3.68-.05.38-.19,2.15-.27,3.95-.11,1.8-.22,3.46-.27,3.68-.05.22-.16,1.94-.27,3.82-.11,1.88-.22,3.6-.27,3.82-.05.22-.16,1.94-.27,3.82-.11,1.88-.25,3.63-.3,3.9-.05.27-.11,1.28-.14,2.26-.03,1.61-.3,2.15-.79,1.69h-.01Z" fill="#d9d9d9"/>
    <path id="CA-YT" d="M143.786,216.456c-.3-.19-1.45-.76-2.56-1.25-1.72-.76-7.64-3.85-17.37-9.03-3.08-1.64-14.43-8.67-22.8-14.15-2.97-1.94-4.31-2.97-4.31-3.3,0-.68.85-2.02,1.72-2.7,1.58-1.25.68-2.05-2.43-2.15-.63-.03-.9-.19-1.01-.57-.08-.3-.25-.52-.38-.49-.52.14-1.45-.38-1.61-.9-.14-.41.52-1.58,2.54-4.55,3.76-5.54,10.69-15.82,16.06-23.78,4.28-6.35,9.79-14.51,17.23-25.55l3.35-4.96.87.3c1.8.63,2.32,1.23,2.51,2.97.11.87.46,2.18.82,2.86.36.68.71,1.72.82,2.32.14.76.46,1.31,1.28,1.99,1.01.87,1.06.98.71,1.45-.57.68-3.33,5.18-3.98,6.49-.3.6-.76,1.77-1.01,2.59-.27.82-.76,2.05-1.09,2.73-1.2,2.4-1.25,2.21,1.64,4.39,1.99,1.5,2.59,2.1,2.59,2.59,0,.35-.44,1.47-.98,2.51-.63,1.23-1.04,2.4-1.12,3.38-.14,1.47-.11,1.53.85,2.26,1.06.82,1.01.57.71,3.76,0,.11-.38.27-.82.35-.87.19-1.66,1.17-1.66,2.02,0,.3-.25.95-.55,1.47-.6,1.01-.46,1.91.38,2.62.3.25.38.65.3,1.45-.11.82,0,1.28.46,1.94.44.6.63,1.28.65,2.37.03.85.25,1.94.52,2.45.46.9.46,1.01-.08,2.86-.71,2.48-1.06,4.42-1.25,7.04-.08,1.15-.3,2.48-.46,2.95-.27.76-.22.95.38,1.58.9.98,1.17,1.53,1.69,3.6.25.98.79,2.4,1.23,3.19.55,1.04.68,1.45.41,1.55-.19.08-.41.74-.49,1.45-.08.74-.22,1.66-.33,2.07-.25.9.11,1.25,2.32,2.26.82.38,1.96,1.01,2.54,1.42.58.41,1.36.74,1.77.74h.74l-.08,2.84c-.05,1.55-.11,2.89-.16,2.92.03-.03-.25-.14-.55-.33l-.01-.02Z" fill="#d9d9d9"/>
  </g>
  <circle id="DC2" cx="339.066" cy="370.025" r="1.36" fill="#d3d3d3" stroke="#fff" stroke-miterlimit="3" stroke-width="1.5"/>
  <circle id="circle1" cx="396.956" cy="310.726" r="5.13" fill="none" stroke="#6c297b" stroke-miterlimit="3" stroke-width=".5"/>
  <path id="path1" d="M401.776,305.736c-1.33-1.28-2.97-1.95-4.82-1.95v3.6c1.84,0,3.33,1.49,3.33,3.33,0,.9-.36,1.71-.94,2.31l2.59,2.5c2.66-2.75,2.58-7.14-.17-9.8l.01.01Z" fill="#00a28a" stroke="#00a28a" stroke-miterlimit="7.5" stroke-width="1"/>
  <circle id="circle2" cx="402.006" cy="333.276" r="8.37" fill="none" stroke="#6c297b" stroke-miterlimit="3" stroke-width=".5"/>
  <path id="path2" d="M407.246,324.556c-1.63-.98-3.33-1.45-5.24-1.45v3.6h0c3.63,0,6.57,2.94,6.57,6.57,0,1.24-.35,2.39-.94,3.38l3.09,1.86c2.89-4.82,1.34-11.07-3.48-13.96h0Z" fill="#00a28a" stroke="#00a28a" stroke-miterlimit="7.5" stroke-width="1"/>
  <circle id="circle3" cx="382.316" cy="322.776" r="7.71" transform="translate(2.467 648.453) rotate(-80.783)" fill="none" stroke="#6c297b" stroke-miterlimit="3" stroke-width=".5"/>
  <path id="path3" d="M389.376,316.406c-1.85-2.05-4.31-3.15-7.07-3.15v3.6h0c3.26,0,5.91,2.65,5.91,5.91,0,1.74-.76,3.31-1.96,4.39l2.41,2.68c3.9-3.51,4.22-9.53.7-13.43h.01Z" fill="#00a28a" stroke="#00a28a" stroke-miterlimit="7.5" stroke-width="1"/>
  <path id="path4" d="M294.136,287.476c-16.9,0-30.6,13.7-30.6,30.6s13.7,30.6,30.6,30.6,30.6-13.7,30.6-30.6-13.7-30.6-30.6-30.6Z" fill="none" stroke="#6c297b" stroke-miterlimit="3" stroke-width=".5"/>
  <path id="path5" d="M310.246,294.196l2.01-2.98c-5.46-3.68-11.53-5.54-18.12-5.54v3.6c5.97,0,11.51,1.82,16.11,4.92Z" fill="#00a28a" stroke="#00a28a" stroke-miterlimit="7.5" stroke-width="1"/>
  <path id="path6" d="M239.506,260.516c-5.16,0-9.34,4.18-9.34,9.34s4.18,9.34,9.34,9.34,9.34-4.18,9.34-9.34-4.18-9.34-9.34-9.34Z" fill="none" stroke="#6c297b" stroke-miterlimit="3" stroke-width=".5"/>
  <path id="path7" d="M240.866,258.796c-.45-.06-.9-.08-1.36-.08v3.6h0c4.16,0,7.54,3.38,7.54,7.54,0,.31-.02.62-.06.92l3.58.44c.75-6.11-3.59-11.66-9.7-12.41v-.01Z" fill="#00a28a" stroke="#00a28a" stroke-miterlimit="7.5" stroke-width="1"/>
  <path id="path8" d="M202.236,266.696c-5.08,0-9.21,4.12-9.21,9.21s4.12,9.21,9.21,9.21,9.21-4.12,9.21-9.21-4.12-9.21-9.21-9.21Z" fill="none" stroke="#6c297b" stroke-miterlimit="3" stroke-width=".5"/>
  <path id="path9" d="M208.706,266.996c-1.96-1.42-4.05-2.1-6.47-2.1v3.6h0c4.09,0,7.41,3.32,7.41,7.41,0,1.63-.53,3.13-1.42,4.35l2.92,2.12c3.57-4.92,2.48-11.8-2.43-15.37l-.01-.01Z" fill="#00a28a" stroke="#00a28a" stroke-miterlimit="7.5" stroke-width="1"/>
  <path id="path10" d="M166.476,251.986c-9.8,0-17.75,7.95-17.75,17.75s7.95,17.75,17.75,17.75,17.75-7.95,17.75-17.75-7.95-17.75-17.75-17.75Z" fill="none" stroke="#6c297b" stroke-miterlimit="3" stroke-width=".5"/>
  <path id="path11" d="M181.346,264.026l3.37-1.29c-2.96-7.7-10-12.54-18.25-12.54v3.6c6.79,0,12.58,4.25,14.88,10.24v-.01Z" fill="#00a28a" stroke="#00a28a" stroke-miterlimit="7.5" stroke-width="1"/>
  <path id="path12" d="M125.066,230.236c-10.8,0-19.55,8.75-19.55,19.55s8.75,19.55,19.55,19.55,19.55-8.75,19.55-19.55-8.75-19.55-19.55-19.55Z" fill="none" stroke="#6c297b" stroke-miterlimit="3" stroke-width=".5"/>
  <path id="path13" d="M135.486,235.436l2.13-2.93c-3.72-2.7-7.95-4.08-12.55-4.08v3.6c3.9,0,7.49,1.27,10.42,3.4v.01Z" fill="#00a28a" stroke="#00a28a" stroke-miterlimit="7.5" stroke-width="1"/>
  <path id="path14" d="M118.806,165.826c-2.23,0-4.04,1.81-4.04,4.04s1.81,4.04,4.04,4.04,4.04-1.81,4.04-4.04-1.81-4.04-4.04-4.04Z" fill="none" stroke="#6c297b" stroke-miterlimit="3" stroke-width=".5"/>
  <path id="path15" d="M120.716,168.716l3.09-1.86c-1.07-1.79-2.92-2.83-5-2.83v3.6c.81,0,1.52.44,1.91,1.09Z" fill="#00a28a" stroke="#00a28a" stroke-miterlimit="7.5" stroke-width="1"/>
  <path id="path16" d="M173.676,188.046c-2.16,0-3.92,1.75-3.92,3.92s1.75,3.92,3.92,3.92,3.92-1.75,3.92-3.92-1.75-3.92-3.92-3.92h0Z" fill="none" stroke="#6c297b" stroke-miterlimit="3" stroke-width=".5"/>
  <path id="path17" d="M178.816,189.456c-.97-1.99-2.93-3.21-5.14-3.21v3.6h0c1.17,0,2.12.95,2.12,2.12,0,.84-.49,1.55-1.19,1.9l1.58,3.24c2.84-1.38,4.02-4.81,2.63-7.65h0Z" fill="#00a28a" stroke="#00a28a" stroke-miterlimit="7.5" stroke-width="1"/>
  <path id="path18" d="M246.666,205.526v3.28c1.17,0,2.12.95,2.12,2.12s-.95,2.12-2.12,2.12-2.12-.95-2.12-2.12.95-2.12,2.12-2.12v-3.28c-2.98,0-5.4,2.42-5.4,5.4s2.42,5.4,5.4,5.4,5.4-2.42,5.4-5.4-2.42-5.4-5.4-5.4Z" fill="#00a28a" stroke="#00a28a" stroke-miterlimit="3" stroke-width=".5"/>
  <circle id="circle18" cx="400.916" cy="264.336" r="6.81" fill="none" stroke="#6c297b" stroke-miterlimit="3" stroke-width=".5"/>
  <path id="path19" d="M409.006,261.396c-1.25-3.43-4.44-5.66-8.09-5.66v3.6h0c2.77,0,5.01,2.24,5.01,5.01,0,2.16-1.38,3.99-3.3,4.69l1.24,3.4c4.47-1.63,6.77-6.56,5.14-11.03v-.01Z" fill="#00a28a" stroke="#00a28a" stroke-miterlimit="7.5" stroke-width="1"/>
  <path id="path20" d="M350.266,258.076c-12.23,0-22.14,9.91-22.14,22.14s9.91,22.14,22.14,22.14,22.14-9.91,22.14-22.14-9.91-22.14-22.14-22.14Z" fill="none" stroke="#6c297b" stroke-miterlimit="3" stroke-width=".5"/>
  <path id="path21" d="M369.896,274.956l3.5-.94c-2.83-10.55-12.21-17.75-23.13-17.75v3.6c9.41,0,17.31,6.4,19.63,15.09Z" fill="#00a28a" stroke="#00a28a" stroke-miterlimit="7.5" stroke-width="1"/>
  <circle id="circle21" cx="28.8" cy="88.939" r="7.2" fill="#fff" stroke="#6c297b" stroke-miterlimit="3" stroke-width="1"/>
  <g id="text21" isolation="isolate">
    <text transform="translate(39.6 92.539)" fill="#6c297b" font-family="OpenSans-Bold, &apos;Open Sans&apos;" font-size="10" font-weight="700" isolation="isolate"><tspan x="0" y="0">Total small businesses</tspan></text>
  </g>
  <g id="text25" isolation="isolate">
    <text transform="translate(410.676 259.036)" fill="#6c297b" font-family="OpenSans-Bold, &apos;Open Sans&apos;" font-size="10" font-weight="700" isolation="isolate"><tspan x="0" y="0">18K</tspan></text>
    <text transform="translate(412.977 268.637)" fill="#6c297b" font-family="OpenSans-Italic, &apos;Open Sans&apos;" font-size="8" font-style="italic" font-variation-settings="&apos;wght&apos; 400, &apos;wdth&apos; 100" isolation="isolate"><tspan x="0" y="0">N.L.</tspan></text>
  </g>
  <g id="text26" isolation="isolate">
    <text transform="translate(404.136 305.937)" fill="#6c297b" font-family="OpenSans-Bold, &apos;Open Sans&apos;" font-size="10" font-weight="700" isolation="isolate"><tspan x="0" y="0">6.7K</tspan></text>
  </g>
  <g id="text27" isolation="isolate">
    <text transform="translate(406.156 315.536)" fill="#6c297b" font-family="OpenSans-Italic, &apos;Open Sans&apos;" font-size="8" font-style="italic" font-variation-settings="&apos;wght&apos; 400, &apos;wdth&apos; 100" isolation="isolate"><tspan x="0" y="0">P.E.I.</tspan></text>
  </g>
  <g id="text28" isolation="isolate">
    <text transform="translate(337.506 252.297)" fill="#6c297b" font-family="OpenSans-Italic, &apos;Open Sans&apos;" font-size="8" font-style="italic" font-variation-settings="&apos;wght&apos; 400, &apos;wdth&apos; 100" isolation="isolate"><tspan x="0" y="0">Quebec</tspan></text>
  </g>
  <g id="text29" isolation="isolate">
    <text transform="translate(280.525 357.377)" fill="#6c297b" font-family="OpenSans-Italic, &apos;Open Sans&apos;" font-size="8" font-style="italic" font-variation-settings="&apos;wght&apos; 400, &apos;wdth&apos; 100" isolation="isolate"><tspan x="0" y="0">Ontario</tspan></text>
  </g>
  <g id="text30" isolation="isolate">
    <text transform="translate(282.236 322.076)" fill="#6c297b" font-family="OpenSans-Bold, &apos;Open Sans&apos;" font-size="10" font-weight="700" isolation="isolate"><tspan x="0" y="0">860K</tspan></text>
  </g>
  <g id="text31" isolation="isolate">
    <text transform="translate(192.866 279.586)" fill="#d3d3d3" font-family="OpenSans-Bold, &apos;Open Sans&apos;" font-size="10" font-weight="700" isolation="isolate"><tspan x="0" y="0">41K</tspan></text>
    <text transform="translate(192.866 279.586)" fill="none" font-family="OpenSans-Bold, &apos;Open Sans&apos;" font-size="10" font-weight="700" isolation="isolate" stroke="#d3d3d3" stroke-miterlimit="3" stroke-width="1"><tspan x="0" y="0">41K</tspan></text>
  </g>
  <g id="text32" isolation="isolate">
    <text transform="translate(155.716 246.696)" fill="#6c297b" font-family="OpenSans-Italic, &apos;Open Sans&apos;" font-size="8" font-style="italic" font-variation-settings="&apos;wght&apos; 400, &apos;wdth&apos; 100" isolation="isolate"><tspan x="0" y="0">Alberta</tspan></text>
  </g>
  <g id="text33" isolation="isolate">
    <text transform="translate(87.136 277.017)" fill="#6c297b" font-family="OpenSans-Italic, &apos;Open Sans&apos;" font-size="8" font-style="italic" font-variation-settings="&apos;wght&apos; 400, &apos;wdth&apos; 100" isolation="isolate"><tspan x="0" y="0">British Columbia</tspan></text>
  </g>
  <g id="text37" isolation="isolate">
    <text transform="translate(108.486 185.126)" fill="#6c297b" font-family="OpenSans-Bold, &apos;Open Sans&apos;" font-size="10" font-weight="700" isolation="isolate"><tspan x="0" y="0">1.9K</tspan></text>
    <text transform="translate(108.106 194.727)" fill="#6c297b" font-family="OpenSans-Italic, &apos;Open Sans&apos;" font-size="8" font-style="italic" font-variation-settings="&apos;wght&apos; 400, &apos;wdth&apos; 100" isolation="isolate"><tspan x="0" y="0">Yukon</tspan></text>
  </g>
  <g id="text41" isolation="isolate">
    <text transform="translate(181.356 191.677)" fill="#6c297b" font-family="OpenSans-Bold, &apos;Open Sans&apos;" font-size="10" font-weight="700" isolation="isolate"><tspan x="0" y="0">1.5K</tspan></text>
    <text transform="translate(180.586 201.276)" fill="#6c297b" font-family="OpenSans-Italic, &apos;Open Sans&apos;" font-size="8" font-style="italic" font-variation-settings="&apos;wght&apos; 400, &apos;wdth&apos; 100" isolation="isolate"><tspan x="0" y="0">N.W.T.</tspan></text>
  </g>
  <g id="text45" isolation="isolate">
    <text transform="translate(238.116 227.047)" fill="#6c297b" font-family="OpenSans-Bold, &apos;Open Sans&apos;" font-size="10" font-weight="700" isolation="isolate"><tspan x="0" y="0">860</tspan></text>
    <text transform="translate(231.546 236.646)" fill="#6c297b" font-family="OpenSans-Italic, &apos;Open Sans&apos;" font-size="8" font-style="italic" font-variation-settings="&apos;wght&apos; 400, &apos;wdth&apos; 100" isolation="isolate"><tspan x="0" y="0">Nunavut</tspan></text>
  </g>
  <g id="text46" isolation="isolate">
    <text transform="translate(40.38 114.139)" fill="#00a28a" font-family="OpenSans-Bold, &apos;Open Sans&apos;" font-size="10" font-weight="700" isolation="isolate"><tspan x="0" y="0">% Rural small </tspan></text>
    <text transform="translate(40.38 127.889)" fill="#00a28a" font-family="OpenSans-Bold, &apos;Open Sans&apos;" font-size="10" font-weight="700" isolation="isolate"><tspan x="0" y="0">businesses</tspan></text>
  </g>
  <g id="text50" isolation="isolate">
    <text transform="translate(375.455 107.582)" font-family="OpenSans-Bold, &apos;Open Sans&apos;" font-size="11" font-weight="700" isolation="isolate"><tspan x="0" y="0">are located in </tspan></text>
    <text transform="translate(375.455 121.981)" fill="#00a28a" font-family="OpenSans-Bold, &apos;Open Sans&apos;" font-size="11" font-weight="700" isolation="isolate"><tspan x="0" y="0">rural areas</tspan></text>
  </g>
  <g id="text51" isolation="isolate">
    <text transform="translate(310.117 121.981)" fill="#00a28a" font-family="OpenSans-Bold, &apos;Open Sans&apos;" font-size="29" font-weight="700" isolation="isolate"><tspan x="0" y="0">16%</tspan></text>
  </g>
  <g id="text56" isolation="isolate">
    <text transform="translate(113.166 253.946)" fill="#6c297b" font-family="OpenSans-Bold, &apos;Open Sans&apos;" font-size="10" font-weight="700" isolation="isolate"><tspan x="0" y="0">215K</tspan></text>
  </g>
  <g id="text57" isolation="isolate">
    <text transform="translate(154.826 274.227)" fill="#6c297b" font-family="OpenSans-Bold, &apos;Open Sans&apos;" font-size="10" font-weight="700" isolation="isolate"><tspan x="0" y="0">177K</tspan></text>
  </g>
  <g id="text58" isolation="isolate">
    <text transform="translate(176.096 294.797)" fill="#d3d3d3" font-family="OpenSans-Italic, &apos;Open Sans&apos;" font-size="8" font-style="italic" font-variation-settings="&apos;wght&apos; 400, &apos;wdth&apos; 100" isolation="isolate"><tspan x="0" y="0">Saskatchewan</tspan></text>
    <text transform="translate(176.096 294.797)" fill="none" font-family="OpenSans-Italic, &apos;Open Sans&apos;" font-size="8" font-style="italic" font-variation-settings="&apos;wght&apos; 400, &apos;wdth&apos; 100" isolation="isolate" stroke="#d3d3d3" stroke-miterlimit="3" stroke-width="1"><tspan x="0" y="0">Saskatchewan</tspan></text>
  </g>
  <g id="text59" isolation="isolate">
    <text transform="translate(230.446 273.526)" fill="#d3d3d3" font-family="OpenSans-Bold, &apos;Open Sans&apos;" font-size="10" font-weight="700" isolation="isolate"><tspan x="0" y="0">43K</tspan></text>
    <text transform="translate(230.446 273.526)" fill="none" font-family="OpenSans-Bold, &apos;Open Sans&apos;" font-size="10" font-weight="700" isolation="isolate" stroke="#d3d3d3" stroke-miterlimit="3" stroke-width="1"><tspan x="0" y="0">43K</tspan></text>
  </g>
  <g id="text60" isolation="isolate">
    <text transform="translate(222.416 287.477)" fill="#d3d3d3" font-family="OpenSans-Italic, &apos;Open Sans&apos;" font-size="8" font-style="italic" font-variation-settings="&apos;wght&apos; 400, &apos;wdth&apos; 100" isolation="isolate"><tspan x="0" y="0">Manitoba</tspan></text>
    <text transform="translate(222.416 287.477)" fill="none" font-family="OpenSans-Italic, &apos;Open Sans&apos;" font-size="8" font-style="italic" font-variation-settings="&apos;wght&apos; 400, &apos;wdth&apos; 100" isolation="isolate" stroke="#d3d3d3" stroke-miterlimit="3" stroke-width="1"><tspan x="0" y="0">Manitoba</tspan></text>
  </g>
  <g id="text61" isolation="isolate">
    <text transform="translate(222.416 287.477)" fill="#6c297b" font-family="OpenSans-Italic, &apos;Open Sans&apos;" font-size="8" font-style="italic" font-variation-settings="&apos;wght&apos; 400, &apos;wdth&apos; 100" isolation="isolate"><tspan x="0" y="0">Manitoba</tspan></text>
  </g>
  <g id="text62" isolation="isolate">
    <text transform="translate(176.096 294.797)" fill="#6c297b" font-family="OpenSans-Italic, &apos;Open Sans&apos;" font-size="8" font-style="italic" font-variation-settings="&apos;wght&apos; 400, &apos;wdth&apos; 100" isolation="isolate"><tspan x="0" y="0">Saskatchewan</tspan></text>
  </g>
  <g id="text63" isolation="isolate">
    <text transform="translate(338.906 283.706)" fill="#6c297b" font-family="OpenSans-Bold, &apos;Open Sans&apos;" font-size="10" font-weight="700" isolation="isolate"><tspan x="0" y="0">274K</tspan></text>
  </g>
  <g id="text67" isolation="isolate">
    <text transform="translate(413.076 327.256)" fill="#6c297b" font-family="OpenSans-Bold, &apos;Open Sans&apos;" font-size="10" font-weight="700" isolation="isolate"><tspan x="0" y="0">32K</tspan></text>
    <text transform="translate(415.275 336.856)" fill="#6c297b" font-family="OpenSans-Italic, &apos;Open Sans&apos;" font-size="8" font-style="italic" font-variation-settings="&apos;wght&apos; 400, &apos;wdth&apos; 100" isolation="isolate"><tspan x="0" y="0">N.S.</tspan></text>
  </g>
  <g id="text71" isolation="isolate">
    <text transform="translate(356.816 315.967)" fill="#6c297b" font-family="OpenSans-Bold, &apos;Open Sans&apos;" font-size="10" font-weight="700" isolation="isolate"><tspan x="0" y="0">26K</tspan></text>
    <text transform="translate(358.636 325.566)" fill="#6c297b" font-family="OpenSans-Italic, &apos;Open Sans&apos;" font-size="8" font-style="italic" font-variation-settings="&apos;wght&apos; 400, &apos;wdth&apos; 100" isolation="isolate"><tspan x="0" y="0">N.B.</tspan></text>
  </g>
  <path id="path71" d="M36,111.149c0-3.98-3.22-7.2-7.2-7.2v3.6c1.99,0,3.6,1.61,3.6,3.6,0,.99-.4,1.89-1.05,2.55l2.55,2.55c1.3-1.3,2.11-3.1,2.11-5.09l-.01-.01Z" fill="#00a28a" stroke="#00a28a" stroke-miterlimit="3" stroke-width="1"/>
  <g id="text72" isolation="isolate">
    <text transform="translate(21.6 357.122)" fill="#999" font-family="OpenSans, &apos;Open Sans&apos;" font-size="8" isolation="isolate"><tspan x="0" y="0">Data Source: Statistics Canada (2024) Business Counts </tspan></text>
    <text transform="translate(21.6 367.122)" fill="#999" font-family="OpenSans, &apos;Open Sans&apos;" font-size="8" isolation="isolate"><tspan x="0" y="0">in Rural and Small Town Canada</tspan></text>
  </g>
  <g id="text73" isolation="isolate">
    <text transform="translate(192.866 279.586)" fill="#6c297b" font-family="OpenSans-Bold, &apos;Open Sans&apos;" font-size="10" font-weight="700" isolation="isolate"><tspan x="0" y="0">41K</tspan></text>
  </g>
  <g id="text74" isolation="isolate">
    <text transform="translate(230.446 273.526)" fill="#6c297b" font-family="OpenSans-Bold, &apos;Open Sans&apos;" font-size="10" font-weight="700" isolation="isolate"><tspan x="0" y="0">43K</tspan></text>
  </g>
  <g id="text75" isolation="isolate">
    <text transform="translate(20.96 27.711)" font-family="TradeGothicLT-Bold, &apos;TradeGothic LT Bold&apos;" font-size="17" font-weight="700" isolation="isolate"><tspan x="0" y="0">Small businesses across </tspan></text>
    <text transform="translate(20.96 52.711)" font-family="TradeGothicLT-Bold, &apos;TradeGothic LT Bold&apos;" font-size="17" font-weight="700" isolation="isolate"><tspan x="0" y="0">urban and rural Canada</tspan></text>
  </g>
  <rect id="rect75" x="0" y="14.4" width="14.4" height="14.4" fill="#f1c500"/>
  <path id="path37" d="M0,380.76h489.6" fill="none" stroke="#f1c500" stroke-miterlimit="2.25" stroke-width=".5"/>
  <path id="path37-2" d="M0,.125h489.6" fill="none" stroke="#f1c500" stroke-miterlimit="2.25" stroke-width=".5"/>
  <text transform="translate(311.15 81.182)" font-family="OpenSans-Bold, &apos;Open Sans&apos;" font-size="11" font-weight="700" isolation="isolate"><tspan x="0" y="0">Of the </tspan><tspan x="37.232" y="0" fill="#6c297b">1.34 million small</tspan><tspan x="0" y="13.2" fill="#6c297b">businesses</tspan><tspan x="59.646" y="13.2" xml:space="preserve"> across Canada,</tspan></text>
  <rect id="rect72" x="0" y="14.4" width="14.4" height="14.4" fill="#f1c500"/>
</svg>