<?xml version="1.0" encoding="UTF-8"?>
<svg xmlns="http://www.w3.org/2000/svg" viewBox="0 0 489.6 324">
  <g id="Layer_4" data-name="Layer 4">
    <g>
      <line x1="86.4" y1="104.69" x2="86.4" y2="97.49" fill="none" stroke="#000" stroke-miterlimit="10" stroke-width=".5"/>
      <line x1="123.5" y1="104.69" x2="123.5" y2="97.49" fill="none" stroke="#000" stroke-miterlimit="10" stroke-width=".5"/>
      <line x1="160.6" y1="104.69" x2="160.6" y2="97.49" fill="none" stroke="#000" stroke-miterlimit="10" stroke-width=".5"/>
      <line x1="197.7" y1="104.69" x2="197.7" y2="97.49" fill="none" stroke="#000" stroke-miterlimit="10" stroke-width=".5"/>
      <line x1="234.8" y1="104.69" x2="234.8" y2="97.49" fill="none" stroke="#000" stroke-miterlimit="10" stroke-width=".5"/>
      <line x1="271.9" y1="104.69" x2="271.9" y2="97.49" fill="none" stroke="#000" stroke-miterlimit="10" stroke-width=".5"/>
      <line x1="309.01" y1="104.69" x2="309.01" y2="97.49" fill="none" stroke="#000" stroke-miterlimit="10" stroke-width=".5"/>
      <line x1="346.11" y1="104.69" x2="346.11" y2="97.49" fill="none" stroke="#000" stroke-miterlimit="10" stroke-width=".5"/>
      <line x1="383.21" y1="104.69" x2="383.21" y2="97.49" fill="none" stroke="#000" stroke-miterlimit="10" stroke-width=".5"/>
      <line x1="420.31" y1="104.69" x2="420.31" y2="97.49" fill="none" stroke="#000" stroke-miterlimit="10" stroke-width=".5"/>
      <line x1="457.41" y1="104.69" x2="457.41" y2="97.49" fill="none" stroke="#000" stroke-miterlimit="10" stroke-width=".5"/>
      <line x1="67.79" y1="103.5" x2="67.79" y2="98.68" fill="none" stroke="#000" stroke-miterlimit="10" stroke-width=".5"/>
      <line x1="104.89" y1="103.5" x2="104.89" y2="98.68" fill="none" stroke="#000" stroke-miterlimit="10" stroke-width=".5"/>
      <line x1="141.99" y1="103.5" x2="141.99" y2="98.68" fill="none" stroke="#000" stroke-miterlimit="10" stroke-width=".5"/>
      <line x1="179.09" y1="103.5" x2="179.09" y2="98.68" fill="none" stroke="#000" stroke-miterlimit="10" stroke-width=".5"/>
      <line x1="216.19" y1="103.5" x2="216.19" y2="98.68" fill="none" stroke="#000" stroke-miterlimit="10" stroke-width=".5"/>
      <line x1="253.29" y1="103.5" x2="253.29" y2="98.68" fill="none" stroke="#000" stroke-miterlimit="10" stroke-width=".5"/>
      <line x1="290.39" y1="103.5" x2="290.39" y2="98.68" fill="none" stroke="#000" stroke-miterlimit="10" stroke-width=".5"/>
      <line x1="327.49" y1="103.5" x2="327.49" y2="98.68" fill="none" stroke="#000" stroke-miterlimit="10" stroke-width=".5"/>
      <line x1="364.59" y1="103.5" x2="364.59" y2="98.68" fill="none" stroke="#000" stroke-miterlimit="10" stroke-width=".5"/>
      <line x1="401.7" y1="103.5" x2="401.7" y2="98.68" fill="none" stroke="#000" stroke-miterlimit="10" stroke-width=".5"/>
      <line x1="438.8" y1="103.5" x2="438.8" y2="98.68" fill="none" stroke="#000" stroke-miterlimit="10" stroke-width=".5"/>
    </g>
    <text transform="translate(72.57 92.8)" font-family="OpenSans, &apos;Open Sans&apos;" font-size="12"><tspan x="0" y="0">2002</tspan></text>
    <text transform="translate(146.79 92.8)" font-family="OpenSans, &apos;Open Sans&apos;" font-size="12"><tspan x="0" y="0">2006</tspan></text>
    <text transform="translate(221.01 92.8)" font-family="OpenSans, &apos;Open Sans&apos;" font-size="12"><tspan x="0" y="0">2010</tspan></text>
    <text transform="translate(295.24 92.8)" font-family="OpenSans, &apos;Open Sans&apos;" font-size="12"><tspan x="0" y="0">2014</tspan></text>
    <text transform="translate(369.46 92.8)" font-family="OpenSans, &apos;Open Sans&apos;" font-size="12"><tspan x="0" y="0">2018</tspan></text>
    <text transform="translate(443.69 92.8)" font-family="OpenSans, &apos;Open Sans&apos;" font-size="12"><tspan x="0" y="0">2022</tspan></text>
    <g>
      <text transform="translate(28.8 278.56)" fill="#808285" font-family="OpenSans-Italic, &apos;Open Sans&apos;" font-size="10" font-style="italic" font-variation-settings="&apos;wght&apos; 400, &apos;wdth&apos; 100"><tspan x="0" y="0">-20K</tspan></text>
      <text transform="translate(28.8 252.59)" fill="#808285" font-family="OpenSans-Italic, &apos;Open Sans&apos;" font-size="10" font-style="italic" font-variation-settings="&apos;wght&apos; 400, &apos;wdth&apos; 100"><tspan x="0" y="0">-10K</tspan></text>
      <text transform="translate(28.8 226.63)" fill="#808285" font-family="OpenSans-Italic, &apos;Open Sans&apos;" font-size="10" font-style="italic" font-variation-settings="&apos;wght&apos; 400, &apos;wdth&apos; 100"><tspan x="0" y="0">0</tspan></text>
      <text transform="translate(28.8 200.66)" fill="#808285" font-family="OpenSans-Italic, &apos;Open Sans&apos;" font-size="10" font-style="italic" font-variation-settings="&apos;wght&apos; 400, &apos;wdth&apos; 100"><tspan x="0" y="0">10K</tspan></text>
      <text transform="translate(28.8 174.7)" fill="#808285" font-family="OpenSans-Italic, &apos;Open Sans&apos;" font-size="10" font-style="italic" font-variation-settings="&apos;wght&apos; 400, &apos;wdth&apos; 100"><tspan x="0" y="0">20K</tspan></text>
      <text transform="translate(28.8 148.73)" fill="#808285" font-family="OpenSans-Italic, &apos;Open Sans&apos;" font-size="10" font-style="italic" font-variation-settings="&apos;wght&apos; 400, &apos;wdth&apos; 100"><tspan x="0" y="0">30K</tspan></text>
      <text transform="translate(28.8 122.77)" fill="#808285" font-family="OpenSans-Italic, &apos;Open Sans&apos;" font-size="10" font-style="italic" font-variation-settings="&apos;wght&apos; 400, &apos;wdth&apos; 100"><tspan x="0" y="0">40K</tspan></text>
    </g>
    <g>
      <line x1="28.8" y1="281.41" x2="475.2" y2="281.41" fill="none" stroke="#000" stroke-dasharray=".25 2" stroke-miterlimit="10" stroke-width=".25"/>
      <line x1="28.8" y1="255.44" x2="475.2" y2="255.44" fill="none" stroke="#000" stroke-dasharray=".25 2" stroke-miterlimit="10" stroke-width=".25"/>
      <line x1="28.8" y1="203.51" x2="475.2" y2="203.51" fill="none" stroke="#000" stroke-dasharray=".25 2" stroke-miterlimit="10" stroke-width=".25"/>
      <line x1="28.8" y1="177.55" x2="475.2" y2="177.55" fill="none" stroke="#000" stroke-dasharray=".25 2" stroke-miterlimit="10" stroke-width=".25"/>
      <line x1="28.8" y1="151.58" x2="475.2" y2="151.58" fill="none" stroke="#000" stroke-dasharray=".25 2" stroke-miterlimit="10" stroke-width=".25"/>
      <line x1="28.8" y1="125.62" x2="475.2" y2="125.62" fill="none" stroke="#000" stroke-dasharray=".25 2" stroke-miterlimit="10" stroke-width=".25"/>
    </g>
    <g>
      <rect x="61.05" y="205.2" width="13.36" height="24.28" fill="#00a28a" stroke="#fff" stroke-miterlimit="10" stroke-width=".5"/>
      <rect x="79.61" y="205.44" width="13.36" height="24.04" fill="#00a28a" stroke="#fff" stroke-miterlimit="10" stroke-width=".5"/>
      <rect x="98.16" y="198.37" width="13.36" height="31.11" fill="#00a28a" stroke="#fff" stroke-miterlimit="10" stroke-width=".5"/>
      <rect x="116.72" y="153.19" width="13.36" height="76.28" fill="#00a28a" stroke="#fff" stroke-miterlimit="10" stroke-width=".5"/>
      <rect x="135.28" y="163.4" width="13.36" height="66.08" fill="#00a28a" stroke="#fff" stroke-miterlimit="10" stroke-width=".5"/>
      <rect x="153.83" y="191.86" width="13.36" height="37.62" fill="#00a28a" stroke="#fff" stroke-miterlimit="10" stroke-width=".5"/>
      <rect x="172.39" y="145.61" width="13.36" height="83.87" fill="#00a28a" stroke="#fff" stroke-miterlimit="10" stroke-width=".5"/>
      <rect x="190.94" y="181.47" width="13.36" height="48.01" fill="#00a28a" stroke="#fff" stroke-miterlimit="10" stroke-width=".5"/>
      <rect x="209.5" y="221.69" width="13.36" height="7.79" fill="#00a28a" stroke="#fff" stroke-miterlimit="10" stroke-width=".5"/>
      <rect x="228.06" y="195.28" width="13.36" height="34.2" fill="#00a28a" stroke="#fff" stroke-miterlimit="10" stroke-width=".5"/>
      <rect x="246.61" y="190.4" width="13.36" height="39.08" fill="#00a28a" stroke="#fff" stroke-miterlimit="10" stroke-width=".5"/>
      <rect x="265.17" y="190.64" width="13.36" height="38.84" fill="#00a28a" stroke="#fff" stroke-miterlimit="10" stroke-width=".5"/>
      <rect x="283.72" y="205.18" width="13.36" height="24.3" fill="#00a28a" stroke="#fff" stroke-miterlimit="10" stroke-width=".5"/>
      <rect x="302.28" y="192.35" width="13.36" height="37.13" fill="#00a28a" stroke="#fff" stroke-miterlimit="10" stroke-width=".5"/>
      <rect x="320.84" y="207.2" width="13.36" height="22.28" fill="#00a28a" stroke="#fff" stroke-miterlimit="10" stroke-width=".5"/>
      <rect x="339.39" y="227.82" width="13.36" height="1.66" fill="#00a28a" stroke="#fff" stroke-miterlimit="10" stroke-width=".5"/>
      <rect x="357.95" y="191.8" width="13.36" height="37.67" fill="#00a28a" stroke="#fff" stroke-miterlimit="10" stroke-width=".5"/>
      <rect x="376.5" y="192.61" width="13.36" height="36.87" fill="#00a28a" stroke="#fff" stroke-miterlimit="10" stroke-width=".5"/>
      <rect x="395.06" y="159.79" width="13.36" height="69.69" fill="#00a28a" stroke="#fff" stroke-miterlimit="10" stroke-width=".5"/>
      <rect x="413.62" y="229.48" width="13.36" height="71.53" fill="#ab2069" stroke="#fff" stroke-miterlimit="10" stroke-width=".5"/>
      <rect x="432.17" y="172.41" width="13.36" height="57.07" fill="#00a28a" stroke="#fff" stroke-miterlimit="10" stroke-width=".5"/>
      <rect x="450.73" y="126.24" width="13.36" height="103.24" fill="#00a28a" stroke="#fff" stroke-miterlimit="10" stroke-width=".5"/>
    </g>
    <line x1="28.8" y1="229.48" x2="475.2" y2="229.48" fill="none" stroke="#000" stroke-miterlimit="10"/>
    <rect x="211.97" y="135.76" width="125.42" height="30.54" fill="#fff"/>
    <rect x="281.69" y="257.91" width="124.48" height="30.54" fill="#fff"/>
    <polygon points="422.4 231.27 420.3 232.32 418.19 231.27 420.3 236.51 422.4 231.27" fill="#fff"/>
    <text transform="translate(210.87 147.2)" fill="#00a28a" font-family="OpenSans-BoldItalic, &apos;Open Sans&apos;" font-size="12" font-style="italic" font-weight="700"><tspan x="0" y="0">More small businesses</tspan><tspan x="5.04" y="14.4">opening than closing</tspan></text>
    <text transform="translate(280.12 269.35)" fill="#ab2069" font-family="OpenSans-BoldItalic, &apos;Open Sans&apos;" font-size="12" font-style="italic" font-weight="700"><tspan x="0" y="0">More small businesses</tspan><tspan x="5.04" y="14.4">closing than opening</tspan></text>
  </g>
  <g id="Layer_7" data-name="Layer 7">
    <text transform="translate(21.6 36)" font-family="TradeGothicLT-Bold, &apos;TradeGothic LT Bold&apos;" font-size="20" font-weight="700"><tspan x="0" y="0">Net change in small employer businesses in </tspan><tspan x="0" y="24">the private sector across Canada</tspan></text>
    <rect x="0" y="21.6" width="14.4" height="14.4"/>
    <path id="path37" d="M0,324h489.6" fill="none" stroke="#231f20" stroke-miterlimit="3"/>
    <path id="path37-2" data-name="path37" d="M0,0h489.6" fill="none" stroke="#231f20" stroke-miterlimit="3"/>
    <text transform="translate(21.6 316.8)" fill="#999" font-family="OpenSans, &apos;Open Sans&apos;" font-size="8"><tspan x="0" y="0">Data source: Statistics Canada (2024) Longitudinal Employment Analysis Program</tspan></text>
  </g>
</svg>