<?xml version="1.0" encoding="UTF-8"?>
<svg id="svg43" xmlns="http://www.w3.org/2000/svg" width="3.4in" height="3.4in" viewBox="0 0 244.8 244.8">
  <rect id="rect44" x="0" width="244.8" height="244.3" fill="#fff"/>
  <polyline id="polyline1" points="225.368 145.415 175.515 145.415 175.515 160.668" fill="none" stroke="#7d2f8e" stroke-miterlimit="11.282" stroke-width=".564"/>
  <polyline id="polyline2" points="217.561 126.789 170.844 126.789 170.844 148.574" fill="none" stroke="#6c297b" stroke-miterlimit="11.282" stroke-width=".564"/>
  <g id="g3">
    <path id="path2" d="M174.116,144.151c-.767-2.234-1.625-4.445-2.629-6.701l-.643.282v10.842-10.842l-17.25,7.683c2.065,4.614,3.554,9.544,4.355,14.7l17.554-2.775v-8.585c-.417-1.546-.869-3.08-1.388-4.603h0Z" fill="#6c297b" stroke="#fff" stroke-miterlimit="11.282" stroke-width=".564"/>
    <path id="path3" d="M175.515,148.754v8.585l1.783-.282c-.451-2.877-1.06-5.618-1.783-8.303Z" fill="#6c297b" stroke="#fff" stroke-miterlimit="11.282" stroke-width=".564"/>
  </g>
  <polyline id="polyline3" points="230.107 183.209 175.864 183.209 175.864 168.035" fill="none" stroke="#8cbf3f" stroke-miterlimit="11.282" stroke-width=".564"/>
  <line id="line3" x1="175.763" y1="165.384" x2="230.4" y2="165.384" fill="none" stroke="#00a28a" stroke-miterlimit="7.5" stroke-width=".564"/>
  <path id="path4" d="M175.763,165.384h2.403c-.023-.496-.056-.982-.09-1.546l-19.551,1.365c.045.677.079,1.365.102,2.042l19.585-.688c-.011-.429-.034-.812-.045-1.185h-2.403v.011Z" fill="#00a28a" stroke="#fff" stroke-miterlimit="7.5" stroke-width=".564"/>
  <polyline id="polyline4" points="163.477 89.762 133.705 89.762 133.705 106.617" fill="none" stroke="#4a1c55" stroke-miterlimit="11.282" stroke-width=".564"/>
  <g id="text7" isolation="isolate">
    <text transform="translate(171.408 97.558)" fill="#5b2368" font-family="OpenSans-Bold, &apos;Open Sans&apos;" font-size="9.025" font-weight="700" isolation="isolate"><tspan x="0" y="0">10 to 19</tspan></text>
    <text transform="translate(175.909 104.327)" fill="#5b2368" font-family="OpenSans-Bold, &apos;Open Sans&apos;" font-size="5.641" font-weight="700" isolation="isolate"><tspan x="0" y="0">employees</tspan></text>
  </g>
  <g id="text11" isolation="isolate">
    <text transform="translate(182.724 118.102)" fill="#6c297b" font-family="OpenSans-Bold, &apos;Open Sans&apos;" font-size="9.025" font-weight="700" isolation="isolate"><tspan x="0" y="0">20 to 49</tspan></text>
    <text transform="translate(187.225 124.871)" fill="#6c297b" font-family="OpenSans-Bold, &apos;Open Sans&apos;" font-size="5.641" font-weight="700" isolation="isolate"><tspan x="0" y="0">employees</tspan></text>
  </g>
  <g id="text15" isolation="isolate">
    <text transform="translate(190.53 136.649)" fill="#7d2f8e" font-family="OpenSans-Bold, &apos;Open Sans&apos;" font-size="9.025" font-weight="700" isolation="isolate"><tspan x="0" y="0">50 to 99</tspan></text>
    <text transform="translate(195.032 143.418)" fill="#7d2f8e" font-family="OpenSans-Bold, &apos;Open Sans&apos;" font-size="5.641" font-weight="700" isolation="isolate"><tspan x="0" y="0">employees</tspan></text>
  </g>
  <g id="text19" isolation="isolate">
    <text transform="translate(209.461 174.589)" fill="#8cbf3f" font-family="OpenSans-Bold, &apos;Open Sans&apos;" font-size="9.025" font-weight="700" isolation="isolate"><tspan x="0" y="0">200+</tspan></text>
    <text transform="translate(199.771 181.358)" fill="#8cbf3f" font-family="OpenSans-Bold, &apos;Open Sans&apos;" font-size="5.641" font-weight="700" isolation="isolate"><tspan x="0" y="0">employees</tspan></text>
  </g>
  <g id="text23" isolation="isolate">
    <text transform="translate(29.936 88.397)" fill="#3a1642" font-family="OpenSans-Bold, &apos;Open Sans&apos;" font-size="9.025" font-weight="700" isolation="isolate"><tspan x="0" y="0">1 to 4</tspan></text>
    <text transform="translate(24.114 95.166)" fill="#3a1642" font-family="OpenSans-Bold, &apos;Open Sans&apos;" font-size="5.641" font-weight="700" isolation="isolate"><tspan x="0" y="0">employees</tspan></text>
  </g>
  <polyline id="polyline23" points="24.374 97.05 54.451 97.05 54.451 113.691" fill="none" stroke="#3a1642" stroke-miterlimit="11.282" stroke-width=".564"/>
  <path id="path23" d="M99.938,90.992c-16.968,0-32.672,5.393-45.488,14.565v8.134-8.134c-19.878,14.192-32.818,37.455-32.818,63.753h19.574c0-32.435,26.298-58.733,58.733-58.733,4.186,0,8.281.44,12.218,1.275l4.073-19.145c-5.675-1.207-10.492-1.715-16.291-1.715Z" fill="#3a1642" stroke="#fff" stroke-miterlimit="7.5" stroke-width=".564"/>
  <circle id="circle23" cx="54.451" cy="113.691" r=".463" fill="#fff" stroke="#fff" stroke-miterlimit="7.5" stroke-width=".564"/>
  <g id="text27" isolation="isolate">
    <text transform="translate(138.962 81.064)" fill="#4a1c55" font-family="OpenSans-Bold, &apos;Open Sans&apos;" font-size="9.025" font-weight="700" isolation="isolate"><tspan x="0" y="0">5 to 9</tspan></text>
    <text transform="translate(133.141 87.833)" fill="#4a1c55" font-family="OpenSans-Bold, &apos;Open Sans&apos;" font-size="5.641" font-weight="700" isolation="isolate"><tspan x="0" y="0">employees</tspan></text>
  </g>
  <path id="path27" d="M133.705,98.461v8.168-8.168c-5.359-2.516-11.112-4.4-17.487-5.765l-4.073,19.145c10.966,2.324,20.803,7.705,28.577,15.219l13.617-14.091c-6.51-6.284-13.2-11.011-20.634-14.508h0Z" fill="#4a1c55" stroke="#fff" stroke-miterlimit="7.5" stroke-width=".564"/>
  <circle id="circle27" cx="133.705" cy="106.617" r=".463" fill="#fff" stroke="#fff" stroke-miterlimit="7.5" stroke-width=".564"/>
  <path id="path28" d="M177.297,157.046l-1.783.282v3.328-3.328l-17.554,2.775c.259,1.67.44,3.373.564,5.088l19.551-1.365c-.124-1.805-.282-3.373-.519-5.043-.079-.564-.158-1.139-.259-1.749v.011Z" fill="#7d2f8e" stroke="#fff" stroke-miterlimit="7.5" stroke-width=".564"/>
  <path id="path29" d="M178.245,167.933c0-.474-.023-.891-.034-1.365l-19.585.688c.011.338.023.677.023,1.027,0,.338.023.677.023,1.027h17.182v-1.264,1.264h2.392c0-.214,0-1.151-.011-1.365l.011-.011Z" fill="#8cbf3f" stroke="#fff" stroke-miterlimit="7.5" stroke-width=".564"/>
  <circle id="circle29" cx="170.844" cy="148.574" r=".463" fill="#fff" stroke="#fff" stroke-miterlimit="7.5" stroke-width=".564"/>
  <circle id="circle30" cx="175.515" cy="160.668" r=".463" fill="#fff" stroke="#fff" stroke-miterlimit="7.5" stroke-width=".564"/>
  <circle id="circle31" cx="175.763" cy="165.384" r=".463" fill="#fff" stroke="#fff" stroke-miterlimit="7.5" stroke-width=".564"/>
  <circle id="circle32" cx="175.864" cy="168.012" r=".463" fill="#fff" stroke="#fff" stroke-miterlimit="7.5" stroke-width=".564"/>
  <polyline id="polyline32" points="206.246 106.234 158.897 106.234 158.897 129.688" fill="none" stroke="#5b2368" stroke-miterlimit="11.282" stroke-width=".564"/>
  <g id="g33">
    <path id="path32" d="M170.844,136.085v1.647l.643-.282c-.203-.463-.429-.914-.643-1.365Z" fill="#5b2368" stroke="#fff" stroke-miterlimit="11.282" stroke-width=".564"/>
    <path id="path33" d="M164.605,125.006c-.677-.982-1.376-1.94-2.098-2.899-1.139-1.489-2.335-2.956-3.61-4.389v11.97-11.97c-1.421-1.602-2.922-3.181-4.547-4.75l-13.617,14.091c5.381,5.201,9.77,11.417,12.861,18.355l17.25-7.683v-1.647c-1.861-4.005-3.903-7.66-6.239-11.079Z" fill="#5b2368" stroke="#fff" stroke-miterlimit="11.282" stroke-width=".564"/>
  </g>
  <circle id="circle33" cx="158.897" cy="129.688" r=".463" fill="#fff" stroke="#fff" stroke-miterlimit="7.5" stroke-width=".564"/>
  <g id="text36" isolation="isolate">
    <text transform="translate(185.454 156.651)" fill="#00a28a" font-family="OpenSans-Bold, &apos;Open Sans&apos;" font-size="9.025" font-weight="700" isolation="isolate"><tspan x="0" y="0">100 to 199</tspan></text>
    <text transform="translate(200.278 163.42)" fill="#00a28a" font-family="OpenSans-Bold, &apos;Open Sans&apos;" font-size="5.641" font-weight="700" isolation="isolate"><tspan x="0" y="0">employees</tspan></text>
  </g>
  <g id="text38" isolation="isolate">
    <text transform="translate(21.632 194.118)" font-family="OpenSans-Bold, &apos;Open Sans&apos;" font-size="15" font-weight="700" isolation="isolate"><tspan x="0" y="0">are</tspan></text>
    <text transform="translate(50.705 194.118)" fill="#6c297b" font-family="OpenSans-Bold, &apos;Open Sans&apos;" font-size="15" font-weight="700" isolation="isolate"><tspan x="0" y="0">small businesses</tspan></text>
  </g>
  <g id="text39" isolation="isolate">
    <text transform="translate(57.474 168.926)" fill="#6c297b" font-family="OpenSans-Bold, &apos;Open Sans&apos;" font-size="41.742" font-weight="700" isolation="isolate"><tspan x="0" y="0">98%</tspan></text>
  </g>
  <g id="g40">
    <path id="path39" d="M155.794,165.722c-1.647-29.378-25.993-52.697-55.777-52.697s-55.867,25.012-55.867,55.867" fill="none" stroke="#6c297b" stroke-linecap="square" stroke-miterlimit="11.282" stroke-width=".564"/>
    <path id="path40" d="M156.855,165.666c.034.587-.417,1.083-1.004,1.117s-1.083-.417-1.117-1.004.417-1.083,1.004-1.117,1.083.417,1.117,1.004Z" fill="#6c297b"/>
  </g>
  <g id="text41" isolation="isolate">
    <text transform="translate(20.815 221.035)" fill="#999" font-family="OpenSans, &apos;Open Sans&apos;" font-size="8" isolation="isolate"><tspan x="0" y="0">Data sources: Statistics Canada (2025) Business Register,</tspan></text>
    <text transform="translate(20.815 230.635)" fill="#999" font-family="OpenSans, &apos;Open Sans&apos;" font-size="8" isolation="isolate"><tspan x="0" y="0">Business Counts in Rural and Small Town Canada</tspan></text>
  </g>
  <g id="text43" isolation="isolate">
    <text transform="translate(21.6 27.711)" font-family="TradeGothicLT-Bold, &apos;TradeGothic LT Bold&apos;" font-size="17" font-weight="700" isolation="isolate"><tspan x="0" y="0">There are 1.37 million</tspan></text>
    <text transform="translate(21.6 51.711)" font-family="TradeGothicLT-Bold, &apos;TradeGothic LT Bold&apos;" font-size="17" font-weight="700" isolation="isolate"><tspan x="0" y="0">businesses in Canada</tspan></text>
  </g>
  <rect id="rect43" x="0" y="14.4" width="14.4" height="14.4"/>
  <path id="path37" d="M0,244.3h244.8" fill="none" stroke="#f1c500" stroke-miterlimit="10"/>
  <path id="path37-2" d="M0,.5h244.8" fill="none" stroke="#f1c500" stroke-miterlimit="10"/>
  <rect id="rect72" x="0" y="14.4" width="14.4" height="14.4" fill="#f1c500"/>
  <rect id="rect72-2" data-name="rect72" x="0" y="14.4" width="14.4" height="14.4" fill="#f1c500"/>
</svg>