<?xml version="1.0" encoding="UTF-8"?>
<svg id="svg22" xmlns="http://www.w3.org/2000/svg" width="3.4in" height="3.4in" viewBox="0 0 244.8 244.8">
  <g id="text8-6" isolation="isolate">
    <g isolation="isolate">
      <g isolation="isolate">
        <text transform="translate(196.6 195.8)" fill="#7773b2" font-family="OpenSans-BoldItalic, &apos;Open Sans&apos;" font-size="8" font-style="italic" font-weight="700" isolation="isolate"><tspan x="0" y="0">22</tspan></text>
      </g>
    </g>
    <g isolation="isolate">
      <g isolation="isolate">
        <text transform="translate(196.6 195.8)" fill="none" font-family="OpenSans-BoldItalic, &apos;Open Sans&apos;" font-size="8" font-style="italic" font-weight="700" isolation="isolate" stroke="#7773b2" stroke-miterlimit="7.5" stroke-width=".7"><tspan x="0" y="0">22</tspan></text>
      </g>
    </g>
  </g>
  <g id="g2031">
    <path id="CA-ON-5" d="M149.7,223.8c.2-.4.4-.5.9-.6.4,0,.8-.2.9-.3.3-.2.5-1.5.2-1.6-.2,0-.2-.2,0-.5,0-.2.2-.6.3-1,0-.4.3-.8.4-.9.6-.4,1.2-1.5,1.1-2.1v-2.1c0-1.4,0-1.5.6-2.6l.6-1.1-.3-.7c-.2-.4-.5-.9-.7-1.1-.4-.3-.5-.8-.2-.8s.6.5,1.2,1.1c1,1,1.9,1.6,2.9,1.9,1,.3,1.5-1.4.8-2.4-.5-.7-2.4-2.8-2.9-3.2-.2-.1-.9-.3-1.5-.4-.6,0-1.6-.3-2.2-.4-.7-.2-1.7-.3-3.6-.3s-2.7,0-2.9-.4c-.1-.2-.7-.6-1.2-.9-.8-.4-1-.6-1-1,0-.3-.2-.7-.5-1-.4-.5-.5-.6-.2-.6.4-.2.4-.5,0-1.2-.2-.3-.5-.9-.7-1.3-.3-.7-.4-.8-1-.9-.7-.1-2.6-1-3-1.5-.1-.1-.3-.5-.3-.9s-.1-.9-.2-1.2v-.5h-1.6c-1.3,0-1.5,0-2.5-.4l-1-.5-.7.5c-.7.4-.7.5-.5.8.2.2.2.4-.9,1.1-.7.4-1.5,1.1-1.8,1.5-.7.8-.8.8-3.4.4-.7-.1-1.9-.2-2.6-.2-1.2,0-2.4-.5-2.4-.8s-.2-.1-.5-.1-.7-.2-1.1-.6c-.467-.4-1.233-.6-2.3-.6-1.6,0-1.7,0-1.9-.2-.1-.1-.6-.3-1-.4-1-.2-1.1-.3-1.2-1.6-.1-1-.2-1.1-.7-1.4-.4-.2-.6-.633-.6-1.3,0-1.1.2-5.9.3-7.7,0-.6.1-2.4.2-3.9.1-3.6-.2-3,4.1-7.4.9-.9,2.1-2.3,2.8-3s1.2-1.4,1.3-1.5,1.1-1.3,2.3-2.7,2.5-3,3-3.5c2.4-2.7,3.5-3.9,3.8-4.3l.4-.4.6.3c.7.4,1.9,1.5,1.9,1.8s.3.4.6.8c.4.4.9.6,1.7.8.7.1,1.2.4,1.6.7.5.5,1,.6,1.8.7.2,0,.8.4,1.3.9l1,.9h3.3c2.9.2,3.5.3,4.1.6l.7.4v1.6c-.2.9-.3,1.6-.4,1.7,0,0,0,.4.2.7s.4.9.4,1.4c.2,1.4.2,1.6.4,1.9,0,.2.1.7.1,1.1,0,.7,0,1,.5,1.7.7,1.1,2.8,3.7,3.1,3.7.4,0,1.6,1.5,1.9,2.4l.3,1h1.1l1.1-.2v.9c.3,1.5.4,2.1.5,3.2,0,.5.1,1.2.2,1.4,0,.2.1.9.2,1.5s.1,1.3.2,1.5c0,.6.2,2,.4,3.1,0,.5.1,1.2.2,1.5.3,2.1.4,3.6.5,4.5,0,.6.4,1.6.6,2.3.4,1,.7,1.3,1.6,1.9,1.2.8,2.8,1.4,4.4,1.6.7,0,1.3.3,1.9.6.4.3,1,.5,1.2.5s.6.3.8.7l.5.7h1.5c1.3-.2,1.7-.3,2.7-.8,1.1-.6,2-.9,2.1-.6,0,.3.1.7.2,1.1,0,.3,0,.5-.6,1-1.1,1-2,1.9-3.4,3.6-.7.9-1.3,1.6-1.4,1.6-.3,0-1,.7-.9.9.2.3-1.2.9-2.4.9-2.1,0-5.2,1.3-5.9,2.4-.6,1.1-.6,1.3,0,1.6.3.1.8.2,1,.2.3,0,.4,0,.6.5.3.7.2.8-1,.8s-2.7.7-3.2,1.2c-.2.2-.2.3.2.6l.4.3h-.5c-.3.2-.8.2-1.3,0-1.7-.4-2.1-.2-4.2,2-1.2,1.2-1.5,1.4-2,1.5-.6.2-1.5.2-1.8,0l.3-.5h0l.1-.4h0Z" fill="#1e3864"/>
    <path id="path1053" d="M146.4,205.4h2c.6,0,.2.4.8.5.6.2.3-.4.7-.4.4-.1,1.4-.2,1.9-.1.5.2-.2.5,0,.7.3.2.8-.7.9-.4.2.2-.9,1.9-.9,1.9-3.5-1.7-5.6-1.8-5.6-2.2h.2Z" fill="#1e3864"/>
  </g>
  <path id="CA-AB" d="M61.9,184.2c-9.6-2.5-8.6-2.1-9.1-3.4l-.5-1.1.4-2c.4-2.1.4-2.6-.2-3.7-.2-.4-.7-1.4-1.2-2.3-.4-.9-1-2.1-1.2-2.8-.2-.6-.6-1.5-.9-1.9-.3-.4-.6-1.1-.6-1.4,0-.4-.3-.9-.6-1.2s-.5-.7-.5-.8-.2-.4-.4-.7-.4-1-.5-1.7c-.1-.8-.3-1.4-.6-1.8-.2-.3-.5-.8-.6-1.1s-.5-.7-.8-.9c-.6-.4-.9-1.1-.5-1.3.1,0,.2-.6.2-1.1,0-1,1.2-4.4,9.2-26.3l.7-2,4,1.3c2.2.7,5.5,1.8,7.4,2.3,1.9.5,5.2,1.5,7.3,2.1,2.2.6,3.9,1.2,4,1.2.1.1-.5,2.7-.7,2.9-.1,0-.4.2-.6.2-.4.1-2.3,2-2.3,2.3,0,.1.3.3.6.5.6.3.7.3,1.1,0,.3-.2.6-.5.6-.7s.2-.3.2-.3c0,0-.2,1.4-.6,3-.9,3.8-1.9,7.9-3.3,13.6-.6,2.5-1.3,5.4-1.5,6.4-1.2,5-2.3,9.4-2.8,11.8-3,12.7-2.8,11.7-3,11.7,0,0-1.2-.3-2.6-.7h0l-.1-.1Z" fill="#7773b2"/>
  <g id="CA-BC">
    <path id="path1060" d="M23.9,174.8c-1.1-.7-2.9-3-2.9-3.7s-.1-.6-.5-.7c-.5-.2-.9-.9-1.2-2,0-.3-.3-.8-.5-1.2-.2-.3-.5-1-.7-1.4s-.6-1.3-1-2-.8-1.6-1-2.3c-.1-.6-.3-1.4-.5-1.7-.133-.4-.033-.733.3-1,.3-.2.7-.4.9-.4.4,0,1.4,1,3.2,3,.5.6,1.1,1.2,1.2,1.3s.5.6.8,1,.7.8.7.9c.2.2.7,1.8.8,2.8.1,1,.2,1.3,1,2.3,1,1.4,1.1,1.6,1.3,3,0,.6.2,1.4.4,1.7.1.4.2.7.1.8-.2.2-1.8,0-2.4-.3h0v-.1h0Z" fill="#424d8b"/>
    <path id="path1062" d="M52.3,181.6c-.2,0-3.8-1.2-6.7-2.1-1-.3-11.4-4.2-15.8-5.9-.7-.3-1.6-.6-1.9-.7-.7-.2-.8-.4-.8-1.3s-.1-.8-.4-1c-1-.9-1.4-1.3-1.4-1.6s0-.4-.2-.4c-.4,0-1.1-1-1.2-1.8-.2-1.3-.8-2.5-1.8-3.6-.667-.667-.967-1.267-.9-1.8,0-.7,0-.9-.2-.9s-.3,0-.3-.1c0,0-.4-.4-.9-.6s-.9-.6-.9-.7v-.6c-.1-.5-.1-.8,0-2.7,0-1.6,0-1.7.6-2.1.5-.4.5-.5.3-1-.1-.3-.2-.9-.2-1.3s-.2-1-.7-1.7c-.6-.9-.7-1.1-.6-1.6,0-.3.3-.8.5-.9.4-.3.4-.6-.2-1.8-.3-.6-.4-1.1-.4-3s0-2.3.5-2.8c.2-.2.9-.6,1.4-.8,1.3-.5,2.3-1.4,2.3-2.1s.4-1.6,1.1-2.3c.5-.6.6-.7.6-1.7s0-1.1-.5-1.6c-.6-.6-1.7-2.6-2-3.7-.2-.7-.1-1.1.3-2.8.4-1.8.5-2.1.3-3-.1-.6-.2-1.8-.3-2.7,0-.9-.1-1.9-.2-2.1,0-.2-.1-.7-.2-1.1,0-.4-.3-1.7-.6-2.9s-.6-2.4-.6-2.6-.3-.5-.8-.7c-1.3-.5-1.4-.5-1.8,0-.2.4-.6.6-1.4.9-.6.2-1.4.5-1.8.7-.4.2-.7.3-.8.3s0-.3.1-.6c.2-.9,0-3-.3-3.6-.4-.6-.3-2.2,0-2.1.1,0,1.9,1.2,4,2.5,5.7,3.7,11.9,7.5,14.9,9.1,1.5.8,2.8,1.5,2.9,1.5.5.3,6,3.1,8.1,4.1,1.3.6,4.1,1.7,6.2,2.5,2.1.8,3.9,1.5,4,1.6v.6c-.1.2-1,2.8-2.1,5.7s-2.2,6.1-2.6,7.2c-4.1,11.3-5,13.8-5,14.7s-.1,1.1-.3,1.3c-.4.6-.2,1.3.5,1.8.8.5,1.9,2.5,2,3.8,0,.7.3,1.3.6,1.8.3.4.5.9.5,1s.2.4.4.6c.2.2.5.8.6,1.3s.3.9.4,1c.2.1,1,1.7,1.1,2.3,0,.3.7,1.7,1.4,3.1.7,1.5,1.3,2.8,1.3,3.1s-.1,1.3-.3,2.2c-.3,1.7-.3,2.5.2,3.2.3.4.3.6,0,.5h0Z" fill="#424d8b"/>
    <path id="path1064" d="M11.2,147.8c-.7-1.7-1-3.7-.9-6.6,0-1.7.2-2.7.3-2.8s.2-.4.2-.6c0-.5.8-.4,1.5,0,.9.6,2,1.7,2,2s-.7,1-1.6,1.9c-1.9,2-1.9,2.1-1.2,4.7.2.9.4,1.8.4,1.9,0,.6-.5.3-.9-.6h0l.2.1h0Z" fill="#424d8b"/>
  </g>
  <path id="CA-MB" d="M96.6,137.2v1.1c-.2.6-.3,1.3-.3,1.4s-.1.7-.2,1.3c0,.5-.2,1.1-.2,1.3,0,.1-.2,1.3-.4,2.6-.3,2.2-.3,2.3,0,2.8s.3.5-.2,1.1c-.3.4-.6.8-.7.9-.1.2-.3,1.3-.3,2.6s-.1,2.7-.2,3c0,.4-.1,1.4-.2,2.3,0,.9-.1,2.1-.2,2.7-.2,2.5-.3,3.5-.4,4.8,0,.8-.1,1.8-.2,2.3,0,.5-.1,1.7-.2,2.7,0,1-.1,2.1-.2,2.5,0,.4-.1,1.6-.2,2.6,0,1-.1,2.2-.2,2.5,0,.3-.1,1.6-.2,2.7,0,1.1-.1,2.2-.2,2.3,0,.5-.3,4.5-.3,5.7v1.2l1.1.1c1.7.2,3.4.4,3.8.4.2,0,.9.1,1.4.2,1,.1,1.6.2,3.2.4.5,0,1.8.2,2.7.2s2.5.1,3.5.2h1.8l.1-.8c0-.5.1-1.8.2-3,0-1.2.1-2.7.2-3.4,0-.7.1-2.5.2-3.9.2-5.1.2-5.6.7-6.4.2-.4,1.5-1.8,2.8-3.2s2.8-3,3.2-3.5c.4-.5.9-1,1-1.1,1.7-1.9,2.6-2.9,3.5-4,.6-.7,1.7-1.9,2.4-2.7s1.5-1.7,1.8-2.1c.3-.4,1-1.1,1.5-1.7.5-.6.9-1.1.9-1.2,0-.2-.9-.6-1.8-.7-1.2-.2-1.6-.3-1.8-.6-.2-.2-.5-.3-1.3-.3-.6,0-1.1.1-1.2.2-.1.2-2.2.5-2.6.3-.2,0-.2-.2-.1-.5.1-.4.1-.6-.4-3-.4-1.7-.5-2.2-.6-3.2-.1-1.1-.6-1.5-2.5-1.9-1.2-.2-1.6-.4-1.8-.7-.2-.4-.2-1.8,0-3.7v-1.2c.1,0-.8,0-.8,0h-1.1s-.7,0-1.5-.2c-.7,0-1.5-.2-1.6-.2s-.8-.1-1.5-.2c-.7,0-1.4-.2-1.6-.2s-.9-.1-1.5-.2c-.6,0-1.7-.2-2.5-.3s-1.9-.2-2.5-.3c-.6,0-1.5-.1-1.9-.2h-.8l.4.2h0ZM101.7,168c.7,0,1.1.3,1.5,1,.2.4.4.8.5.8.3.2,1.1,2.4,1,2.7,0,.2.2,1.1.6,1.8.1.2.2.8.2,1.3,0,1,.6,3.2,1.1,4.2.2.4.3,1,.4,2.2,0,1.133-.133,1.733-.4,1.8-.2,0-.6.2-.8.5-.4.5-.7.5-1.1.2-.3-.3-.2-1.6.2-2.1.1-.2.3-.6.3-.9s.2-.6.3-.8c.4-.4.3-.9,0-1.1-.3-.2-.4-.2-.6.1-.2.4-.7.5-.7.1s0-.5.2-.8c.5-1.3-.3-2.5-1.4-2.1-.5.2-.6.1-.9-.2-.2-.2-.5-.8-.6-1.2-.2-.5-.5-1.1-.7-1.4-.3-.4-.4-.8-.4-1.1,0-.5,0-.6-.8-1-1.2-.6-1.6-.4-1.7.6v1.6c-.133,1.667.067,2.667.6,3,1.6,1.3,1.7,1.4,1.9,2.5.1.6.2,1.4.2,1.7,0,.4.2,1.1.5,1.6.6,1.2.6,2.1,0,2.3s-.8.1-1,0c-.1-.2-.6-2.5-1-4.4-.2-1.1-.5-1.5-1.7-2.3-1-.6-1.5-1.1-1.4-1.5v-.6c0-.2.1-.4.3-.6s.2-.7.2-1.4-.2-1.3-.7-1.6c-.8-.4-1-.8-1-1.5s0-.5.4-.5c.7,0,.9-.6.4-1.1-.2-.2-.4-.5-.4-.6,0-.2.8-.6,1.3-.6.4,0,1.4.9,1.4,1.3s.2.5.4.7l.4.4.2-.6c.4-1.1,1.1-2,1.7-2.2h.7l.4-.2h0Z" fill="#7773b2"/>
  <path id="CA-NB" d="M199.8,200c-.4-.1-.9-.7-1.2-1.3-.1-.3-.4-.5-.6-.6-.7-.2-1.9-3.2-1.9-4.9s-.1-.9-.4-1.2c-.7-.7-1.6-1.1-2.2-1.1h-.6v-1.1c-.1-.6-.1-1.2,0-1.3,0,0,.6-.1,1.2-.1,1.3,0,2-.2,2.8-.9.3-.3,1.1-.6,1.9-.9,1.2-.3,1.4-.3,2,0s.7.3,1-.1c.7-.8,2.8-1.4,2.8-.8s-.1.4-.3.7c-.4.7-.3,2.2,0,2.7.2.2.4.7.5,1,0,.4.4.9,1,1.4.8.8.9.8,1.9.8s1.1,0,1.2.1c0,0-.3.5-.8,1s-1.1,1.4-1.3,1.9c-.6,1.3-2.9,3.6-3.6,3.6s-.6.1-.7.5c-.4.7-1.5,1.1-2.7.8h0v-.2h0Z" fill="#7773b2"/>
  <g id="CA-NL">
    <path id="path1069" d="M219.8,180.3c-.5-.6-.5-1.4,0-2.1.6-.8.6-1.7.1-1.8s-.4-.5,0-1.3c.3-.6.4-.8.3-2.2-.2-2.5-.1-5.4.2-8.4,0-.2,0-1,.2-1.8.2-1.6.5-2.3,1.8-3.2.7-.5.9-.6,1.1-.4.7.6.8,1.2.7,3.4,0,1.2-.1,2.2-.2,2.3s-.1.6-.2,1.2v1.1c-.1,0,.3-.5.3-.5.2-.3.5-.6.5-.7,0-.3.8-.3,1.3-.1.7.2.7.3.6,1.2v.6h.9c.5,0,1,0,1-.2s.5-.3,1-.4c.5-.1,1.3-.4,1.8-.6.9-.4,1.7-.4,2.4,0,.4.2.6,1.2.3,1.6-.2.3-.2.4.1.7s.5.3,1.3.2c1.1-.2,1.3-.1,1.3.5s-.4,1.2-1,1.7c-.2.2-.2.3-.1.3s.2.3.2.6,0,.7.1.9c.1.3.4.4.4,0s.9-1.4,1.2-1.4.3.3.5.7c.2.8.5.9,1.2.3.3-.2.6-.3.7-.2,0,0,.2.7.2,1.3v1.9c0,1-.7,2-1.4,2.1-.4,0-.6,0-.8-.4-.2-.6-.4-.6-.7,0-.5.9-.9.3-1.1-1.6-.2-1.4-.4-1.9-.7-1.9s-.2.3-.2.7c0,.5-.1.8-.7,1.3-.6.6-.7.8-.9,2-.2,1.7-.7,2.2-2.1,2.2-1.2,0-1.3-.2-.4-1.1.5-.5.6-.7.6-1.3s0-.7-.4-.5c-.7.4-1.5.5-1.7.3s-.5,0-2.3,1c-.5.3-1.2.6-1.5.7-.3,0-.8.1-1.1.2s-1.4.4-2.4.8-1.9.8-2,.8-.4-.2-.6-.4h0l.2-.1h0Z" fill="#bdb2d8"/>
    <path id="path1071" d="M197.5,167.4s-.4,0-.7-.1-.8-.2-1-.4c-.3-.2-.6-.3-1.4-.2-1.3.1-1.5,0-1.6-.6-.2-1.1-.2-1.3-.2-1.5,0-.1-.1-.3-.3-.5s-.3-.2-.9,0c-.3.2-.8.4-1,.4-.4,0-1.1-.6-.8-.8.2-.1.2-1.2,0-1.8,0-.2-.4-.5-.8-.7-1.3-.5-2.7-2.7-2.3-3.5.1-.2.3-.4.4-.4.2,0,.5-.7.6-1.3,0-.2.2-.5.4-.6.2-.2.5-.5.6-.8.2-.4.2-.5,1-.3.4,0,1,.3,1.2.5.6.4,1.3.3,1.7-.3.3-.5.4-.5,1.3-.4.5,0,1,.1,1.2.1s.3.1.2.6c0,.3-.1.6-.1.7-.8.5-1.4,1.1-1.5,1.3,0,.2-.3.5-.6.7-.6.4-.7.6-.2,1.1.4.4,1.5.2,1.8-.2.4-.6,1.3-.9,2-.7.8.2,1.5,0,1.9-.9.3-.7.4-1.6,0-1.9,0,0-.3,0-.5.2s-.6.4-1,.4c-1.3,0-1.5-.4-.6-1.9.3-.6.5-1.2.5-1.4,0-.5-.6-1.9-1-2.2-.2-.1-.3-.4-.3-.5,0-.5-.9-2.1-1.5-2.6-.4-.3-.6-.7-.7-1.3,0-.4-.2-1.3-.3-1.9-.1-.6-.2-1.7-.2-2.3,0-1.3-.3-2.1-1-2.2-.2,0-.7-.3-1-.5-.6-.4-.8-.9-.3-1.6.2-.3.2-.5.1-.8-.2-.4-.2-.6,0-1.6.1-.6,0-.6-1.6-.6-.4,0-.7,0-.6,0,0,0,0-.7-.2-1.4-.2-1-.4-1.3-.6-1.3s-.4-.2-.5-.4c-.2-.4-1-3.1-.9-3.2.2-.2,2.3,1.7,3,2.7.4.6.9,1.1,1.1,1.1s.5.2.7.5.6.7,1,.9.7.7,1,1.3c.2.6.5.9.7.9s.5.3.7.6c.3.5.6.6,1.1.7.6.1.8.2,1.1.9.2.4.4,1.1.5,1.5,0,.7.2.7.9,1,.4.1,1,.4,1.1.6.3.3.3.4,0,1.2-.2.7-.2,1,0,1.3.1.2.3.6.3.9,0,.4.4.5,2,1.1,1.1.4,2.1.7,2.3.7s.6.3,1,.7l.7.7h1.6c.9.1,1.9.3,2.3.4.7.3,1.1.2,1.7-.4.2-.2.5-.1,1.5.1.7.2,1.4.4,1.4.5.2.4,0,1-.6,1.2-.3.1-.9.7-1.5,1.3-.5.6-1.2,1.3-1.5,1.6s-.9,1-1.4,1.5c-.9.9-1.3,2-.8,2.1.4.1,2.2-1.8,2.3-2.5,0-.4.5-1.1,1.5-2.1,1.2-1.3,1.4-1.5,2-1.5s.7.1,1.1.6c.3.5.5.6.9.5.8-.2,1.7-.2,2.2.2.2.2.9.6,1.5.9s1.1.6,1.1.6c0,0,0,.2-.2.5-.3.7,0,1.7.8,2.5s1.3,1.9,1.3,2.3-1.2,2.2-1.8,2.8l-.5.6-.7-.9c-.4-.5-.8-1-.9-1.1,0,0-.5,0-.8.2s-1.1.4-1.6.5-1.5.4-2.2.7-2.2.8-3.3,1.3-2.3.9-2.8,1.1c-1.7.7-5.4,2-6.1,2.1-.6.1-.9,0-1.7-.4-.6-.3-1.1-.4-1.2-.4s-.2.4-.2.8c0,.9-.2,2.5-.3,2.6-.1.2-1,.3-1.1.2h0l.1-.1h0Z" fill="#bdb2d8"/>
  </g>
  <g id="CA-NS">
    <path id="path1074" d="M205.9,205.8c-1-.2-1.6-.8-2-2.3-.2-.7-.2-1.1-.1-1.5.3-.7,1.5-2.4,2.2-3.3.4-.4.8-.9.9-1.1s.4-.4.7-.4c.5-.1,2.1-1.2,2.1-1.4s-.8.1-1.8.7c-1.6,1-1.4-.6.4-2.7.8-.9,1-1,1.5-1,1.7,0,3.6-.2,4.2-.7.4-.3.8-.4.9-.3.2,0,.7.1,1.1.2,1,0,1.7.4,2,1.1.2.4.1.5-1,1.6l-1.4,1.4c-.6.7-2.2,1.9-2.6,2-.2,0-.6.5-.9,1-.5.8-.6.9-1.1.8-.5,0-.6,0-.8.4-.1.2-.2.5-.2.6s-.2.8-.5,1.5c-.4,1-.8,1.6-1.7,2.5-.6.7-1.2,1.2-1.2,1.2,0,0-.4,0-.9-.2h0l.2-.1h0Z" fill="#7773b2"/>
    <path id="path1076" d="M218,192.2c-.1-.1-.7-.6-1.1-1.2-.6-.7-.8-1-.7-1.2.1-.1.4-1,.7-1.9.6-1.8,1.2-3.1,1.5-3.1s.7.8.7,1.4c0,1,.2,1.4.7,1.5.6.2,1.5,1,1.5,1.4s-.2.8-.6,1.2c-.4.6-.7.9-1,.9s-.6.2-.8.5c-.4.6-.5.6-.9.3h0v.2h0Z" fill="#7773b2"/>
  </g>
  <g id="CA-NT">
    <path id="path1079" d="M46.3,67.1c-.3,0-.7,0-1.4.1-1,.1-1.9.2-2,.3-.2,0-.2.3-.1,1,.1,1-.1,1.3-.6.6-.2-.2-.4-.4-.4-.4-.3,0-2.9,4.7-3.4,6.2-.3.9-.7,1.8-.8,2-.4.6-.3.8.9,1.6,2.5,1.7,2.6,1.9,1.5,4-.4.7-.7,1.7-.8,2.1,0,.7,0,.8.6,1.3.4.3.7.6.6.7s-.1.6-.1,1.2c0,1.1-.2,1.5-1,1.6-.5.1-.8.6-.8,1.2s0,.5-.2.5-.2.2-.3.5c0,.3,0,.6.2.9s.4.6.4,1.2.2,1.2.4,1.7c.3.6.4,1.1.3,1.5,0,.4,0,.8.3,1.3.267.467.267,1.067,0,1.8-.4,1.4-.9,3.8-1,5.3,0,.7-.1,1.4-.2,1.6,0,.2,0,.5.3.8.5.6.8,1.2,1.1,2.5.3,1.1.6,1.9,1.1,2.5l.4.4-.4.4c-.2.3-.4.6-.4,1.1s0,.8-.2,1c-.2.3,0,.4,1,.9.6.3,1.4.7,1.8,1,.5.4.8.4,1.3.4.7-.1.7-.3.7,2.6v2.2l2,.8c6.4,2.6,13.9,5.2,21.2,7.2,2.1.6,5,1.5,6.4,1.9s2.8.8,3.1.9,1.8.3,3.2.6c1.5.3,2.9.6,3.2.6s1.3.2,2.3.4,2.1.4,2.4.4,1.7.3,3,.6c2.8.6,3.8.7,3.9.3v-.6c0-.2.1-1,.2-1.9s.1-1.8.2-2,.1-1,.2-1.6c.2-1.8.4-4.7.5-5.6,0-.3.1-1.3.2-2.1s.1-1.7.2-1.9.1-1,.2-1.8c0-.8.2-2.2.3-3s.1-1.6,0-1.6-1.2-.8-2.7-1.5c-3-1.6-6-3.2-8.3-4.4l-1.6-.9-1.1-1.8-1.1-1.8-2-.4-2-.4-1.7-2.3c-1-1.3-2.5-3.3-3.3-4.6-.9-1.2-2.6-3.6-3.9-5.3-1.3-1.7-2.4-3.3-2.6-3.5-.2-.4-.2-.5.4-2.1,1.467-3.867,1.833-6.3,1.1-7.3-.3-.4-.6-.9-.6-1s0-.1-.2-.1-.4-.1-.7-.3c-.3-.2-.8-.4-1.2-.4-.6,0-.8,0-1.5.5-.6.5-.8.6-1.2.4-.6-.2-.6-.4,0-1,.3-.3.5-.6.4-.7,0-.1-.1-.6-.1-1.1,0-1.6-.2-1.6-1.8,0-.8.8-1.4,1.4-1.5,1.4s-.7-.6-.7-.8v-2.5c0-1.533-.167-2.367-.5-2.5-.6-.3-.9-.3-1.5.2-.3.3-.7.4-1.3.3-.6,0-.8-.1-.7-.2,0-.1.2-.4.2-.7,0-.4,0-.5-.7-.9-.8-.4-2.1-.5-3.2-.2-.2,0-1.3.2-2.3.2-1.4,0-1.9.2-2,.4,0,.1-.4.2-.7.2-.333,0-.5-.267-.5-.8,0-.9,0-1.1-.7-1.1h0l.3-.2h0ZM61.1,92.2c4.7,0,5,0,5,.8s-.4.6-.9,1c-.6.5-.8.8-.7.9.2.2,2.7,1.2,3.9,1.6.8.2.9.3.7.8-.1.6-.4,1-.6,1s-.5.2-.9.5l-.7.5-1-.5c-.6-.3-1.2-.6-1.4-.7-.4-.2-.7,0-1.1,1.2-.4,1.1-.4,1.2-1.8,1.6-.6.2-1.2.4-1.3.4-.3,0-.2-.5.3-1.1,1.1-1.2,1-1.2.4-1.2s-.8.2-1.1.5c-.9.7-1.6.9-2.4.4-.4-.2-.8-.6-.9-.8-.2-.4-.1-.5,1.1-1.6.7-.7,1.6-1.4,2.1-1.6.4-.2.8-.5.9-.7.1-.5-.6-1.1-1.4-1.1-.4,0-1.2-.2-1.8-.4-1-.3-1.2-.5-1.2-.8,0-.2,0-.5.1-.6.1,0,2.2-.1,4.7-.1h0ZM67.2,115.2s.4.4.7.8c.3.4.9,1.1,1.2,1.4,1,.9,1.7,1.7,2.1,2.4.4.6.5.7,1.6,1s1.3.3,2.2,0c.7-.2,1.2-.5,1.4-.8.5-.7,1.2-1,2.3-1.1.6,0,1,.1.9.4,0,.7-.8,1.5-1.5,1.7-.4.1-1,.5-1.4.9s-1.3,1-1.9,1.3-1.5.7-1.8.9c-.4.2-.9.3-1.1.3-.3,0-.6,0-1,.4-.3.3-.9.6-1.3.8s-.9.3-1.2.2c-3.3-.3-3.6-.4-5.2-1.9-1.4-1.3-1.4-1.7,0-1.7s1.2,0,1.3.2c.4.2.9,0,1.6-.7.4-.4.6-.4,1.2-.4.8,0,1.2-.2,1.2-.8s-.7-2.6-1.4-4c-.5-1-.6-1.5-.2-1.5h0l.3.2h0Z" fill="#ecebe9"/>
    <path id="path1081" d="M86.3,80.9c-1.3-.4-3.3-1-4.5-1.3s-2.8-.8-3.6-1c-1.3-.4-1.4-.4-.8-.5h2.6c1.6,0,2.1.2,2.8.5.8.4,3,1.1,3.1.9s-.4-.5-1-1.1c-1.1-1.1-2-1.5-2.8-1.5s-3.5-.7-4.6-1.2c-.8-.3-.9-.4-1.2-1.4-.2-.6-.3-1.2-.3-1.3,0-.2.8-.5,3.2-1.1l.8-.2h-.6c-.3-.2-.9-.3-1.1-.3-.5,0-1.1-.9-1-1.3,0-.1,0-.3-.1-.4-.1,0-.4-.4-.5-.6-.4-.7-.3-1.3.5-2.1.7-.8,1-1.2,1-1.7,0-.9,2.7-2.4,5.3-2.9,1-.2,2.1-.4,2.6-.5.8-.1.8,0,1,.4.2.6,0,1.7-.5,2.7-.2.4-.3.8-.3.8,0,0,.5-.2.9-.6l.8-.7,1.1.6c.6.4,1.3.8,1.6,1l.4.4-.4.9-.4.9.7-.2c.4,0,.8-.2.9-.3s0-.5-.1-.9l-.2-.8c.8-.5,1-.6,1.1-.5,0,.2-3.8,15.8-4,16,0,0-1.1-.2-2.4-.6h0v-.1Z" fill="#ecebe9"/>
    <path id="path1083" d="M68.6,69.2c0-.1-.2-.9-.3-1.8-.2-1.4-.3-1.7-1.2-3.2-.6-.9-1-1.8-1-1.9,0-.3.5-.9,1.1-1.2.2-.2.9-1,1.4-1.9s1.1-1.8,1.3-1.9c.2-.2.9-1.1,1.7-2.1,1.3-1.7,1.3-1.8,1.3-2.8v-1.3c0-.3.5-.9.8-.8.1,0,.5.1.9.1s1.1.2,1.6.4,1.3.5,1.7.6c.6.1.8.3,1,.8.1.3.6,1,1.2,1.6.667.667,1.333,1,2,1,1.5,0,1.7.2,2.5,2.7,1.1,3.3.9,3.6-1.8,4.2-1.3.3-2.5.8-2.8,1.2,0,0-.3.2-.6.3-.3.1-.8.4-1,.6s-1,.8-1.6,1.3c-1,.7-1.3,1.1-1.8,2.1-.4.7-.8,1.3-1,1.4s-.4.2-.4.2c0,0-.2,0-1.5.3-.2,0-1.1.1-1.8.2-1.1,0-1.4,0-1.5-.1,0,0-.2,0-.2,0Z" fill="#ecebe9"/>
    <path id="path1085" d="M89.3,55.8c-.4-.5-.8-1.1-.8-1.2,0-.4.7-.9,1.8-1.1,1.8-.4,2.3-1,.9-1s-.8,0-1.1-.4c-.2-.267-.433-.3-.7-.1-.4.4-1.5.5-1.9.2-.5-.3-2.2-2.3-2.3-2.8-.1-.4.3-1.1.8-1.1s.2,0,.2-.1c0-.6.2-.9.6-1.3.2-.3.5-.6.5-.8,0-.5,1-1.7,1.4-1.7s.4-.2.6-.4c.2-.4.4-.4,1.2-.4,1.1,0,1.8.5,1.8,1.4s.1.7.7,1.1c.9.6,1.3,1.5,1.4,2.9,0,1.3.3,1.6,1.1,1.6s.9.1.3,2.5c-.4,1.7-.6,2.3-.8,2.3s-.7.3-1.3.7c-1,.7-1.1.7-2.3.7h-1.3l-.8-.9h0v-.1h0Z" fill="#ecebe9"/>
    <path id="path1087" d="M83.8,47.8c-.2,0-.4-.4-.5-.7-.2-.9.1-1.4,1.5-1.9,1.2-.5,1.6-.5,1.8-.2.3.4.2.9-.5,1.4-.3.3-.9.7-1.3,1.1s-.7.6-.7.6h-.4s.1-.3.1-.3Z" fill="#ecebe9"/>
    <path id="path1089" d="M82.2,44.8c-.2-.2-.3-.5-.3-.7,0-.267-.333-.4-1-.4-1.6,0-2.1-.8-1.3-2,.3-.4.6-.6,1.2-.8.4-.1,1.2-.4,1.7-.7s.9-.4,1-.4c0,0,.7-.4,1.4-1.1,1.6-1.5,1.9-1.7,3.3-1.6h1.6c.5,0,1.3.3,1.5.7.3.9,0,1.9-.9,2.4-.2.1-.3.5-.4,1.1,0,.9-.1,1-.9,1.4-.4.2-.9.6-1,.8-.2.4-.8.6-1.2.4-.4-.3-.3-1.5,0-1.9.2-.2.4-.4.4-.4,0-.2-.7.4-2.4,2.1-1.7,1.7-2.2,1.9-2.8,1.3h0l.1-.2h0Z" fill="#ecebe9"/>
    <path id="path1091" d="M96.1,39.9c-.6-.2-.8-.5-1.1-1.3-.2-.5-.4-1.1-.4-1.2s-.2-.3-.4-.5c-1-.6-1.4-2.3-.6-2.3s.9.5.9.9.2.2.6.1c.8-.2,3.9-.3,4.2-.2.2,0,.2.3,0,.9,0,.4-.2.9-.2,1.1-.3,1.4-.5,2.1-.8,2.3-.4.4-1.4.5-2.2,0h0v.2Z" fill="#ecebe9"/>
    <path id="path1093" d="M99.3,34.7s-.2-.2-.5-.4c-.3-.1-.7-.4-.8-.6-.2-.2-.4-.3-.8-.2h-.6c-.3-.4,1.1-1.6,1.5-1.3,0,0,.3,0,.4-.1.2-.2,1.6-.2,1.8,0,.2.2-.6,2.8-.8,2.8-.1,0-.2,0-.2-.1h0v-.1Z" fill="#ecebe9"/>
  </g>
  <g id="CA-NU">
    <path id="path1096" d="M100.1,91.3c-.9-.2-2.2-1-3.2-1.8-.3-.2-.8-.6-1.2-.8s-.7-.4-.7-.6v-.5c0-.4-.8-.4-.9,0-.2.5-1.1.9-2.3,1-.6,0-1.2.2-1.3.3-.5.5-1.5.7-4.1.5-3.8-.2-4.9-.4-5-.9v-1c0-.4-.1-1.2-.2-1.8,0-1.2-.4-1.6-1.4-1.8-1.1-.2-3.2-1.7-3.2-2.3s0-.2,0-.3-.2-.8-.4-1.6-.3-1.5-.3-1.6,0-.1,7.8,2.2c3,.9,5.5,1.6,5.6,1.6s1-3.7,2-8c1.1-4.4,2-8.1,2.1-8.2,0-.1.4.5.8,1.5.7,1.7.7,1.8.6,3.5,0,2,.1,2.6.7,2,.3-.3.4-.6.3-1.7,0-.7,0-2.3-.1-3.5v-2.2l.5-.6c.5-.6.6-.6,1.3-.4.4,0,.9.4,1.1.7.2.2.233.2.1,0-.2-.2-.4-.7-.4-1-.2-.8.4-1.4,1.4-1.6,1-.2,1.7.1,2.4,1.1.7.9.5,1.6-.7,3.2l-1,1.2v2.2c0,2.5.2,4,.6,5,.2.6.2.8-.2,1.7-.3.7-.4,1.1-.3,1.6.2,1,1.3,2.5,2.9,3.8,1.9,1.6,2.6,2.8,2.2,3.9-.133.333-.533.467-1.2.4-.6,0-1.1-.2-1.2-.3s-.3-.2-.4-.2c-.5,0-.4.6.2,1.5,1,1.5.8,2.5-.7,3.2-.6.4-1.3.4-2.2.2h0v.4h0Z" fill="#ecebe9"/>
    <path id="path1098" d="M149.9,172.4c-.9-.4-1.1-.5-1.1-.9s0-.5,1.3-.7c.8,0,.9,0,1.4.5.7.7.6,1.5,0,1.5-.2,0-1-.2-1.6-.4h0Z" fill="#ecebe9"/>
    <path id="path1100" d="M112.5,138.4s-.7-.1-1.5-.2-1.5-.1-1.5-.2-.7-.1-1.5-.2c-.8,0-1.5-.1-1.5-.2s-.6-.1-1.3-.2c-.6,0-1.5-.2-2-.2-1.7-.2-2.3-.2-4.3-.4-2.1-.2-2.4-.3-2.3-.5,0,0,.1-.9.2-1.8s.1-1.8.2-2,.1-1,.2-1.8.1-1.7.2-2c0-.2.1-1,.2-1.7.1-1.5.2-2.9.4-4,0-.4.1-1.2.2-1.7.3-3.2.4-4,.6-5.7,0-.6.1-1.3.1-1.5,0-.3-.2-.5-1.4-1.2-1.8-1-5.1-2.7-7.8-4.1-1.1-.6-2.4-1.3-2.8-1.5-.7-.4-1.1-.8-2.4-3.1l-.6-1-2-.4-2-.4-1-1.4c-.6-.8-2.6-3.6-4.6-6.4s-4.1-5.7-4.7-6.4c-.6-.8-1-1.5-1-1.6,0-.2,2.3-6.6,2.4-6.7.2-.3,1.9,1.3,2.7,2.4.5.7,1.8,1.8,2.6,2.2.4.2.6.2.9,0s.5-.1,1.2.4l1.1,1.1c.4.6,1.1,2.1,1.1,2.5s-.5.7-1.4.9c-1,.1-1.8.5-1.8.9s.2.4.4.8c.3.5.7.7,2.2,1.1,2.8.9,3.4,1,4.7.7.6-.1,1.4-.3,1.6-.4.4-.2.5-.2.8.2.2.2.8,1.1,1.4,1.8,1.4,1.8,1.9,2.7,1.8,3.4,0,.4,0,.5.1.3s.1-1,0-2.1v-1.8c-.1,0,1.8-1,1.8-1,1.1-.5,1.9-1.1,2-1.3,0-.2-.233-.2-.7,0-.4.2-1.2.4-1.7.6-.9.2-1,.2-1.4-.1-1.2-.9-.2-2.6,1.6-2.7.4,0,1.1-.2,1.6-.3s1.1-.3,1.4-.2c.6,0,1.1.7,1.1,1.5,0,.3.2.8.3,1.2.4.9,1.8,2.2,2.3,2.2h1c.1,0,.5.5,1,1.2l.7,1.1h1.1c.6.2,1.6.2,2.3.2s1.8.2,2.4.4c.7.2,1.3.4,1.3.4v-.6c0-.3.2-1,.3-1.3s.3-.9.3-1.2c0-.4,0-.5.8-.4,1,.1,2.1.5,3.3,1.1.5.2,1,.5,1,.5,0,0-.6,2.5-1,3.6,0,.1.1.3.3.4.2,0,.5.4.6.8l.2.6v-.5c.2-.3.1-.7,0-1.1-.2-.3-.3-1-.3-1.8,0-1.3.2-1.6.8-1.4s1.9-.5,2.5-1.3c.4-.6.5-.9.5-1.8s0-1.1-.4-1.3c-.4-.4-.5-1.7-.1-2,.3-.3-.8-1.3-1.8-1.6-.6-.2-.9-.4-1.4-1.2-.5-.8-.6-1.1-.6-2s0-1.2.2-1.4c.1-.3,0-.6-.3-1.5l-.5-1.1.3-1c.3-.8.5-1.1,1.1-1.4.467-.267.667-.533.6-.8-.2-.4-.1-.5.4-1.2,1.4-1.7,1.3-1.6,1.9-1.5.4,0,.7.3.8.6.1.3.5.8.9,1.1,1.2,1.1,1.4,1.5,1.5,3.2,0,1.5,0,1.6,1,3.1,1.1,1.9,1.2,2.9.3,2.5-.267-.067-.367.067-.3.4,0,.3,0,.9-.2,1.3-.133.467-.067.8.2,1,.3.3.5.3,1.1.1.7-.2,1.3,0,2.7.5.6.2.6.3.4.5-.1.1-.6.3-1.1.4-1.3.2-1.4.5-.5,1.7.7,1,.8,1.5.9,2.9,0,.8.3,0,.4-1.2.2-1.9.4-2.4,1.2-2.7l.6-.3,1.2,1.3c.8.9,1.3,1.5,1.4,2.1.3,1.1.2,1.8-.2,2.2s-.4.6-.4.9c0,.5.3,1.7.5,1.8,0,0,.4.5.7,1s.6,1,.7,1c.3,0,1-.6,1.1-1,0-.2.2-.9.3-1.5,0-.6.2-1.3.4-1.6.1-.3.4-1.1.6-1.8s.6-1.6.9-2.1c.6-1,.7-1.3.2-1.9-.4-.4-1-2.6-.8-3.2.2-.8.6-1,1.6-1s1.2.1,2,.5c.6.3,1.2.5,1.4.5s.6.3.9.6c.3.3.9.8,1.3,1,.8.4,1.4,1,1.4,1.3,0,0-.1.2-.3.4-.2.133-.2.367,0,.7.2.3.4.8.5,1.2.1.6,0,.7-.4.8-.3.1-.6.4-.7.6-.1.2-.4.4-.6.4-.5,0-.4.3,0,1,.2.3.5.8.6,1.1,0,.4.3.7.7,1,1.3.9,1.3,2.7,0,4.8-1.5,2.6-1.6,2.7-2.4,2.6-.4,0-.9-.2-1.2-.4l-.5-.3.3.7c.3.8.1,1.1-.5.9s-.9-.2-1.2,0c-.2.2-.4.2-.9,0-.3-.1-.7-.4-.9-.6-.2-.3-.4-.4-1-.3-.4,0-.9.2-1,.3-.3.1-.2.2.3.8.6.6.6.7.5,1.4,0,.5-.4,1.1-1.1,1.9-.5.6-1,1.3-1.1,1.6,0,.2-.2.4-.3.4s0,.2.3.4c.4.3.5.5.4,1.1,0,.4-.2.9-.3,1.2s-.4.7-.6,1c-.2.3-.7,1.2-1.1,1.9-.9,1.6-1.2,1.8-2.9,1.8s-1.6.2-1.7,1.3c0,.4-.3.6-.9.6-.4,0-1,0-1.3-.1-.7-.2-.8.1,0,.6.3.2.6.4.6.4.2.1.2,1.6,0,2.1-.2.7-.9,1.1-2.1,1.1-1.4,0-1.3,0-1,.5.133.267,0,.6-.4,1-.9.9-1.9,2.3-2.4,3.2-.2.4-.6,1-.8,1.2-.5.4-.9,1.2-.9,1.6s-.4,1.2-.9,2.3c-.8,1.6-.9,2.1-.9,2.9v1h-1.7,0Z" fill="#ecebe9"/>
    <path id="path1102" d="M148.7,128.5c-1-.6-.9-2.3,0-3.4.4-.4.9-.4,1.4,0s.3,2.6-.4,3.3c-.3.3-.7.3-1.1,0l.1.1Z" fill="#ecebe9"/>
    <path id="path1104" d="M139.4,126.5c-.4-.8.2-2.5,1-3.1.7-.5.9-.5,2.3-.5.8,0,.9,0,1.1.6.2.5.2.6-.3,1.4-.8,1.2-1.8,1.9-3,1.9-.8,0-1,0-1.1-.3h0Z" fill="#ecebe9"/>
    <path id="path1106" d="M135.4,122.6c-.2,0-.3-.2-.3-.9s0-1-.2-1.1c-.1-.1-.7-.2-1.2-.2-2.1,0-2.4-.5-1.3-1.8.7-.7.8-1.1.8-2.1-.1-3.5,0-4.6.7-7.4.2-.9.3-.9.9-1,.5-.1.7,0,1,.4.2.3.6.8.7,1.3.3.6.4.8.9.8s1.1.4,2.1,1.1c.8.6,2,1.4,2.6,1.8s1.1.9,1.1,1,.2.6.4,1,.4.9.4,1c0,.3.1.3,1,.2.8,0,1,0,1.6.4s.6.6.6,1.1c0,.9-.2,1.1-1,1.5-.4.2-.9.3-1.5,0-.5-.2-1-.3-1.5-.3s-.7,0-1-.3c-.2-.2-.4-.6-.3-.7,0-.5-1.5-1.3-1.9-1-.1.1-.3.4-.3.6,0,.6-.3,1.3-.9,1.9-.3.3-.7.7-.9,1-.6.8-1.3,1.5-1.4,1.5h-1.2l.1.2h0Z" fill="#ecebe9"/>
    <path id="path1108" d="M111.9,94.4c-.6-.2-1.4-.7-2.1-1.4-.3-.3-.6-.5-.7-.5-.4,0-1.2-.8-1.2-1.1s2.8-4.3,3.2-4.3,2.1,1.7,2.6,2.7c.7,1.5,1.2,2.9,1.2,3.4s-.2.6-.7,1c-.7.4-1.3.5-2.3.2h0Z" fill="#ecebe9"/>
    <path id="path1110" d="M178.3,121.4s-1.2-.1-2.5-.2c-1.9,0-2.5-.2-2.8-.4-.2-.2-.6-.5-1-.8-.5-.4-.7-.5-1.5-.4-1,0-1.6-.1-3.4-1-1.1-.5-1.3-.7-1.5-1.3-.2-.6-.2-.7,0-.9.3-.2.4-.5.1-.5s-.6-.3-1.1-.6c-.5-.3-1.1-.7-1.4-.7s-.6-.3-.8-.6c-.4-.8-1.3-1.3-2.3-1.4-.8,0-1,0-1.3.3s-.6.4-1.2.4-.9.1-1.5.7l-.8.7h-1.5c-2.5,0-3-.4-3.3-2.7,0-.8,0-.9.5-1.4.4-.4.6-.7.6-1.2s.1-.7.3-.8c.2,0,1.3-.2,2.4-.2,1.9,0,2.2,0,2.7-.4.8-.6,1.6-1,2.1-1s.4,0,.3-.4c-.1-.5-.2-.9-.3-1.1,0,0-.3-.3-.8-.6-.467-.333-.667-.733-.6-1.2,0-.4.2-.9.4-1.2.1-.3.7-1.3,1.2-2.3l.9-1.8-.4-1.3c-.3-1.2-1.4-2.9-2.3-3.6-.2-.1-.5-.6-.7-.9-.2-.4-.8-.9-1.3-1.2-.7-.4-.9-.6-1-1.1-.1-.6-.2-.6-.7-.6-.3,0-.6.2-.8.3-.1.1-.6.4-1,.6-.6.3-.8.3-1,.1-.3-.4,0-1,.6-1.6.5-.5.6-.5.2-.8-.4-.3-.7-.3-1.4,0-.7.4-1.1.2-1.1-.4s.1-.6.4-.7c.3-.1.3-.2-.5-1-1.5-1.4-2.3-2.1-2.5-2-.1,0-.2.4-.2.7v.6h-4.8c-1,0-1.2,0-1.2.3s-.2.3-1.5.3c-.8,0-2.4,0-3.4-.2h-2.5c-.8.2-1.4-.1-1.7-1.1-.2-.5-.3-.6-.7-.6-2.1.2-2.2.2-2.8-.2-1.2-.9-2.1-2.3-2.1-3.1s.2-.4.8-.4c.5,0,1.2-.1,1.6-.1.6,0,.7,0,.5-.2-.4-.4-1.4-.6-2.2-.6s-.8,0-.9-.3c-.3-.8-.6-2.3-.5-3,.2-3.7.3-4.1,1.1-6.3,1.1-3.3,1.9-4.8,3-5.4,1.6-1,4.2-.7,4.5.5.1.4,0,.6-.5,1.2-.4.4-.7,1-.7,1.4s-.2.9-.4,1.1c-.3.5-.8,2.4-.6,2.6,0,0,.1.8.2,1.5,0,1.5.1,1.7.6,1.7s.4-.2.4-.5.2-.6.4-.8c.2-.3.2-.4,0-.6-.4-.6-.6-1.2-.6-2.1,0-.7,0-.9.4-1.2.2-.2.4-.4.5-.6,0-.2.2-.3.3-.3s.2-.2.2-.4c0-.6,1.4-2.6,2.1-3,.8-.4,2.5-.8,3-.6.3.1.6.6,1.7,2.6.7,1.3,1.2,2.7,1.1,3-.1.5.5,1.4,1.1,1.4s.7,0,1.1-.2c.6-.2.7-.2.6-.5-.2-.6.9-1.5,2.2-1.8,1-.2,1.1-.2,1.7.1.3.2.8.4,1.1.4.6,0,1.3.7,1.5,1.3.2.6.6,1.1,1,1.1s.3.2.4.7c0,.4.2.7.3.7s.6.4,1.1,1c.8.8,1,.9,1.1.7,0-.2.2-.6.4-.9.3-.6.4-.7,2-.1.6.2.8.4,1.1,1.2.2.5.6,1,.9,1.2.3.2.6.5.7.7.4.7.8.8,1.3.4.6-.4,1-.4,2.1.4.7.5.8.6.6,1-.3,1.2-.3,1.5,0,1.4.1,0,.4-.3.6-.5.4-.7,1-.6,1.9.3.8.9,1.2,1.5,1.2,2,0,1,.1,1.1.7,1.4.3.2.8.5.9.8l.3.5-.8.5c-.7.4-.9.4-1.2.3-.6-.2-.7,0-.3.4.3.4.3,1.1,0,1.9-.2.4.4.9,1.3,1.2.4.1,1,.4,1.4.7.4.3,1,.5,1.3.5s.8.1,1.1.2.9.1,1.5.1h1l1,.9c.8.9,1.1,1,1.7,1h1c.1,0,.3.3.3.6s.2.6.2.7c0,0,.7,0,1.4-.3l1.2-.4.7.4c.6.4.7.4.7,1.3,0,1.2,0,1.6-.5,2.1-.2.267-.2.533,0,.8.2.3.3.4.1.8-.1.2-.2.7,0,1.1.1.8-.5,1.7-1.1,1.7s-.4,0-.3.4c.2.6.8,1.7,1,1.8.4.2.2.6-.6,1-.7.4-.8.4-1.4,0-.3-.2-1-.4-1.5-.6-.8-.2-1-.4-1.5-1.1-.7-1-1.9-2.2-2.3-2.2s-.4-.1-.5-.2c-.7-.7-1.9-1.1-1.9-.7s-.2.2-.5.4l-.5.2.5.5c.6.6.6,1.4,0,1.7-.3.1-.3.3-.2.5,0,.2.1.3.1.2,0-.2,1.3.4,1.6.7.1.2.6.7,1,1.1.7.8,1,.9,2.8,1.4.6.1.8.3.9.6,0,.2.3.5.5.6s.6.5.8.9,1,1.3,1.7,2l1.3,1.3v2.5c0,1.4-.1,2.5-.2,2.6-.2.1-3.4-.9-5.2-1.6-.8-.4-1.8-.9-2.1-1.1-.5-.4-1-.5-2.1-.4-.3,0-.1.3.4.5.3.1.6.5.8.8.3.5.6.7,1.7,1.1.8.3,2.2,1.1,3.3,1.8l1.9,1.2v1.1l-.1,1.1h-2.8,0Z" fill="#ecebe9"/>
    <path id="path1112" d="M152.3,120.7c-.7-.4-.9-.9-.6-1.3.3-.4.6-.3,1.3.1.6.4.7,1,.3,1.4-.2.2-.533.133-1-.2Z" fill="#ecebe9"/>
    <path id="path1114" d="M154.3,118.7c-.3,0-.4-.2-.4-.6s.2-.5.5-.5c.6,0,1.3.5,1.1.9-.1.3-.4.3-1.3.2h.1,0Z" fill="#ecebe9"/>
    <path id="path1116" d="M151.4,98.8c-1.2-1.2-.8-4.9.6-5.9.6-.4,1.6-.2,2.3.5.333.4.5,1.267.5,2.6,0,2,0,2.4-1.5,3-.9.4-1.3.4-1.9-.2h0Z" fill="#ecebe9"/>
    <path id="path1118" d="M156.3,95.5c-.5-.2-1-.9-.8-1.2.2-.3,1.6-.2,1.9.1.3.4.3.7-.3,1-.3.2-.6.2-.8,0h0v.1h0Z" fill="#ecebe9"/>
    <path id="path1120" d="M145.6,90.8c-.2-.2-.1-.3.3-.8.3-.3.5-.8.5-1.4.1-.9.5-1.8.8-1.8s.4.6.1,1c-.1.2-.2.7-.2,1,0,1-1.2,2.6-1.6,2.1h0l.1-.1h0Z" fill="#ecebe9"/>
    <path id="path1122" d="M109,78c-.5-.4-.8-.8-.9-1-.2-1.9-.4-2.4-2.1-3.5-.3-.2-.8-.9-1.1-1.5-.6-1-.6-1.1-.3-1.9.1-.4.4-1,.7-1.1.267-.2.733-.067,1.4.4.9.7,1,.7,1.3.4.2-.2.4-.6.5-1,.2-.6.1-.7-.2-1.1-.9-.9-1.1-1.5-.9-2.4.2-1,.8-1.8,1.1-1.8s.7.2,1.2.5c.8.5,1,.5,1.2.3.4-.5,2.4-1,2.8-.6.1.1.2.6.2,1.1s0,1-.3,1.1-.3.1,0,.4c.5.3.4.5-.5,1.5-.4.5-.8,1-.8,1.1s.2.3.5.4c.4.1.5.3.5.7s.1.7.3.9c.5.9.7,1.4.8,2.6,0,1.1,0,1.4-.4,2-.5.7-1.5,1.5-2,1.5s-.2,0-.2.2c.2.3-.7,1.2-1.4,1.4-.6.2-.7.1-1.5-.5h0s.1-.1.1-.1Z" fill="#ecebe9"/>
    <path id="path1124" d="M116.4,74.6c-.4-.3-.5-.5-.5-1.1s0-1-.2-1.3c-.4-1.1,0-5.2.5-6.6.2-.5.4-1.2.5-1.5.1-1,.7-1.3,2.7-1.5.5,0,.9,0,1.5.3s.9.4,1.1.4c.5,0,1.6.5,2.3,1,.4.3.5.6.3,1-.2.3-.4.7-.5.9-.1.2-.3.5-.3.8s-.4.9-.7,1.4-.7,1.4-.8,1.9c-.1.6-.3,1.1-.4,1.1s-.7.1-1.3.2-1.2.2-1.3.2c-.1.1-.3,1.4-.3,2.5,0,.3-1,.8-1.5.8-.3,0-.7-.2-1-.4h0s-.1-.1-.1-.1Z" fill="#ecebe9"/>
    <path id="path1126" d="M142.3,68.7c-.8-1.3-2-3.9-1.9-4.2.2-.4,3.8-.4,4.5,0,1,.6,2.3,1.9,2.9,3,.4.7-.2,1-1.5.9-.9,0-1.3,0-1.9.3-1.1.6-1.7.5-2.1-.2h0s0,.2,0,.2Z" fill="#ecebe9"/>
    <path id="path1128" d="M124.4,60.2c-.4-.2-1-.4-1.3-.4-.9,0-1.2-.3-1.3-1.6,0-.6-.1-1.3-.2-1.4-.3-.5-.4-2.2-.2-2.6.1-.2.2-.8.2-1.4,0-.8,0-1.1-.4-1.6-.3-.3-.5-.8-.6-1,0-.3-.2-.4-1.4-.5-.7,0-1.5-.2-1.6-.2-.4-.2-2.1-2.3-2.2-2.8v-1c.2-.8.6-.9,2.1-.7s2.4.7,2.7,1.7c.1.5.6.6,1.8.5,1.4-.1,2.1.2,2.1,1.1s.1.5.4.7c.7.3.9.9.6,1.8-.2.5,0,.9.3,1.3.3.3.6.8.6,1,0,.3.1.4.8.5.4,0,1.5.2,2.3.4l1.5.3,1-.5c.6-.3,1.1-.5,1.2-.5s.5-.3,1-.6c.533-.4,1.267-.6,2.2-.6,1.7,0,2.2.2,3.4,1,1.5,1,2.3,2.3,1.7,2.9-.1.1-.1.4,0,.7.2.5.2.6,0,.9-.2.2-.3.6-.4,1,0,.5-.2.7-.9,1.1-1.5.7-3.7.7-4,0-.1-.3-.2-.3-.4-.1-.1.1-.6.4-1.1.6-.7.3-1.2.4-3.5.5-2.9,0-3.5,0-3.8-.8-.2-.5-.3-.5-1,.3-.3.3-.7.6-.8.6s-.5-.2-.9-.4h0s.1-.2.1-.2Z" fill="#ecebe9"/>
    <path id="path1130" d="M118.3,59.6c-.4,0-2.3-1.4-2.8-1.9-.4-.4-.3-1,.4-2.4.6-1.1.8-1.3,1.4-1.6.8-.3,1.7,0,2.4.6.5.4.5.5.6,2.5.067,1.4-.033,2.267-.3,2.6-.5.4-.9.5-1.7.3h0s0-.1,0-.1Z" fill="#ecebe9"/>
    <path id="path1132" d="M111.3,56.3c-.8-.4-1.7-1.3-1.7-1.8s.2-.5.6-.8l.6-.5h-1.7c-1.9.1-2.2,0-2.2-1.2s-.2-1.2-1.3-1.8c-.5-.3-.9-.6-.9-.7s.1-.3.3-.6c.3-.5.4-.5,1.1-.4,1,.1,1.5.3,1.5.7s.4.6.8,1.1c.6.6.9.8,1.3.8s.5,0,.6-.6c0-.7-.2-1.1-1.2-1.6-.3-.2-.5-.4-.5-.5s.4-.5.9-.9c.7-.5,1-.7,1.4-.6.3,0,.9.1,1.5.2s1.2.2,1.4.4l.4.3v3.3c-.2,2-.3,3.4-.4,3.5s-.1.5,0,.9c.2,1-.1,1.4-1,1.4-.4,0-1.1-.2-1.5-.4h0v-.2h0Z" fill="#ecebe9"/>
    <path id="path1134" d="M98.3,55.2c-.7-.4-1.2-.5-1.7,0-.2.1-.4.2-.5.1-.3-.2.7-4.3,1-4.2.1,0,.2-.3.2-.9,0-1.2.8-5.4,1.2-6,.5-.8,1.9-.1,1.5.7-.1.2-.1.5,0,.7.2.4.1,1.6-.1,2,0,.2-.1.6-.1,1,0,.6,0,.7.4.8.2,0,.8,0,1.2-.2.7-.2.8-.2,1.1.1.7.7.8,3.2.2,3.9-.1.2-.4.6-.6,1-.8,1.3-2.5,1.7-3.8.9h0s0,.1,0,.1Z" fill="#ecebe9"/>
    <path id="path1136" d="M103.2,55.2c-.1-.3,0-.6.1-.9.2-.3.3-.5.3-.5,0,0,.3,0,.6-.1.5,0,.6,0,.9.7.2.5.3.9.2,1,0,0-.6.2-1.1.2-.9,0-1,0-1.1-.4h.1Z" fill="#ecebe9"/>
    <path id="path1138" d="M138,49.5v-.5c.1-.2-.1-.5-.7-.8-.5-.3-.6-.2-1,.2-.3.3-.5.4-.8.3-.2,0-.6-.2-.8-.2s-.6-.3-.8-.6c-.3-.4-.4-.4-.7-.2-.2.1-.3.4-.3.7,0,.6-.6,1-1.3.8-.3,0-1.5-.1-2.8-.1-1.9,0-2.3,0-2.7-.4-.4-.3-.5-.5-.6-1.4,0-.7,0-1.2.2-1.5.4-.8,1.5-1.8,1.9-1.8.8,0,.9-.4.3-1-1-1-1.3-1.9-.8-2.8.3-.6.5-.7,1.5-.7s1.8.5,2.1,1.5c.1.4.4.9.6,1.1.4.4.5.4.8.2s.3-.2-.4-1c-.4-.4-.9-1.1-1-1.3-.2-.5-.2-.6.3-1.1l.5-.6h-1.2c-1.5,0-2-.3-2-1.2s.2-1,.4-1.3c.2-.4.3-.8.3-.8-.3-.3.5-1.1,1.6-1.7l1.2-.6,1.2.6c1.5.8,1.4.8,1.4.5,0-.1,0-.4.1-.5v-.3h-.7c-.7,0-1.9-1.4-2.4-2.6-.2-.5-.6-1.3-.9-1.7-.3-.4-.6-.8-.6-.9s-.2-.2-.3-.2c-.5-.2-.7-1-.6-2.3.2-1.6.3-1.8,1.5-1.6,1.2.1,1.5.3,2.8,2.1.6.8,1.1,1.4,1.2,1.4.2-.2-.3-1.3-.9-1.9-.9-1-.9-1.6.1-2.1.4-.2,1-.6,1.4-.9s.9-.5,1-.5.3-.1.3-.4.3-.7.7-1.1l.7-.7-.5-.6c-.2-.3-.5-.7-.5-.8s-.2,0-.4.5c-1.1,2.2-2,2.9-3.3,3-.5,0-1.3.1-1.9.3-1.4.3-2,.1-2.1-.8,0-.4,0-1,.2-1.3s.2-.6.2-.6c-.2,0-.8.8-.8,1s-.2.4-.5.7c-.4.3-.6.4-1,.3-1.2-.3-2.1-1.3-1.6-1.9.2-.2.2-.3-.1-.3h-.5c-.3,0-.6-.6-.6-1.2s.1-.7.7-1.3c.8-.7.9-.9.4-.9s-.4-.2-.6-.4-.5-.4-.8-.4c-1.6,0-1.1-1.7.6-2.3.3-.1.9-.6,1.3-.9.6-.6.8-.7,1.4-.7s.8,0,.6-.4c0-.3,0-.5.4-.9.3-.2.5-.6.5-.8,0-.4.4-.8.8-.7h.6c.2,0,.5.2.8.4.7.5.8.4.8-.5s.3-.8.6-1.3.6-1,.6-1.2.3-.7.7-1.1c.6-.6.8-.7,1.2-.7s.5,0,.6-.4c.2-.6.9-.9,1.6-.8,1.4.2,1.8.2,2.6-.2.9-.5,2.3-.6,2.8-.4.2.1.6,0,1.4-.1.8-.2,1.2-.3,1.5-.1.2,0,.8.1,1.4.1,1.3,0,1.7,0,1.9.6.2.6.7.9,1.6,1,.7.1,1,.4,1.2,1.3.2,1.1.2,2-.2,3.4-.3,1-.5,1.4-.9,1.7-.3.3-.7.5-.8.5-.3,0-1.2,1.1-1.8,2.1-.2.5-.5,1-.5,1,0,.2.9-.6,1.1-1,.1-.2.4-.6.7-.8s.5-.4.5-.5c0-.2.9-.2,1,0,0,.1.1.6.1,1.2s-.1,1.2-.4,1.7c-.7,1-1.2,2.2-1.1,2.4,0,.1-.3,1.1-.8,2.1s-.9,2.1-1,2.3c-.2.6-.6,2.5-.7,3.5,0,1-.9,1.8-1.7,1.7-.5,0-.6,0-.7.5,0,.3-.3.8-.5,1-.4.4-1.8,1-2,.9,0,0-.2,0-.4.3-.2.2-.2.5,0,.6.5.3.5,1,.1,1.5-.133.2-.133.3,0,.3h.9c.2,0,.6.3.9.6.7.7.8,2,.2,2.3-.5.3-.4.5,0,.9.2.2.4.5.4.7s-.2.4-.4.4c-.4,0-.4.2-.4.7,0,.8-.8,1.7-1.6,1.7h-.6v1.4c0,1.2,0,1.4-.4,1.8-.7.8-1,1.3-.8,1.7.2.2.6.6.9.8.3.2.6.4.8.6.3.4.2,1.3-.2,2.2-.8,1.9-3.4,3.5-3.8,2.4h0l.5.1h0Z" fill="#ecebe9"/>
    <path id="path1140" d="M104.5,42.8c-.5-.5-.6-1.3-.2-2.2.2-.7.6-.7,1,0,.7,1,.7,2.2,0,2.5-.3.1-.4,0-.8-.3Z" fill="#ecebe9"/>
    <path id="path1142" d="M117.7,42.6c-1.3-.7-1.4-1.3-.4-2.1.8-.7,1.8-.8,2.7-.2,1,.6,1,1.4,0,2.2-.6.5-1.5.6-2.3.1Z" fill="#ecebe9"/>
    <path id="path1144" d="M116.1,39.6c-.6-.2-.9-.8-.7-1.3,0-.2-.1-.6-.4-1-.7-.8-.8-1.2-.7-2.3.1-1,.7-1.6,1.3-1.4.2,0,.9.4,1.4.8.6.4,1.1.7,1.2.7.3,0,.5,1,.5,2.1v1.2l-.8.6c-.9.8-1,.8-1.8.4h0v.2Z" fill="#ecebe9"/>
    <path id="path1146" d="M112.3,39.3c-.2-.2-.7-.7-1-1.1-1.1-1.3-1.6-1.6-2.8-1.5-.9,0-1.1,0-1.5-.5-.6-.6-.7-1.2-.3-1.8.1-.2.3-.3.4-.3s.4-.2.6-.3c.3-.3.3-.4.2-1-.1-.4-.4-.9-.8-1.2-1.1-1-.6-2.5.8-2.5s1.8.7,1.8,1.3.2.6.7.6c.4,0,1.3.9,1.7,1.6.2.4.5.9.7,1.1.6.7.7,1,.4,1.7-.4,1-.3,1.3.3,1.9.3.3.5.7.5.9,0,.5-.4,1.1-.8,1.4-.4.2-.5.1-.8-.2h0l-.1-.1h0Z" fill="#ecebe9"/>
    <path id="path1148" d="M122.5,37.3c-.4-.4-.8-.9-.8-1.1s-.3-.6-.6-.8c-.6-.7-1.3-2.1-1.3-2.7s.7-1.4,1.4-1.4,1.1-.5,1.1-.9-.9-.6-1.2-.6-.6,0-1,.1c-1.1.2-1.6,0-1.9-.5-.1-.3-.1-.5,0-.9.1-.3.2-.5,0-.5s-.3-.2-.5-.4c-.4-.4-.5-1.3-.2-2.1.2-.5.3-.6.9-.6s.7,0,.6-.4c0-.2-.4-.6-.7-.9-.4-.4-.5-.6-.4-1,.1-.7.5-1,1.1-1.1,1.1-.1,1.1-.3.3-1.2l-.6-.7.4-.7c.2-.4.6-.8.9-1,.4-.2.5-.4.6-1,0-.6,0-.7.7-.7s1.7.5,2,1c.4.8.9,1.9.9,2.1,0,.4.8,1.6,1.5,2.4.6.6.8,1,.8,1.4s.2.8.9,1.5c.8.8.9,1,.9,1.7s0,.9,1.8,2.3c.6.5.7.7.7,1.4s-.1,1-1.1,2.2c-.6.8-1.3,1.5-1.5,1.7-.3.2-.4.4-.4.7s-.3.8-.7,1.3c-.7,1-.8,1-1.6.8-.3-.1-.4,0-.4.5,0,.4-.333.6-1,.6-.9,0-1,0-1.7-.7h0s.1.2.1.2Z" fill="#ecebe9"/>
    <path id="path1150" d="M100.4,34.5c0-.2.2-.8.2-1.1,0-.4.2-.7.3-.7.2,0,0,1.7-.3,2-.133.133-.2.067-.2-.2h0Z" fill="#ecebe9"/>
    <path id="path1152" d="M113.9,26.7c-.6-.5-1-1.2-.9-1.6.1-.6.4-.8.9-.8s.6.2,1,.7c.6.9.6,1.1.1,1.6-.4.4-.7.4-1.1.1h0Z" fill="#ecebe9"/>
  </g>
  <path id="CA-PE" d="M212.5,191.9s-.8-.1-1.6-.2c-.8,0-1.9-.2-2.5-.4-1.2-.4-1.5-.4-1.8-.4-.7,0-.8-.3-.4-1.3.2-.5.5-.9.7-.9s.6.4,1,.8c.6.6.8.7,1,.5.1-.1.6-.2,1.1-.2s1,0,1.2-.2c.6-.3,2.2-.7,2.3-.6,0,0,0,.4-.2.6-.1.3-.3.8-.3,1.3,0,.7-.3,1.1-.6.9h0l.1.1h0Z" fill="#bdb2d8"/>
  <g id="CA-QC">
    <path id="path1157" d="M176.4,205.2c-.2-.3-.3-.8-.4-1.1,0-.6-.1-.6-.8-.7-.7,0-1.7.3-2.8,1.1-.4.2-.8.3-1.8.3s-1.3,0-1.8-.6c-.2-.3-.6-.6-.8-.6s-.8-.2-1.3-.6c-.6-.4-1.2-.6-1.9-.6-1.5-.1-3.2-.7-4.2-1.4-.8-.5-1-.9-1.5-1.8-.3-.7-.6-1.7-.7-2.4,0-.6-.1-1.4-.2-1.7s-.2-1.3-.3-2.2-.2-2-.3-2.3-.1-1-.2-1.4-.3-2.9-.6-5.5-.6-4.9-.6-5.1c0-.4,0-.5.5-.6s.6-.2.4-.7c0-.4,0-.7.4-1.3.3-.4.5-1,.5-1.2s-.3-1.1-.7-2-.8-1.8-.9-2.2-.3-.9-.5-1.1c-.2-.3-.3-.7-.3-1.3,0-.9-.4-1.9-1.1-2.3-.2-.1-.3-.4-.3-.7s-.2-.7-.4-.9-.4-.5-.4-.6c0-.3.9-1,1.9-1.7.5-.3,1.1-.9,1.5-1.2s.9-1.1,1.4-1.6c.5-.6,1-1.4,1.5-2.5.6-1.5.6-1.8.6-3.1,0-1.1-.2-1.9-.5-3-.3-.8-.5-1.7-.6-1.9-.2-.8-1.8-2.5-2.9-3.2-1.4-.7-2.5-1.8-2.5-2.5,0-.3,0-.8.3-1.2.2-.4.3-.8.4-1,0-.1.2-.4.4-.6.3-.2.4-.5.4-1.1s.1-1,.4-1.2c.3-.3.3-.4,0-1.1-.1-.4-.3-.9-.3-1.2-.1-.6-.6-1.5-1.1-2.2-.4-.5-.4-.7-.4-2.6s0-2.1-.2-2.3c-.1-.2-.5-.8-.8-1.5l-.5-1.2.5-.9c.4-.9.5-1,1.3-1.1,1.3-.2,2.5-.1,3.3.1,1,.4,2.5.5,3,.3.3-.1.8-.5,1.2-.9s.8-.7.9-.7c.3,0,3.8,1.8,4.9,2.6.9.6,1.1.8,1,1.2,0,.2.1.6.3.9.3.4.5.5,2.1.7,1,.1,2.2.3,2.7.5l.9.3v1c-.2,1-.1,1.6.7,3.9.1.3.2.8.2,1,0,.3.2.7.4,1,.2.2.6.8.8,1.3l.4.8h.9c.8-.2.9-.2,1.8.6.5.4,1.2.9,1.4.9s.5.2.5.3c0,.3.4.1,1.1-.6.6-.6.8-1,.9-1.5,0-.5.2-.8.5-.9.2-.1.5-.5.6-1,.3-.9.2-2.7,0-3.3-.1-.2-.2-.4-.1-.5,0,0,.1-.6.2-1.2.2-.9.6-1.5.9-1.3,0,0,.2.4.2.8.2.8.9,2.2,1.2,2.2s.7,1.8.6,2.2c-.1.5,0,.6,1,.5h1v1.1c0,.6-.1,1.4-.2,1.7-.1.4-.1.7,0,.9.2.4,1.2,1,1.8,1.2.6.1.6.3.8,2.4,0,.9.2,2.1.3,2.6s.3,1.2.4,1.5c0,.4.3.8.7,1,.5.4,1.4,2,1.4,2.5s.1.4.3.6c.2.2.5.6.6,1,.2.467.2.967,0,1.5l-.4.8h-1c-.5-.1-1.2-.2-1.5-.3-.5-.1-.6,0-1,.5-.5.7-.8.8-1.3.4-.2-.2-.8-.4-1.4-.5-1.2-.2-1.3-.2-1.5.7,0,.3-.3.6-.6.7-.3.2-.4.3-.4.8s-.2.8-.6,1.2c-.5.5-.5.7-.4,1.3,0,.4.2.9.3,1.2.4.8,1.5,1.9,2.2,2.2.8.4.9.8.6,1.8-.133.4-.033.733.3,1,.5.4,1.1.5,2.2.1.3-.1.4,0,.5.8,0,.6.3,1.1.6,1.4s.5.4,1.4.3c.8-.1,1.1,0,1.3.2s.5.3.7.4c.8.2,2.7.2,2.9,0,.1,0,.3-.5.3-.9.1-1,.2-2.2.2-2.3,0,0,.3.1.8.3.5.3.9.4,1.5.3.8-.1,3.7-1.1,6.6-2.3,4.6-1.8,7.4-2.8,8.5-3.1.6-.2,1.3-.4,1.4-.5.1-.1.3-.1.4,0,.4.5,1.3,1.7,1.3,1.7,0,0-.5.5-1.1,1-1.6,1.3-2.6,2.4-2.7,3.1,0,.3-.4,1.3-.9,2.2-.4.9-.9,1.8-1,2.1-.2.6-3.1,2.1-4.9,2.7-.7.2-2.2.6-3.4,1-6.9,2-10.3,3.3-10.9,4.1-.2.2-.4.8-.5,1.3s-.3,1.4-.5,2.1c-.3,1.1-.4,1.2-.8,1.2-.9,0-2.6,2-3.2,3.7-.2.5-.6,1.3-.9,1.8-.3.5-.6,1.2-.7,1.5-.2,1.5-3,5.9-4.4,7.1-2,1.6-4.8,4.5-4.5,4.8s.8-.7,1.6-1.6c.8-.9,2.1-2.1,2.7-2.6,1.1-.8,2.3-2.1,3.2-3.3.7-1.1,2-3.7,2-4s0-.6.2-.8c.3-.6,2-2.7,2.7-3.3.3-.3,1-1,1.5-1.4s1.4-1.1,2-1.5,1.7-1.1,2.4-1.6c.9-.6,1.7-1,2.5-1.2,1.1-.3,1.2-.3,2.2,0,.9.3,1.1.4,1.4.9.7,1.4.6,2.3-.4,3.5s-1.4,1.5-2.4,1.6c-2.1.2-3.8.7-4.3,1.2-.7.7-1.3.9-2.7.9-1.7,0-1.8.2-1.6,2v1.5c.1,0-.6.1-.6.1h-1.2c-.4,0-.6,0-.8.3-.4.5-1.1,3-1.3,4.1,0,.4-.2,1.3-.3,2s-.2,1.5-.2,1.9c-.1,1.4-.7,2.6-1.4,3.1-.4.2-.8.7-1.1,1-.2.3-.6.6-.8.7-.2,0-1.7.4-3.3.7s-3.3.6-3.8.6c-.8,0-1,0-1.2-.5h.1Z" fill="#424d8b"/>
    <path id="path1159" d="M205.6,177.8c-.2,0-.6-.2-.9-.4-.2-.2-.9-.4-1.5-.5-1.3-.3-1.5-.7-.8-1.4.4-.3.8-.4,1.7-.4,2.5,0,3.3,0,5,.6,1.6.6,1.7.6,1.7,1.1s0,.7-2.1.9c-2.2.2-2.7.2-3.2.1h.1Z" fill="#424d8b"/>
  </g>
  <path id="CA-SK" d="M90.6,189.7s-.7-.1-1.5-.2c-.8,0-1.6-.1-1.9-.2-.2,0-1-.1-1.6-.2-.6,0-1.4-.1-1.6-.2-.2,0-1-.1-1.6-.2-.6,0-3.1-.6-5.5-1.1-2.4-.6-4.5-1-4.7-1-.8-.2-1.3-.3-2.3-.5-.6-.1-1.3-.3-1.5-.3s-1-.2-1.8-.4c-1.1-.2-1.4-.4-1.3-.6,0-.3,1.5-6.1,1.6-6.6,0-.1.3-1.3.6-2.6.3-1.3.8-3.5,1.2-5s1-4.3,1.5-6.4.9-3.8,1-4,.3-1.4.6-2.6c.3-1.2.9-3.8,1.4-5.6.4-1.9,1.1-4.5,1.4-5.9s.9-3.7,1.3-5.2l.7-2.7h.9c.5.1,1.3.2,1.8.3s1.5,0,2.3,0c1.3-.2,1.5-.1,2.5.3,1,.4,1.5.5,1.5.1s-3.8-2.1-4.7-2.3c-.4-.1-.9-.2-1.1-.2s-.6-.2-.8-.4c-.4-.4-.9-.5-1.5-.2-.267.133-.3-.233-.1-1.1.2-.7.2-.9.5-.8.3,0,1.5.3,2.7.6.2,0,.6.1.8.2.6.1,8,1.6,8.5,1.6.2,0,1.4.3,2.6.5s2.5.5,2.9.5c.467,0,.7.233.7.7,0,.3-.2,2.1-.5,3.9-.3,1.8-.5,3.7-.6,4.2-.1.9-.3,1.3-.6,1.3s-1.3,1.2-1.6,1.8c-.2.4-.2.7,0,1.1.4,1.3.3,1.9-.3,2.5-.4.4-.5.7-.4.8.1.2.3.2.7-.2.3-.3.7-.5.8-.5.3,0,.3.6,0,4.1,0,.5-.1,1.7-.2,2.6,0,.9-.1,2-.2,2.4,0,.4-.1,1.6-.2,2.6,0,1-.1,2.1-.2,2.4,0,.3-.1,1.5-.2,2.6,0,1.1-.1,2.2-.2,2.4,0,.2-.1,1.4-.2,2.6,0,1.2-.1,2.3-.2,2.4,0,.1-.1,1.3-.2,2.5,0,1.2-.1,2.4-.2,2.5,0,.1-.1,1.3-.2,2.5,0,1.2-.2,2.4-.2,2.6v1.5c0,1.1-.2,1.4-.5,1.1h-.1Z" fill="#bdb2d8"/>
  <path id="CA-YT" d="M44.2,122c-.2-.1-1-.5-1.7-.8-1.1-.5-5-2.5-11.4-5.9-2-1.1-9.5-5.7-15-9.3-1.9-1.3-2.8-1.9-2.8-2.2,0-.4.6-1.3,1.1-1.8,1-.8.4-1.3-1.6-1.4-.4,0-.6-.1-.7-.4,0-.2-.2-.3-.2-.3-.3,0-1-.2-1.1-.6,0-.3.3-1,1.7-3,2.5-3.6,7-10.4,10.5-15.6,2.8-4.2,6.4-9.5,11.3-16.8l2.2-3.3.6.2c1.2.4,1.5.8,1.6,1.9,0,.6.3,1.4.5,1.9s.5,1.1.5,1.5c0,.5.3.9.8,1.3.467.4.633.733.5,1-.4.4-2.2,3.4-2.6,4.3-.2.4-.5,1.2-.7,1.7s-.5,1.3-.7,1.8c-.8,1.6-.8,1.5,1.1,2.9,1.3,1,1.7,1.4,1.7,1.7s-.3,1-.6,1.6c-.4.8-.7,1.6-.7,2.2,0,.667.2,1.167.6,1.5.7.5.7.4.5,2.5,0,0-.2.2-.5.2-.6.1-1.1.8-1.1,1.3s-.2.6-.4,1c-.4.7-.3,1.3.2,1.7.2.2.2.4.2,1,0,.5,0,.8.3,1.3.3.4.4.8.4,1.6,0,.6.2,1.3.3,1.6.3.6.3.7,0,1.9-.5,1.6-.7,2.9-.8,4.6,0,.8-.2,1.6-.3,1.9-.2.5-.1.6.2,1,.6.6.8,1,1.1,2.4.2.6.5,1.6.8,2.1.4.7.4,1,.3,1s-.3.5-.3,1-.1,1.1-.2,1.4c-.2.6,0,.8,1.5,1.5.5.2,1.3.7,1.7.9s.9.5,1.2.5h.5v1.9c0,1-.1,1.9-.2,1.9,0,0-.2,0-.4-.2h0s.1-.1.1-.1Z" fill="#ecebe9"/>
  <circle id="DC2" cx="172.4" cy="236.3" r=".9" fill="#d3d3d3" stroke="#fff" stroke-miterlimit="3"/>
  <g id="text1" isolation="isolate">
    <g isolation="isolate">
      <g isolation="isolate">
        <text transform="translate(131.5 184.9)" fill="#fff" font-family="OpenSans-BoldItalic, &apos;Open Sans&apos;" font-size="8" font-style="italic" font-weight="700" isolation="isolate"><tspan x="0" y="0">128</tspan></text>
      </g>
    </g>
  </g>
  <g id="text2" isolation="isolate">
    <g isolation="isolate">
      <g isolation="isolate">
        <text transform="translate(28.6 148.7)" fill="#fff" font-family="OpenSans-BoldItalic, &apos;Open Sans&apos;" font-size="8" font-style="italic" font-weight="700" isolation="isolate"><tspan x="0" y="0">71</tspan></text>
      </g>
    </g>
  </g>
  <g id="text3" isolation="isolate">
    <g isolation="isolate">
      <g isolation="isolate">
        <text transform="translate(55.5 155.8)" fill="#fff" font-family="OpenSans-BoldItalic, &apos;Open Sans&apos;" font-size="8" font-style="italic" font-weight="700" isolation="isolate"><tspan x="0" y="0">30</tspan></text>
      </g>
    </g>
  </g>
  <g id="text4" isolation="isolate">
    <g isolation="isolate">
      <g isolation="isolate">
        <text transform="translate(102 164.3)" fill="#fff" font-family="OpenSans-BoldItalic, &apos;Open Sans&apos;" font-size="8" font-style="italic" font-weight="700" isolation="isolate"><tspan x="0" y="0">17</tspan></text>
      </g>
    </g>
  </g>
  <g id="text5" isolation="isolate">
    <g isolation="isolate">
      <g isolation="isolate">
        <text transform="translate(80.4 164.3)" fill="#fff" font-family="OpenSans-BoldItalic, &apos;Open Sans&apos;" font-size="8" font-style="italic" font-weight="700" isolation="isolate"><tspan x="0" y="0">4</tspan></text>
      </g>
    </g>
  </g>
  <g id="text6" isolation="isolate">
    <g isolation="isolate">
      <g isolation="isolate">
        <text transform="translate(212.7 157.5)" fill="#fff" font-family="OpenSans-BoldItalic, &apos;Open Sans&apos;" font-size="8" font-style="italic" font-weight="700" isolation="isolate"><tspan x="0" y="0">3</tspan></text>
      </g>
    </g>
  </g>
  <g id="text7" isolation="isolate">
    <g isolation="isolate">
      <g isolation="isolate">
        <text transform="translate(196.6 195.8)" fill="#fff" font-family="OpenSans-BoldItalic, &apos;Open Sans&apos;" font-size="8" font-style="italic" font-weight="700" isolation="isolate"><tspan x="0" y="0">22</tspan></text>
      </g>
    </g>
  </g>
  <g id="text8" isolation="isolate">
    <g isolation="isolate">
      <g isolation="isolate">
        <text transform="translate(209.2 200.6)" fill="#7773b2" font-family="OpenSans-BoldItalic, &apos;Open Sans&apos;" font-size="8" font-style="italic" font-weight="700" isolation="isolate"><tspan x="0" y="0">20</tspan></text>
      </g>
    </g>
    <g isolation="isolate">
      <g isolation="isolate">
        <text transform="translate(209.2 200.6)" fill="none" font-family="OpenSans-BoldItalic, &apos;Open Sans&apos;" font-size="8" font-style="italic" font-weight="700" isolation="isolate" stroke="#7773b2" stroke-miterlimit="7.5" stroke-width=".7"><tspan x="0" y="0">20</tspan></text>
      </g>
    </g>
  </g>
  <g id="text9" isolation="isolate">
    <g isolation="isolate">
      <g isolation="isolate">
        <text transform="translate(173.8 176.7)" fill="#fff" font-family="OpenSans-BoldItalic, &apos;Open Sans&apos;" font-size="8" font-style="italic" font-weight="700" isolation="isolate"><tspan x="0" y="0">46</tspan></text>
      </g>
    </g>
  </g>
  <g id="text10" isolation="isolate">
    <g isolation="isolate">
      <g isolation="isolate">
        <text transform="translate(209.2 200.6)" fill="#fff" font-family="OpenSans-BoldItalic, &apos;Open Sans&apos;" font-size="8" font-style="italic" font-weight="700" isolation="isolate"><tspan x="0" y="0">20</tspan></text>
      </g>
    </g>
  </g>
  <g id="text11" isolation="isolate">
    <g isolation="isolate">
      <g isolation="isolate">
        <text transform="translate(208.8 190.7)" fill="#bdb2d8" font-family="OpenSans-BoldItalic, &apos;Open Sans&apos;" font-size="8" font-style="italic" font-weight="700" isolation="isolate"><tspan x="0" y="0">2</tspan></text>
      </g>
    </g>
    <g isolation="isolate">
      <g isolation="isolate">
        <text transform="translate(208.8 190.7)" fill="none" font-family="OpenSans-BoldItalic, &apos;Open Sans&apos;" font-size="8" font-style="italic" font-weight="700" isolation="isolate" stroke="#bdb2d8" stroke-miterlimit="7.5"><tspan x="0" y="0">2</tspan></text>
      </g>
    </g>
  </g>
  <g id="text12" isolation="isolate">
    <g isolation="isolate">
      <g isolation="isolate">
        <text transform="translate(208.8 190.7)" fill="#fff" font-family="OpenSans-BoldItalic, &apos;Open Sans&apos;" font-size="8" font-style="italic" font-weight="700" isolation="isolate"><tspan x="0" y="0">2</tspan></text>
      </g>
    </g>
  </g>
  <g id="text22" isolation="isolate">
    <g isolation="isolate">
      <g isolation="isolate">
        <text transform="translate(14.1 208.5)" fill="#999" font-family="OpenSans, &apos;Open Sans&apos;" font-size="8" isolation="isolate"><tspan x="0" y="0">*Based on data from Canada</tspan></text>
      </g>
    </g>
    <g isolation="isolate">
      <g isolation="isolate">
        <text transform="translate(14.1 218.5)" fill="#999" font-family="OpenSans, &apos;Open Sans&apos;" font-size="8" isolation="isolate"><tspan x="0" y="0">Business Grants; may not be a</tspan></text>
      </g>
    </g>
    <g isolation="isolate">
      <g isolation="isolate">
        <text transform="translate(14.1 228.5)" fill="#999" font-family="OpenSans, &apos;Open Sans&apos;" font-size="8" isolation="isolate"><tspan x="0" y="0">comprehensive count of all BIAs.</tspan></text>
      </g>
    </g>
  </g>
  <path id="path37-2" d="M0,.5h244.8" fill="none" stroke="#f1c500" stroke-miterlimit="2.2" stroke-width=".5"/>
  <path id="path37-2-9" d="M0,244.3h244.8" fill="none" stroke="#f1c500" stroke-miterlimit="2.2" stroke-width=".5"/>
  <g id="text75" isolation="isolate">
    <g isolation="isolate">
      <g isolation="isolate">
        <text transform="translate(21 27.711)" font-family="TradeGothicLT-Bold, &apos;TradeGothic LT Bold&apos;" font-size="17" font-weight="700" isolation="isolate"><tspan x="0" y="0">There are 343+ Business</tspan></text>
      </g>
    </g>
    <g isolation="isolate">
      <g isolation="isolate">
        <text transform="translate(21 52.711)" font-family="TradeGothicLT-Bold, &apos;TradeGothic LT Bold&apos;" font-size="17" font-weight="700" isolation="isolate"><tspan x="0" y="0">Improvement Areas (BIAs)</tspan></text>
      </g>
    </g>
    <g isolation="isolate">
      <g isolation="isolate">
        <text transform="translate(21 77.711)" font-family="TradeGothicLT-Bold, &apos;TradeGothic LT Bold&apos;" font-size="17" font-weight="700" isolation="isolate"><tspan x="0" y="0">across Canada*</tspan></text>
      </g>
    </g>
  </g>
  <rect id="rect75" y="14.4" width="14.4" height="14.4" fill="#f1c500"/>
</svg>