<?xml version="1.0" encoding="UTF-8"?>
<svg xmlns="http://www.w3.org/2000/svg" viewBox="0 0 244.8 237.6">
  <g id="Layer_4" data-name="Layer 4">
    <polyline points="233.4 150.84 189.21 150.84 189.21 164.36" fill="none" stroke="#7d2f8e" stroke-miterlimit="10" stroke-width=".5"/>
    <polyline points="226.48 134.33 185.07 134.33 185.07 153.64" fill="none" stroke="#6c297b" stroke-miterlimit="10" stroke-width=".5"/>
    <g>
      <path d="M187.97,149.72c-.68-1.98-1.44-3.94-2.33-5.94l-.57.25v9.61-9.61l-15.29,6.81c1.83,4.09,3.15,8.46,3.86,13.03l15.56-2.46v-7.61c-.37-1.37-.77-2.73-1.23-4.08Z" fill="#6c297b" stroke="#fff" stroke-miterlimit="10" stroke-width=".5"/>
      <path d="M189.21,153.8v7.61l1.58-.25c-.4-2.55-.94-4.98-1.58-7.36Z" fill="#6c297b" stroke="#fff" stroke-miterlimit="10" stroke-width=".5"/>
    </g>
    <polyline points="237.6 184.34 189.52 184.34 189.52 170.89" fill="none" stroke="#8cbf3f" stroke-miterlimit="10" stroke-width=".5"/>
    <line x1="189.43" y1="168.54" x2="237.86" y2="168.54" fill="none" stroke="#00a28a" stroke-miterlimit="10" stroke-width=".5"/>
    <path d="M189.43,168.54h2.13c-.02-.44-.05-.87-.08-1.37l-17.33,1.21c.04.6.07,1.21.09,1.81l17.36-.61c-.01-.38-.03-.72-.04-1.05h-2.13Z" fill="#00a28a" stroke="#fff" stroke-miterlimit="10" stroke-width=".5"/>
    <polyline points="178.54 101.51 152.15 101.51 152.15 116.45" fill="none" stroke="#4a1c55" stroke-miterlimit="10" stroke-width=".5"/>
    <text transform="translate(185.57 108.42)" fill="#5b2368" font-family="OpenSans-Bold, &apos;Open Sans&apos;" font-weight="700"><tspan font-size="8"><tspan x="0" y="0">10 to 19</tspan></tspan><tspan font-size="5"><tspan x="3.99" y="6">employees</tspan></tspan></text>
    <text transform="translate(195.6 126.63)" fill="#6c297b" font-family="OpenSans-Bold, &apos;Open Sans&apos;" font-weight="700"><tspan font-size="8"><tspan x="0" y="0">20 to 49</tspan></tspan><tspan font-size="5"><tspan x="3.99" y="6">employees</tspan></tspan></text>
    <text transform="translate(202.52 143.07)" fill="#7d2f8e" font-family="OpenSans-Bold, &apos;Open Sans&apos;" font-weight="700"><tspan font-size="8"><tspan x="0" y="0">50 to 99</tspan></tspan><tspan font-size="5"><tspan x="3.99" y="6">employees</tspan></tspan></text>
    <text transform="translate(219.3 176.7)" fill="#8cbf3f" font-family="OpenSans-Bold, &apos;Open Sans&apos;" font-weight="700"><tspan font-size="8"><tspan x="0" y="0">200+</tspan></tspan><tspan font-size="5"><tspan x="-8.59" y="6">employees</tspan></tspan></text>
    <text transform="translate(60.17 100.3)" fill="#3a1642" font-family="OpenSans-Bold, &apos;Open Sans&apos;" font-weight="700"><tspan font-size="8"><tspan x="0" y="0">1 to 4</tspan></tspan><tspan font-size="5"><tspan x="-5.16" y="6">employees</tspan></tspan></text>
    <polyline points="55.24 107.97 81.9 107.97 81.9 122.72" fill="none" stroke="#3a1642" stroke-miterlimit="10" stroke-width=".5"/>
    <path d="M122.22,102.6c-15.04,0-28.96,4.78-40.32,12.91v7.21-7.21c-17.62,12.58-29.09,33.2-29.09,56.51h17.35c0-28.75,23.31-52.06,52.06-52.06,3.71,0,7.34.39,10.83,1.13l3.61-16.97c-5.03-1.07-9.3-1.52-14.44-1.52Z" fill="#3a1642" stroke="#fff" stroke-miterlimit="10" stroke-width=".5"/>
    <circle cx="81.9" cy="122.72" r=".41" fill="#fff" stroke="#fff" stroke-miterlimit="10" stroke-width=".5"/>
    <text transform="translate(156.81 93.8)" fill="#4a1c55" font-family="OpenSans-Bold, &apos;Open Sans&apos;" font-weight="700"><tspan font-size="8"><tspan x="0" y="0">5 to 9</tspan></tspan><tspan font-size="5"><tspan x="-5.16" y="6">employees</tspan></tspan></text>
    <path d="M152.15,109.22v7.24-7.24c-4.75-2.23-9.85-3.9-15.5-5.11l-3.61,16.97c9.72,2.06,18.44,6.83,25.33,13.49l12.07-12.49c-5.77-5.57-11.7-9.76-18.29-12.86Z" fill="#4a1c55" stroke="#fff" stroke-miterlimit="10" stroke-width=".5"/>
    <circle cx="152.15" cy="116.45" r=".41" fill="#fff" stroke="#fff" stroke-miterlimit="10" stroke-width=".5"/>
    <path d="M190.79,161.15l-1.58.25v2.95-2.95l-15.56,2.46c.23,1.48.39,2.99.5,4.51l17.33-1.21c-.11-1.6-.25-2.99-.46-4.47-.07-.5-.14-1.01-.23-1.55Z" fill="#7d2f8e" stroke="#fff" stroke-miterlimit="10" stroke-width=".5"/>
    <path d="M191.63,170.8c0-.42-.02-.79-.03-1.21l-17.36.61c.01.3.02.6.02.91,0,.3.02.6.02.91h15.23v-1.12,1.12h2.12c0-.19,0-1.02-.01-1.21Z" fill="#8cbf3f" stroke="#fff" stroke-miterlimit="10" stroke-width=".5"/>
    <circle cx="185.07" cy="153.64" r=".41" fill="#fff" stroke="#fff" stroke-miterlimit="10" stroke-width=".5"/>
    <circle cx="189.21" cy="164.36" r=".41" fill="#fff" stroke="#fff" stroke-miterlimit="10" stroke-width=".5"/>
    <circle cx="189.43" cy="168.54" r=".41" fill="#fff" stroke="#fff" stroke-miterlimit="10" stroke-width=".5"/>
    <circle cx="189.52" cy="170.87" r=".41" fill="#fff" stroke="#fff" stroke-miterlimit="10" stroke-width=".5"/>
    <polyline points="216.45 116.11 174.48 116.11 174.48 136.9" fill="none" stroke="#5b2368" stroke-miterlimit="10" stroke-width=".5"/>
    <g>
      <path d="M185.07,142.57v1.46l.57-.25c-.18-.41-.38-.81-.57-1.21Z" fill="#5b2368" stroke="#fff" stroke-miterlimit="10" stroke-width=".5"/>
      <path d="M179.54,132.75c-.6-.87-1.22-1.72-1.86-2.57-1.01-1.32-2.07-2.62-3.2-3.89v10.61-10.61c-1.26-1.42-2.59-2.82-4.03-4.21l-12.07,12.49c4.77,4.61,8.66,10.12,11.4,16.27l15.29-6.81v-1.46c-1.65-3.55-3.46-6.79-5.53-9.82Z" fill="#5b2368" stroke="#fff" stroke-miterlimit="10" stroke-width=".5"/>
    </g>
    <circle cx="174.48" cy="136.9" r=".41" fill="#fff" stroke="#fff" stroke-miterlimit="10" stroke-width=".5"/>
    <text fill="#00a28a" font-family="OpenSans-Bold, &apos;Open Sans&apos;" font-weight="700"><tspan font-size="8"><tspan x="198.02" y="160.8">100 to 199</tspan></tspan><tspan font-size="5"><tspan x="211.16" y="166.8">employees</tspan></tspan></text>
    <text transform="translate(52.81 194.01)" font-family="OpenSans-Bold, &apos;Open Sans&apos;" font-size="13.5" font-weight="700"><tspan x="0" y="0">are </tspan><tspan x="25.77" y="0" fill="#6c297b" letter-spacing="0em">small businesses</tspan></text>
    <text transform="translate(84.58 171.68)" fill="#6c297b" font-family="OpenSans-Bold, &apos;Open Sans&apos;" font-size="37" font-weight="700"><tspan x="0" y="0">98%</tspan></text>
    <g>
      <path d="M171.73,168.84c-1.46-26.04-23.04-46.71-49.44-46.71s-49.52,22.17-49.52,49.52" fill="none" stroke="#6c297b" stroke-linecap="square" stroke-miterlimit="10" stroke-width=".5"/>
      <path d="M172.67,168.79c.03.52-.37.96-.89.99-.52.03-.96-.37-.99-.89-.03-.52.37-.96.89-.99.52-.03.96.37.99.89Z" fill="#6c297b"/>
    </g>
  </g>
  <g id="Layer_7" data-name="Layer 7">
    <text transform="translate(7.2 220.91)" fill="#999" font-family="OpenSans, &apos;Open Sans&apos;" font-size="8"><tspan x="0" y="0">Data sources: Statistics Canada (2025) Business Register, </tspan><tspan x="0" y="9.6">Business Counts in Rural and Small Town Canada</tspan></text>
    <text transform="translate(21.6 36)" font-family="TradeGothicLT-Bold, &apos;TradeGothic LT Bold&apos;" font-size="20" font-weight="700"><tspan x="0" y="0">There are 1.37 million</tspan><tspan x="0" y="24">businesses in Canada</tspan></text>
    <rect x="0" y="21.6" width="14.4" height="14.4"/>
    <path id="path37" d="M0,237.6h244.8" fill="none" stroke="#231f20" stroke-miterlimit="3"/>
    <path id="path37-2" data-name="path37" d="M0,0h244.8" fill="none" stroke="#231f20" stroke-miterlimit="3"/>
  </g>
</svg>