<?xml version="1.0" encoding="UTF-8" standalone="no"?>
<svg
   viewBox="0 0 652.8 508.80002"
   version="1.1"
   id="svg75"
   sodipodi:docname="small-businesses_rural-urban-map.svg"
   width="6.8000002in"
   height="5.3000002in"
   inkscape:version="1.4.2 (1:1.4.2+202505120738+ebf0e940d0)"
   inkscape:export-filename="small-businesses_rural-urban-map.png"
   inkscape:export-xdpi="300"
   inkscape:export-ydpi="300"
   xml:space="preserve"
   xmlns:inkscape="http://www.inkscape.org/namespaces/inkscape"
   xmlns:sodipodi="http://sodipodi.sourceforge.net/DTD/sodipodi-0.dtd"
   xmlns="http://www.w3.org/2000/svg"
   xmlns:svg="http://www.w3.org/2000/svg"><defs
     id="defs75" /><sodipodi:namedview
     id="namedview75"
     pagecolor="#ffffff"
     bordercolor="#666666"
     borderopacity="1.0"
     inkscape:showpageshadow="2"
     inkscape:pageopacity="0.0"
     inkscape:pagecheckerboard="0"
     inkscape:deskcolor="#d1d1d1"
     showgrid="false"
     inkscape:zoom="1"
     inkscape:cx="364"
     inkscape:cy="112"
     inkscape:window-width="1920"
     inkscape:window-height="1043"
     inkscape:window-x="0"
     inkscape:window-y="0"
     inkscape:window-maximized="1"
     inkscape:current-layer="svg75"
     inkscape:document-units="in"><inkscape:grid
       id="grid75"
       units="in"
       originx="0"
       originy="0"
       spacingx="9.5999996"
       spacingy="9.5999996"
       empcolor="#0099e5"
       empopacity="0.30196078"
       color="#0099e5"
       opacity="0.14901961"
       empspacing="5"
       enabled="true"
       visible="false" /></sodipodi:namedview><rect
     x="5.6063082e-06"
     y="0.16666669"
     width="652.80005"
     height="506.84619"
     fill="#ffffff"
     id="rect21"
     style="stroke-width:4.13103" /><path
     id="CA-PE"
     d="m 533.62128,430.63516 c -0.10667,-0.10666 -1.56,-0.25333 -3.2,-0.33333 -1.66667,-0.0667 -3.93334,-0.4 -5.01334,-0.73333 -2.44,-0.73334 -2.94667,-0.84 -3.64,-0.86667 -1.49333,-0.0667 -1.64,-0.61333 -0.73333,-2.54667 0.46666,-1.01333 1.09333,-1.85333 1.34666,-1.85333 0.25334,0 1.20001,0.73333 2.10667,1.56 1.30667,1.26667 1.70667,1.49333 2.04,1.09333 0.25334,-0.29333 1.13334,-0.46666 2.21334,-0.46666 0.98666,0 2.06666,-0.14667 2.4,-0.33334 1.16,-0.61333 4.4,-1.45333 4.58666,-1.16 0.10667,0.14667 -0.0667,0.73334 -0.33333,1.26667 -0.29333,0.54667 -0.54667,1.70667 -0.58667,2.58667 -0.10666,1.45333 -0.69333,2.33333 -1.2,1.78666 z"
     fill="#d3d3d3"
     style="stroke-width:1.33333" /><g
     id="g84"
     style="fill:#d9d9d9;fill-opacity:1"><g
       id="g2031"
       transform="matrix(1.3333334,0,0,1.3333334,23.061249,27.528476)"
       style="fill:#d9d9d9;fill-opacity:1"><path
         id="CA-ON-5"
         d="m 287.14,350.82 c 0.3,-0.55 0.65,-0.82 1.42,-0.93 0.57,-0.08 1.2,-0.27 1.39,-0.41 0.52,-0.33 0.76,-2.24 0.35,-2.48 -0.25,-0.14 -0.27,-0.35 -0.08,-0.71 0.14,-0.27 0.35,-0.98 0.44,-1.53 0.11,-0.55 0.41,-1.17 0.68,-1.36 0.98,-0.68 1.83,-2.29 1.75,-3.25 -0.05,-0.52 -0.11,-1.91 -0.14,-3.14 -0.03,-2.07 0.03,-2.32 0.93,-3.95 l 0.98,-1.75 -0.49,-1.09 c -0.27,-0.6 -0.76,-1.31 -1.06,-1.61 -0.57,-0.52 -0.79,-1.25 -0.38,-1.25 0.11,0 0.93,0.74 1.8,1.64 1.45,1.47 2.92,2.43 4.39,2.84 1.5,0.41 2.32,-2.1 1.2,-3.68 -0.71,-1.04 -3.68,-4.25 -4.45,-4.83 -0.27,-0.22 -1.34,-0.49 -2.32,-0.6 -0.98,-0.11 -2.48,-0.41 -3.3,-0.63 -1.06,-0.3 -2.65,-0.44 -5.51,-0.44 -3.74,0 -4.04,-0.03 -4.42,-0.57 -0.22,-0.3 -1.04,-0.9 -1.83,-1.31 -1.17,-0.6 -1.45,-0.87 -1.47,-1.47 -0.03,-0.41 -0.38,-1.09 -0.82,-1.55 -0.68,-0.71 -0.71,-0.85 -0.33,-0.98 0.6,-0.25 0.57,-0.82 -0.11,-1.77 -0.3,-0.44 -0.79,-1.31 -1.09,-1.99 -0.46,-1.06 -0.65,-1.23 -1.58,-1.36 -1.04,-0.16 -3.95,-1.55 -4.64,-2.24 -0.22,-0.19 -0.41,-0.82 -0.44,-1.39 -0.03,-0.57 -0.16,-1.39 -0.27,-1.83 l -0.22,-0.79 -2.21,0.14 c -2.05,0.14 -2.32,0.08 -3.79,-0.65 l -1.58,-0.79 -1.12,0.71 c -1.04,0.65 -1.09,0.74 -0.71,1.15 0.38,0.38 0.27,0.55 -1.39,1.61 -1.01,0.65 -2.26,1.66 -2.81,2.24 -1.09,1.17 -1.23,1.2 -5.15,0.55 -1.12,-0.19 -2.92,-0.35 -3.98,-0.38 -1.83,-0.05 -3.65,-0.71 -3.65,-1.28 0,-0.11 -0.33,-0.22 -0.71,-0.22 -0.44,0 -1.09,-0.38 -1.72,-0.95 -1.01,-0.95 -1.04,-0.95 -3.52,-0.95 -1.8,0 -2.62,-0.11 -2.89,-0.38 -0.22,-0.22 -0.87,-0.46 -1.45,-0.57 -1.5,-0.27 -1.66,-0.46 -1.85,-2.37 -0.16,-1.55 -0.25,-1.75 -1.06,-2.13 -0.85,-0.41 -0.87,-0.49 -0.85,-2.05 0.03,-1.75 0.35,-9.05 0.52,-11.7 0.05,-0.9 0.19,-3.6 0.27,-5.97 0.22,-5.45 -0.25,-4.58 6.24,-11.34 1.36,-1.42 3.27,-3.49 4.25,-4.61 0.98,-1.12 1.88,-2.15 2.05,-2.32 0.17,-0.17 1.75,-2.02 3.55,-4.12 1.8,-2.1 3.87,-4.5 4.64,-5.32 3.68,-4.06 5.32,-5.92 5.81,-6.54 l 0.55,-0.68 0.9,0.52 c 1.12,0.63 2.95,2.35 2.95,2.75 0,0.16 0.41,0.68 0.9,1.17 0.65,0.65 1.31,0.95 2.54,1.17 1.12,0.22 1.88,0.55 2.45,1.09 0.79,0.74 1.47,0.98 2.73,1.04 0.3,0 1.23,0.63 2.05,1.34 l 1.47,1.31 5.1,0.16 c 4.45,0.14 5.26,0.25 6.24,0.74 l 1.12,0.57 -0.19,2.37 c -0.11,1.31 -0.3,2.48 -0.41,2.59 -0.14,0.14 0,0.6 0.27,1.09 0.27,0.46 0.6,1.39 0.68,2.07 0.3,2.18 0.35,2.4 0.6,2.92 0.14,0.27 0.22,1.06 0.16,1.75 -0.08,1.01 0.08,1.5 0.74,2.54 1.06,1.66 4.34,5.62 4.66,5.62 0.63,0 2.37,2.26 2.86,3.68 l 0.52,1.55 1.69,-0.14 1.69,-0.14 0.16,1.39 c 0.27,2.21 0.38,3.19 0.55,4.8 0.08,0.82 0.19,1.8 0.27,2.18 0.05,0.38 0.19,1.42 0.27,2.32 0.08,0.9 0.22,1.94 0.27,2.32 0.14,0.9 0.38,3.08 0.57,4.77 0.08,0.76 0.19,1.8 0.27,2.32 0.41,3.27 0.68,5.51 0.82,6.93 0.08,0.87 0.55,2.43 0.98,3.44 0.68,1.55 1.06,2.02 2.4,2.95 1.77,1.25 4.23,2.13 6.71,2.37 1.12,0.11 2.02,0.41 2.89,0.98 0.68,0.44 1.47,0.79 1.77,0.82 0.3,0 0.85,0.46 1.25,1.06 l 0.74,1.06 2.35,-0.14 c 2.05,-0.11 2.59,-0.25 4.06,-1.06 1.72,-0.95 3.11,-1.39 3.14,-0.98 0.05,0.41 0.19,1.12 0.38,1.69 0.14,0.46 -0.03,0.76 -0.85,1.47 -1.69,1.45 -3.11,2.95 -5.13,5.45 -1.04,1.31 -2.02,2.37 -2.18,2.4 -0.46,0.03 -1.55,1.06 -1.39,1.31 0.33,0.52 -1.88,1.34 -3.68,1.39 -3.25,0.11 -7.94,2.02 -8.94,3.68 -0.98,1.64 -0.98,2.05 0.05,2.45 0.52,0.22 1.17,0.33 1.47,0.25 0.41,-0.11 0.63,0.08 0.98,0.82 0.52,1.12 0.35,1.25 -1.47,1.25 -1.09,0 -4.09,1.12 -4.85,1.83 -0.35,0.33 -0.33,0.44 0.27,0.9 l 0.68,0.52 -0.74,0.19 c -0.41,0.11 -1.28,0.05 -1.96,-0.11 -2.59,-0.65 -3.19,-0.35 -6.41,3 -1.77,1.85 -2.22,2.07 -3,2.34 -0.85,0.31 -2.32,0.23 -2.7,0 l 0.44,-0.76 z"
         fill="#d3d3d3"
         style="fill:#d9d9d9;fill-opacity:1" /><path
         id="path1053"
         d="m 282.25,322.82 c 0.11,-0.09 2.22,0.05 3.04,0.04 0.89,-0.01 0.31,0.64 1.29,0.75 0.85,0.26 0.51,-0.56 1.1,-0.65 0.59,-0.16 2.08,-0.34 2.94,-0.21 0.74,0.28 -0.32,0.8 0.1,1.11 0.48,0.36 1.18,-1.13 1.37,-0.55 0.23,0.29 -1.3,2.86 -1.3,2.86 -5.27,-2.66 -8.54,-2.73 -8.53,-3.35 v 0 z"
         fill="#d3d3d3"
         stroke="#d3d3d3"
         style="fill:#d9d9d9;fill-opacity:1" /></g><path
       id="CA-AB"
       d="m 227.75459,414.8885 c -19.45333,-5.13334 -17.38666,-4.36 -18.50666,-6.94667 l -0.98667,-2.18667 0.8,-4.04 c 0.84,-4.25333 0.8,-5.30666 -0.33333,-7.52 -0.36,-0.76 -1.45334,-2.86667 -2.36,-4.69333 -0.90667,-1.82667 -2.04,-4.36 -2.44,-5.64 -0.44,-1.26667 -1.24,-3.01334 -1.81334,-3.89334 -0.57333,-0.88 -1.16,-2.18666 -1.30666,-2.90666 -0.14667,-0.72 -0.69334,-1.85334 -1.26667,-2.50667 -0.58667,-0.65333 -1.05333,-1.38667 -1.05333,-1.56 0,-0.17333 -0.33334,-0.86667 -0.76,-1.45333 -0.44,-0.61334 -0.90667,-2.10667 -1.09334,-3.49334 -0.21333,-1.53333 -0.65333,-2.90666 -1.24,-3.70666 -0.46666,-0.69334 -1.05333,-1.70667 -1.24,-2.25334 -0.21333,-0.54666 -0.94666,-1.34666 -1.64,-1.81333 -1.26666,-0.84 -1.74666,-2.14667 -0.94666,-2.65333 0.21333,-0.10667 0.36,-1.13334 0.36,-2.25334 0,-1.96 2.4,-8.84 18.61333,-53.41333 l 1.45333,-4.04 8.04,2.69333 c 4.44,1.49333 11.16,3.6 14.94667,4.69333 3.78667,1.09334 10.50667,3.09334 14.86667,4.36 4.4,1.26667 8,2.36 8.06667,2.44 0.25333,0.25334 -1.09334,5.56 -1.45334,5.81334 -0.21333,0.14666 -0.8,0.36 -1.26667,0.50666 -0.90666,0.25334 -4.73333,4 -4.76,4.69334 0,0.21333 0.58667,0.65333 1.26667,1.01333 1.24,0.58667 1.34667,0.58667 2.33333,-0.10667 0.58667,-0.4 1.16,-1.09333 1.26667,-1.49333 0.14667,-0.4 0.33333,-0.65333 0.4,-0.58667 0.10667,0.10667 -0.46667,2.84 -1.26667,6.10667 -1.85333,7.74667 -3.85333,16.10667 -6.61333,27.6 -1.2,5.09334 -2.61333,10.90667 -3.09333,12.90667 -2.44,10.06667 -4.58667,19.09333 -5.74667,24 -6.18667,25.89334 -5.64,23.85334 -6,23.77334 -0.04,-0.0667 -2.44,-0.69334 -5.24,-1.45334 z"
       fill="#d3d3d3"
       style="stroke-width:1.33333;fill:#d9d9d9;fill-opacity:1" /><g
       id="CA-BC"
       transform="matrix(1.3333334,0,0,1.3333334,23.061249,27.528476)"
       style="fill:#d9d9d9;fill-opacity:1"><path
         id="path1060"
         d="m 95.57,276.26 c -1.75,-1.12 -4.36,-4.53 -4.36,-5.7 0,-0.65 -0.16,-0.87 -0.79,-1.12 -0.82,-0.3 -1.42,-1.36 -1.8,-3.05 -0.08,-0.46 -0.44,-1.25 -0.79,-1.77 -0.33,-0.52 -0.82,-1.5 -1.09,-2.18 -0.27,-0.68 -0.98,-2.05 -1.58,-3.08 -0.65,-1.12 -1.25,-2.51 -1.45,-3.55 -0.19,-0.93 -0.52,-2.1 -0.71,-2.59 -0.35,-0.85 -0.33,-0.93 0.44,-1.55 0.44,-0.35 1.04,-0.68 1.34,-0.68 0.55,0 2.15,1.55 4.8,4.61 0.82,0.95 1.64,1.88 1.77,2.05 0.16,0.16 0.71,0.85 1.23,1.53 0.52,0.68 1.01,1.28 1.09,1.36 0.38,0.33 1.06,2.73 1.25,4.34 0.16,1.53 0.35,1.96 1.53,3.52 1.58,2.07 1.72,2.37 1.96,4.53 0.11,0.87 0.35,2.07 0.57,2.65 0.19,0.57 0.3,1.12 0.19,1.2 -0.38,0.38 -2.7,0.08 -3.6,-0.49 z"
         fill="#d3d3d3"
         style="fill:#d9d9d9;fill-opacity:1" /><path
         id="path1062"
         d="m 138.79,286.54 c -0.25,-0.08 -5.86,-1.83 -10.23,-3.19 -1.5,-0.46 -17.43,-6.44 -24,-9 -1.12,-0.44 -2.4,-0.93 -2.86,-1.09 -1.04,-0.38 -1.23,-0.65 -1.23,-1.91 0,-0.71 -0.19,-1.17 -0.57,-1.5 -1.58,-1.31 -2.15,-1.96 -2.15,-2.48 0,-0.33 -0.11,-0.57 -0.25,-0.57 -0.65,0 -1.61,-1.45 -1.77,-2.7 -0.27,-2.05 -1.17,-3.82 -2.78,-5.45 -1.45,-1.47 -1.45,-1.5 -1.31,-2.81 0.14,-1.06 0.08,-1.31 -0.25,-1.31 -0.22,0 -0.46,-0.11 -0.52,-0.22 -0.05,-0.11 -0.68,-0.55 -1.39,-0.95 -0.71,-0.4 -1.31,-0.9 -1.31,-1.09 0,-0.19 -0.08,-0.57 -0.14,-0.87 -0.16,-0.74 -0.16,-1.23 -0.14,-4.15 0.03,-2.45 0.05,-2.54 0.87,-3.22 0.76,-0.65 0.82,-0.76 0.52,-1.55 -0.16,-0.46 -0.3,-1.34 -0.3,-1.94 0,-0.82 -0.27,-1.45 -1.09,-2.65 -0.93,-1.31 -1.06,-1.72 -0.95,-2.51 0.08,-0.52 0.41,-1.15 0.71,-1.39 0.63,-0.52 0.57,-0.95 -0.38,-2.81 -0.46,-0.93 -0.55,-1.61 -0.55,-4.64 0,-3.41 0.03,-3.55 0.71,-4.23 0.38,-0.38 1.34,-0.93 2.15,-1.23 1.96,-0.74 3.52,-2.13 3.52,-3.16 0,-1.09 0.6,-2.37 1.61,-3.49 0.76,-0.85 0.85,-1.12 0.85,-2.62 0,-1.5 -0.08,-1.75 -0.82,-2.4 -0.93,-0.85 -2.56,-3.93 -3.03,-5.7 -0.27,-1.06 -0.22,-1.64 0.44,-4.28 0.65,-2.7 0.71,-3.25 0.44,-4.61 -0.16,-0.85 -0.35,-2.7 -0.46,-4.15 -0.08,-1.42 -0.22,-2.84 -0.27,-3.16 -0.05,-0.33 -0.19,-1.06 -0.27,-1.64 -0.08,-0.58 -0.52,-2.59 -0.95,-4.47 -0.43,-1.88 -0.87,-3.68 -0.95,-4.01 -0.08,-0.38 -0.52,-0.76 -1.15,-1.04 -1.91,-0.79 -2.15,-0.79 -2.7,0.11 -0.35,0.6 -0.93,0.98 -2.15,1.42 -0.9,0.33 -2.13,0.82 -2.73,1.12 -0.6,0.27 -1.09,0.52 -1.15,0.52 -0.03,0 0.05,-0.41 0.16,-0.9 0.38,-1.36 0.14,-4.64 -0.41,-5.45 -0.57,-0.85 -0.49,-3.38 0.11,-3.27 0.19,0.05 2.95,1.77 6.14,3.85 8.64,5.64 18.08,11.4 22.66,13.8 2.26,1.17 4.2,2.21 4.36,2.32 0.74,0.52 9.16,4.77 12.27,6.22 1.96,0.9 6.19,2.65 9.41,3.87 3.22,1.25 5.97,2.35 6.08,2.45 0.11,0.1 0.08,0.49 -0.05,0.85 -0.16,0.35 -1.58,4.28 -3.16,8.7 -1.58,4.42 -3.35,9.33 -3.95,10.91 -6.3,17.18 -7.64,21.08 -7.64,22.44 0,0.82 -0.16,1.66 -0.41,1.99 -0.6,0.85 -0.25,2.02 0.76,2.67 1.28,0.82 2.92,3.87 3.11,5.78 0.11,1.04 0.41,1.96 0.93,2.78 0.44,0.68 0.76,1.34 0.76,1.5 0,0.14 0.3,0.57 0.65,0.98 0.35,0.38 0.79,1.28 0.98,1.99 0.19,0.71 0.46,1.36 0.6,1.45 0.35,0.22 1.47,2.56 1.72,3.52 0.11,0.46 1.06,2.59 2.13,4.75 1.12,2.26 1.94,4.28 1.94,4.77 0,0.46 -0.22,1.99 -0.46,3.41 -0.49,2.65 -0.41,3.76 0.3,4.88 0.49,0.68 0.46,0.9 0,0.76 z"
         fill="#d3d3d3"
         style="fill:#d9d9d9;fill-opacity:1" /><path
         id="path1064"
         d="m 76.26,235.08 c -1.12,-2.56 -1.53,-5.62 -1.34,-9.98 0.11,-2.54 0.27,-4.06 0.52,-4.34 0.19,-0.22 0.35,-0.63 0.35,-0.85 0,-0.71 1.17,-0.68 2.26,0.05 1.31,0.87 3.05,2.62 3.05,3.03 0,0.19 -1.09,1.47 -2.45,2.89 -2.86,3 -2.92,3.14 -1.77,7.23 0.38,1.34 0.68,2.67 0.68,2.92 0,0.95 -0.71,0.44 -1.31,-0.95 z"
         fill="#d3d3d3"
         style="fill:#d9d9d9;fill-opacity:1" /></g><path
       id="CA-MB"
       d="m 298.18126,319.55516 -0.25333,2.29333 c -0.14667,1.26667 -0.33333,2.54667 -0.36,2.84 -0.0267,0.29333 -0.21333,1.45333 -0.36,2.54667 -0.14667,1.09333 -0.33333,2.25333 -0.36,2.54667 -0.0267,0.29333 -0.36,2.65333 -0.73333,5.24 -0.58667,4.44 -0.58667,4.76 0,5.74666 0.61333,1.01334 0.58666,1.05334 -0.4,2.33334 -0.58667,0.73333 -1.2,1.56 -1.45334,1.89333 -0.21333,0.33333 -0.54666,2.73333 -0.65333,5.30667 -0.10667,2.57333 -0.29333,5.38666 -0.36,6.18666 -0.0667,0.8 -0.21333,2.90667 -0.36,4.73334 -0.14667,1.82666 -0.29333,4.25333 -0.4,5.45333 -0.36,4.98667 -0.54667,7.05333 -0.73333,9.81333 -0.10667,1.6 -0.29334,3.74667 -0.36,4.73334 -0.0667,0.98666 -0.25334,3.45333 -0.36,5.45333 -0.10667,2 -0.29334,4.29333 -0.36,5.09333 -0.0667,0.8 -0.21334,3.16001 -0.36,5.26667 -0.14667,2.10667 -0.29334,4.4 -0.36,5.09334 -0.0667,0.69333 -0.21334,3.16 -0.36,5.45333 -0.14667,2.29333 -0.29334,4.44 -0.36,4.73333 -0.18667,0.98667 -0.69334,9.24 -0.69334,11.64 l -0.04,2.36 2.18667,0.21334 c 3.49333,0.36 6.84,0.73333 7.81333,0.86666 0.50667,0.0667 1.81334,0.21334 2.90667,0.36 2.10667,0.21334 3.30667,0.36 6.54667,0.76 1.09333,0.14667 3.56,0.36 5.45333,0.46667 1.89333,0.10667 5.13333,0.29333 7.16,0.33333 l 3.66667,0.10667 0.21333,-1.74667 c 0.10667,-0.94666 0.29334,-3.70666 0.4,-6.10666 0.10667,-2.4 0.25334,-5.53334 0.36,-6.90667 0.0667,-1.38667 0.25334,-5.01333 0.36,-8 0.4,-10.4 0.50667,-11.45333 1.38667,-12.90667 0.44,-0.73333 3.01333,-3.70667 5.74667,-6.58667 2.73333,-2.88 5.66666,-6.04 6.54666,-7.01333 0.88,-0.97333 1.78667,-2 1.96,-2.21333 3.49334,-3.93334 5.2,-5.89334 7.05334,-8.14667 1.24,-1.49333 3.41333,-3.96 4.8,-5.49333 1.38666,-1.53334 3.09333,-3.41334 3.74666,-4.18667 0.69334,-0.76 2.06667,-2.29333 3.09334,-3.41333 1.02666,-1.12 1.85333,-2.18667 1.85333,-2.4 0,-0.4 -1.89333,-1.2 -3.56,-1.45334 -2.50667,-0.4 -3.2,-0.65333 -3.64,-1.24 -0.36,-0.50666 -0.94667,-0.61333 -2.65333,-0.58666 -1.2,0.04 -2.33334,0.21333 -2.46667,0.46666 -0.29333,0.44 -4.50667,0.98667 -5.30667,0.65334 -0.36,-0.14667 -0.44,-0.44 -0.25333,-0.98667 0.29333,-0.76 0.21333,-1.2 -0.8,-6.10667 -0.73333,-3.49333 -0.94667,-4.54666 -1.2,-6.54666 -0.29333,-2.29334 -1.24,-2.98667 -5.01333,-3.78667 -2.44,-0.50667 -3.26667,-0.84 -3.56,-1.41333 -0.44,-0.84 -0.44,-3.70667 0.04,-7.60001 l 0.29333,-2.46666 -1.93333,-0.04 c -1.05334,-0.04 -2.06667,-0.0667 -2.21334,-0.10667 -0.14666,-0.04 -1.49333,-0.18667 -3.01333,-0.36 -1.52,-0.17333 -2.98667,-0.33333 -3.26667,-0.4 -0.29333,-0.04 -1.66667,-0.21333 -3.05333,-0.36 -1.38667,-0.14667 -2.86667,-0.33333 -3.26667,-0.4 -0.4,-0.0667 -1.74667,-0.21333 -2.94667,-0.33333 -1.2,-0.12 -3.49333,-0.36 -5.09333,-0.54667 -1.6,-0.18667 -3.89333,-0.44 -5.09333,-0.54667 -1.2,-0.10666 -2.94667,-0.29333 -3.89334,-0.44 l -1.64,-0.14666 z m 10.4,62.50667 c 1.41334,0 2.33334,0.65333 3.05334,2.06666 0.44,0.84 0.86666,1.56 1.01333,1.66667 0.69333,0.46667 2.33333,4.90667 2.04,5.38667 -0.18667,0.33333 0.46667,2.33333 1.16,3.6 0.25333,0.44 0.4,1.66667 0.36,2.73333 -0.0667,2.04 1.13333,6.46667 2.29333,8.44 0.46667,0.8 0.65334,2.06667 0.76,4.54667 0.10667,3.41333 0.0667,3.45333 -0.76,3.56 -0.46666,0.0667 -1.16,0.50667 -1.56,1.01333 -0.8,1.01334 -1.45333,1.09334 -2.21333,0.36 -0.61333,-0.61333 -0.44,-3.24 0.33333,-4.36 0.25334,-0.4 0.58667,-1.2 0.65334,-1.78666 0.10666,-0.58667 0.4,-1.26667 0.65333,-1.56 0.73333,-0.86667 0.69333,-1.74667 -0.0667,-2.21334 -0.58666,-0.36 -0.76,-0.33333 -1.16,0.29334 -0.50666,0.8 -1.38666,0.98666 -1.38666,0.29333 0,-0.21333 0.18666,-0.94667 0.44,-1.56 0.98666,-2.69333 -0.61334,-5.05333 -2.90667,-4.25333 -0.94667,0.33333 -1.2,0.25333 -1.81333,-0.4 -0.4,-0.44 -0.94667,-1.56 -1.26667,-2.50667 -0.32,-0.94667 -0.98667,-2.25333 -1.45333,-2.90667 -0.61334,-0.84 -0.84,-1.53333 -0.73334,-2.29333 0.14667,-0.98667 0,-1.16 -1.6,-2.04 -2.36,-1.24 -3.30666,-0.86667 -3.38666,1.26666 -0.04,0.84 -0.10667,2.29334 -0.18667,3.30667 -0.33333,4.98667 -0.33333,5.01334 1.16,6.18667 3.2,2.54667 3.45333,2.86667 3.96,5.09333 0.29333,1.2 0.50667,2.76 0.46667,3.49334 0,0.73333 0.44,2.14666 0.94666,3.16 1.2,2.4 1.26667,4.25333 0.10667,4.58666 -1.2,0.33334 -1.66667,0.29334 -1.93333,-0.18666 -0.25334,-0.4 -1.24,-5.01334 -1.96,-9.01334 -0.4,-2.25333 -0.94667,-2.94666 -3.45334,-4.58666 -2,-1.30667 -2.98666,-2.33334 -2.86666,-3.01334 0.04,-0.25333 0.0667,-0.76 0.10666,-1.16 0.04,-0.4 0.25334,-0.90666 0.54667,-1.2 0.33333,-0.33333 0.46667,-1.34666 0.46667,-2.90666 q 0,-2.40001 -1.38667,-3.20001 c -1.56,-0.86666 -2.10667,-1.70666 -2.10667,-3.09333 0,-0.76 0.18667,-0.94667 0.90667,-0.94667 1.34667,0 1.81333,-1.16 0.90667,-2.29333 -0.4,-0.50667 -0.73334,-1.09333 -0.73334,-1.30667 0,-0.46666 1.70667,-1.24 2.69334,-1.2 0.86666,0.04 2.76,1.81334 2.76,2.61334 0,0.33333 0.36,0.94666 0.84,1.38666 l 0.84,0.8 0.46666,-1.30666 c 0.8,-2.25334 2.29334,-4.10667 3.49334,-4.4 0.50666,-0.0667 1.01333,-0.14667 1.49333,-0.14667 z"
       fill="#d3d3d3"
       style="stroke-width:1.33333;fill:#d9d9d9;fill-opacity:1" /><path
       id="CA-NB"
       d="m 507.76794,446.99516 c -0.84,-0.21333 -1.81333,-1.34666 -2.44,-2.73333 -0.21333,-0.54667 -0.8,-1.09333 -1.24,-1.2 -1.49333,-0.36 -3.81333,-6.44 -3.81333,-9.96 0,-1.2 -0.21334,-1.81333 -0.84,-2.4 -1.41334,-1.34667 -3.30667,-2.33333 -4.50667,-2.33333 h -1.16 l -0.14667,-2.29334 c -0.0667,-1.24 -0.0667,-2.4 0,-2.54666 0.0667,-0.14667 1.13334,-0.29334 2.4,-0.29334 2.69334,-0.04 4.14667,-0.50666 5.66667,-1.89333 0.69333,-0.61333 2.14667,-1.26667 3.81333,-1.74667 2.50667,-0.69333 2.8,-0.69333 4.06667,-0.18666 1.30667,0.54666 1.38667,0.54666 2.06667,-0.21334 1.49333,-1.6 5.70666,-2.84 5.70666,-1.70666 0,0.25333 -0.25333,0.86666 -0.54666,1.38666 -0.76,1.34667 -0.69334,4.44 0.14666,5.49334 0.36,0.46666 0.8,1.41333 0.94667,2.06666 0.14667,0.73334 0.90667,1.81334 1.96,2.84 1.64,1.56 1.78667,1.6 3.89334,1.6 1.24,0 2.33333,0.10667 2.44,0.21334 0.10666,0.10666 -0.61334,1.05333 -1.6,2.10666 -0.98667,1.01334 -2.21334,2.76 -2.73334,3.81334 -1.30667,2.73333 -5.85333,7.34666 -7.24,7.34666 -0.8,0 -1.16,0.25334 -1.49333,1.01334 -0.73334,1.45333 -3.09334,2.18666 -5.38667,1.6 z"
       fill="#d3d3d3"
       style="stroke-width:1.33333;fill:#d9d9d9;fill-opacity:1" /><g
       id="CA-NL"
       transform="matrix(1.3333334,0,0,1.3333334,23.061249,27.528476)"
       style="fill:#d9d9d9;fill-opacity:1"><path
         id="path1069"
         d="m 393.93,284.63 c -0.76,-0.95 -0.74,-2.13 0.05,-3.19 0.85,-1.15 0.93,-2.54 0.19,-2.78 -0.71,-0.22 -0.68,-0.79 0.03,-1.96 0.52,-0.85 0.57,-1.17 0.41,-3.3 -0.27,-3.82 -0.19,-8.29 0.25,-12.74 0.03,-0.3 0.14,-1.53 0.27,-2.73 0.25,-2.51 0.74,-3.44 2.7,-4.94 1.06,-0.82 1.36,-0.93 1.69,-0.63 1.01,0.85 1.23,1.83 1.12,5.15 -0.05,1.77 -0.19,3.33 -0.27,3.46 -0.08,0.13 -0.22,0.98 -0.33,1.88 l -0.16,1.64 0.68,-0.82 c 0.38,-0.46 0.71,-0.9 0.71,-1.01 0.03,-0.41 1.15,-0.52 2.05,-0.19 1.01,0.35 1.04,0.41 0.95,1.8 l -0.05,0.9 h 1.36 c 0.76,0 1.45,-0.11 1.53,-0.25 0.08,-0.14 0.74,-0.41 1.45,-0.6 0.71,-0.19 1.91,-0.65 2.67,-0.98 1.36,-0.63 2.59,-0.65 3.71,-0.05 0.6,0.3 0.87,1.77 0.44,2.43 -0.27,0.44 -0.25,0.63 0.22,1.06 0.46,0.46 0.74,0.52 1.91,0.33 1.75,-0.27 2.02,-0.16 2.02,0.74 0,0.76 -0.57,1.77 -1.45,2.56 -0.3,0.27 -0.38,0.49 -0.22,0.49 0.16,0 0.33,0.41 0.33,0.93 0,0.52 0.08,1.12 0.16,1.36 0.19,0.49 0.65,0.57 0.65,0.11 0,-0.52 1.36,-2.13 1.77,-2.13 0.22,0 0.52,0.49 0.71,1.09 0.38,1.25 0.74,1.34 1.88,0.49 0.44,-0.33 0.9,-0.49 1.01,-0.38 0.11,0.11 0.25,1.04 0.27,2.02 0.03,1.01 0.08,2.26 0.11,2.84 0.05,1.47 -1.04,3.05 -2.18,3.16 -0.68,0.05 -0.93,-0.08 -1.17,-0.63 -0.38,-0.87 -0.57,-0.87 -1.04,0 -0.74,1.39 -1.34,0.52 -1.66,-2.37 -0.25,-2.13 -0.55,-2.95 -1.09,-2.95 -0.14,0 -0.25,0.44 -0.25,1.01 0,0.82 -0.22,1.2 -1.06,2.02 -0.98,0.93 -1.09,1.2 -1.34,3 -0.35,2.65 -1.01,3.35 -3.16,3.41 -1.85,0.05 -1.99,-0.38 -0.55,-1.75 0.79,-0.74 0.95,-1.09 0.95,-1.99 0,-1.01 -0.03,-1.06 -0.57,-0.76 -1.04,0.55 -2.21,0.79 -2.54,0.52 -0.33,-0.27 -0.79,-0.05 -3.55,1.58 -0.82,0.49 -1.85,0.95 -2.26,1.04 -0.41,0.05 -1.17,0.19 -1.69,0.27 -0.52,0.08 -2.18,0.65 -3.68,1.25 -1.5,0.6 -2.89,1.15 -3.05,1.23 -0.22,0.03 -0.6,-0.25 -0.93,-0.65 z"
         fill="#d3d3d3"
         style="fill:#d9d9d9;fill-opacity:1" /><path
         id="path1071"
         d="m 360.04,265.03 c -0.05,-0.05 -0.55,-0.14 -1.12,-0.22 -0.57,-0.08 -1.28,-0.35 -1.55,-0.6 -0.41,-0.38 -0.85,-0.44 -2.1,-0.33 -1.99,0.16 -2.21,0.08 -2.4,-0.95 -0.33,-1.75 -0.35,-1.96 -0.38,-2.29 0,-0.16 -0.22,-0.52 -0.44,-0.74 -0.38,-0.38 -0.52,-0.35 -1.31,0.11 -0.49,0.3 -1.15,0.55 -1.45,0.55 -0.68,0 -1.64,-0.95 -1.23,-1.23 0.3,-0.19 0.38,-1.83 0.14,-2.78 -0.11,-0.35 -0.57,-0.76 -1.28,-1.04 -2.02,-0.79 -4.12,-4.06 -3.44,-5.34 0.16,-0.3 0.41,-0.55 0.55,-0.55 0.27,0 0.76,-1.04 0.9,-1.99 0.05,-0.3 0.35,-0.74 0.65,-0.98 0.33,-0.25 0.71,-0.76 0.85,-1.17 0.25,-0.68 0.33,-0.71 1.45,-0.46 0.65,0.14 1.47,0.46 1.85,0.74 0.95,0.65 1.96,0.46 2.59,-0.52 0.52,-0.79 0.6,-0.82 1.91,-0.63 0.76,0.11 1.58,0.19 1.85,0.16 0.38,-0.03 0.46,0.16 0.38,0.93 -0.05,0.52 -0.16,0.98 -0.22,1.01 -1.2,0.82 -2.15,1.64 -2.26,2.02 -0.08,0.27 -0.52,0.74 -0.98,1.04 -0.95,0.63 -1.01,0.95 -0.27,1.64 0.65,0.6 2.26,0.38 2.81,-0.35 0.63,-0.9 2.02,-1.39 3,-1.09 1.28,0.38 2.26,-0.08 2.84,-1.34 0.49,-1.06 0.55,-2.48 0.11,-2.89 -0.14,-0.14 -0.49,0 -0.82,0.33 -0.35,0.35 -0.93,0.57 -1.5,0.57 -2.05,0 -2.24,-0.55 -0.98,-2.92 0.46,-0.85 0.82,-1.8 0.82,-2.15 0,-0.82 -0.9,-2.89 -1.47,-3.35 -0.25,-0.19 -0.44,-0.57 -0.44,-0.82 0,-0.76 -1.36,-3.14 -2.24,-3.9 -0.57,-0.52 -0.9,-1.09 -1.04,-1.91 -0.11,-0.65 -0.35,-1.96 -0.52,-2.95 -0.17,-0.99 -0.33,-2.56 -0.33,-3.55 -0.03,-2.05 -0.52,-3.16 -1.55,-3.38 -0.38,-0.08 -1.12,-0.41 -1.58,-0.71 -0.98,-0.63 -1.15,-1.42 -0.46,-2.4 0.27,-0.41 0.33,-0.79 0.16,-1.23 -0.25,-0.65 -0.25,-0.9 0.08,-2.37 0.22,-0.93 0.05,-0.98 -2.43,-0.9 -0.6,0.03 -1.01,-0.03 -0.93,-0.11 0.08,-0.08 -0.05,-1.04 -0.33,-2.13 -0.35,-1.55 -0.57,-1.99 -0.98,-2.05 -0.3,-0.05 -0.65,-0.3 -0.82,-0.57 -0.38,-0.63 -1.5,-4.72 -1.34,-4.88 0.27,-0.27 3.46,2.54 4.55,4.04 0.65,0.9 1.39,1.61 1.64,1.61 0.25,0 0.71,0.35 1.04,0.79 0.3,0.44 0.98,1.06 1.47,1.36 0.6,0.38 1.12,1.04 1.5,1.94 0.38,0.87 0.76,1.36 1.06,1.36 0.25,0 0.74,0.41 1.06,0.93 0.46,0.71 0.85,0.95 1.69,1.09 0.95,0.16 1.2,0.33 1.72,1.34 0.33,0.63 0.68,1.64 0.76,2.24 0.14,1.01 0.25,1.09 1.42,1.45 0.68,0.19 1.47,0.57 1.72,0.87 0.44,0.46 0.44,0.63 0.05,1.85 -0.33,1.12 -0.33,1.45 -0.03,1.99 0.19,0.35 0.44,0.98 0.52,1.34 0.14,0.6 0.55,0.82 3.08,1.72 1.61,0.57 3.16,1.04 3.44,1.04 0.28,0 0.95,0.52 1.53,1.12 l 1.04,1.12 2.43,0.11 c 1.34,0.05 2.89,0.3 3.46,0.52 1.06,0.41 1.72,0.25 2.56,-0.57 0.27,-0.27 0.76,-0.22 2.32,0.22 1.09,0.3 2.07,0.65 2.15,0.79 0.35,0.55 -0.11,1.55 -0.85,1.85 -0.41,0.16 -1.42,1.06 -2.21,1.96 -0.79,0.9 -1.83,2.05 -2.26,2.51 -0.43,0.46 -1.39,1.47 -2.1,2.21 -1.31,1.39 -1.91,3.03 -1.2,3.27 0.57,0.22 3.38,-2.73 3.57,-3.76 0.11,-0.65 0.82,-1.61 2.26,-3.16 1.88,-2.02 2.18,-2.24 3.11,-2.24 0.85,0 1.12,0.16 1.64,0.9 0.52,0.76 0.74,0.87 1.31,0.71 1.28,-0.35 2.65,-0.25 3.3,0.25 0.35,0.27 1.39,0.93 2.29,1.42 0.9,0.49 1.66,0.93 1.72,0.95 0.06,0.02 -0.08,0.38 -0.25,0.76 -0.46,1.01 0.08,2.65 1.25,3.82 0.9,0.9 2.05,2.84 2.05,3.44 0,0.44 -1.85,3.3 -2.81,4.28 l -0.82,0.87 -1.12,-1.42 c -0.6,-0.79 -1.23,-1.5 -1.36,-1.61 -0.13,-0.11 -0.71,0.03 -1.23,0.3 -0.52,0.27 -1.61,0.63 -2.4,0.82 -0.79,0.19 -2.32,0.68 -3.41,1.09 -1.09,0.41 -3.33,1.28 -4.99,1.91 -1.66,0.63 -3.57,1.39 -4.31,1.66 -2.59,1.09 -8.26,3.05 -9.33,3.22 -0.87,0.16 -1.39,0.05 -2.62,-0.55 -0.85,-0.41 -1.64,-0.65 -1.8,-0.57 -0.16,0.11 -0.3,0.68 -0.33,1.28 -0.05,1.34 -0.33,3.79 -0.46,3.93 -0.19,0.3 -1.5,0.44 -1.61,0.33 z"
         fill="#d3d3d3"
         style="fill:#d9d9d9;fill-opacity:1" /></g><g
       id="CA-NS"
       transform="matrix(1.3333334,0,0,1.3333334,23.061249,27.528476)"
       style="fill:#d9d9d9;fill-opacity:1"><path
         id="path1074"
         d="m 372.83,323.44 c -1.58,-0.35 -2.37,-1.25 -3.03,-3.49 -0.33,-1.12 -0.35,-1.75 -0.19,-2.24 0.41,-1.06 2.21,-3.71 3.38,-5.02 0.57,-0.63 1.23,-1.39 1.42,-1.66 0.19,-0.27 0.68,-0.6 1.06,-0.68 0.76,-0.19 3.14,-1.8 3.14,-2.13 0,-0.27 -1.23,0.19 -2.67,1.04 -2.51,1.47 -2.15,-0.93 0.6,-4.06 1.23,-1.39 1.5,-1.58 2.35,-1.55 2.59,0.08 5.51,-0.38 6.46,-1.04 0.6,-0.41 1.15,-0.57 1.42,-0.46 0.25,0.11 1.01,0.22 1.69,0.25 1.45,0.05 2.56,0.68 3.03,1.69 0.3,0.63 0.19,0.82 -1.45,2.43 -0.95,0.95 -1.94,1.94 -2.15,2.18 -0.98,1.04 -3.38,2.86 -3.93,3 -0.35,0.08 -0.95,0.71 -1.42,1.5 -0.74,1.25 -0.87,1.34 -1.64,1.23 -0.71,-0.11 -0.9,0 -1.17,0.55 -0.16,0.38 -0.3,0.79 -0.3,0.95 0,0.16 -0.38,1.17 -0.82,2.24 -0.63,1.5 -1.25,2.43 -2.59,3.79 -0.98,1.01 -1.8,1.8 -1.83,1.8 -0.03,0 -0.65,-0.14 -1.36,-0.3 z"
         fill="#d3d3d3"
         style="fill:#d9d9d9;fill-opacity:1" /><path
         id="path1076"
         d="m 391.18,302.71 c -0.22,-0.19 -1.01,-0.98 -1.75,-1.77 -0.98,-1.04 -1.25,-1.53 -1.04,-1.77 0.16,-0.19 0.65,-1.47 1.12,-2.86 0.93,-2.81 1.83,-4.69 2.21,-4.69 0.49,0 1.09,1.23 1.12,2.18 0,1.55 0.27,2.13 1.04,2.32 0.95,0.25 2.24,1.47 2.24,2.15 0,0.3 -0.38,1.15 -0.85,1.85 -0.63,0.95 -1.01,1.31 -1.47,1.31 -0.38,0 -0.85,0.3 -1.23,0.82 -0.68,0.9 -0.79,0.95 -1.39,0.46 z"
         fill="#d3d3d3"
         style="fill:#d9d9d9;fill-opacity:1" /></g><g
       id="CA-NT"
       transform="matrix(1.3333334,0,0,1.3333334,23.061249,27.528476)"
       style="fill:#d9d9d9;fill-opacity:1"><path
         id="path1079"
         d="m 129.68,112.26 c -0.46,0 -1.12,0.08 -2.07,0.19 -1.47,0.19 -2.84,0.38 -3.03,0.46 -0.27,0.11 -0.33,0.52 -0.22,1.45 0.16,1.53 -0.19,1.94 -0.85,0.95 -0.25,-0.38 -0.55,-0.68 -0.63,-0.68 -0.46,0 -4.42,7.17 -5.21,9.41 -0.46,1.36 -1.04,2.73 -1.25,3.05 -0.63,0.95 -0.46,1.23 1.31,2.45 3.82,2.59 3.93,2.86 2.35,6.08 -0.55,1.12 -1.06,2.56 -1.15,3.19 -0.11,1.06 -0.05,1.2 0.93,1.99 0.57,0.46 1.01,0.95 0.93,1.06 -0.08,0.11 -0.16,0.9 -0.19,1.77 -0.05,1.69 -0.38,2.24 -1.5,2.51 -0.76,0.19 -1.2,0.85 -1.2,1.85 0,0.38 -0.11,0.71 -0.25,0.71 -0.14,0 -0.33,0.33 -0.41,0.71 -0.14,0.52 -0.03,0.87 0.38,1.31 0.38,0.41 0.57,0.95 0.57,1.8 0,0.71 0.27,1.77 0.65,2.56 0.46,0.93 0.6,1.64 0.52,2.24 -0.11,0.6 0.03,1.25 0.41,1.96 0.55,1.06 0.55,1.09 0.08,2.7 -0.65,2.15 -1.31,5.75 -1.5,8.13 -0.08,1.04 -0.22,2.15 -0.3,2.45 -0.11,0.35 0.05,0.79 0.44,1.23 0.74,0.85 1.17,1.88 1.61,3.82 0.41,1.75 0.93,2.89 1.72,3.76 l 0.57,0.63 -0.6,0.63 c -0.38,0.41 -0.6,0.98 -0.6,1.66 0,0.57 -0.14,1.25 -0.3,1.55 -0.25,0.49 -0.11,0.63 1.45,1.31 0.95,0.44 2.18,1.12 2.78,1.5 0.82,0.57 1.23,0.68 1.99,0.55 1.09,-0.22 1.04,-0.49 1.04,3.93 l 0.03,3.35 3,1.2 c 9.74,3.93 21.22,7.85 32.32,11.02 3.22,0.93 7.64,2.21 9.82,2.86 2.18,0.65 4.31,1.25 4.77,1.34 0.46,0.09 2.67,0.52 4.91,0.98 2.24,0.46 4.42,0.9 4.85,0.95 0.41,0.08 2.02,0.38 3.55,0.68 1.53,0.3 3.16,0.6 3.63,0.68 0.47,0.08 2.54,0.49 4.64,0.93 4.31,0.87 5.84,1.01 5.89,0.49 0,-0.19 0.05,-0.57 0.11,-0.85 0.06,-0.28 0.16,-1.58 0.27,-2.86 0.11,-1.28 0.22,-2.67 0.27,-3.03 0.05,-0.36 0.16,-1.47 0.25,-2.45 0.25,-2.78 0.68,-7.23 0.82,-8.59 0.05,-0.46 0.16,-1.91 0.27,-3.27 0.11,-1.36 0.22,-2.65 0.27,-2.86 0.05,-0.21 0.16,-1.45 0.27,-2.73 0.08,-1.28 0.3,-3.33 0.44,-4.58 0.14,-1.25 0.19,-2.37 0.11,-2.51 -0.08,-0.14 -1.88,-1.15 -4.04,-2.26 -4.53,-2.37 -9.16,-4.83 -12.6,-6.65 l -2.43,-1.31 -1.69,-2.73 -1.69,-2.73 -3.08,-0.65 -3.08,-0.65 -2.65,-3.57 c -1.45,-1.96 -3.74,-5.1 -5.1,-6.98 -1.34,-1.88 -4.01,-5.54 -5.92,-8.13 -1.91,-2.59 -3.65,-5.02 -3.9,-5.37 -0.38,-0.6 -0.35,-0.82 0.55,-3.19 3.35,-8.89 3.35,-8.84 1.66,-11.07 -0.52,-0.68 -0.93,-1.34 -0.93,-1.45 0,-0.11 -0.14,-0.22 -0.3,-0.22 -0.16,0 -0.63,-0.22 -1.04,-0.52 -0.41,-0.27 -1.23,-0.57 -1.83,-0.63 -0.93,-0.11 -1.25,0 -2.21,0.79 -0.98,0.79 -1.23,0.87 -1.85,0.63 -0.9,-0.35 -0.9,-0.55 0.08,-1.5 0.44,-0.44 0.74,-0.9 0.63,-1.06 -0.11,-0.16 -0.19,-0.93 -0.19,-1.72 0,-2.37 -0.38,-2.37 -2.75,0 -1.15,1.15 -2.15,2.1 -2.21,2.1 -0.19,0 -1.04,-0.9 -1.06,-1.15 -0.03,-0.14 -0.05,-1.8 -0.08,-3.74 -0.03,-3.46 -0.05,-3.49 -0.74,-3.82 -0.98,-0.44 -1.42,-0.41 -2.24,0.25 -0.52,0.41 -1.04,0.55 -2.02,0.49 -0.87,-0.03 -1.23,-0.16 -1.06,-0.35 0.14,-0.16 0.3,-0.63 0.35,-1.06 0.14,-0.68 0,-0.82 -1.12,-1.39 -1.25,-0.63 -3.25,-0.76 -4.94,-0.35 -0.38,0.08 -1.96,0.25 -3.55,0.33 -2.07,0.11 -2.92,0.27 -3.08,0.57 -0.11,0.22 -0.6,0.38 -1.04,0.38 -0.76,0 -0.79,-0.05 -0.79,-1.17 0.03,-1.31 -0.03,-1.75 -1.04,-1.75 z m 22.58,38.2 c 7.09,0.03 7.66,0.14 7.66,1.25 0,0.27 -0.57,0.98 -1.31,1.58 -0.87,0.74 -1.2,1.2 -1.04,1.36 0.33,0.33 4.09,1.85 5.94,2.4 1.28,0.38 1.31,0.41 1.12,1.28 -0.19,0.93 -0.6,1.55 -0.98,1.55 -0.14,0 -0.74,0.33 -1.31,0.71 l -1.06,0.71 -1.58,-0.74 c -0.87,-0.41 -1.83,-0.85 -2.1,-1.01 -0.68,-0.35 -1.06,0.08 -1.66,1.88 -0.55,1.69 -0.65,1.8 -2.81,2.51 -0.93,0.33 -1.83,0.57 -1.99,0.57 -0.52,0 -0.3,-0.79 0.49,-1.69 1.61,-1.88 1.58,-1.85 0.65,-1.85 -0.49,0 -1.17,0.27 -1.66,0.71 -1.34,1.12 -2.37,1.31 -3.6,0.6 -0.57,-0.33 -1.17,-0.9 -1.36,-1.28 -0.3,-0.63 -0.19,-0.79 1.61,-2.51 1.06,-1.01 2.48,-2.1 3.14,-2.4 0.66,-0.3 1.25,-0.79 1.34,-1.06 0.22,-0.79 -0.87,-1.64 -2.13,-1.66 -0.6,0 -1.85,-0.3 -2.81,-0.63 -1.45,-0.49 -1.77,-0.71 -1.85,-1.25 -0.05,-0.35 0.03,-0.74 0.19,-0.85 0.22,-0.14 3.41,-0.19 7.12,-0.19 z m 9.28,35.07 c 0.11,0 0.6,0.57 1.12,1.25 0.52,0.68 1.34,1.64 1.85,2.13 1.47,1.31 2.54,2.54 3.22,3.65 0.55,0.9 0.82,1.06 2.43,1.47 1.69,0.44 1.91,0.44 3.41,0 1.06,-0.3 1.8,-0.71 2.18,-1.2 0.82,-1.06 1.85,-1.5 3.57,-1.61 q 1.47,-0.08 1.42,0.68 c -0.08,1.09 -1.15,2.32 -2.35,2.65 -0.57,0.16 -1.55,0.79 -2.18,1.42 -0.63,0.63 -1.96,1.47 -2.95,1.91 -0.99,0.44 -2.24,1.06 -2.81,1.36 -0.6,0.33 -1.34,0.49 -1.72,0.41 -0.49,-0.08 -0.95,0.08 -1.55,0.63 -0.46,0.41 -1.34,0.95 -1.91,1.2 -0.57,0.25 -1.39,0.41 -1.77,0.38 -5.05,-0.46 -5.51,-0.63 -7.91,-2.86 -2.18,-2.02 -2.15,-2.54 0.11,-2.54 0.85,0 1.77,0.14 2.05,0.27 0.63,0.33 1.36,0.03 2.51,-1.06 0.6,-0.57 0.98,-0.68 1.85,-0.63 1.25,0.08 1.88,-0.3 1.88,-1.17 0,-0.82 -1.12,-4.01 -2.1,-6.03 -0.71,-1.55 -0.85,-2.32 -0.35,-2.32 z"
         fill="#d3d3d3"
         style="fill:#d9d9d9;fill-opacity:1" /><path
         id="path1081"
         d="m 190.61,133.17 c -1.96,-0.57 -5.02,-1.47 -6.82,-2.02 -1.8,-0.55 -4.25,-1.25 -5.45,-1.58 -2.05,-0.57 -2.13,-0.63 -1.23,-0.76 0.52,-0.08 2.29,-0.11 3.95,-0.03 2.43,0.11 3.25,0.25 4.25,0.74 1.25,0.63 4.58,1.61 4.77,1.42 0.05,-0.05 -0.63,-0.82 -1.53,-1.66 -1.69,-1.64 -3.03,-2.35 -4.31,-2.35 -0.98,0 -5.26,-1.12 -7.01,-1.83 -1.25,-0.52 -1.36,-0.63 -1.83,-2.15 -0.27,-0.9 -0.52,-1.77 -0.52,-1.94 0,-0.3 1.28,-0.74 4.91,-1.75 l 1.23,-0.33 -0.95,-0.22 c -0.52,-0.11 -1.31,-0.25 -1.72,-0.3 -0.82,-0.08 -1.72,-1.31 -1.45,-2.02 0.08,-0.22 0,-0.46 -0.19,-0.6 -0.19,-0.11 -0.55,-0.55 -0.82,-0.98 -0.65,-1.01 -0.41,-2.02 0.76,-3.25 1.09,-1.15 1.5,-1.88 1.5,-2.59 0,-1.39 4.04,-3.6 8.07,-4.42 1.47,-0.3 3.25,-0.63 3.95,-0.71 1.23,-0.16 1.28,-0.14 1.55,0.65 0.33,0.98 0.03,2.54 -0.79,4.15 -0.33,0.6 -0.52,1.17 -0.41,1.28 0.08,0.08 0.71,-0.3 1.39,-0.85 l 1.23,-1.01 1.69,0.98 c 0.93,0.55 1.99,1.23 2.37,1.53 l 0.65,0.57 -0.55,1.31 -0.55,1.31 1.12,-0.25 c 0.63,-0.14 1.2,-0.33 1.31,-0.44 0.11,-0.11 0,-0.71 -0.22,-1.36 -0.22,-0.65 -0.35,-1.2 -0.33,-1.25 1.15,-0.74 1.58,-0.93 1.69,-0.76 0.14,0.25 -5.78,24.11 -6.05,24.38 -0.08,0.03 -1.75,-0.35 -3.71,-0.93 z"
         fill="#d3d3d3"
         style="fill:#d9d9d9;fill-opacity:1" /><path
         id="path1083"
         d="m 163.64,115.42 c -0.08,-0.19 -0.25,-1.42 -0.41,-2.73 -0.25,-2.15 -0.41,-2.56 -1.8,-4.88 -0.85,-1.39 -1.5,-2.67 -1.5,-2.84 0,-0.44 0.82,-1.34 1.64,-1.85 0.38,-0.25 1.36,-1.53 2.18,-2.84 0.82,-1.34 1.72,-2.67 2.02,-2.97 0.27,-0.3 1.42,-1.75 2.54,-3.22 1.94,-2.56 2.02,-2.75 2.05,-4.23 0.03,-0.85 0,-1.72 -0.03,-1.91 -0.05,-0.49 0.76,-1.39 1.17,-1.25 0.16,0.05 0.76,0.16 1.34,0.22 0.55,0.05 1.66,0.38 2.45,0.68 0.79,0.3 1.96,0.71 2.59,0.85 0.93,0.22 1.2,0.44 1.45,1.17 0.16,0.49 0.95,1.55 1.77,2.37 1.47,1.47 1.47,1.5 3.05,1.45 2.24,-0.05 2.54,0.27 3.79,4.17 1.61,4.96 1.39,5.45 -2.73,6.46 -1.91,0.46 -3.79,1.28 -4.25,1.85 -0.08,0.08 -0.52,0.33 -0.98,0.49 -0.46,0.19 -1.15,0.6 -1.5,0.93 -0.35,0.33 -1.5,1.23 -2.51,1.96 -1.47,1.09 -2.02,1.75 -2.81,3.19 -0.55,1.01 -1.25,1.99 -1.58,2.15 -0.33,0.16 -0.6,0.27 -0.6,0.25 0,-0.08 -0.33,-0.03 -2.32,0.44 -0.38,0.08 -1.64,0.22 -2.78,0.3 -1.64,0.11 -2.15,0.05 -2.24,-0.22 z"
         fill="#d3d3d3"
         style="fill:#d9d9d9;fill-opacity:1" /><path
         id="path1085"
         d="m 195.27,94.97 c -0.68,-0.76 -1.25,-1.61 -1.25,-1.88 0,-0.68 1.06,-1.34 2.78,-1.69 2.75,-0.57 3.57,-1.47 1.34,-1.47 -0.9,0 -1.25,-0.14 -1.66,-0.68 -0.49,-0.65 -0.52,-0.65 -1.04,-0.19 -0.65,0.57 -2.21,0.76 -2.97,0.35 -0.79,-0.44 -3.33,-3.46 -3.52,-4.2 -0.19,-0.68 0.52,-1.69 1.17,-1.69 0.19,0 0.38,-0.08 0.38,-0.22 0.08,-0.85 0.3,-1.31 0.93,-1.96 0.38,-0.41 0.71,-0.98 0.71,-1.28 0,-0.74 1.55,-2.56 2.18,-2.56 0.27,0 0.68,-0.3 0.95,-0.68 0.38,-0.57 0.65,-0.68 1.77,-0.68 1.75,0 2.75,0.76 2.75,2.07 0,0.76 0.16,1.04 1.04,1.61 1.39,0.93 2.05,2.32 2.1,4.47 0.05,1.91 0.44,2.48 1.75,2.48 1.31,0 1.36,0.19 0.46,3.87 -0.63,2.54 -0.95,3.49 -1.25,3.49 -0.22,0 -1.12,0.49 -1.96,1.09 -1.45,1.01 -1.69,1.09 -3.46,1.09 h -1.91 l -1.28,-1.34 z"
         fill="#d3d3d3"
         style="fill:#d9d9d9;fill-opacity:1" /><path
         id="path1087"
         d="m 186.87,82.8 c -0.27,-0.05 -0.6,-0.57 -0.74,-1.12 -0.38,-1.36 0.19,-2.1 2.29,-2.95 1.83,-0.74 2.43,-0.82 2.81,-0.33 0.49,0.63 0.25,1.34 -0.71,2.07 -0.52,0.41 -1.39,1.12 -1.91,1.61 -0.52,0.49 -1.04,0.87 -1.12,0.85 -0.11,0 -0.38,-0.05 -0.63,-0.14 z"
         fill="#d3d3d3"
         style="fill:#d9d9d9;fill-opacity:1" /><path
         id="path1089"
         d="m 184.36,78.2 c -0.25,-0.25 -0.44,-0.74 -0.44,-1.09 0,-0.63 -0.08,-0.65 -1.5,-0.65 -2.43,0 -3.22,-1.2 -1.99,-3 0.44,-0.65 0.95,-0.98 1.85,-1.23 0.68,-0.16 1.83,-0.65 2.54,-1.04 0.71,-0.41 1.42,-0.65 1.53,-0.6 0.14,0.08 1.12,-0.68 2.18,-1.69 2.51,-2.35 2.92,-2.56 4.99,-2.51 0.93,0.03 1.99,-0.03 2.37,-0.08 0.82,-0.14 2.05,0.41 2.29,1.04 0.52,1.36 -0.05,2.89 -1.36,3.63 -0.3,0.16 -0.49,0.74 -0.57,1.64 -0.14,1.31 -0.22,1.45 -1.31,2.1 -0.65,0.38 -1.31,0.93 -1.47,1.23 -0.35,0.68 -1.28,0.95 -1.8,0.55 -0.6,-0.49 -0.52,-2.35 0.14,-2.92 0.3,-0.25 0.55,-0.57 0.55,-0.68 0,-0.33 -1.01,0.55 -3.71,3.27 -2.59,2.59 -3.38,2.97 -4.28,2.05 z"
         fill="#d3d3d3"
         style="fill:#d9d9d9;fill-opacity:1" /><path
         id="path1091"
         d="m 205.55,70.72 c -0.87,-0.38 -1.2,-0.74 -1.69,-1.91 -0.33,-0.79 -0.6,-1.61 -0.6,-1.8 0,-0.19 -0.25,-0.52 -0.57,-0.71 -1.47,-0.9 -2.1,-3.49 -0.85,-3.49 0.55,0 1.39,0.82 1.39,1.34 0,0.25 0.25,0.3 0.9,0.16 1.15,-0.25 5.89,-0.49 6.35,-0.3 0.27,0.11 0.3,0.41 0.08,1.31 -0.14,0.65 -0.33,1.42 -0.38,1.72 -0.41,2.07 -0.76,3.16 -1.23,3.55 -0.65,0.65 -2.13,0.71 -3.41,0.14 z"
         fill="#d3d3d3"
         style="fill:#d9d9d9;fill-opacity:1" /><path
         id="path1093"
         d="m 210.38,62.84 c 0,-0.14 -0.35,-0.38 -0.79,-0.57 -0.44,-0.19 -1.01,-0.57 -1.28,-0.87 -0.35,-0.38 -0.68,-0.49 -1.23,-0.38 -0.41,0.08 -0.82,0.03 -0.93,-0.11 -0.41,-0.68 1.64,-2.48 2.35,-2.05 0.14,0.08 0.44,0.03 0.65,-0.16 0.35,-0.27 2.43,-0.25 2.7,0.05 0.25,0.27 -0.85,4.31 -1.15,4.31 -0.16,0.03 -0.33,-0.08 -0.33,-0.22 z"
         fill="#d3d3d3"
         style="fill:#d9d9d9;fill-opacity:1" /></g><g
       id="CA-NU"
       transform="matrix(1.3333334,0,0,1.3333334,23.061249,27.528476)"
       style="fill:#d9d9d9;fill-opacity:1"><path
         id="path1096"
         d="m 211.6,149.02 c -1.34,-0.33 -3.35,-1.47 -4.8,-2.78 -0.44,-0.38 -1.28,-0.93 -1.88,-1.2 -0.6,-0.27 -1.12,-0.65 -1.12,-0.87 -0.03,-0.19 -0.05,-0.52 -0.08,-0.71 -0.05,-0.6 -1.2,-0.57 -1.39,0.05 -0.25,0.82 -1.64,1.42 -3.52,1.58 -0.9,0.08 -1.8,0.3 -1.99,0.49 -0.82,0.82 -2.29,1.01 -6.19,0.82 -5.78,-0.27 -7.53,-0.57 -7.55,-1.31 0,-0.19 -0.05,-0.85 -0.14,-1.45 -0.05,-0.6 -0.16,-1.83 -0.25,-2.7 -0.14,-1.85 -0.63,-2.51 -2.07,-2.75 -1.64,-0.27 -4.91,-2.59 -4.91,-3.44 0,-0.14 -0.03,-0.33 -0.05,-0.44 -0.02,-0.11 -0.27,-1.2 -0.55,-2.4 -0.28,-1.2 -0.49,-2.26 -0.49,-2.37 0,-0.22 0.05,-0.19 11.81,3.3 4.64,1.36 8.45,2.45 8.51,2.4 0.06,-0.05 1.45,-5.56 3.11,-12.22 1.66,-6.68 3.08,-12.3 3.16,-12.54 0.08,-0.22 0.63,0.82 1.23,2.32 1.06,2.65 1.09,2.81 0.98,5.37 -0.14,3.11 0.16,3.95 1.09,3.03 0.46,-0.46 0.55,-0.85 0.46,-2.56 -0.05,-1.12 -0.14,-3.55 -0.22,-5.4 l -0.14,-3.38 0.87,-0.9 c 0.82,-0.85 0.93,-0.9 1.94,-0.65 0.63,0.14 1.34,0.57 1.72,1.01 q 0.63,0.74 0.22,0.05 c -0.25,-0.38 -0.55,-1.09 -0.65,-1.53 -0.33,-1.15 0.55,-2.15 2.15,-2.45 1.45,-0.27 2.54,0.22 3.65,1.69 1.04,1.34 0.76,2.48 -1.12,4.8 l -1.5,1.85 0.05,3.41 c 0.08,3.82 0.33,6.08 0.87,7.66 0.33,0.98 0.3,1.2 -0.3,2.54 -0.46,1.06 -0.6,1.72 -0.49,2.43 0.25,1.5 1.96,3.74 4.47,5.84 2.89,2.4 3.9,4.25 3.3,5.97 -0.27,0.82 -0.3,0.82 -1.83,0.65 -0.85,-0.08 -1.66,-0.27 -1.8,-0.41 -0.14,-0.14 -0.41,-0.25 -0.57,-0.25 -0.71,0 -0.6,0.9 0.3,2.32 1.5,2.35 1.2,3.82 -1.01,4.85 -0.98,0.55 -1.91,0.6 -3.3,0.27 z"
         fill="#d3d3d3"
         style="fill:#d9d9d9;fill-opacity:1" /><path
         id="path1098"
         d="m 287.58,272.58 c -1.39,-0.57 -1.66,-0.76 -1.66,-1.34 0,-0.74 0.14,-0.82 2.02,-1.04 1.25,-0.14 1.39,-0.08 2.13,0.74 1.01,1.12 0.95,2.21 -0.11,2.26 -0.38,0.03 -1.45,-0.25 -2.37,-0.63 z"
         fill="#d3d3d3"
         style="fill:#d9d9d9;fill-opacity:1" /><path
         id="path1100"
         d="m 230.53,220.87 c -0.05,-0.05 -1.09,-0.19 -2.29,-0.3 -1.2,-0.11 -2.24,-0.22 -2.32,-0.27 -0.08,-0.05 -1.12,-0.16 -2.32,-0.27 -1.2,-0.11 -2.24,-0.22 -2.32,-0.27 -0.08,-0.05 -0.93,-0.16 -1.91,-0.25 -0.98,-0.09 -2.32,-0.25 -3,-0.33 -2.56,-0.3 -3.49,-0.38 -6.54,-0.68 -3.16,-0.3 -3.65,-0.41 -3.44,-0.76 0.05,-0.11 0.19,-1.36 0.3,-2.78 0.11,-1.42 0.22,-2.78 0.27,-3 0.05,-0.22 0.16,-1.45 0.25,-2.73 0.09,-1.28 0.22,-2.62 0.3,-3 0.05,-0.38 0.19,-1.55 0.27,-2.59 0.19,-2.29 0.38,-4.47 0.55,-6.14 0.08,-0.68 0.19,-1.85 0.25,-2.59 0.44,-4.91 0.55,-6.08 0.85,-8.73 0.11,-0.9 0.19,-1.91 0.22,-2.26 0.03,-0.52 -0.33,-0.82 -2.13,-1.77 -2.75,-1.47 -7.83,-4.15 -11.86,-6.27 -1.72,-0.9 -3.63,-1.91 -4.23,-2.24 -1.06,-0.57 -1.61,-1.28 -3.71,-4.66 l -0.98,-1.58 -3.11,-0.65 -3.11,-0.65 -1.53,-2.07 c -0.85,-1.15 -4.01,-5.51 -7.06,-9.71 -3.05,-4.2 -6.27,-8.62 -7.14,-9.79 -0.87,-1.2 -1.58,-2.29 -1.58,-2.45 0,-0.27 3.52,-9.98 3.71,-10.2 0.33,-0.41 2.97,1.99 4.04,3.65 0.74,1.12 2.73,2.81 4.01,3.41 0.55,0.25 0.85,0.25 1.31,0 0.52,-0.27 0.76,-0.19 1.8,0.65 0.65,0.55 1.42,1.31 1.72,1.72 0.65,0.93 1.69,3.27 1.69,3.79 0,0.71 -0.71,1.12 -2.18,1.31 -1.47,0.19 -2.73,0.79 -2.73,1.31 0,0.16 0.27,0.68 0.6,1.17 0.52,0.74 1.01,1.01 3.35,1.72 4.31,1.31 5.13,1.45 7.12,1.12 0.95,-0.16 2.07,-0.44 2.48,-0.6 0.65,-0.3 0.76,-0.27 1.17,0.33 0.25,0.35 1.17,1.64 2.07,2.81 2.13,2.78 2.84,4.17 2.67,5.21 -0.08,0.63 -0.05,0.74 0.16,0.44 0.16,-0.25 0.22,-1.47 0.11,-3.19 l -0.16,-2.78 2.89,-1.45 c 1.66,-0.82 2.92,-1.64 3,-1.91 0.11,-0.44 0.05,-0.44 -1.01,0 -0.63,0.27 -1.77,0.65 -2.56,0.85 -1.34,0.33 -1.47,0.33 -2.18,-0.19 -1.85,-1.36 -0.3,-3.98 2.48,-4.17 0.57,-0.03 1.69,-0.27 2.45,-0.52 0.76,-0.25 1.75,-0.41 2.15,-0.35 0.9,0.11 1.64,1.12 1.72,2.35 0.03,0.46 0.25,1.28 0.52,1.77 0.68,1.31 2.75,3.3 3.49,3.35 0.35,0.03 0.74,0.05 0.9,0.08 0.16,0.03 0.41,0.08 0.57,0.11 0.16,0.03 0.82,0.82 1.45,1.77 l 1.12,1.75 1.66,0.16 c 0.93,0.11 2.48,0.16 3.46,0.16 0.98,0 2.67,0.25 3.71,0.55 1.04,0.3 1.91,0.55 1.91,0.55 0,0 0.03,-0.44 0.05,-0.98 0.02,-0.54 0.25,-1.47 0.49,-2.05 0.24,-0.58 0.44,-1.39 0.44,-1.77 0,-0.68 0.03,-0.71 1.25,-0.55 1.55,0.22 3.25,0.79 5.1,1.72 0.79,0.38 1.47,0.76 1.53,0.79 0.08,0.05 -0.93,3.79 -1.47,5.51 -0.05,0.19 0.19,0.46 0.52,0.6 0.35,0.14 0.79,0.65 0.98,1.15 l 0.35,0.9 0.19,-0.82 c 0.11,-0.52 0.03,-1.12 -0.22,-1.64 -0.25,-0.49 -0.41,-1.58 -0.44,-2.67 0,-1.96 0.27,-2.43 1.25,-2.18 0.98,0.25 2.89,-0.71 3.76,-1.91 0.68,-0.93 0.82,-1.39 0.82,-2.67 0,-1.2 -0.11,-1.66 -0.55,-2.05 -0.63,-0.57 -0.76,-2.54 -0.22,-3.08 0.46,-0.46 -1.2,-1.99 -2.75,-2.48 -0.93,-0.3 -1.36,-0.68 -2.13,-1.88 -0.82,-1.28 -0.95,-1.72 -0.95,-3.08 0,-0.87 0.14,-1.83 0.3,-2.13 0.22,-0.41 0.14,-0.9 -0.44,-2.24 l -0.74,-1.69 0.52,-1.53 c 0.44,-1.28 0.71,-1.64 1.66,-2.15 1.06,-0.57 1.12,-0.68 0.85,-1.28 -0.25,-0.55 -0.16,-0.79 0.63,-1.77 2.13,-2.65 1.94,-2.48 2.92,-2.29 0.63,0.14 1.01,0.41 1.23,0.93 0.16,0.41 0.76,1.15 1.34,1.64 1.85,1.64 2.13,2.21 2.24,4.85 0.08,2.32 0.14,2.45 1.5,4.72 1.69,2.84 1.88,4.36 0.46,3.82 -0.55,-0.22 -0.6,-0.16 -0.49,0.6 0.05,0.46 -0.05,1.31 -0.25,1.91 -0.33,1.04 -0.33,1.12 0.25,1.58 0.49,0.41 0.76,0.44 1.61,0.22 1.04,-0.3 1.96,-0.11 4.04,0.76 0.87,0.35 0.95,0.49 0.63,0.79 -0.22,0.19 -0.93,0.44 -1.61,0.55 -1.91,0.27 -2.07,0.71 -0.79,2.56 1.01,1.47 1.23,2.21 1.34,4.39 0.05,1.17 0.49,0.05 0.68,-1.77 0.33,-2.84 0.68,-3.71 1.77,-4.15 l 0.95,-0.41 1.83,2.02 c 1.28,1.39 1.91,2.35 2.13,3.14 0.44,1.72 0.35,2.75 -0.25,3.35 -0.3,0.3 -0.55,0.9 -0.55,1.34 0,0.79 0.49,2.54 0.79,2.75 0.08,0.08 0.57,0.79 1.06,1.58 0.49,0.79 0.98,1.45 1.09,1.45 0.41,0 1.45,-0.93 1.66,-1.5 0.14,-0.33 0.3,-1.34 0.41,-2.21 0.08,-0.87 0.33,-1.96 0.55,-2.43 0.22,-0.47 0.63,-1.69 0.93,-2.75 0.3,-1.06 0.93,-2.48 1.36,-3.14 0.98,-1.45 1.04,-2.05 0.25,-2.89 -0.65,-0.68 -1.45,-3.95 -1.17,-4.85 0.35,-1.17 0.93,-1.53 2.48,-1.53 1.09,0 1.83,0.19 3,0.82 0.85,0.44 1.77,0.82 2.07,0.82 0.3,0 0.93,0.41 1.42,0.93 0.49,0.52 1.42,1.2 2.05,1.53 1.15,0.57 2.15,1.53 2.18,2.02 0,0.14 -0.19,0.38 -0.44,0.57 -0.41,0.3 -0.41,0.38 0.11,1.12 0.33,0.44 0.65,1.23 0.74,1.77 0.16,0.93 0.11,1.01 -0.65,1.28 -0.46,0.16 -0.95,0.55 -1.12,0.85 -0.17,0.3 -0.55,0.57 -0.85,0.57 -0.74,0 -0.68,0.52 0.14,1.47 0.38,0.44 0.76,1.2 0.85,1.69 0.11,0.6 0.46,1.12 1.06,1.5 1.94,1.34 1.94,4.06 0,7.36 -2.29,3.9 -2.45,4.09 -3.63,3.95 -0.57,-0.05 -1.36,-0.33 -1.77,-0.57 l -0.71,-0.46 0.44,1.04 c 0.46,1.15 0.19,1.64 -0.82,1.31 -1.01,-0.33 -1.42,-0.3 -1.83,0.08 -0.38,0.33 -0.57,0.33 -1.36,0 -0.52,-0.22 -1.12,-0.65 -1.34,-0.98 -0.35,-0.49 -0.57,-0.55 -1.5,-0.41 -0.6,0.11 -1.31,0.3 -1.58,0.44 -0.44,0.22 -0.38,0.35 0.49,1.17 0.93,0.87 0.98,1.01 0.79,2.07 -0.14,0.82 -0.6,1.64 -1.66,2.86 -0.79,0.95 -1.53,2.05 -1.64,2.4 -0.08,0.38 -0.3,0.68 -0.49,0.68 -0.16,0 0.03,0.27 0.46,0.63 0.65,0.52 0.76,0.79 0.68,1.69 -0.05,0.6 -0.27,1.39 -0.52,1.77 -0.25,0.38 -0.68,1.04 -0.98,1.5 -0.3,0.46 -1.09,1.77 -1.75,2.92 -1.39,2.4 -1.83,2.67 -4.47,2.67 -1.96,0 -2.51,0.38 -2.65,1.91 -0.08,0.93 -0.11,0.95 -1.31,0.93 -0.68,0 -1.55,-0.08 -1.96,-0.19 -1.09,-0.25 -1.17,0.22 -0.14,0.9 0.49,0.33 0.93,0.65 0.98,0.68 0.27,0.22 0.33,2.37 0.05,3.19 -0.35,1.09 -1.36,1.61 -3.27,1.69 -2.15,0.08 -2.05,0.05 -1.58,0.74 0.38,0.57 0.35,0.68 -0.57,1.58 -1.39,1.34 -2.97,3.44 -3.71,4.91 -0.35,0.68 -0.9,1.47 -1.23,1.77 -0.71,0.65 -1.36,1.83 -1.36,2.51 0,0.27 -0.63,1.83 -1.42,3.46 -1.17,2.51 -1.42,3.22 -1.39,4.45 l 0.03,1.45 h -1.17 c -0.55,0.08 -1.15,0.03 -1.2,-0.03 z"
         fill="#d3d3d3"
         style="fill:#d9d9d9;fill-opacity:1" /><path
         id="path1102"
         d="m 285.62,205.79 c -1.45,-0.9 -1.39,-3.57 0.11,-5.21 0.6,-0.65 1.31,-0.63 2.18,0.14 0.87,0.77 0.44,3.93 -0.68,4.96 q -0.71,0.68 -1.61,0.11 z"
         fill="#d3d3d3"
         style="fill:#d9d9d9;fill-opacity:1" /><path
         id="path1104"
         d="m 271.49,202.74 c -0.63,-1.17 0.27,-3.87 1.58,-4.77 1.06,-0.74 1.36,-0.79 3.46,-0.74 1.28,0.03 1.42,0.11 1.75,0.85 0.3,0.74 0.27,0.93 -0.52,2.15 -1.15,1.77 -2.75,2.84 -4.55,2.97 -1.23,0.11 -1.47,0.03 -1.72,-0.46 z"
         fill="#d3d3d3"
         style="fill:#d9d9d9;fill-opacity:1" /><path
         id="path1106"
         d="m 265.41,196.77 c -0.38,-0.08 -0.49,-0.38 -0.49,-1.39 0,-0.71 -0.14,-1.45 -0.33,-1.61 -0.19,-0.19 -1.01,-0.33 -1.85,-0.35 -3.22,-0.05 -3.71,-0.76 -1.94,-2.7 1.04,-1.12 1.2,-1.61 1.17,-3.14 -0.16,-5.34 0,-7.06 1.06,-11.24 0.33,-1.31 0.44,-1.42 1.31,-1.58 0.82,-0.16 1.04,-0.08 1.58,0.6 0.35,0.44 0.85,1.28 1.09,1.94 0.41,0.98 0.6,1.17 1.31,1.17 0.55,0 1.61,0.57 3.14,1.64 1.28,0.9 3.08,2.15 4.01,2.78 0.93,0.63 1.69,1.34 1.72,1.58 0,0.22 0.3,0.9 0.68,1.5 0.38,0.6 0.68,1.31 0.68,1.58 0,0.41 0.19,0.46 1.45,0.33 1.28,-0.14 1.53,-0.08 2.43,0.6 0.87,0.68 0.98,0.9 0.93,1.72 -0.14,1.42 -0.33,1.72 -1.45,2.35 q -1.01,0.57 -2.24,0.05 c -0.79,-0.35 -1.58,-0.49 -2.24,-0.41 -0.79,0.11 -1.12,0 -1.58,-0.49 -0.33,-0.35 -0.55,-0.85 -0.49,-1.12 0.14,-0.71 -2.32,-1.96 -2.92,-1.5 -0.22,0.19 -0.41,0.63 -0.41,0.98 0,0.98 -0.49,2.05 -1.31,2.86 -0.41,0.41 -1.01,1.09 -1.34,1.53 -0.85,1.15 -1.91,2.26 -2.18,2.29 -0.71,0.11 -1.39,0.14 -1.8,0.03 z"
         fill="#d3d3d3"
         style="fill:#d9d9d9;fill-opacity:1" /><path
         id="path1108"
         d="m 229.58,153.82 c -0.93,-0.3 -2.07,-1.06 -3.25,-2.15 -0.46,-0.41 -0.93,-0.76 -1.04,-0.76 -0.55,0 -1.83,-1.17 -1.83,-1.66 0,-0.68 4.34,-6.52 4.83,-6.52 0.68,0 3.19,2.65 3.93,4.15 1.12,2.26 1.88,4.39 1.88,5.21 0,0.55 -0.27,0.9 -1.04,1.45 -1.09,0.68 -1.99,0.76 -3.49,0.3 z"
         fill="#d3d3d3"
         style="fill:#d9d9d9;fill-opacity:1" /><path
         id="path1110"
         d="m 330.83,194.91 c -0.05,-0.05 -1.77,-0.16 -3.85,-0.25 -2.95,-0.14 -3.87,-0.27 -4.31,-0.63 -0.33,-0.25 -0.95,-0.79 -1.45,-1.2 -0.74,-0.63 -1.09,-0.71 -2.21,-0.65 -1.5,0.08 -2.37,-0.16 -5.24,-1.5 -1.72,-0.79 -1.96,-1.01 -2.29,-1.96 -0.3,-0.95 -0.3,-1.09 0.11,-1.34 0.52,-0.27 0.63,-0.76 0.19,-0.76 -0.16,0 -0.9,-0.41 -1.64,-0.93 -0.74,-0.52 -1.72,-1.01 -2.18,-1.12 -0.52,-0.11 -0.98,-0.46 -1.23,-0.95 -0.6,-1.17 -1.99,-2.02 -3.55,-2.18 -1.15,-0.11 -1.45,-0.05 -1.96,0.46 -0.44,0.44 -0.93,0.63 -1.8,0.63 -1.01,0 -1.36,0.16 -2.35,1.09 l -1.17,1.09 h -2.26 c -3.76,0 -4.61,-0.68 -4.96,-4.04 -0.14,-1.17 -0.05,-1.36 0.71,-2.07 0.65,-0.63 0.85,-1.04 0.85,-1.83 0,-0.71 0.16,-1.12 0.49,-1.28 0.27,-0.14 1.94,-0.27 3.71,-0.3 2.95,-0.03 3.33,-0.11 4.09,-0.68 1.2,-0.9 2.51,-1.53 3.19,-1.53 0.49,0 0.55,-0.11 0.41,-0.63 -0.22,-0.71 -0.38,-1.36 -0.41,-1.61 0,-0.08 -0.52,-0.49 -1.15,-0.9 -1.06,-0.71 -1.12,-0.82 -0.98,-1.8 0.08,-0.57 0.33,-1.39 0.55,-1.83 0.22,-0.41 1.04,-2.02 1.8,-3.55 l 1.42,-2.78 -0.55,-1.94 c -0.52,-1.83 -2.1,-4.36 -3.44,-5.48 -0.27,-0.22 -0.76,-0.85 -1.12,-1.42 -0.38,-0.6 -1.23,-1.36 -1.99,-1.77 -1.06,-0.6 -1.39,-0.93 -1.58,-1.69 -0.22,-0.85 -0.3,-0.95 -1.04,-0.87 -0.44,0.05 -0.98,0.25 -1.23,0.44 -0.22,0.19 -0.93,0.6 -1.55,0.93 -0.98,0.49 -1.17,0.52 -1.45,0.19 -0.46,-0.55 -0.08,-1.5 0.9,-2.37 0.82,-0.74 0.85,-0.76 0.3,-1.15 -0.68,-0.52 -1.06,-0.52 -2.07,0 -1.06,0.55 -1.61,0.33 -1.61,-0.65 0,-0.52 0.19,-0.87 0.55,-1.04 0.52,-0.22 0.46,-0.33 -0.76,-1.53 -2.21,-2.15 -3.46,-3.16 -3.82,-3.03 -0.19,0.05 -0.35,0.55 -0.35,1.06 v 0.93 l -2.81,0.05 c -1.53,0.03 -3.6,0.05 -4.61,0.03 -1.53,-0.03 -1.8,0.03 -1.77,0.41 0.03,0.38 -0.3,0.44 -2.29,0.41 -1.28,-0.03 -3.6,-0.14 -5.18,-0.25 -1.75,-0.14 -3.25,-0.11 -3.85,0.05 -1.2,0.33 -2.13,-0.22 -2.59,-1.61 -0.27,-0.79 -0.44,-0.9 -1.09,-0.85 -3.22,0.27 -3.38,0.27 -4.2,-0.33 -1.8,-1.34 -3.27,-3.46 -3.27,-4.75 0,-0.41 0.27,-0.55 1.25,-0.68 0.71,-0.08 1.77,-0.16 2.37,-0.16 0.95,0 1.06,-0.05 0.71,-0.38 -0.6,-0.55 -2.1,-0.98 -3.41,-0.98 -0.85,0 -1.2,-0.14 -1.36,-0.49 -0.49,-1.17 -0.87,-3.46 -0.79,-4.64 0.35,-5.62 0.44,-6.24 1.61,-9.65 1.69,-4.96 2.97,-7.25 4.5,-8.18 2.43,-1.45 6.38,-1.04 6.84,0.71 0.19,0.68 0.08,0.95 -0.71,1.83 -0.55,0.6 -1.01,1.47 -1.12,2.07 -0.11,0.57 -0.38,1.31 -0.6,1.66 -0.49,0.76 -1.17,3.6 -0.95,3.95 0.08,0.14 0.19,1.17 0.25,2.26 0.08,2.24 0.22,2.56 0.93,2.56 0.33,0 0.57,-0.27 0.68,-0.76 0.11,-0.41 0.38,-0.98 0.63,-1.25 0.35,-0.41 0.38,-0.57 0.11,-0.95 -0.68,-0.95 -0.98,-1.85 -0.98,-3.14 -0.03,-1.01 0.11,-1.42 0.55,-1.77 0.3,-0.25 0.65,-0.65 0.74,-0.93 0.11,-0.27 0.3,-0.49 0.46,-0.49 0.16,0 0.27,-0.25 0.27,-0.55 0,-0.98 2.07,-3.93 3.22,-4.55 1.2,-0.68 3.82,-1.17 4.64,-0.87 0.49,0.19 0.95,0.87 2.62,3.93 1.04,1.94 1.83,4.04 1.66,4.61 -0.19,0.76 0.82,2.07 1.61,2.07 0.33,0 1.06,-0.14 1.64,-0.3 0.85,-0.25 1.01,-0.38 0.87,-0.82 -0.3,-0.93 1.36,-2.26 3.3,-2.67 1.53,-0.33 1.72,-0.3 2.59,0.22 0.52,0.33 1.25,0.57 1.61,0.57 0.85,0 2.05,1.01 2.32,1.91 0.27,0.93 0.93,1.64 1.53,1.64 0.35,0 0.52,0.3 0.65,1.09 0.11,0.6 0.3,1.09 0.41,1.09 0.14,0 0.93,0.68 1.75,1.5 1.25,1.23 1.55,1.42 1.66,1.04 0.08,-0.27 0.33,-0.87 0.55,-1.36 0.44,-0.98 0.68,-1.01 3.05,-0.16 0.98,0.35 1.25,0.6 1.75,1.77 0.33,0.79 0.9,1.53 1.34,1.8 0.41,0.25 0.9,0.71 1.06,1.04 0.57,1.06 1.23,1.28 2.05,0.65 0.87,-0.68 1.53,-0.55 3.14,0.6 1.01,0.74 1.15,0.95 0.98,1.58 -0.46,1.88 -0.49,2.26 -0.11,2.18 0.22,-0.05 0.57,-0.41 0.85,-0.82 0.68,-1.09 1.53,-0.95 2.84,0.41 1.25,1.31 1.83,2.26 1.88,3.08 0.08,1.53 0.16,1.69 1.06,2.13 0.52,0.25 1.15,0.82 1.36,1.25 l 0.41,0.82 -1.25,0.74 c -1.04,0.6 -1.36,0.68 -1.88,0.44 -0.85,-0.38 -1.04,-0.14 -0.52,0.65 0.41,0.63 0.41,1.75 -0.05,2.86 -0.25,0.6 0.68,1.42 2.02,1.83 0.57,0.16 1.53,0.63 2.1,1.04 0.57,0.41 1.5,0.74 2.02,0.76 0.52,0.02 1.25,0.16 1.64,0.33 0.39,0.17 1.39,0.22 2.26,0.16 l 1.58,-0.11 1.47,1.53 c 1.28,1.34 1.61,1.53 2.59,1.55 0.6,0.03 1.25,0.05 1.45,0.08 0.19,0.03 0.41,0.44 0.52,0.93 0.11,0.49 0.27,0.98 0.35,1.09 0.08,0.11 1.04,-0.11 2.07,-0.49 l 1.88,-0.65 1.04,0.57 c 0.95,0.55 1.04,0.68 1.12,2.02 0.11,1.77 -0.05,2.4 -0.76,3.22 -0.52,0.6 -0.52,0.68 -0.11,1.15 0.35,0.41 0.41,0.63 0.16,1.17 -0.16,0.35 -0.25,1.09 -0.14,1.61 0.19,1.23 -0.71,2.62 -1.72,2.62 -0.57,0 -0.65,0.08 -0.49,0.63 0.3,0.95 1.17,2.59 1.47,2.78 0.57,0.35 0.25,0.93 -0.85,1.45 -1.12,0.55 -1.15,0.55 -2.07,0.05 -0.52,-0.27 -1.55,-0.65 -2.29,-0.85 -1.15,-0.3 -1.47,-0.55 -2.26,-1.75 -1.04,-1.58 -2.95,-3.41 -3.55,-3.41 -0.22,0 -0.55,-0.16 -0.74,-0.35 -1.09,-1.09 -2.95,-1.75 -2.95,-1.06 0,0.14 -0.33,0.38 -0.71,0.55 l -0.71,0.33 0.74,0.76 c 0.87,0.93 0.87,2.15 0,2.62 -0.44,0.22 -0.52,0.41 -0.35,0.82 0.11,0.3 0.22,0.44 0.22,0.33 0.03,-0.33 1.99,0.6 2.37,1.12 0.19,0.27 0.85,1.04 1.45,1.72 1.06,1.2 1.45,1.39 4.28,2.13 0.85,0.22 1.17,0.46 1.31,0.95 0.08,0.38 0.41,0.79 0.71,0.95 0.3,0.16 0.85,0.76 1.23,1.36 0.38,0.57 1.53,1.94 2.59,3.03 l 1.94,1.96 -0.05,3.79 c -0.03,2.1 -0.14,3.85 -0.25,3.93 -0.3,0.19 -5.24,-1.39 -7.88,-2.51 -1.28,-0.55 -2.7,-1.31 -3.16,-1.72 -0.79,-0.68 -1.55,-0.82 -3.19,-0.57 -0.46,0.05 -0.16,0.52 0.55,0.82 0.41,0.16 0.98,0.74 1.25,1.23 0.41,0.76 0.87,1.06 2.59,1.72 1.15,0.44 3.41,1.64 5.02,2.7 l 2.95,1.88 -0.08,1.64 -0.08,1.64 -1.55,0.03 c -0.76,0.08 -1.53,0.05 -1.58,0 z"
         fill="#d3d3d3"
         style="fill:#d9d9d9;fill-opacity:1" /><path
         id="path1112"
         d="m 291.18,193.9 c -1.04,-0.68 -1.34,-1.42 -0.87,-1.96 0.46,-0.55 0.98,-0.49 1.94,0.16 0.85,0.6 1.04,1.53 0.46,2.1 -0.44,0.41 -0.49,0.41 -1.53,-0.3 z"
         fill="#d3d3d3"
         style="fill:#d9d9d9;fill-opacity:1" /><path
         id="path1114"
         d="m 294.15,190.8 c -0.49,-0.08 -0.6,-0.27 -0.55,-0.85 0.05,-0.55 0.25,-0.74 0.79,-0.82 0.93,-0.11 1.99,0.74 1.75,1.39 -0.19,0.46 -0.68,0.52 -1.99,0.27 z"
         fill="#d3d3d3"
         style="fill:#d9d9d9;fill-opacity:1" /><path
         id="path1116"
         d="m 289.73,160.5 c -1.83,-1.83 -1.23,-7.5 0.95,-8.94 0.98,-0.63 2.45,-0.3 3.44,0.79 0.76,0.85 0.79,0.93 0.79,3.9 0,3.38 -0.11,3.63 -2.24,4.58 -1.39,0.63 -2.05,0.55 -2.95,-0.33 z"
         fill="#d3d3d3"
         style="fill:#d9d9d9;fill-opacity:1" /><path
         id="path1118"
         d="m 297.23,155.48 c -0.82,-0.38 -1.5,-1.42 -1.23,-1.85 0.33,-0.52 2.48,-0.38 2.92,0.22 0.52,0.68 0.41,1.12 -0.41,1.53 -0.49,0.25 -0.9,0.3 -1.28,0.11 z"
         fill="#d3d3d3"
         style="fill:#d9d9d9;fill-opacity:1" /><path
         id="path1120"
         d="m 280.93,148.25 c -0.27,-0.27 -0.22,-0.44 0.46,-1.25 0.41,-0.46 0.71,-1.28 0.82,-2.15 0.19,-1.34 0.82,-2.7 1.25,-2.7 0.41,0 0.55,0.87 0.22,1.45 -0.16,0.33 -0.3,1.01 -0.27,1.47 0.11,1.53 -1.77,3.9 -2.48,3.19 z"
         fill="#d3d3d3"
         style="fill:#d9d9d9;fill-opacity:1" /><path
         id="path1122"
         d="m 225.18,128.78 c -0.71,-0.57 -1.28,-1.28 -1.31,-1.55 -0.25,-2.95 -0.68,-3.68 -3.16,-5.37 -0.46,-0.33 -1.25,-1.34 -1.72,-2.21 -0.85,-1.58 -0.85,-1.66 -0.49,-2.86 0.22,-0.68 0.68,-1.45 1.06,-1.72 0.65,-0.49 0.68,-0.49 2.13,0.6 1.39,1.06 1.47,1.09 1.91,0.6 0.25,-0.27 0.57,-0.95 0.74,-1.53 0.25,-0.87 0.19,-1.09 -0.25,-1.61 -1.31,-1.42 -1.64,-2.32 -1.34,-3.65 0.3,-1.47 1.15,-2.78 1.75,-2.78 0.25,0 1.06,0.38 1.85,0.82 1.23,0.71 1.47,0.76 1.77,0.44 0.68,-0.82 3.65,-1.45 4.31,-0.9 0.19,0.16 0.35,0.9 0.35,1.72 0,1.12 -0.11,1.47 -0.49,1.61 -0.46,0.16 -0.46,0.19 0,0.55 0.71,0.52 0.6,0.82 -0.76,2.35 -0.68,0.76 -1.23,1.5 -1.23,1.66 0,0.16 0.35,0.41 0.82,0.57 0.63,0.22 0.82,0.46 0.82,1.01 0,0.41 0.19,1.04 0.41,1.42 0.82,1.42 1.01,2.1 1.15,4.01 0.11,1.75 0.05,2.07 -0.55,3.03 -0.71,1.12 -2.21,2.24 -3,2.24 -0.25,0 -0.38,0.11 -0.3,0.25 0.27,0.44 -1.12,1.83 -2.15,2.13 -0.98,0.27 -1.12,0.22 -2.32,-0.79 z"
         fill="#d3d3d3"
         style="fill:#d9d9d9;fill-opacity:1" /><path
         id="path1124"
         d="m 236.45,123.6 c -0.57,-0.46 -0.71,-0.79 -0.71,-1.75 0,-0.65 -0.14,-1.53 -0.27,-1.94 -0.65,-1.69 -0.14,-7.94 0.82,-10.09 0.33,-0.71 0.65,-1.77 0.74,-2.32 0.22,-1.45 1.06,-1.91 4.09,-2.32 0.82,-0.11 1.42,0 2.24,0.41 0.6,0.3 1.36,0.57 1.69,0.57 0.79,0 2.4,0.71 3.46,1.53 q 0.9,0.68 0.46,1.55 c -0.25,0.49 -0.63,1.06 -0.82,1.31 -0.22,0.25 -0.46,0.79 -0.52,1.23 -0.08,0.44 -0.55,1.39 -1.06,2.15 -0.51,0.76 -1.06,2.07 -1.25,2.97 -0.19,0.87 -0.46,1.64 -0.63,1.69 -0.16,0.05 -1.09,0.16 -2.05,0.25 -0.96,0.09 -1.85,0.25 -1.96,0.35 -0.16,0.16 -0.41,2.13 -0.49,3.82 -0.03,0.44 -1.45,1.17 -2.29,1.17 -0.41,-0.03 -1.04,-0.27 -1.45,-0.6 z"
         fill="#d3d3d3"
         style="fill:#d9d9d9;fill-opacity:1" /><path
         id="path1126"
         d="m 275.88,114.57 c -1.25,-2.05 -3.08,-5.97 -2.95,-6.35 0.25,-0.63 5.73,-0.55 6.87,0.08 1.55,0.85 3.52,2.89 4.42,4.61 0.55,1.01 -0.25,1.5 -2.29,1.42 -1.31,-0.05 -1.96,0.08 -2.84,0.52 -1.64,0.87 -2.56,0.79 -3.22,-0.27 z"
         fill="#d3d3d3"
         style="fill:#d9d9d9;fill-opacity:1" /><path
         id="path1128"
         d="m 248.69,101.68 c -0.6,-0.38 -1.47,-0.68 -1.94,-0.68 -1.39,0 -1.8,-0.52 -1.91,-2.4 -0.05,-0.93 -0.22,-1.91 -0.35,-2.18 -0.44,-0.79 -0.6,-3.35 -0.25,-3.95 0.16,-0.3 0.33,-1.25 0.35,-2.07 0.05,-1.28 -0.05,-1.66 -0.68,-2.48 -0.41,-0.52 -0.79,-1.2 -0.85,-1.5 -0.08,-0.46 -0.38,-0.57 -2.13,-0.71 -1.12,-0.08 -2.24,-0.25 -2.48,-0.35 -0.63,-0.27 -3.14,-3.44 -3.3,-4.2 -0.08,-0.35 -0.03,-1.04 0.11,-1.55 0.3,-1.15 0.98,-1.36 3.14,-1.12 2.26,0.27 3.6,1.12 4.04,2.56 0.22,0.74 0.93,0.93 2.75,0.79 2.18,-0.16 3.14,0.35 3.14,1.75 0,0.49 0.22,0.79 0.68,1.01 1.04,0.46 1.34,1.36 0.87,2.67 q -0.38,1.12 0.52,1.99 c 0.49,0.49 0.9,1.17 0.9,1.5 0,0.52 0.19,0.63 1.17,0.79 0.63,0.08 2.21,0.38 3.49,0.63 l 2.32,0.46 1.53,-0.74 c 0.85,-0.41 1.66,-0.74 1.83,-0.74 0.17,0 0.82,-0.44 1.45,-0.95 1.15,-0.95 1.2,-0.95 3.35,-0.93 2.56,0.05 3.33,0.27 5.21,1.5 2.26,1.47 3.46,3.49 2.59,4.36 -0.19,0.19 -0.16,0.57 0.05,1.12 0.27,0.71 0.25,0.93 -0.11,1.36 -0.25,0.27 -0.49,0.93 -0.55,1.45 -0.08,0.82 -0.27,1.04 -1.42,1.61 -2.26,1.12 -5.56,1.12 -6.08,-0.03 -0.22,-0.49 -0.33,-0.52 -0.65,-0.19 -0.22,0.22 -0.95,0.65 -1.64,0.98 -1.06,0.52 -1.77,0.63 -5.32,0.71 -4.36,0.11 -5.37,-0.11 -5.73,-1.17 -0.25,-0.74 -0.44,-0.71 -1.5,0.41 -0.52,0.52 -1.06,0.95 -1.2,0.95 -0.19,0.03 -0.82,-0.3 -1.42,-0.65 z"
         fill="#d3d3d3"
         style="fill:#d9d9d9;fill-opacity:1" /><path
         id="path1130"
         d="m 239.42,100.8 c -0.57,-0.14 -3.57,-2.18 -4.34,-2.95 -0.65,-0.65 -0.52,-1.53 0.63,-3.71 0.93,-1.72 1.23,-2.05 2.13,-2.37 1.23,-0.44 2.54,-0.14 3.71,0.85 0.71,0.6 0.76,0.76 0.93,3.79 0.19,3.16 0.19,3.19 -0.52,3.9 -0.71,0.65 -1.34,0.79 -2.54,0.49 z"
         fill="#d3d3d3"
         style="fill:#d9d9d9;fill-opacity:1" /><path
         id="path1132"
         d="m 228.73,95.78 c -1.25,-0.57 -2.54,-1.94 -2.54,-2.67 0,-0.25 0.38,-0.82 0.87,-1.23 l 0.87,-0.76 -2.54,0.08 c -2.86,0.08 -3.3,-0.14 -3.3,-1.88 0,-1.31 -0.35,-1.8 -1.91,-2.75 -0.76,-0.46 -1.36,-0.93 -1.36,-1.01 0,-0.08 0.22,-0.52 0.46,-0.95 0.44,-0.74 0.55,-0.76 1.72,-0.63 1.47,0.19 2.21,0.52 2.21,1.01 0,0.19 0.55,0.93 1.23,1.64 0.9,0.95 1.42,1.28 2.02,1.28 0.71,0 0.82,-0.11 0.9,-0.98 0.14,-1.06 -0.27,-1.61 -1.77,-2.51 -0.41,-0.25 -0.76,-0.6 -0.76,-0.79 0,-0.19 0.6,-0.82 1.36,-1.42 1.01,-0.79 1.55,-1.04 2.13,-0.95 0.41,0.05 1.42,0.16 2.24,0.25 0.82,0.09 1.77,0.33 2.13,0.57 l 0.65,0.44 -0.16,5.05 c -0.08,3 -0.27,5.21 -0.44,5.4 -0.16,0.22 -0.22,0.76 -0.11,1.31 0.27,1.47 -0.22,2.1 -1.58,2.07 -0.65,0 -1.69,-0.25 -2.32,-0.55 z"
         fill="#d3d3d3"
         style="fill:#d9d9d9;fill-opacity:1" /><path
         id="path1134"
         d="m 208.9,94.07 c -1.12,-0.68 -1.85,-0.71 -2.59,-0.03 -0.25,0.22 -0.6,0.33 -0.76,0.22 -0.41,-0.27 1.06,-6.49 1.53,-6.38 0.19,0.05 0.3,-0.44 0.3,-1.39 0,-1.83 1.28,-8.29 1.8,-9.11 0.82,-1.25 2.95,-0.22 2.24,1.09 -0.19,0.35 -0.19,0.74 -0.03,1.12 0.3,0.65 0.19,2.4 -0.16,3.11 -0.14,0.27 -0.22,0.95 -0.22,1.55 0.03,0.93 0.11,1.09 0.68,1.17 0.35,0.05 1.2,-0.05 1.85,-0.25 1.09,-0.3 1.25,-0.3 1.72,0.19 1.01,1.01 1.25,4.8 0.38,5.94 -0.22,0.3 -0.65,0.95 -0.98,1.45 -1.23,1.96 -3.74,2.54 -5.75,1.31 z"
         fill="#d3d3d3"
         style="fill:#d9d9d9;fill-opacity:1" /><path
         id="path1136"
         d="m 216.38,94.01 c -0.19,-0.52 -0.14,-0.87 0.19,-1.42 0.25,-0.41 0.46,-0.76 0.49,-0.79 0,-0.03 0.41,-0.11 0.9,-0.22 0.82,-0.14 0.9,-0.08 1.42,1.12 0.35,0.76 0.46,1.36 0.33,1.53 -0.14,0.14 -0.87,0.3 -1.66,0.35 -1.31,0.11 -1.45,0.05 -1.66,-0.57 z"
         fill="#d3d3d3"
         style="fill:#d9d9d9;fill-opacity:1" /><path
         id="path1138"
         d="m 269.42,85.45 c -0.08,-0.3 -0.11,-0.65 -0.03,-0.76 0.22,-0.33 -0.16,-0.76 -1.04,-1.23 -0.76,-0.41 -0.85,-0.38 -1.45,0.27 -0.46,0.49 -0.79,0.63 -1.23,0.49 -0.33,-0.11 -0.9,-0.25 -1.28,-0.33 -0.38,-0.08 -0.95,-0.46 -1.28,-0.85 -0.49,-0.6 -0.65,-0.65 -1.04,-0.35 -0.25,0.19 -0.44,0.68 -0.44,1.06 0,0.93 -0.87,1.5 -1.96,1.25 -0.46,-0.11 -2.35,-0.19 -4.2,-0.22 -2.95,-0.03 -3.46,-0.11 -4.12,-0.6 -0.65,-0.49 -0.79,-0.79 -0.85,-2.1 -0.05,-1.01 0.05,-1.83 0.35,-2.35 0.65,-1.25 2.26,-2.75 2.97,-2.75 1.17,0 1.34,-0.63 0.41,-1.53 -1.53,-1.45 -1.99,-2.97 -1.28,-4.28 0.46,-0.87 0.76,-1.01 2.29,-1.01 1.66,0 2.75,0.79 3.16,2.32 0.16,0.55 0.57,1.31 0.93,1.66 0.55,0.55 0.76,0.6 1.2,0.35 0.52,-0.27 0.49,-0.35 -0.65,-1.55 -0.65,-0.68 -1.36,-1.61 -1.53,-2.05 -0.3,-0.71 -0.25,-0.9 0.41,-1.75 l 0.74,-0.95 h -1.85 c -2.32,0 -3.08,-0.44 -3.08,-1.8 0,-0.52 0.25,-1.45 0.57,-2.05 0.3,-0.6 0.49,-1.17 0.41,-1.25 -0.44,-0.44 0.79,-1.72 2.43,-2.56 l 1.8,-0.93 1.8,0.95 c 2.29,1.2 2.15,1.17 2.18,0.76 0,-0.19 0.11,-0.57 0.22,-0.82 0.11,-0.27 0.08,-0.49 -0.03,-0.49 -0.14,-0.03 -0.6,-0.05 -1.04,-0.11 -1.12,-0.11 -2.97,-2.18 -3.6,-4.01 -0.27,-0.79 -0.9,-1.99 -1.39,-2.65 -0.49,-0.66 -0.9,-1.28 -0.9,-1.42 0,-0.11 -0.25,-0.3 -0.52,-0.38 -0.76,-0.25 -1.06,-1.45 -0.87,-3.49 0.25,-2.37 0.52,-2.67 2.26,-2.51 1.83,0.16 2.32,0.52 4.31,3.14 0.93,1.2 1.72,2.15 1.77,2.13 0.3,-0.3 -0.44,-1.96 -1.31,-2.97 -1.36,-1.53 -1.31,-2.37 0.22,-3.14 0.6,-0.3 1.58,-0.9 2.18,-1.31 0.6,-0.41 1.31,-0.74 1.58,-0.74 0.3,0 0.49,-0.22 0.49,-0.55 0,-0.3 0.49,-1.04 1.12,-1.64 l 1.12,-1.09 -0.71,-0.85 c -0.38,-0.46 -0.71,-1.04 -0.71,-1.28 0,-0.24 -0.3,0.11 -0.63,0.76 -1.69,3.33 -3,4.47 -5.05,4.53 -0.71,0 -1.96,0.19 -2.84,0.41 -2.15,0.52 -3.05,0.19 -3.16,-1.15 -0.05,-0.55 0.11,-1.45 0.33,-1.96 0.22,-0.51 0.33,-0.98 0.25,-0.98 -0.3,0 -1.17,1.17 -1.17,1.55 0,0.22 -0.3,0.68 -0.71,1.04 -0.57,0.52 -0.85,0.6 -1.47,0.44 -1.83,-0.52 -3.16,-2.05 -2.48,-2.86 0.3,-0.35 0.25,-0.41 -0.22,-0.41 -0.33,0 -0.68,-0.03 -0.79,-0.05 -0.46,-0.08 -0.87,-0.95 -0.87,-1.83 0,-0.74 0.22,-1.12 1.09,-1.91 1.17,-1.06 1.34,-1.39 0.68,-1.39 -0.22,0 -0.65,-0.25 -0.95,-0.55 -0.3,-0.3 -0.82,-0.55 -1.17,-0.55 -2.37,0 -1.72,-2.54 0.9,-3.55 0.52,-0.19 1.39,-0.85 1.94,-1.42 0.85,-0.87 1.17,-1.04 2.15,-1.04 1.09,0 1.15,-0.03 0.98,-0.65 -0.14,-0.52 0.03,-0.82 0.65,-1.34 0.44,-0.38 0.82,-0.93 0.82,-1.23 0,-0.68 0.55,-1.15 1.23,-1.01 0.3,0.05 0.68,0.11 0.85,0.11 0.17,0 0.74,0.33 1.28,0.68 1.04,0.71 1.28,0.57 1.28,-0.76 0,-0.33 0.44,-1.2 0.95,-1.94 0.51,-0.74 0.95,-1.55 0.95,-1.83 0,-0.28 0.49,-1.01 1.09,-1.61 0.87,-0.93 1.23,-1.12 1.8,-1.01 0.6,0.11 0.76,0 0.98,-0.63 0.3,-0.85 1.42,-1.39 2.48,-1.2 2.07,0.35 2.73,0.3 3.93,-0.35 1.36,-0.71 3.46,-0.98 4.31,-0.55 0.38,0.19 0.98,0.14 2.13,-0.22 1.15,-0.35 1.77,-0.41 2.21,-0.22 0.33,0.14 1.28,0.22 2.1,0.16 2.02,-0.14 2.54,0.03 2.95,0.95 0.38,0.85 1.12,1.34 2.37,1.53 1.06,0.16 1.5,0.65 1.8,1.96 0.38,1.64 0.3,3.08 -0.27,5.15 -0.41,1.47 -0.74,2.07 -1.42,2.65 -0.49,0.41 -1.04,0.76 -1.23,0.76 -0.49,0 -1.88,1.72 -2.67,3.27 -0.38,0.76 -0.71,1.45 -0.71,1.53 0,0.35 1.39,-0.95 1.64,-1.53 0.16,-0.38 0.65,-0.93 1.09,-1.23 0.44,-0.3 0.82,-0.63 0.82,-0.74 0,-0.3 1.31,-0.25 1.5,0.08 0.08,0.16 0.16,0.95 0.16,1.8 0,1.15 -0.16,1.77 -0.65,2.54 -1.01,1.55 -1.88,3.33 -1.75,3.65 0.05,0.16 -0.46,1.61 -1.17,3.19 -0.71,1.58 -1.39,3.19 -1.55,3.55 -0.35,0.85 -0.93,3.85 -1.04,5.32 -0.11,1.45 -1.39,2.67 -2.65,2.54 -0.76,-0.08 -0.87,0 -1.04,0.82 -0.11,0.49 -0.46,1.2 -0.79,1.55 -0.57,0.6 -2.81,1.58 -3.05,1.34 -0.05,-0.05 -0.35,0.14 -0.63,0.46 q -0.52,0.57 0.08,0.98 c 0.74,0.49 0.82,1.58 0.16,2.29 -0.35,0.41 -0.38,0.52 -0.08,0.52 0.22,0.03 0.52,0.05 0.65,0.08 0.16,0.03 0.49,0.08 0.76,0.11 0.27,0.03 0.87,0.41 1.31,0.9 1.01,1.06 1.15,3.03 0.25,3.57 -0.71,0.44 -0.68,0.71 0.14,1.34 0.38,0.3 0.68,0.76 0.68,1.06 0,0.33 -0.25,0.57 -0.68,0.68 -0.55,0.14 -0.68,0.33 -0.68,1.04 0,1.23 -1.23,2.54 -2.45,2.65 l -0.95,0.08 0.08,2.05 c 0.08,1.85 0.03,2.13 -0.55,2.73 q -1.69,1.77 -1.17,2.56 c 0.25,0.38 0.85,0.93 1.31,1.15 0.46,0.25 0.98,0.63 1.15,0.85 0.41,0.55 0.25,1.96 -0.38,3.38 -1.28,2.84 -5.21,5.26 -5.73,3.6 z"
         fill="#d3d3d3"
         style="fill:#d9d9d9;fill-opacity:1" /><path
         id="path1140"
         d="m 218.42,75.25 c -0.76,-0.76 -0.87,-1.94 -0.38,-3.38 0.38,-1.06 0.87,-1.09 1.58,-0.08 1.06,1.5 1.09,3.3 0.03,3.87 -0.44,0.22 -0.68,0.14 -1.23,-0.41 z"
         fill="#d3d3d3"
         style="fill:#d9d9d9;fill-opacity:1" /><path
         id="path1142"
         d="m 238.49,74.87 c -1.94,-1.01 -2.15,-1.99 -0.68,-3.27 1.2,-1.06 2.7,-1.17 4.09,-0.3 1.53,0.95 1.55,2.15 0.08,3.38 -0.93,0.76 -2.24,0.85 -3.49,0.19 z"
         fill="#d3d3d3"
         style="fill:#d9d9d9;fill-opacity:1" /><path
         id="path1144"
         d="m 236.09,70.31 c -0.9,-0.38 -1.34,-1.17 -1.06,-1.99 0.08,-0.3 -0.16,-0.85 -0.68,-1.45 -1.01,-1.15 -1.2,-1.83 -1.01,-3.49 0.16,-1.47 1.01,-2.37 1.94,-2.1 0.33,0.08 1.31,0.65 2.18,1.23 0.87,0.58 1.69,1.06 1.8,1.06 0.44,0 0.82,1.53 0.82,3.27 v 1.88 l -1.25,0.95 c -1.39,1.15 -1.5,1.17 -2.73,0.63 z"
         fill="#d3d3d3"
         style="fill:#d9d9d9;fill-opacity:1" /><path
         id="path1146"
         d="m 230.2,69.82 c -0.33,-0.35 -1.04,-1.12 -1.55,-1.72 -1.69,-1.91 -2.51,-2.37 -4.23,-2.32 -1.36,0.05 -1.61,-0.03 -2.32,-0.76 -0.85,-0.85 -1.04,-1.83 -0.52,-2.78 0.16,-0.3 0.46,-0.52 0.68,-0.52 0.22,0 0.63,-0.25 0.93,-0.52 0.46,-0.46 0.49,-0.68 0.25,-1.58 -0.16,-0.63 -0.65,-1.36 -1.2,-1.8 -1.75,-1.45 -0.98,-3.74 1.23,-3.74 1.23,0 2.75,1.06 2.75,1.91 0,0.52 0.38,0.9 1.01,0.98 0.65,0.11 1.94,1.36 2.54,2.48 0.33,0.63 0.82,1.36 1.06,1.66 0.93,1.01 1.06,1.5 0.65,2.65 -0.55,1.55 -0.49,1.91 0.44,2.95 0.46,0.52 0.82,1.12 0.82,1.36 0,0.79 -0.6,1.75 -1.28,2.07 -0.55,0.25 -0.74,0.22 -1.25,-0.33 z"
         fill="#d3d3d3"
         style="fill:#d9d9d9;fill-opacity:1" /><path
         id="path1148"
         d="m 245.86,66.88 c -0.6,-0.63 -1.17,-1.39 -1.28,-1.66 -0.08,-0.27 -0.46,-0.85 -0.85,-1.25 -0.98,-1.06 -1.99,-3.16 -1.99,-4.15 0,-1.09 1.06,-2.18 2.1,-2.18 0.71,0 1.72,-0.76 1.72,-1.34 0,-0.25 -1.34,-0.95 -1.77,-0.95 -0.16,0 -0.85,0.11 -1.55,0.22 -1.66,0.27 -2.48,0.05 -2.86,-0.74 -0.22,-0.46 -0.19,-0.82 0.11,-1.36 0.22,-0.44 0.27,-0.74 0.11,-0.74 -0.16,0 -0.52,-0.25 -0.82,-0.55 -0.6,-0.6 -0.71,-1.91 -0.25,-3.25 0.27,-0.76 0.41,-0.85 1.39,-0.85 0.98,0 1.06,-0.05 0.9,-0.6 -0.11,-0.33 -0.55,-0.93 -1.01,-1.31 -0.68,-0.6 -0.79,-0.85 -0.63,-1.55 0.22,-1.01 0.76,-1.5 1.75,-1.64 1.69,-0.19 1.75,-0.41 0.44,-1.8 l -0.95,-1.01 0.55,-1.09 c 0.3,-0.6 0.9,-1.25 1.36,-1.5 0.63,-0.33 0.82,-0.63 0.87,-1.45 0.08,-0.95 0.14,-1.04 1.04,-1.12 1.01,-0.08 2.59,0.76 3.03,1.58 0.6,1.17 1.34,2.95 1.34,3.22 0,0.57 1.15,2.37 2.35,3.65 0.87,0.95 1.2,1.5 1.2,2.13 0,0.63 0.33,1.2 1.36,2.29 1.2,1.25 1.36,1.58 1.36,2.59 0,1.23 0.11,1.36 2.73,3.52 0.98,0.82 1.09,1.06 1.09,2.1 0,1.04 -0.22,1.47 -1.64,3.33 -0.9,1.2 -1.94,2.32 -2.32,2.54 -0.46,0.25 -0.68,0.6 -0.68,1.04 0,0.38 -0.46,1.28 -1.01,1.99 -1.12,1.47 -1.28,1.55 -2.45,1.2 -0.52,-0.16 -0.6,-0.05 -0.68,0.71 -0.08,0.87 -0.11,0.9 -1.5,0.98 -1.36,0.14 -1.47,0.08 -2.54,-1.01 z"
         fill="#d3d3d3"
         style="fill:#d9d9d9;fill-opacity:1" /><path
         id="path1150"
         d="m 212.1,62.54 c 0.08,-0.38 0.25,-1.15 0.33,-1.72 0.11,-0.57 0.3,-1.04 0.44,-1.04 0.38,0 -0.03,2.54 -0.52,3 -0.35,0.38 -0.38,0.35 -0.25,-0.25 z"
         fill="#d3d3d3"
         style="fill:#d9d9d9;fill-opacity:1" /><path
         id="path1152"
         d="m 232.74,50.73 c -0.93,-0.74 -1.58,-1.85 -1.42,-2.45 0.22,-0.95 0.63,-1.28 1.42,-1.28 0.57,0 0.9,0.27 1.47,1.12 0.87,1.34 0.9,1.72 0.19,2.43 -0.65,0.63 -1.06,0.68 -1.66,0.19 z"
         fill="#d3d3d3"
         style="fill:#d9d9d9;fill-opacity:1" /></g><g
       id="CA-QC"
       transform="matrix(1.3333334,0,0,1.3333334,23.061249,27.528476)"
       style="fill:#d9d9d9;fill-opacity:1"><path
         id="path1157"
         d="m 327.86,322.48 c -0.25,-0.41 -0.49,-1.17 -0.55,-1.72 -0.11,-0.9 -0.16,-0.95 -1.23,-1.04 -1.12,-0.08 -2.59,0.49 -4.2,1.61 -0.55,0.38 -1.2,0.52 -2.75,0.52 -2.02,0 -2.05,0 -2.67,-0.95 -0.35,-0.52 -0.87,-0.95 -1.17,-0.95 -0.3,0 -1.15,-0.38 -1.91,-0.85 -0.95,-0.6 -1.83,-0.9 -2.89,-0.98 -2.29,-0.19 -4.85,-1.04 -6.44,-2.13 -1.15,-0.79 -1.55,-1.31 -2.24,-2.81 -0.49,-1.12 -0.9,-2.54 -1.01,-3.6 -0.11,-0.98 -0.22,-2.13 -0.27,-2.59 -0.05,-0.46 -0.25,-1.99 -0.41,-3.41 -0.16,-1.42 -0.35,-3.03 -0.41,-3.55 -0.06,-0.52 -0.19,-1.5 -0.27,-2.18 -0.08,-0.68 -0.52,-4.42 -0.95,-8.32 -0.44,-3.9 -0.87,-7.42 -0.95,-7.8 -0.14,-0.63 -0.05,-0.74 0.71,-0.87 0.79,-0.16 0.85,-0.25 0.68,-1.01 -0.14,-0.65 -0.03,-1.09 0.57,-1.96 0.41,-0.63 0.76,-1.45 0.76,-1.83 0,-0.38 -0.49,-1.72 -1.12,-3 -0.63,-1.28 -1.23,-2.81 -1.39,-3.41 -0.16,-0.6 -0.49,-1.39 -0.76,-1.75 -0.33,-0.44 -0.44,-1.09 -0.41,-1.99 0.08,-1.42 -0.65,-2.97 -1.64,-3.52 -0.3,-0.16 -0.52,-0.57 -0.52,-1.01 0,-0.41 -0.25,-1.04 -0.55,-1.42 -0.3,-0.38 -0.55,-0.82 -0.55,-0.95 0,-0.41 1.34,-1.58 2.86,-2.54 0.74,-0.46 1.75,-1.31 2.24,-1.88 0.49,-0.57 1.42,-1.64 2.07,-2.37 0.82,-0.9 1.55,-2.13 2.21,-3.76 0.9,-2.21 0.98,-2.67 0.95,-4.75 -0.03,-1.69 -0.25,-2.89 -0.79,-4.55 -0.41,-1.23 -0.82,-2.56 -0.93,-2.97 -0.27,-1.25 -2.73,-3.87 -4.47,-4.83 -2.1,-1.12 -3.74,-2.75 -3.82,-3.79 -0.03,-0.44 0.14,-1.28 0.41,-1.88 0.25,-0.57 0.49,-1.25 0.55,-1.47 0.03,-0.22 0.33,-0.6 0.63,-0.87 0.44,-0.35 0.57,-0.76 0.57,-1.75 0,-0.93 0.16,-1.47 0.55,-1.88 0.49,-0.52 0.52,-0.65 0.14,-1.69 -0.22,-0.63 -0.44,-1.42 -0.52,-1.8 -0.16,-0.85 -0.87,-2.24 -1.69,-3.33 -0.57,-0.74 -0.63,-1.12 -0.63,-3.9 0,-2.24 -0.11,-3.22 -0.38,-3.55 -0.22,-0.25 -0.74,-1.28 -1.15,-2.32 l -0.76,-1.88 0.71,-1.42 c 0.68,-1.36 0.76,-1.45 1.99,-1.61 2.05,-0.27 3.79,-0.22 4.96,0.22 1.55,0.55 3.74,0.74 4.61,0.41 0.41,-0.16 1.23,-0.76 1.83,-1.36 0.6,-0.6 1.23,-1.06 1.36,-1.06 0.49,0 5.75,2.78 7.5,3.95 1.34,0.87 1.64,1.23 1.58,1.77 -0.03,0.38 0.16,0.98 0.41,1.39 0.41,0.63 0.74,0.74 3.27,1.04 1.53,0.19 3.38,0.52 4.12,0.76 l 1.34,0.44 -0.19,1.5 c -0.19,1.45 0.03,2.4 1.28,5.94 0.16,0.46 0.27,1.15 0.27,1.55 -0.03,0.46 0.25,1.01 0.65,1.45 0.38,0.38 0.93,1.23 1.23,1.91 l 0.55,1.23 1.34,-0.16 c 1.28,-0.16 1.39,-0.11 2.78,1.06 0.79,0.68 1.77,1.31 2.18,1.42 0.41,0.11 0.74,0.3 0.74,0.44 0,0.52 0.57,0.19 1.75,-0.93 0.9,-0.87 1.25,-1.45 1.39,-2.29 0.14,-0.79 0.35,-1.2 0.79,-1.39 0.38,-0.16 0.76,-0.74 0.98,-1.47 0.44,-1.34 0.38,-4.17 -0.08,-4.99 -0.16,-0.3 -0.27,-0.68 -0.22,-0.82 0.05,-0.14 0.19,-0.93 0.35,-1.77 0.25,-1.36 0.9,-2.32 1.36,-2.05 0.11,0.05 0.27,0.57 0.35,1.15 0.25,1.28 1.42,3.35 1.88,3.35 0.33,0 1.12,2.73 0.98,3.41 -0.16,0.74 0.08,0.85 1.58,0.74 l 1.58,-0.11 -0.05,1.75 c -0.03,0.95 -0.16,2.15 -0.33,2.65 -0.19,0.6 -0.19,1.09 -0.03,1.42 0.33,0.6 1.77,1.53 2.78,1.77 0.93,0.22 0.98,0.46 1.17,3.68 0.08,1.42 0.33,3.19 0.52,3.95 0.19,0.76 0.46,1.8 0.55,2.35 0.11,0.65 0.44,1.17 1.01,1.58 0.82,0.6 2.15,3 2.15,3.87 0,0.25 0.22,0.65 0.52,0.9 0.27,0.25 0.71,0.93 0.98,1.5 0.46,1.01 0.46,1.09 -0.11,2.35 l -0.57,1.28 -1.45,-0.14 c -0.79,-0.08 -1.8,-0.22 -2.26,-0.33 -0.74,-0.16 -0.9,-0.08 -1.5,0.79 -0.74,1.06 -1.2,1.2 -1.91,0.55 -0.27,-0.25 -1.23,-0.57 -2.13,-0.76 -1.83,-0.38 -1.99,-0.3 -2.32,1.01 -0.11,0.44 -0.46,0.9 -0.85,1.06 -0.52,0.25 -0.68,0.52 -0.68,1.23 0,0.65 -0.25,1.17 -0.85,1.8 -0.74,0.76 -0.82,1.01 -0.68,1.99 0.08,0.6 0.33,1.42 0.52,1.83 0.63,1.2 2.24,2.84 3.35,3.38 1.17,0.57 1.39,1.23 0.85,2.78 -0.3,0.85 -0.27,0.95 0.46,1.58 0.79,0.68 1.75,0.76 3.33,0.22 0.52,-0.16 0.6,-0.05 0.76,1.23 0.14,0.98 0.41,1.64 0.87,2.1 0.63,0.63 0.82,0.68 2.18,0.49 1.23,-0.16 1.61,-0.11 2.05,0.3 0.3,0.27 0.74,0.52 1.01,0.57 1.28,0.25 4.06,0.3 4.36,0.11 0.19,-0.11 0.41,-0.76 0.46,-1.42 0.16,-1.53 0.35,-3.35 0.38,-3.46 0,-0.03 0.52,0.19 1.15,0.49 0.82,0.44 1.42,0.55 2.26,0.44 1.17,-0.16 5.56,-1.64 10.12,-3.44 7.01,-2.75 11.32,-4.34 12.93,-4.75 0.95,-0.25 1.91,-0.57 2.13,-0.76 0.22,-0.19 0.46,-0.22 0.57,-0.05 0.63,0.74 1.94,2.54 1.94,2.65 0,0.08 -0.76,0.74 -1.72,1.45 -2.51,1.91 -3.98,3.6 -4.17,4.72 -0.08,0.52 -0.68,2.05 -1.36,3.41 -0.68,1.36 -1.34,2.75 -1.47,3.14 -0.3,0.85 -4.72,3.22 -7.53,4.04 -1.06,0.3 -3.38,0.98 -5.18,1.5 -10.55,3.05 -15.65,4.96 -16.58,6.24 -0.27,0.38 -0.63,1.28 -0.76,2.02 -0.13,0.74 -0.49,2.15 -0.82,3.16 -0.49,1.61 -0.65,1.85 -1.23,1.85 -1.31,0 -3.98,3.05 -4.91,5.59 -0.27,0.76 -0.9,1.99 -1.36,2.73 -0.49,0.76 -0.93,1.8 -1.01,2.32 -0.3,2.29 -4.5,9.05 -6.68,10.8 -3.05,2.45 -7.25,6.93 -6.87,7.31 0.05,0.05 1.15,-1.04 2.43,-2.45 1.28,-1.42 3.14,-3.16 4.12,-3.93 1.69,-1.28 3.55,-3.25 4.8,-5.07 1.12,-1.64 3.11,-5.56 3.11,-6.14 0,-0.33 0.14,-0.85 0.3,-1.17 0.49,-0.95 3,-4.04 4.06,-4.99 0.52,-0.49 1.55,-1.45 2.32,-2.13 0.74,-0.68 2.1,-1.69 3,-2.26 0.9,-0.55 2.56,-1.64 3.68,-2.43 1.42,-0.98 2.59,-1.55 3.82,-1.85 1.66,-0.41 1.88,-0.41 3.38,0.05 1.31,0.41 1.69,0.65 2.07,1.42 1.09,2.07 0.9,3.46 -0.65,5.37 -1.53,1.85 -2.07,2.21 -3.68,2.37 -3.14,0.33 -5.73,1.06 -6.6,1.85 -1.12,1.04 -2.02,1.34 -4.17,1.42 -2.59,0.11 -2.73,0.27 -2.51,3.03 l 0.16,2.24 -1.06,0.16 c -0.57,0.08 -1.39,0.11 -1.77,0.03 -0.55,-0.11 -0.85,0.03 -1.17,0.49 -0.55,0.76 -1.69,4.53 -1.91,6.22 -0.08,0.68 -0.27,2.02 -0.41,3 -0.14,0.98 -0.33,2.29 -0.38,2.95 -0.22,2.1 -1.04,3.9 -2.1,4.66 -0.55,0.38 -1.25,1.09 -1.61,1.58 -0.33,0.49 -0.87,0.95 -1.2,1.01 -0.33,0.05 -2.56,0.55 -4.99,1.09 -2.43,0.54 -5.07,0.98 -5.86,0.98 -1.28,0 -1.47,-0.08 -1.88,-0.76 z"
         fill="#d3d3d3"
         style="fill:#d9d9d9;fill-opacity:1" /><path
         id="path1159"
         d="m 372.36,280.76 c -0.38,-0.05 -0.98,-0.33 -1.36,-0.57 -0.38,-0.27 -1.39,-0.63 -2.24,-0.82 -1.94,-0.41 -2.32,-1.12 -1.15,-2.1 0.63,-0.52 1.15,-0.65 2.56,-0.68 3.74,-0.08 5.07,0.08 7.58,0.9 2.48,0.85 2.54,0.87 2.54,1.75 0,1.04 -0.11,1.09 -3.14,1.34 -3.33,0.27 -4.06,0.3 -4.8,0.19 z"
         fill="#d3d3d3"
         style="fill:#d9d9d9;fill-opacity:1" /></g><path
       id="CA-SK"
       d="m 286.0746,426.02183 c -0.0667,-0.0667 -1.45334,-0.25333 -3.05334,-0.4 -1.6,-0.14667 -3.30666,-0.29333 -3.81333,-0.36 -0.50667,-0.0667 -1.96,-0.25333 -3.26667,-0.36 -1.30666,-0.10667 -2.76,-0.29333 -3.26666,-0.36 -0.50667,-0.0667 -1.96,-0.25333 -3.26667,-0.36 -1.30667,-0.10667 -6.36,-1.13333 -11.26667,-2.25333 -4.90667,-1.13334 -9.16,-2.04 -9.45333,-2.10667 -1.64,-0.36 -2.58667,-0.58667 -4.73334,-1.05333 -1.30666,-0.29334 -2.69333,-0.61334 -3.09333,-0.69334 -0.4,-0.0667 -2,-0.44 -3.56,-0.76 -2.29333,-0.50666 -2.8,-0.76 -2.65333,-1.24 0.18666,-0.54666 3.01333,-12.29333 3.26666,-13.49333 0.0667,-0.29333 0.61334,-2.65333 1.26667,-5.26667 0.61333,-2.61333 1.70667,-7.2 2.44,-10.18667 0.73333,-2.98666 2.10667,-8.8 3.09333,-12.90666 0.98667,-4.10667 1.89334,-7.78667 1.96,-8.18667 0.0667,-0.4 0.65334,-2.76 1.24,-5.26667 0.61334,-2.50666 1.85334,-7.66666 2.76,-11.45333 0.90667,-3.81333 2.21334,-9.2 2.86667,-12 0.65333,-2.8 1.81333,-7.56 2.54667,-10.61334 l 1.34667,-5.53333 1.89333,0.14667 c 1.01333,0.0667 2.69333,0.29333 3.66667,0.44 0.97333,0.14666 3.05333,0.10666 4.61333,-0.0667 2.65333,-0.33333 2.94667,-0.29333 5.01333,0.65333 2.06667,0.90667 2.94667,0.98667 2.94667,0.21334 0,-0.4 -7.70667,-4.18667 -9.64,-4.69334 -0.8,-0.21333 -1.81333,-0.4 -2.29333,-0.4 -0.44,0 -1.16,-0.33333 -1.56,-0.73333 -0.8,-0.8 -1.85334,-0.94667 -2.94667,-0.36 -0.84,0.44 -0.84,0.33333 -0.29333,-2.18667 0.33333,-1.45333 0.50666,-1.81333 1.01333,-1.66666 0.54667,0.14666 3.09333,0.69333 5.53333,1.13333 0.46667,0.10667 1.2,0.21333 1.6,0.33333 1.2,0.25334 16.29334,3.2 17.26667,3.34667 0.50667,0.0667 2.86667,0.54667 5.26667,1.01333 2.4,0.46667 5.01333,0.94667 5.81333,1.01334 1.41333,0.14666 1.45333,0.18666 1.38667,1.38666 -0.04,0.69334 -0.46667,4.29334 -0.98667,7.96001 -0.50667,3.66666 -1.05333,7.56 -1.16,8.54666 -0.21333,1.78667 -0.65333,2.73334 -1.26667,2.73334 -0.54666,0 -2.73333,2.4 -3.2,3.56 -0.33333,0.84 -0.36,1.45333 -0.0667,2.33333 0.8,2.58667 0.65333,3.81333 -0.58667,5.09333 -0.8,0.84 -1.05333,1.34667 -0.84,1.70667 0.25333,0.4 0.54667,0.33333 1.45333,-0.46667 0.61334,-0.54666 1.38667,-0.98666 1.66667,-0.98666 0.54667,0 0.54667,1.16 -0.04,8.36 -0.0667,1.09333 -0.25333,3.45333 -0.36,5.26666 -0.10667,1.81334 -0.29333,4 -0.36,4.90667 -0.0667,0.90667 -0.25333,3.26667 -0.36,5.26667 -0.10667,2 -0.29333,4.21333 -0.36,4.90666 -0.0667,0.69334 -0.25333,3.09334 -0.36,5.26667 -0.10667,2.17333 -0.29333,4.4 -0.36,4.90667 -0.0667,0.50666 -0.25333,2.86666 -0.36,5.26667 -0.14667,2.4 -0.29333,4.61333 -0.36,4.90666 -0.0667,0.29334 -0.21333,2.58667 -0.36,5.09334 -0.14667,2.50666 -0.29333,4.8 -0.36,5.09333 -0.0667,0.29333 -0.21333,2.58667 -0.36,5.09333 -0.14667,2.50667 -0.33333,4.84 -0.4,5.2 -0.0667,0.36 -0.14667,1.70667 -0.18667,3.01334 -0.04,2.14666 -0.4,2.86666 -1.05333,2.25333 z"
       fill="#d3d3d3"
       style="stroke-width:1.33333;fill:#d9d9d9;fill-opacity:1" /><path
       id="CA-YT"
       d="m 191.71459,288.60849 c -0.4,-0.25333 -1.93333,-1.01333 -3.41333,-1.66667 -2.29334,-1.01333 -10.18667,-5.13333 -23.16,-12.04 -4.10667,-2.18666 -19.24,-11.56 -30.4,-18.86667 -3.96,-2.58666 -5.74667,-3.96 -5.74667,-4.4 0,-0.90666 1.13333,-2.69333 2.29333,-3.6 2.10667,-1.66666 0.90667,-2.73333 -3.24,-2.86666 -0.84,-0.04 -1.2,-0.25334 -1.34666,-0.76 -0.10667,-0.4 -0.33334,-0.69334 -0.50667,-0.65334 -0.69333,0.18667 -1.93333,-0.50666 -2.14667,-1.2 -0.18666,-0.54666 0.69334,-2.10666 3.38667,-6.06666 5.01333,-7.38667 14.25333,-21.09334 21.41333,-31.70667 5.70667,-8.46667 13.05334,-19.34667 22.97334,-34.06667 l 4.46666,-6.61333 1.16,0.4 c 2.4,0.84 3.09334,1.64 3.34667,3.96 0.14667,1.16 0.61333,2.90666 1.09333,3.81333 0.48,0.90667 0.94667,2.29333 1.09334,3.09333 0.18666,1.01334 0.61333,1.74667 1.70666,2.65334 1.34667,1.16 1.41334,1.30666 0.94667,1.93333 -0.76,0.90667 -4.44,6.90667 -5.30667,8.65333 -0.4,0.8 -1.01333,2.36 -1.34666,3.45334 -0.36,1.09333 -1.01334,2.73333 -1.45334,3.64 -1.6,3.2 -1.66666,2.94667 2.18667,5.85333 2.65333,2 3.45333,2.8 3.45333,3.45334 0,0.46666 -0.58666,1.96 -1.30666,3.34666 -0.84,1.64 -1.38667,3.2 -1.49334,4.50667 -0.18666,1.96 -0.14666,2.04 1.13334,3.01333 1.41333,1.09334 1.34666,0.76 0.94666,5.01334 0,0.14666 -0.50666,0.36 -1.09333,0.46666 -1.16,0.25334 -2.21333,1.56 -2.21333,2.69334 0,0.4 -0.33334,1.26666 -0.73334,1.96 -0.8,1.34666 -0.61333,2.54666 0.50667,3.49333 0.4,0.33333 0.50667,0.86667 0.4,1.93333 -0.14667,1.09334 0,1.70667 0.61333,2.58667 0.58667,0.8 0.84,1.70667 0.86667,3.16 0.04,1.13333 0.33333,2.58667 0.69333,3.26667 0.61334,1.2 0.61334,1.34666 -0.10666,3.81333 -0.94667,3.30667 -1.41334,5.89333 -1.66667,9.38667 -0.10667,1.53333 -0.4,3.30666 -0.61333,3.93333 -0.36,1.01333 -0.29334,1.26667 0.50666,2.10667 1.2,1.30667 1.56,2.04 2.25334,4.8 0.33333,1.30667 1.05333,3.2 1.64,4.25333 0.73333,1.38667 0.90666,1.93334 0.54666,2.06667 -0.25333,0.10667 -0.54666,0.98667 -0.65333,1.93333 -0.10667,0.98667 -0.29333,2.21334 -0.44,2.76 -0.33333,1.2 0.14667,1.66667 3.09333,3.01334 1.09334,0.50666 2.61334,1.34666 3.38667,1.89333 0.77334,0.54667 1.81334,0.98667 2.36,0.98667 h 0.98667 l -0.10667,3.78666 c -0.0667,2.06667 -0.14666,3.85334 -0.21333,3.89334 0.04,-0.04 -0.33333,-0.18667 -0.73333,-0.44 z"
       fill="#d3d3d3"
       style="stroke-width:1.33333;fill:#d9d9d9;fill-opacity:1" /></g><circle
     id="DC2"
     cx="452.08792"
     cy="493.36667"
     r="1.8133334"
     fill="#d3d3d3"
     stroke="#ffffff"
     stroke-width="2" /><circle
     cx="529.2746"
     cy="414.30182"
     r="6.8400006"
     fill="none"
     stroke="#6c297b"
     stroke-width="0.666667"
     id="circle1" /><path
     d="m 535.70128,407.6485 c -1.77334,-1.70667 -3.96,-2.6 -6.42667,-2.6 v 4.8 c 2.45333,0 4.44,1.98666 4.44,4.44 0,1.2 -0.48,2.28 -1.25333,3.08 l 3.45333,3.33333 c 3.54667,-3.66667 3.44,-9.52 -0.22667,-13.06667 z"
     fill="#00a28a"
     stroke="#00a28a"
     stroke-miterlimit="10"
     id="path1"
     style="stroke-width:1.33333" /><circle
     cx="536.00793"
     cy="444.3685"
     r="11.160001"
     fill="none"
     stroke="#6c297b"
     stroke-width="0.666667"
     id="circle2" /><path
     d="m 542.99461,432.74183 c -2.17333,-1.30667 -4.44,-1.93333 -6.98667,-1.93333 v 4.8 c 0,0 0,0 0,0 4.84,0 8.76,3.92 8.76,8.76 0,1.65333 -0.46666,3.18666 -1.25333,4.50666 l 4.12,2.48 c 3.85333,-6.42666 1.78667,-14.76 -4.64,-18.61333 z"
     fill="#00a28a"
     stroke="#00a28a"
     stroke-miterlimit="10"
     id="path2"
     style="stroke-width:1.33333" /><circle
     cx="509.75458"
     cy="430.3685"
     r="10.280001"
     fill="none"
     stroke="#6c297b"
     stroke-width="0.666667"
     id="circle3" /><path
     d="m 519.16794,421.87516 c -2.46667,-2.73333 -5.74667,-4.2 -9.42667,-4.2 v 4.8 0 c 4.34667,0 7.88,3.53334 7.88,7.88 0,2.32 -1.01333,4.41334 -2.61333,5.85334 l 3.21333,3.57333 c 5.20001,-4.68 5.62667,-12.70667 0.93334,-17.90667 z"
     fill="#00a28a"
     stroke="#00a28a"
     stroke-miterlimit="10"
     id="path3"
     style="stroke-width:1.33333" /><path
     d="m 392.18127,383.30183 c -22.53334,0 -40.8,18.26667 -40.8,40.8 0,22.53333 18.26666,40.8 40.8,40.8 22.53333,0 40.8,-18.26667 40.8,-40.8 0,-22.53333 -18.26667,-40.8 -40.8,-40.8 z"
     fill="none"
     stroke="#6c297b"
     stroke-width="0.666667"
     id="path4" /><path
     d="m 413.66127,392.26183 2.68,-3.97334 c -7.28,-4.90666 -15.37333,-7.38666 -24.16,-7.38666 v 4.8 c 7.96,0 15.34667,2.42666 21.48,6.56 z"
     fill="#00a28a"
     stroke="#00a28a"
     stroke-miterlimit="10"
     id="path5"
     style="stroke-width:1.33333" /><path
     d="m 319.34126,347.35516 c -6.88,0 -12.45333,5.57333 -12.45333,12.45333 0,6.88 5.57333,12.45334 12.45333,12.45334 6.88001,0 12.45334,-5.57334 12.45334,-12.45334 0,-6.88 -5.57333,-12.45333 -12.45334,-12.45333 z"
     fill="none"
     stroke="#6c297b"
     stroke-width="0.666667"
     id="path6" /><path
     d="m 321.1546,345.06183 c -0.6,-0.08 -1.2,-0.10667 -1.81334,-0.10667 v 4.8 c 0,0 0,0 0,0 5.54667,0 10.05334,4.50667 10.05334,10.05333 0,0.41334 -0.0267,0.82667 -0.08,1.22667 l 4.77333,0.58667 c 1,-8.14667 -4.78666,-15.54667 -12.93333,-16.54667 z"
     fill="#00a28a"
     stroke="#00a28a"
     stroke-miterlimit="10"
     id="path7"
     style="stroke-width:1.33333" /><path
     d="m 269.64793,355.59516 c -6.77333,0 -12.28,5.49333 -12.28,12.28 0,6.78667 5.49333,12.28 12.28,12.28 6.78667,0 12.28,-5.49333 12.28,-12.28 0,-6.78667 -5.49333,-12.28 -12.28,-12.28 z"
     fill="none"
     stroke="#6c297b"
     stroke-width="0.666667"
     id="path8" /><path
     d="m 278.2746,355.99516 c -2.61334,-1.89333 -5.4,-2.8 -8.62667,-2.8 v 4.8 0 c 5.45333,0 9.88,4.42667 9.88,9.88 0,2.17333 -0.70667,4.17333 -1.89333,5.8 l 3.89333,2.82667 c 4.76,-6.56 3.30667,-15.73334 -3.24,-20.49334 z"
     fill="#00a28a"
     stroke="#00a28a"
     stroke-miterlimit="10"
     id="path9"
     style="stroke-width:1.33333" /><path
     d="m 221.96793,335.98183 c -13.06667,0 -23.66667,10.6 -23.66667,23.66666 0,13.06667 10.6,23.66667 23.66667,23.66667 13.06666,0 23.66666,-10.6 23.66666,-23.66667 0,-13.06666 -10.6,-23.66666 -23.66666,-23.66666 z"
     fill="none"
     stroke="#6c297b"
     stroke-width="0.666667"
     id="path10" /><path
     d="m 241.79459,352.03516 4.49334,-1.72 c -3.94667,-10.26667 -13.33334,-16.72 -24.33334,-16.72 v 4.8 c 9.05334,0 16.77334,5.66667 19.84,13.65333 z"
     fill="#00a28a"
     stroke="#00a28a"
     stroke-miterlimit="10"
     id="path11"
     style="stroke-width:1.33333" /><path
     d="m 166.75459,306.98182 c -14.4,0 -26.06667,11.66667 -26.06667,26.06667 0,14.4 11.66667,26.06667 26.06667,26.06667 14.4,0 26.06667,-11.66667 26.06667,-26.06667 0,-14.4 -11.66667,-26.06667 -26.06667,-26.06667 z"
     fill="none"
     stroke="#6c297b"
     stroke-width="0.666667"
     id="path12" /><path
     d="m 180.64792,313.91516 2.84,-3.90667 c -4.96,-3.6 -10.6,-5.44 -16.73333,-5.44 v 4.8 c 5.2,0 9.98667,1.69333 13.89333,4.53333 z"
     fill="#00a28a"
     stroke="#00a28a"
     stroke-miterlimit="10"
     id="path13"
     style="stroke-width:1.33333" /><path
     d="m 158.40792,221.10182 c -2.97333,0 -5.38666,2.41333 -5.38666,5.38667 0,2.97333 2.41333,5.38666 5.38666,5.38666 2.97334,0 5.38667,-2.41333 5.38667,-5.38666 0,-2.97334 -2.41333,-5.38667 -5.38667,-5.38667 z"
     fill="none"
     stroke="#6c297b"
     stroke-width="0.666667"
     id="path14" /><path
     d="m 160.95459,224.95515 4.12,-2.48 c -1.42667,-2.38666 -3.89333,-3.77333 -6.66667,-3.77333 v 4.8 c 1.08,0 2.02667,0.58667 2.54667,1.45333 z"
     fill="#00a28a"
     stroke="#00a28a"
     stroke-miterlimit="10"
     id="path15"
     style="stroke-width:1.33333" /><path
     d="m 231.56793,250.72849 c -2.88,0 -5.22667,2.33333 -5.22667,5.22666 0,2.89334 2.33333,5.22667 5.22667,5.22667 2.89333,0 5.22666,-2.33333 5.22666,-5.22667 0,-2.89333 -2.33333,-5.22666 -5.22666,-5.22666 z"
     fill="none"
     stroke="#6c297b"
     stroke-width="0.666667"
     id="path16" /><path
     d="m 238.42126,252.60849 c -1.29333,-2.65334 -3.90667,-4.28 -6.85333,-4.28 v 4.8 c 0,0 0,0 0,0 1.56,0 2.82666,1.26666 2.82666,2.82666 0,1.12 -0.65333,2.06667 -1.58666,2.53334 l 2.10666,4.32 c 3.78667,-1.84 5.36,-6.41334 3.50667,-10.2 z"
     fill="#00a28a"
     stroke="#00a28a"
     stroke-miterlimit="10"
     id="path17"
     style="stroke-width:1.33333" /><path
     d="m 328.88793,274.03516 v 4.37333 c 1.56,0 2.82667,1.26667 2.82667,2.82667 0,1.56 -1.26667,2.82666 -2.82667,2.82666 -1.56,0 -2.82666,-1.26666 -2.82666,-2.82666 0,-1.56 1.26666,-2.82667 2.82666,-2.82667 v -4.37333 c -3.97333,0 -7.2,3.22666 -7.2,7.2 0,3.97333 3.22667,7.2 7.2,7.2 3.97334,0 7.2,-3.22667 7.2,-7.2 0,-3.97334 -3.22666,-7.2 -7.2,-7.2 z"
     fill="#00a28a"
     stroke="#00a28a"
     stroke-width="0.666667"
     id="path18" /><circle
     cx="534.55457"
     cy="352.44852"
     r="9.0799999"
     fill="none"
     stroke="#6c297b"
     stroke-width="0.666667"
     id="circle18" /><path
     d="m 545.34128,348.52849 c -1.66667,-4.57333 -5.92,-7.54666 -10.78667,-7.54666 v 4.8 c 0,0 0,0 0,0 3.69333,0 6.68,2.98666 6.68,6.68 0,2.88 -1.84,5.32 -4.4,6.25333 l 1.65333,4.53333 c 5.96,-2.17333 9.02667,-8.74666 6.85334,-14.70666 z"
     fill="#00a28a"
     stroke="#00a28a"
     stroke-miterlimit="10"
     id="path19"
     style="stroke-width:1.33333" /><path
     d="m 467.02127,344.10183 c -16.30667,0 -29.52,13.21333 -29.52,29.52 0,16.30666 13.21333,29.52 29.52,29.52 16.30667,0 29.52,-13.21334 29.52,-29.52 0,-16.30667 -13.21333,-29.52 -29.52,-29.52 z"
     fill="none"
     stroke="#6c297b"
     stroke-width="0.666667"
     id="path20" /><path
     d="m 493.19461,366.60849 4.66666,-1.25333 c -3.77333,-14.06667 -16.28,-23.66667 -30.84,-23.66667 v 4.8 c 12.54667,0 23.08,8.53334 26.17334,20.12 z"
     fill="#00a28a"
     stroke="#00a28a"
     stroke-miterlimit="10"
     id="path21"
     style="stroke-width:1.33333" /><circle
     cx="38.400002"
     cy="118.5857"
     r="9.6000004"
     fill="#ffffff"
     stroke="#6c297b"
     id="circle21"
     style="stroke-width:1.33333" /><text
     fill="#6c297b"
     font-family="OpenSans-Bold, 'Open Sans'"
     font-size="13.3333px"
     font-weight="700"
     id="text21"
     x="52.800003"
     y="123.38569"
     style="font-size:14.6667px;stroke-width:1.33333"><tspan
       x="52.800003"
       y="123.38569"
       id="tspan21"
       style="font-size:14.6667px;stroke-width:1.33333">Total small businesses</tspan></text><text
     fill="#6c297b"
     id="text25"
     x="547.56799"
     y="345.38184"
     style="font-size:16px;stroke-width:1.33333"><tspan
       font-family="OpenSans-Bold, 'Open Sans'"
       font-size="13.3333px"
       font-weight="700"
       id="tspan23"
       style="stroke-width:1.33333"><tspan
         x="547.56799"
         y="345.38184"
         id="tspan22"
         style="stroke-width:1.33333">18K</tspan></tspan><tspan
       font-family="OpenSans-Italic, 'Open Sans'"
       font-size="10.6667px"
       font-style="italic"
       font-variation-settings="'wdth' 100, 'wght' 400"
       id="tspan25"
       style="stroke-width:1.33333"><tspan
         x="550.63464"
         y="358.18182"
         id="tspan24"
         style="stroke-width:1.33333">N.L.</tspan></tspan></text><text
     fill="#6c297b"
     font-family="OpenSans-Bold, 'Open Sans'"
     font-size="13.3333px"
     font-weight="700"
     id="text26"
     x="538.8479"
     y="407.91516"
     style="stroke-width:1.33333"><tspan
       x="538.8479"
       y="407.91516"
       id="tspan26"
       style="stroke-width:1.33333">6.7K</tspan></text><text
     fill="#6c297b"
     font-family="OpenSans-Italic, 'Open Sans'"
     font-size="10.6667px"
     font-style="italic"
     font-variation-settings="'wdth' 100, 'wght' 400"
     id="text27"
     x="541.54126"
     y="420.71518"
     style="stroke-width:1.33333"><tspan
       x="541.54126"
       y="420.71518"
       id="tspan27"
       style="stroke-width:1.33333">P.E.I.</tspan></text><text
     fill="#6c297b"
     font-family="OpenSans-Italic, 'Open Sans'"
     font-size="10.6667px"
     font-style="italic"
     font-variation-settings="'wdth' 100, 'wght' 400"
     id="text28"
     x="450.00793"
     y="336.39517"
     style="stroke-width:1.33333"><tspan
       x="450.00793"
       y="336.39517"
       id="tspan28"
       style="stroke-width:1.33333">Quebec</tspan></text><text
     fill="#6c297b"
     font-family="OpenSans-Italic, 'Open Sans'"
     font-size="10.6667px"
     font-style="italic"
     font-variation-settings="'wdth' 100, 'wght' 400"
     id="text29"
     x="374.03461"
     y="476.50183"
     style="stroke-width:1.33333"><tspan
       x="374.03461"
       y="476.50183"
       id="tspan29"
       style="stroke-width:1.33333">Ontario</tspan></text><text
     fill="#6c297b"
     font-family="OpenSans-Bold, 'Open Sans'"
     font-size="13.3333px"
     font-weight="700"
     id="text30"
     x="376.31461"
     y="429.43518"
     style="stroke-width:1.33333"><tspan
       x="376.31461"
       y="429.43518"
       id="tspan30"
       style="stroke-width:1.33333">860K</tspan></text><text
     fill="#d3d3d3"
     font-family="OpenSans-Bold, 'Open Sans'"
     font-size="13.3333px"
     font-weight="700"
     stroke="#d3d3d3"
     id="text31"
     x="257.1546"
     y="372.78183"
     style="stroke-width:1.33333"><tspan
       x="257.1546"
       y="372.78183"
       id="tspan31"
       style="stroke-width:1.33333">41K</tspan></text><text
     fill="#6c297b"
     font-family="OpenSans-Italic, 'Open Sans'"
     font-size="10.6667px"
     font-style="italic"
     font-variation-settings="'wdth' 100, 'wght' 400"
     id="text32"
     x="207.62126"
     y="328.9285"
     style="stroke-width:1.33333"><tspan
       x="207.62126"
       y="328.9285"
       id="tspan32"
       style="stroke-width:1.33333">Alberta</tspan></text><text
     fill="#6c297b"
     font-family="OpenSans-Italic, 'Open Sans'"
     font-size="10.6667px"
     font-style="italic"
     font-variation-settings="'wdth' 100, 'wght' 400"
     id="text33"
     x="116.18125"
     y="369.35516"
     style="stroke-width:1.33333"><tspan
       x="116.18125"
       y="369.35516"
       id="tspan33"
       style="stroke-width:1.33333">British Columbia</tspan></text><text
     fill="#6c297b"
     id="text37"
     x="144.64792"
     y="246.83516"
     style="font-size:16px;stroke-width:1.33333"><tspan
       font-family="OpenSans-Bold, 'Open Sans'"
       font-size="13.3333px"
       font-weight="700"
       id="tspan35"
       style="stroke-width:1.33333"><tspan
         x="144.64792"
         y="246.83516"
         id="tspan34"
         style="stroke-width:1.33333">1.9K</tspan></tspan><tspan
       font-family="OpenSans-Italic, 'Open Sans'"
       font-size="10.6667px"
       font-style="italic"
       font-variation-settings="'wdth' 100, 'wght' 400"
       id="tspan37"
       style="stroke-width:1.33333"><tspan
         x="144.14125"
         y="259.63516"
         id="tspan36"
         style="stroke-width:1.33333">Yukon</tspan></tspan></text><text
     fill="#6c297b"
     id="text41"
     x="241.80792"
     y="255.5685"
     style="font-size:16px;stroke-width:1.33333"><tspan
       font-family="OpenSans-Bold, 'Open Sans'"
       font-size="13.3333px"
       font-weight="700"
       id="tspan39"
       style="stroke-width:1.33333"><tspan
         x="241.80792"
         y="255.5685"
         id="tspan38"
         style="stroke-width:1.33333">1.5K</tspan></tspan><tspan
       font-family="OpenSans-Italic, 'Open Sans'"
       font-size="10.6667px"
       font-style="italic"
       font-variation-settings="'wdth' 100, 'wght' 400"
       id="tspan41"
       style="stroke-width:1.33333"><tspan
         x="240.78127"
         y="268.3685"
         id="tspan40"
         style="stroke-width:1.33333">N.W.T.</tspan></tspan></text><text
     fill="#6c297b"
     id="text45"
     x="317.48792"
     y="302.72849"
     style="font-size:16px;stroke-width:1.33333"><tspan
       font-family="OpenSans-Bold, 'Open Sans'"
       font-size="13.3333px"
       font-weight="700"
       id="tspan43"
       style="stroke-width:1.33333"><tspan
         x="317.48792"
         y="302.72849"
         id="tspan42"
         style="stroke-width:1.33333">860</tspan></tspan><tspan
       font-family="OpenSans-Italic, 'Open Sans'"
       font-size="10.6667px"
       font-style="italic"
       font-variation-settings="'wdth' 100, 'wght' 400"
       id="tspan45"
       style="stroke-width:1.33333"><tspan
         x="308.72794"
         y="315.5285"
         id="tspan44"
         style="stroke-width:1.33333">Nunavut</tspan></tspan></text><text
     fill="#00a28a"
     font-family="OpenSans-Bold, 'Open Sans'"
     font-size="13.3333px"
     font-weight="700"
     id="text46"
     x="53.840004"
     y="133.37996"
     style="font-size:14.6667px;white-space:pre;inline-size:135.268;display:inline;stroke-width:1.33333"
     transform="translate(0,18.80571)"
     xml:space="preserve"><tspan
       x="53.840004"
       y="133.37996"
       id="tspan1">% Rural small </tspan><tspan
       x="53.840004"
       y="151.71334"
       id="tspan2">businesses</tspan></text><text
     font-family="OpenSans-Bold, 'Open Sans'"
     font-weight="700"
     id="text50"
     x="514.87939"
     y="143.71558"
     style="font-size:16px;line-height:1.2;white-space:pre;inline-size:112.508;display:inline;stroke-width:1.33333"
     transform="translate(-14.272721,4.5179314)"
     xml:space="preserve"><tspan
       x="514.87939"
       y="143.71558"
       id="tspan3">are located in </tspan><tspan
       x="514.87939"
       y="162.91558"
       id="tspan5"><tspan
         style="fill:#00a28a"
         id="tspan4">rural areas</tspan></tspan></text><text
     fill="#00a28a"
     font-family="OpenSans-Bold, 'Open Sans'"
     font-size="39.0616px"
     font-weight="700"
     id="text51"
     x="413.48904"
     y="167.58142"
     style="stroke-width:1.15601"><tspan
       x="413.48904"
       y="167.58142"
       id="tspan51"
       style="stroke-width:1.15601">16%</tspan></text><text
     font-family="OpenSans-Bold, 'Open Sans'"
     font-size="16px"
     font-weight="700"
     id="text55"
     x="415.06601"
     y="104.09913"
     style="white-space:pre;inline-size:257.938;display:inline;stroke-width:1.33333"
     transform="translate(-0.19920927,4.1430531)"
     xml:space="preserve"><tspan
       x="415.06601"
       y="104.09913"
       id="tspan7">Of the<tspan
   style="fill:#6c297b"
   id="tspan6"> 1.34 million small </tspan></tspan><tspan
       x="415.06601"
       y="124.09913"
       id="tspan9"><tspan
   style="fill:#6c297b"
   id="tspan8">businesses </tspan>across Canada,</tspan></text><text
     fill="#6c297b"
     font-family="OpenSans-Bold, 'Open Sans'"
     font-size="13.3333px"
     font-weight="700"
     id="text56"
     x="150.88791"
     y="338.59515"
     style="stroke-width:1.33333"><tspan
       x="150.88791"
       y="338.59515"
       id="tspan56"
       style="stroke-width:1.33333">215K</tspan></text><text
     fill="#6c297b"
     font-family="OpenSans-Bold, 'Open Sans'"
     font-size="13.3333px"
     font-weight="700"
     id="text57"
     x="206.43459"
     y="365.63516"
     style="stroke-width:1.33333"><tspan
       x="206.43459"
       y="365.63516"
       id="tspan57"
       style="stroke-width:1.33333">177K</tspan></text><text
     fill="#d3d3d3"
     font-family="OpenSans-Italic, 'Open Sans'"
     font-size="10.6667px"
     font-style="italic"
     font-variation-settings="'wdth' 100, 'wght' 400"
     stroke="#d3d3d3"
     id="text58"
     x="234.79459"
     y="393.06183"
     style="stroke-width:1.33333"><tspan
       x="234.79459"
       y="393.06183"
       id="tspan58"
       style="stroke-width:1.33333">Saskatchewan</tspan></text><text
     fill="#d3d3d3"
     font-family="OpenSans-Bold, 'Open Sans'"
     font-size="13.3333px"
     font-weight="700"
     stroke="#d3d3d3"
     id="text59"
     x="307.26126"
     y="364.70184"
     style="stroke-width:1.33333"><tspan
       x="307.26126"
       y="364.70184"
       id="tspan59"
       style="stroke-width:1.33333">43K</tspan></text><text
     fill="#d3d3d3"
     font-family="OpenSans-Italic, 'Open Sans'"
     font-size="10.6667px"
     font-style="italic"
     font-variation-settings="'wdth' 100, 'wght' 400"
     stroke="#d3d3d3"
     id="text60"
     x="296.5546"
     y="383.30185"
     style="stroke-width:1.33333"><tspan
       x="296.5546"
       y="383.30185"
       id="tspan60"
       style="stroke-width:1.33333">Manitoba</tspan></text><text
     fill="#6c297b"
     font-family="OpenSans-Italic, 'Open Sans'"
     font-size="10.6667px"
     font-style="italic"
     font-variation-settings="'wdth' 100, 'wght' 400"
     id="text61"
     x="296.5546"
     y="383.30185"
     style="stroke-width:1.33333"><tspan
       x="296.5546"
       y="383.30185"
       id="tspan61"
       style="stroke-width:1.33333">Manitoba</tspan></text><text
     fill="#6c297b"
     font-family="OpenSans-Italic, 'Open Sans'"
     font-size="10.6667px"
     font-style="italic"
     font-variation-settings="'wdth' 100, 'wght' 400"
     id="text62"
     x="234.79459"
     y="393.06183"
     style="stroke-width:1.33333"><tspan
       x="234.79459"
       y="393.06183"
       id="tspan62"
       style="stroke-width:1.33333">Saskatchewan</tspan></text><text
     fill="#6c297b"
     font-family="OpenSans-Bold, 'Open Sans'"
     font-size="13.3333px"
     font-weight="700"
     id="text63"
     x="451.8746"
     y="378.27518"
     style="stroke-width:1.33333"><tspan
       x="451.8746"
       y="378.27518"
       id="tspan63"
       style="stroke-width:1.33333">274K</tspan></text><text
     fill="#6c297b"
     id="text67"
     x="550.76794"
     y="436.34183"
     style="font-size:16px;stroke-width:1.33333"><tspan
       font-family="OpenSans-Bold, 'Open Sans'"
       font-size="13.3333px"
       font-weight="700"
       id="tspan65"
       style="stroke-width:1.33333"><tspan
         x="550.76794"
         y="436.34183"
         id="tspan64"
         style="stroke-width:1.33333">32K</tspan></tspan><tspan
       font-family="OpenSans-Italic, 'Open Sans'"
       font-size="10.6667px"
       font-style="italic"
       font-variation-settings="'wdth' 100, 'wght' 400"
       id="tspan67"
       style="stroke-width:1.33333"><tspan
         x="553.70129"
         y="449.14185"
         id="tspan66"
         style="stroke-width:1.33333">N.S.</tspan></tspan></text><text
     fill="#6c297b"
     id="text71"
     x="475.75461"
     y="421.28851"
     style="font-size:16px;stroke-width:1.33333"><tspan
       font-family="OpenSans-Bold, 'Open Sans'"
       font-size="13.3333px"
       font-weight="700"
       id="tspan69"
       style="stroke-width:1.33333"><tspan
         x="475.75461"
         y="421.28851"
         id="tspan68"
         style="stroke-width:1.33333">26K</tspan></tspan><tspan
       font-family="OpenSans-Italic, 'Open Sans'"
       font-size="10.6667px"
       font-style="italic"
       font-variation-settings="'wdth' 100, 'wght' 400"
       id="tspan71"
       style="stroke-width:1.33333"><tspan
         x="478.18127"
         y="434.0885"
         id="tspan70"
         style="stroke-width:1.33333">N.B.</tspan></tspan></text><path
     d="m 48.000002,148.19901 c 0,-5.30666 -4.293333,-9.6 -9.6,-9.6 v 4.8 c 2.653333,0 4.8,2.14667 4.8,4.8 0,1.32 -0.533333,2.52 -1.4,3.4 l 3.4,3.4 c 1.733334,-1.73333 2.813334,-4.13333 2.813334,-6.78666 z"
     fill="#00a28a"
     stroke="#00a28a"
     id="path71"
     style="stroke-width:1.33333" /><text
     fill="#999999"
     font-family="OpenSans, 'Open Sans'"
     font-size="10.6667px"
     id="text72"
     x="28.800001"
     y="466.98618"
     style="white-space:pre;inline-size:278.4;display:inline;stroke-width:1.33333"
     transform="translate(0,9.1762674)"
     xml:space="preserve"><tspan
       x="28.800001"
       y="466.98618"
       id="tspan10">Data Source: Statistics Canada (2024) Business Counts </tspan><tspan
       x="28.800001"
       y="480.31954"
       id="tspan11">in Rural and Small Town Canada</tspan></text><text
     fill="#6c297b"
     font-family="OpenSans-Bold, 'Open Sans'"
     font-size="13.3333px"
     font-weight="700"
     id="text73"
     x="257.1546"
     y="372.78183"
     style="stroke-width:1.33333"><tspan
       x="257.1546"
       y="372.78183"
       id="tspan73"
       style="stroke-width:1.33333">41K</tspan></text><text
     fill="#6c297b"
     font-family="OpenSans-Bold, 'Open Sans'"
     font-size="13.3333px"
     font-weight="700"
     id="text74"
     x="307.26126"
     y="364.70184"
     style="stroke-width:1.33333"><tspan
       x="307.26126"
       y="364.70184"
       id="tspan74"
       style="stroke-width:1.33333">43K</tspan></text><text
     font-family="TradeGothicLT-Bold, 'TradeGothic LT Bold'"
     font-size="26.6667px"
     font-weight="700"
     id="text75"
     x="27.946676"
     y="38.399994"
     style="white-space:pre;inline-size:324.013;display:inline;stroke-width:1.33333"
     xml:space="preserve"><tspan
       x="27.946676"
       y="38.399994"
       id="tspan12">Small businesses across </tspan><tspan
       x="27.946676"
       y="71.733367"
       id="tspan13">urban and rural Canada</tspan></text><rect
     x="0"
     y="19.199997"
     width="19.200001"
     height="19.200001"
     id="rect75"
     style="stroke-width:1.33333" /><path
     id="path37"
     d="M 0,507.67951 H 652.80003"
     fill="none"
     stroke="#231f20"
     stroke-miterlimit="3"
     style="stroke-width:1.33333" /><path
     id="path37-2"
     data-name="path37"
     d="M 0,0.16666668 H 652.80003"
     fill="none"
     stroke="#231f20"
     stroke-miterlimit="3"
     style="stroke-width:1.33333" /></svg>
