<?xml version="1.0" encoding="UTF-8"?>
<svg xmlns="http://www.w3.org/2000/svg" viewBox="0 0 489.6 309.6">
  <g id="Layer_4" data-name="Layer 4">
    <g>
      <line x1="86.4" y1="68.4" x2="86.4" y2="61.2" fill="none" stroke="#000" stroke-miterlimit="10" stroke-width=".75"/>
      <line x1="123.5" y1="67.21" x2="123.5" y2="62.39" fill="none" stroke="#000" stroke-miterlimit="10" stroke-width=".75"/>
      <line x1="160.6" y1="68.4" x2="160.6" y2="61.2" fill="none" stroke="#000" stroke-miterlimit="10" stroke-width=".75"/>
      <line x1="197.7" y1="67.21" x2="197.7" y2="62.39" fill="none" stroke="#000" stroke-miterlimit="10" stroke-width=".75"/>
      <line x1="234.8" y1="68.4" x2="234.8" y2="61.2" fill="none" stroke="#000" stroke-miterlimit="10" stroke-width=".75"/>
      <line x1="271.9" y1="67.21" x2="271.9" y2="62.39" fill="none" stroke="#000" stroke-miterlimit="10" stroke-width=".75"/>
      <line x1="309.01" y1="68.4" x2="309.01" y2="61.2" fill="none" stroke="#000" stroke-miterlimit="10" stroke-width=".75"/>
      <line x1="346.11" y1="67.21" x2="346.11" y2="62.39" fill="none" stroke="#000" stroke-miterlimit="10" stroke-width=".75"/>
      <line x1="383.21" y1="68.4" x2="383.21" y2="61.2" fill="none" stroke="#000" stroke-miterlimit="10" stroke-width=".75"/>
      <line x1="420.31" y1="67.21" x2="420.31" y2="62.39" fill="none" stroke="#000" stroke-miterlimit="10" stroke-width=".75"/>
      <line x1="457.41" y1="68.4" x2="457.41" y2="61.2" fill="none" stroke="#000" stroke-miterlimit="10" stroke-width=".75"/>
    </g>
    <text transform="translate(72.57 56.5)" font-family="OpenSans, &apos;Open Sans&apos;" font-size="12"><tspan x="0" y="0">2002</tspan></text>
    <text transform="translate(146.79 56.5)" font-family="OpenSans, &apos;Open Sans&apos;" font-size="12"><tspan x="0" y="0">2006</tspan></text>
    <text transform="translate(221.01 56.5)" font-family="OpenSans, &apos;Open Sans&apos;" font-size="12"><tspan x="0" y="0">2010</tspan></text>
    <text transform="translate(295.24 56.5)" font-family="OpenSans, &apos;Open Sans&apos;" font-size="12"><tspan x="0" y="0">2014</tspan></text>
    <text transform="translate(369.46 56.5)" font-family="OpenSans, &apos;Open Sans&apos;" font-size="12"><tspan x="0" y="0">2018</tspan></text>
    <text transform="translate(443.69 56.5)" font-family="OpenSans, &apos;Open Sans&apos;" font-size="12"><tspan x="0" y="0">2022</tspan></text>
    <g>
      <text transform="translate(28.8 268.23)" fill="#808285" font-family="OpenSans-Italic, &apos;Open Sans&apos;" font-size="10" font-style="italic" font-variation-settings="&apos;wght&apos; 400, &apos;wdth&apos; 100"><tspan x="0" y="0">-30K</tspan></text>
      <text transform="translate(28.8 242.27)" fill="#808285" font-family="OpenSans-Italic, &apos;Open Sans&apos;" font-size="10" font-style="italic" font-variation-settings="&apos;wght&apos; 400, &apos;wdth&apos; 100"><tspan x="0" y="0">-20K</tspan></text>
      <text transform="translate(28.8 216.3)" fill="#808285" font-family="OpenSans-Italic, &apos;Open Sans&apos;" font-size="10" font-style="italic" font-variation-settings="&apos;wght&apos; 400, &apos;wdth&apos; 100"><tspan x="0" y="0">-10K</tspan></text>
      <text transform="translate(28.8 190.34)" fill="#808285" font-family="OpenSans-Italic, &apos;Open Sans&apos;" font-size="10" font-style="italic" font-variation-settings="&apos;wght&apos; 400, &apos;wdth&apos; 100"><tspan x="0" y="0">0</tspan></text>
      <text transform="translate(28.8 164.37)" fill="#808285" font-family="OpenSans-Italic, &apos;Open Sans&apos;" font-size="10" font-style="italic" font-variation-settings="&apos;wght&apos; 400, &apos;wdth&apos; 100"><tspan x="0" y="0">10K</tspan></text>
      <text transform="translate(28.8 138.41)" fill="#808285" font-family="OpenSans-Italic, &apos;Open Sans&apos;" font-size="10" font-style="italic" font-variation-settings="&apos;wght&apos; 400, &apos;wdth&apos; 100"><tspan x="0" y="0">20K</tspan></text>
      <text transform="translate(28.8 112.44)" fill="#808285" font-family="OpenSans-Italic, &apos;Open Sans&apos;" font-size="10" font-style="italic" font-variation-settings="&apos;wght&apos; 400, &apos;wdth&apos; 100"><tspan x="0" y="0">30K</tspan></text>
      <text transform="translate(28.8 86.48)" fill="#808285" font-family="OpenSans-Italic, &apos;Open Sans&apos;" font-size="10" font-style="italic" font-variation-settings="&apos;wght&apos; 400, &apos;wdth&apos; 100"><tspan x="0" y="0">40K</tspan></text>
    </g>
    <g>
      <line x1="28.8" y1="271.08" x2="475.2" y2="271.08" fill="none" stroke="#000" stroke-dasharray=".25 2" stroke-miterlimit="10" stroke-width=".25"/>
      <line x1="28.8" y1="245.12" x2="475.2" y2="245.12" fill="none" stroke="#000" stroke-dasharray=".25 2" stroke-miterlimit="10" stroke-width=".25"/>
      <line x1="28.8" y1="219.15" x2="475.2" y2="219.15" fill="none" stroke="#000" stroke-dasharray=".25 2" stroke-miterlimit="10" stroke-width=".25"/>
      <line x1="28.8" y1="167.22" x2="475.2" y2="167.22" fill="none" stroke="#000" stroke-dasharray=".25 2" stroke-miterlimit="10" stroke-width=".25"/>
      <line x1="28.8" y1="141.26" x2="475.2" y2="141.26" fill="none" stroke="#000" stroke-dasharray=".25 2" stroke-miterlimit="10" stroke-width=".25"/>
      <line x1="28.8" y1="115.29" x2="475.2" y2="115.29" fill="none" stroke="#000" stroke-dasharray=".25 2" stroke-miterlimit="10" stroke-width=".25"/>
      <line x1="28.8" y1="89.33" x2="475.2" y2="89.33" fill="none" stroke="#000" stroke-dasharray=".25 2" stroke-miterlimit="10" stroke-width=".25"/>
    </g>
    <g>
      <rect x="61.05" y="168.91" width="13.36" height="24.28" fill="#00a28a" stroke="#fff" stroke-miterlimit="10" stroke-width=".5"/>
      <rect x="79.61" y="169.14" width="13.36" height="24.04" fill="#00a28a" stroke="#fff" stroke-miterlimit="10" stroke-width=".5"/>
      <rect x="98.16" y="162.08" width="13.36" height="31.11" fill="#00a28a" stroke="#fff" stroke-miterlimit="10" stroke-width=".5"/>
      <rect x="116.72" y="116.9" width="13.36" height="76.28" fill="#00a28a" stroke="#fff" stroke-miterlimit="10" stroke-width=".5"/>
      <rect x="135.28" y="127.11" width="13.36" height="66.08" fill="#00a28a" stroke="#fff" stroke-miterlimit="10" stroke-width=".5"/>
      <rect x="153.83" y="155.56" width="13.36" height="37.62" fill="#00a28a" stroke="#fff" stroke-miterlimit="10" stroke-width=".5"/>
      <rect x="172.39" y="109.32" width="13.36" height="83.87" fill="#00a28a" stroke="#fff" stroke-miterlimit="10" stroke-width=".5"/>
      <rect x="190.94" y="145.18" width="13.36" height="48.01" fill="#00a28a" stroke="#fff" stroke-miterlimit="10" stroke-width=".5"/>
      <rect x="209.5" y="185.4" width="13.36" height="7.79" fill="#00a28a" stroke="#fff" stroke-miterlimit="10" stroke-width=".5"/>
      <rect x="228.06" y="158.99" width="13.36" height="34.2" fill="#00a28a" stroke="#fff" stroke-miterlimit="10" stroke-width=".5"/>
      <rect x="246.61" y="154.11" width="13.36" height="39.08" fill="#00a28a" stroke="#fff" stroke-miterlimit="10" stroke-width=".5"/>
      <rect x="265.17" y="154.34" width="13.36" height="38.84" fill="#00a28a" stroke="#fff" stroke-miterlimit="10" stroke-width=".5"/>
      <rect x="283.72" y="168.88" width="13.36" height="24.3" fill="#00a28a" stroke="#fff" stroke-miterlimit="10" stroke-width=".5"/>
      <rect x="302.28" y="156.06" width="13.36" height="37.13" fill="#00a28a" stroke="#fff" stroke-miterlimit="10" stroke-width=".5"/>
      <rect x="320.84" y="170.91" width="13.36" height="22.28" fill="#00a28a" stroke="#fff" stroke-miterlimit="10" stroke-width=".5"/>
      <rect x="339.39" y="191.53" width="13.36" height="1.66" fill="#00a28a" stroke="#fff" stroke-miterlimit="10" stroke-width=".5"/>
      <rect x="357.95" y="155.51" width="13.36" height="37.67" fill="#00a28a" stroke="#fff" stroke-miterlimit="10" stroke-width=".5"/>
      <rect x="376.5" y="156.32" width="13.36" height="36.87" fill="#00a28a" stroke="#fff" stroke-miterlimit="10" stroke-width=".5"/>
      <rect x="395.06" y="123.5" width="13.36" height="69.69" fill="#00a28a" stroke="#fff" stroke-miterlimit="10" stroke-width=".5"/>
      <rect x="413.62" y="193.19" width="13.36" height="71.53" fill="#ab2069" stroke="#fff" stroke-miterlimit="10" stroke-width=".5"/>
      <rect x="432.17" y="136.12" width="13.36" height="57.07" fill="#00a28a" stroke="#fff" stroke-miterlimit="10" stroke-width=".5"/>
      <rect x="450.73" y="89.95" width="13.36" height="103.24" fill="#00a28a" stroke="#fff" stroke-miterlimit="10" stroke-width=".5"/>
    </g>
    <line x1="28.8" y1="193.19" x2="475.2" y2="193.19" fill="none" stroke="#000" stroke-miterlimit="10"/>
    <rect x="213.62" y="99.47" width="122.13" height="30.54" fill="#fff"/>
    <rect x="283.72" y="221.62" width="120.4" height="30.54" fill="#fff"/>
    <polygon points="422.4 194.98 420.3 196.03 418.19 194.98 420.3 200.22 422.4 194.98" fill="#fff"/>
    <path id="path37" d="M0,295.2h489.6" fill="none" stroke="#231f20" stroke-miterlimit="3" stroke-width=".57"/>
    <text transform="translate(7.37 304.45)" font-size="8"><tspan x="0" y="0" font-family="OpenSans-Bold, &apos;Open Sans&apos;" font-weight="700">Data Sources:</tspan><tspan x="54.48" y="0" xml:space="preserve" font-family="OpenSans, &apos;Open Sans&apos;"> Longitudinal Employment Analysis Program (2024)</tspan></text>
    <text transform="translate(217.05 110.91)" fill="#00a28a" font-family="OpenSans-BoldItalic, &apos;Open Sans&apos;" font-size="12" font-style="italic" font-weight="700"><tspan x="0" y="0">More small business</tspan><tspan x="5.04" y="14.4">births than deaths</tspan></text>
    <text transform="translate(286.3 233.06)" fill="#ab2069" font-family="OpenSans-BoldItalic, &apos;Open Sans&apos;" font-size="12" font-style="italic" font-weight="700"><tspan x="0" y="0">More small business</tspan><tspan x="5.04" y="14.4">deaths than births</tspan></text>
  </g>
  <g id="Layer_7" data-name="Layer 7">
    <text transform="translate(14.4 28.8)" font-family="TradeGothicLT-Bold, &apos;TradeGothic LT Bold&apos;" font-size="20" font-weight="700"><tspan x="0" y="0">Net Small Business Births Across Canada</tspan></text>
  </g>
</svg>