<?xml version="1.0" encoding="UTF-8"?>
<svg xmlns="http://www.w3.org/2000/svg" width="6.8in" height="3.5in" xmlns:xlink="http://www.w3.org/1999/xlink" viewBox="0 0 489.6 252">
  <defs>
    <clipPath id="clippath">
      <path d="M258.994,123.931v50.14h7.617v-50.14h-7.617ZM260.05,129.887c-.148-1.045.03-1.925.221-2.535.907-.47,1.809-.95,2.724-1.381.057.044.114.086.168.142l.117,1.252c-.062.1-.136.283-.17.367-.145.34-.406.956-.291,1.761.054.38.184.749.389,1.1l.007.103c-.795.456-1.59.907-2.402,1.331-.398-.673-.657-1.391-.763-2.139ZM265.59,167.998c-.037.423-.1.644-.305,1.377l-.363,1.308c-.11.401-.195.704-.271.943l-.068.05c-.437-.41-.935-.732-1.491-.906v.002c.555.178,1.052.499,1.487.907l-.883.647-.323-.092-.012.033-.127.01-.152.003c-.071,0-.143-.002-.213-.008l-.878-.7c-.041-.132-.066-.272-.082-.418l.566-.193-.496-.153c.062-.199.144-.495.241-.852l.369-1.33c.188-.67.2-.719.214-.874.026-.306-.017-.708-.131-1.197l.058-.172h1.178c.548,0,1.082.075,1.597.21.078.512.119.989.082,1.406Z" fill="none"/>
    </clipPath>
  </defs>
  <g id="Layer_12" data-name="Layer 12">
    <rect width="489.6" height="252" fill="#fff"/>
    <rect id="rect75" x="0" y="14.4" width="14.4" height="14.4" fill="#f1c500"/>
    <path id="path37-2" d="M0,.26h489.6" fill="none" stroke="#f1c500" stroke-miterlimit="2.25" stroke-width=".5"/>
    <rect id="rect72" x="0" y="14.4" width="14.4" height="14.4" fill="#f1c500"/>
    <g id="text4" isolation="isolate">
      <g isolation="isolate">
        <g isolation="isolate">
          <g isolation="isolate">
            <text transform="translate(20.959 27.675)" font-family="TradeGothicLT-Bold, &apos;TradeGothic LT Bold&apos;" font-size="17" font-weight="700" isolation="isolate"><tspan x="0" y="0">A framework for growth - PLACEHOLDER</tspan></text>
          </g>
        </g>
      </g>
    </g>
    <path id="path37-2-2" data-name="path37-2" d="M0,251.813h489.6" fill="none" stroke="#f1c500" stroke-miterlimit="2.25" stroke-width=".5"/>
  </g>
  <g id="Layer_16" data-name="Layer 16">
    <path d="M311.017,197.158c-5.447.338-11.093.594-16.469-.465-6.766-1.4-13.386-1.409-20.161-.276-5.531.536-10.632-2.51-16.085-1.816-2.097.282-4.621.238-6.766-.439-1.533-.529-2.423-.902-3.898-1.325-.946-.345-1.649-.407-2.541-1.115-1.199-1.163-1.782-2.879-2.141-4.462-1.422-6.559-.409-13.126-.38-19.746.163-5.353-.016-10.763,2.064-15.971.594-1.368,1.2-2.617,2.085-3.803,1.693-2.847,2.334-6.918,3.17-10.223,1.014-4.825,1.162-10.102,1.237-15.016.325-4.444-1.657-10.544-2.53-14.893-1.339-5.167-1.461-10.874.625-15.844,2.973-7.251,7.232-14.074,13.153-19.189-3.509,3.8-6.376,8.103-8.47,12.759-3.719,7.51-5.219,13.67-2.618,21.634,1.138,4.627,3.353,10.657,3.206,15.423.051,5.232.019,10.664-.933,15.82-.455,2.63-1.134,5.123-1.878,7.718-.398,1.272-.827,2.714-1.84,4.109-.659.883-1.168,1.998-1.593,2.987-2.465,7.033-1.33,14.844-2.098,22.388-.172,3.936-.286,8.054.629,11.872.185.702.404,1.35.882,1.884,0,0-.16-.161-.16-.161-.159-.127-.142-.086-.046-.048.091.042.228.096.37.149,2.109.623,4.498,1.83,6.466,2.135,2.591.399,5.484-.367,8.18.211,2.831.517,5.245,1.488,7.991,1.943,2.677.538,5.061.333,7.809.037,5.669-.449,11.258.461,16.558,1.848,5.287,1.406,10.728,1.646,16.181,1.876h0Z" fill="#6e3732"/>
    <path d="M176.296,194.618c5.022,1.61,10.428,2.294,15.533,1.172,4.842-1.532,10.553-3.099,15.591-4.166,3.521-.784,7.191-1.429,11.026-1.456,1.632-.002,3.897.171,5.54.354,3.177.301,6.48-.15,9.378-1.304,2.921-.972,3.545-3.845,4.114-6.543,2.153-11.641.723-24.201-4.095-35.019-.499-.991-1.497-3.522-2.083-4.256-1.615-1.905-5.446-2.047-8.094-2.264-3.488-.249-6.745-.196-10.227.395-7.498,1.36-15.324-1.226-21.381-5.555-4.466-3.113-8.246-7.398-10.653-12.235,4.172,5.688,9.963,10.141,16.507,12.583,4.829,1.807,9.788,2.467,14.813,1.248,3.54-.835,7.462-1.165,11.123-1.107,2.91.085,6.022.203,8.872,1.486,1.112.515,2.207,1.314,3.001,2.268,1.357,1.704,1.973,3.473,2.91,5.218,3.243,6.747,5.057,14.149,5.616,21.59.373,5.576.144,11.276-1.055,16.784-.493,2.021-.901,4.004-2.093,5.858-3.429,5.435-11.404,6.123-17.161,5.481-5.132-1.051-10.134-.749-15.418.052-5.412.673-10.48,1.696-15.84,2.7-5.521.649-11.053-.797-15.924-3.285h0Z" fill="#6e3732"/>
    <path d="M238.418,152.201l-1.751-5.927c-1.36-4.916-1.882-10.335-1.283-15.441,1.089-6.683,1.241-13.837,1.344-20.626.482-5.88-1.857-11.264-5.061-16.202-2.055-3.422-4.431-6.384-7.404-9.061-5.907-5.477-9.598-13.045-11.189-20.85,1.96,7.625,5.934,14.888,11.995,19.968,3.094,2.501,5.883,5.637,8.09,8.951,3.179,4.424,6.072,9.844,6.211,15.538.079,6.375.669,13.345-.045,19.679-.387,3.779-.432,7.605.246,11.331.519,3.237,2.204,7.803,3.321,10.964,0,0-4.473,1.677-4.473,1.677h0Z" fill="#6e3732"/>
    <path d="M235.591,134.715c-1.254-4.991-3.35-9.762-4.157-14.882-.873-5.164.771-10.272-.231-15.441,1.513,4.906.447,10.209,1.792,15.128,1.324,4.919,3.881,9.416,5.625,14.215,0,0-3.03.981-3.03.981h0Z" fill="#6e3732"/>
    <path d="M259.764,101.388c-2.929,1.617-5.231,4.452-5.523,7.739-.265,3.312-1.153,6.71-2.104,9.915,0,0-2.798,9.672-2.798,9.672-.914,3.111-1.113,6.309-.905,9.512,0,0-3.184.09-3.184.09.042-3.496.567-7.079,1.815-10.334,0,0,3.558-9.434,3.558-9.434,1.209-3.163,2.282-6.19,2.835-9.565.601-3.417,3.213-6.211,6.306-7.594h0Z" fill="#6e3732"/>
    <path d="M193.532,214.653c-.386-6.834,5.112-6.497,8.978-9.806,2.251-2.133,3.369-5.369,5.731-7.577,3.541-3.674,8.524-5.731,13.447-6.633,0,0,.533,3.945.533,3.945-4.441.352-8.847,1.636-12.289,4.513-2.514,1.931-3.847,4.944-6.477,6.908-4.139,2.987-9.692,1.996-9.922,8.651h0Z" fill="#6e3732"/>
    <path d="M185.772,207.976c1.763-3.859,4.931-4.564,8.797-3.92,3.371.371,6.739-.061,9.916-1.186,0,0,.465,1.523.465,1.523-3.399.922-7.039,1.109-10.485.452-3.751-.923-6.693-.455-8.693,3.131h0Z" fill="#6e3732"/>
    <path d="M268.395,124.159c4.783-.663,10.377-.38,14.437,2.764,2.914,2.765,5.69,6.806,8.25,9.911,2.161,2.746,4.223,5.789,7.839,6.602,1.694.458,3.497.522,5.264.303-1.745.349-3.57.426-5.353.085-3.718-.516-6.301-3.599-8.661-6.218,0,0-3.612-3.937-3.612-3.937-2.353-2.389-4.407-5.413-7.744-6.314-3.121-.977-6.567-.756-9.875-.058,0,0-.545-3.138-.545-3.138h0Z" fill="#6e3732"/>
    <path d="M277.809,107.174c2.911-4.023,7.574-7.011,12.603-7.235,3.051.004,5.706.897,7.486-2.345-.378.871-.967,1.683-1.781,2.243-.802.593-1.854.792-2.815.821-1.893.031-3.715.153-5.465.854-3.34,1.306-6.259,3.837-8.022,6.956,0,0-2.007-1.295-2.007-1.295h0Z" fill="#6e3732"/>
    <path d="M274.455,121.648c2.56-6.11.611-13.122-4.28-17.513-1.58-1.48-3.479-2.638-5.552-3.335,8.759,2.565,14.209,12.577,10.941,21.258,0,0-1.109-.41-1.109-.41h0Z" fill="#6e3732"/>
    <path d="M215.811,141.047c-7.84.942-16.213-3.09-19.251-10.515-2.293-5.221-2.165-11.944,1.901-16.253,2.015-2.744,3.517-6.034,4.875-9.131.621-1.574,1.138-3.232.832-4.711-.85-3.571-5.289-3.461-8.158-4.684-6.918-2.237-12.175-7.773-15.631-13.971,3.691,5.939,9.077,11.155,15.934,13.023,2.537.852,5.499.905,7.733,2.691,3.853,3.697.443,9.276-1.136,13.241-.733,1.651-1.58,3.301-2.618,4.831-.992,1.454-1.926,2.569-2.26,4.274-1.412,6.266,2.035,13.383,7.891,16.006,2.816,1.301,6.224,1.712,9.272,1.265,0,0,.617,3.933.617,3.933h0Z" fill="#6e3732"/>
    <path d="M168.048,107.007c2.985-2.296,7.337-4.107,10.906-2.019,1.909,1.331,3.647,2.818,5.755,3.817,2.052,1.121,4.233,1.686,6.455,2.408,4.047,1.405,5.868,5.93,6.151,9.889,0,0-1.589.105-1.589.105-.119-2.933-.951-5.968-3.146-7.872-2.273-1.795-5.773-2.146-8.249-3.831-2.064-1.088-3.82-2.696-5.644-4.098-3.363-2.139-7.644-.493-10.639,1.6h0Z" fill="#6e3732"/>
    <path d="M187.975,111.217c-1.412-2.142-1.617-4.978-.424-7.258.963-2.185,1.212-4.608.85-6.968.27,1.167.414,2.374.373,3.588.102,2.358-1.494,4.628-1.12,6.934.164,1.104.654,2.136,1.317,3.043l-.995.661h0Z" fill="#6e3732"/>
    <path d="M232.93,95.006c2.528-4.378,4.18-9.303,4.626-14.355.299-3.385.578-6.821-.413-10.111-.814-3.3-3.376-6.198-3.179-9.749.105-1.751.894-3.389,1.998-4.698-1.054,1.351-1.764,3.004-1.799,4.708-.043,3.525,2.608,6.266,3.551,9.564,1.54,5.013,1.031,10.46.171,15.551-.713,3.426-1.921,6.754-3.56,9.858l-1.395-.768h0Z" fill="#6e3732"/>
    <path d="M227.6,88.009c-5.778.356-11.845-.919-16.585-4.328-4.646-3.297-9.681-5.981-15.077-7.828,5.479,1.591,10.713,4.079,15.508,7.158,2.381,1.517,4.991,2.555,7.727,3.087,2.729.539,5.537.603,8.305.323l.122,1.588h0Z" fill="#6e3732"/>
    <path d="M232.88,125.177c-2.061-5.95-5.215-9.985-11.788-6.962-5.428,2.036-11.497,1.562-16.849-.427,2.718.833,5.541,1.354,8.366,1.336,2.83.01,5.604-.59,8.21-1.657,4.888-2.418,8.657-1.489,11.602,3.216.792,1.256,1.417,2.59,1.954,3.946,0,0-1.495.549-1.495.549h0Z" fill="#6e3732"/>
    <g>
      <path d="M262.956,132.472c-.33-.298-1.304-1.254-1.521-2.783-.168-1.183.207-2.074.384-2.495.164-.391.358-.836.672-.863.361-.031.75.502.896.992.215.721-.155,1.158-.352,2.303-.086.498-.081.794-.079,1.794.02,10.514-.364,27.288-.008,29.537.06.381.238,1.32,0,2.493-.054.264-.093.403-.678,2.042-.627,1.756-.663,1.941-.681,2.184-.065.873.17,1.545.403,2.212.205.586.636,1.819,1.052,1.787.193-.015.241-.334.756-2.184.312-1.119.365-1.26.397-1.616.063-.706-.079-1.424-.227-1.957-.294-1.06-.742-1.954-1.024-2.467" fill="none" stroke="#000" stroke-linejoin="bevel" stroke-width=".796"/>
      <path d="M265.853,175.794c0,2.229-1.226,4.108-2.898,4.634-1.672-.526-2.914-2.405-2.914-4.634,0-2.246,1.242-4.124,2.914-4.65,1.672.526,2.898,2.405,2.898,4.65Z" fill="none" stroke="#000" stroke-miterlimit="10" stroke-width=".796"/>
      <path d="M265.853,175.794c0,2.229-1.226,4.108-2.898,4.634-1.672-.526-2.914-2.405-2.914-4.634,0-2.246,1.242-4.124,2.914-4.65,1.672.526,2.898,2.405,2.898,4.65Z" fill="none" stroke="#000" stroke-miterlimit="10" stroke-width=".796"/>
      <path d="M262.955,180.427c-.303.112-.637.159-.971.159-2.134,0-3.87-2.15-3.87-4.793,0-2.66,1.736-4.809,3.87-4.809.334,0,.669.048.971.159-1.672.526-2.914,2.405-2.914,4.65,0,2.229,1.242,4.108,2.914,4.634Z" fill="none" stroke="#000" stroke-linejoin="bevel" stroke-width=".796"/>
      <path d="M265.853,175.794c0,2.229-1.226,4.108-2.898,4.634-1.672-.526-2.914-2.405-2.914-4.634,0-2.246,1.242-4.124,2.914-4.65,1.672.526,2.898,2.405,2.898,4.65Z" fill="none" stroke="#000" stroke-miterlimit="10" stroke-width=".796"/>
      <path d="M240.346,228.673c-.785-3.232-1.248-6.57-1.195-9.953-.052-3.272.946-6.666.988-9.853.009-3.365-1.25-5.913-2.772-8.999-1.386-2.86-.14-6.293,2.05-8.245.608-.736,1.084-1.517,1.234-2.453.397-4.97-.385-13.217-.581-18.303-.174-4.162-.516-8.487-.174-12.758.162-1.755.423-2.887.263-4.579-.057-1.281-.383-2.53-.343-3.96.007-1.657.844-3.429,1.827-4.628.787-1.162,1.629-2.754,2.226-3.985.509-1.049.506-1.614.608-2.846.074-1.298.889-2.883,1.952-3.707.923-.773,2.456-1.598,3.416-2.223,1.813-1.107,3.954-2.505,6.069-3.044,2.728-.666,5.104-2.314,7.643-3.429,4.351-1.765,8.879-3.7,12.114-7.15,2.05-2.145,2.167-5.29,2.056-8.244-.428-6.654.481-13.557,2.584-19.885-.942,6.621-1.083,13.176-.022,19.685.483,3.514.508,7.712-2.044,10.667-3.425,4.132-8.081,6.656-12.876,8.747-2.333,1.145-4.362,2.637-6.829,3.527-1.168.432-2.19.694-3.271,1.253-.482.244-2.43,1.483-2.964,1.818-1.293.829-3.241,1.994-3.05,2.132-.153.427-.068.932-.174,1.619-.16,1.952-1.221,3.847-2.129,5.44-.577,1.056-1.36,2.253-2.119,3.255-.113.17-.162.321-.231.538-.145.496-.162.751-.081,1.542.204,1.714.397,3.601.213,5.439-1.261,8.15-.209,16.353-.348,24.609-.027,3.007.064,6.024-.403,9.037-.071.458-.303,1.154-.514,1.574-.543,1.553-2.36,2.963-3.206,4.05-.636,1.027-.854,2.293-.372,3.527,1.303,2.894,2.612,6.664,2.232,10.059-.316,3.455-1.553,6.456-1.869,9.845-.346,3.249-.31,6.582.089,9.882h0Z" fill="#6e3732"/>
      <path d="M265.853,175.794c0,2.229-1.226,4.108-2.898,4.634-1.672-.526-2.914-2.405-2.914-4.634,0-2.246,1.242-4.124,2.914-4.65,1.672.526,2.898,2.405,2.898,4.65Z" fill="#fff" stroke="#000" stroke-miterlimit="10" stroke-width=".796"/>
      <path d="M271.156,175.794c0,4.968-3.233,8.997-7.245,8.997h-1.927c.334,0,.653-.032.971-.08,3.551-.589,6.29-4.363,6.29-8.917s-2.739-8.344-6.29-8.933c-.318-.048-.637-.08-.971-.08h1.927c4.013,0,7.245,4.029,7.245,9.013Z" fill="#fff" stroke="#000" stroke-miterlimit="10" stroke-width=".796"/>
      <path d="M262.955,166.86c-.318-.048-.637-.08-.971-.08-3.997,0-7.245,4.029-7.245,9.013s3.248,8.997,7.245,8.997c.334,0,.653-.032.971-.08,3.551-.589,6.29-4.363,6.29-8.917s-2.739-8.344-6.29-8.933ZM262.955,180.427c-.303.112-.637.159-.971.159-2.134,0-3.87-2.15-3.87-4.793,0-2.66,1.736-4.809,3.87-4.809.334,0,.669.048.971.159,1.672.526,2.898,2.405,2.898,4.65,0,2.229-1.226,4.108-2.898,4.634Z" fill="#fff" stroke="#000" stroke-miterlimit="10" stroke-width=".796"/>
      <g clip-path="url(#clippath)">
        <path d="M262.956,132.472c-.33-.298-1.304-1.254-1.521-2.783-.168-1.183.207-2.074.384-2.495.164-.391.358-.836.672-.863.361-.031.75.502.896.992.215.721-.155,1.158-.352,2.303-.086.498-.081.794-.079,1.794.02,10.514-.364,27.288-.008,29.537.06.381.238,1.32,0,2.493-.054.264-.093.403-.678,2.042-.627,1.756-.663,1.941-.681,2.184-.065.873.17,1.545.403,2.212.205.586.636,1.819,1.052,1.787.193-.015.241-.334.756-2.184.312-1.119.365-1.26.397-1.616.063-.706-.079-1.424-.227-1.957-.294-1.06-.742-1.954-1.024-2.467" fill="none" stroke="#000" stroke-linejoin="bevel" stroke-width=".796"/>
      </g>
    </g>
    <g>
      <path d="M219.222,117.102c0,.043.004.12.044.205.015.033.054.113.142.178.026.019.123.087.255.082.165-.006.272-.123.32-.175.158-.172.165-.385.164-.452" fill="#231f20" stroke="#fff" stroke-miterlimit="10" stroke-width=".016"/>
      <path d="M217.449,117.425c-.016-.017-.007-.08.011-.206.003-.023.012-.082-.014-.144,0-.001-.001-.003-.002-.004-.033-.073-.099-.098-.09-.117.008-.017.067-.004.088,0,.04.008.115.026.186.091.033.03.155.141.121.253-.038.129-.254.177-.3.126Z" fill="#231f20" stroke="#fff" stroke-miterlimit="10" stroke-width=".016"/>
      <path d="M217.574,118.166c-.042.047-.085.104-.178.195-.094.092-.142.138-.205.153-.058.014-.109.004-.133.041-.014.022-.016.056,0,.072.016.016.048.015.142-.02.135-.049.231-.106.245-.114.081-.048.102-.067.143-.093,0,0,.018-.011.039-.023.066-.038.204-.086.226-.095.15-.059.238-.325.184-.374-.056-.051-.307.085-.462.257Z" fill="#231f20" stroke="#fff" stroke-miterlimit="10" stroke-width=".016"/>
      <path d="M220.045,117.312c-.037.133-.018.209.01.256.013.021.031.042.023.057-.014.025-.1.026-.146-.023-.032-.034-.04-.087-.022-.137" fill="#6e3732" stroke="#fff" stroke-miterlimit="10" stroke-width=".016"/>
      <path d="M220.148,116.987c-.002.02-.006.049-.008.085-.006.085-.01.128-.003.172.007.049.021.082.047.142.024.059.038.074.049.085.033.031.088.054.11.036.018-.015.006-.052-.003-.099-.006-.033-.004-.126,0-.312.002-.067-.006-.136.003-.203.006-.049.016-.088-.005-.107-.026-.023-.068.013-.106-.01-.028-.017-.026-.046-.048-.111-.036-.107-.072-.116-.063-.145.022-.071.255-.079.426-.058.161.019.212.058.295.019.082-.038.073-.094.169-.14.098-.046.141-.005.223-.053.075-.044.066-.096.131-.165.073-.078.171-.097.363-.131.174-.031.309-.033.406-.034.178-.002.307.013.44.029.083.01.114.016.145.024.145.038.164.088.271.116.025.006.045.009.29-.01.14-.011.276-.023.276-.034,0-.012-.154.021-.271-.068-.021-.016-.015-.017-.116-.155-.093-.128-.118-.155-.16-.227-.034-.059-.036-.075-.063-.126,0,0-.072-.137-.203-.271-.104-.105-.422-.37-.827-.334-.14.013-.24.057-.397.126-.059.026-.24.109-.46.281-.157.122-.272.251-.503.508-.131.146-.295.267-.397.435-.041.069-.1.179-.189.184-.058.003-.077-.042-.184-.063-.085-.017-.156-.005-.179,0-.091.018-.087.044-.174.058-.08.013-.102-.007-.14.019-.042.029-.042.07-.087.087-.031.012-.058.002-.073,0-.097-.016-.232.175-.402.435-.117.18-.18.286-.295.31-.032.007-.051.003-.087.019-.108.047-.099.147-.194.203-.089.053-.212.032-.223,0-.006-.017.023-.032.058-.092.022-.038.032-.069.044-.107,0,0,.002-.006.004-.012.016-.051.095-.356.016-.399-.013-.007-.035-.009-.036-.009-.028-.002-.051.007-.068.015-.083.039-.128.091-.128.091-.108.124-.137.308-.198.343-.056.032-.069,0-.189.034-.068.019-.169.047-.247.126-.047.048-.073.154-.126.366-.023.094-.039.173,0,.205.026.022.06.008.088.039.028.032.008.065.029.092.03.038.108.02.208,0,.269-.054.237-.034.285-.053.191-.074.278-.219.305-.198.005.004.011.017-.039.14-.053.131-.079.196-.131.271-.079.114-.122.177-.203.208-.127.047-.234-.026-.271.029-.023.034-.002.09.019.121.006.009.032.044.102.063.105.028.201-.011.3-.053.135-.058.222-.128.242-.145.087-.072.093-.104.194-.213.059-.064.153-.166.288-.256.102-.069.189-.105.346-.169.163-.067.186-.064.266-.102.063-.029.177-.097.384-.318" fill="#231f20" stroke="#fff" stroke-miterlimit="10" stroke-width=".016"/>
    </g>
    <path d="M238.591,196.466c-.013,4.4-4.102,7.774-8.41,6.857-1.309-.203-2.302-1.199-3.44-1.652-1.08-.404-2.294-.468-3.419-.083-3.407,1.465-7.223,2.414-10.956,1.984,2.49.084,4.992-.272,7.313-1.102,3.265-1.348,5.655-3.023,9.099-.75,3.765,2.011,8.376-1.025,8.123-5.262,0,0,1.69.008,1.69.008h0Z" fill="#6e3732"/>
    <path d="M231.431,202.698c.391,2.03-.015,5.076-2.644,5.184-1.88.193-3.356,1.237-4.709,2.557-.931.844-1.783,1.773-2.536,2.791,1.376-2.148,2.902-4.293,5.176-5.622.894-.658,2.53-.514,3.105-1.429.485-.803.328-2.049.045-3.171l1.562-.31h0Z" fill="#6e3732"/>
    <path d="M226.607,208.546c-1.256.182-3.871.902-4.296-.84-.034-.801.17-1.456.076-2.233-.056-.727-.236-1.448-.521-2.13.756,1.266.831,2.916.837,4.296.42,1.2,2.746.369,3.706.136,0,0,.197.771.197.771h0Z" fill="#6e3732"/>
    <path d="M208.895,199.347c-1.529,4.536-.075,9.431,2.993,13.027,1.476,1.964,3.635,3.137,5.271,4.976,1.615,1.969,1.622,4.751.795,7.035.684-2.26.55-4.982-1.097-6.776-1.692-1.692-3.994-2.828-5.571-4.715-3.484-3.62-5.327-8.999-3.923-13.978,0,0,1.533.431,1.533.431h0Z" fill="#6e3732"/>
    <path d="M240.354,213.622c-4.968-1.703-10.049,1.826-10.44,7.048-.089,2.518.92,5.103,1.077,7.654.272,2.609.206,5.242-.155,7.823.23-2.596.159-5.213-.24-7.773-.306-2.647-1.437-5.023-1.478-7.737.113-2.733,1.386-5.421,3.636-7.136,2.266-1.719,5.327-2.11,8.043-1.408l-.443,1.53h0Z" fill="#6e3732"/>
    <path d="M230.05,222.795c-2.012,5.195-8.483,7.525-13.376,4.955,1.203.513,2.502.789,3.796.821,3.892.195,7.569-2.429,8.838-6.065,0,0,.742.289.742.289h0Z" fill="#6e3732"/>
    <path d="M240.707,215.5c1.596,3.132,4.047,5.714,7.032,7.605,3.78,2.103,5.26,5.003,3.712,9.174,1.182-4.141-.313-6.728-4.128-8.495-3.239-1.723-6.087-4.327-8.001-7.497,0,0,1.385-.786,1.385-.786h0Z" fill="#6e3732"/>
    <path d="M260.332,191.427c6.152,1.88,11.814,5.004,16.81,9.019,2.564,1.981,4.69,4.917,5.207,8.209.193,1.093.176,2.177.241,3.171.054,4.261,3.999,6.886,7.712,8.118,1.943.693,3.979,1.135,6.026,1.482-4.131-.471-8.45-1.188-11.839-3.841-1.724-1.337-2.89-3.469-3.088-5.64-.198-2.068-.421-3.939-1.482-5.712-.949-1.71-2.34-3.059-3.984-4.204-4.958-3.492-10.556-6.141-16.453-7.533-2.078-.56-1.25-3.657.85-3.069h0Z" fill="#6e3732"/>
    <path d="M245.535,190.588c-1.096,7.144,3.597,9.82,9.603,11.629,1.513.464,3.266.418,4.636,1.428,1.468,1.014,2.228,2.615,2.668,4.138.855,3.112.735,6.282.513,9.382-.036-3.1-.209-6.278-1.267-9.129-.778-2.117-2.232-3.846-4.533-3.959-2.363-.152-4.804-.849-6.995-1.653-5.37-1.565-8.287-6.699-7.793-12.17.198-2.186,3.427-1.855,3.168.332h0Z" fill="#6e3732"/>
    <path d="M259.599,203.534c2.526,1.914,5.58,2.981,8.777,2.933,3.307-.167,6.557,1.38,8.6,3.959-1.11-1.173-2.434-2.151-3.916-2.744-3.069-1.314-6.442-.018-9.604-1.088-1.612-.44-3.14-1.17-4.54-2.08-.277-.18-.355-.55-.175-.827.186-.288.583-.359.857-.154h0Z" fill="#6e3732"/>
    <path d="M251.151,201.532c-1.837,6.914.236,14.647,5.32,19.741,2.478,2.864,6.383,3.653,9.019,6.376,2.642,2.764,3.692,6.627,3.755,10.352-.255-3.642-1.476-7.395-4.177-9.929-1.297-1.281-2.97-1.99-4.672-2.782-5.247-2.407-9.118-7.282-10.929-12.745-1.207-3.686-1.407-7.7-.647-11.536l2.33.524h0Z" fill="#6e3732"/>
    <path d="M258.882,223.808c1.326-1.887,3.207-3.886,5.737-4.144,1.436.039,2.715.391,4.089.653,2.561.342,5.285,1.893,7.697.426.757-.449,1.404-1.085,1.946-1.793-.968,1.496-2.533,2.846-4.428,2.821-3.123-.157-6.139-1.025-9.234-1.015-1.997.41-3.415,2.155-4.467,3.912,0,0-1.34-.86-1.34-.86h0Z" fill="#6e3732"/>
    <path d="M291.749,195.013c1.504,2.838,2.454,6.861-.14,9.404-.441.479-.887.893-1.05,1.375-.35,1.01.356,2.19,1.206,3.008,1.77,1.707,4.273,2.619,6.784,2.436l1.9-.092c2.369-.233,3.479,1.566,3.112,3.747.256-2.127-.791-3.834-3.104-3.523-1.857.175-3.914.424-5.723-.212-2.303-.811-5.468-2.719-4.886-5.594.487-1.326,1.65-1.915,2.082-3.172.882-2.268-.126-4.771-1.238-6.818,0,0,1.056-.559,1.056-.559h0Z" fill="#6e3732"/>
    <path d="M242.41,144.702c-4.654-.162-5.123,3.955-11.772,5.297-5.025,1.014-6.607-.964-9.25.942-2.518,1.814-2.189,4.406-5.576,6.71-1.588,1.08-3.06,1.463-4.103,1.724-4.712,1.18-9.111-.176-12.785-1.598-9.934-3.846-15.007-5.81-19.976-11.453-2.545-2.89-9.15-10.391-8.257-19.443.724-7.337,6.033-12.248,4.262-14.117-1.499-1.582-5.369,1.867-10.121,0-2.37-.931-5.01-3.204-5.327-6.126-.414-3.817,3.348-6.791,4.528-7.724,4.566-3.61,7.725-1.692,9.855-4.261,3.626-4.376-3.776-12.069-.533-17.313,2.676-4.328,8.625-.556,15.981-5.06,7.653-4.687,5.409-11.339,14.915-18.112,2.989-2.13,6.315-4.499,10.654-4.262,5.825.318,7.659,5.016,12.252,4.262,4.213-.692,3.976-4.859,9.322-6.925,4.006-1.548,9.072-1.115,12.785,1.065,5.518,3.241,4.514,8.268,8.789,9.589,4.162,1.286,6.033-3.193,13.85-4.262,1.581-.216,8.425-1.152,13.584,2.663,3.807,2.816,2.559,5.158,6.392,9.589,6.171,7.132,14.056,6.435,14.383,10.121.352,3.968-8.636,6.414-7.99,9.855.576,3.071,7.931,2.169,11.453,7.724.216.341,2.103,3.41,1.598,7.191-.985,7.375-9.897,8.687-10.654,15.182-.258,2.213.893,4.227,3.196,8.257,6.64,11.619,13.015,12.886,12.785,18.112-.215,4.884-6.034,9.411-10.121,11.187-4.289,1.863-7.159.909-9.589,3.729-2.537,2.944-1.165,6.024-3.463,7.191-2.378,1.208-6.374-.808-8.523-3.196-1.552-1.724-1.077-2.46-2.397-3.463-2.665-2.024-5.45.333-9.322-.799-3.172-.928-2.064-4.15-6.659-7.724-1.342-1.044-3.411-2.653-6.273-2.904-3.748-.329-4.603,2.045-8.259,2.159-4.662.146-5.183-3.652-9.634-3.807Z" fill="#dc4732" opacity=".2" stroke="#dc4732" stroke-miterlimit="10" stroke-width="2.157"/>
    <g>
      <path d="M200.686,101.842c-3.466,1.091-3.26,2.833-6.329,3.717-3.979,1.146-5.793-1.36-8.703,0-2.338,1.093-3.224,3.673-4.22,6.568-1.262,3.671-1.237,6.403-1.319,11.868-.177,11.906-.48,11.43-.16,12.395,3.189,9.61,19.141,14.38,22.049,11.076.838-.953.032-1.94,0-7.12-.016-2.573-.039-6.313.887-9.494,1.352-4.648,3.67-4.46,8.079-11.076,3.189-4.785,5.825-8.74,4.483-12.395-1.393-3.795-6.33-5.232-7.384-5.538-.836-.243-3.908-1.094-7.384,0Z" fill="#dc4732" opacity=".26"/>
      <path d="M217.827,62.283c-7.728-.414-13.522,4.155-16.614,6.593-4.089,3.224-9.883,7.793-9.23,13.45.41,3.559,3.334,7.214,5.831,7.12,2.75-.103,3.323-4.69,7.044-5.274,2.682-.421,3.675,1.759,5.849,1.055,2.678-.866,1.897-4.406,5.105-6.857,2.876-2.198,4.869-.396,7.817-2.505,2.839-2.03,4.882-6.483,3.428-9.627-1.641-3.549-7.002-3.836-9.23-3.956Z" fill="#dc4732" opacity=".26"/>
      <path d="M299.581,92.084c-2.177-2.207-5.891-1.701-8.703-1.319-1.416.193-6.667.983-10.813,5.274-3.213,3.326-2.015,4.877-5.011,7.912-4.592,4.653-10.037,3.673-10.413,6.066-.362,2.303,4.683,3.213,9.094,8.703,3.3,4.106,4.365,8.434,5.274,12.131,1.76,7.151.361,9.904,3.091,16.35,1.369,3.233,2.142,5.056,4.029,5.802,3.515,1.389,5.98-2.902,13.45-3.692,3.938-.416,5.437.545,6.857-.803,2.042-1.938,1.63-6.479,0-9.746-2.952-5.918-8.372-4.593-13.714-11.076-1.735-2.106-5.33-6.469-4.483-11.076,1.12-6.094,8.795-6.002,11.867-13.977.159-.413,2.708-7.268-.527-10.549Z" fill="#dc4732" opacity=".26"/>
      <path d="M259.759,62.257c-2.804.504-5.523.992-8.439,0-3.711-1.262-4.354-3.769-6.329-3.402-2.086.388-3.664,3.61-3.692,6.329-.049,4.688,4.493,9.212,9.23,10.668,1.721.529,2.715.422,15.56-1.174,4.747-.59,7.95-.991,8.175-.264.325,1.047-5.867,3.345-5.538,4.483.247.854,3.848-.047,8.967,0,9.333.085,13.014,3.222,16.878.567.312-.214,2.513-1.767,2.373-3.612-.171-2.26-3.794-4.158-6.857-4.603-3.063-.444-4.869.667-5.538-.264-.868-1.208,2.028-3.292,1.672-6.066-.403-3.139-4.74-5.358-7.738-6.103-3.942-.98-7.551.096-12.659,1.62-2.966.884-3.503,1.359-6.066,1.82Z" fill="#dc4732" opacity=".26"/>
    </g>
    <text transform="translate(361.601 126.285)" font-family="OpenSans-Italic, &apos;Open Sans&apos;" font-size="12" font-style="italic" font-variation-settings="&apos;wght&apos; 400, &apos;wdth&apos; 100"><tspan x="0" y="0">Scaling deep</tspan></text>
    <text transform="translate(361.602 110.565)" font-family="OpenSans-Italic, &apos;Open Sans&apos;" font-size="12" font-style="italic" font-variation-settings="&apos;wght&apos; 400, &apos;wdth&apos; 100"><tspan x="0" y="0">Scaling out</tspan></text>
    <text transform="translate(361.602 94.844)" font-family="OpenSans-Italic, &apos;Open Sans&apos;" font-size="12" font-style="italic" font-variation-settings="&apos;wght&apos; 400, &apos;wdth&apos; 100"><tspan x="0" y="0">Scaling up</tspan></text>
  </g>
</svg>