<?xml version="1.0" encoding="UTF-8" standalone="no"?>
<svg
   width="6.8000002in"
   height="4.5in"
   viewBox="0 0 489.6 323.99999"
   version="1.1"
   id="svg30"
   sodipodi:docname="housing_typology-tree-map.svg"
   inkscape:version="1.4.2 (1:1.4.2+202505120738+ebf0e940d0)"
   inkscape:export-filename="housing_typology-tree-map.png"
   inkscape:export-xdpi="300"
   inkscape:export-ydpi="300"
   xmlns:inkscape="http://www.inkscape.org/namespaces/inkscape"
   xmlns:sodipodi="http://sodipodi.sourceforge.net/DTD/sodipodi-0.dtd"
   xmlns="http://www.w3.org/2000/svg"
   xmlns:svg="http://www.w3.org/2000/svg">
  <defs
     id="defs30" />
  <sodipodi:namedview
     id="namedview30"
     pagecolor="#ffffff"
     bordercolor="#666666"
     borderopacity="1.0"
     inkscape:showpageshadow="2"
     inkscape:pageopacity="0.0"
     inkscape:pagecheckerboard="0"
     inkscape:deskcolor="#d1d1d1"
     inkscape:document-units="in"
     showgrid="false"
     inkscape:zoom="0.8407738"
     inkscape:cx="160.56637"
     inkscape:cy="192.67965"
     inkscape:window-width="2560"
     inkscape:window-height="1403"
     inkscape:window-x="0"
     inkscape:window-y="0"
     inkscape:window-maximized="1"
     inkscape:current-layer="svg30">
    <inkscape:grid
       id="grid30"
       units="in"
       originx="0"
       originy="0"
       spacingx="7.1999995"
       spacingy="7.1999995"
       empcolor="#0099e5"
       empopacity="0.30196078"
       color="#0099e5"
       opacity="0.14901961"
       empspacing="5"
       enabled="true"
       visible="false" />
  </sodipodi:namedview>
  <rect
     style="fill:#ffffff;fill-opacity:1;fill-rule:evenodd;stroke:none;stroke-width:1.37989;stroke-linecap:round;stroke-dasharray:2.75977, 1.37989;paint-order:markers fill stroke"
     id="rect31"
     width="489.60001"
     height="323.49997"
     x="0"
     y="0.49999997" />
  <g
     id="Layer_6"
     data-name="Layer 6"
     transform="matrix(0.89439702,0,0,0.89439702,2.2238931,4.7047181)">
    <path
       d="m 23.374,314.41 h 221.138 c 1.278,0 2.315,-0.967 2.315,-2.16 V 46.711 c 0,-1.193 -1.036,-2.16 -2.315,-2.16 H 23.374 c -1.278,0 -2.315,0.967 -2.315,2.16 v 265.538 c 0,1.193 1.036,2.16 2.315,2.16 z"
       fill="#ab2069"
       isolation="isolate"
       stroke="#ffffff"
       stroke-miterlimit="10"
       stroke-width="1.035"
       id="path1"
       style="fill:#dc4732;fill-opacity:0.901961" />
    <path
       d="m 249.141,113.679 h 174.068 c 1.278,0 2.315,-0.967 2.315,-2.16 V 46.711 c 0,-1.193 -1.036,-2.16 -2.315,-2.16 H 249.141 c -1.278,0 -2.315,0.967 -2.315,2.16 v 64.808 c 0,1.193 1.036,2.16 2.315,2.16 z"
       fill="#056c8a"
       isolation="isolate"
       stroke="#ffffff"
       stroke-miterlimit="10"
       stroke-width="1.035"
       id="path2" />
    <path
       d="m 249.141,314.41 h 83.492 c 1.278,0 2.315,-0.967 2.315,-2.16 v -61.246 c 0,-1.193 -1.036,-2.16 -2.315,-2.16 h -83.492 c -1.278,0 -2.315,0.967 -2.315,2.16 v 61.246 c 0,1.193 1.036,2.16 2.315,2.16 z"
       fill="#00a28a"
       isolation="isolate"
       opacity="0.9"
       stroke="#ffffff"
       stroke-miterlimit="10"
       stroke-width="1.035"
       id="path3"
       style="fill:#ab2069;fill-opacity:1" />
    <path
       d="M 337.262,314.41 H 448.32 c 1.278,0 2.315,-0.967 2.315,-2.16 v -61.246 c 0,-1.193 -1.036,-2.16 -2.315,-2.16 H 337.262 c -1.278,0 -2.315,0.967 -2.315,2.16 v 61.246 c 0,1.193 1.036,2.16 2.315,2.16 z"
       fill="#dc4732"
       isolation="isolate"
       opacity="0.9"
       stroke="#ffffff"
       stroke-miterlimit="10"
       stroke-width="1.035"
       id="path4"
       style="fill:#00a289;fill-opacity:0.901961" />
    <path
       d="M 249.141,248.843 H 448.32 c 1.278,0 2.315,-0.967 2.315,-2.16 v -26.874 c 0,-1.193 -1.036,-2.16 -2.315,-2.16 H 249.141 c -1.278,0 -2.315,0.967 -2.315,2.16 v 26.874 c 0,1.193 1.036,2.16 2.315,2.16 z"
       fill="#0792bc"
       isolation="isolate"
       opacity="0.9"
       stroke="#ffffff"
       stroke-miterlimit="10"
       stroke-width="1.035"
       id="path5" />
    <path
       d="M 249.141,217.649 H 448.32 c 1.278,0 2.315,-0.967 2.315,-2.16 v -99.65 c 0,-1.193 -1.036,-2.16 -2.315,-2.16 H 249.141 c -1.278,0 -2.315,0.967 -2.315,2.16 v 99.65 c 0,1.193 1.036,2.16 2.315,2.16 z"
       fill="#067fa3"
       isolation="isolate"
       stroke="#ffffff"
       stroke-miterlimit="10"
       stroke-width="1.035"
       id="path6" />
    <path
       d="m 427.838,113.679 h 20.482 c 1.278,0 2.315,-0.967 2.315,-2.16 v -6.43 c 0,-1.193 -1.036,-2.16 -2.315,-2.16 h -20.482 c -1.278,0 -2.315,0.967 -2.315,2.16 v 6.43 c 0,1.193 1.036,2.16 2.315,2.16 z"
       fill="#efc419"
       isolation="isolate"
       opacity="0.9"
       stroke="#ffffff"
       stroke-miterlimit="10"
       stroke-width="1.035"
       id="path7" />
    <path
       d="m 427.838,102.929 h 20.482 c 1.278,0 2.315,-0.967 2.315,-2.16 V 46.711 c 0,-1.193 -1.036,-2.16 -2.315,-2.16 h -20.482 c -1.278,0 -2.315,0.967 -2.315,2.16 v 54.058 c 0,1.193 1.036,2.16 2.315,2.16 z"
       fill="#999999"
       isolation="isolate"
       opacity="0.9"
       stroke="#ffffff"
       stroke-miterlimit="10"
       stroke-width="1.035"
       id="path8" />
  </g>
  <g
     id="Layer_1"
     data-name="Layer 1">
    <g
       id="text49"
       isolation="isolate">
      <text
         transform="rotate(0.17,-9336.776,7103.709)"
         font-family="TradeGothicLT-Bold, 'TradeGothic LT Bold'"
         font-size="17px"
         font-weight="700"
         isolation="isolate"
         id="text8"><tspan
           x="0"
           y="0"
           id="tspan8">Distribution of types of housing across Canada in 2021</tspan></text>
    </g>
    <g
       id="text51"
       isolation="isolate"
       transform="translate(0,-28.516032)">
      <text
         transform="translate(21.6,338.116)"
         fill="#999999"
         font-family="OpenSans, 'Open Sans'"
         font-size="8px"
         isolation="isolate"
         id="text9"><tspan
           x="0"
           y="0"
           id="tspan9">Data source: Statistics Canada (2021) Census</tspan></text>
    </g>
    <rect
       id="rect72"
       x="0"
       y="14.4"
       width="14.4"
       height="14.4"
       fill="#f1c500" />
    <path
       id="path37"
       d="M 0,323.74997 H 489.6"
       fill="none"
       stroke="#f1c500"
       stroke-miterlimit="2.25"
       stroke-width="0.5" />
    <path
       id="path37-2"
       d="M 0,0.5 H 489.6"
       fill="none"
       stroke="#f1c500"
       stroke-miterlimit="2.25"
       stroke-width="0.5" />
    <text
       fill="#ffffff"
       font-family="OpenSans-Bold, 'Open Sans'"
       font-size="8.94397px"
       font-weight="700"
       id="text10"
       x="71.784729"
       y="149.05504"
       style="stroke-width:0.894397"><tspan
         x="71.784729"
         y="149.05504"
         id="tspan10"
         style="stroke-width:0.894397">Single-detached house</tspan></text>
    <text
       fill="#ffffff"
       font-family="OpenSans-Bold, 'Open Sans'"
       font-size="12.546px"
       font-weight="700"
       id="text11"
       x="249.79953"
       y="59.300274"
       style="font-size:8.94397px;stroke-width:0.894397"><tspan
         x="249.79953"
         y="59.300274"
         id="tspan11"
         style="font-size:8.94397px;stroke-width:0.894397">Apartment in a building</tspan></text>
    <text
       fill="#999999"
       font-family="OpenSans-Bold, 'Open Sans'"
       font-size="8.94397px"
       font-weight="700"
       isolation="isolate"
       opacity="0.9"
       id="text13"
       x="407.62265"
       y="51.962761"
       style="stroke-width:0.894397"><tspan
         x="407.62265"
         y="51.962761"
         id="tspan12"
         style="stroke-width:0.894397">Movable</tspan><tspan
         x="407.83017"
         y="62.695511"
         id="tspan13"
         style="stroke-width:0.894397">dwelling</tspan></text>
    <text
       fill="#ffffff"
       font-family="OpenSans-Bold, 'Open Sans'"
       font-size="8.94397px"
       font-weight="700"
       id="text15"
       x="244.2361"
       y="211.47142"
       style="stroke-width:0.894397"><tspan
         x="244.2361"
         y="211.47142"
         id="tspan14"
         style="stroke-width:0.894397">Apartment or flat</tspan><tspan
         x="273.91934"
         y="222.20419"
         id="tspan15"
         style="stroke-width:0.894397">in a duplex</tspan></text>
    <text
       fill="#ffffff"
       font-family="OpenSans-Bold, 'Open Sans'"
       font-size="8.94397px"
       font-weight="700"
       id="text17"
       x="229.26747"
       y="242.97566"
       style="stroke-width:0.894397"><tspan
         x="229.26747"
         y="242.97566"
         id="tspan16"
         style="stroke-width:0.894397">Semi-detached</tspan><tspan
         x="248.88071"
         y="253.70844"
         id="tspan17"
         style="stroke-width:0.894397">house</tspan></text>
    <text
       fill="#ffffff"
       font-family="OpenSans-Bold, 'Open Sans'"
       font-size="34.462px"
       font-weight="700"
       id="text18"
       x="72.0289"
       y="181.40805"
       style="stroke-width:0.894397"><tspan
         x="72.0289"
         y="181.40805"
         id="tspan18"
         style="stroke-width:0.894397">52.6%</tspan></text>
    <text
       fill="#ffffff"
       font-family="OpenSans-Bold, 'Open Sans'"
       font-size="35.217px"
       font-weight="700"
       id="text19"
       x="266.25024"
       y="93.623642"
       style="font-size:25.0431px;stroke-width:0.894397"><tspan
         x="266.25024"
         y="93.623642"
         id="tspan19"
         style="font-size:25.0431px;stroke-width:0.894397">11.0%</tspan></text>
    <text
       fill="#ffffff"
       font-family="OpenSans-Bold, 'Open Sans'"
       font-size="8.29285px"
       font-weight="700"
       id="text20"
       x="384.38095"
       y="52.519184"
       style="stroke-width:0.894397"><tspan
         x="384.38095"
         y="52.519184"
         id="tspan20"
         style="stroke-width:0.894397">1.3%</tspan></text>
    <text
       fill="#ffffff"
       font-family="OpenSans-Bold, 'Open Sans'"
       font-size="8.29285px"
       font-weight="700"
       id="text21"
       x="384.38095"
       y="104.59277"
       style="stroke-width:0.894397"><tspan
         x="384.38095"
         y="104.59277"
         id="tspan21"
         style="stroke-width:0.894397">0.2%</tspan></text>
    <text
       fill="#ffffff"
       font-family="OpenSans-Bold, 'Open Sans'"
       font-size="23.715px"
       font-weight="700"
       id="text22"
       x="243.319"
       y="272.18207"
       style="font-size:18.7823px;stroke-width:0.894397"><tspan
         x="243.319"
         y="272.18207"
         id="tspan22"
         style="font-size:18.7823px;stroke-width:0.894397">5.0%</tspan></text>
    <text
       fill="#ffffff"
       font-family="OpenSans-Bold, 'Open Sans'"
       font-size="27.189"
       font-weight="700"
       id="text23"
       style="font-size:20.5711px;stroke-width:0.894397"
       x="329.05893"
       y="221.80284"><tspan
         x="329.05893"
         y="221.80284"
         id="tspan23"
         style="font-size:20.5711px;stroke-width:0.894397">5.5%</tspan></text>
    <text
       fill="#ffffff"
       font-family="OpenSans-Bold, 'Open Sans'"
       font-size="8.94397px"
       font-weight="700"
       id="text24"
       x="329.31204"
       y="249.41533"
       style="stroke-width:0.894397"><tspan
         x="329.31204"
         y="249.41533"
         id="tspan24"
         style="stroke-width:0.894397">Row house</tspan></text>
    <text
       fill="#ffffff"
       font-family="OpenSans-Bold, 'Open Sans'"
       font-size="23.715px"
       font-weight="700"
       id="text25"
       x="328.82907"
       y="269.15485"
       style="font-size:21.4655px;stroke-width:0.894397"><tspan
         x="328.82907"
         y="269.15485"
         id="tspan25"
         style="font-size:21.4655px;stroke-width:0.894397">6.5%</tspan></text>
    <text
       fill="#efc419"
       font-family="OpenSans-Bold, 'Open Sans'"
       font-size="8.94397px"
       font-weight="700"
       id="text26"
       x="408.86435"
       y="104.61476"
       style="stroke-width:0.894397"><tspan
         x="408.86435"
         y="104.61476"
         id="tspan26"
         style="stroke-width:0.894397">Other</tspan></text>
    <text
       fill="#ffffff"
       font-family="OpenSans-Bold, 'Open Sans'"
       font-size="8.94397px"
       font-weight="700"
       id="text27"
       x="269.32953"
       y="70.033035"
       style="stroke-width:0.894397"><tspan
         x="269.32953"
         y="70.033035"
         id="tspan27"
         style="stroke-width:0.894397">with ≥5 storeys</tspan></text>
    <text
       fill="#ffffff"
       font-family="OpenSans-Bold, 'Open Sans'"
       font-size="12.546px"
       font-weight="700"
       id="text28"
       x="261.02914"
       y="137.54631"
       style="font-size:8.94397px;stroke-width:0.894397"><tspan
         x="261.02914"
         y="137.54631"
         id="tspan28"
         style="font-size:8.94397px;stroke-width:0.894397">Apartment in a building</tspan></text>
    <text
       fill="#ffffff"
       font-family="OpenSans-Bold, 'Open Sans'"
       font-size="35.217px"
       font-weight="700"
       id="text29"
       x="276.17099"
       y="173.00967"
       style="font-size:25.9375px;stroke-width:0.894397"><tspan
         x="276.17099"
         y="173.00967"
         id="tspan29"
         style="font-size:25.9375px;stroke-width:0.894397">18.0%</tspan></text>
    <text
       fill="#ffffff"
       font-family="OpenSans-Bold, 'Open Sans'"
       font-size="8.94397px"
       font-weight="700"
       id="text30"
       x="280.55914"
       y="148.27908"
       style="stroke-width:0.894397"><tspan
         x="280.55914"
         y="148.27908"
         id="tspan30"
         style="stroke-width:0.894397">with &lt;5 storeys</tspan></text>
  </g>
</svg>
