<?xml version="1.0" encoding="UTF-8"?>
<svg xmlns="http://www.w3.org/2000/svg" width="6.8in" height="3in" viewBox="0 0 489.6 216">
  <g id="white">
    <rect x="0" width="489.6" height="215.797" fill="#fff"/>
  </g>
  <g id="Layer_1" data-name="Layer 1">
    <rect id="rect75" y="14.4" width="14.4" height="14.4" fill="#f1c500"/>
    <rect id="rect72" y="14.4" width="14.4" height="14.4" fill="#f1c500"/>
    <text transform="translate(20.96 27.675)" font-family="TradeGothicLT-Bold, &apos;TradeGothic LT Bold&apos;" font-size="17" font-weight="700"><tspan x="0" y="0">Canadian youth population living in major urban centres</tspan></text>
    <g id="text64" isolation="isolate">
      <text transform="translate(21.6 201.598)" fill="#999" font-family="OpenSans, &apos;Open Sans&apos;" font-size="8" isolation="isolate"><tspan x="0" y="0">Data source: Statistics Canada (2025) Annual Demographic Estimates</tspan></text>
    </g>
    <path id="path37" d="M0,215.797h244.8" fill="none" stroke="#f1c500" stroke-miterlimit="2.25" stroke-width=".5"/>
    <text transform="translate(176.4 165.6)" fill="#6c297b" font-family="OpenSans-Bold, &apos;Open Sans&apos;" font-weight="700"><tspan font-size="9"><tspan x="0" y="0">Major urban centres</tspan></tspan><tspan font-size="7"><tspan x="0" y="8.4">&gt;100K people</tspan></tspan></text>
    <text transform="translate(285.9 165.6)" fill="#1e3864" font-family="OpenSans-Bold, &apos;Open Sans&apos;" font-weight="700"><tspan font-size="9"><tspan x="0" y="0">Smaller urban centres</tspan></tspan><tspan font-size="7"><tspan x="0" y="8.4">10K - 100K people</tspan></tspan></text>
    <text transform="translate(403.2 165.6)" fill="#00a28a" font-family="OpenSans-Bold, &apos;Open Sans&apos;" font-weight="700"><tspan font-size="9"><tspan x="0" y="0">Rural</tspan></tspan><tspan font-size="7"><tspan x="0" y="8.4">Outside urban centres</tspan></tspan></text>
    <path id="path37-2" d="M0,.125h489.6" fill="none" stroke="#f1c500" stroke-miterlimit="2.25" stroke-width=".5"/>
    <text transform="translate(49.337 96.721)" fill="#231f20" font-family="OpenSans-Bold, &apos;Open Sans&apos;" font-weight="700"><tspan font-size="12"><tspan x="0" y="0">Youth population</tspan></tspan><tspan font-size="8"><tspan x="48.186" y="9.6">(ages 15 to 29)</tspan></tspan></text>
    <text transform="translate(20.556 132.721)" fill="#231f20" font-family="OpenSans-Bold, &apos;Open Sans&apos;" font-weight="700"><tspan font-size="12"><tspan x="0" y="0">Rest of the population</tspan></tspan><tspan font-size="8"><tspan x="94.123" y="9.6">(ages 30+)</tspan></tspan></text>
    <path id="path37-3" data-name="path37" d="M0,215.797h489.6" fill="none" stroke="#f1c500" stroke-miterlimit="2.25" stroke-width=".5"/>
    <rect x="165.6" y="161.998" width="7.2" height="7.2" rx=".72" ry=".72" transform="translate(338.4 331.197) rotate(180)" fill="#6c297b" stroke="#fff" stroke-miterlimit="10" stroke-width="2"/>
    <rect x="275.515" y="162.098" width="7.2" height="7.2" rx=".72" ry=".72" transform="translate(558.23 331.397) rotate(180)" fill="#1e3864" stroke="#fff" stroke-miterlimit="10" stroke-width="2"/>
    <rect x="392.4" y="161.998" width="7.2" height="7.2" rx=".72" ry=".72" transform="translate(792.001 331.197) rotate(180)" fill="#00a28a" stroke="#fff" stroke-miterlimit="10" stroke-width="2"/>
    <text transform="translate(54.786 60.722)" fill="#231f20" font-family="OpenSans-Bold, &apos;Open Sans&apos;" font-weight="700"><tspan font-size="12"><tspan x="0" y="0">Child population</tspan></tspan><tspan font-size="8"><tspan x="47.311" y="9.6">(ages 0 to 14)</tspan></tspan></text>
    <rect x="431.553" y="50.4" width="50.847" height="21.6" rx="2.16" ry="2.16" fill="#00a28a" stroke="#fff" stroke-miterlimit="10"/>
    <rect x="444.222" y="86.4" width="38.178" height="21.6" rx="2.16" ry="2.16" fill="#00a28a" stroke="#fff" stroke-miterlimit="10"/>
    <rect x="430.174" y="122.4" width="52.225" height="21.6" rx="2.16" ry="2.16" fill="#00a28a" stroke="#fff" stroke-miterlimit="10"/>
    <rect x="399.211" y="50.4" width="32.342" height="21.6" rx="2.16" ry="2.16" fill="#1e3864" stroke="#fff" stroke-miterlimit="10"/>
    <rect x="416.545" y="86.4" width="27.676" height="21.6" rx="2.16" ry="2.16" fill="#1e3864" stroke="#fff" stroke-miterlimit="10"/>
    <rect x="399.38" y="122.4" width="30.795" height="21.6" rx="2.16" ry="2.16" fill="#1e3864" stroke="#fff" stroke-miterlimit="10"/>
    <rect x="165.6" y="50.4" width="233.611" height="21.6" rx="2.16" ry="2.16" fill="#6c297b" stroke="#fff" stroke-miterlimit="10"/>
    <rect x="165.6" y="86.4" width="250.945" height="21.6" rx="2.16" ry="2.16" fill="#6c297b" stroke="#fff" stroke-miterlimit="10"/>
    <rect x="165.6" y="122.4" width="233.78" height="21.6" rx="2.16" ry="2.16" fill="#6c297b" stroke="#fff" stroke-miterlimit="10"/>
    <text transform="translate(169.203 68.402)" fill="#fff" font-family="OpenSans-Bold, &apos;Open Sans&apos;" font-weight="700"><tspan x="0" y="0" font-size="11">74</tspan><tspan x="12.579" y="0" font-size="8">%</tspan></text>
    <text transform="translate(402.815 68.402)" fill="#fff" font-family="OpenSans-Bold, &apos;Open Sans&apos;" font-weight="700"><tspan x="0" y="0" font-size="11">10</tspan><tspan x="12.579" y="0" font-size="8">%</tspan></text>
    <text transform="translate(435.156 68.402)" fill="#fff" font-family="OpenSans-Bold, &apos;Open Sans&apos;" font-weight="700"><tspan x="0" y="0" font-size="11">16</tspan><tspan x="12.579" y="0" font-size="8">%</tspan></text>
    <text transform="translate(169.203 104.402)" fill="#fff" font-family="OpenSans-Bold, &apos;Open Sans&apos;" font-weight="700"><tspan x="0" y="0" font-size="11">79</tspan><tspan x="12.579" y="0" font-size="8">%</tspan></text>
    <text transform="translate(420.148 104.402)" fill="#fff" font-family="OpenSans-Bold, &apos;Open Sans&apos;" font-weight="700"><tspan x="0" y="0" font-size="11">9</tspan><tspan x="6.289" y="0" font-size="8">%</tspan></text>
    <text transform="translate(447.825 104.402)" fill="#fff" font-family="OpenSans-Bold, &apos;Open Sans&apos;" font-weight="700"><tspan x="0" y="0" font-size="11">12</tspan><tspan x="12.579" y="0" font-size="8">%</tspan></text>
    <text transform="translate(169.203 140.401)" fill="#fff" font-family="OpenSans-Bold, &apos;Open Sans&apos;" font-weight="700"><tspan x="0" y="0" font-size="11">74</tspan><tspan x="12.579" y="0" font-size="8">%</tspan></text>
    <text transform="translate(402.983 140.401)" fill="#fff" font-family="OpenSans-Bold, &apos;Open Sans&apos;" font-weight="700"><tspan x="0" y="0" font-size="11">10</tspan><tspan x="12.579" y="0" font-size="8">%</tspan></text>
    <text transform="translate(433.778 140.401)" fill="#fff" font-family="OpenSans-Bold, &apos;Open Sans&apos;" font-weight="700"><tspan x="0" y="0" font-size="11">16</tspan><tspan x="12.579" y="0" font-size="8">%</tspan></text>
  </g>
</svg>