<?xml version="1.0" encoding="UTF-8"?>
<svg xmlns="http://www.w3.org/2000/svg" width="3.4in" height="5.2in" viewBox="0 0 244.8 374.4">
  <g id="white">
    <rect width="245.096" height="374.4" fill="#fff"/>
  </g>
  <g id="Layer_1" data-name="Layer 1">
    <g>
      <rect x="59.335" y="301.769" width="77.36" height="8.565" fill="#e78273" stroke="#1e3864" stroke-miterlimit="10" stroke-width=".25"/>
      <rect x="59.335" y="289.873" width="88.405" height="8.565" fill="#e78273" stroke="#1e3864" stroke-miterlimit="10" stroke-width=".25"/>
      <rect x="59.335" y="277.977" width="93.089" height="8.565" fill="#e78273" stroke="#1e3864" stroke-miterlimit="10" stroke-width=".25"/>
      <rect x="59.335" y="266.081" width="95.89" height="8.565" fill="#dc4732" stroke="#1e3864" stroke-miterlimit="10" stroke-width=".25"/>
      <rect x="59.335" y="254.185" width="111.782" height="8.565" fill="#dc4732" stroke="#1e3864" stroke-miterlimit="10" stroke-width=".25"/>
      <rect x="59.335" y="242.289" width="123.848" height="8.565" fill="#dc4732" stroke="#1e3864" stroke-miterlimit="10" stroke-width=".25"/>
      <rect x="59.335" y="230.393" width="131.293" height="8.565" fill="#1e3864" stroke="#1e3864" stroke-miterlimit="10"/>
      <rect x="59.335" y="218.497" width="125.373" height="8.565" fill="#1e3864" stroke="#1e3864" stroke-miterlimit="10"/>
      <rect x="59.335" y="206.601" width="118.225" height="8.565" fill="#1e3864" stroke="#1e3864" stroke-miterlimit="10"/>
      <rect x="59.335" y="194.705" width="107.217" height="8.565" fill="#1e3864" stroke="#1e3864" stroke-miterlimit="10"/>
      <rect x="59.335" y="182.809" width="101.179" height="8.565" fill="#1e3864" stroke="#1e3864" stroke-miterlimit="10"/>
      <rect x="59.335" y="170.913" width="101.143" height="8.565" fill="#1e3864" stroke="#1e3864" stroke-miterlimit="10"/>
      <rect x="59.335" y="159.017" width="111.965" height="8.565" fill="#1e3864" stroke="#1e3864" stroke-miterlimit="10"/>
      <rect x="59.335" y="147.121" width="103.121" height="8.565" fill="#1e3864" stroke="#1e3864" stroke-miterlimit="10"/>
      <rect x="59.335" y="135.225" width="84.527" height="8.565" fill="#1e3864" stroke="#1e3864" stroke-miterlimit="10"/>
      <rect x="59.335" y="123.329" width="66.543" height="8.565" fill="#1e3864" stroke="#1e3864" stroke-miterlimit="10"/>
      <rect x="59.335" y="111.433" width="41.685" height="8.565" fill="#1e3864" stroke="#1e3864" stroke-miterlimit="10"/>
      <rect x="59.335" y="99.537" width="23.97" height="8.565" fill="#1e3864" stroke="#1e3864" stroke-miterlimit="10"/>
      <rect x="59.335" y="87.641" width="11.397" height="8.565" fill="#1e3864" stroke="#1e3864" stroke-miterlimit="10"/>
      <rect x="59.335" y="75.745" width="3.476" height="8.565" fill="#1e3864" stroke="#1e3864" stroke-miterlimit="10"/>
      <rect x="59.335" y="63.849" width=".508" height="8.565" fill="#1e3864" stroke="#1e3864" stroke-miterlimit="10"/>
    </g>
    <text transform="translate(33.872 307.976)" font-family="OpenSans, &apos;Open Sans&apos;" font-size="8"><tspan x="0" y="0">0 to 4</tspan></text>
    <text transform="translate(33.872 296.081)" font-family="OpenSans, &apos;Open Sans&apos;" font-size="8"><tspan x="0" y="0">5 to 9</tspan></text>
    <text transform="translate(24.723 284.184)" font-family="OpenSans, &apos;Open Sans&apos;" font-size="8"><tspan x="0" y="0">10 to 14</tspan></text>
    <text transform="translate(24.723 272.289)" font-family="OpenSans, &apos;Open Sans&apos;" font-size="8"><tspan x="0" y="0">15 to 19</tspan></text>
    <text transform="translate(24.723 260.393)" font-family="OpenSans, &apos;Open Sans&apos;" font-size="8"><tspan x="0" y="0">20 to 24</tspan></text>
    <text transform="translate(24.723 248.497)" font-family="OpenSans, &apos;Open Sans&apos;" font-size="8"><tspan x="0" y="0">25 to 29</tspan></text>
    <text transform="translate(24.723 236.6)" font-family="OpenSans, &apos;Open Sans&apos;" font-size="8"><tspan x="0" y="0">30 to 34</tspan></text>
    <text transform="translate(24.723 224.705)" font-family="OpenSans, &apos;Open Sans&apos;" font-size="8"><tspan x="0" y="0">35 to 39</tspan></text>
    <text transform="translate(24.723 212.809)" font-family="OpenSans, &apos;Open Sans&apos;" font-size="8"><tspan x="0" y="0">40 to 44</tspan></text>
    <text transform="translate(24.723 200.913)" font-family="OpenSans, &apos;Open Sans&apos;" font-size="8"><tspan x="0" y="0">45 to 49</tspan></text>
    <text transform="translate(24.723 189.017)" font-family="OpenSans, &apos;Open Sans&apos;" font-size="8"><tspan x="0" y="0">50 to 54</tspan></text>
    <text transform="translate(24.723 177.121)" font-family="OpenSans, &apos;Open Sans&apos;" font-size="8"><tspan x="0" y="0">55 to 59</tspan></text>
    <text transform="translate(24.723 165.225)" font-family="OpenSans, &apos;Open Sans&apos;" font-size="8"><tspan x="0" y="0">60 to 64</tspan></text>
    <text transform="translate(24.723 153.329)" font-family="OpenSans, &apos;Open Sans&apos;" font-size="8"><tspan x="0" y="0">65 to 69</tspan></text>
    <text transform="translate(24.723 141.432)" font-family="OpenSans, &apos;Open Sans&apos;" font-size="8"><tspan x="0" y="0">70 to 74</tspan></text>
    <text transform="translate(24.723 129.537)" font-family="OpenSans, &apos;Open Sans&apos;" font-size="8"><tspan x="0" y="0">75 to 79</tspan></text>
    <text transform="translate(24.723 117.64)" font-family="OpenSans, &apos;Open Sans&apos;" font-size="8"><tspan x="0" y="0">80 to 84</tspan></text>
    <text transform="translate(24.723 105.744)" font-family="OpenSans, &apos;Open Sans&apos;" font-size="8"><tspan x="0" y="0">85 to 89</tspan></text>
    <text transform="translate(24.723 93.849)" font-family="OpenSans, &apos;Open Sans&apos;" font-size="8"><tspan x="0" y="0">90 to 94</tspan></text>
    <text transform="translate(24.723 81.953)" font-family="OpenSans, &apos;Open Sans&apos;" font-size="8"><tspan x="0" y="0">95 to 99</tspan></text>
    <text transform="translate(34.458 70.057)" font-family="OpenSans, &apos;Open Sans&apos;" font-size="8"><tspan x="0" y="0">100 +</tspan></text>
    <text transform="translate(135.677 329.225)" fill="#939598" font-family="OpenSans, &apos;Open Sans&apos;" font-size="9"><tspan x="0" y="0">2.0</tspan></text>
    <text transform="translate(94.334 329.225)" fill="#939598" font-family="OpenSans, &apos;Open Sans&apos;" font-size="9"><tspan x="0" y="0">1.0</tspan></text>
    <text transform="translate(56.762 329.225)" fill="#939598" font-family="OpenSans, &apos;Open Sans&apos;" font-size="9"><tspan x="0" y="0">0</tspan></text>
    <g>
      <line x1="80.006" y1="316.906" x2="80.006" y2="57.284" fill="none" stroke="#000" stroke-dasharray=".25 2" stroke-miterlimit="10" stroke-width=".25"/>
      <line x1="100.677" y1="316.905" x2="100.678" y2="57.284" fill="none" stroke="#000" stroke-dasharray=".25 2" stroke-miterlimit="10" stroke-width=".25"/>
      <line x1="121.349" y1="316.905" x2="121.349" y2="57.284" fill="none" stroke="#000" stroke-dasharray=".25 2" stroke-miterlimit="10" stroke-width=".25"/>
      <line x1="142.02" y1="316.905" x2="142.02" y2="57.284" fill="none" stroke="#000" stroke-dasharray=".25 2" stroke-miterlimit="10" stroke-width=".25"/>
      <line x1="162.692" y1="316.905" x2="162.692" y2="57.283" fill="none" stroke="#000" stroke-dasharray=".25 2" stroke-miterlimit="10" stroke-width=".25"/>
      <line x1="183.363" y1="316.905" x2="183.363" y2="57.283" fill="none" stroke="#000" stroke-dasharray=".25 2" stroke-miterlimit="10" stroke-width=".25"/>
    </g>
    <rect id="rect75" y="14.4" width="14.4" height="14.4" fill="#f1c500"/>
    <rect id="rect72" y="14.4" width="14.4" height="14.4" fill="#f1c500"/>
    <text transform="translate(20.96 27.675)" font-family="TradeGothicLT-Bold, &apos;TradeGothic LT Bold&apos;" font-size="17" font-weight="700"><tspan x="0" y="0">More than 14 million youth</tspan><tspan x="0" y="20.4">live in Canada in 2025</tspan></text>
    <rect id="rect75-2" data-name="rect75" y="14.4" width="14.4" height="14.4" fill="#f1c500"/>
    <rect id="rect72-2" data-name="rect72" y="14.4" width="14.4" height="14.4" fill="#f1c500"/>
    <text transform="translate(177.02 329.324)" fill="#939598" font-family="OpenSans, &apos;Open Sans&apos;" font-size="9"><tspan x="0" y="0">3.0 million</tspan></text>
    <line x1="59.335" y1="316.906" x2="59.335" y2="57.284" fill="none" stroke="#000" stroke-miterlimit="10"/>
    <g id="text64" isolation="isolate">
      <text transform="translate(21.751 350.183)" fill="#999" font-family="OpenSans, &apos;Open Sans&apos;" font-size="8" isolation="isolate"><tspan x="0" y="0">Data source: Statistics Canada (2025) Annual </tspan><tspan x="0" y="9.6">Demographic Estimates</tspan></text>
    </g>
    <path id="path37" d="M0,374.224h244.8" fill="none" stroke="#f1c500" stroke-miterlimit="2.25" stroke-width=".5"/>
    <path id="path37-2" data-name="path37" d="M0,.258h244.8" fill="none" stroke="#f1c500" stroke-miterlimit="2.25" stroke-width=".5"/>
    <text transform="translate(199.653 255.204) scale(1.096 1)" fill="#dc4732" font-family="OpenSans-BoldItalic, &apos;Open Sans&apos;" font-size="8.212" font-style="italic" font-weight="700"><tspan x="0" y="0">youth</tspan><tspan x="-20.072" y="9.854">population</tspan><tspan x="-28.091" y="19.708">ages 15 to 29</tspan></text>
    <text transform="translate(159.317 301.769) scale(1.096 1)" fill="#e78273" font-family="OpenSans-BoldItalic, &apos;Open Sans&apos;" font-size="8.212" font-style="italic" font-weight="700"><tspan x="0" y="0">children</tspan><tspan x="-14.25" y="9.854">ages 0 to 14</tspan></text>
  </g>
</svg>