<?xml version="1.0" encoding="UTF-8"?>
<svg id="Layer_1" data-name="Layer 1" xmlns="http://www.w3.org/2000/svg" width="3.4in" height="3.9in" viewBox="0 0 244.8 280.8">
  <polyline points="30.22 102.6 54.165 116.028 78.11 124.42 102.055 130.295 126 137.849 150.722 170.58 173.89 162.187 197.835 141.206 221.78 138.688" fill="none" stroke="#808285" stroke-miterlimit="10"/>
  <g>
    <g>
      <line x1="0" y1="223.2" x2=".184" y2="223.2" fill="none" stroke="#808285" stroke-miterlimit="10" stroke-width=".184"/>
      <line x1="1.656" y1="223.2" x2="243.88" y2="223.2" fill="none" stroke="#808285" stroke-dasharray=".368 1.472" stroke-miterlimit="10" stroke-width=".184"/>
      <line x1="244.616" y1="223.2" x2="244.8" y2="223.2" fill="none" stroke="#808285" stroke-miterlimit="10" stroke-width=".184"/>
    </g>
    <g>
      <line x1="0" y1="181.237" x2=".184" y2="181.237" fill="none" stroke="#808285" stroke-miterlimit="10" stroke-width=".184"/>
      <line x1="1.656" y1="181.237" x2="243.88" y2="181.237" fill="none" stroke="#808285" stroke-dasharray=".368 1.472" stroke-miterlimit="10" stroke-width=".184"/>
      <line x1="244.616" y1="181.237" x2="244.8" y2="181.237" fill="none" stroke="#808285" stroke-miterlimit="10" stroke-width=".184"/>
    </g>
    <g>
      <line x1="0" y1="139.274" x2=".184" y2="139.274" fill="none" stroke="#808285" stroke-miterlimit="10" stroke-width=".184"/>
      <line x1="1.656" y1="139.274" x2="243.88" y2="139.274" fill="none" stroke="#808285" stroke-dasharray=".368 1.472" stroke-miterlimit="10" stroke-width=".184"/>
      <line x1="244.616" y1="139.274" x2="244.8" y2="139.274" fill="none" stroke="#808285" stroke-miterlimit="10" stroke-width=".184"/>
    </g>
    <g>
      <line x1="0" y1="97.312" x2=".184" y2="97.312" fill="none" stroke="#808285" stroke-miterlimit="10" stroke-width=".184"/>
      <line x1="1.656" y1="97.312" x2="243.88" y2="97.312" fill="none" stroke="#808285" stroke-dasharray=".368 1.472" stroke-miterlimit="10" stroke-width=".184"/>
      <line x1="244.616" y1="97.312" x2="244.8" y2="97.312" fill="none" stroke="#808285" stroke-miterlimit="10" stroke-width=".184"/>
    </g>
  </g>
  <text transform="translate(0 94.852)" fill="#a7a9ac" font-family="OpenSans, &apos;Open Sans&apos;" font-size="8"><tspan x="0" y="0">15%</tspan></text>
  <text transform="translate(0 136.815)" fill="#a7a9ac" font-family="OpenSans, &apos;Open Sans&apos;" font-size="8"><tspan x="0" y="0">10</tspan></text>
  <text transform="translate(0 178.778)" fill="#a7a9ac" font-family="OpenSans, &apos;Open Sans&apos;" font-size="8"><tspan x="0" y="0">5</tspan></text>
  <text transform="translate(0 220.741)" fill="#a7a9ac" font-family="OpenSans, &apos;Open Sans&apos;" font-size="8"><tspan x="0" y="0">0</tspan></text>
  <text transform="translate(18.784 237.477)" font-family="OpenSans, &apos;Open Sans&apos;" font-size="10"><tspan x="0" y="0">2015</tspan></text>
  <text transform="translate(66.674 237.477)" font-family="OpenSans, &apos;Open Sans&apos;" font-size="10"><tspan x="0" y="0">2017</tspan></text>
  <text transform="translate(114.564 237.477)" font-family="OpenSans, &apos;Open Sans&apos;" font-size="10"><tspan x="0" y="0">2019</tspan></text>
  <text transform="translate(162.454 237.477)" font-family="OpenSans, &apos;Open Sans&apos;" font-size="10"><tspan x="0" y="0">2021</tspan></text>
  <text transform="translate(210.344 237.477)" font-family="OpenSans, &apos;Open Sans&apos;" font-size="10"><tspan x="0" y="0">2023</tspan></text>
  <text transform="translate(165.034 94.932)" font-family="OpenSans-BoldItalic, &apos;Open Sans&apos;" font-size="10" font-style="italic" font-weight="700"><tspan x="0" y="0">~4 million</tspan><tspan x="-1.516" y="12">Canadians</tspan></text>
  <line y1="223.2" x2="244.8" y2="223.2" fill="none" stroke="#000" stroke-miterlimit="10" stroke-width=".918"/>
  <g id="text64" isolation="isolate">
    <text transform="translate(21.238 256.864)" fill="#999" font-family="OpenSans, &apos;Open Sans&apos;" font-size="8" isolation="isolate"><tspan x="0" y="0">Data source: Statistics Canada (2023) Canadian Income </tspan><tspan x="0" y="9.6">Survey</tspan></text>
  </g>
  <rect id="rect75" y="14.4" width="14.4" height="14.4" fill="#f1c500"/>
  <path id="path37" d="M0,280.678h244.8" fill="none" stroke="#f1c500" stroke-miterlimit="2.25" stroke-width=".5"/>
  <path id="path37-2" d="M0,.125h244.8" fill="none" stroke="#f1c500" stroke-miterlimit="2.25" stroke-width=".5"/>
  <rect id="rect72" y="14.4" width="14.4" height="14.4" fill="#f1c500"/>
  <text transform="translate(20.96 27.675)" font-family="TradeGothicLT-Bold, &apos;TradeGothic LT Bold&apos;" font-size="17" font-weight="700"><tspan x="0" y="0">Percentage of Canadians</tspan><tspan x="0" y="20.4">below the poverty line</tspan><tspan x="0" y="40.8">(Market Basket Measure)</tspan></text>
  <line x1="30.22" y1="221.038" x2="30.22" y2="225.362" fill="none" stroke="#000" stroke-miterlimit="10" stroke-width=".918"/>
  <line x1="78.11" y1="221.038" x2="78.11" y2="225.362" fill="none" stroke="#000" stroke-miterlimit="10" stroke-width=".918"/>
  <line x1="126" y1="221.038" x2="126" y2="225.362" fill="none" stroke="#000" stroke-miterlimit="10" stroke-width=".918"/>
  <line x1="173.89" y1="221.038" x2="173.89" y2="225.362" fill="none" stroke="#000" stroke-miterlimit="10" stroke-width=".918"/>
  <line x1="53.779" y1="221.701" x2="53.779" y2="224.699" fill="none" stroke="#000" stroke-miterlimit="10" stroke-width=".918"/>
  <line x1="101.669" y1="221.701" x2="101.669" y2="224.699" fill="none" stroke="#000" stroke-miterlimit="10" stroke-width=".918"/>
  <line x1="149.559" y1="221.701" x2="149.559" y2="224.699" fill="none" stroke="#000" stroke-miterlimit="10" stroke-width=".918"/>
  <line x1="197.449" y1="221.701" x2="197.449" y2="224.699" fill="none" stroke="#000" stroke-miterlimit="10" stroke-width=".918"/>
  <line x1="221.78" y1="221.038" x2="221.78" y2="225.362" fill="none" stroke="#000" stroke-miterlimit="10" stroke-width=".918"/>
  <g>
    <path d="M216.526,97.376s7.374-3.08,5.429,33.436" fill="none" stroke="#000" stroke-miterlimit="10" stroke-width=".5"/>
    <path d="M221.78,133.825c-.472-1.439-1.303-3.234-2.212-4.362l2.343.951,2.409-.768c-.993,1.055-1.959,2.781-2.54,4.179Z"/>
  </g>
  <g>
    <circle cx="30.22" cy="102.6" r="4.108" fill="#dc4731" stroke="#fff" stroke-miterlimit="10"/>
    <circle cx="54.165" cy="116.028" r="4.108" fill="#dc4a31" stroke="#fff" stroke-miterlimit="10"/>
    <circle cx="78.11" cy="124.42" r="4.108" fill="#df602d" stroke="#fff" stroke-miterlimit="10"/>
    <circle cx="102.055" cy="130.295" r="4.108" fill="#e26f2a" stroke="#fff" stroke-miterlimit="10"/>
    <circle cx="126" cy="137.849" r="4.108" fill="#e58225" stroke="#fff" stroke-miterlimit="10"/>
    <circle cx="150.722" cy="170.58" r="4.108" fill="#cabf2c" stroke="#fff" stroke-miterlimit="10"/>
    <circle cx="173.89" cy="162.187" r="4.108" fill="#efc219" stroke="#fff" stroke-miterlimit="10"/>
    <circle cx="197.835" cy="141.206" r="4.108" fill="#e78c23" stroke="#fff" stroke-miterlimit="10"/>
    <circle cx="221.78" cy="138.688" r="4.108" fill="#e58526" stroke="#fff" stroke-miterlimit="10"/>
  </g>
</svg>