<?xml version="1.0" encoding="UTF-8" standalone="no"?>
<svg
   width="6.8in"
   height="3.1in"
   viewBox="0 0 489.6 223.2"
   version="1.1"
   id="svg29"
   sodipodi:docname="mental-health_travel-burden-bars.svg"
   inkscape:version="1.4.2 (1:1.4.2+202505120738+ebf0e940d0)"
   inkscape:export-filename="mental-health_travel-burden-bars.png"
   inkscape:export-xdpi="300"
   inkscape:export-ydpi="300"
   xmlns:inkscape="http://www.inkscape.org/namespaces/inkscape"
   xmlns:sodipodi="http://sodipodi.sourceforge.net/DTD/sodipodi-0.dtd"
   xmlns="http://www.w3.org/2000/svg"
   xmlns:svg="http://www.w3.org/2000/svg">
  <defs
     id="defs29" />
  <sodipodi:namedview
     id="namedview29"
     pagecolor="#ffffff"
     bordercolor="#666666"
     borderopacity="1.0"
     inkscape:showpageshadow="2"
     inkscape:pageopacity="0.0"
     inkscape:pagecheckerboard="0"
     inkscape:deskcolor="#d1d1d1"
     inkscape:document-units="in"
     showgrid="false"
     inkscape:zoom="1.3436978"
     inkscape:cx="356.10685"
     inkscape:cy="104.93431"
     inkscape:window-width="2560"
     inkscape:window-height="1403"
     inkscape:window-x="0"
     inkscape:window-y="0"
     inkscape:window-maximized="1"
     inkscape:current-layer="layer1">
    <inkscape:grid
       id="grid29"
       units="in"
       originx="0"
       originy="0"
       spacingx="7.2"
       spacingy="7.2"
       empcolor="#0099e5"
       empopacity="0.30196078"
       color="#0099e5"
       opacity="0.14901961"
       empspacing="5"
       enabled="true"
       visible="false" />
  </sodipodi:namedview>
  <g
     inkscape:groupmode="layer"
     id="layer1"
     inkscape:label="Layer 1">
    <rect
       style="fill:#ffffff;fill-rule:evenodd;stroke-width:0;stroke-linecap:round;paint-order:markers fill stroke"
       id="rect29"
       width="489.60004"
       height="222.69901"
       x="-2.5939942e-05"
       y="0.5" />
    <path
       d="m 467.409,138.241 v 25.92 c 0,0.795 -0.739,1.44 -1.651,1.44 h -45.251 c -0.912,0 -1.651,-0.645 -1.651,-1.44 v -25.92 c 0,-0.795 0.739,-1.44 1.651,-1.44 h 45.251 c 0.912,0 1.651,0.645 1.651,1.44 z"
       fill="#ab2069"
       stroke="#ffffff"
       stroke-miterlimit="10"
       stroke-width="0.5"
       id="path1" />
    <path
       d="m 467.409,80.64 v 25.92 c 0,0.795 -0.739,1.44 -1.651,1.44 h -5.526 c -0.912,0 -1.651,-0.645 -1.651,-1.44 V 80.64 c 0,-0.795 0.739,-1.44 1.651,-1.44 h 5.526 c 0.912,0 1.651,0.645 1.651,1.44 z"
       fill="#ab2069"
       stroke="#ffffff"
       stroke-miterlimit="10"
       stroke-width="0.5"
       id="path2" />
    <path
       d="m 458.581,80.64 v 25.92 c 0,0.795 -0.739,1.44 -1.651,1.44 h -9.94 c -0.912,0 -1.651,-0.645 -1.651,-1.44 V 80.64 c 0,-0.795 0.739,-1.44 1.651,-1.44 h 9.94 c 0.912,0 1.651,0.645 1.651,1.44 z"
       fill="#dc4732"
       stroke="#ffffff"
       stroke-miterlimit="10"
       stroke-width="0.5"
       id="path3" />
    <path
       d="m 418.856,138.241 v 25.92 c 0,0.795 -0.739,1.44 -1.651,1.44 H 345.47 c -0.912,0 -1.651,-0.645 -1.651,-1.44 v -25.92 c 0,-0.795 0.739,-1.44 1.651,-1.44 h 71.735 c 0.912,0 1.651,0.645 1.651,1.44 z"
       fill="#dc4732"
       stroke="#ffffff"
       stroke-miterlimit="10"
       stroke-width="0.5"
       id="path4" />
    <path
       d="m 445.339,80.64 v 25.92 c 0,0.795 -0.739,1.44 -1.651,1.44 h -32.009 c -0.912,0 -1.651,-0.645 -1.651,-1.44 V 80.64 c 0,-0.795 0.739,-1.44 1.651,-1.44 h 32.009 c 0.912,0 1.651,0.645 1.651,1.44 z"
       fill="#efc419"
       stroke="#ffffff"
       stroke-miterlimit="10"
       stroke-width="0.5"
       id="path5" />
    <path
       d="m 343.818,138.241 v 25.92 c 0,0.795 -0.739,1.44 -1.651,1.44 H 199.809 c -0.912,0 -1.651,-0.645 -1.651,-1.44 v -25.92 c 0,-0.795 0.739,-1.44 1.651,-1.44 h 142.358 c 0.912,0 1.651,0.645 1.651,1.44 z"
       fill="#efc419"
       stroke="#ffffff"
       stroke-miterlimit="10"
       stroke-width="0.5"
       id="path6" />
    <path
       d="m 410.028,80.64 v 25.92 c 0,0.795 -0.739,1.44 -1.651,1.44 h -54.079 c -0.912,0 -1.651,-0.645 -1.651,-1.44 V 80.64 c 0,-0.795 0.739,-1.44 1.651,-1.44 h 54.079 c 0.912,0 1.651,0.645 1.651,1.44 z"
       fill="#00a28a"
       stroke="#ffffff"
       stroke-miterlimit="10"
       stroke-width="0.5"
       id="path7" />
    <path
       d="m 198.158,138.241 v 25.92 c 0,0.795 -0.739,1.44 -1.651,1.44 h -89.391 c -0.912,0 -1.651,-0.645 -1.651,-1.44 v -25.92 c 0,-0.795 0.739,-1.44 1.651,-1.44 h 89.391 c 0.912,0 1.651,0.645 1.651,1.44 z"
       fill="#00a28a"
       stroke="#ffffff"
       stroke-miterlimit="10"
       stroke-width="0.5"
       id="path8" />
    <path
       d="m 352.646,80.64 v 25.92 c 0,0.795 -0.739,1.44 -1.651,1.44 H 23.251 C 22.339,108 21.6,107.355 21.6,106.56 V 80.64 c 0,-0.795 0.739,-1.44 1.651,-1.44 h 327.744 c 0.912,0 1.651,0.645 1.651,1.44 z"
       fill="#067fa3"
       stroke="#ffffff"
       stroke-miterlimit="10"
       stroke-width="0.5"
       id="path9" />
    <path
       d="m 105.465,138.241 v 25.92 c 0,0.795 -0.739,1.44 -1.651,1.44 H 23.251 c -0.912,0 -1.651,-0.645 -1.651,-1.44 v -25.92 c 0,-0.795 0.739,-1.44 1.651,-1.44 h 80.563 c 0.912,0 1.651,0.645 1.651,1.44 z"
       fill="#067fa3"
       stroke="#ffffff"
       stroke-miterlimit="10"
       stroke-width="0.5"
       id="path10" />
    <path
       id="path37"
       d="M 0,222.699 H 489.6"
       fill="none"
       stroke="#f1c500"
       stroke-miterlimit="2.25"
       stroke-width="0.5" />
    <g
       id="text49"
       isolation="isolate">
      <text
         transform="rotate(0.17,-9329.0122,7111.7863)"
         font-family="TradeGothicLT-Bold, 'TradeGothic LT Bold'"
         font-size="17px"
         font-weight="700"
         isolation="isolate"
         id="text10"><tspan
           x="0"
           y="0"
           id="tspan10">Hospital travel burden for urban and rural residents</tspan></text>
    </g>
    <g
       id="text51"
       isolation="isolate">
      <text
         transform="translate(21.6,208.515)"
         fill="#999999"
         font-family="OpenSans, 'Open Sans'"
         font-size="8px"
         isolation="isolate"
         id="text11"><tspan
           x="0"
           y="0"
           id="tspan11">Data source: Hospital Morbidity Database (CIHI, 2018-2023), Statistics Canada (2024)</tspan></text>
    </g>
    <rect
       id="rect72"
       x="0"
       y="14.4"
       width="14.4"
       height="14.4"
       fill="#f1c500" />
    <path
       id="path37-2"
       d="M 0,0.5 H 489.6"
       fill="none"
       stroke="#f1c500"
       stroke-miterlimit="2.25"
       stroke-width="0.5" />
    <g
       id="Layer_1"
       data-name="Layer 1">
      <text
         transform="translate(21.6 43.2)"
         font-family="OpenSans-Italic, 'Open Sans'"
         font-size="9"
         font-style="italic"
         font-variation-settings="'wght' 400, 'wdth' 100"
         id="text13"><tspan
           x="0"
           y="0"
           id="tspan12">Factors that impact travel burden include patients living in a different census subdivision than the hospital, greater </tspan><tspan
           x="0"
           y="10.8"
           id="tspan13">travel distance required, no road available, patient is a senior or child, and hospitalization is urgent or unscheduled. </tspan></text>
      <text
         font-family="OpenSans-Bold, 'Open Sans'"
         font-size="12px"
         font-weight="700"
         id="text14"
         x="20.978506"
         y="75.601997"
         style="font-size:11px"><tspan
           x="20.978506"
           y="75.601997"
           id="tspan14"
           style="font-size:11px">Urban</tspan></text>
      <text
         transform="translate(42.014,180.002)"
         font-family="OpenSans-Bold, 'Open Sans'"
         font-size="10px"
         font-weight="700"
         id="text15"><tspan
           x="0"
           y="0"
           id="tspan15"
           style="font-weight:normal">Very low</tspan></text>
      <text
         transform="translate(52.789 154.737)"
         fill="#fff"
         font-family="OpenSans-Bold, 'Open Sans'"
         font-size="11"
         font-weight="700"
         id="text16"><tspan
           x="0"
           y="0"
           id="tspan16">19%</tspan></text>
      <text
         transform="translate(175.879 96.738)"
         fill="#fff"
         font-family="OpenSans-Bold, 'Open Sans'"
         font-size="11"
         font-weight="700"
         id="text17"><tspan
           x="0"
           y="0"
           id="tspan17">75%</tspan></text>
      <text
         transform="translate(140.567 154.737)"
         fill="#fff"
         font-family="OpenSans-Bold, 'Open Sans'"
         font-size="11"
         font-weight="700"
         id="text18"><tspan
           x="0"
           y="0"
           id="tspan18">21%</tspan></text>
      <text
         transform="translate(370.093 96.859)"
         fill="#fff"
         font-family="OpenSans-Bold, 'Open Sans'"
         font-size="11"
         font-weight="700"
         id="text19"><tspan
           x="0"
           y="0"
           id="tspan19">13%</tspan></text>
      <text
         transform="translate(419.584 96.859)"
         font-family="OpenSans-Bold, 'Open Sans'"
         font-size="11"
         font-weight="700"
         id="text20"
         style="opacity:0.8"><tspan
           x="0"
           y="0"
           id="tspan20">8%</tspan></text>
      <text
         transform="translate(448.275 120.619)"
         font-family="OpenSans-Bold, 'Open Sans'"
         font-size="11"
         font-weight="700"
         id="text21"
         style="opacity:0.8"><tspan
           x="0"
           y="0"
           id="tspan21">4%</tspan></text>
      <text
         transform="translate(259.744 154.737)"
         font-family="OpenSans-Bold, 'Open Sans'"
         font-size="11"
         font-weight="700"
         id="text22"
         style="opacity:0.8"><tspan
           x="0"
           y="0"
           id="tspan22">33%</tspan></text>
      <text
         transform="translate(370.092 154.737)"
         fill="#fff"
         font-family="OpenSans-Bold, 'Open Sans'"
         font-size="11"
         font-weight="700"
         id="text23"><tspan
           x="0"
           y="0"
           id="tspan23">17%</tspan></text>
      <text
         transform="translate(431.888 154.737)"
         fill="#fff"
         font-family="OpenSans-Bold, 'Open Sans'"
         font-size="11"
         font-weight="700"
         id="text24"><tspan
           x="0"
           y="0"
           id="tspan24">11%</tspan></text>
      <text
         transform="translate(141.612,180.001)"
         font-family="OpenSans-Bold, 'Open Sans'"
         font-size="10px"
         font-weight="700"
         id="text25"><tspan
           x="0"
           y="0"
           id="tspan25"
           style="font-weight:normal">Low</tspan></text>
      <text
         transform="translate(246.645,180.002)"
         font-family="OpenSans-Bold, 'Open Sans'"
         font-size="10px"
         font-weight="700"
         id="text26"><tspan
           x="0"
           y="0"
           id="tspan26"
           style="font-weight:normal">Moderate</tspan></text>
      <text
         transform="translate(369.874,180.001)"
         font-family="OpenSans-Bold, 'Open Sans'"
         font-size="10px"
         font-weight="700"
         id="text27"><tspan
           x="0"
           y="0"
           id="tspan27"
           style="font-weight:normal">High</tspan></text>
      <text
         transform="translate(419.592,180.002)"
         font-family="OpenSans-Bold, 'Open Sans'"
         font-size="10px"
         font-weight="700"
         id="text28"><tspan
           x="0"
           y="0"
           id="tspan28"
           style="font-weight:normal">Very high</tspan></text>
      <text
         font-family="OpenSans-Bold, 'Open Sans'"
         font-size="12px"
         font-weight="700"
         id="text29"
         x="21.084715"
         y="133.203"
         style="font-size:11px"><tspan
           x="21.084715"
           y="133.203"
           id="tspan29"
           style="font-size:11px">Rural</tspan></text>
      <polyline
         points="445.339 108.721 445.339 110.36 467.409 110.36 467.409 108.721"
         fill="none"
         stroke="#ab2069"
         stroke-miterlimit="10"
         stroke-width=".5"
         id="polyline29" />
    </g>
  </g>
</svg>
