<?xml version="1.0" encoding="UTF-8"?>
<svg id="svg29" xmlns="http://www.w3.org/2000/svg" width="6.8in" height="3.1in" viewBox="0 0 489.6 223.2">
  <g id="layer1">
    <rect id="rect29" x="0" y=".5" width="489.6" height="222.699" fill="#fff"/>
    <path id="path1" d="M467.409,138.241v25.92c0,.795-.739,1.44-1.651,1.44h-45.251c-.912,0-1.651-.645-1.651-1.44v-25.92c0-.795.739-1.44,1.651-1.44h45.251c.912,0,1.651.645,1.651,1.44Z" fill="#ab2069" stroke="#fff" stroke-miterlimit="10" stroke-width=".5"/>
    <path id="path2" d="M467.409,80.64v25.92c0,.795-.739,1.44-1.651,1.44h-5.526c-.912,0-1.651-.645-1.651-1.44v-25.92c0-.795.739-1.44,1.651-1.44h5.526c.912,0,1.651.645,1.651,1.44Z" fill="#ab2069" stroke="#fff" stroke-miterlimit="10" stroke-width=".5"/>
    <path id="path3" d="M458.581,80.64v25.92c0,.795-.739,1.44-1.651,1.44h-9.94c-.912,0-1.651-.645-1.651-1.44v-25.92c0-.795.739-1.44,1.651-1.44h9.94c.912,0,1.651.645,1.651,1.44Z" fill="#dc4732" stroke="#fff" stroke-miterlimit="10" stroke-width=".5"/>
    <path id="path4" d="M418.856,138.241v25.92c0,.795-.739,1.44-1.651,1.44h-71.735c-.912,0-1.651-.645-1.651-1.44v-25.92c0-.795.739-1.44,1.651-1.44h71.735c.912,0,1.651.645,1.651,1.44h0Z" fill="#dc4732" stroke="#fff" stroke-miterlimit="10" stroke-width=".5"/>
    <path id="path5" d="M445.339,80.64v25.92c0,.795-.739,1.44-1.651,1.44h-32.009c-.912,0-1.651-.645-1.651-1.44v-25.92c0-.795.739-1.44,1.651-1.44h32.009c.912,0,1.651.645,1.651,1.44Z" fill="#efc419" stroke="#fff" stroke-miterlimit="10" stroke-width=".5"/>
    <path id="path6" d="M343.818,138.241v25.92c0,.795-.739,1.44-1.651,1.44h-142.358c-.912,0-1.651-.645-1.651-1.44v-25.92c0-.795.739-1.44,1.651-1.44h142.358c.912,0,1.651.645,1.651,1.44Z" fill="#efc419" stroke="#fff" stroke-miterlimit="10" stroke-width=".5"/>
    <path id="path7" d="M410.028,80.64v25.92c0,.795-.739,1.44-1.651,1.44h-54.079c-.912,0-1.651-.645-1.651-1.44v-25.92c0-.795.739-1.44,1.651-1.44h54.079c.912,0,1.651.645,1.651,1.44Z" fill="#00a28a" stroke="#fff" stroke-miterlimit="10" stroke-width=".5"/>
    <path id="path8" d="M198.158,138.241v25.92c0,.795-.739,1.44-1.651,1.44h-89.391c-.912,0-1.651-.645-1.651-1.44v-25.92c0-.795.739-1.44,1.651-1.44h89.391c.912,0,1.651.645,1.651,1.44Z" fill="#00a28a" stroke="#fff" stroke-miterlimit="10" stroke-width=".5"/>
    <path id="path9" d="M352.646,80.64v25.92c0,.795-.739,1.44-1.651,1.44H23.251c-.912,0-1.651-.645-1.651-1.44v-25.92c0-.795.739-1.44,1.651-1.44h327.744c.912,0,1.651.645,1.651,1.44Z" fill="#067fa3" stroke="#fff" stroke-miterlimit="10" stroke-width=".5"/>
    <path id="path10" d="M105.465,138.241v25.92c0,.795-.739,1.44-1.651,1.44H23.251c-.912,0-1.651-.645-1.651-1.44v-25.92c0-.795.739-1.44,1.651-1.44h80.563c.912,0,1.651.645,1.651,1.44Z" fill="#067fa3" stroke="#fff" stroke-miterlimit="10" stroke-width=".5"/>
    <path id="path37" d="M0,222.699h489.6" fill="none" stroke="#f1c500" stroke-miterlimit="2.25" stroke-width=".5"/>
    <g id="text49" isolation="isolate">
      <g id="text10" isolation="isolate">
        <text transform="translate(21.06 27.711) rotate(.17)" font-family="TradeGothicLT-Bold, &apos;TradeGothic LT Bold&apos;" font-size="17" font-weight="700" isolation="isolate"><tspan x="0" y="0">Hospital travel burden for urban and rural residents</tspan></text>
      </g>
    </g>
    <g id="text51" isolation="isolate">
      <g id="text11" isolation="isolate">
        <text transform="translate(21.6 208.515)" fill="#999" font-family="OpenSans, &apos;Open Sans&apos;" font-size="8" isolation="isolate"><tspan x="0" y="0">Data source: Hospital Morbidity Database (CIHI, 2018-2023), Statistics Canada (2024)</tspan></text>
      </g>
    </g>
    <rect id="rect72" y="14.4" width="14.4" height="14.4" fill="#f1c500"/>
    <path id="path37-2" d="M0,.5h489.6" fill="none" stroke="#f1c500" stroke-miterlimit="2.25" stroke-width=".5"/>
    <g id="Layer_1" data-name="Layer 1">
      <g id="text13" isolation="isolate">
        <text transform="translate(21.6 43.2)" font-family="OpenSans-Italic, &apos;Open Sans&apos;" font-size="9" font-style="italic" font-variation-settings="&apos;wght&apos; 400, &apos;wdth&apos; 100" isolation="isolate"><tspan x="0" y="0">Factors that impact travel burden include patient living in a different census subdivision than the hospital, greater </tspan></text>
        <text transform="translate(21.6 54)" font-family="OpenSans-Italic, &apos;Open Sans&apos;" font-size="9" font-style="italic" font-variation-settings="&apos;wght&apos; 400, &apos;wdth&apos; 100" isolation="isolate"><tspan x="0" y="0">travel distance required, no road available, patient is a senior or child, and hospitalization is urgent or unscheduled.</tspan></text>
      </g>
      <g id="text14" isolation="isolate">
        <text transform="translate(20.979 75.602)" font-family="OpenSans-Bold, &apos;Open Sans&apos;" font-size="11" font-weight="700" isolation="isolate"><tspan x="0" y="0">Urban</tspan></text>
      </g>
      <g id="text15" isolation="isolate">
        <text transform="translate(42.014 180.002)" font-family="OpenSans-Bold, &apos;Open Sans&apos;" font-size="10" font-weight="700" isolation="isolate"><tspan x="0" y="0">Very low</tspan></text>
      </g>
      <g id="text16" isolation="isolate">
        <text transform="translate(52.789 154.737)" fill="#fff" font-family="OpenSans-Bold, &apos;Open Sans&apos;" font-size="11" font-weight="700" isolation="isolate"><tspan x="0" y="0">19%</tspan></text>
      </g>
      <g id="text17" isolation="isolate">
        <text transform="translate(175.879 96.738)" fill="#fff" font-family="OpenSans-Bold, &apos;Open Sans&apos;" font-size="11" font-weight="700" isolation="isolate"><tspan x="0" y="0">75%</tspan></text>
      </g>
      <g id="text18" isolation="isolate">
        <text transform="translate(140.567 154.737)" fill="#fff" font-family="OpenSans-Bold, &apos;Open Sans&apos;" font-size="11" font-weight="700" isolation="isolate"><tspan x="0" y="0">21%</tspan></text>
      </g>
      <g id="text19" isolation="isolate">
        <text transform="translate(370.093 96.859)" fill="#fff" font-family="OpenSans-Bold, &apos;Open Sans&apos;" font-size="11" font-weight="700" isolation="isolate"><tspan x="0" y="0">13%</tspan></text>
      </g>
      <g id="text20" isolation="isolate">
        <text transform="translate(419.584 96.859)" font-family="OpenSans-Bold, &apos;Open Sans&apos;" font-size="11" font-weight="700" isolation="isolate"><tspan x="0" y="0">8%</tspan></text>
      </g>
      <g id="text21" isolation="isolate">
        <text transform="translate(448.275 120.619)" font-family="OpenSans-Bold, &apos;Open Sans&apos;" font-size="11" font-weight="700" isolation="isolate"><tspan x="0" y="0">4%</tspan></text>
      </g>
      <g id="text22" isolation="isolate">
        <text transform="translate(259.744 154.737)" font-family="OpenSans-Bold, &apos;Open Sans&apos;" font-size="11" font-weight="700" isolation="isolate"><tspan x="0" y="0">33%</tspan></text>
      </g>
      <g id="text23" isolation="isolate">
        <text transform="translate(370.092 154.737)" fill="#fff" font-family="OpenSans-Bold, &apos;Open Sans&apos;" font-size="11" font-weight="700" isolation="isolate"><tspan x="0" y="0">17%</tspan></text>
      </g>
      <g id="text24" isolation="isolate">
        <text transform="translate(431.888 154.737)" fill="#fff" font-family="OpenSans-Bold, &apos;Open Sans&apos;" font-size="11" font-weight="700" isolation="isolate"><tspan x="0" y="0">11%</tspan></text>
      </g>
      <g id="text25" isolation="isolate">
        <text transform="translate(141.612 180.001)" font-family="OpenSans-Bold, &apos;Open Sans&apos;" font-size="10" font-weight="700" isolation="isolate"><tspan x="0" y="0">Low</tspan></text>
      </g>
      <g id="text26" isolation="isolate">
        <text transform="translate(246.645 180.002)" font-family="OpenSans-Bold, &apos;Open Sans&apos;" font-size="10" font-weight="700" isolation="isolate"><tspan x="0" y="0">Moderate</tspan></text>
      </g>
      <g id="text27" isolation="isolate">
        <text transform="translate(369.874 180.001)" font-family="OpenSans-Bold, &apos;Open Sans&apos;" font-size="10" font-weight="700" isolation="isolate"><tspan x="0" y="0">High</tspan></text>
      </g>
      <g id="text28" isolation="isolate">
        <text transform="translate(419.592 180.002)" font-family="OpenSans-Bold, &apos;Open Sans&apos;" font-size="10" font-weight="700" isolation="isolate"><tspan x="0" y="0">Very high</tspan></text>
      </g>
      <g id="text29" isolation="isolate">
        <text transform="translate(21.085 133.203)" font-family="OpenSans-Bold, &apos;Open Sans&apos;" font-size="11" font-weight="700" isolation="isolate"><tspan x="0" y="0">Rural</tspan></text>
      </g>
      <polyline id="polyline29" points="445.339 108.721 445.339 110.36 467.409 110.36 467.409 108.721" fill="none" stroke="#ab2069" stroke-miterlimit="10" stroke-width=".5"/>
    </g>
  </g>
</svg>