<?xml version="1.0" encoding="UTF-8"?>
<svg id="Layer_1" data-name="Layer 1" xmlns="http://www.w3.org/2000/svg" viewBox="0 0 244.8 228.52">
  <text transform="translate(128.92 180.12)" font-family="OpenSans-Bold, &apos;Open Sans&apos;" font-size="8.41" font-weight="700"><tspan x="0" y="0">median </tspan><tspan x="33.9" y="0" fill="#6c297b">urban </tspan><tspan x="61.36" y="0" letter-spacing="0em">wait time</tspan></text>
  <text transform="translate(14.4 180)" font-family="OpenSans-Bold, &apos;Open Sans&apos;" font-size="8.41" font-weight="700"><tspan x="0" y="0">median </tspan><tspan x="33.91" y="0" fill="#00a28a" letter-spacing="0em">rural </tspan><tspan x="56.9" y="0">wait time</tspan></text>
  <g>
    <rect x="129.6" y="134.72" width="5.91" height="35.35"/>
    <rect x="135.9" y="149.59" width="5.91" height="20.48"/>
    <rect x="142.19" y="141.07" width="5.91" height="29"/>
    <rect x="130.84" y="136.46" width=".97" height="3.08" fill="#fff"/>
    <rect x="133.82" y="142.44" width=".97" height="3.08" fill="#fff"/>
    <rect x="132.56" y="145.92" width=".97" height="3.08" fill="#fff"/>
    <rect x="136.29" y="150.67" width="1.24" height="2.04" fill="#fff"/>
    <rect x="138.23" y="150.67" width="1.24" height="2.04" fill="#fff"/>
    <rect x="140.18" y="156.05" width="1.24" height="2.04" fill="#fff"/>
    <rect x="138.23" y="159.81" width="1.24" height="2.04" fill="#fff"/>
    <rect x="142.92" y="165.81" width=".82" height="3.15" fill="#fff"/>
    <rect x="146.48" y="161.38" width=".82" height="3.15" fill="#fff"/>
    <rect x="145.33" y="161.38" width=".82" height="3.15" fill="#fff"/>
    <rect x="142.72" y="153.13" width=".82" height="3.15" fill="#fff"/>
    <rect x="144.33" y="149.09" width=".82" height="3.15" fill="#fff"/>
  </g>
  <text transform="translate(150.71 170.08)" fill="#6c297b" font-family="OpenSans-Bold, &apos;Open Sans&apos;" font-size="21.57" font-weight="700"><tspan x="0" y="0">32 min</tspan></text>
  <text transform="translate(44.17 169.85)" fill="#00a28a" font-family="OpenSans-Bold, &apos;Open Sans&apos;" font-size="21.57" font-weight="700"><tspan x="0" y="0">20 min</tspan></text>
  <g>
    <polygon points="39.18 148.47 27.71 143.89 16.26 148.47 16.26 169.85 39.18 169.85 39.18 148.47"/>
    <g>
      <polygon points="42.2 158.3 38.56 149.33 27.71 144.14 16.9 149.33 13.08 157.55 12.1 157.55 16.25 148.86 27.71 143.63 39.18 148.86 42.99 158.3 42.2 158.3" fill="#fff"/>
      <polygon points="27.72 143.08 15.88 148.48 11.3 158.05 13.4 158.05 17.27 149.7 27.72 144.7 38.17 149.7 41.86 158.8 43.73 158.8 39.57 148.48 27.72 143.08 27.72 143.08" fill="#fff"/>
    </g>
    <rect x="25.81" y="150.22" width="3.83" height="3.83" fill="#fff"/>
    <polyline points="33.45 157.83 21.99 170.52 21.99 157.83 33.45 157.83 33.45 170.52 21.99 157.83" fill="none" stroke="#fff" stroke-miterlimit="10"/>
    <polygon points="44.17 158.38 39.74 148.04 27.72 142.56 15.71 148.04 11.03 157.83 13.15 157.83 17.12 149.28 27.72 144.2 38.33 149.28 42.05 158.38 44.17 158.38"/>
  </g>
  <path id="path37" d="M0,201.6h244.8" fill="none" stroke="#231f20" stroke-miterlimit="3" stroke-width=".57"/>
  <text transform="translate(7.37 210.85)" font-size="8"><tspan x="0" y="0" font-family="OpenSans-Bold, &apos;Open Sans&apos;" font-weight="700">Data Sources:</tspan><tspan x="54.48" y="0" xml:space="preserve" font-family="OpenSans, &apos;Open Sans&apos;"> Canadian Institute for Health and Information </tspan><tspan font-family="OpenSans, &apos;Open Sans&apos;"><tspan x="0" y="9.6">(2024)</tspan></tspan></text>
  <g>
    <g>
      <line x1="93.59" y1="76.53" x2="91.63" y2="72.31" fill="none" stroke="#a7a9ac" stroke-miterlimit="10" stroke-width=".5"/>
      <line x1="91.37" y1="77.45" x2="89.78" y2="73.08" fill="none" stroke="#a7a9ac" stroke-miterlimit="10" stroke-width=".5"/>
      <line x1="89.05" y1="78.18" x2="87.85" y2="73.68" fill="none" stroke="#a7a9ac" stroke-miterlimit="10" stroke-width=".5"/>
      <line x1="86.7" y1="78.7" x2="85.89" y2="74.11" fill="none" stroke="#a7a9ac" stroke-miterlimit="10" stroke-width=".5"/>
      <line x1="84.31" y1="79.02" x2="83.9" y2="74.38" fill="none" stroke="#a7a9ac" stroke-miterlimit="10" stroke-width=".5"/>
      <line x1="81.89" y1="79.12" x2="81.89" y2="74.47" fill="none" stroke="#a7a9ac" stroke-miterlimit="10" stroke-width=".5"/>
      <line x1="79.88" y1="74.38" x2="79.47" y2="79.02" fill="none" stroke="#a7a9ac" stroke-miterlimit="10" stroke-width=".5"/>
      <line x1="77.89" y1="74.11" x2="77.08" y2="78.7" fill="none" stroke="#a7a9ac" stroke-miterlimit="10" stroke-width=".5"/>
      <line x1="75.93" y1="73.68" x2="74.73" y2="78.18" fill="none" stroke="#a7a9ac" stroke-miterlimit="10" stroke-width=".5"/>
      <line x1="74" y1="73.08" x2="72.41" y2="77.45" fill="none" stroke="#a7a9ac" stroke-miterlimit="10" stroke-width=".5"/>
      <line x1="72.15" y1="72.31" x2="70.19" y2="76.53" fill="none" stroke="#a7a9ac" stroke-miterlimit="10" stroke-width=".5"/>
      <line x1="70.37" y1="71.38" x2="68.05" y2="75.41" fill="none" stroke="#a7a9ac" stroke-miterlimit="10" stroke-width=".5"/>
      <line x1="68.68" y1="70.3" x2="66.01" y2="74.11" fill="none" stroke="#a7a9ac" stroke-miterlimit="10" stroke-width=".5"/>
      <line x1="67.09" y1="69.08" x2="64.1" y2="72.64" fill="none" stroke="#a7a9ac" stroke-miterlimit="10" stroke-width=".5"/>
      <line x1="65.61" y1="67.72" x2="62.31" y2="71.01" fill="none" stroke="#a7a9ac" stroke-miterlimit="10" stroke-width=".5"/>
      <line x1="64.25" y1="66.23" x2="60.68" y2="69.23" fill="none" stroke="#a7a9ac" stroke-miterlimit="10" stroke-width=".5"/>
      <line x1="63.03" y1="64.64" x2="59.21" y2="67.32" fill="none" stroke="#a7a9ac" stroke-miterlimit="10" stroke-width=".5"/>
      <line x1="61.95" y1="62.95" x2="57.91" y2="65.28" fill="none" stroke="#a7a9ac" stroke-miterlimit="10" stroke-width=".5"/>
      <line x1="61.02" y1="61.17" x2="56.79" y2="63.14" fill="none" stroke="#a7a9ac" stroke-miterlimit="10" stroke-width=".5"/>
      <line x1="60.25" y1="59.31" x2="55.87" y2="60.91" fill="none" stroke="#a7a9ac" stroke-miterlimit="10" stroke-width=".5"/>
      <line x1="59.65" y1="57.39" x2="55.14" y2="58.6" fill="none" stroke="#a7a9ac" stroke-miterlimit="10" stroke-width=".5"/>
      <line x1="59.22" y1="55.43" x2="54.62" y2="56.24" fill="none" stroke="#a7a9ac" stroke-miterlimit="10" stroke-width=".5"/>
      <line x1="58.95" y1="53.44" x2="54.3" y2="53.85" fill="none" stroke="#a7a9ac" stroke-miterlimit="10" stroke-width=".5"/>
      <line x1="58.86" y1="51.43" x2="54.2" y2="51.43" fill="none" stroke="#a7a9ac" stroke-miterlimit="10" stroke-width=".5"/>
      <line x1="58.95" y1="49.43" x2="54.3" y2="49.02" fill="none" stroke="#a7a9ac" stroke-miterlimit="10" stroke-width=".5"/>
      <line x1="59.22" y1="47.43" x2="54.62" y2="46.63" fill="none" stroke="#a7a9ac" stroke-miterlimit="10" stroke-width=".5"/>
      <line x1="59.65" y1="45.47" x2="55.14" y2="44.26" fill="none" stroke="#a7a9ac" stroke-miterlimit="10" stroke-width=".5"/>
      <line x1="60.24" y1="43.56" x2="55.87" y2="41.96" fill="none" stroke="#a7a9ac" stroke-miterlimit="10" stroke-width=".5"/>
      <line x1="61.01" y1="41.7" x2="56.79" y2="39.73" fill="none" stroke="#a7a9ac" stroke-miterlimit="10" stroke-width=".5"/>
      <line x1="61.95" y1="39.92" x2="57.9" y2="37.59" fill="none" stroke="#a7a9ac" stroke-miterlimit="10" stroke-width=".5"/>
      <line x1="63.03" y1="38.23" x2="59.21" y2="35.55" fill="none" stroke="#a7a9ac" stroke-miterlimit="10" stroke-width=".5"/>
      <line x1="64.25" y1="36.63" x2="60.68" y2="33.63" fill="none" stroke="#a7a9ac" stroke-miterlimit="10" stroke-width=".5"/>
      <line x1="65.6" y1="35.15" x2="62.31" y2="31.85" fill="none" stroke="#a7a9ac" stroke-miterlimit="10" stroke-width=".5"/>
      <line x1="67.09" y1="33.79" x2="64.09" y2="30.22" fill="none" stroke="#a7a9ac" stroke-miterlimit="10" stroke-width=".5"/>
      <line x1="68.68" y1="32.57" x2="66.01" y2="28.75" fill="none" stroke="#a7a9ac" stroke-miterlimit="10" stroke-width=".5"/>
      <line x1="70.38" y1="31.49" x2="68.05" y2="27.45" fill="none" stroke="#a7a9ac" stroke-miterlimit="10" stroke-width=".5"/>
      <line x1="72.16" y1="30.56" x2="70.19" y2="26.33" fill="none" stroke="#a7a9ac" stroke-miterlimit="10" stroke-width=".5"/>
      <line x1="74.01" y1="29.79" x2="72.41" y2="25.41" fill="none" stroke="#a7a9ac" stroke-miterlimit="10" stroke-width=".5"/>
      <line x1="75.93" y1="29.19" x2="74.73" y2="24.68" fill="none" stroke="#a7a9ac" stroke-miterlimit="10" stroke-width=".5"/>
      <line x1="77.89" y1="28.76" x2="77.08" y2="24.16" fill="none" stroke="#a7a9ac" stroke-miterlimit="10" stroke-width=".5"/>
      <line x1="79.88" y1="28.49" x2="79.47" y2="23.84" fill="none" stroke="#a7a9ac" stroke-miterlimit="10" stroke-width=".5"/>
      <g>
        <polyline points="83.9 28.49 84.72 19.15 85.01 15.82" fill="none" stroke="#ab2069" stroke-miterlimit="10" stroke-width=".75"/>
        <polyline points="85.89 28.76 87.52 19.52 88.1 16.23" fill="none" stroke="#ab2069" stroke-miterlimit="10" stroke-width=".75"/>
        <polyline points="87.85 29.19 90.27 20.13 91.14 16.9" fill="none" stroke="#ab2069" stroke-miterlimit="10" stroke-width=".75"/>
        <polyline points="89.77 29.79 92.98 20.98 94.12 17.84" fill="none" stroke="#ab2069" stroke-miterlimit="10" stroke-width=".75"/>
        <polyline points="91.63 30.56 95.58 22.06 97 19.03" fill="none" stroke="#ab2069" stroke-miterlimit="10" stroke-width=".75"/>
        <polyline points="93.41 31.48 98.09 23.37 99.76 20.47" fill="none" stroke="#ab2069" stroke-miterlimit="10" stroke-width=".75"/>
        <polyline points="95.1 32.57 100.47 24.89 102.39 22.15" fill="none" stroke="#ab2069" stroke-miterlimit="10" stroke-width=".75"/>
        <polyline points="96.69 33.79 102.72 26.61 104.87 24.05" fill="none" stroke="#ab2069" stroke-miterlimit="10" stroke-width=".75"/>
        <polyline points="98.18 35.14 104.8 28.52 107.17 26.16" fill="none" stroke="#ab2069" stroke-miterlimit="10" stroke-width=".75"/>
        <polyline points="99.53 36.62 106.71 30.6 109.27 28.45" fill="none" stroke="#ab2069" stroke-miterlimit="10" stroke-width=".75"/>
        <polyline points="100.75 38.22 108.43 32.85 111.17 30.93" fill="none" stroke="#ab2069" stroke-miterlimit="10" stroke-width=".75"/>
        <polyline points="101.84 39.92 109.96 35.23 112.85 33.56" fill="none" stroke="#ab2069" stroke-miterlimit="10" stroke-width=".75"/>
        <polyline points="102.78 41.69 111.26 37.74 114.29 36.33" fill="none" stroke="#ab2069" stroke-miterlimit="10" stroke-width=".75"/>
        <polyline points="103.54 43.55 112.34 40.35 115.48 39.21" fill="none" stroke="#ab2069" stroke-miterlimit="10" stroke-width=".75"/>
        <polyline points="104.14 45.47 113.19 43.04 116.42 42.18" fill="none" stroke="#ab2069" stroke-miterlimit="10" stroke-width=".75"/>
        <polyline points="104.57 47.44 113.8 45.81 117.09 45.23" fill="none" stroke="#ab2069" stroke-miterlimit="10" stroke-width=".75"/>
        <polyline points="104.84 49.43 114.17 48.61 117.5 48.32" fill="none" stroke="#ab2069" stroke-miterlimit="10" stroke-width=".75"/>
        <polyline points="104.93 51.43 114.29 51.43 117.64 51.43" fill="none" stroke="#ab2069" stroke-miterlimit="10" stroke-width=".75"/>
        <polyline points="104.84 53.44 114.17 54.26 117.5 54.55" fill="none" stroke="#ab2069" stroke-miterlimit="10" stroke-width=".75"/>
        <polyline points="104.57 55.43 113.8 57.06 117.09 57.64" fill="none" stroke="#ab2069" stroke-miterlimit="10" stroke-width=".75"/>
        <polyline points="104.14 57.39 113.19 59.82 116.42 60.68" fill="none" stroke="#ab2069" stroke-miterlimit="10" stroke-width=".75"/>
        <polyline points="103.54 59.31 112.34 62.52 115.48 63.66" fill="none" stroke="#ab2069" stroke-miterlimit="10" stroke-width=".75"/>
        <polyline points="102.77 61.17 111.26 65.13 114.29 66.54" fill="none" stroke="#ab2069" stroke-miterlimit="10" stroke-width=".75"/>
        <polyline points="101.84 62.95 109.95 67.64 112.85 69.31" fill="none" stroke="#ab2069" stroke-miterlimit="10" stroke-width=".75"/>
        <polyline points="100.75 64.64 108.43 70.02 111.17 71.94" fill="none" stroke="#ab2069" stroke-miterlimit="10" stroke-width=".75"/>
        <polyline points="99.53 66.24 106.71 72.26 109.27 74.41" fill="none" stroke="#ab2069" stroke-miterlimit="10" stroke-width=".75"/>
        <polyline points="98.18 67.72 104.8 74.34 107.17 76.71" fill="none" stroke="#ab2069" stroke-miterlimit="10" stroke-width=".75"/>
        <polyline points="96.69 69.08 102.71 76.25 104.87 78.82" fill="none" stroke="#ab2069" stroke-miterlimit="10" stroke-width=".75"/>
        <polyline points="95.1 70.3 100.47 77.97 102.39 80.72" fill="none" stroke="#ab2069" stroke-miterlimit="10" stroke-width=".75"/>
        <line x1="99.76" y1="82.39" x2="93.41" y2="71.38" fill="none" stroke="#ab2069" stroke-miterlimit="10" stroke-width=".75"/>
        <line x1="81.89" y1="28.4" x2="81.89" y2="15.69" fill="none" stroke="#ab2069" stroke-miterlimit="10" stroke-width=".75"/>
      </g>
    </g>
    <g>
      <text transform="translate(70.09 64.64)" fill="#fff" font-family="OpenSans-Bold, &apos;Open Sans&apos;" font-size="36" font-weight="700" stroke="#fff" stroke-miterlimit="10" stroke-width="2"><tspan x="0" y="0">25 min</tspan></text>
      <text transform="translate(70.09 64.64)" fill="#ab2069" font-family="OpenSans-Bold, &apos;Open Sans&apos;" font-size="36" font-weight="700"><tspan x="0" y="0">25 min</tspan></text>
    </g>
  </g>
  <text transform="translate(14.4 100.95)" font-family="OpenSans-Bold, &apos;Open Sans&apos;" font-size="14.67" font-weight="700"><tspan x="0" y="0">median nationwide </tspan><tspan x="146.01" y="0" fill="#ab2069">wait time</tspan></text>
  <text transform="translate(14.4 115.2)" font-family="OpenSans-Bold, &apos;Open Sans&apos;" font-size="10.43" font-weight="700"><tspan x="0" y="0">for community mental health counselling</tspan></text>
</svg>