<?xml version="1.0" encoding="UTF-8"?>
<svg xmlns="http://www.w3.org/2000/svg" viewBox="0 0 489.6 259.2">
  <g id="rural">
    <polyline points="405.51 162.25 358.08 162.25 358.08 149.36" fill="none" stroke="#8cbf3f" stroke-miterlimit="10" stroke-width=".5"/>
    <line x1="357.91" y1="145.41" x2="457.63" y2="145.41" fill="none" stroke="#00a28a" stroke-miterlimit="10" stroke-width=".5"/>
    <path d="M357.91,145.41h3.59c-.04-.74-.08-1.46-.14-2.31l-29.16,2.04c.07,1.01.12,2.03.16,3.05l29.22-1.02c-.02-.64-.05-1.21-.07-1.77h-3.59Z" fill="#00a28a" stroke="#fff" stroke-miterlimit="10" stroke-width=".5"/>
    <polyline points="404.99 135.57 357.55 135.57 357.55 138.37" fill="none" stroke="#7d2f8e" stroke-miterlimit="10" stroke-width=".5"/>
    <polyline points="395.34 113.72 350.59 113.72 350.59 120.32" fill="none" stroke="#6c297b" stroke-miterlimit="10" stroke-width=".5"/>
    <polyline points="377.51 85.15 332.76 85.15 332.76 92.15" fill="none" stroke="#5b2368" stroke-miterlimit="10" stroke-width=".5"/>
    <polyline points="320.17 38.73 295.18 38.73 295.18 57.73" fill="none" stroke="#4a1c55" stroke-miterlimit="10" stroke-width=".5"/>
    <text transform="translate(342.03 78.06)" fill="#5b2368" font-family="OpenSans-Bold, &apos;Open Sans&apos;" font-size="9.28" font-weight="700"><tspan x="0" y="0">10 to 19</tspan></text>
    <text transform="translate(352.64 83.18)" fill="#5b2368" font-family="OpenSans-Bold, &apos;Open Sans&apos;" font-size="4.69" font-weight="700"><tspan x="0" y="0">employees</tspan></text>
    <text transform="translate(359.53 106.53)" fill="#6c297b" font-family="OpenSans-Bold, &apos;Open Sans&apos;" font-size="9.28" font-weight="700"><tspan x="0" y="0">20 to 49</tspan></text>
    <text transform="translate(370.14 111.66)" fill="#6c297b" font-family="OpenSans-Bold, &apos;Open Sans&apos;" font-size="4.69" font-weight="700"><tspan x="0" y="0">employees</tspan></text>
    <text transform="translate(369.36 128.56)" fill="#4a1c55" font-family="OpenSans-Bold, &apos;Open Sans&apos;" font-size="9.28" font-weight="700"><tspan x="0" y="0">50 to 99</tspan></text>
    <text transform="translate(379.97 133.68)" fill="#4a1c55" font-family="OpenSans-Bold, &apos;Open Sans&apos;" font-size="4.69" font-weight="700"><tspan x="0" y="0">employees</tspan></text>
    <text transform="translate(411.39 138.37)" fill="#00a28a" font-family="OpenSans-Bold, &apos;Open Sans&apos;" font-size="9.28" font-weight="700"><tspan x="0" y="0">100 to 199</tspan></text>
    <text transform="translate(432.61 143.49)" fill="#00a28a" font-family="OpenSans-Bold, &apos;Open Sans&apos;" font-size="4.69" font-weight="700"><tspan x="0" y="0">employees</tspan></text>
    <text transform="translate(384.43 155.31)" fill="#8cbf3f" font-family="OpenSans-Bold, &apos;Open Sans&apos;" font-size="9.28" font-weight="700"><tspan x="0" y="0">200+</tspan></text>
    <text transform="translate(380.45 160.43)" fill="#8cbf3f" font-family="OpenSans-Bold, &apos;Open Sans&apos;" font-size="4.69" font-weight="700"><tspan x="0" y="0">employees</tspan></text>
    <text transform="translate(295.18 31.8)" fill="#4a1c55" font-family="OpenSans-Bold, &apos;Open Sans&apos;" font-size="9.28" font-weight="700"><tspan x="0" y="0">5 to 9</tspan></text>
    <text transform="translate(151.73 36.29)" fill="#3a1642" font-family="OpenSans-Bold, &apos;Open Sans&apos;" font-size="9.28" font-weight="700"><tspan x="0" y="0">1 to 4</tspan></text>
    <text transform="translate(151.73 41.5)" fill="#3a1642" font-family="OpenSans-Bold, &apos;Open Sans&apos;" font-size="4.69" font-weight="700"><tspan x="0" y="0">employees</tspan></text>
    <polyline points="151.94 43.45 176.93 43.45 176.93 68.28" fill="none" stroke="#3a1642" stroke-miterlimit="10" stroke-width=".5"/>
    <path d="M244.8,34.41c-25.31,0-48.74,8.05-67.87,21.73v12.14-12.14c-29.65,21.18-48.97,55.89-48.97,95.11h29.21c0-48.4,39.23-87.63,87.63-87.63,6.25,0,12.35.66,18.23,1.91l6.07-28.57c-8.46-1.8-15.65-2.55-24.3-2.55Z" fill="#3a1642" stroke="#fff" stroke-miterlimit="10" stroke-width=".5"/>
    <circle cx="176.93" cy="68.28" r=".68" fill="#fff" stroke="#fff" stroke-miterlimit="10" stroke-width=".5"/>
    <text transform="translate(295.18 37.02)" fill="#4a1c55" font-family="OpenSans-Bold, &apos;Open Sans&apos;" font-size="4.69" font-weight="700"><tspan x="0" y="0">employees</tspan></text>
    <path d="M295.18,45.55v12.18-12.18c-7.99-3.76-16.57-6.57-26.09-8.59l-6.07,28.57c16.37,3.46,31.04,11.5,42.64,22.7l20.31-21.03c-9.72-9.38-19.69-16.43-30.79-21.65Z" fill="#4a1c55" stroke="#fff" stroke-miterlimit="10" stroke-width=".5"/>
    <circle cx="295.18" cy="57.73" r=".68" fill="#fff" stroke="#fff" stroke-miterlimit="10" stroke-width=".5"/>
    <path d="M332.76,85.15v6.99-6.99h8.52c-4.34-6.34-9.33-12.19-15.3-17.95l-20.31,21.03c8.03,7.76,14.58,17.04,19.2,27.38l26.69-11.88c-3.03-6.8-6.38-12.89-10.27-18.57h-8.52Z" fill="#5b2368" stroke="#fff" stroke-miterlimit="10" stroke-width=".5"/>
    <circle cx="332.76" cy="92.14" r=".68" fill="#fff" stroke="#fff" stroke-miterlimit="10" stroke-width=".5"/>
    <path d="M350.59,113.72v6.6-6.6h4.88c-1.14-3.33-2.43-6.64-3.93-9.99l-26.69,11.88c3.07,6.89,5.3,14.24,6.5,21.93l28.85-4.57c-1.07-6.76-2.62-13.04-4.74-19.25h-4.88Z" fill="#6c297b" stroke="#fff" stroke-miterlimit="10" stroke-width=".5"/>
    <path d="M357.55,135.57v2.8-2.8h3.05c-.12-.84-.24-1.7-.39-2.6l-28.85,4.57c.39,2.5.66,5.04.84,7.6l29.16-2.04c-.19-2.7-.42-5.03-.77-7.53h-3.05Z" fill="#7d2f8e" stroke="#fff" stroke-miterlimit="10" stroke-width=".5"/>
    <path d="M361.63,149.21c-.01-.71-.03-1.33-.05-2.04l-29.22,1.02c.02.51.03,1.02.04,1.53,0,.51.04,1.02.04,1.53h25.64v-1.89,1.89h3.57c0-.32-.01-1.72-.02-2.04Z" fill="#8cbf3f" stroke="#fff" stroke-miterlimit="10" stroke-width=".5"/>
    <circle cx="350.59" cy="120.32" r=".68" fill="#fff" stroke="#fff" stroke-miterlimit="10" stroke-width=".5"/>
    <circle cx="357.55" cy="138.37" r=".68" fill="#fff" stroke="#fff" stroke-miterlimit="10" stroke-width=".5"/>
    <circle cx="357.91" cy="145.41" r=".68" fill="#fff" stroke="#fff" stroke-miterlimit="10" stroke-width=".5"/>
    <circle cx="358.07" cy="149.32" r=".68" fill="#fff" stroke="#fff" stroke-miterlimit="10" stroke-width=".5"/>
  </g>
  <g id="Layer_4" data-name="Layer 4">
    <text transform="translate(127.98 173.78)" font-family="OpenSans-Bold, &apos;Open Sans&apos;" font-size="16.57" font-weight="700"><tspan x="0" y="0">of enterprises in Canada are</tspan></text>
    <text transform="translate(127.98 201.53)" fill="#6c297b" font-family="OpenSans-Bold, &apos;Open Sans&apos;" font-size="27.9" font-weight="700"><tspan x="0" y="0">small businesses</tspan></text>
    <text transform="translate(183.94 151.25)" fill="#6c297b" font-family="OpenSans-Bold, &apos;Open Sans&apos;" font-size="59.54" font-weight="700"><tspan x="0" y="0">98%</tspan></text>
    <text transform="translate(127.98 218)" fill="#231f20" font-family="OpenSans-Bold, &apos;Open Sans&apos;" font-size="12.7" font-weight="700"><tspan x="0" y="0">with less than 100 employees in 2025</tspan></text>
  </g>
  <g id="Layer_7" data-name="Layer 7">
    <path id="path37" d="M0,244.8h489.6" fill="none" stroke="#231f20" stroke-miterlimit="3" stroke-width=".57"/>
    <text transform="translate(7.37 254.05)" font-size="8"><tspan x="0" y="0" font-family="OpenSans-Bold, &apos;Open Sans&apos;" font-weight="700">Data Sources:</tspan><tspan x="54.48" y="0" xml:space="preserve" font-family="OpenSans, &apos;Open Sans&apos;"> Business Register (2025)</tspan></text>
  </g>
</svg>