<?xml version="1.0" encoding="UTF-8"?>
<svg xmlns="http://www.w3.org/2000/svg" viewBox="0 0 244.8 213.62">
  <g id="Layer_4" data-name="Layer 4">
    <polyline points="233.4 79.54 189.21 79.54 189.21 93.06" fill="none" stroke="#7d2f8e" stroke-miterlimit="10" stroke-width=".5"/>
    <polyline points="226.48 63.03 185.07 63.03 185.07 82.34" fill="none" stroke="#6c297b" stroke-miterlimit="10" stroke-width=".5"/>
    <g>
      <path d="M187.97,78.42c-.68-1.98-1.44-3.94-2.33-5.94l-.57.25v9.61-9.61l-15.29,6.81c1.83,4.09,3.15,8.46,3.86,13.03l15.56-2.46v-7.61c-.37-1.37-.77-2.73-1.23-4.08Z" fill="#6c297b" stroke="#fff" stroke-miterlimit="10" stroke-width=".5"/>
      <path d="M189.21,82.5v7.61l1.58-.25c-.4-2.55-.94-4.98-1.58-7.36Z" fill="#6c297b" stroke="#fff" stroke-miterlimit="10" stroke-width=".5"/>
    </g>
    <polyline points="237.6 113.04 189.52 113.04 189.52 99.59" fill="none" stroke="#8cbf3f" stroke-miterlimit="10" stroke-width=".5"/>
    <line x1="189.43" y1="97.24" x2="237.86" y2="97.24" fill="none" stroke="#00a28a" stroke-miterlimit="10" stroke-width=".5"/>
    <path d="M189.43,97.24h2.13c-.02-.44-.05-.87-.08-1.37l-17.33,1.21c.04.6.07,1.21.09,1.81l17.36-.61c-.01-.38-.03-.72-.04-1.05h-2.13Z" fill="#00a28a" stroke="#fff" stroke-miterlimit="10" stroke-width=".5"/>
    <polyline points="178.54 30.21 152.15 30.21 152.15 45.16" fill="none" stroke="#4a1c55" stroke-miterlimit="10" stroke-width=".5"/>
    <text transform="translate(185.57 37.12)" fill="#5b2368" font-family="OpenSans-Bold, &apos;Open Sans&apos;" font-weight="700"><tspan font-size="8"><tspan x="0" y="0">10 to 19</tspan></tspan><tspan font-size="5"><tspan x="3.99" y="6">employees</tspan></tspan></text>
    <text transform="translate(195.6 55.33)" fill="#6c297b" font-family="OpenSans-Bold, &apos;Open Sans&apos;" font-weight="700"><tspan font-size="8"><tspan x="0" y="0">20 to 49</tspan></tspan><tspan font-size="5"><tspan x="3.99" y="6">employees</tspan></tspan></text>
    <text transform="translate(202.52 71.77)" fill="#7d2f8e" font-family="OpenSans-Bold, &apos;Open Sans&apos;" font-weight="700"><tspan font-size="8"><tspan x="0" y="0">50 to 99</tspan></tspan><tspan font-size="5"><tspan x="3.99" y="6">employees</tspan></tspan></text>
    <text transform="translate(219.3 105.41)" fill="#8cbf3f" font-family="OpenSans-Bold, &apos;Open Sans&apos;" font-weight="700"><tspan font-size="8"><tspan x="0" y="0">200+</tspan></tspan><tspan font-size="5"><tspan x="-8.59" y="6">employees</tspan></tspan></text>
    <text transform="translate(60.17 29)" fill="#3a1642" font-family="OpenSans-Bold, &apos;Open Sans&apos;" font-weight="700"><tspan font-size="8"><tspan x="0" y="0">1 to 4</tspan></tspan><tspan font-size="5"><tspan x="-5.16" y="6">employees</tspan></tspan></text>
    <polyline points="55.24 36.67 81.9 36.67 81.9 51.42" fill="none" stroke="#3a1642" stroke-miterlimit="10" stroke-width=".5"/>
    <path d="M122.22,31.3c-15.04,0-28.96,4.78-40.32,12.91v7.21-7.21c-17.62,12.58-29.09,33.2-29.09,56.51h17.35c0-28.75,23.31-52.06,52.06-52.06,3.71,0,7.34.39,10.83,1.13l3.61-16.97c-5.03-1.07-9.3-1.52-14.44-1.52Z" fill="#3a1642" stroke="#fff" stroke-miterlimit="10" stroke-width=".5"/>
    <circle cx="81.9" cy="51.42" r=".41" fill="#fff" stroke="#fff" stroke-miterlimit="10" stroke-width=".5"/>
    <text transform="translate(156.81 22.5)" fill="#4a1c55" font-family="OpenSans-Bold, &apos;Open Sans&apos;" font-weight="700"><tspan font-size="8"><tspan x="0" y="0">5 to 9</tspan></tspan><tspan font-size="5"><tspan x="-5.16" y="6">employees</tspan></tspan></text>
    <path d="M152.15,37.92v7.24-7.24c-4.75-2.23-9.85-3.9-15.5-5.11l-3.61,16.97c9.72,2.06,18.44,6.83,25.33,13.49l12.07-12.49c-5.77-5.57-11.7-9.76-18.29-12.86Z" fill="#4a1c55" stroke="#fff" stroke-miterlimit="10" stroke-width=".5"/>
    <circle cx="152.15" cy="45.16" r=".41" fill="#fff" stroke="#fff" stroke-miterlimit="10" stroke-width=".5"/>
    <path d="M190.79,89.86l-1.58.25v2.95-2.95l-15.56,2.46c.23,1.48.39,2.99.5,4.51l17.33-1.21c-.11-1.6-.25-2.99-.46-4.47-.07-.5-.14-1.01-.23-1.55Z" fill="#7d2f8e" stroke="#fff" stroke-miterlimit="10" stroke-width=".5"/>
    <path d="M191.63,99.51c0-.42-.02-.79-.03-1.21l-17.36.61c.01.3.02.6.02.91,0,.3.02.6.02.91h15.23v-1.12,1.12h2.12c0-.19,0-1.02-.01-1.21Z" fill="#8cbf3f" stroke="#fff" stroke-miterlimit="10" stroke-width=".5"/>
    <circle cx="185.07" cy="82.34" r=".41" fill="#fff" stroke="#fff" stroke-miterlimit="10" stroke-width=".5"/>
    <circle cx="189.21" cy="93.07" r=".41" fill="#fff" stroke="#fff" stroke-miterlimit="10" stroke-width=".5"/>
    <circle cx="189.43" cy="97.24" r=".41" fill="#fff" stroke="#fff" stroke-miterlimit="10" stroke-width=".5"/>
    <circle cx="189.52" cy="99.57" r=".41" fill="#fff" stroke="#fff" stroke-miterlimit="10" stroke-width=".5"/>
    <polyline points="216.45 44.82 174.48 44.82 174.48 65.6" fill="none" stroke="#5b2368" stroke-miterlimit="10" stroke-width=".5"/>
    <g>
      <path d="M185.07,71.27v1.46l.57-.25c-.18-.41-.38-.81-.57-1.21Z" fill="#5b2368" stroke="#fff" stroke-miterlimit="10" stroke-width=".5"/>
      <path d="M179.54,61.45c-.6-.87-1.22-1.72-1.86-2.57-1.01-1.32-2.07-2.62-3.2-3.89v10.61-10.61c-1.26-1.42-2.59-2.82-4.03-4.21l-12.07,12.49c4.77,4.61,8.66,10.12,11.4,16.27l15.29-6.81v-1.46c-1.65-3.55-3.46-6.79-5.53-9.82Z" fill="#5b2368" stroke="#fff" stroke-miterlimit="10" stroke-width=".5"/>
    </g>
    <circle cx="174.48" cy="65.6" r=".41" fill="#fff" stroke="#fff" stroke-miterlimit="10" stroke-width=".5"/>
    <text fill="#00a28a" font-family="OpenSans-Bold, &apos;Open Sans&apos;" font-weight="700"><tspan font-size="8"><tspan x="198.02" y="89.5">100 to 199</tspan></tspan><tspan font-size="5"><tspan x="211.16" y="95.5">employees</tspan></tspan></text>
    <text transform="translate(31.85 122.58)" font-family="OpenSans-Bold, &apos;Open Sans&apos;" font-size="12.82" font-weight="700"><tspan x="0" y="0">of enterprises in Canada are</tspan></text>
    <text transform="translate(84.58 100.38)" fill="#6c297b" font-family="OpenSans-Bold, &apos;Open Sans&apos;" font-size="37" font-weight="700"><tspan x="0" y="0">98%</tspan></text>
    <text transform="translate(32.04 143.82)" font-family="OpenSans-Bold, &apos;Open Sans&apos;" font-weight="700"><tspan fill="#6c297b" font-size="21.58"><tspan x="0" y="0">small businesses</tspan></tspan><tspan fill="#231f20" font-size="10.6"><tspan x="0" y="12.72">(under 100 employees), employing</tspan></tspan><tspan fill="#231f20" font-size="9.78"><tspan x="0" y="24.45">6.8 million people nationwide in 2024</tspan></tspan></text>
  </g>
  <g id="Layer_7" data-name="Layer 7">
    <path id="path37" d="M0,187.2h244.8" fill="none" stroke="#231f20" stroke-miterlimit="3" stroke-width=".57"/>
    <text transform="translate(7.37 196.45)" font-size="8"><tspan x="0" y="0" font-family="OpenSans-Bold, &apos;Open Sans&apos;" font-weight="700">Data Sources:</tspan><tspan x="54.48" y="0" xml:space="preserve" font-family="OpenSans, &apos;Open Sans&apos;"> Business Register (2025), Survey of </tspan><tspan font-family="OpenSans, &apos;Open Sans&apos;"><tspan x="0" y="9.6">Employment, Payrolls and Hours (2024)</tspan></tspan></text>
  </g>
</svg>