<?xml version="1.0" encoding="UTF-8"?>
<svg xmlns="http://www.w3.org/2000/svg" viewBox="0 0 489.6 366.99">
  <g id="Layer_1" data-name="Layer 1">
    <rect x="12.04" y="41.76" width="40.59" height="14.69" rx="1.83" ry="1.83" fill="#6c297b"/>
    <rect x="76.18" y="41.76" width="34.06" height="14.69" rx="1.84" ry="1.84" fill="#00a28a"/>
    <path d="M198.72,320.89v-190.56H14.4v190.56c0,1.71,1.53,3.1,3.43,3.1h177.47c1.89,0,3.43-1.39,3.43-3.1Z" fill="#6c297b" stroke="#fff" stroke-width="2"/>
    <path d="M202.15,237.6h131.12v-86.4h-131.12c-1.89,0-3.43,1.39-3.43,3.1v80.19c0,1.71,1.53,3.1,3.43,3.1Z" fill="#6c297b" stroke="#fff" stroke-width="2"/>
    <path d="M333.27,237.6h36.72c1.89,0,3.43-1.39,3.43-3.1v-80.19c0-1.71-1.53-3.1-3.43-3.1h-36.72v86.4Z" fill="#00a28a" stroke="#fff" stroke-width="2"/>
    <path d="M376.84,237.6h69.97v-86.4h-69.97c-1.89,0-3.43,1.39-3.43,3.1v80.19c0,1.71,1.53,3.1,3.43,3.1Z" fill="#6c297b" stroke="#fff" stroke-width="2"/>
    <path d="M446.81,237.6h24.96c1.89,0,3.43-1.39,3.43-3.1v-80.19c0-1.71-1.53-3.1-3.43-3.1h-24.96v86.4Z" fill="#00a28a" stroke="#fff" stroke-width="2"/>
    <path d="M202.15,324h62.4v-86.4h-62.4c-1.89,0-3.43,1.39-3.43,3.1v80.19c0,1.71,1.53,3.1,3.43,3.1Z" fill="#6c297b" stroke="#fff" stroke-width="2"/>
    <path d="M264.55,324h63.45c1.89,0,3.43-1.39,3.43-3.1v-80.19c0-1.71-1.53-3.1-3.43-3.1h-63.45v86.4Z" fill="#00a28a" stroke="#fff" stroke-width="2"/>
    <path d="M334.85,324h68.49v-86.4h-68.49c-1.89,0-3.43,1.39-3.43,3.1v80.19c0,1.71,1.53,3.1,3.43,3.1Z" fill="#6c297b" stroke="#fff" stroke-width="2"/>
    <path d="M403.34,324h35.62c1.89,0,3.43-1.39,3.43-3.1v-80.19c0-1.71-1.53-3.1-3.43-3.1h-35.62v86.4Z" fill="#00a28a" stroke="#fff" stroke-width="2"/>
    <path d="M202.15,151.2h59.47v-86.4h-59.47c-1.89,0-3.43,1.39-3.43,3.1v80.19c0,1.71,1.53,3.1,3.43,3.1Z" fill="#6c297b" stroke="#fff" stroke-width="2"/>
    <path d="M261.62,151.2h70.78c1.89,0,3.43-1.39,3.43-3.1v-80.19c0-1.71-1.53-3.1-3.43-3.1h-70.78v86.4Z" fill="#00a28a" stroke="#fff" stroke-width="2"/>
    <path d="M339.25,151.2h59.65v-86.4h-59.65c-1.89,0-3.43,1.39-3.43,3.1v80.19c0,1.71,1.53,3.1,3.43,3.1Z" fill="#6c297b" stroke="#fff" stroke-width="2"/>
    <path d="M398.9,151.2h72.88c1.89,0,3.43-1.39,3.43-3.1v-80.19c0-1.71-1.53-3.1-3.43-3.1h-72.88v86.4Z" fill="#00a28a" stroke="#fff" stroke-width="2"/>
    <text transform="translate(92.37 100.38) scale(1.1 1)" fill="#fff" font-family="OpenSans-Bold, &apos;Open Sans&apos;" font-size="10" font-weight="700"><tspan x="0" y="0">8,696</tspan></text>
    <path d="M442.38,240.7v65.26h32.82v-65.26c0-1.71-1.53-3.1-3.42-3.1h-25.97c-1.89,0-3.42,1.39-3.42,3.1Z" fill="#6c297b" stroke="#fff" stroke-width="2"/>
    <path d="M442.38,305.96v14.93c0,1.71,1.53,3.1,3.42,3.1h25.97c1.89,0,3.42-1.39,3.42-3.1v-14.93s-32.82,0-32.82,0Z" fill="#00a28a" stroke="#fff" stroke-width="2"/>
    <text transform="translate(14.4 21.6) rotate(.17)" font-family="OpenSans-Bold, &apos;Open Sans&apos;" font-size="20" font-weight="700"><tspan x="0" y="0">Community spaces across Canada</tspan></text>
    <text transform="translate(14.4 38.88)" font-size="12"><tspan x="0" y="0" font-family="OpenSans, &apos;Open Sans&apos;">Inventory of </tspan><tspan x="70.8" y="0" font-family="OpenSans-Bold, &apos;Open Sans&apos;" font-weight="700">69,052 </tspan><tspan x="111.64" y="0" font-family="OpenSans, &apos;Open Sans&apos;">publicly owned culture, recreation, and sports facilities across </tspan><tspan x="0" y="14.4" fill="#fff" font-family="OpenSans-Bold, &apos;Open Sans&apos;" font-weight="700">urban </tspan><tspan x="39.18" y="14.4" font-family="OpenSans, &apos;Open Sans&apos;">and </tspan><tspan x="63.69" y="14.4" fill="#fff" font-family="OpenSans-Bold, &apos;Open Sans&apos;" font-weight="700">rural </tspan><tspan x="96.5" y="14.4" font-family="OpenSans, &apos;Open Sans&apos;">municipalities.</tspan></text>
    <path d="M198.72,130.34v-62.43c0-1.71-1.53-3.1-3.43-3.1H17.83c-1.89,0-3.43,1.39-3.43,3.1v62.43h184.32Z" fill="#00a28a" stroke="#fff" stroke-width="2"/>
    <g>
      <rect x="14.4" y="64.8" width="184.32" height="259.2" rx="6.05" ry="6.05" fill="none" stroke="#fff" stroke-width="4"/>
      <rect x="198.72" y="64.8" width="137.1" height="86.4" rx="6.05" ry="6.05" fill="none" stroke="#fff" stroke-width="4"/>
      <rect x="198.72" y="151.2" width="174.7" height="86.4" rx="6.05" ry="6.05" fill="none" stroke="#fff" stroke-width="4"/>
      <rect x="198.72" y="237.6" width="132.71" height="86.4" rx="6.05" ry="6.05" fill="none" stroke="#fff" stroke-width="4"/>
      <rect x="331.43" y="237.6" width="110.96" height="86.4" rx="6.05" ry="6.05" fill="none" stroke="#fff" stroke-width="4"/>
      <rect x="442.38" y="237.6" width="32.46" height="86.4" rx="6.05" ry="6.05" fill="none" stroke="#fff" stroke-width="4"/>
      <rect x="373.43" y="151.2" width="101.77" height="86.4" rx="6.05" ry="6.05" fill="none" stroke="#fff" stroke-width="4"/>
      <rect x="335.82" y="64.8" width="139.38" height="86.4" rx="6.05" ry="6.05" fill="none" stroke="#fff" stroke-width="4"/>
    </g>
    <path id="path37" d="M0,331.2h489.6" fill="none" stroke="#231f20" stroke-miterlimit="3" stroke-width=".57"/>
    <text transform="translate(7.37 340.45)" font-size="8"><tspan font-family="OpenSans, &apos;Open Sans&apos;"><tspan x="0" y="0">*Arts &amp; Culture Facilities includes art galleries, libraries, museums, and theatres; **Outdoor Specialty Areas includes off-leash </tspan></tspan><tspan font-family="OpenSans, &apos;Open Sans&apos;"><tspan x="0" y="9.6">dog parks and skate parks; ***Multi-purpose buildings includes sports centres and other facilities</tspan></tspan><tspan x="0" y="19.2" font-family="OpenSans-Bold, &apos;Open Sans&apos;" font-weight="700">Data Sources:</tspan><tspan x="54.48" y="19.2" xml:space="preserve" font-family="OpenSans, &apos;Open Sans&apos;"> Canada&apos;s Core Public Infrastructure Survey (2022)</tspan></text>
  </g>
  <g id="Layer_5" data-name="Layer 5">
    <text transform="translate(475.2 259.95) rotate(90)" fill="#231f20" font-family="OpenSans-Bold, &apos;Open Sans&apos;" font-size="10" font-weight="700"><tspan x="0" y="0">Indoor Pools</tspan></text>
    <text transform="translate(92.41 229.98)" fill="#f1f2f2" font-family="OpenSans-Bold, &apos;Open Sans&apos;" font-size="9" font-weight="700"><tspan x="0" y="0">34,393</tspan></text>
    <text transform="translate(218.59 110.81)" fill="#f1f2f2" font-family="OpenSans-Bold, &apos;Open Sans&apos;" font-size="9" font-weight="700"><tspan x="0" y="0">2,097</tspan></text>
    <text transform="translate(287.14 110.81)" fill="#f1f2f2" font-family="OpenSans-Bold, &apos;Open Sans&apos;" font-size="9" font-weight="700"><tspan x="0" y="0">2,474</tspan></text>
    <text transform="translate(254.42 197.21)" fill="#f1f2f2" font-family="OpenSans-Bold, &apos;Open Sans&apos;" font-size="9" font-weight="700"><tspan x="0" y="0">5,342</tspan></text>
    <text transform="translate(220.06 283.61)" fill="#f1f2f2" font-family="OpenSans-Bold, &apos;Open Sans&apos;" font-size="9" font-weight="700"><tspan x="0" y="0">1,374</tspan></text>
    <text transform="translate(286.41 283.61)" fill="#f1f2f2" font-family="OpenSans-Bold, &apos;Open Sans&apos;" font-size="9" font-weight="700"><tspan x="0" y="0">1,396</tspan></text>
    <text transform="translate(355.81 283.61)" fill="#f1f2f2" font-family="OpenSans-Bold, &apos;Open Sans&apos;" font-size="9" font-weight="700"><tspan x="0" y="0">1,501</tspan></text>
    <text transform="translate(415.14 283.61)" fill="#f1f2f2" font-family="OpenSans-Bold, &apos;Open Sans&apos;" font-size="9" font-weight="700"><tspan x="0" y="0">815</tspan></text>
    <text transform="translate(341.77 197.21)" fill="#f1f2f2" font-family="OpenSans-Bold, &apos;Open Sans&apos;" font-size="9" font-weight="700"><tspan x="0" y="0">1,594</tspan></text>
    <text transform="translate(398.54 197.21)" fill="#f1f2f2" font-family="OpenSans-Bold, &apos;Open Sans&apos;" font-size="9" font-weight="700"><tspan x="0" y="0">2,914</tspan></text>
    <text transform="translate(355.78 110.81)" fill="#f1f2f2" font-family="OpenSans-Bold, &apos;Open Sans&apos;" font-size="9" font-weight="700"><tspan x="0" y="0">2,103</tspan></text>
    <text transform="translate(425.47 110.81)" fill="#f1f2f2" font-family="OpenSans-Bold, &apos;Open Sans&apos;" font-size="9" font-weight="700"><tspan x="0" y="0">2,544</tspan></text>
    <text transform="translate(451.07 277.65)" fill="#f1f2f2" font-family="OpenSans-Bold, &apos;Open Sans&apos;" font-size="9" font-weight="700"><tspan x="0" y="0">542</tspan></text>
    <text transform="translate(451.07 317.79)" fill="#f1f2f2" font-family="OpenSans-Bold, &apos;Open Sans&apos;" font-size="9" font-weight="700"><tspan x="0" y="0">143</tspan></text>
    <text transform="translate(449.43 197.21)" fill="#f1f2f2" font-family="OpenSans-Bold, &apos;Open Sans&apos;" font-size="9" font-weight="700" stroke="#00a28a" stroke-miterlimit="10"><tspan x="0" y="0">1,127</tspan></text>
    <text transform="translate(94.98 100.38)" fill="#f1f2f2" font-family="OpenSans-Bold, &apos;Open Sans&apos;" font-size="9" font-weight="700"><tspan x="0" y="0">8,696</tspan></text>
    <text transform="translate(449.43 197.21)" fill="#f1f2f2" font-family="OpenSans-Bold, &apos;Open Sans&apos;" font-size="9" font-weight="700"><tspan x="0" y="0">1,127</tspan></text>
    <g>
      <text transform="translate(206.88 313.85)" font-family="OpenSans-Bold, &apos;Open Sans&apos;" font-size="10" font-weight="700"><tspan x="0" y="0" fill="#fff">Ice Facilitie</tspan><tspan x="56.08" y="0" fill="#00a28a" stroke="#00a28a" stroke-miterlimit="10">s</tspan></text>
      <text transform="translate(339.69 301.85)" font-family="OpenSans-Bold, &apos;Open Sans&apos;" font-size="10" font-weight="700"><tspan x="0" y="0" fill="#6c297b" stroke="#6c297b" stroke-miterlimit="10">Multi-purpos</tspan><tspan x="64.59" y="0" fill="#fff">e</tspan><tspan fill="#fff"><tspan x="0" y="12">buildings</tspan></tspan></text>
      <text transform="translate(207.09 129.16)" font-family="OpenSans-Bold, &apos;Open Sans&apos;" font-size="10" font-weight="700"><tspan x="0" y="0" fill="#6c297b" stroke="#6c297b">Arts &amp; Cult</tspan><tspan x="53.78" y="0" fill="#00a28a" stroke="#00a28a">ure</tspan><tspan fill="#fff"><tspan x="0" y="12">Facilities</tspan></tspan></text>
      <text transform="translate(381.6 215.45)" font-family="OpenSans-Bold, &apos;Open Sans&apos;" font-size="10" font-weight="700"><tspan fill="#fff"><tspan x="0" y="0">Outdoor</tspan></tspan><tspan x="0" y="12" fill="#fff">Speciality Ar</tspan><tspan x="62.15" y="12" fill="#00a28a" stroke="#00a28a" stroke-miterlimit="10">eas</tspan></text>
      <text transform="translate(344.1 141.05)" font-family="OpenSans-Bold, &apos;Open Sans&apos;" font-size="10" font-weight="700"><tspan x="0" y="0" fill="#fff">Communit</tspan><tspan x="52.74" y="0" fill="#00a28a" stroke="#00a28a" stroke-miterlimit="10">y Centres</tspan></text>
      <text transform="translate(22.56 313.85)" fill="#fff" font-family="OpenSans-Bold, &apos;Open Sans&apos;" font-size="10" font-weight="700"><tspan x="0" y="0">Parks</tspan></text>
      <text transform="translate(206.97 215.45)" fill="#fff" font-family="OpenSans-Bold, &apos;Open Sans&apos;" font-size="10" font-weight="700"><tspan x="0" y="0">Outdoor Sports</tspan><tspan x="0" y="12">Facilities</tspan></text>
      <text transform="translate(381.6 215.45)" fill="#fff" font-family="OpenSans-Bold, &apos;Open Sans&apos;" font-size="10" font-weight="700"><tspan x="0" y="0">Outdoor</tspan><tspan x="0" y="12">Speciality Areas**</tspan></text>
      <text transform="translate(206.88 313.85)" fill="#fff" font-family="OpenSans-Bold, &apos;Open Sans&apos;" font-size="10" font-weight="700"><tspan x="0" y="0">Ice Facilities</tspan></text>
      <text transform="translate(339.69 301.85)" fill="#fff" font-family="OpenSans-Bold, &apos;Open Sans&apos;" font-size="10" font-weight="700"><tspan x="0" y="0">Multi-purpose</tspan><tspan x="0" y="12">buildings***</tspan></text>
      <text transform="translate(344.1 141.05)" fill="#fff" font-family="OpenSans-Bold, &apos;Open Sans&apos;" font-size="10" font-weight="700"><tspan x="0" y="0">Community Centres</tspan></text>
      <text transform="translate(207.09 129.16)" fill="#fff" font-family="OpenSans-Bold, &apos;Open Sans&apos;" font-size="10" font-weight="700"><tspan x="0" y="0">Arts &amp; Culture</tspan><tspan x="0" y="12">Facilities*</tspan></text>
    </g>
  </g>
</svg>