<?xml version="1.0" encoding="UTF-8"?>
<svg id="Layer_1" data-name="Layer 1" xmlns="http://www.w3.org/2000/svg" viewBox="0 0 489.6 295.2">
  <path d="M356.89,152.06c-.7,55.49-45.38,101.15-100.84,102.99-21.66.72-41.91-5.17-58.88-15.79l6.51-10.41c.63-1,1.94-1.3,2.95-.7,13,7.72,28.11,12.26,44.25,12.54,49.66.88,91.02-39.22,91.61-88.89.6-50.21-39.92-91.1-89.99-91.1s-90,40.29-90,90h-14.4c0-28.83,11.68-54.93,30.58-73.82,18.89-18.9,44.99-30.58,73.82-30.58,58.11,0,105.13,47.47,104.39,105.76Z" fill="#efc419" opacity=".3"/>
  <path d="M320.86,148.39c.78,23.69-10.48,44.79-28.15,57.65l-5.11-7.03c-.68-.93-.51-2.24.39-2.95,13.89-10.89,22.65-28,22.08-47.14-.92-30.6-26.15-55.4-56.77-55.82-32.18-.44-58.4,25.51-58.4,57.59h-10.8c0-38.17,31.26-69.03,69.56-68.39,36.22.6,66.01,29.87,67.2,66.08Z" fill="#f6c8c3"/>
  <path d="M275.8,128.2l-3.69,3.56c-.81.79-2.09.8-2.94.05-4.43-3.93-10.27-6.31-16.67-6.31-13.92,0-25.2,11.28-25.2,25.2h-7.2c0-8.94,3.63-17.04,9.49-22.91,5.87-5.86,13.97-9.49,22.91-9.49s17.05,3.63,22.91,9.49l.39.41Z" fill="#e8bed2"/>
  <path d="M234.5,150.7h3.6c0-7.95,6.45-14.4,14.4-14.4,1.55,0,3.05.25,4.45.71l1.11-3.42c-1.89-.61-3.57-.88-5.56-.88-9.94,0-18,8.06-18,18Z" fill="#6c297b"/>
  <path d="M144.5,150.7h3.6c0-57.66,46.74-104.4,104.4-104.4,57.66,0,104.4,46.74,104.4,104.4s-46.74,104.4-104.4,104.4c-20.32,0-39.29-5.81-55.33-15.86l-1.9,3.05c18.21,11.38,35.76,16.41,57.23,16.41,59.65,0,108-48.35,108-108s-48.35-108-108-108c-59.65,0-108,48.35-108,108Z" fill="#efc419"/>
  <line x1="48.68" y1="151.2" x2="252.5" y2="151.2" stroke="#000" stroke-miterlimit="10" stroke-width=".5"/>
  <text transform="translate(146.33 158.38) rotate(.17)" fill="#efc419" font-family="OpenSans-Bold, &apos;Open Sans&apos;" font-size="8" font-weight="700" stroke="#414042" stroke-miterlimit="10" stroke-width=".1"><tspan x="0" y="0">300</tspan></text>
  <text transform="translate(341.82 86.37) rotate(.17)" fill="#efc419" font-family="OpenSans-Bold, &apos;Open Sans&apos;" font-size="12" font-weight="700" stroke="#231f20" stroke-miterlimit="10" stroke-width=".1"><tspan x="0" y="0">84%</tspan></text>
  <text transform="translate(310.71 107.74) rotate(.17)" fill="#dc4732" font-family="OpenSans-Bold, &apos;Open Sans&apos;" font-size="12" font-weight="700"><tspan x="0" y="0">65%</tspan></text>
  <text transform="translate(278.4 129.57) rotate(.17)" fill="#ab2069" font-family="OpenSans-Bold, &apos;Open Sans&apos;" font-size="12" font-weight="700"><tspan x="0" y="0">38%</tspan></text>
  <text transform="translate(259.01 144.14) rotate(.17)" fill="#6c297b" font-family="OpenSans-Bold, &apos;Open Sans&apos;" font-size="12" font-weight="700"><tspan x="0" y="0">30%</tspan></text>
  <text transform="translate(180.77 158.38) rotate(.17)" fill="#dc4732" font-family="OpenSans-Bold, &apos;Open Sans&apos;" font-size="8" font-weight="700"><tspan x="0" y="0">200</tspan></text>
  <text transform="translate(215.1 158.38) rotate(.17)" fill="#ab2069" font-family="OpenSans-Bold, &apos;Open Sans&apos;" font-size="8" font-weight="700"><tspan x="0" y="0">100</tspan></text>
  <text transform="translate(233.82 158.34) rotate(.17)" fill="#6c297b" font-family="OpenSans-Bold, &apos;Open Sans&apos;" font-size="8" font-weight="700"><tspan x="0" y="0">50 metres</tspan></text>
  <text transform="translate(48.09 158.13) rotate(.17)" fill="#231f20" font-family="OpenSans-Bold, &apos;Open Sans&apos;" font-size="8" font-weight="700"><tspan x="0" y="0">Distance to Main St.</tspan></text>
  <text transform="translate(14.4 21.6) rotate(.17)" font-family="TradeGothicLT-Bold, &apos;TradeGothic LT Bold&apos;" font-size="20" font-weight="700"><tspan x="0" y="0">Religious Organizations Near Main Street</tspan></text>
  <path d="M180.5,150.7h3.6c0-37.78,30.62-68.4,68.4-68.4,37.78,0,68.4,30.62,68.4,68.4,0,22.75-11.12,42.89-28.2,55.33l2.12,2.92c19.3-14.02,29.68-34.39,29.68-58.25,0-39.76-32.24-72-72-72-39.76,0-72,32.24-72,72Z" fill="#dc4732"/>
  <path d="M216.5,150.7h3.6c0-17.89,14.51-32.4,32.4-32.4,9.15,0,17.41,3.8,23.3,9.9l2.6-2.51c-7.18-7.44-15.56-10.99-25.9-10.99-19.88,0-36,16.12-36,36Z" fill="#ab2069"/>
  <path d="M256.95,137l-.79,2.45c-.17.52-.7.85-1.24.72-.78-.18-1.58-.27-2.42-.27-5.96,0-10.8,4.83-10.8,10.8h-3.6c0-7.95,6.45-14.4,14.4-14.4,1.55,0,3.05.25,4.45.7Z" fill="#d4bed8"/>
  <path id="path37" d="M0,280.8h489.6" fill="none" stroke="#231f20" stroke-miterlimit="3" stroke-width=".57"/>
  <text transform="translate(7.37 290.04)" font-size="8"><tspan x="0" y="0" font-family="OpenSans-Bold, &apos;Open Sans&apos;" font-weight="700">Data Sources:</tspan><tspan x="54.48" y="0" xml:space="preserve" font-family="OpenSans, &apos;Open Sans&apos;"> Canadian Urban Institute (2025)</tspan></text>
</svg>