<?xml version="1.0" encoding="UTF-8"?>
<svg xmlns="http://www.w3.org/2000/svg" width="6.8in" height="4.1in" viewBox="0 0 489.6 295.2">
  <g id="Layer_6" data-name="Layer 6">
    <g id="text49" isolation="isolate">
      <text transform="translate(21.06 27.711) rotate(.17)" font-family="TradeGothicLT-Bold, &apos;TradeGothic LT Bold&apos;" font-size="17" font-weight="700" isolation="isolate"><tspan x="0" y="0">Opioid deaths and hospitalizations in Canada</tspan></text>
    </g>
    <g id="text51" isolation="isolate">
      <text transform="translate(21.6 280.514)" fill="#999" font-family="OpenSans, &apos;Open Sans&apos;" font-size="8" isolation="isolate"><tspan x="0" y="0">Data source: Public Health Agency of Canda (2025)</tspan></text>
    </g>
    <rect id="rect72" x="0" y="14.4" width="14.4" height="14.4" fill="#f1c500"/>
    <path id="path37-2" d="M0,.5h489.6" fill="none" stroke="#f1c500" stroke-miterlimit="2.25" stroke-width=".5"/>
  </g>
  <g id="Layer_1" data-name="Layer 1">
    <g>
      <line x1="58.049" y1="247.369" x2="58.049" y2="242.465" fill="none" stroke="#000" stroke-miterlimit="10" stroke-width=".75"/>
      <line x1="76.358" y1="246.535" x2="76.358" y2="243.299" fill="none" stroke="#000" stroke-miterlimit="10" stroke-width=".75"/>
      <line x1="94.668" y1="247.369" x2="94.668" y2="242.465" fill="none" stroke="#000" stroke-miterlimit="10" stroke-width=".75"/>
      <line x1="112.977" y1="246.535" x2="112.977" y2="243.299" fill="none" stroke="#000" stroke-miterlimit="10" stroke-width=".75"/>
      <line x1="131.287" y1="247.369" x2="131.287" y2="242.465" fill="none" stroke="#000" stroke-miterlimit="10" stroke-width=".75"/>
      <line x1="149.597" y1="246.535" x2="149.597" y2="243.299" fill="none" stroke="#000" stroke-miterlimit="10" stroke-width=".75"/>
      <line x1="167.906" y1="247.369" x2="167.906" y2="242.465" fill="none" stroke="#000" stroke-miterlimit="10" stroke-width=".75"/>
      <line x1="186.216" y1="246.535" x2="186.216" y2="243.299" fill="none" stroke="#000" stroke-miterlimit="10" stroke-width=".75"/>
      <line x1="204.525" y1="247.369" x2="204.525" y2="242.465" fill="none" stroke="#000" stroke-miterlimit="10" stroke-width=".75"/>
    </g>
    <g>
      <line x1="14.32" y1="205.689" x2="475.2" y2="205.689" fill="none" stroke="#000" stroke-dasharray=".25 2" stroke-miterlimit="10" stroke-width=".25"/>
      <line x1="14.32" y1="166.461" x2="475.2" y2="166.461" fill="none" stroke="#000" stroke-dasharray=".25 2" stroke-miterlimit="10" stroke-width=".25"/>
      <line x1="14.32" y1="127.234" x2="475.2" y2="127.234" fill="none" stroke="#000" stroke-dasharray=".25 2" stroke-miterlimit="10" stroke-width=".25"/>
      <line x1="14.32" y1="88.006" x2="475.2" y2="88.006" fill="none" stroke="#000" stroke-dasharray=".25 2" stroke-miterlimit="10" stroke-width=".25"/>
    </g>
    <text transform="translate(327.653 57.601)" font-family="OpenSans-Bold, &apos;Open Sans&apos;" font-size="12" font-weight="700"><tspan x="0" y="0">Deaths</tspan></text>
    <text transform="translate(46.613 260.499)" fill="#6d6e71" font-family="OpenSans, &apos;Open Sans&apos;" font-size="10"><tspan x="0" y="0">2016</tspan></text>
    <text transform="translate(83.233 260.499)" fill="#6d6e71" font-family="OpenSans, &apos;Open Sans&apos;" font-size="10"><tspan x="0" y="0">2018</tspan></text>
    <text transform="translate(119.852 260.499)" fill="#6d6e71" font-family="OpenSans, &apos;Open Sans&apos;" font-size="10"><tspan x="0" y="0">2020</tspan></text>
    <text transform="translate(156.471 260.499)" fill="#6d6e71" font-family="OpenSans, &apos;Open Sans&apos;" font-size="10"><tspan x="0" y="0">2022</tspan></text>
    <text transform="translate(193.09 260.499)" fill="#6d6e71" font-family="OpenSans, &apos;Open Sans&apos;" font-size="10"><tspan x="0" y="0">2024</tspan></text>
    <g>
      <text transform="translate(14.321 86.057)" fill="#6d6e71" font-family="OpenSans, &apos;Open Sans&apos;" font-size="10"><tspan x="0" y="0">20 cases per 100K people</tspan></text>
      <text transform="translate(14.321 125.284)" fill="#6d6e71" font-family="OpenSans, &apos;Open Sans&apos;" font-size="10"><tspan x="0" y="0">15</tspan></text>
      <text transform="translate(14.321 164.512)" fill="#6d6e71" font-family="OpenSans, &apos;Open Sans&apos;" font-size="10"><tspan x="0" y="0">10</tspan></text>
      <text transform="translate(14.321 203.741)" fill="#6d6e71" font-family="OpenSans, &apos;Open Sans&apos;" font-size="10"><tspan x="0" y="0">5</tspan></text>
      <text transform="translate(14.321 242.968)" fill="#6d6e71" font-family="OpenSans, &apos;Open Sans&apos;" font-size="10"><tspan x="0" y="0">0</tspan></text>
    </g>
    <g>
      <line x1="275.555" y1="247.369" x2="275.555" y2="242.465" fill="none" stroke="#000" stroke-miterlimit="10" stroke-width=".75"/>
      <line x1="293.864" y1="246.535" x2="293.864" y2="243.299" fill="none" stroke="#000" stroke-miterlimit="10" stroke-width=".75"/>
      <line x1="312.174" y1="247.369" x2="312.174" y2="242.465" fill="none" stroke="#000" stroke-miterlimit="10" stroke-width=".75"/>
      <line x1="330.484" y1="246.535" x2="330.484" y2="243.299" fill="none" stroke="#000" stroke-miterlimit="10" stroke-width=".75"/>
      <line x1="348.794" y1="247.369" x2="348.794" y2="242.465" fill="none" stroke="#000" stroke-miterlimit="10" stroke-width=".75"/>
      <line x1="367.103" y1="246.535" x2="367.103" y2="243.299" fill="none" stroke="#000" stroke-miterlimit="10" stroke-width=".75"/>
      <line x1="385.413" y1="247.369" x2="385.413" y2="242.465" fill="none" stroke="#000" stroke-miterlimit="10" stroke-width=".75"/>
      <line x1="403.723" y1="246.535" x2="403.723" y2="243.299" fill="none" stroke="#000" stroke-miterlimit="10" stroke-width=".75"/>
      <line x1="422.033" y1="247.369" x2="422.033" y2="242.465" fill="none" stroke="#000" stroke-miterlimit="10" stroke-width=".75"/>
    </g>
    <text transform="translate(264.12 260.499)" fill="#6d6e71" font-family="OpenSans, &apos;Open Sans&apos;" font-size="10"><tspan x="0" y="0">2016</tspan></text>
    <text transform="translate(300.739 260.499)" fill="#6d6e71" font-family="OpenSans, &apos;Open Sans&apos;" font-size="10"><tspan x="0" y="0">2018</tspan></text>
    <text transform="translate(337.359 260.499)" fill="#6d6e71" font-family="OpenSans, &apos;Open Sans&apos;" font-size="10"><tspan x="0" y="0">2020</tspan></text>
    <text transform="translate(373.978 260.499)" fill="#6d6e71" font-family="OpenSans, &apos;Open Sans&apos;" font-size="10"><tspan x="0" y="0">2022</tspan></text>
    <text transform="translate(410.598 260.499)" fill="#6d6e71" font-family="OpenSans, &apos;Open Sans&apos;" font-size="10"><tspan x="0" y="0">2024</tspan></text>
    <rect x="235.321" y="82.17" width="9.439" height="165.199" fill="#fff"/>
    <text transform="translate(71.979 57.601)" font-family="OpenSans-Bold, &apos;Open Sans&apos;" font-size="12" font-weight="700"><tspan x="0" y="0">Hospitalizations</tspan></text>
    <line x1="14.32" y1="244.917" x2="475.2" y2="244.917" fill="none" stroke="#000" stroke-miterlimit="10" stroke-width=".75"/>
    <g>
      <line x1="66.035" y1="102.912" x2="44.285" y2="115.465" fill="none" stroke="#067fa3" stroke-linecap="round" stroke-miterlimit="10"/>
      <line x1="87.786" y1="107.62" x2="66.035" y2="102.912" fill="none" stroke="#067fa3" stroke-linecap="round" stroke-miterlimit="10"/>
      <line x1="109.537" y1="123.311" x2="87.786" y2="107.62" fill="none" stroke="#067fa3" stroke-linecap="round" stroke-miterlimit="10"/>
      <line x1="131.287" y1="106.051" x2="109.537" y2="123.311" fill="none" stroke="#067fa3" stroke-linecap="round" stroke-miterlimit="10"/>
      <line x1="153.038" y1="79.376" x2="131.287" y2="106.051" fill="none" stroke="#067fa3" stroke-linecap="round" stroke-miterlimit="10"/>
      <line x1="174.789" y1="104.482" x2="153.038" y2="79.376" fill="none" stroke="#067fa3" stroke-linecap="round" stroke-miterlimit="10"/>
      <line x1="196.539" y1="82.514" x2="174.789" y2="104.482" fill="none" stroke="#067fa3" stroke-linecap="round" stroke-miterlimit="10"/>
      <line x1="218.29" y1="107.62" x2="196.539" y2="82.514" fill="none" stroke="#067fa3" stroke-linecap="round" stroke-miterlimit="10"/>
    </g>
    <g>
      <rect x="41.442" y="112.622" width="5.686" height="5.686" rx="2.843" ry="2.843" fill="#fff" stroke="#067fa3" stroke-miterlimit="10"/>
      <rect x="63.192" y="100.069" width="5.686" height="5.686" rx="2.843" ry="2.843" fill="#fff" stroke="#067fa3" stroke-miterlimit="10"/>
      <rect x="84.943" y="104.777" width="5.686" height="5.686" rx="2.843" ry="2.843" fill="#fff" stroke="#067fa3" stroke-miterlimit="10"/>
      <rect x="106.694" y="120.468" width="5.686" height="5.686" rx="2.843" ry="2.843" fill="#fff" stroke="#067fa3" stroke-miterlimit="10"/>
      <rect x="128.444" y="103.208" width="5.686" height="5.686" rx="2.843" ry="2.843" fill="#fff" stroke="#067fa3" stroke-miterlimit="10"/>
      <rect x="150.195" y="76.533" width="5.686" height="5.686" rx="2.843" ry="2.843" fill="#fff" stroke="#067fa3" stroke-miterlimit="10"/>
      <rect x="171.946" y="101.639" width="5.686" height="5.686" rx="2.843" ry="2.843" fill="#fff" stroke="#067fa3" stroke-miterlimit="10"/>
      <rect x="193.696" y="79.671" width="5.686" height="5.686" rx="2.843" ry="2.843" fill="#fff" stroke="#067fa3" stroke-miterlimit="10"/>
      <rect x="215.447" y="104.777" width="5.686" height="5.686" rx="2.843" ry="2.843" fill="#fff" stroke="#067fa3" stroke-miterlimit="10"/>
    </g>
    <text transform="translate(99.709 191.23)" font-family="OpenSans-Italic, &apos;Open Sans&apos;" font-size="10" font-style="italic" font-variation-settings="&apos;wght&apos; 400, &apos;wdth&apos; 100"><tspan x="0" y="0">Start of COVID</tspan><tspan x="9.775" y="12">Pandemic</tspan></text>
    <line x1="131.287" y1="114.386" x2="131.287" y2="180.879" fill="none" stroke="#000" stroke-miterlimit="10" stroke-width=".25"/>
    <g>
      <line x1="283.542" y1="160.97" x2="261.791" y2="183.722" fill="none" stroke="#ab2069" stroke-linecap="round" stroke-miterlimit="10"/>
      <line x1="305.293" y1="154.693" x2="283.542" y2="160.97" fill="none" stroke="#ab2069" stroke-linecap="round" stroke-miterlimit="10"/>
      <line x1="327.043" y1="166.461" x2="305.293" y2="154.693" fill="none" stroke="#ab2069" stroke-linecap="round" stroke-miterlimit="10"/>
      <line x1="348.794" y1="111.543" x2="327.043" y2="166.461" fill="none" stroke="#ab2069" stroke-linecap="round" stroke-miterlimit="10"/>
      <line x1="370.545" y1="80.945" x2="348.794" y2="111.543" fill="none" stroke="#ab2069" stroke-linecap="round" stroke-miterlimit="10"/>
      <line x1="392.295" y1="92.713" x2="370.545" y2="80.945" fill="none" stroke="#ab2069" stroke-linecap="round" stroke-miterlimit="10"/>
      <line x1="414.046" y1="80.16" x2="392.295" y2="92.713" fill="none" stroke="#ab2069" stroke-linecap="round" stroke-miterlimit="10"/>
      <line x1="435.797" y1="106.835" x2="414.046" y2="80.16" fill="none" stroke="#ab2069" stroke-linecap="round" stroke-miterlimit="10"/>
    </g>
    <g>
      <rect x="258.948" y="180.879" width="5.686" height="5.686" rx="2.843" ry="2.843" fill="#fff" stroke="#ab2069" stroke-miterlimit="10"/>
      <rect x="280.699" y="158.126" width="5.686" height="5.686" rx="2.843" ry="2.843" fill="#fff" stroke="#ab2069" stroke-miterlimit="10"/>
      <rect x="302.45" y="151.85" width="5.686" height="5.686" rx="2.843" ry="2.843" fill="#fff" stroke="#ab2069" stroke-miterlimit="10"/>
      <rect x="324.2" y="163.618" width="5.686" height="5.686" rx="2.843" ry="2.843" fill="#fff" stroke="#ab2069" stroke-miterlimit="10"/>
      <rect x="345.951" y="108.7" width="5.686" height="5.686" rx="2.843" ry="2.843" fill="#fff" stroke="#ab2069" stroke-miterlimit="10"/>
      <rect x="367.702" y="78.102" width="5.686" height="5.686" rx="2.843" ry="2.843" fill="#fff" stroke="#ab2069" stroke-miterlimit="10"/>
      <rect x="389.452" y="89.87" width="5.686" height="5.686" rx="2.843" ry="2.843" fill="#fff" stroke="#ab2069" stroke-miterlimit="10"/>
      <rect x="411.203" y="77.317" width="5.686" height="5.686" rx="2.843" ry="2.843" fill="#fff" stroke="#ab2069" stroke-miterlimit="10"/>
      <rect x="432.954" y="103.992" width="5.686" height="5.686" rx="2.843" ry="2.843" fill="#fff" stroke="#ab2069" stroke-miterlimit="10"/>
    </g>
    <text transform="translate(317.216 191.23)" font-family="OpenSans-Italic, &apos;Open Sans&apos;" font-size="10" font-style="italic" font-variation-settings="&apos;wght&apos; 400, &apos;wdth&apos; 100"><tspan x="0" y="0">Start of COVID</tspan><tspan x="9.775" y="12">Pandemic</tspan></text>
    <line x1="348.794" y1="120.468" x2="348.794" y2="180.879" fill="none" stroke="#000" stroke-miterlimit="10" stroke-width=".25"/>
  </g>
</svg>