<?xml version="1.0" encoding="UTF-8"?>
<svg id="Layer_1" data-name="Layer 1" xmlns="http://www.w3.org/2000/svg" viewBox="0 0 489.6 201.6">
  <text transform="translate(336.34 158.4)" font-family="OpenSans-Bold, &apos;Open Sans&apos;" font-size="12" font-weight="700"><tspan x="0" y="0">median </tspan><tspan x="48.38" y="0" fill="#6c297b">urban</tspan><tspan x="0" y="14.4">wait time</tspan></text>
  <text transform="translate(336.94 57.6)" font-family="OpenSans-Bold, &apos;Open Sans&apos;" font-size="12" font-weight="700"><tspan x="0" y="0">median </tspan><tspan x="48.38" y="0" fill="#00a28a">rural</tspan><tspan x="0" y="14.4">wait time</tspan></text>
  <g>
    <rect x="283.39" y="111.92" width="10.24" height="61.23"/>
    <rect x="294.3" y="137.69" width="10.24" height="35.47"/>
    <rect x="305.2" y="122.92" width="10.24" height="50.23"/>
    <rect x="285.54" y="114.93" width="1.68" height="5.33" fill="#fff"/>
    <rect x="290.71" y="125.3" width="1.68" height="5.33" fill="#fff"/>
    <rect x="288.51" y="131.32" width="1.68" height="5.33" fill="#fff"/>
    <rect x="294.98" y="139.54" width="2.16" height="3.54" fill="#fff"/>
    <rect x="298.34" y="139.54" width="2.16" height="3.54" fill="#fff"/>
    <rect x="301.73" y="148.87" width="2.16" height="3.54" fill="#fff"/>
    <rect x="298.34" y="155.39" width="2.16" height="3.54" fill="#fff"/>
    <rect x="306.45" y="165.77" width="1.42" height="5.46" fill="#fff"/>
    <rect x="312.63" y="158.1" width="1.42" height="5.46" fill="#fff"/>
    <rect x="310.63" y="158.1" width="1.42" height="5.46" fill="#fff"/>
    <rect x="306.12" y="143.81" width="1.42" height="5.46" fill="#fff"/>
    <rect x="308.9" y="136.81" width="1.42" height="5.46" fill="#fff"/>
  </g>
  <text transform="translate(336.34 144)" fill="#6c297b" font-family="OpenSans-Bold, &apos;Open Sans&apos;" font-size="24.08" font-weight="700"><tspan x="0" y="0">32 min</tspan></text>
  <text transform="translate(335.57 43.2)" fill="#00a28a" font-family="OpenSans-Bold, &apos;Open Sans&apos;" font-size="24.08" font-weight="700"><tspan x="0" y="0">20 min</tspan></text>
  <g>
    <polygon points="319.45 33.62 298.83 25.38 278.25 33.62 278.25 72.05 319.45 72.05 319.45 33.62"/>
    <g>
      <polygon points="324.6 51.68 318.03 35.46 298.84 26.28 279.69 35.46 272.78 50.34 270.13 50.34 277.93 34.02 298.84 24.47 319.76 34.02 326.88 51.68 324.6 51.68" fill="#fff"/>
      <path d="M298.84,25.02l20.53,9.37,6.77,16.79h-1.2l-6.38-15.72-.15-.36-.35-.17-18.8-8.99-.43-.21-.43.21-18.77,8.99-.32.16-.15.33-6.7,14.43h-1.54l7.38-15.44,20.53-9.38M298.84,23.92l-21.28,9.72-8.22,17.2h3.77l6.97-15.01,18.77-8.99,18.8,8.99,6.63,16.35h3.35l-7.47-18.54-21.31-9.72h0Z" fill="#fff"/>
    </g>
    <rect x="295.41" y="36.77" width="6.89" height="6.89" fill="#fff"/>
    <polyline points="309.15 50.45 288.55 73.26 288.55 50.45 309.15 50.45 309.15 73.26 288.55 50.45" fill="none" stroke="#fff" stroke-miterlimit="10"/>
    <polygon points="328.42 51.44 320.46 32.85 298.84 22.99 277.25 32.85 268.84 50.45 272.66 50.45 279.79 35.07 298.84 25.95 317.91 35.07 324.6 51.44 328.42 51.44"/>
  </g>
  <path id="path37" d="M0,187.2h489.6" fill="none" stroke="#231f20" stroke-miterlimit="3" stroke-width=".57"/>
  <text transform="translate(7.37 196.45)" font-size="8"><tspan x="0" y="0" font-family="OpenSans-Bold, &apos;Open Sans&apos;" font-weight="700">Data Sources:</tspan><tspan x="54.48" y="0" xml:space="preserve" font-family="OpenSans, &apos;Open Sans&apos;"> Canadian Institute for Health and Information (2024)</tspan></text>
  <g>
    <g>
      <line x1="113.23" y1="79.07" x2="111.27" y2="74.85" fill="none" stroke="#a7a9ac" stroke-miterlimit="10" stroke-width=".5"/>
      <line x1="111.01" y1="79.99" x2="109.42" y2="75.62" fill="none" stroke="#a7a9ac" stroke-miterlimit="10" stroke-width=".5"/>
      <line x1="108.69" y1="80.72" x2="107.49" y2="76.22" fill="none" stroke="#a7a9ac" stroke-miterlimit="10" stroke-width=".5"/>
      <line x1="106.34" y1="81.24" x2="105.53" y2="76.65" fill="none" stroke="#a7a9ac" stroke-miterlimit="10" stroke-width=".5"/>
      <line x1="103.95" y1="81.56" x2="103.54" y2="76.92" fill="none" stroke="#a7a9ac" stroke-miterlimit="10" stroke-width=".5"/>
      <line x1="101.53" y1="81.66" x2="101.53" y2="77.01" fill="none" stroke="#a7a9ac" stroke-miterlimit="10" stroke-width=".5"/>
      <line x1="99.52" y1="76.92" x2="99.11" y2="81.56" fill="none" stroke="#a7a9ac" stroke-miterlimit="10" stroke-width=".5"/>
      <line x1="97.53" y1="76.65" x2="96.72" y2="81.24" fill="none" stroke="#a7a9ac" stroke-miterlimit="10" stroke-width=".5"/>
      <line x1="95.57" y1="76.22" x2="94.37" y2="80.72" fill="none" stroke="#a7a9ac" stroke-miterlimit="10" stroke-width=".5"/>
      <line x1="93.64" y1="75.62" x2="92.05" y2="79.99" fill="none" stroke="#a7a9ac" stroke-miterlimit="10" stroke-width=".5"/>
      <line x1="91.79" y1="74.85" x2="89.83" y2="79.07" fill="none" stroke="#a7a9ac" stroke-miterlimit="10" stroke-width=".5"/>
      <line x1="90.01" y1="73.92" x2="87.69" y2="77.95" fill="none" stroke="#a7a9ac" stroke-miterlimit="10" stroke-width=".5"/>
      <line x1="88.32" y1="72.84" x2="85.65" y2="76.65" fill="none" stroke="#a7a9ac" stroke-miterlimit="10" stroke-width=".5"/>
      <line x1="86.73" y1="71.62" x2="83.74" y2="75.18" fill="none" stroke="#a7a9ac" stroke-miterlimit="10" stroke-width=".5"/>
      <line x1="85.25" y1="70.26" x2="81.95" y2="73.55" fill="none" stroke="#a7a9ac" stroke-miterlimit="10" stroke-width=".5"/>
      <line x1="83.89" y1="68.77" x2="80.32" y2="71.77" fill="none" stroke="#a7a9ac" stroke-miterlimit="10" stroke-width=".5"/>
      <line x1="82.67" y1="67.18" x2="78.85" y2="69.86" fill="none" stroke="#a7a9ac" stroke-miterlimit="10" stroke-width=".5"/>
      <line x1="81.59" y1="65.49" x2="77.55" y2="67.82" fill="none" stroke="#a7a9ac" stroke-miterlimit="10" stroke-width=".5"/>
      <line x1="80.66" y1="63.71" x2="76.43" y2="65.68" fill="none" stroke="#a7a9ac" stroke-miterlimit="10" stroke-width=".5"/>
      <line x1="79.89" y1="61.85" x2="75.51" y2="63.45" fill="none" stroke="#a7a9ac" stroke-miterlimit="10" stroke-width=".5"/>
      <line x1="79.29" y1="59.93" x2="74.78" y2="61.14" fill="none" stroke="#a7a9ac" stroke-miterlimit="10" stroke-width=".5"/>
      <line x1="78.86" y1="57.97" x2="74.26" y2="58.78" fill="none" stroke="#a7a9ac" stroke-miterlimit="10" stroke-width=".5"/>
      <line x1="78.59" y1="55.98" x2="73.94" y2="56.39" fill="none" stroke="#a7a9ac" stroke-miterlimit="10" stroke-width=".5"/>
      <line x1="78.5" y1="53.97" x2="73.84" y2="53.97" fill="none" stroke="#a7a9ac" stroke-miterlimit="10" stroke-width=".5"/>
      <line x1="78.59" y1="51.97" x2="73.94" y2="51.56" fill="none" stroke="#a7a9ac" stroke-miterlimit="10" stroke-width=".5"/>
      <line x1="78.86" y1="49.97" x2="74.26" y2="49.17" fill="none" stroke="#a7a9ac" stroke-miterlimit="10" stroke-width=".5"/>
      <line x1="79.29" y1="48.01" x2="74.78" y2="46.8" fill="none" stroke="#a7a9ac" stroke-miterlimit="10" stroke-width=".5"/>
      <line x1="79.88" y1="46.1" x2="75.51" y2="44.5" fill="none" stroke="#a7a9ac" stroke-miterlimit="10" stroke-width=".5"/>
      <line x1="80.65" y1="44.24" x2="76.43" y2="42.27" fill="none" stroke="#a7a9ac" stroke-miterlimit="10" stroke-width=".5"/>
      <line x1="81.59" y1="42.46" x2="77.54" y2="40.13" fill="none" stroke="#a7a9ac" stroke-miterlimit="10" stroke-width=".5"/>
      <line x1="82.67" y1="40.77" x2="78.85" y2="38.09" fill="none" stroke="#a7a9ac" stroke-miterlimit="10" stroke-width=".5"/>
      <line x1="83.89" y1="39.17" x2="80.32" y2="36.17" fill="none" stroke="#a7a9ac" stroke-miterlimit="10" stroke-width=".5"/>
      <line x1="85.24" y1="37.69" x2="81.95" y2="34.39" fill="none" stroke="#a7a9ac" stroke-miterlimit="10" stroke-width=".5"/>
      <line x1="86.73" y1="36.33" x2="83.73" y2="32.76" fill="none" stroke="#a7a9ac" stroke-miterlimit="10" stroke-width=".5"/>
      <line x1="88.32" y1="35.11" x2="85.65" y2="31.29" fill="none" stroke="#a7a9ac" stroke-miterlimit="10" stroke-width=".5"/>
      <line x1="90.02" y1="34.03" x2="87.69" y2="29.99" fill="none" stroke="#a7a9ac" stroke-miterlimit="10" stroke-width=".5"/>
      <line x1="91.8" y1="33.1" x2="89.83" y2="28.87" fill="none" stroke="#a7a9ac" stroke-miterlimit="10" stroke-width=".5"/>
      <line x1="93.65" y1="32.33" x2="92.05" y2="27.95" fill="none" stroke="#a7a9ac" stroke-miterlimit="10" stroke-width=".5"/>
      <line x1="95.57" y1="31.73" x2="94.37" y2="27.22" fill="none" stroke="#a7a9ac" stroke-miterlimit="10" stroke-width=".5"/>
      <line x1="97.53" y1="31.3" x2="96.72" y2="26.7" fill="none" stroke="#a7a9ac" stroke-miterlimit="10" stroke-width=".5"/>
      <line x1="99.52" y1="31.03" x2="99.11" y2="26.38" fill="none" stroke="#a7a9ac" stroke-miterlimit="10" stroke-width=".5"/>
      <g>
        <polyline points="103.54 31.03 104.36 21.69 104.65 18.36" fill="none" stroke="#ab2069" stroke-miterlimit="10" stroke-width=".75"/>
        <polyline points="105.53 31.3 107.16 22.06 107.74 18.77" fill="none" stroke="#ab2069" stroke-miterlimit="10" stroke-width=".75"/>
        <polyline points="107.49 31.73 109.91 22.67 110.78 19.44" fill="none" stroke="#ab2069" stroke-miterlimit="10" stroke-width=".75"/>
        <polyline points="109.41 32.33 112.62 23.52 113.76 20.38" fill="none" stroke="#ab2069" stroke-miterlimit="10" stroke-width=".75"/>
        <polyline points="111.27 33.1 115.22 24.6 116.64 21.57" fill="none" stroke="#ab2069" stroke-miterlimit="10" stroke-width=".75"/>
        <polyline points="113.05 34.02 117.73 25.91 119.4 23.01" fill="none" stroke="#ab2069" stroke-miterlimit="10" stroke-width=".75"/>
        <polyline points="114.74 35.11 120.11 27.43 122.03 24.69" fill="none" stroke="#ab2069" stroke-miterlimit="10" stroke-width=".75"/>
        <polyline points="116.33 36.33 122.36 29.15 124.51 26.59" fill="none" stroke="#ab2069" stroke-miterlimit="10" stroke-width=".75"/>
        <polyline points="117.82 37.68 124.44 31.06 126.81 28.7" fill="none" stroke="#ab2069" stroke-miterlimit="10" stroke-width=".75"/>
        <polyline points="119.17 39.16 126.35 33.14 128.91 30.99" fill="none" stroke="#ab2069" stroke-miterlimit="10" stroke-width=".75"/>
        <polyline points="120.39 40.76 128.07 35.39 130.81 33.47" fill="none" stroke="#ab2069" stroke-miterlimit="10" stroke-width=".75"/>
        <polyline points="121.48 42.46 129.6 37.77 132.49 36.1" fill="none" stroke="#ab2069" stroke-miterlimit="10" stroke-width=".75"/>
        <polyline points="122.42 44.23 130.9 40.28 133.93 38.87" fill="none" stroke="#ab2069" stroke-miterlimit="10" stroke-width=".75"/>
        <polyline points="123.18 46.09 131.98 42.89 135.12 41.75" fill="none" stroke="#ab2069" stroke-miterlimit="10" stroke-width=".75"/>
        <polyline points="123.78 48.01 132.83 45.58 136.06 44.72" fill="none" stroke="#ab2069" stroke-miterlimit="10" stroke-width=".75"/>
        <polyline points="124.21 49.98 133.44 48.35 136.73 47.77" fill="none" stroke="#ab2069" stroke-miterlimit="10" stroke-width=".75"/>
        <polyline points="124.48 51.97 133.81 51.15 137.14 50.86" fill="none" stroke="#ab2069" stroke-miterlimit="10" stroke-width=".75"/>
        <polyline points="124.57 53.97 133.93 53.97 137.28 53.97" fill="none" stroke="#ab2069" stroke-miterlimit="10" stroke-width=".75"/>
        <polyline points="124.48 55.98 133.81 56.8 137.14 57.09" fill="none" stroke="#ab2069" stroke-miterlimit="10" stroke-width=".75"/>
        <polyline points="124.21 57.97 133.44 59.6 136.73 60.18" fill="none" stroke="#ab2069" stroke-miterlimit="10" stroke-width=".75"/>
        <polyline points="123.78 59.93 132.83 62.36 136.06 63.22" fill="none" stroke="#ab2069" stroke-miterlimit="10" stroke-width=".75"/>
        <polyline points="123.18 61.85 131.98 65.06 135.12 66.2" fill="none" stroke="#ab2069" stroke-miterlimit="10" stroke-width=".75"/>
        <polyline points="122.41 63.71 130.9 67.67 133.93 69.08" fill="none" stroke="#ab2069" stroke-miterlimit="10" stroke-width=".75"/>
        <polyline points="121.48 65.49 129.59 70.18 132.49 71.85" fill="none" stroke="#ab2069" stroke-miterlimit="10" stroke-width=".75"/>
        <polyline points="120.39 67.18 128.07 72.56 130.81 74.48" fill="none" stroke="#ab2069" stroke-miterlimit="10" stroke-width=".75"/>
        <polyline points="119.17 68.78 126.35 74.8 128.91 76.95" fill="none" stroke="#ab2069" stroke-miterlimit="10" stroke-width=".75"/>
        <polyline points="117.82 70.26 124.44 76.88 126.81 79.25" fill="none" stroke="#ab2069" stroke-miterlimit="10" stroke-width=".75"/>
        <polyline points="116.33 71.62 122.35 78.79 124.51 81.36" fill="none" stroke="#ab2069" stroke-miterlimit="10" stroke-width=".75"/>
        <polyline points="114.74 72.84 120.11 80.51 122.03 83.26" fill="none" stroke="#ab2069" stroke-miterlimit="10" stroke-width=".75"/>
        <line x1="119.4" y1="84.93" x2="113.05" y2="73.92" fill="none" stroke="#ab2069" stroke-miterlimit="10" stroke-width=".75"/>
        <line x1="101.53" y1="30.94" x2="101.53" y2="18.23" fill="none" stroke="#ab2069" stroke-miterlimit="10" stroke-width=".75"/>
      </g>
    </g>
    <g>
      <text transform="translate(89.73 67.18)" fill="#fff" font-family="OpenSans-Bold, &apos;Open Sans&apos;" font-size="36" font-weight="700" stroke="#fff" stroke-miterlimit="10" stroke-width="2"><tspan x="0" y="0">25 min</tspan></text>
      <text transform="translate(89.73 67.18)" fill="#ab2069" font-family="OpenSans-Bold, &apos;Open Sans&apos;" font-size="36" font-weight="700"><tspan x="0" y="0">25 min</tspan></text>
    </g>
  </g>
  <text transform="translate(66.44 103.59)" font-family="OpenSans-Bold, &apos;Open Sans&apos;" font-size="15.6" font-weight="700"><tspan x="0" y="0">median nationwide</tspan></text>
  <text transform="translate(66.44 131.66)" fill="#ab2069" font-family="OpenSans-Bold, &apos;Open Sans&apos;" font-size="31.69" font-weight="700"><tspan x="0" y="0">wait time</tspan></text>
  <text transform="translate(66.44 145.7)" font-family="OpenSans-Bold, &apos;Open Sans&apos;" font-size="13.41" font-weight="700"><tspan x="0" y="0">for community mental</tspan></text>
  <text transform="translate(66.44 164.55)" font-family="OpenSans-Bold, &apos;Open Sans&apos;" font-size="16.47" font-weight="700"><tspan x="0" y="0">health counselling</tspan></text>
</svg>