<?xml version="1.0" encoding="UTF-8"?>
<svg id="Layer_1" data-name="Layer 1" xmlns="http://www.w3.org/2000/svg" viewBox="0 0 244.8 197.99">
  <path id="path37" d="M0,172.8h244.8" fill="none" stroke="#231f20" stroke-miterlimit="3" stroke-width=".57"/>
  <text transform="translate(7.37 182.05)" font-size="8"><tspan x="0" y="0" font-family="OpenSans-Bold, &apos;Open Sans&apos;" font-weight="700">Data Sources:</tspan><tspan x="54.48" y="0" xml:space="preserve" font-family="OpenSans, &apos;Open Sans&apos;"> Canadian Institute for Health and</tspan><tspan font-family="OpenSans, &apos;Open Sans&apos;"><tspan x="0" y="9.6">Information (2024)</tspan></tspan></text>
  <text transform="translate(14.4 100.5)" font-family="OpenSans-Bold, &apos;Open Sans&apos;" font-size="13.14" font-weight="700"><tspan x="0" y="0">median nationwide wait time for</tspan></text>
  <text transform="translate(14.4 121.93)" font-family="OpenSans-Bold, &apos;Open Sans&apos;" font-size="22.61" font-weight="700"><tspan x="0" y="0">community mental</tspan></text>
  <text transform="translate(14.4 147.42)" font-family="OpenSans-Bold, &apos;Open Sans&apos;" font-size="23.53" font-weight="700"><tspan x="0" y="0">health counselling</tspan></text>
  <g>
    <line x1="84.99" y1="73.71" x2="83.03" y2="69.49" fill="none" stroke="#a7a9ac" stroke-miterlimit="10" stroke-width=".5"/>
    <line x1="82.77" y1="74.63" x2="81.18" y2="70.26" fill="none" stroke="#a7a9ac" stroke-miterlimit="10" stroke-width=".5"/>
    <line x1="80.45" y1="75.36" x2="79.25" y2="70.86" fill="none" stroke="#a7a9ac" stroke-miterlimit="10" stroke-width=".5"/>
    <line x1="78.1" y1="75.88" x2="77.29" y2="71.29" fill="none" stroke="#a7a9ac" stroke-miterlimit="10" stroke-width=".5"/>
    <line x1="75.71" y1="76.2" x2="75.3" y2="71.56" fill="none" stroke="#a7a9ac" stroke-miterlimit="10" stroke-width=".5"/>
    <line x1="73.29" y1="76.3" x2="73.29" y2="71.65" fill="none" stroke="#a7a9ac" stroke-miterlimit="10" stroke-width=".5"/>
    <line x1="71.28" y1="71.56" x2="70.87" y2="76.2" fill="none" stroke="#a7a9ac" stroke-miterlimit="10" stroke-width=".5"/>
    <line x1="69.29" y1="71.29" x2="68.48" y2="75.88" fill="none" stroke="#a7a9ac" stroke-miterlimit="10" stroke-width=".5"/>
    <line x1="67.33" y1="70.86" x2="66.13" y2="75.36" fill="none" stroke="#a7a9ac" stroke-miterlimit="10" stroke-width=".5"/>
    <line x1="65.4" y1="70.26" x2="63.81" y2="74.63" fill="none" stroke="#a7a9ac" stroke-miterlimit="10" stroke-width=".5"/>
    <line x1="63.55" y1="69.49" x2="61.59" y2="73.71" fill="none" stroke="#a7a9ac" stroke-miterlimit="10" stroke-width=".5"/>
    <line x1="61.77" y1="68.56" x2="59.45" y2="72.59" fill="none" stroke="#a7a9ac" stroke-miterlimit="10" stroke-width=".5"/>
    <line x1="60.08" y1="67.48" x2="57.41" y2="71.29" fill="none" stroke="#a7a9ac" stroke-miterlimit="10" stroke-width=".5"/>
    <line x1="58.49" y1="66.26" x2="55.5" y2="69.82" fill="none" stroke="#a7a9ac" stroke-miterlimit="10" stroke-width=".5"/>
    <line x1="57.01" y1="64.9" x2="53.71" y2="68.19" fill="none" stroke="#a7a9ac" stroke-miterlimit="10" stroke-width=".5"/>
    <line x1="55.65" y1="63.41" x2="52.08" y2="66.41" fill="none" stroke="#a7a9ac" stroke-miterlimit="10" stroke-width=".5"/>
    <line x1="54.43" y1="61.82" x2="50.61" y2="64.5" fill="none" stroke="#a7a9ac" stroke-miterlimit="10" stroke-width=".5"/>
    <line x1="53.35" y1="60.13" x2="49.31" y2="62.46" fill="none" stroke="#a7a9ac" stroke-miterlimit="10" stroke-width=".5"/>
    <line x1="52.42" y1="58.35" x2="48.19" y2="60.32" fill="none" stroke="#a7a9ac" stroke-miterlimit="10" stroke-width=".5"/>
    <line x1="51.65" y1="56.49" x2="47.27" y2="58.09" fill="none" stroke="#a7a9ac" stroke-miterlimit="10" stroke-width=".5"/>
    <line x1="51.05" y1="54.57" x2="46.54" y2="55.78" fill="none" stroke="#a7a9ac" stroke-miterlimit="10" stroke-width=".5"/>
    <line x1="50.62" y1="52.61" x2="46.02" y2="53.42" fill="none" stroke="#a7a9ac" stroke-miterlimit="10" stroke-width=".5"/>
    <line x1="50.35" y1="50.62" x2="45.7" y2="51.03" fill="none" stroke="#a7a9ac" stroke-miterlimit="10" stroke-width=".5"/>
    <line x1="50.26" y1="48.61" x2="45.6" y2="48.61" fill="none" stroke="#a7a9ac" stroke-miterlimit="10" stroke-width=".5"/>
    <line x1="50.35" y1="46.61" x2="45.7" y2="46.2" fill="none" stroke="#a7a9ac" stroke-miterlimit="10" stroke-width=".5"/>
    <line x1="50.62" y1="44.61" x2="46.02" y2="43.81" fill="none" stroke="#a7a9ac" stroke-miterlimit="10" stroke-width=".5"/>
    <line x1="51.05" y1="42.65" x2="46.54" y2="41.44" fill="none" stroke="#a7a9ac" stroke-miterlimit="10" stroke-width=".5"/>
    <line x1="51.64" y1="40.74" x2="47.27" y2="39.14" fill="none" stroke="#a7a9ac" stroke-miterlimit="10" stroke-width=".5"/>
    <line x1="52.41" y1="38.88" x2="48.19" y2="36.91" fill="none" stroke="#a7a9ac" stroke-miterlimit="10" stroke-width=".5"/>
    <line x1="53.35" y1="37.1" x2="49.3" y2="34.77" fill="none" stroke="#a7a9ac" stroke-miterlimit="10" stroke-width=".5"/>
    <line x1="54.43" y1="35.41" x2="50.61" y2="32.73" fill="none" stroke="#a7a9ac" stroke-miterlimit="10" stroke-width=".5"/>
    <line x1="55.65" y1="33.81" x2="52.08" y2="30.81" fill="none" stroke="#a7a9ac" stroke-miterlimit="10" stroke-width=".5"/>
    <line x1="57" y1="32.33" x2="53.71" y2="29.03" fill="none" stroke="#a7a9ac" stroke-miterlimit="10" stroke-width=".5"/>
    <line x1="58.49" y1="30.97" x2="55.49" y2="27.4" fill="none" stroke="#a7a9ac" stroke-miterlimit="10" stroke-width=".5"/>
    <line x1="60.08" y1="29.75" x2="57.41" y2="25.93" fill="none" stroke="#a7a9ac" stroke-miterlimit="10" stroke-width=".5"/>
    <line x1="61.78" y1="28.67" x2="59.45" y2="24.63" fill="none" stroke="#a7a9ac" stroke-miterlimit="10" stroke-width=".5"/>
    <line x1="63.56" y1="27.74" x2="61.59" y2="23.51" fill="none" stroke="#a7a9ac" stroke-miterlimit="10" stroke-width=".5"/>
    <line x1="65.41" y1="26.97" x2="63.81" y2="22.59" fill="none" stroke="#a7a9ac" stroke-miterlimit="10" stroke-width=".5"/>
    <line x1="67.33" y1="26.37" x2="66.13" y2="21.86" fill="none" stroke="#a7a9ac" stroke-miterlimit="10" stroke-width=".5"/>
    <line x1="69.29" y1="25.94" x2="68.48" y2="21.34" fill="none" stroke="#a7a9ac" stroke-miterlimit="10" stroke-width=".5"/>
    <line x1="71.28" y1="25.67" x2="70.87" y2="21.02" fill="none" stroke="#a7a9ac" stroke-miterlimit="10" stroke-width=".5"/>
    <g>
      <polyline points="75.3 25.67 76.12 16.33 76.41 13" fill="none" stroke="#ab2069" stroke-miterlimit="10" stroke-width=".75"/>
      <polyline points="77.29 25.94 78.92 16.7 79.5 13.41" fill="none" stroke="#ab2069" stroke-miterlimit="10" stroke-width=".75"/>
      <polyline points="79.25 26.37 81.67 17.31 82.54 14.08" fill="none" stroke="#ab2069" stroke-miterlimit="10" stroke-width=".75"/>
      <polyline points="81.17 26.97 84.38 18.16 85.52 15.02" fill="none" stroke="#ab2069" stroke-miterlimit="10" stroke-width=".75"/>
      <polyline points="83.03 27.74 86.98 19.24 88.4 16.21" fill="none" stroke="#ab2069" stroke-miterlimit="10" stroke-width=".75"/>
      <polyline points="84.81 28.66 89.49 20.55 91.16 17.65" fill="none" stroke="#ab2069" stroke-miterlimit="10" stroke-width=".75"/>
      <polyline points="86.5 29.75 91.87 22.07 93.79 19.33" fill="none" stroke="#ab2069" stroke-miterlimit="10" stroke-width=".75"/>
      <polyline points="88.09 30.97 94.12 23.79 96.27 21.23" fill="none" stroke="#ab2069" stroke-miterlimit="10" stroke-width=".75"/>
      <polyline points="89.58 32.32 96.2 25.7 98.57 23.34" fill="none" stroke="#ab2069" stroke-miterlimit="10" stroke-width=".75"/>
      <polyline points="90.93 33.8 98.11 27.78 100.67 25.63" fill="none" stroke="#ab2069" stroke-miterlimit="10" stroke-width=".75"/>
      <polyline points="92.15 35.4 99.83 30.03 102.57 28.11" fill="none" stroke="#ab2069" stroke-miterlimit="10" stroke-width=".75"/>
      <polyline points="93.24 37.1 101.36 32.41 104.25 30.74" fill="none" stroke="#ab2069" stroke-miterlimit="10" stroke-width=".75"/>
      <polyline points="94.18 38.87 102.66 34.92 105.69 33.51" fill="none" stroke="#ab2069" stroke-miterlimit="10" stroke-width=".75"/>
      <polyline points="94.94 40.73 103.74 37.53 106.88 36.39" fill="none" stroke="#ab2069" stroke-miterlimit="10" stroke-width=".75"/>
      <polyline points="95.54 42.65 104.59 40.22 107.82 39.36" fill="none" stroke="#ab2069" stroke-miterlimit="10" stroke-width=".75"/>
      <polyline points="95.97 44.62 105.2 42.99 108.49 42.41" fill="none" stroke="#ab2069" stroke-miterlimit="10" stroke-width=".75"/>
      <polyline points="96.24 46.61 105.57 45.79 108.9 45.5" fill="none" stroke="#ab2069" stroke-miterlimit="10" stroke-width=".75"/>
      <polyline points="96.33 48.61 105.69 48.61 109.04 48.61" fill="none" stroke="#ab2069" stroke-miterlimit="10" stroke-width=".75"/>
      <polyline points="96.24 50.62 105.57 51.44 108.9 51.73" fill="none" stroke="#ab2069" stroke-miterlimit="10" stroke-width=".75"/>
      <polyline points="95.97 52.61 105.2 54.24 108.49 54.82" fill="none" stroke="#ab2069" stroke-miterlimit="10" stroke-width=".75"/>
      <polyline points="95.54 54.57 104.59 57 107.82 57.86" fill="none" stroke="#ab2069" stroke-miterlimit="10" stroke-width=".75"/>
      <polyline points="94.94 56.49 103.74 59.7 106.88 60.84" fill="none" stroke="#ab2069" stroke-miterlimit="10" stroke-width=".75"/>
      <polyline points="94.17 58.35 102.66 62.31 105.69 63.72" fill="none" stroke="#ab2069" stroke-miterlimit="10" stroke-width=".75"/>
      <polyline points="93.24 60.13 101.35 64.82 104.25 66.49" fill="none" stroke="#ab2069" stroke-miterlimit="10" stroke-width=".75"/>
      <polyline points="92.15 61.82 99.83 67.2 102.57 69.12" fill="none" stroke="#ab2069" stroke-miterlimit="10" stroke-width=".75"/>
      <polyline points="90.93 63.42 98.11 69.44 100.67 71.59" fill="none" stroke="#ab2069" stroke-miterlimit="10" stroke-width=".75"/>
      <polyline points="89.58 64.9 96.2 71.52 98.57 73.89" fill="none" stroke="#ab2069" stroke-miterlimit="10" stroke-width=".75"/>
      <polyline points="88.09 66.26 94.11 73.43 96.27 76" fill="none" stroke="#ab2069" stroke-miterlimit="10" stroke-width=".75"/>
      <polyline points="86.5 67.48 91.87 75.15 93.79 77.9" fill="none" stroke="#ab2069" stroke-miterlimit="10" stroke-width=".75"/>
      <line x1="91.16" y1="79.57" x2="84.81" y2="68.56" fill="none" stroke="#ab2069" stroke-miterlimit="10" stroke-width=".75"/>
      <line x1="73.29" y1="25.58" x2="73.29" y2="12.87" fill="none" stroke="#ab2069" stroke-miterlimit="10" stroke-width=".75"/>
    </g>
  </g>
  <g>
    <text transform="translate(61.98 61.3)" fill="#fff" font-family="OpenSans-Bold, &apos;Open Sans&apos;" font-size="36" font-weight="700" stroke="#fff" stroke-miterlimit="10" stroke-width="2"><tspan x="0" y="0">25 min</tspan></text>
    <text transform="translate(61.98 61.3)" fill="#ab2069" font-family="OpenSans-Bold, &apos;Open Sans&apos;" font-size="36" font-weight="700"><tspan x="0" y="0">25 min</tspan></text>
  </g>
</svg>